G75*
G70*
%OFA0B0*%
%FSLAX24Y24*%
%IPPOS*%
%LPD*%
%AMOC8*
5,1,8,0,0,1.08239X$1,22.5*
%
%ADD10R,0.0197X0.0197*%
%ADD11R,0.0315X0.0394*%
%ADD12R,0.0413X0.0394*%
%ADD13R,0.0866X0.0413*%
%ADD14R,0.0551X0.0118*%
%ADD15R,0.0866X0.0630*%
%ADD16R,0.0650X0.1000*%
%ADD17R,0.0315X0.0315*%
%ADD18R,0.0866X0.0472*%
%ADD19R,0.0709X0.0276*%
%ADD20R,0.0630X0.0098*%
%ADD21R,0.0098X0.0630*%
%ADD22R,0.0630X0.0630*%
%ADD23C,0.0100*%
%ADD24C,0.0160*%
%ADD25C,0.0240*%
%ADD26C,0.0320*%
%ADD27C,0.0591*%
%ADD28C,0.0400*%
%ADD29C,0.0315*%
%ADD30C,0.0400*%
D10*
X006423Y006490D03*
X006817Y006490D03*
X007880Y005073D03*
X007880Y004679D03*
X009002Y004246D03*
X009396Y004246D03*
X009849Y004089D03*
X010203Y004089D03*
X010203Y004483D03*
X009849Y004483D03*
X010616Y004246D03*
X011010Y004246D03*
X011699Y004286D03*
X012093Y004286D03*
X012880Y004522D03*
X013274Y004522D03*
X014494Y005546D03*
X014494Y005939D03*
X014652Y009168D03*
X014652Y009561D03*
X014652Y010073D03*
X014652Y010467D03*
X013667Y011884D03*
X013274Y011884D03*
X013274Y012278D03*
X013667Y012278D03*
X012565Y012238D03*
X012171Y012238D03*
X011817Y012238D03*
X011423Y012238D03*
X011108Y011766D03*
X010715Y011766D03*
X009809Y011766D03*
X009415Y011766D03*
X006896Y009581D03*
X006896Y009187D03*
D11*
X011492Y013016D03*
X011994Y013016D03*
X012496Y013016D03*
X012496Y014522D03*
X011492Y014522D03*
X010321Y014404D03*
X009691Y014404D03*
X009524Y003616D03*
X010528Y003616D03*
X010528Y002110D03*
X010026Y002110D03*
X009524Y002110D03*
D12*
X011217Y002632D03*
X004976Y013695D03*
X004976Y015506D03*
D13*
X004376Y014925D03*
X004376Y014276D03*
X004376Y013114D03*
X004376Y016087D03*
X011817Y003213D03*
X011817Y002051D03*
D14*
X004100Y005939D03*
X004100Y006136D03*
X004100Y006333D03*
X004100Y006530D03*
X004100Y006727D03*
X004100Y006923D03*
X004100Y007120D03*
X004100Y007317D03*
X004100Y007514D03*
X004100Y007711D03*
X004100Y007908D03*
X004100Y008105D03*
X004100Y008301D03*
X004100Y008498D03*
X004100Y008695D03*
X004100Y008892D03*
X004100Y009089D03*
X004100Y009286D03*
X004100Y009483D03*
X004100Y009679D03*
X004100Y009876D03*
X004100Y010073D03*
X004100Y010270D03*
X004100Y010467D03*
X004100Y010664D03*
X004100Y010860D03*
X004100Y011057D03*
X004100Y011254D03*
X004100Y011451D03*
X004100Y011648D03*
D15*
X002860Y012691D03*
X002860Y004817D03*
D16*
X006006Y013518D03*
X007006Y013518D03*
X008006Y013518D03*
X008006Y015518D03*
X007006Y015518D03*
X006006Y015518D03*
D17*
X009179Y014522D03*
X009691Y014876D03*
X010321Y014876D03*
X010833Y014522D03*
X010833Y013892D03*
X009179Y013892D03*
X006699Y003223D03*
X006069Y003223D03*
X006069Y002435D03*
X006699Y002435D03*
X008037Y002514D03*
X008037Y003144D03*
D18*
X004191Y004355D03*
X004191Y001540D03*
D19*
X005321Y002701D03*
X005321Y003193D03*
D20*
X007880Y005742D03*
X007880Y005939D03*
X007880Y006136D03*
X007880Y006333D03*
X007880Y006530D03*
X007880Y006727D03*
X007880Y006923D03*
X007880Y007120D03*
X007880Y007317D03*
X007880Y007514D03*
X007880Y007711D03*
X007880Y007908D03*
X007880Y008105D03*
X007880Y008301D03*
X007880Y008498D03*
X007880Y008695D03*
X007880Y008892D03*
X007880Y009089D03*
X007880Y009286D03*
X007880Y009483D03*
X007880Y009679D03*
X007880Y009876D03*
X007880Y010073D03*
X007880Y010270D03*
X007880Y010467D03*
X013943Y010467D03*
X013943Y010270D03*
X013943Y010073D03*
X013943Y009876D03*
X013943Y009679D03*
X013943Y009483D03*
X013943Y009286D03*
X013943Y009089D03*
X013943Y008892D03*
X013943Y008695D03*
X013943Y008498D03*
X013943Y008301D03*
X013943Y008105D03*
X013943Y007908D03*
X013943Y007711D03*
X013943Y007514D03*
X013943Y007317D03*
X013943Y007120D03*
X013943Y006923D03*
X013943Y006727D03*
X013943Y006530D03*
X013943Y006333D03*
X013943Y006136D03*
X013943Y005939D03*
X013943Y005742D03*
D21*
X013274Y005073D03*
X013077Y005073D03*
X012880Y005073D03*
X012683Y005073D03*
X012486Y005073D03*
X012289Y005073D03*
X012093Y005073D03*
X011896Y005073D03*
X011699Y005073D03*
X011502Y005073D03*
X011305Y005073D03*
X011108Y005073D03*
X010911Y005073D03*
X010715Y005073D03*
X010518Y005073D03*
X010321Y005073D03*
X010124Y005073D03*
X009927Y005073D03*
X009730Y005073D03*
X009534Y005073D03*
X009337Y005073D03*
X009140Y005073D03*
X008943Y005073D03*
X008746Y005073D03*
X008549Y005073D03*
X008549Y011136D03*
X008746Y011136D03*
X008943Y011136D03*
X009140Y011136D03*
X009337Y011136D03*
X009534Y011136D03*
X009730Y011136D03*
X009927Y011136D03*
X010124Y011136D03*
X010321Y011136D03*
X010518Y011136D03*
X010715Y011136D03*
X010911Y011136D03*
X011108Y011136D03*
X011305Y011136D03*
X011502Y011136D03*
X011699Y011136D03*
X011896Y011136D03*
X012093Y011136D03*
X012289Y011136D03*
X012486Y011136D03*
X012683Y011136D03*
X012880Y011136D03*
X013077Y011136D03*
X013274Y011136D03*
D22*
X007408Y003447D03*
X007408Y002187D03*
D23*
X007458Y002200D02*
X008132Y002200D01*
X008154Y002210D02*
X008005Y002148D01*
X007892Y002034D01*
X007832Y001889D01*
X007832Y002137D01*
X007458Y002137D01*
X007458Y002237D01*
X007832Y002237D01*
X007832Y002251D01*
X007835Y002247D01*
X008009Y002247D01*
X008009Y002485D01*
X008066Y002485D01*
X008066Y002247D01*
X008240Y002247D01*
X008304Y002311D01*
X008304Y002485D01*
X008066Y002485D01*
X008066Y002543D01*
X008304Y002543D01*
X008304Y002711D01*
X008707Y002711D01*
X008707Y001344D01*
X006581Y001344D01*
X006581Y002169D01*
X006670Y002169D01*
X006670Y002406D01*
X006728Y002406D01*
X006728Y002169D01*
X006902Y002169D01*
X006965Y002233D01*
X006965Y002406D01*
X006728Y002406D01*
X006728Y002464D01*
X006965Y002464D01*
X006965Y002638D01*
X006902Y002702D01*
X006728Y002702D01*
X006728Y002464D01*
X006670Y002464D01*
X006670Y002702D01*
X006581Y002702D01*
X006581Y002711D01*
X007043Y002711D01*
X007043Y002606D01*
X006984Y002547D01*
X006984Y002237D01*
X007357Y002237D01*
X007357Y002137D01*
X006984Y002137D01*
X006984Y001827D01*
X007047Y001763D01*
X007358Y001763D01*
X007358Y002137D01*
X007457Y002137D01*
X007457Y001763D01*
X007768Y001763D01*
X007832Y001827D01*
X007832Y001854D01*
X008186Y001854D01*
X008186Y002210D01*
X008154Y002210D01*
X008186Y002200D02*
X008283Y002200D01*
X008283Y002210D02*
X008283Y001854D01*
X008186Y001854D01*
X008186Y001757D01*
X007830Y001757D01*
X007830Y001725D01*
X007892Y001576D01*
X008005Y001463D01*
X008154Y001401D01*
X008186Y001401D01*
X008186Y001757D01*
X008283Y001757D01*
X008283Y001854D01*
X008639Y001854D01*
X008639Y001886D01*
X008577Y002034D01*
X008463Y002148D01*
X008315Y002210D01*
X008283Y002210D01*
X008337Y002200D02*
X008707Y002200D01*
X008707Y002102D02*
X008510Y002102D01*
X008590Y002003D02*
X008707Y002003D01*
X008707Y001905D02*
X008631Y001905D01*
X008707Y001806D02*
X008283Y001806D01*
X008283Y001757D02*
X008639Y001757D01*
X008639Y001725D01*
X008577Y001576D01*
X008463Y001463D01*
X008315Y001401D01*
X008283Y001401D01*
X008283Y001757D01*
X008283Y001708D02*
X008186Y001708D01*
X008186Y001806D02*
X007811Y001806D01*
X007832Y001905D02*
X007838Y001905D01*
X007832Y002003D02*
X007879Y002003D01*
X007832Y002102D02*
X007959Y002102D01*
X008186Y002102D02*
X008283Y002102D01*
X008283Y002003D02*
X008186Y002003D01*
X008186Y001905D02*
X008283Y001905D01*
X008283Y001609D02*
X008186Y001609D01*
X008186Y001511D02*
X008283Y001511D01*
X008283Y001412D02*
X008186Y001412D01*
X008127Y001412D02*
X006581Y001412D01*
X006581Y001511D02*
X007957Y001511D01*
X007878Y001609D02*
X006581Y001609D01*
X006581Y001708D02*
X007837Y001708D01*
X007457Y001806D02*
X007358Y001806D01*
X007358Y001905D02*
X007457Y001905D01*
X007457Y002003D02*
X007358Y002003D01*
X007358Y002102D02*
X007457Y002102D01*
X007357Y002200D02*
X006933Y002200D01*
X006965Y002299D02*
X006984Y002299D01*
X006984Y002398D02*
X006965Y002398D01*
X006965Y002496D02*
X006984Y002496D01*
X006965Y002595D02*
X007031Y002595D01*
X007043Y002693D02*
X006910Y002693D01*
X006728Y002693D02*
X006670Y002693D01*
X006670Y002595D02*
X006728Y002595D01*
X006728Y002496D02*
X006670Y002496D01*
X006670Y002398D02*
X006728Y002398D01*
X006728Y002299D02*
X006670Y002299D01*
X006670Y002200D02*
X006728Y002200D01*
X006581Y002102D02*
X006984Y002102D01*
X006984Y002003D02*
X006581Y002003D01*
X006581Y001905D02*
X006984Y001905D01*
X007004Y001806D02*
X006581Y001806D01*
X006620Y002947D02*
X006620Y002956D01*
X006670Y002956D01*
X006670Y003194D01*
X006728Y003194D01*
X006728Y003251D01*
X006965Y003251D01*
X006965Y003425D01*
X006902Y003489D01*
X006728Y003489D01*
X006728Y003252D01*
X006670Y003252D01*
X006670Y003489D01*
X006620Y003489D01*
X006620Y004404D01*
X008808Y004404D01*
X008795Y004390D01*
X008795Y004246D01*
X008795Y004103D01*
X008858Y004039D01*
X009002Y004039D01*
X009146Y004039D01*
X009199Y004092D01*
X009252Y004039D01*
X009539Y004039D01*
X009603Y004103D01*
X009603Y004386D01*
X009614Y004397D01*
X009614Y004442D01*
X009614Y004529D01*
X009614Y004574D01*
X009641Y004601D01*
X009641Y004339D01*
X009694Y004286D01*
X009641Y004232D01*
X009641Y003945D01*
X009664Y003922D01*
X009321Y003922D01*
X009257Y003858D01*
X009257Y003374D01*
X009321Y003310D01*
X009726Y003310D01*
X009790Y003374D01*
X009790Y003497D01*
X009796Y003497D01*
X009889Y003590D01*
X010008Y003708D01*
X010008Y003840D01*
X010008Y003897D01*
X010026Y003915D01*
X010044Y003897D01*
X010044Y003840D01*
X010044Y003708D01*
X010162Y003590D01*
X010255Y003497D01*
X010261Y003497D01*
X010261Y003374D01*
X010325Y003310D01*
X010730Y003310D01*
X010794Y003374D01*
X010794Y003858D01*
X010730Y003922D01*
X010387Y003922D01*
X010410Y003945D01*
X010410Y004101D01*
X010473Y004039D01*
X010760Y004039D01*
X010813Y004092D01*
X010866Y004039D01*
X011010Y004039D01*
X011154Y004039D01*
X011217Y004103D01*
X011217Y004246D01*
X011010Y004246D01*
X011010Y004039D01*
X011010Y004246D01*
X011010Y004246D01*
X011010Y004246D01*
X011009Y004246D02*
X010961Y004246D01*
X010961Y004246D01*
X011009Y004246D01*
X011009Y004246D01*
X011010Y004247D02*
X011010Y004454D01*
X011010Y004247D01*
X011010Y004247D01*
X011010Y004246D02*
X011217Y004246D01*
X011217Y004286D01*
X011292Y004255D01*
X011344Y004255D01*
X011344Y004521D01*
X011345Y004521D01*
X011345Y004255D01*
X011398Y004255D01*
X011491Y004294D01*
X011491Y004286D01*
X011698Y004286D01*
X011698Y004285D01*
X011491Y004285D01*
X011491Y004142D01*
X011555Y004078D01*
X011699Y004078D01*
X011842Y004078D01*
X011896Y004131D01*
X011949Y004078D01*
X012236Y004078D01*
X012300Y004142D01*
X012300Y004429D01*
X012252Y004478D01*
X012252Y004548D01*
X012199Y004601D01*
X012158Y004642D01*
X012148Y004642D01*
X012139Y004649D01*
X012187Y004649D01*
X012191Y004653D01*
X012195Y004649D01*
X012384Y004649D01*
X012388Y004653D01*
X012392Y004649D01*
X012581Y004649D01*
X012585Y004653D01*
X012589Y004649D01*
X012673Y004649D01*
X012673Y004378D01*
X012736Y004314D01*
X013024Y004314D01*
X013077Y004368D01*
X013130Y004314D01*
X013273Y004314D01*
X013273Y004521D01*
X013274Y004521D01*
X013274Y004314D01*
X013417Y004314D01*
X013481Y004378D01*
X013481Y004522D01*
X013481Y004665D01*
X013432Y004715D01*
X013432Y005073D01*
X013274Y005073D01*
X013274Y005073D01*
X013432Y005073D01*
X013432Y005433D01*
X013368Y005497D01*
X013274Y005497D01*
X013274Y005073D01*
X013274Y004522D01*
X013481Y004522D01*
X013274Y004522D01*
X013274Y004522D01*
X013273Y004522D01*
X013273Y004649D01*
X013273Y005073D01*
X013115Y005073D01*
X013077Y005073D01*
X013274Y005073D01*
X013274Y004649D01*
X013274Y004522D01*
X013273Y004566D02*
X013274Y004566D01*
X013273Y004664D02*
X013274Y004664D01*
X013273Y004763D02*
X013274Y004763D01*
X013273Y004861D02*
X013274Y004861D01*
X013273Y004960D02*
X013274Y004960D01*
X013273Y005058D02*
X013274Y005058D01*
X013273Y005073D02*
X013274Y005073D01*
X013273Y005073D01*
X013273Y005073D01*
X013115Y005073D01*
X013077Y005073D01*
X013077Y005073D01*
X013077Y005073D01*
X013077Y005497D01*
X013171Y005497D01*
X013175Y005493D01*
X013179Y005497D01*
X013273Y005497D01*
X013273Y005073D01*
X013273Y005157D02*
X013274Y005157D01*
X013273Y005255D02*
X013274Y005255D01*
X013273Y005354D02*
X013274Y005354D01*
X013273Y005452D02*
X013274Y005452D01*
X013413Y005452D02*
X013890Y005452D01*
X013877Y005465D02*
X013956Y005386D01*
X014088Y005386D01*
X014302Y005386D01*
X014327Y005362D01*
X014268Y005303D01*
X014228Y005205D01*
X014228Y005099D01*
X014268Y005001D01*
X014343Y004926D01*
X014441Y004885D01*
X014547Y004885D01*
X014645Y004926D01*
X014720Y005001D01*
X014761Y005099D01*
X014761Y005205D01*
X014720Y005303D01*
X014661Y005362D01*
X014702Y005402D01*
X014702Y005689D01*
X014648Y005742D01*
X014702Y005796D01*
X014702Y005939D01*
X014495Y005939D01*
X014495Y005939D01*
X014702Y005939D01*
X014702Y006083D01*
X014638Y006147D01*
X014494Y006147D01*
X014367Y006147D01*
X014367Y006230D01*
X014363Y006234D01*
X014367Y006239D01*
X014367Y006427D01*
X014363Y006431D01*
X014367Y006435D01*
X014367Y006624D01*
X014363Y006628D01*
X014367Y006632D01*
X014367Y006821D01*
X014363Y006825D01*
X014367Y006829D01*
X014367Y007018D01*
X014363Y007022D01*
X014367Y007026D01*
X014367Y007215D01*
X014363Y007219D01*
X014367Y007223D01*
X014367Y007412D01*
X014363Y007416D01*
X014367Y007420D01*
X014367Y007608D01*
X014363Y007612D01*
X014367Y007616D01*
X014367Y007805D01*
X014363Y007809D01*
X014367Y007813D01*
X014367Y008002D01*
X014363Y008006D01*
X014367Y008010D01*
X014367Y008104D01*
X013943Y008104D01*
X013943Y008105D01*
X014367Y008105D01*
X014367Y008199D01*
X014363Y008203D01*
X014367Y008207D01*
X014367Y008396D01*
X014363Y008400D01*
X014367Y008404D01*
X014367Y008593D01*
X014363Y008597D01*
X014367Y008601D01*
X014367Y008789D01*
X014363Y008794D01*
X014367Y008798D01*
X014367Y008986D01*
X014363Y008990D01*
X014367Y008994D01*
X014367Y009089D01*
X014367Y009183D01*
X014363Y009187D01*
X014367Y009191D01*
X014367Y009285D01*
X013943Y009285D01*
X013943Y009127D01*
X013943Y009089D01*
X013943Y009089D01*
X013943Y009127D01*
X013943Y009285D01*
X013943Y009285D01*
X013943Y009286D01*
X014337Y009286D01*
X014455Y009168D01*
X014652Y009168D01*
X014859Y009168D01*
X014859Y009311D01*
X014806Y009364D01*
X014859Y009418D01*
X014859Y009705D01*
X014795Y009769D01*
X014508Y009769D01*
X014460Y009720D01*
X014367Y009720D01*
X014367Y009774D01*
X014363Y009778D01*
X014367Y009782D01*
X014367Y009914D01*
X014460Y009914D01*
X014508Y009866D01*
X014795Y009866D01*
X014859Y009929D01*
X014859Y010217D01*
X014806Y010270D01*
X014859Y010323D01*
X014859Y010467D01*
X014859Y010610D01*
X014795Y010674D01*
X014652Y010674D01*
X014652Y010467D01*
X014859Y010467D01*
X014652Y010467D01*
X014652Y010467D01*
X014651Y010467D01*
X014651Y010467D01*
X014444Y010467D01*
X014444Y010610D01*
X014508Y010674D01*
X014651Y010674D01*
X014651Y010467D01*
X014444Y010467D01*
X014444Y010323D01*
X014497Y010270D01*
X014460Y010232D01*
X014367Y010232D01*
X014367Y010270D01*
X014367Y010364D01*
X014363Y010368D01*
X014367Y010372D01*
X014367Y010561D01*
X014303Y010625D01*
X013583Y010625D01*
X013519Y010561D01*
X013519Y010372D01*
X013523Y010368D01*
X013519Y010364D01*
X013519Y010270D01*
X013943Y010270D01*
X014297Y010270D01*
X014494Y010467D01*
X014652Y010467D01*
X014651Y010478D02*
X014652Y010478D01*
X014651Y010577D02*
X014652Y010577D01*
X014859Y010577D02*
X016098Y010577D01*
X016098Y010675D02*
X013236Y010675D01*
X013236Y010712D02*
X013368Y010712D01*
X013432Y010776D01*
X013432Y011496D01*
X013368Y011560D01*
X013179Y011560D01*
X013175Y011556D01*
X013171Y011560D01*
X013039Y011560D01*
X013039Y011700D01*
X013064Y011725D01*
X013082Y011725D01*
X013130Y011677D01*
X013417Y011677D01*
X013471Y011730D01*
X013524Y011677D01*
X013811Y011677D01*
X013859Y011725D01*
X013922Y011725D01*
X013989Y011658D01*
X014087Y011618D01*
X014193Y011618D01*
X014291Y011658D01*
X014366Y011733D01*
X014406Y011831D01*
X014406Y011937D01*
X014366Y012035D01*
X014291Y012110D01*
X014193Y012151D01*
X014087Y012151D01*
X013989Y012110D01*
X013922Y012043D01*
X013859Y012043D01*
X013822Y012081D01*
X013875Y012134D01*
X013875Y012278D01*
X013875Y012421D01*
X013811Y012485D01*
X013668Y012485D01*
X013668Y012278D01*
X013875Y012278D01*
X013668Y012278D01*
X013668Y012278D01*
X013667Y012278D01*
X013667Y012485D01*
X013524Y012485D01*
X013471Y012432D01*
X013417Y012485D01*
X013130Y012485D01*
X013082Y012437D01*
X013011Y012437D01*
X012918Y012344D01*
X012772Y012198D01*
X012772Y012382D01*
X012709Y012446D01*
X012685Y012446D01*
X012685Y012710D01*
X012699Y012710D01*
X012763Y012774D01*
X012763Y013258D01*
X012699Y013322D01*
X012293Y013322D01*
X012245Y013274D01*
X012197Y013322D01*
X011791Y013322D01*
X011743Y013274D01*
X011695Y013322D01*
X011290Y013322D01*
X011226Y013258D01*
X011226Y012774D01*
X011290Y012710D01*
X011304Y012710D01*
X011304Y012446D01*
X011280Y012446D01*
X011216Y012382D01*
X011216Y012095D01*
X011280Y012031D01*
X011304Y012031D01*
X011304Y011936D01*
X011397Y011843D01*
X011540Y011700D01*
X011540Y011560D01*
X011502Y011560D01*
X011408Y011560D01*
X011404Y011556D01*
X011400Y011560D01*
X011253Y011560D01*
X011316Y011622D01*
X011316Y011766D01*
X011316Y011910D01*
X011252Y011973D01*
X011109Y011973D01*
X011109Y011766D01*
X011316Y011766D01*
X011109Y011766D01*
X011109Y011766D01*
X011108Y011766D01*
X011108Y011136D01*
X011070Y011136D01*
X010912Y011136D01*
X010912Y011136D01*
X011070Y011136D01*
X011108Y011136D01*
X011108Y011136D01*
X011109Y011136D01*
X011109Y010712D01*
X011146Y010712D01*
X011146Y010655D01*
X011055Y010655D01*
X010957Y010614D01*
X010914Y010571D01*
X010874Y010611D01*
X010874Y010712D01*
X010911Y010712D01*
X010911Y011136D01*
X010912Y011136D01*
X010912Y010712D01*
X011006Y010712D01*
X011010Y010716D01*
X011014Y010712D01*
X011108Y010712D01*
X011108Y011136D01*
X010911Y011136D01*
X010911Y011560D01*
X010874Y011560D01*
X010874Y011574D01*
X010911Y011612D01*
X010963Y011560D01*
X010912Y011560D01*
X010912Y011136D01*
X010911Y011136D01*
X010911Y011168D02*
X010912Y011168D01*
X010911Y011266D02*
X010912Y011266D01*
X010911Y011365D02*
X010912Y011365D01*
X010911Y011464D02*
X010912Y011464D01*
X010874Y011562D02*
X010961Y011562D01*
X011108Y011562D02*
X011109Y011562D01*
X011109Y011559D02*
X011109Y011766D01*
X011108Y011766D01*
X011108Y011973D01*
X010965Y011973D01*
X010911Y011920D01*
X010858Y011973D01*
X010571Y011973D01*
X010523Y011925D01*
X010373Y011925D01*
X010321Y011873D01*
X010321Y011963D01*
X010283Y011963D01*
X010283Y012107D01*
X010190Y012201D01*
X009993Y012397D01*
X009861Y012397D01*
X005806Y012397D01*
X005713Y012304D01*
X005372Y011963D01*
X003875Y011963D01*
X003875Y012397D01*
X003846Y012426D01*
X003402Y012426D01*
X003402Y013051D01*
X003339Y013115D01*
X002382Y013115D01*
X002318Y013051D01*
X002318Y012426D01*
X002131Y012426D01*
X002102Y012397D01*
X002102Y011963D01*
X001001Y011963D01*
X001001Y015006D01*
X001085Y014922D01*
X001458Y014767D01*
X001861Y014767D01*
X002234Y014922D01*
X002520Y015207D01*
X002674Y015580D01*
X002674Y015984D01*
X002520Y016356D01*
X002436Y016440D01*
X014663Y016440D01*
X014579Y016356D01*
X014424Y015984D01*
X014424Y015580D01*
X014579Y015207D01*
X014864Y014922D01*
X015237Y014767D01*
X015641Y014767D01*
X016014Y014922D01*
X016098Y015006D01*
X016098Y002778D01*
X016014Y002862D01*
X015641Y003017D01*
X015237Y003017D01*
X014864Y002862D01*
X014579Y002577D01*
X014424Y002204D01*
X014424Y001800D01*
X014579Y001427D01*
X014663Y001344D01*
X008943Y001344D01*
X008943Y002947D01*
X008304Y002947D01*
X008304Y003115D01*
X008066Y003115D01*
X008066Y003173D01*
X008009Y003173D01*
X008009Y003410D01*
X007835Y003410D01*
X007821Y003397D01*
X007458Y003397D01*
X007458Y003497D01*
X007832Y003497D01*
X007832Y003807D01*
X007768Y003871D01*
X007457Y003871D01*
X007457Y003497D01*
X007358Y003497D01*
X007358Y003871D01*
X007047Y003871D01*
X006984Y003807D01*
X006984Y003497D01*
X007357Y003497D01*
X007357Y003397D01*
X006984Y003397D01*
X006984Y003087D01*
X007043Y003028D01*
X007043Y002947D01*
X006620Y002947D01*
X006670Y002989D02*
X006728Y002989D01*
X006728Y002956D02*
X006902Y002956D01*
X006965Y003020D01*
X006965Y003194D01*
X006728Y003194D01*
X006728Y002956D01*
X006728Y003087D02*
X006670Y003087D01*
X006670Y003186D02*
X006728Y003186D01*
X006728Y003284D02*
X006670Y003284D01*
X006670Y003383D02*
X006728Y003383D01*
X006728Y003482D02*
X006670Y003482D01*
X006620Y003580D02*
X006984Y003580D01*
X006984Y003679D02*
X006620Y003679D01*
X006620Y003777D02*
X006984Y003777D01*
X006909Y003482D02*
X007357Y003482D01*
X007358Y003580D02*
X007457Y003580D01*
X007458Y003482D02*
X009257Y003482D01*
X009257Y003580D02*
X007832Y003580D01*
X007832Y003679D02*
X009257Y003679D01*
X009257Y003777D02*
X007832Y003777D01*
X008009Y003383D02*
X008066Y003383D01*
X008066Y003410D02*
X008066Y003173D01*
X008304Y003173D01*
X008304Y003347D01*
X008240Y003410D01*
X008066Y003410D01*
X008066Y003284D02*
X008009Y003284D01*
X008009Y003186D02*
X008066Y003186D01*
X008268Y003383D02*
X009257Y003383D01*
X009526Y003616D02*
X009565Y003656D01*
X009730Y003656D01*
X009849Y003774D01*
X009849Y004089D01*
X009641Y004073D02*
X009573Y004073D01*
X009603Y004171D02*
X009641Y004171D01*
X009603Y004270D02*
X009679Y004270D01*
X009641Y004368D02*
X009603Y004368D01*
X009614Y004467D02*
X009641Y004467D01*
X009641Y004566D02*
X009614Y004566D01*
X009534Y004719D02*
X009455Y004640D01*
X009455Y004463D01*
X009396Y004246D01*
X009287Y004454D02*
X009252Y004454D01*
X009199Y004400D01*
X009146Y004454D01*
X009061Y004454D01*
X009061Y004612D01*
X009098Y004649D01*
X009140Y004649D01*
X009234Y004649D01*
X009238Y004653D01*
X009242Y004649D01*
X009296Y004649D01*
X009296Y004484D01*
X009287Y004454D01*
X009291Y004467D02*
X009061Y004467D01*
X009022Y004502D02*
X009002Y004246D01*
X009002Y004039D01*
X009002Y004246D01*
X009002Y004246D01*
X008795Y004246D01*
X009002Y004246D01*
X009002Y004246D01*
X009002Y004171D02*
X009002Y004171D01*
X009002Y004073D02*
X009002Y004073D01*
X008824Y004073D02*
X006620Y004073D01*
X006620Y004171D02*
X008795Y004171D01*
X008795Y004270D02*
X006620Y004270D01*
X006620Y004368D02*
X008795Y004368D01*
X009022Y004502D02*
X009022Y004522D01*
X009140Y004679D01*
X009140Y005073D01*
X009337Y005073D01*
X009336Y005073D01*
X009178Y005073D01*
X009140Y005073D01*
X009140Y005073D01*
X009178Y005073D01*
X009336Y005073D01*
X009336Y005073D01*
X009336Y005497D01*
X009242Y005497D01*
X009238Y005493D01*
X009234Y005497D01*
X009140Y005497D01*
X009140Y005073D01*
X009140Y004649D01*
X009140Y005073D01*
X009140Y005073D01*
X009140Y005073D01*
X009140Y005497D01*
X009061Y005497D01*
X009061Y005703D01*
X009337Y005703D01*
X009337Y009561D01*
X010321Y009561D01*
X010321Y010712D01*
X010415Y010712D01*
X010419Y010716D01*
X010423Y010712D01*
X010556Y010712D01*
X010556Y010480D01*
X010649Y010386D01*
X010806Y010229D01*
X010890Y010229D01*
X010957Y010162D01*
X011055Y010121D01*
X011161Y010121D01*
X011259Y010162D01*
X011334Y010237D01*
X011375Y010335D01*
X011375Y010430D01*
X011464Y010519D01*
X011464Y010651D01*
X011464Y010712D01*
X011502Y010712D01*
X011596Y010712D01*
X011600Y010716D01*
X011604Y010712D01*
X011793Y010712D01*
X011797Y010716D01*
X011801Y010712D01*
X011990Y010712D01*
X011994Y010716D01*
X011998Y010712D01*
X012187Y010712D01*
X012191Y010716D01*
X012195Y010712D01*
X012384Y010712D01*
X012388Y010716D01*
X012392Y010712D01*
X012486Y010712D01*
X012486Y011136D01*
X012486Y011136D01*
X012486Y011560D01*
X012448Y011560D01*
X012448Y011700D01*
X012524Y011776D01*
X012524Y011560D01*
X012486Y011560D01*
X012486Y011136D01*
X012486Y011136D01*
X012486Y010712D01*
X012581Y010712D01*
X012585Y010716D01*
X012589Y010712D01*
X012778Y010712D01*
X012782Y010716D01*
X012786Y010712D01*
X012918Y010712D01*
X012918Y010488D01*
X012890Y010460D01*
X012850Y010362D01*
X012850Y010256D01*
X012890Y010158D01*
X012957Y010091D01*
X012957Y009785D01*
X012957Y009653D01*
X013193Y009417D01*
X013287Y009323D01*
X013519Y009323D01*
X013519Y009286D01*
X013943Y009286D01*
X014367Y009286D01*
X014367Y009323D01*
X014403Y009323D01*
X014470Y009391D01*
X014497Y009364D01*
X014444Y009311D01*
X014444Y009168D01*
X014651Y009168D01*
X014651Y009167D01*
X014444Y009167D01*
X014444Y009024D01*
X014508Y008960D01*
X014651Y008960D01*
X014651Y009167D01*
X014652Y009167D01*
X014652Y008960D01*
X014795Y008960D01*
X014859Y009024D01*
X014859Y009167D01*
X014652Y009167D01*
X014652Y009168D01*
X014651Y009099D02*
X014652Y009099D01*
X014651Y009000D02*
X014652Y009000D01*
X014835Y009000D02*
X016098Y009000D01*
X016098Y009099D02*
X014859Y009099D01*
X014859Y009197D02*
X016098Y009197D01*
X016098Y009296D02*
X014859Y009296D01*
X014836Y009394D02*
X016098Y009394D01*
X016098Y009493D02*
X015244Y009493D01*
X015236Y009490D02*
X015334Y009530D01*
X015409Y009605D01*
X015450Y009703D01*
X015450Y009756D01*
X015184Y009756D01*
X015184Y009756D01*
X015450Y009756D01*
X015450Y009809D01*
X015409Y009907D01*
X015334Y009982D01*
X015236Y010023D01*
X015183Y010023D01*
X015130Y010023D01*
X015032Y009982D01*
X014957Y009907D01*
X014917Y009809D01*
X014917Y009756D01*
X014917Y009703D01*
X014957Y009605D01*
X015032Y009530D01*
X015130Y009490D01*
X015183Y009490D01*
X015183Y009756D01*
X014917Y009756D01*
X015183Y009756D01*
X015183Y009756D01*
X015183Y009756D01*
X015183Y009490D01*
X015236Y009490D01*
X015183Y009493D02*
X015183Y009493D01*
X015123Y009493D02*
X014859Y009493D01*
X014859Y009591D02*
X014971Y009591D01*
X014922Y009690D02*
X014859Y009690D01*
X014917Y009788D02*
X014367Y009788D01*
X014367Y009887D02*
X014487Y009887D01*
X014652Y010073D02*
X013943Y010073D01*
X013431Y010073D01*
X013116Y010309D01*
X013077Y010349D01*
X013077Y011136D01*
X012880Y011136D02*
X012880Y011766D01*
X012998Y011884D01*
X013274Y011884D01*
X013039Y011661D02*
X013986Y011661D01*
X014140Y011884D02*
X013667Y011884D01*
X013848Y012055D02*
X013934Y012055D01*
X013875Y012153D02*
X014692Y012153D01*
X014682Y012164D02*
X014757Y012089D01*
X014855Y012049D01*
X014907Y012049D01*
X014907Y012315D01*
X014641Y012315D01*
X014641Y012262D01*
X014682Y012164D01*
X014645Y012252D02*
X013875Y012252D01*
X013875Y012350D02*
X014641Y012350D01*
X014641Y012368D02*
X014641Y012315D01*
X014907Y012315D01*
X014907Y012315D01*
X014908Y012315D01*
X014908Y012315D01*
X015174Y012315D01*
X015174Y012262D01*
X015133Y012164D01*
X015059Y012089D01*
X014961Y012049D01*
X014908Y012049D01*
X014908Y012315D01*
X015174Y012315D01*
X015174Y012368D01*
X015133Y012466D01*
X015059Y012541D01*
X014961Y012582D01*
X014908Y012582D01*
X014908Y012316D01*
X014907Y012316D01*
X014907Y012582D01*
X014855Y012582D01*
X014757Y012541D01*
X014682Y012466D01*
X014641Y012368D01*
X014675Y012449D02*
X013847Y012449D01*
X013668Y012449D02*
X013667Y012449D01*
X013667Y012350D02*
X013668Y012350D01*
X013488Y012449D02*
X013454Y012449D01*
X013274Y012278D02*
X013077Y012278D01*
X012683Y011884D01*
X012683Y011136D01*
X012486Y011168D02*
X012486Y011168D01*
X012486Y011266D02*
X012486Y011266D01*
X012486Y011365D02*
X012486Y011365D01*
X012486Y011464D02*
X012486Y011464D01*
X012448Y011562D02*
X012524Y011562D01*
X012524Y011661D02*
X012448Y011661D01*
X012508Y011759D02*
X012524Y011759D01*
X012289Y011766D02*
X012289Y011136D01*
X012093Y011136D01*
X011896Y011136D02*
X011699Y011136D01*
X011699Y011766D01*
X011463Y012002D01*
X011463Y012120D01*
X011423Y012238D01*
X011423Y012317D01*
X011463Y012357D01*
X011463Y012988D01*
X011492Y013018D01*
X011226Y013040D02*
X010765Y013040D01*
X010765Y013063D02*
X010765Y013010D01*
X010724Y012912D01*
X010649Y012837D01*
X010551Y012797D01*
X010498Y012797D01*
X010445Y012797D01*
X010347Y012837D01*
X010272Y012912D01*
X010232Y013010D01*
X010232Y013063D01*
X010498Y013063D01*
X010498Y013063D01*
X010498Y012797D01*
X010498Y013063D01*
X010498Y013063D01*
X010232Y013063D01*
X010232Y013116D01*
X010272Y013214D01*
X010347Y013289D01*
X010445Y013330D01*
X010498Y013330D01*
X010498Y013064D01*
X010498Y013064D01*
X010498Y013330D01*
X010551Y013330D01*
X010649Y013289D01*
X010724Y013214D01*
X010765Y013116D01*
X010765Y013063D01*
X010499Y013063D01*
X010499Y013063D01*
X010765Y013063D01*
X010755Y013139D02*
X011226Y013139D01*
X011226Y013237D02*
X010701Y013237D01*
X010498Y013237D02*
X010498Y013237D01*
X010498Y013139D02*
X010498Y013139D01*
X010498Y013040D02*
X010498Y013040D01*
X010498Y012942D02*
X010498Y012942D01*
X010498Y012843D02*
X010498Y012843D01*
X010341Y012843D02*
X009592Y012843D01*
X009586Y012837D02*
X009661Y012912D01*
X009702Y013010D01*
X009702Y013063D01*
X009436Y013063D01*
X009436Y013063D01*
X009702Y013063D01*
X009702Y013116D01*
X009661Y013214D01*
X009586Y013289D01*
X009488Y013330D01*
X009435Y013330D01*
X009382Y013330D01*
X009284Y013289D01*
X009209Y013214D01*
X009169Y013116D01*
X009169Y013063D01*
X009169Y013010D01*
X009209Y012912D01*
X009284Y012837D01*
X009382Y012797D01*
X009435Y012797D01*
X009435Y013063D01*
X009435Y013063D01*
X009169Y013063D01*
X009435Y013063D01*
X009435Y013063D01*
X009435Y012797D01*
X009488Y012797D01*
X009586Y012837D01*
X009673Y012942D02*
X010260Y012942D01*
X010232Y013040D02*
X009702Y013040D01*
X009692Y013139D02*
X010241Y013139D01*
X010295Y013237D02*
X009638Y013237D01*
X009435Y013237D02*
X009435Y013237D01*
X009435Y013330D02*
X009435Y013064D01*
X009435Y013064D01*
X009435Y013330D01*
X009435Y013139D02*
X009435Y013139D01*
X009435Y013040D02*
X009435Y013040D01*
X009435Y012942D02*
X009435Y012942D01*
X009435Y012843D02*
X009435Y012843D01*
X009278Y012843D02*
X004899Y012843D01*
X004918Y012863D02*
X004918Y013015D01*
X005027Y013015D01*
X005056Y013044D01*
X005056Y013342D01*
X005056Y013389D01*
X005110Y013389D01*
X005261Y013325D01*
X005297Y013289D01*
X005345Y013289D01*
X005487Y013289D01*
X005572Y013289D01*
X005572Y012973D01*
X005636Y012909D01*
X006376Y012909D01*
X006440Y012973D01*
X006440Y014063D01*
X006376Y014127D01*
X005636Y014127D01*
X005572Y014063D01*
X005572Y013747D01*
X005439Y013747D01*
X005292Y013809D01*
X005292Y013937D01*
X005228Y014001D01*
X005056Y014001D01*
X005056Y014048D01*
X005056Y014346D01*
X005027Y014375D01*
X004918Y014375D01*
X004918Y014528D01*
X004854Y014592D01*
X004426Y014592D01*
X004426Y014326D01*
X004326Y014326D01*
X004326Y014592D01*
X003898Y014592D01*
X003834Y014528D01*
X003834Y014375D01*
X003725Y014375D01*
X003696Y014346D01*
X003696Y013044D01*
X003725Y013015D01*
X003834Y013015D01*
X003834Y012863D01*
X003898Y012799D01*
X004326Y012799D01*
X004326Y013064D01*
X004426Y013064D01*
X004426Y012799D01*
X004854Y012799D01*
X004918Y012863D01*
X004918Y012942D02*
X005603Y012942D01*
X005572Y013040D02*
X005052Y013040D01*
X005056Y013139D02*
X005572Y013139D01*
X005572Y013237D02*
X005056Y013237D01*
X005056Y013336D02*
X005235Y013336D01*
X005292Y013829D02*
X005572Y013829D01*
X005572Y013927D02*
X005292Y013927D01*
X005056Y014026D02*
X005572Y014026D01*
X005633Y014124D02*
X005056Y014124D01*
X005056Y014223D02*
X008972Y014223D01*
X008972Y014260D02*
X008972Y014154D01*
X008913Y014095D01*
X008913Y013921D01*
X009150Y013921D01*
X009150Y013863D01*
X008913Y013863D01*
X008913Y013689D01*
X008977Y013625D01*
X009150Y013625D01*
X009150Y013863D01*
X009208Y013863D01*
X009208Y013625D01*
X009382Y013625D01*
X009446Y013689D01*
X009446Y013863D01*
X009208Y013863D01*
X009208Y013921D01*
X009446Y013921D01*
X009446Y014095D01*
X009387Y014154D01*
X009387Y014260D01*
X009419Y014293D01*
X009424Y014293D01*
X009424Y014162D01*
X009488Y014098D01*
X009894Y014098D01*
X009953Y014157D01*
X010059Y014157D01*
X010118Y014098D01*
X010524Y014098D01*
X010587Y014162D01*
X010587Y014298D01*
X010625Y014260D01*
X010625Y014154D01*
X010566Y014095D01*
X010566Y013921D01*
X010804Y013921D01*
X010804Y013863D01*
X010861Y013863D01*
X010861Y013625D01*
X011035Y013625D01*
X011099Y013689D01*
X011099Y013863D01*
X010862Y013863D01*
X010862Y013921D01*
X011099Y013921D01*
X011099Y014095D01*
X011040Y014154D01*
X011040Y014260D01*
X011073Y014293D01*
X011226Y014293D01*
X011226Y014280D01*
X011290Y014216D01*
X011695Y014216D01*
X011759Y014280D01*
X011759Y014764D01*
X011695Y014828D01*
X011290Y014828D01*
X011226Y014764D01*
X011226Y014751D01*
X011073Y014751D01*
X011035Y014788D01*
X010630Y014788D01*
X010587Y014746D01*
X010587Y015079D01*
X010524Y015143D01*
X010118Y015143D01*
X010059Y015084D01*
X009953Y015084D01*
X009894Y015143D01*
X009488Y015143D01*
X009424Y015079D01*
X009424Y014751D01*
X009419Y014751D01*
X009382Y014788D01*
X008977Y014788D01*
X008939Y014751D01*
X008858Y014751D01*
X008440Y015316D01*
X008440Y016063D01*
X008376Y016127D01*
X007636Y016127D01*
X007572Y016063D01*
X007572Y014973D01*
X007636Y014909D01*
X008171Y014909D01*
X008513Y014446D01*
X008513Y014427D01*
X008568Y014372D01*
X008647Y014293D01*
X008837Y014293D01*
X008939Y014293D01*
X008972Y014260D01*
X008942Y014124D02*
X008379Y014124D01*
X008376Y014127D02*
X008056Y014127D01*
X008056Y013568D01*
X007956Y013568D01*
X007956Y014127D01*
X007636Y014127D01*
X007572Y014063D01*
X007572Y013568D01*
X007956Y013568D01*
X007956Y013468D01*
X007572Y013468D01*
X007572Y012973D01*
X007636Y012909D01*
X007956Y012909D01*
X007956Y013468D01*
X008056Y013468D01*
X008056Y013568D01*
X008440Y013568D01*
X008440Y014063D01*
X008376Y014127D01*
X008440Y014026D02*
X008913Y014026D01*
X008913Y013927D02*
X008440Y013927D01*
X008440Y013829D02*
X008913Y013829D01*
X008913Y013730D02*
X008440Y013730D01*
X008440Y013631D02*
X008970Y013631D01*
X009150Y013631D02*
X009208Y013631D01*
X009208Y013730D02*
X009150Y013730D01*
X009150Y013829D02*
X009208Y013829D01*
X009446Y013829D02*
X010566Y013829D01*
X010566Y013863D02*
X010566Y013689D01*
X010630Y013625D01*
X010804Y013625D01*
X010804Y013863D01*
X010566Y013863D01*
X010566Y013927D02*
X009446Y013927D01*
X009446Y014026D02*
X010566Y014026D01*
X010550Y014124D02*
X010596Y014124D01*
X010587Y014223D02*
X010625Y014223D01*
X010439Y014522D02*
X010321Y014404D01*
X010439Y014522D02*
X010833Y014522D01*
X011040Y014223D02*
X011283Y014223D01*
X011070Y014124D02*
X016098Y014124D01*
X016098Y014026D02*
X013889Y014026D01*
X013858Y014038D02*
X013805Y014038D01*
X013752Y014038D01*
X013654Y013998D01*
X013579Y013923D01*
X013539Y013825D01*
X013539Y013772D01*
X013805Y013772D01*
X013805Y013772D01*
X013805Y014038D01*
X013805Y013772D01*
X013805Y013772D01*
X013539Y013772D01*
X013539Y013719D01*
X013579Y013621D01*
X013654Y013546D01*
X013752Y013505D01*
X013805Y013505D01*
X013805Y013771D01*
X013805Y013771D01*
X013805Y013505D01*
X013858Y013505D01*
X013956Y013546D01*
X014031Y013621D01*
X014072Y013719D01*
X014072Y013772D01*
X014072Y013825D01*
X014031Y013923D01*
X013956Y013998D01*
X013858Y014038D01*
X013805Y014026D02*
X013805Y014026D01*
X013721Y014026D02*
X011099Y014026D01*
X011099Y013927D02*
X013584Y013927D01*
X013540Y013829D02*
X011099Y013829D01*
X011099Y013730D02*
X013539Y013730D01*
X013575Y013631D02*
X011041Y013631D01*
X010861Y013631D02*
X010804Y013631D01*
X010804Y013730D02*
X010861Y013730D01*
X010861Y013829D02*
X010804Y013829D01*
X010624Y013631D02*
X009388Y013631D01*
X009446Y013730D02*
X010566Y013730D01*
X010092Y014124D02*
X009920Y014124D01*
X009691Y014404D02*
X009573Y014522D01*
X009424Y014814D02*
X008811Y014814D01*
X008738Y014913D02*
X009424Y014913D01*
X009424Y015011D02*
X008665Y015011D01*
X008593Y015110D02*
X009455Y015110D01*
X009927Y015110D02*
X010085Y015110D01*
X010557Y015110D02*
X012869Y015110D01*
X012869Y015057D01*
X012910Y014959D01*
X012985Y014885D01*
X013083Y014844D01*
X013136Y014844D01*
X013189Y014844D01*
X013287Y014885D01*
X013362Y014959D01*
X013402Y015057D01*
X013402Y015110D01*
X013136Y015110D01*
X013136Y014844D01*
X013136Y015110D01*
X013136Y015110D01*
X013136Y015110D01*
X013136Y015111D01*
X013136Y015111D01*
X013136Y015377D01*
X013189Y015377D01*
X013287Y015336D01*
X013362Y015261D01*
X013402Y015163D01*
X013402Y015111D01*
X013136Y015111D01*
X013136Y015377D01*
X013083Y015377D01*
X012985Y015336D01*
X012910Y015261D01*
X012869Y015163D01*
X012869Y015111D01*
X013135Y015111D01*
X013135Y015110D01*
X012869Y015110D01*
X012888Y015208D02*
X008520Y015208D01*
X008447Y015307D02*
X012955Y015307D01*
X013136Y015307D02*
X013136Y015307D01*
X013136Y015208D02*
X013136Y015208D01*
X013136Y015011D02*
X013136Y015011D01*
X013136Y014913D02*
X013136Y014913D01*
X013315Y014913D02*
X014886Y014913D01*
X014775Y015011D02*
X013383Y015011D01*
X013402Y015110D02*
X014676Y015110D01*
X014578Y015208D02*
X013384Y015208D01*
X013316Y015307D02*
X014538Y015307D01*
X014497Y015405D02*
X008440Y015405D01*
X008440Y015504D02*
X014456Y015504D01*
X014424Y015602D02*
X008440Y015602D01*
X008440Y015701D02*
X014424Y015701D01*
X014424Y015799D02*
X008440Y015799D01*
X008440Y015898D02*
X014424Y015898D01*
X014430Y015997D02*
X008440Y015997D01*
X008408Y016095D02*
X014471Y016095D01*
X014512Y016194D02*
X004918Y016194D01*
X004918Y016186D02*
X004918Y016339D01*
X004854Y016403D01*
X004426Y016403D01*
X004426Y016137D01*
X004326Y016137D01*
X004326Y016403D01*
X003898Y016403D01*
X003834Y016339D01*
X003834Y016186D01*
X003725Y016186D01*
X003696Y016157D01*
X003696Y014855D01*
X003725Y014826D01*
X003834Y014826D01*
X003834Y014674D01*
X003898Y014610D01*
X004326Y014610D01*
X004326Y014875D01*
X004426Y014875D01*
X004426Y014610D01*
X004854Y014610D01*
X004918Y014674D01*
X004918Y014826D01*
X005027Y014826D01*
X005056Y014855D01*
X005056Y015153D01*
X005056Y015200D01*
X005228Y015200D01*
X005292Y015264D01*
X005292Y015287D01*
X005297Y015287D01*
X005450Y015289D01*
X005572Y015289D01*
X005572Y014973D01*
X005636Y014909D01*
X006376Y014909D01*
X006440Y014973D01*
X006440Y016063D01*
X006376Y016127D01*
X005636Y016127D01*
X005572Y016063D01*
X005572Y015747D01*
X005546Y015747D01*
X005449Y015747D01*
X005356Y015747D01*
X005355Y015746D01*
X005294Y015745D01*
X005292Y015745D01*
X005292Y015748D01*
X005228Y015812D01*
X005056Y015812D01*
X005056Y015859D01*
X005056Y016157D01*
X005027Y016186D01*
X004918Y016186D01*
X004918Y016292D02*
X014552Y016292D01*
X014613Y016391D02*
X004866Y016391D01*
X005056Y016095D02*
X005604Y016095D01*
X005572Y015997D02*
X005056Y015997D01*
X005056Y015898D02*
X005572Y015898D01*
X005572Y015799D02*
X005241Y015799D01*
X005449Y015747D02*
X005449Y015747D01*
X005572Y015208D02*
X005236Y015208D01*
X005056Y015110D02*
X005572Y015110D01*
X005572Y015011D02*
X005056Y015011D01*
X005056Y014913D02*
X005632Y014913D01*
X005741Y014746D02*
X005666Y014671D01*
X005625Y014573D01*
X005625Y014520D01*
X005891Y014520D01*
X005891Y014520D01*
X005625Y014520D01*
X005625Y014467D01*
X005666Y014369D01*
X005741Y014294D01*
X005839Y014253D01*
X005892Y014253D01*
X005945Y014253D01*
X006043Y014294D01*
X006118Y014369D01*
X006158Y014467D01*
X006158Y014520D01*
X006158Y014573D01*
X006118Y014671D01*
X006043Y014746D01*
X005945Y014786D01*
X005892Y014786D01*
X005892Y014520D01*
X006158Y014520D01*
X005892Y014520D01*
X005892Y014520D01*
X005892Y014520D01*
X005892Y014786D01*
X005839Y014786D01*
X005741Y014746D01*
X005710Y014715D02*
X004918Y014715D01*
X004918Y014814D02*
X008241Y014814D01*
X008314Y014715D02*
X007924Y014715D01*
X007893Y014746D02*
X007795Y014786D01*
X007742Y014786D01*
X007689Y014786D01*
X007591Y014746D01*
X007516Y014671D01*
X007476Y014573D01*
X007476Y014520D01*
X007742Y014520D01*
X007742Y014520D01*
X007742Y014786D01*
X007742Y014520D01*
X007742Y014520D01*
X007476Y014520D01*
X007476Y014467D01*
X007516Y014369D01*
X007591Y014294D01*
X007689Y014253D01*
X007742Y014253D01*
X007742Y014519D01*
X007742Y014519D01*
X007742Y014253D01*
X007795Y014253D01*
X007893Y014294D01*
X007968Y014369D01*
X008009Y014467D01*
X008009Y014520D01*
X008009Y014573D01*
X007968Y014671D01*
X007893Y014746D01*
X007742Y014715D02*
X007742Y014715D01*
X007742Y014617D02*
X007742Y014617D01*
X007743Y014520D02*
X008009Y014520D01*
X007743Y014520D01*
X007743Y014520D01*
X007742Y014518D02*
X007742Y014518D01*
X007742Y014420D02*
X007742Y014420D01*
X007742Y014321D02*
X007742Y014321D01*
X007564Y014321D02*
X006070Y014321D01*
X006139Y014420D02*
X007495Y014420D01*
X007476Y014518D02*
X006158Y014518D01*
X006140Y014617D02*
X007494Y014617D01*
X007561Y014715D02*
X006073Y014715D01*
X005892Y014715D02*
X005892Y014715D01*
X005892Y014617D02*
X005892Y014617D01*
X005892Y014519D02*
X005892Y014253D01*
X005892Y014519D01*
X005892Y014519D01*
X005892Y014518D02*
X005892Y014518D01*
X005892Y014420D02*
X005892Y014420D01*
X005892Y014321D02*
X005892Y014321D01*
X005714Y014321D02*
X005056Y014321D01*
X004918Y014420D02*
X005645Y014420D01*
X005625Y014518D02*
X004918Y014518D01*
X004862Y014617D02*
X005644Y014617D01*
X006380Y014913D02*
X006632Y014913D01*
X006636Y014909D02*
X007376Y014909D01*
X007440Y014973D01*
X007440Y016063D01*
X007376Y016127D01*
X006636Y016127D01*
X006572Y016063D01*
X006572Y014973D01*
X006636Y014909D01*
X006572Y015011D02*
X006440Y015011D01*
X006440Y015110D02*
X006572Y015110D01*
X006572Y015208D02*
X006440Y015208D01*
X006440Y015307D02*
X006572Y015307D01*
X006572Y015405D02*
X006440Y015405D01*
X006440Y015504D02*
X006572Y015504D01*
X006572Y015602D02*
X006440Y015602D01*
X006440Y015701D02*
X006572Y015701D01*
X006572Y015799D02*
X006440Y015799D01*
X006440Y015898D02*
X006572Y015898D01*
X006572Y015997D02*
X006440Y015997D01*
X006408Y016095D02*
X006604Y016095D01*
X007408Y016095D02*
X007604Y016095D01*
X007572Y015997D02*
X007440Y015997D01*
X007440Y015898D02*
X007572Y015898D01*
X007572Y015799D02*
X007440Y015799D01*
X007440Y015701D02*
X007572Y015701D01*
X007572Y015602D02*
X007440Y015602D01*
X007440Y015504D02*
X007572Y015504D01*
X007572Y015405D02*
X007440Y015405D01*
X007440Y015307D02*
X007572Y015307D01*
X007572Y015208D02*
X007440Y015208D01*
X007440Y015110D02*
X007572Y015110D01*
X007572Y015011D02*
X007440Y015011D01*
X007380Y014913D02*
X007632Y014913D01*
X007990Y014617D02*
X008387Y014617D01*
X008460Y014518D02*
X008009Y014518D01*
X007989Y014420D02*
X008520Y014420D01*
X008568Y014372D02*
X008568Y014372D01*
X008619Y014321D02*
X007920Y014321D01*
X007956Y014124D02*
X008056Y014124D01*
X008056Y014026D02*
X007956Y014026D01*
X007956Y013927D02*
X008056Y013927D01*
X008056Y013829D02*
X007956Y013829D01*
X007956Y013730D02*
X008056Y013730D01*
X008056Y013631D02*
X007956Y013631D01*
X007956Y013533D02*
X007440Y013533D01*
X007440Y013631D02*
X007572Y013631D01*
X007572Y013730D02*
X007440Y013730D01*
X007440Y013829D02*
X007572Y013829D01*
X007572Y013927D02*
X007440Y013927D01*
X007440Y014026D02*
X007572Y014026D01*
X007633Y014124D02*
X007379Y014124D01*
X007376Y014127D02*
X006636Y014127D01*
X006572Y014063D01*
X006572Y012973D01*
X006636Y012909D01*
X007376Y012909D01*
X007440Y012973D01*
X007440Y014063D01*
X007376Y014127D01*
X007440Y013434D02*
X007572Y013434D01*
X007572Y013336D02*
X007440Y013336D01*
X007440Y013237D02*
X007572Y013237D01*
X007572Y013139D02*
X007440Y013139D01*
X007440Y013040D02*
X007572Y013040D01*
X007603Y012942D02*
X007409Y012942D01*
X007956Y012942D02*
X008056Y012942D01*
X008056Y012909D02*
X008376Y012909D01*
X008440Y012973D01*
X008440Y013468D01*
X008056Y013468D01*
X008056Y012909D01*
X008056Y013040D02*
X007956Y013040D01*
X007956Y013139D02*
X008056Y013139D01*
X008056Y013237D02*
X007956Y013237D01*
X007956Y013336D02*
X008056Y013336D01*
X008056Y013434D02*
X007956Y013434D01*
X008056Y013533D02*
X013686Y013533D01*
X013805Y013533D02*
X013805Y013533D01*
X013805Y013631D02*
X013805Y013631D01*
X013805Y013730D02*
X013805Y013730D01*
X013806Y013772D02*
X013806Y013772D01*
X014072Y013772D01*
X013806Y013772D01*
X013805Y013829D02*
X013805Y013829D01*
X013805Y013927D02*
X013805Y013927D01*
X014027Y013927D02*
X016098Y013927D01*
X016098Y013829D02*
X014070Y013829D01*
X014072Y013730D02*
X016098Y013730D01*
X016098Y013631D02*
X014035Y013631D01*
X013925Y013533D02*
X016098Y013533D01*
X016098Y013434D02*
X008440Y013434D01*
X008440Y013336D02*
X016098Y013336D01*
X016098Y013237D02*
X012763Y013237D01*
X012763Y013139D02*
X016098Y013139D01*
X016098Y013040D02*
X012763Y013040D01*
X012763Y012942D02*
X016098Y012942D01*
X016098Y012843D02*
X012763Y012843D01*
X012733Y012745D02*
X016098Y012745D01*
X016098Y012646D02*
X012685Y012646D01*
X012685Y012548D02*
X014772Y012548D01*
X014907Y012548D02*
X014908Y012548D01*
X014907Y012449D02*
X014908Y012449D01*
X014907Y012350D02*
X014908Y012350D01*
X014907Y012252D02*
X014908Y012252D01*
X014907Y012153D02*
X014908Y012153D01*
X014907Y012055D02*
X014908Y012055D01*
X014975Y012055D02*
X016098Y012055D01*
X016098Y012153D02*
X015123Y012153D01*
X015170Y012252D02*
X016098Y012252D01*
X016098Y012350D02*
X015174Y012350D01*
X015141Y012449D02*
X016098Y012449D01*
X016098Y012548D02*
X015043Y012548D01*
X014840Y012055D02*
X014346Y012055D01*
X014398Y011956D02*
X016098Y011956D01*
X016098Y011858D02*
X014406Y011858D01*
X014377Y011759D02*
X016098Y011759D01*
X016098Y011661D02*
X014293Y011661D01*
X013432Y011464D02*
X016098Y011464D01*
X016098Y011562D02*
X013039Y011562D01*
X013432Y011365D02*
X016098Y011365D01*
X016098Y011266D02*
X013432Y011266D01*
X013432Y011168D02*
X016098Y011168D01*
X016098Y011069D02*
X013432Y011069D01*
X013432Y010971D02*
X016098Y010971D01*
X016098Y010872D02*
X013432Y010872D01*
X013430Y010774D02*
X016098Y010774D01*
X016098Y010478D02*
X014859Y010478D01*
X014859Y010380D02*
X016098Y010380D01*
X016098Y010281D02*
X014817Y010281D01*
X014859Y010182D02*
X016098Y010182D01*
X016098Y010084D02*
X014859Y010084D01*
X014859Y009985D02*
X015040Y009985D01*
X014949Y009887D02*
X014816Y009887D01*
X014652Y009561D02*
X014415Y009561D01*
X014337Y009483D01*
X013943Y009483D01*
X013352Y009483D01*
X013116Y009719D01*
X013116Y010309D01*
X013383Y010308D02*
X013383Y010362D01*
X013342Y010460D01*
X013267Y010535D01*
X013236Y010548D01*
X013236Y010712D01*
X013236Y010577D02*
X013534Y010577D01*
X013519Y010478D02*
X013324Y010478D01*
X013376Y010380D02*
X013519Y010380D01*
X013519Y010281D02*
X013419Y010281D01*
X013383Y010308D02*
X013484Y010232D01*
X013519Y010232D01*
X013519Y010270D01*
X013943Y010270D01*
X014367Y010270D01*
X013943Y010270D01*
X013943Y010270D01*
X013943Y010270D01*
X013943Y009876D02*
X013943Y009679D01*
X013943Y009286D02*
X013943Y009285D01*
X013519Y009285D01*
X013519Y009191D01*
X013523Y009187D01*
X013519Y009183D01*
X013519Y009089D01*
X013943Y009089D01*
X014367Y009089D01*
X013943Y009089D01*
X013943Y009089D01*
X013943Y009089D01*
X013519Y009089D01*
X013519Y009063D01*
X013464Y009118D01*
X013366Y009158D01*
X013260Y009158D01*
X013162Y009118D01*
X013087Y009043D01*
X013047Y008945D01*
X013047Y008839D01*
X013087Y008741D01*
X013162Y008666D01*
X013260Y008625D01*
X013366Y008625D01*
X013464Y008666D01*
X013519Y008721D01*
X013519Y008601D01*
X013523Y008597D01*
X013519Y008593D01*
X013519Y008404D01*
X013523Y008400D01*
X013519Y008396D01*
X013519Y008207D01*
X013523Y008203D01*
X013519Y008199D01*
X013519Y008105D01*
X013943Y008105D01*
X013943Y008104D01*
X013519Y008104D01*
X013519Y008079D01*
X013464Y008134D01*
X013366Y008174D01*
X013260Y008174D01*
X013162Y008134D01*
X013087Y008059D01*
X013047Y007961D01*
X013047Y007855D01*
X013087Y007757D01*
X013162Y007682D01*
X013260Y007641D01*
X013366Y007641D01*
X013464Y007682D01*
X013519Y007737D01*
X013519Y007616D01*
X013523Y007612D01*
X013519Y007608D01*
X013519Y007420D01*
X013523Y007416D01*
X013519Y007412D01*
X013519Y007223D01*
X013523Y007219D01*
X013519Y007215D01*
X013519Y007026D01*
X013523Y007022D01*
X013519Y007018D01*
X013519Y006829D01*
X013523Y006825D01*
X013519Y006821D01*
X013519Y006632D01*
X013523Y006628D01*
X013519Y006624D01*
X013519Y006435D01*
X013523Y006431D01*
X013519Y006427D01*
X013519Y006239D01*
X013523Y006234D01*
X013519Y006230D01*
X013519Y006042D01*
X013523Y006038D01*
X013519Y006034D01*
X013519Y005939D01*
X013519Y005845D01*
X013523Y005841D01*
X013519Y005837D01*
X013519Y005648D01*
X013583Y005584D01*
X013784Y005584D01*
X013784Y005558D01*
X013877Y005465D01*
X013791Y005551D02*
X012869Y005551D01*
X012842Y005524D02*
X012909Y005591D01*
X012950Y005689D01*
X012950Y005795D01*
X012909Y005893D01*
X012834Y005968D01*
X012736Y006009D01*
X012630Y006009D01*
X012532Y005968D01*
X012465Y005901D01*
X012224Y005901D01*
X012130Y005808D01*
X011934Y005611D01*
X011934Y005497D01*
X011801Y005497D01*
X011797Y005493D01*
X011793Y005497D01*
X011699Y005497D01*
X011699Y005073D01*
X011699Y004286D01*
X011699Y004286D01*
X011699Y004493D01*
X011818Y004493D01*
X011737Y004574D01*
X011737Y004649D01*
X011699Y004649D01*
X011699Y005073D01*
X011502Y005073D01*
X011502Y005073D01*
X011541Y005073D01*
X011698Y005073D01*
X011698Y005073D01*
X011541Y005073D01*
X011502Y005073D01*
X011502Y005497D01*
X011464Y005497D01*
X011464Y005524D01*
X011531Y005591D01*
X011572Y005689D01*
X011572Y005795D01*
X011531Y005893D01*
X011456Y005968D01*
X011358Y006009D01*
X011252Y006009D01*
X011154Y005968D01*
X011079Y005893D01*
X011039Y005795D01*
X011039Y005689D01*
X011079Y005591D01*
X011146Y005524D01*
X011146Y005497D01*
X011109Y005497D01*
X011109Y005073D01*
X011109Y004649D01*
X011078Y004575D01*
X011078Y004522D01*
X011344Y004522D01*
X011344Y004522D01*
X011078Y004522D01*
X011078Y004469D01*
X011084Y004454D01*
X011010Y004454D01*
X010866Y004454D01*
X010813Y004400D01*
X010760Y004454D01*
X010756Y004454D01*
X010756Y004588D01*
X010694Y004649D01*
X010714Y004649D01*
X010714Y005073D01*
X010715Y005073D01*
X010715Y005073D01*
X010753Y005073D01*
X010911Y005073D01*
X010911Y005073D01*
X010753Y005073D01*
X010715Y005073D01*
X010911Y005073D01*
X010912Y005073D01*
X010912Y005073D01*
X010950Y005073D01*
X011108Y005073D01*
X011108Y005073D01*
X010950Y005073D01*
X010912Y005073D01*
X010912Y004649D01*
X011006Y004649D01*
X011010Y004653D01*
X011014Y004649D01*
X011108Y004649D01*
X011108Y005073D01*
X011109Y005073D01*
X011108Y005073D01*
X011108Y004640D01*
X011187Y004561D01*
X011305Y004561D01*
X011345Y004522D01*
X011611Y004522D01*
X011611Y004575D01*
X011580Y004649D01*
X011596Y004649D01*
X011600Y004653D01*
X011604Y004649D01*
X011699Y004649D01*
X011699Y005073D01*
X011699Y005073D01*
X011699Y005073D01*
X011699Y005497D01*
X011604Y005497D01*
X011600Y005493D01*
X011596Y005497D01*
X011502Y005497D01*
X011502Y005073D01*
X011502Y005073D01*
X011502Y005157D02*
X011502Y005157D01*
X011502Y005255D02*
X011502Y005255D01*
X011502Y005354D02*
X011502Y005354D01*
X011502Y005452D02*
X011502Y005452D01*
X011491Y005551D02*
X011934Y005551D01*
X011972Y005649D02*
X011555Y005649D01*
X011572Y005748D02*
X012070Y005748D01*
X012169Y005847D02*
X011550Y005847D01*
X011479Y005945D02*
X012509Y005945D01*
X012683Y005742D02*
X012289Y005742D01*
X012093Y005546D01*
X012093Y005073D01*
X011896Y005073D01*
X011896Y004640D01*
X012093Y004483D01*
X012093Y004286D01*
X012262Y004467D02*
X012673Y004467D01*
X012673Y004566D02*
X012234Y004566D01*
X012199Y004601D02*
X012199Y004601D01*
X012300Y004368D02*
X012682Y004368D01*
X012880Y004522D02*
X012880Y005073D01*
X012683Y005073D01*
X012683Y005742D01*
X012928Y005847D02*
X013519Y005847D01*
X013519Y005939D02*
X013943Y005939D01*
X014494Y005939D01*
X014367Y005939D01*
X013943Y005939D01*
X013943Y005939D01*
X013943Y005939D01*
X014367Y005939D01*
X014494Y005939D01*
X014494Y005939D01*
X014494Y005940D02*
X014494Y006147D01*
X014494Y005940D01*
X014494Y005940D01*
X014494Y005945D02*
X014494Y005945D01*
X014494Y006044D02*
X014494Y006044D01*
X014494Y006142D02*
X014494Y006142D01*
X014642Y006142D02*
X016098Y006142D01*
X016098Y006044D02*
X014702Y006044D01*
X014702Y005945D02*
X016098Y005945D01*
X016098Y005847D02*
X014702Y005847D01*
X014654Y005748D02*
X016098Y005748D01*
X016098Y005649D02*
X014702Y005649D01*
X014702Y005551D02*
X016098Y005551D01*
X016098Y005452D02*
X014702Y005452D01*
X014669Y005354D02*
X016098Y005354D01*
X016098Y005255D02*
X014740Y005255D01*
X014761Y005157D02*
X016098Y005157D01*
X016098Y005058D02*
X014744Y005058D01*
X014679Y004960D02*
X016098Y004960D01*
X016098Y004861D02*
X013432Y004861D01*
X013432Y004763D02*
X016098Y004763D01*
X016098Y004664D02*
X013481Y004664D01*
X013481Y004566D02*
X016098Y004566D01*
X016098Y004467D02*
X013481Y004467D01*
X013471Y004368D02*
X016098Y004368D01*
X016098Y004270D02*
X012300Y004270D01*
X012300Y004171D02*
X016098Y004171D01*
X016098Y004073D02*
X011187Y004073D01*
X011217Y004171D02*
X011491Y004171D01*
X011491Y004270D02*
X011433Y004270D01*
X011345Y004270D02*
X011344Y004270D01*
X011256Y004270D02*
X011217Y004270D01*
X011344Y004368D02*
X011345Y004368D01*
X011344Y004467D02*
X011345Y004467D01*
X011345Y004522D02*
X011345Y004522D01*
X011611Y004522D01*
X011611Y004493D01*
X011699Y004493D01*
X011699Y004286D01*
X011699Y004285D02*
X011699Y004078D01*
X011699Y004285D01*
X011699Y004285D01*
X011699Y004270D02*
X011699Y004270D01*
X011699Y004368D02*
X011699Y004368D01*
X011699Y004467D02*
X011699Y004467D01*
X011745Y004566D02*
X011611Y004566D01*
X011699Y004664D02*
X011699Y004664D01*
X011699Y004763D02*
X011699Y004763D01*
X011699Y004861D02*
X011699Y004861D01*
X011699Y004960D02*
X011699Y004960D01*
X011699Y005058D02*
X011699Y005058D01*
X011699Y005157D02*
X011699Y005157D01*
X011699Y005255D02*
X011699Y005255D01*
X011699Y005354D02*
X011699Y005354D01*
X011699Y005452D02*
X011699Y005452D01*
X011305Y005742D02*
X011305Y005073D01*
X011108Y005073D02*
X010911Y005073D01*
X010911Y004649D01*
X010817Y004649D01*
X010813Y004653D01*
X010809Y004649D01*
X010715Y004649D01*
X010715Y005073D01*
X010714Y005073D01*
X010714Y005497D01*
X010620Y005497D01*
X010616Y005493D01*
X010612Y005497D01*
X010480Y005497D01*
X010480Y005524D01*
X010547Y005591D01*
X010587Y005689D01*
X010587Y005795D01*
X010547Y005893D01*
X010472Y005968D01*
X010374Y006009D01*
X010268Y006009D01*
X010170Y005968D01*
X010103Y005901D01*
X009901Y005901D01*
X009808Y005808D01*
X009571Y005572D01*
X009571Y005497D01*
X009439Y005497D01*
X009435Y005493D01*
X009431Y005497D01*
X009337Y005497D01*
X009337Y005073D01*
X009336Y005157D02*
X009337Y005157D01*
X009336Y005255D02*
X009337Y005255D01*
X009336Y005354D02*
X009337Y005354D01*
X009336Y005452D02*
X009337Y005452D01*
X009140Y005452D02*
X009140Y005452D01*
X009140Y005354D02*
X009140Y005354D01*
X009140Y005255D02*
X009140Y005255D01*
X009140Y005157D02*
X009140Y005157D01*
X009140Y005058D02*
X009140Y005058D01*
X009140Y004960D02*
X009140Y004960D01*
X009140Y004861D02*
X009140Y004861D01*
X009140Y004763D02*
X009140Y004763D01*
X009140Y004664D02*
X009140Y004664D01*
X009061Y004566D02*
X009296Y004566D01*
X009534Y004719D02*
X009534Y005073D01*
X009730Y005073D01*
X009730Y005506D01*
X009967Y005742D01*
X010321Y005742D01*
X010321Y005073D01*
X010518Y005073D01*
X010518Y004601D01*
X010597Y004522D01*
X010597Y004266D01*
X010616Y004246D01*
X010794Y004073D02*
X010832Y004073D01*
X011010Y004073D02*
X011010Y004073D01*
X011010Y004171D02*
X011010Y004171D01*
X011008Y004246D02*
X010990Y004264D01*
X010990Y004522D01*
X010911Y004601D01*
X010911Y005073D01*
X010911Y005497D01*
X010817Y005497D01*
X010813Y005493D01*
X010809Y005497D01*
X010715Y005497D01*
X010715Y005073D01*
X010714Y005058D02*
X010715Y005058D01*
X010714Y004960D02*
X010715Y004960D01*
X010714Y004861D02*
X010715Y004861D01*
X010714Y004763D02*
X010715Y004763D01*
X010714Y004664D02*
X010715Y004664D01*
X010756Y004566D02*
X011078Y004566D01*
X011109Y004649D02*
X011109Y004649D01*
X011108Y004664D02*
X011109Y004664D01*
X011108Y004763D02*
X011109Y004763D01*
X011108Y004861D02*
X011109Y004861D01*
X011108Y004960D02*
X011109Y004960D01*
X011108Y005058D02*
X011109Y005058D01*
X011108Y005073D02*
X011108Y005497D01*
X011014Y005497D01*
X011010Y005493D01*
X011006Y005497D01*
X010912Y005497D01*
X010912Y005073D01*
X010911Y005073D01*
X010911Y005058D02*
X010912Y005058D01*
X010911Y004960D02*
X010912Y004960D01*
X010911Y004861D02*
X010912Y004861D01*
X010911Y004763D02*
X010912Y004763D01*
X010911Y004664D02*
X010912Y004664D01*
X010756Y004467D02*
X011079Y004467D01*
X011010Y004368D02*
X011010Y004368D01*
X011010Y004270D02*
X011010Y004270D01*
X010777Y003876D02*
X014320Y003876D01*
X014324Y003880D02*
X014249Y003805D01*
X014208Y003707D01*
X014208Y003654D01*
X014474Y003654D01*
X014474Y003654D01*
X014474Y003920D01*
X014421Y003920D01*
X014324Y003880D01*
X014237Y003777D02*
X010794Y003777D01*
X010794Y003679D02*
X014208Y003679D01*
X014208Y003654D02*
X014208Y003601D01*
X014249Y003503D01*
X014324Y003428D01*
X014421Y003387D01*
X014474Y003387D01*
X014474Y003653D01*
X014475Y003653D01*
X014475Y003387D01*
X014527Y003387D01*
X014625Y003428D01*
X014700Y003503D01*
X014741Y003601D01*
X014741Y003654D01*
X014741Y003707D01*
X014700Y003805D01*
X014625Y003880D01*
X014527Y003920D01*
X014475Y003920D01*
X014475Y003654D01*
X014741Y003654D01*
X014475Y003654D01*
X014475Y003654D01*
X014474Y003654D01*
X014208Y003654D01*
X014216Y003580D02*
X010794Y003580D01*
X010794Y003482D02*
X011292Y003482D01*
X011275Y003465D02*
X011275Y003312D01*
X011166Y003312D01*
X011137Y003283D01*
X011137Y002985D01*
X011137Y002938D01*
X010965Y002938D01*
X010901Y002874D01*
X010901Y002821D01*
X010597Y002821D01*
X010486Y002710D01*
X010339Y002563D01*
X010339Y002416D01*
X010325Y002416D01*
X010277Y002368D01*
X010228Y002416D01*
X009823Y002416D01*
X009775Y002368D01*
X009726Y002416D01*
X009552Y002416D01*
X009552Y002139D01*
X009495Y002139D01*
X009495Y002082D01*
X009257Y002082D01*
X009257Y001868D01*
X009321Y001805D01*
X009495Y001805D01*
X009495Y002081D01*
X009552Y002081D01*
X009552Y001805D01*
X009726Y001805D01*
X009775Y001853D01*
X009823Y001805D01*
X010228Y001805D01*
X010277Y001853D01*
X010325Y001805D01*
X010730Y001805D01*
X010794Y001868D01*
X010794Y002352D01*
X010730Y002416D01*
X010727Y002416D01*
X010754Y002443D01*
X010901Y002443D01*
X010901Y002390D01*
X010965Y002326D01*
X011137Y002326D01*
X011137Y002237D01*
X011137Y001981D01*
X011166Y001952D01*
X011275Y001952D01*
X011275Y001800D01*
X011339Y001736D01*
X011767Y001736D01*
X011767Y002001D01*
X011867Y002001D01*
X011867Y001736D01*
X012295Y001736D01*
X012359Y001800D01*
X012359Y001952D01*
X012468Y001952D01*
X012497Y001981D01*
X012497Y003283D01*
X012468Y003312D01*
X012359Y003312D01*
X012359Y003465D01*
X012295Y003529D01*
X011867Y003529D01*
X011867Y003263D01*
X011767Y003263D01*
X011767Y003529D01*
X011339Y003529D01*
X011275Y003465D01*
X011275Y003383D02*
X010794Y003383D01*
X010526Y003616D02*
X010486Y003656D01*
X010321Y003656D01*
X010203Y003774D01*
X010203Y004089D01*
X010410Y004073D02*
X010439Y004073D01*
X010410Y003974D02*
X016098Y003974D01*
X016098Y003876D02*
X014629Y003876D01*
X014712Y003777D02*
X016098Y003777D01*
X016098Y003679D02*
X014741Y003679D01*
X014732Y003580D02*
X016098Y003580D01*
X016098Y003482D02*
X014679Y003482D01*
X014475Y003482D02*
X014474Y003482D01*
X014474Y003580D02*
X014475Y003580D01*
X014474Y003679D02*
X014475Y003679D01*
X014474Y003777D02*
X014475Y003777D01*
X014474Y003876D02*
X014475Y003876D01*
X014270Y003482D02*
X012342Y003482D01*
X012359Y003383D02*
X016098Y003383D01*
X016098Y003284D02*
X013606Y003284D01*
X013637Y003254D02*
X013562Y003329D01*
X013464Y003369D01*
X013412Y003369D01*
X013412Y003103D01*
X013678Y003103D01*
X013678Y003156D01*
X013637Y003254D01*
X013665Y003186D02*
X016098Y003186D01*
X016098Y003087D02*
X013678Y003087D01*
X013678Y003102D02*
X013412Y003102D01*
X013412Y003103D01*
X013411Y003103D01*
X013411Y003102D01*
X013412Y003102D01*
X013412Y002836D01*
X013464Y002836D01*
X013562Y002877D01*
X013637Y002952D01*
X013678Y003050D01*
X013678Y003102D01*
X013653Y002989D02*
X015170Y002989D01*
X014932Y002890D02*
X013576Y002890D01*
X013412Y002890D02*
X013411Y002890D01*
X013411Y002836D02*
X013358Y002836D01*
X013261Y002877D01*
X013186Y002952D01*
X013145Y003050D01*
X013145Y003102D01*
X013411Y003102D01*
X013411Y002836D01*
X013411Y002989D02*
X013412Y002989D01*
X013411Y003087D02*
X013412Y003087D01*
X013411Y003103D02*
X013145Y003103D01*
X013145Y003156D01*
X013186Y003254D01*
X013261Y003329D01*
X013358Y003369D01*
X013411Y003369D01*
X013411Y003103D01*
X013411Y003186D02*
X013412Y003186D01*
X013411Y003284D02*
X013412Y003284D01*
X013216Y003284D02*
X012495Y003284D01*
X012497Y003186D02*
X013158Y003186D01*
X013145Y003087D02*
X012497Y003087D01*
X012497Y002989D02*
X013170Y002989D01*
X013247Y002890D02*
X012497Y002890D01*
X012497Y002792D02*
X014794Y002792D01*
X014695Y002693D02*
X012497Y002693D01*
X012497Y002595D02*
X014597Y002595D01*
X014546Y002496D02*
X013489Y002496D01*
X013484Y002502D02*
X013386Y002542D01*
X013333Y002542D01*
X013333Y002276D01*
X013599Y002276D01*
X013599Y002329D01*
X013559Y002427D01*
X013484Y002502D01*
X013571Y002398D02*
X014505Y002398D01*
X014464Y002299D02*
X013599Y002299D01*
X013599Y002276D02*
X013333Y002276D01*
X013333Y002276D01*
X013333Y002276D01*
X013333Y002542D01*
X013280Y002542D01*
X013182Y002502D01*
X013107Y002427D01*
X013066Y002329D01*
X013066Y002276D01*
X013332Y002276D01*
X013332Y002276D01*
X013066Y002276D01*
X013066Y002223D01*
X013107Y002125D01*
X013182Y002050D01*
X013280Y002009D01*
X013333Y002009D01*
X013386Y002009D01*
X013484Y002050D01*
X013559Y002125D01*
X013599Y002223D01*
X013599Y002276D01*
X013590Y002200D02*
X014424Y002200D01*
X014424Y002102D02*
X013536Y002102D01*
X013333Y002102D02*
X013333Y002102D01*
X013333Y002009D02*
X013333Y002275D01*
X013333Y002275D01*
X013333Y002009D01*
X013333Y002200D02*
X013333Y002200D01*
X013333Y002299D02*
X013333Y002299D01*
X013333Y002398D02*
X013333Y002398D01*
X013333Y002496D02*
X013333Y002496D01*
X013176Y002496D02*
X012497Y002496D01*
X012497Y002398D02*
X013095Y002398D01*
X013066Y002299D02*
X012497Y002299D01*
X012497Y002200D02*
X013075Y002200D01*
X013130Y002102D02*
X012497Y002102D01*
X012497Y002003D02*
X014424Y002003D01*
X014424Y001905D02*
X012359Y001905D01*
X012359Y001806D02*
X014424Y001806D01*
X014463Y001708D02*
X008943Y001708D01*
X008943Y001806D02*
X009319Y001806D01*
X009257Y001905D02*
X008943Y001905D01*
X008943Y002003D02*
X009257Y002003D01*
X009257Y002139D02*
X009495Y002139D01*
X009495Y002416D01*
X009321Y002416D01*
X009257Y002352D01*
X009257Y002139D01*
X009257Y002200D02*
X008943Y002200D01*
X008943Y002102D02*
X009495Y002102D01*
X009495Y002200D02*
X009552Y002200D01*
X009552Y002299D02*
X009495Y002299D01*
X009495Y002398D02*
X009552Y002398D01*
X009745Y002398D02*
X009804Y002398D01*
X009815Y002600D02*
X009717Y002640D01*
X009642Y002715D01*
X009602Y002813D01*
X009602Y002866D01*
X009868Y002866D01*
X009868Y002866D01*
X009868Y002600D01*
X009815Y002600D01*
X009868Y002600D02*
X009921Y002600D01*
X010019Y002640D01*
X010094Y002715D01*
X010135Y002813D01*
X010135Y002866D01*
X009869Y002866D01*
X009869Y002867D01*
X010135Y002867D01*
X010135Y002919D01*
X010094Y003017D01*
X010019Y003092D01*
X009921Y003133D01*
X009868Y003133D01*
X009815Y003133D01*
X009717Y003092D01*
X009642Y003017D01*
X009602Y002919D01*
X009602Y002867D01*
X009868Y002867D01*
X009868Y003133D01*
X009868Y002867D01*
X009868Y002867D01*
X009868Y002866D01*
X009868Y002600D01*
X009868Y002693D02*
X009868Y002693D01*
X009868Y002792D02*
X009868Y002792D01*
X009868Y002890D02*
X009868Y002890D01*
X009868Y002989D02*
X009868Y002989D01*
X009868Y003087D02*
X009868Y003087D01*
X009712Y003087D02*
X008304Y003087D01*
X008304Y002989D02*
X009630Y002989D01*
X009602Y002890D02*
X008943Y002890D01*
X008943Y002792D02*
X009611Y002792D01*
X009664Y002693D02*
X008943Y002693D01*
X008943Y002595D02*
X010370Y002595D01*
X010339Y002496D02*
X008943Y002496D01*
X008943Y002398D02*
X009302Y002398D01*
X009257Y002299D02*
X008943Y002299D01*
X008707Y002299D02*
X008292Y002299D01*
X008304Y002398D02*
X008707Y002398D01*
X008707Y002496D02*
X008066Y002496D01*
X008066Y002398D02*
X008009Y002398D01*
X008009Y002299D02*
X008066Y002299D01*
X008304Y002595D02*
X008707Y002595D01*
X008707Y002693D02*
X008304Y002693D01*
X008304Y003186D02*
X011137Y003186D01*
X011139Y003284D02*
X008304Y003284D01*
X009274Y003876D02*
X006620Y003876D01*
X006620Y003974D02*
X009641Y003974D01*
X010008Y003876D02*
X010044Y003876D01*
X010044Y003777D02*
X010008Y003777D01*
X009978Y003679D02*
X010073Y003679D01*
X010172Y003580D02*
X009880Y003580D01*
X009889Y003590D02*
X009889Y003590D01*
X009790Y003482D02*
X010261Y003482D01*
X010261Y003383D02*
X009790Y003383D01*
X010024Y003087D02*
X011137Y003087D01*
X011137Y002989D02*
X010106Y002989D01*
X010135Y002890D02*
X010917Y002890D01*
X010568Y002792D02*
X010126Y002792D01*
X010072Y002693D02*
X010469Y002693D01*
X010306Y002398D02*
X010247Y002398D01*
X010749Y002398D02*
X010901Y002398D01*
X010794Y002299D02*
X011137Y002299D01*
X011137Y002200D02*
X010794Y002200D01*
X010794Y002102D02*
X011137Y002102D01*
X011137Y002003D02*
X010794Y002003D01*
X010794Y001905D02*
X011275Y001905D01*
X011275Y001806D02*
X010732Y001806D01*
X010323Y001806D02*
X010230Y001806D01*
X009821Y001806D02*
X009728Y001806D01*
X009552Y001806D02*
X009495Y001806D01*
X009495Y001905D02*
X009552Y001905D01*
X009552Y002003D02*
X009495Y002003D01*
X008943Y001609D02*
X014504Y001609D01*
X014544Y001511D02*
X008943Y001511D01*
X008943Y001412D02*
X014594Y001412D01*
X015708Y002989D02*
X016098Y002989D01*
X016098Y002890D02*
X015946Y002890D01*
X016084Y002792D02*
X016098Y002792D01*
X014309Y004960D02*
X013432Y004960D01*
X013432Y005058D02*
X014244Y005058D01*
X014228Y005157D02*
X013432Y005157D01*
X013432Y005255D02*
X014249Y005255D01*
X014319Y005354D02*
X013432Y005354D01*
X013519Y005649D02*
X012933Y005649D01*
X012950Y005748D02*
X013519Y005748D01*
X013519Y005939D02*
X013943Y005939D01*
X013943Y005742D02*
X013943Y005624D01*
X014022Y005546D01*
X014494Y005546D01*
X014494Y005152D01*
X013943Y006136D02*
X013943Y006333D01*
X014367Y006339D02*
X016098Y006339D01*
X016098Y006241D02*
X014367Y006241D01*
X014367Y006438D02*
X016098Y006438D01*
X016098Y006536D02*
X014367Y006536D01*
X014367Y006635D02*
X016098Y006635D01*
X016098Y006733D02*
X014367Y006733D01*
X014367Y006832D02*
X016098Y006832D01*
X016098Y006931D02*
X014367Y006931D01*
X014367Y007029D02*
X016098Y007029D01*
X016098Y007128D02*
X015079Y007128D01*
X015079Y007127D02*
X015177Y007168D01*
X015252Y007243D01*
X015292Y007341D01*
X015292Y007394D01*
X015292Y007447D01*
X015252Y007545D01*
X015177Y007620D01*
X015079Y007660D01*
X015026Y007660D01*
X015026Y007394D01*
X015292Y007394D01*
X015026Y007394D01*
X015026Y007394D01*
X015025Y007394D01*
X015025Y007394D01*
X014759Y007394D01*
X014759Y007447D01*
X014800Y007545D01*
X014875Y007620D01*
X014973Y007660D01*
X015025Y007660D01*
X015025Y007394D01*
X014759Y007394D01*
X014759Y007341D01*
X014800Y007243D01*
X014875Y007168D01*
X014973Y007127D01*
X015025Y007127D01*
X015025Y007394D01*
X015026Y007394D01*
X015026Y007127D01*
X015079Y007127D01*
X015026Y007128D02*
X015025Y007128D01*
X014972Y007128D02*
X014367Y007128D01*
X014367Y007226D02*
X014816Y007226D01*
X014766Y007325D02*
X014367Y007325D01*
X014367Y007423D02*
X014759Y007423D01*
X014790Y007522D02*
X014367Y007522D01*
X014367Y007620D02*
X014876Y007620D01*
X015025Y007620D02*
X015026Y007620D01*
X015025Y007522D02*
X015026Y007522D01*
X015025Y007423D02*
X015026Y007423D01*
X015025Y007325D02*
X015026Y007325D01*
X015025Y007226D02*
X015026Y007226D01*
X015235Y007226D02*
X016098Y007226D01*
X016098Y007325D02*
X015285Y007325D01*
X015292Y007423D02*
X016098Y007423D01*
X016098Y007522D02*
X015261Y007522D01*
X015175Y007620D02*
X016098Y007620D01*
X016098Y007719D02*
X014367Y007719D01*
X014367Y007817D02*
X016098Y007817D01*
X016098Y007916D02*
X014367Y007916D01*
X014367Y008015D02*
X016098Y008015D01*
X016098Y008113D02*
X014367Y008113D01*
X014367Y008212D02*
X016098Y008212D01*
X016098Y008310D02*
X014367Y008310D01*
X014367Y008409D02*
X016098Y008409D01*
X016098Y008507D02*
X014367Y008507D01*
X014367Y008606D02*
X016098Y008606D01*
X016098Y008704D02*
X014367Y008704D01*
X014367Y008803D02*
X016098Y008803D01*
X016098Y008901D02*
X014367Y008901D01*
X014367Y009000D02*
X014468Y009000D01*
X014444Y009099D02*
X014367Y009099D01*
X014367Y009197D02*
X014444Y009197D01*
X014444Y009296D02*
X014367Y009296D01*
X013943Y009197D02*
X013943Y009197D01*
X013943Y009099D02*
X013943Y009099D01*
X013943Y008892D02*
X013313Y008892D01*
X013124Y008704D02*
X012127Y008704D01*
X012486Y008704D01*
X012486Y008606D02*
X012209Y008606D01*
X013519Y008606D01*
X013519Y008704D02*
X013502Y008704D01*
X013519Y008507D02*
X012244Y008507D01*
X012486Y008507D01*
X012486Y008409D02*
X012244Y008409D01*
X013519Y008409D01*
X013519Y008310D02*
X012208Y008310D01*
X012486Y008310D01*
X012486Y008212D02*
X012125Y008212D01*
X013519Y008212D01*
X013519Y008113D02*
X013485Y008113D01*
X013313Y007908D02*
X013943Y007908D01*
X013519Y007719D02*
X013501Y007719D01*
X013519Y007620D02*
X012216Y007620D01*
X012486Y007620D01*
X012486Y007522D02*
X012144Y007522D01*
X013519Y007522D01*
X013519Y007423D02*
X009337Y007423D01*
X012486Y007423D01*
X012486Y007325D02*
X012059Y007325D01*
X013519Y007325D01*
X013519Y007226D02*
X012188Y007226D01*
X012486Y007226D01*
X012486Y007128D02*
X012234Y007128D01*
X013519Y007128D01*
X013519Y007029D02*
X012244Y007029D01*
X012486Y007029D01*
X012486Y006931D02*
X012224Y006931D01*
X013519Y006931D01*
X013519Y006832D02*
X012163Y006832D01*
X012486Y006832D01*
X012486Y006733D02*
X011999Y006733D01*
X013519Y006733D01*
X013519Y006635D02*
X009337Y006635D01*
X012486Y006635D01*
X012486Y006536D02*
X009337Y006536D01*
X013519Y006536D01*
X013519Y006438D02*
X009337Y006438D01*
X009337Y006530D02*
X009337Y009679D01*
X012486Y009679D01*
X012486Y006530D01*
X009337Y006530D01*
X009337Y006733D02*
X009785Y006733D01*
X009337Y006733D01*
X009337Y006832D02*
X009621Y006832D01*
X009337Y006832D01*
X009337Y006931D02*
X009560Y006931D01*
X009337Y006931D01*
X009337Y007029D02*
X009539Y007029D01*
X009337Y007029D01*
X009337Y007128D02*
X009550Y007128D01*
X009337Y007128D01*
X009337Y007226D02*
X009596Y007226D01*
X009337Y007226D01*
X009337Y007325D02*
X009725Y007325D01*
X009337Y007325D01*
X009337Y007522D02*
X009640Y007522D01*
X009337Y007522D01*
X009337Y007620D02*
X009568Y007620D01*
X009337Y007620D01*
X009337Y007719D02*
X009539Y007719D01*
X009337Y007719D01*
X009337Y007817D02*
X009542Y007817D01*
X009337Y007817D01*
X009337Y007916D02*
X009583Y007916D01*
X009337Y007916D01*
X009337Y008015D02*
X009679Y008015D01*
X009337Y008015D01*
X009337Y008113D02*
X013142Y008113D01*
X013069Y008015D02*
X012105Y008015D01*
X012486Y008015D01*
X012486Y008113D02*
X009337Y008113D01*
X009337Y008212D02*
X009659Y008212D01*
X009337Y008212D01*
X009337Y008310D02*
X009576Y008310D01*
X009337Y008310D01*
X009337Y008409D02*
X009539Y008409D01*
X009337Y008409D01*
X009337Y008507D02*
X009539Y008507D01*
X009337Y008507D01*
X009337Y008606D02*
X009575Y008606D01*
X009337Y008606D01*
X009337Y008704D02*
X009657Y008704D01*
X009337Y008704D01*
X009337Y008803D02*
X013061Y008803D01*
X013047Y008901D02*
X012100Y008901D01*
X012486Y008901D01*
X012486Y008803D02*
X009337Y008803D01*
X009337Y008901D02*
X009683Y008901D01*
X009337Y008901D01*
X009337Y009000D02*
X009583Y009000D01*
X009337Y009000D01*
X009337Y009099D02*
X009543Y009099D01*
X009337Y009099D01*
X009337Y009197D02*
X009539Y009197D01*
X009337Y009197D01*
X009337Y009296D02*
X009567Y009296D01*
X009337Y009296D01*
X009337Y009394D02*
X009638Y009394D01*
X009337Y009394D01*
X009337Y009493D02*
X013117Y009493D01*
X013019Y009591D02*
X010321Y009591D01*
X010321Y009690D02*
X012957Y009690D01*
X012957Y009788D02*
X010321Y009788D01*
X010321Y009887D02*
X012957Y009887D01*
X012957Y009985D02*
X010321Y009985D01*
X010321Y010084D02*
X012957Y010084D01*
X012880Y010182D02*
X011280Y010182D01*
X011352Y010281D02*
X012850Y010281D01*
X012857Y010380D02*
X011375Y010380D01*
X011423Y010478D02*
X012908Y010478D01*
X012918Y010577D02*
X011464Y010577D01*
X011502Y010664D02*
X011817Y010270D01*
X011502Y010664D02*
X011502Y011136D01*
X011502Y010712D01*
X011502Y011136D01*
X011502Y011136D01*
X011502Y011560D01*
X011502Y011136D01*
X011502Y011136D01*
X011502Y011168D02*
X011502Y011168D01*
X011502Y011266D02*
X011502Y011266D01*
X011502Y011365D02*
X011502Y011365D01*
X011502Y011464D02*
X011502Y011464D01*
X011540Y011562D02*
X011255Y011562D01*
X011316Y011661D02*
X011540Y011661D01*
X011481Y011759D02*
X011316Y011759D01*
X011316Y011858D02*
X011382Y011858D01*
X011304Y011956D02*
X011269Y011956D01*
X011256Y012055D02*
X010283Y012055D01*
X010321Y011956D02*
X010554Y011956D01*
X010439Y011766D02*
X010715Y011766D01*
X010715Y011136D01*
X010715Y010546D01*
X010872Y010388D01*
X011108Y010388D01*
X011305Y010585D01*
X011305Y011136D01*
X011109Y011136D02*
X011108Y011136D01*
X011108Y011559D01*
X011108Y011766D01*
X011108Y011759D02*
X011109Y011759D01*
X011108Y011661D02*
X011109Y011661D01*
X011109Y011559D02*
X011109Y011136D01*
X011108Y011168D02*
X011109Y011168D01*
X011108Y011266D02*
X011109Y011266D01*
X011108Y011365D02*
X011109Y011365D01*
X011108Y011464D02*
X011109Y011464D01*
X011108Y011858D02*
X011109Y011858D01*
X011108Y011956D02*
X011109Y011956D01*
X010948Y011956D02*
X010875Y011956D01*
X011216Y012153D02*
X010237Y012153D01*
X010139Y012252D02*
X011216Y012252D01*
X011216Y012350D02*
X010040Y012350D01*
X009927Y012238D02*
X010124Y012042D01*
X010124Y011136D01*
X010321Y011136D02*
X010321Y011648D01*
X010439Y011766D01*
X009927Y011648D02*
X009927Y011136D01*
X009730Y011136D01*
X009730Y010585D01*
X009337Y010742D02*
X009022Y010427D01*
X009337Y010742D02*
X009337Y011136D01*
X009337Y011687D01*
X009415Y011766D01*
X009140Y011727D02*
X008825Y012042D01*
X005990Y012042D01*
X004612Y010664D01*
X004100Y010664D01*
X004100Y010860D02*
X004494Y010860D01*
X005872Y012238D01*
X009927Y012238D01*
X009809Y011766D02*
X009927Y011648D01*
X009534Y011136D02*
X009337Y011136D01*
X009140Y011136D02*
X009140Y011727D01*
X008943Y011648D02*
X008943Y011136D01*
X008746Y011136D02*
X008746Y011569D01*
X008667Y011648D01*
X006226Y011648D01*
X004849Y010270D01*
X004100Y010270D01*
X004100Y010467D02*
X004730Y010467D01*
X006108Y011845D01*
X008746Y011845D01*
X008943Y011648D01*
X008549Y011136D02*
X006620Y011136D01*
X005360Y009876D01*
X004100Y009876D01*
X004100Y010073D02*
X005124Y010073D01*
X005282Y010231D01*
X005478Y009679D02*
X006266Y010467D01*
X007880Y010467D01*
X007880Y010270D02*
X006384Y010270D01*
X005597Y009483D01*
X004100Y009483D01*
X004100Y009679D02*
X005478Y009679D01*
X005715Y009286D02*
X006502Y010073D01*
X007880Y010073D01*
X007880Y009876D02*
X006620Y009876D01*
X005833Y009089D01*
X004100Y009089D01*
X004100Y009286D02*
X005715Y009286D01*
X006463Y009207D02*
X006640Y009187D01*
X006896Y009187D01*
X007349Y009089D01*
X007880Y009089D01*
X007880Y009286D01*
X007880Y009483D02*
X008392Y009483D01*
X008471Y009561D01*
X007880Y009483D02*
X007880Y009679D01*
X007349Y009679D01*
X006896Y009581D01*
X007880Y008892D02*
X004100Y008892D01*
X004100Y008695D02*
X007880Y008695D01*
X007880Y008498D02*
X004100Y008498D01*
X004100Y008301D02*
X007880Y008301D01*
X007880Y008105D02*
X004100Y008105D01*
X004100Y007908D02*
X007880Y007908D01*
X007880Y007711D02*
X004100Y007711D01*
X004100Y007514D02*
X007880Y007514D01*
X007880Y007317D02*
X004100Y007317D01*
X004100Y007120D02*
X007880Y007120D01*
X007880Y006923D02*
X004100Y006923D01*
X004100Y006727D02*
X004967Y006727D01*
X005518Y006175D01*
X007329Y006175D01*
X007486Y006333D01*
X007880Y006333D01*
X007880Y006136D02*
X007880Y005939D01*
X007880Y005742D01*
X007880Y005073D01*
X007604Y005073D01*
X007447Y005309D01*
X007880Y005073D02*
X008549Y005073D01*
X008746Y005073D01*
X008943Y005073D02*
X008943Y004719D01*
X008825Y004601D01*
X007959Y004601D01*
X007880Y004679D01*
X007368Y004679D01*
X007250Y004797D01*
X007358Y003777D02*
X007457Y003777D01*
X007457Y003679D02*
X007358Y003679D01*
X006984Y003383D02*
X006965Y003383D01*
X006965Y003284D02*
X006984Y003284D01*
X006984Y003186D02*
X006965Y003186D01*
X006965Y003087D02*
X006984Y003087D01*
X006934Y002989D02*
X007043Y002989D01*
X008342Y001412D02*
X008707Y001412D01*
X008707Y001511D02*
X008511Y001511D01*
X008591Y001609D02*
X008707Y001609D01*
X008707Y001708D02*
X008631Y001708D01*
X009180Y004073D02*
X009218Y004073D01*
X009849Y004483D02*
X009849Y004640D01*
X009927Y004719D01*
X009927Y005073D01*
X010124Y005073D02*
X010124Y004719D01*
X010203Y004640D01*
X010203Y004483D01*
X010714Y005157D02*
X010715Y005157D01*
X010714Y005255D02*
X010715Y005255D01*
X010714Y005354D02*
X010715Y005354D01*
X010714Y005452D02*
X010715Y005452D01*
X010911Y005452D02*
X010912Y005452D01*
X010911Y005354D02*
X010912Y005354D01*
X010911Y005255D02*
X010912Y005255D01*
X010911Y005157D02*
X010912Y005157D01*
X011108Y005157D02*
X011109Y005157D01*
X011108Y005255D02*
X011109Y005255D01*
X011108Y005354D02*
X011109Y005354D01*
X011108Y005452D02*
X011109Y005452D01*
X011120Y005551D02*
X010506Y005551D01*
X010571Y005649D02*
X011055Y005649D01*
X011039Y005748D02*
X010587Y005748D01*
X010566Y005847D02*
X011060Y005847D01*
X011131Y005945D02*
X010495Y005945D01*
X010147Y005945D02*
X009337Y005945D01*
X009337Y005847D02*
X009846Y005847D01*
X009747Y005748D02*
X009337Y005748D01*
X009571Y005551D02*
X009061Y005551D01*
X009061Y005649D02*
X009649Y005649D01*
X009337Y006044D02*
X013519Y006044D01*
X013519Y006142D02*
X009337Y006142D01*
X009337Y006241D02*
X013519Y006241D01*
X013519Y006339D02*
X009337Y006339D01*
X009673Y006780D02*
X009586Y006866D01*
X009539Y006980D01*
X009539Y007032D01*
X009839Y007032D01*
X009858Y007032D01*
X009858Y007051D01*
X010158Y007051D01*
X010158Y007103D01*
X010110Y007217D01*
X010024Y007304D01*
X009910Y007351D01*
X009858Y007351D01*
X009858Y007051D01*
X010158Y007051D01*
X010158Y007103D01*
X010110Y007217D01*
X010024Y007304D01*
X009910Y007351D01*
X009858Y007351D01*
X009858Y007051D01*
X009858Y007032D01*
X010158Y007032D01*
X010158Y006980D01*
X010110Y006866D01*
X010024Y006780D01*
X009910Y006733D01*
X009858Y006733D01*
X009839Y006733D01*
X009787Y006733D01*
X009673Y006780D01*
X009787Y006733D01*
X009839Y006733D01*
X009839Y007032D01*
X009858Y007032D01*
X009858Y006733D01*
X009839Y006733D01*
X009839Y007032D01*
X009839Y007051D01*
X009539Y007051D01*
X009539Y007103D01*
X009586Y007217D01*
X009673Y007304D01*
X009787Y007351D01*
X009839Y007351D01*
X009839Y007051D01*
X009858Y007051D01*
X009839Y007051D01*
X009839Y007032D01*
X009539Y007032D01*
X009539Y006980D01*
X009586Y006866D01*
X009673Y006780D01*
X009839Y006832D02*
X009858Y006832D01*
X009839Y006832D01*
X009839Y006931D02*
X009858Y006931D01*
X009839Y006931D01*
X009839Y007029D02*
X009858Y007029D01*
X009839Y007029D01*
X009858Y007032D02*
X009858Y006733D01*
X009910Y006733D01*
X010024Y006780D01*
X010110Y006866D01*
X010158Y006980D01*
X010158Y007032D01*
X009858Y007032D01*
X009839Y007051D02*
X009539Y007051D01*
X009539Y007103D01*
X009586Y007217D01*
X009673Y007304D01*
X009787Y007351D01*
X009839Y007351D01*
X009839Y007051D01*
X009839Y007128D02*
X009858Y007128D01*
X009839Y007128D01*
X009839Y007226D02*
X009858Y007226D01*
X009839Y007226D01*
X009839Y007325D02*
X009858Y007325D01*
X009839Y007325D01*
X009839Y007441D02*
X009787Y007441D01*
X009673Y007488D01*
X009586Y007575D01*
X009539Y007689D01*
X009539Y007741D01*
X009839Y007741D01*
X009839Y007759D01*
X009539Y007759D01*
X009539Y007812D01*
X009586Y007925D01*
X009673Y008012D01*
X009787Y008059D01*
X009839Y008059D01*
X009839Y007760D01*
X009858Y007760D01*
X009858Y008059D01*
X009910Y008059D01*
X010024Y008012D01*
X010110Y007925D01*
X010158Y007812D01*
X010158Y007759D01*
X009858Y007759D01*
X009858Y007741D01*
X010158Y007741D01*
X010158Y007689D01*
X010110Y007575D01*
X010024Y007488D01*
X009910Y007441D01*
X009858Y007441D01*
X009858Y007741D01*
X009858Y007759D01*
X010158Y007759D01*
X010158Y007812D01*
X010110Y007925D01*
X010024Y008012D01*
X009910Y008059D01*
X009858Y008059D01*
X009858Y007760D01*
X009839Y007760D01*
X009839Y008059D01*
X009787Y008059D01*
X009673Y008012D01*
X009586Y007925D01*
X009539Y007812D01*
X009539Y007759D01*
X009839Y007759D01*
X009839Y007741D01*
X009539Y007741D01*
X009539Y007689D01*
X009586Y007575D01*
X009673Y007488D01*
X009787Y007441D01*
X009839Y007441D01*
X009839Y007741D01*
X009858Y007741D01*
X010158Y007741D01*
X010158Y007689D01*
X010110Y007575D01*
X010024Y007488D01*
X009910Y007441D01*
X009858Y007441D01*
X009858Y007741D01*
X009839Y007741D01*
X009839Y007441D01*
X009839Y007522D02*
X009858Y007522D01*
X009839Y007522D01*
X009839Y007620D02*
X009858Y007620D01*
X009839Y007620D01*
X009839Y007719D02*
X009858Y007719D01*
X009839Y007719D01*
X009839Y007817D02*
X009858Y007817D01*
X009839Y007817D01*
X009839Y007916D02*
X009858Y007916D01*
X009839Y007916D01*
X009839Y008015D02*
X009858Y008015D01*
X009839Y008015D01*
X009839Y008150D02*
X009787Y008150D01*
X009673Y008197D01*
X009586Y008284D01*
X009539Y008397D01*
X009539Y008450D01*
X009839Y008450D01*
X009839Y008468D01*
X009539Y008468D01*
X009539Y008520D01*
X009586Y008634D01*
X009673Y008721D01*
X009787Y008768D01*
X009839Y008768D01*
X009839Y008468D01*
X009839Y008450D01*
X009539Y008450D01*
X009539Y008397D01*
X009586Y008284D01*
X009673Y008197D01*
X009787Y008150D01*
X009839Y008150D01*
X009839Y008450D01*
X009858Y008450D01*
X009858Y008468D01*
X010158Y008468D01*
X010158Y008520D01*
X010110Y008634D01*
X010024Y008721D01*
X009910Y008768D01*
X009858Y008768D01*
X009858Y008468D01*
X010158Y008468D01*
X010158Y008520D01*
X010110Y008634D01*
X010024Y008721D01*
X009910Y008768D01*
X009858Y008768D01*
X009858Y008468D01*
X009858Y008450D01*
X010158Y008450D01*
X010158Y008397D01*
X010110Y008284D01*
X010024Y008197D01*
X009910Y008150D01*
X009858Y008150D01*
X009858Y008450D01*
X010158Y008450D01*
X010158Y008397D01*
X010110Y008284D01*
X010024Y008197D01*
X009910Y008150D01*
X009858Y008150D01*
X009858Y008450D01*
X009839Y008450D01*
X009839Y008150D01*
X009839Y008212D02*
X009858Y008212D01*
X009839Y008212D01*
X009839Y008310D02*
X009858Y008310D01*
X009839Y008310D01*
X009839Y008409D02*
X009858Y008409D01*
X009839Y008409D01*
X009839Y008468D02*
X009539Y008468D01*
X009539Y008520D01*
X009586Y008634D01*
X009673Y008721D01*
X009787Y008768D01*
X009839Y008768D01*
X009839Y008468D01*
X009858Y008468D01*
X009839Y008468D01*
X009839Y008507D02*
X009858Y008507D01*
X009839Y008507D01*
X009839Y008606D02*
X009858Y008606D01*
X009839Y008606D01*
X009839Y008704D02*
X009858Y008704D01*
X009839Y008704D01*
X009839Y008859D02*
X009787Y008859D01*
X009673Y008906D01*
X009586Y008992D01*
X009539Y009106D01*
X009539Y009158D01*
X009839Y009158D01*
X009858Y009158D01*
X009858Y009177D01*
X009839Y009177D01*
X009839Y009477D01*
X009787Y009477D01*
X009673Y009430D01*
X009586Y009343D01*
X009539Y009229D01*
X009539Y009177D01*
X009839Y009177D01*
X009839Y009477D01*
X009787Y009477D01*
X009673Y009430D01*
X009586Y009343D01*
X009539Y009229D01*
X009539Y009177D01*
X009839Y009177D01*
X009858Y009177D01*
X009858Y009477D01*
X009910Y009477D01*
X010024Y009430D01*
X010110Y009343D01*
X010158Y009229D01*
X010158Y009177D01*
X009858Y009177D01*
X009858Y009477D01*
X009910Y009477D01*
X010024Y009430D01*
X010110Y009343D01*
X010158Y009229D01*
X010158Y009177D01*
X009858Y009177D01*
X009858Y009158D01*
X010158Y009158D01*
X010158Y009106D01*
X010110Y008992D01*
X010024Y008906D01*
X009910Y008859D01*
X009858Y008859D01*
X009858Y009158D01*
X010158Y009158D01*
X010158Y009106D01*
X010110Y008992D01*
X010024Y008906D01*
X009910Y008859D01*
X009858Y008859D01*
X009858Y009158D01*
X009839Y009158D01*
X009839Y008859D01*
X009787Y008859D01*
X009673Y008906D01*
X009586Y008992D01*
X009539Y009106D01*
X009539Y009158D01*
X009839Y009158D01*
X009839Y008859D01*
X009839Y008901D02*
X009858Y008901D01*
X009839Y008901D01*
X009839Y009000D02*
X009858Y009000D01*
X009839Y009000D01*
X009839Y009099D02*
X009858Y009099D01*
X009839Y009099D01*
X009839Y009158D02*
X009839Y009177D01*
X009839Y009158D01*
X009839Y009197D02*
X009858Y009197D01*
X009839Y009197D01*
X009839Y009296D02*
X009858Y009296D01*
X009839Y009296D01*
X009839Y009394D02*
X009858Y009394D01*
X009839Y009394D01*
X010059Y009394D02*
X010347Y009394D01*
X010059Y009394D01*
X010130Y009296D02*
X010276Y009296D01*
X010130Y009296D01*
X010158Y009197D02*
X010248Y009197D01*
X010158Y009197D01*
X010248Y009177D02*
X010548Y009177D01*
X010548Y009477D01*
X010496Y009477D01*
X010382Y009430D01*
X010295Y009343D01*
X010248Y009229D01*
X010248Y009177D01*
X010548Y009177D01*
X010566Y009177D01*
X010566Y009477D01*
X010619Y009477D01*
X010732Y009430D01*
X010819Y009343D01*
X010866Y009229D01*
X010866Y009177D01*
X010566Y009177D01*
X010548Y009177D01*
X010548Y009477D01*
X010496Y009477D01*
X010382Y009430D01*
X010295Y009343D01*
X010248Y009229D01*
X010248Y009177D01*
X010248Y009158D02*
X010248Y009106D01*
X010295Y008992D01*
X010382Y008906D01*
X010496Y008859D01*
X010548Y008859D01*
X010548Y009158D01*
X010566Y009158D01*
X010566Y008859D01*
X010619Y008859D01*
X010732Y008906D01*
X010819Y008992D01*
X010866Y009106D01*
X010866Y009158D01*
X010566Y009158D01*
X010566Y008859D01*
X010619Y008859D01*
X010732Y008906D01*
X010819Y008992D01*
X010866Y009106D01*
X010866Y009158D01*
X010566Y009158D01*
X010548Y009158D01*
X010548Y008859D01*
X010496Y008859D01*
X010382Y008906D01*
X010295Y008992D01*
X010248Y009106D01*
X010248Y009158D01*
X010548Y009158D01*
X010548Y009177D01*
X010548Y009158D01*
X010248Y009158D01*
X010251Y009099D02*
X010154Y009099D01*
X010251Y009099D01*
X010292Y009000D02*
X010114Y009000D01*
X010292Y009000D01*
X010392Y008901D02*
X010014Y008901D01*
X010392Y008901D01*
X010548Y008901D02*
X010566Y008901D01*
X010548Y008901D01*
X010548Y009000D02*
X010566Y009000D01*
X010548Y009000D01*
X010548Y009099D02*
X010566Y009099D01*
X010548Y009099D01*
X010566Y009158D02*
X010566Y009177D01*
X010566Y009477D01*
X010619Y009477D01*
X010732Y009430D01*
X010819Y009343D01*
X010866Y009229D01*
X010866Y009177D01*
X010566Y009177D01*
X010566Y009158D01*
X010566Y009197D02*
X010548Y009197D01*
X010566Y009197D01*
X010566Y009296D02*
X010548Y009296D01*
X010566Y009296D01*
X010566Y009394D02*
X010548Y009394D01*
X010566Y009394D01*
X010768Y009394D02*
X011055Y009394D01*
X010768Y009394D01*
X010839Y009296D02*
X010984Y009296D01*
X010839Y009296D01*
X010866Y009197D02*
X010957Y009197D01*
X010866Y009197D01*
X010957Y009177D02*
X011256Y009177D01*
X011256Y009158D01*
X010957Y009158D01*
X010957Y009106D01*
X011004Y008992D01*
X011091Y008906D01*
X011204Y008859D01*
X011257Y008859D01*
X011257Y009158D01*
X011275Y009158D01*
X011275Y008859D01*
X011327Y008859D01*
X011441Y008906D01*
X011528Y008992D01*
X011575Y009106D01*
X011575Y009158D01*
X011275Y009158D01*
X011275Y008859D01*
X011327Y008859D01*
X011441Y008906D01*
X011528Y008992D01*
X011575Y009106D01*
X011575Y009158D01*
X011275Y009158D01*
X011257Y009158D01*
X011257Y008859D01*
X011204Y008859D01*
X011091Y008906D01*
X011004Y008992D01*
X010957Y009106D01*
X010957Y009158D01*
X011256Y009158D01*
X011256Y009177D01*
X010957Y009177D01*
X010957Y009229D01*
X011004Y009343D01*
X011091Y009430D01*
X011204Y009477D01*
X011257Y009477D01*
X011257Y009177D01*
X011275Y009177D01*
X011275Y009477D01*
X011327Y009477D01*
X011441Y009430D01*
X011528Y009343D01*
X011575Y009229D01*
X011575Y009177D01*
X011275Y009177D01*
X011257Y009177D01*
X011257Y009477D01*
X011204Y009477D01*
X011091Y009430D01*
X011004Y009343D01*
X010957Y009229D01*
X010957Y009177D01*
X010960Y009099D02*
X010863Y009099D01*
X010960Y009099D01*
X011001Y009000D02*
X010822Y009000D01*
X011001Y009000D01*
X011101Y008901D02*
X010722Y008901D01*
X011101Y008901D01*
X011257Y008901D02*
X011275Y008901D01*
X011257Y008901D01*
X011257Y009000D02*
X011275Y009000D01*
X011257Y009000D01*
X011257Y009099D02*
X011275Y009099D01*
X011257Y009099D01*
X011275Y009158D02*
X011275Y009177D01*
X011275Y009477D01*
X011327Y009477D01*
X011441Y009430D01*
X011528Y009343D01*
X011575Y009229D01*
X011575Y009177D01*
X011275Y009177D01*
X011275Y009158D01*
X011275Y009197D02*
X011257Y009197D01*
X011275Y009197D01*
X011275Y009296D02*
X011257Y009296D01*
X011275Y009296D01*
X011275Y009394D02*
X011257Y009394D01*
X011275Y009394D01*
X011476Y009394D02*
X011725Y009394D01*
X011476Y009394D01*
X011547Y009296D02*
X011654Y009296D01*
X011547Y009296D01*
X011575Y009197D02*
X011626Y009197D01*
X011575Y009197D01*
X011626Y009177D02*
X011926Y009177D01*
X011926Y009477D01*
X011874Y009477D01*
X011760Y009430D01*
X011673Y009343D01*
X011626Y009229D01*
X011626Y009177D01*
X011926Y009177D01*
X011944Y009177D01*
X011944Y009477D01*
X011997Y009477D01*
X012110Y009430D01*
X012197Y009343D01*
X012244Y009229D01*
X012244Y009177D01*
X011944Y009177D01*
X011926Y009177D01*
X011926Y009477D01*
X011874Y009477D01*
X011760Y009430D01*
X011673Y009343D01*
X011626Y009229D01*
X011626Y009177D01*
X011626Y009158D02*
X011626Y009106D01*
X011673Y008992D01*
X011760Y008906D01*
X011874Y008859D01*
X011926Y008859D01*
X011926Y009158D01*
X011944Y009158D01*
X011944Y008859D01*
X011997Y008859D01*
X012110Y008906D01*
X012197Y008992D01*
X012244Y009106D01*
X012244Y009158D01*
X011944Y009158D01*
X011944Y008859D01*
X011997Y008859D01*
X012110Y008906D01*
X012197Y008992D01*
X012244Y009106D01*
X012244Y009158D01*
X011944Y009158D01*
X011926Y009158D01*
X011926Y008859D01*
X011874Y008859D01*
X011760Y008906D01*
X011673Y008992D01*
X011626Y009106D01*
X011626Y009158D01*
X011926Y009158D01*
X011926Y009177D01*
X011926Y009158D01*
X011626Y009158D01*
X011629Y009099D02*
X011572Y009099D01*
X011629Y009099D01*
X011670Y009000D02*
X011531Y009000D01*
X011670Y009000D01*
X011770Y008901D02*
X011431Y008901D01*
X011770Y008901D01*
X011926Y008901D02*
X011944Y008901D01*
X011926Y008901D01*
X011926Y009000D02*
X011944Y009000D01*
X011926Y009000D01*
X011926Y009099D02*
X011944Y009099D01*
X011926Y009099D01*
X011944Y009158D02*
X011944Y009177D01*
X011944Y009477D01*
X011997Y009477D01*
X012110Y009430D01*
X012197Y009343D01*
X012244Y009229D01*
X012244Y009177D01*
X011944Y009177D01*
X011944Y009158D01*
X011944Y009197D02*
X011926Y009197D01*
X011944Y009197D01*
X011944Y009296D02*
X011926Y009296D01*
X011944Y009296D01*
X011944Y009394D02*
X011926Y009394D01*
X011944Y009394D01*
X012146Y009394D02*
X013216Y009394D01*
X013143Y009099D02*
X012241Y009099D01*
X012486Y009099D01*
X012486Y009197D02*
X012244Y009197D01*
X013519Y009197D01*
X013519Y009099D02*
X013483Y009099D01*
X013519Y009296D02*
X012217Y009296D01*
X012486Y009296D01*
X012486Y009394D02*
X012146Y009394D01*
X012486Y009493D02*
X009337Y009493D01*
X009337Y009591D02*
X012486Y009591D01*
X012486Y009000D02*
X012200Y009000D01*
X013069Y009000D01*
X012197Y008634D02*
X012110Y008721D01*
X011997Y008768D01*
X011944Y008768D01*
X011944Y008468D01*
X011926Y008468D01*
X011926Y008450D01*
X011626Y008450D01*
X011626Y008397D01*
X011673Y008284D01*
X011760Y008197D01*
X011874Y008150D01*
X011926Y008150D01*
X011926Y008450D01*
X011626Y008450D01*
X011626Y008397D01*
X011673Y008284D01*
X011760Y008197D01*
X011874Y008150D01*
X011926Y008150D01*
X011926Y008450D01*
X011926Y008468D01*
X011626Y008468D01*
X011626Y008520D01*
X011673Y008634D01*
X011760Y008721D01*
X011874Y008768D01*
X011926Y008768D01*
X011926Y008468D01*
X011626Y008468D01*
X011626Y008520D01*
X011673Y008634D01*
X011760Y008721D01*
X011874Y008768D01*
X011926Y008768D01*
X011926Y008468D01*
X011944Y008468D01*
X011944Y008768D01*
X011997Y008768D01*
X012110Y008721D01*
X012197Y008634D01*
X012244Y008520D01*
X012244Y008468D01*
X011944Y008468D01*
X011944Y008450D01*
X012244Y008450D01*
X012244Y008397D01*
X012197Y008284D01*
X012110Y008197D01*
X011997Y008150D01*
X011944Y008150D01*
X011944Y008450D01*
X011926Y008450D01*
X011944Y008450D01*
X011944Y008468D01*
X012244Y008468D01*
X012244Y008520D01*
X012197Y008634D01*
X012244Y008450D02*
X011944Y008450D01*
X011944Y008150D01*
X011997Y008150D01*
X012110Y008197D01*
X012197Y008284D01*
X012244Y008397D01*
X012244Y008450D01*
X011944Y008409D02*
X011926Y008409D01*
X011944Y008409D01*
X011944Y008507D02*
X011926Y008507D01*
X011944Y008507D01*
X011944Y008606D02*
X011926Y008606D01*
X011944Y008606D01*
X011944Y008704D02*
X011926Y008704D01*
X011944Y008704D01*
X011744Y008704D02*
X011457Y008704D01*
X011744Y008704D01*
X011661Y008606D02*
X011539Y008606D01*
X011661Y008606D01*
X011626Y008507D02*
X011575Y008507D01*
X011626Y008507D01*
X011575Y008520D02*
X011528Y008634D01*
X011441Y008721D01*
X011327Y008768D01*
X011275Y008768D01*
X011275Y008468D01*
X011575Y008468D01*
X011575Y008520D01*
X011528Y008634D01*
X011441Y008721D01*
X011327Y008768D01*
X011275Y008768D01*
X011275Y008468D01*
X011275Y008450D01*
X011575Y008450D01*
X011575Y008397D01*
X011528Y008284D01*
X011441Y008197D01*
X011327Y008150D01*
X011275Y008150D01*
X011275Y008450D01*
X011275Y008468D01*
X011575Y008468D01*
X011575Y008520D01*
X011575Y008450D02*
X011275Y008450D01*
X011257Y008450D01*
X011257Y008150D01*
X011204Y008150D01*
X011091Y008197D01*
X011004Y008284D01*
X010957Y008397D01*
X010957Y008450D01*
X011256Y008450D01*
X011256Y008468D01*
X010957Y008468D01*
X010957Y008520D01*
X011004Y008634D01*
X011091Y008721D01*
X011204Y008768D01*
X011257Y008768D01*
X011257Y008468D01*
X011275Y008468D01*
X011257Y008468D01*
X011257Y008768D01*
X011204Y008768D01*
X011091Y008721D01*
X011004Y008634D01*
X010957Y008520D01*
X010957Y008468D01*
X011256Y008468D01*
X011256Y008450D01*
X010957Y008450D01*
X010957Y008397D01*
X011004Y008284D01*
X011091Y008197D01*
X011204Y008150D01*
X011257Y008150D01*
X011257Y008450D01*
X011275Y008450D01*
X011275Y008150D01*
X011327Y008150D01*
X011441Y008197D01*
X011528Y008284D01*
X011575Y008397D01*
X011575Y008450D01*
X011575Y008409D02*
X011626Y008409D01*
X011575Y008409D01*
X011539Y008310D02*
X011662Y008310D01*
X011539Y008310D01*
X011456Y008212D02*
X011745Y008212D01*
X011456Y008212D01*
X011275Y008212D02*
X011257Y008212D01*
X011275Y008212D01*
X011275Y008310D02*
X011257Y008310D01*
X011275Y008310D01*
X011275Y008409D02*
X011257Y008409D01*
X011275Y008409D01*
X011275Y008507D02*
X011257Y008507D01*
X011275Y008507D01*
X011275Y008606D02*
X011257Y008606D01*
X011275Y008606D01*
X011275Y008704D02*
X011257Y008704D01*
X011275Y008704D01*
X011074Y008704D02*
X010749Y008704D01*
X011074Y008704D01*
X010992Y008606D02*
X010831Y008606D01*
X010992Y008606D01*
X010957Y008507D02*
X010866Y008507D01*
X010957Y008507D01*
X010866Y008520D02*
X010819Y008634D01*
X010732Y008721D01*
X010619Y008768D01*
X010566Y008768D01*
X010566Y008468D01*
X010548Y008468D01*
X010548Y008450D01*
X010248Y008450D01*
X010248Y008397D01*
X010295Y008284D01*
X010382Y008197D01*
X010496Y008150D01*
X010548Y008150D01*
X010548Y008450D01*
X010248Y008450D01*
X010248Y008397D01*
X010295Y008284D01*
X010382Y008197D01*
X010496Y008150D01*
X010548Y008150D01*
X010548Y008450D01*
X010548Y008468D01*
X010248Y008468D01*
X010248Y008520D01*
X010295Y008634D01*
X010382Y008721D01*
X010496Y008768D01*
X010548Y008768D01*
X010548Y008468D01*
X010248Y008468D01*
X010248Y008520D01*
X010295Y008634D01*
X010382Y008721D01*
X010496Y008768D01*
X010548Y008768D01*
X010548Y008468D01*
X010566Y008468D01*
X010566Y008768D01*
X010619Y008768D01*
X010732Y008721D01*
X010819Y008634D01*
X010866Y008520D01*
X010866Y008468D01*
X010566Y008468D01*
X010566Y008450D01*
X010566Y008150D01*
X010619Y008150D01*
X010732Y008197D01*
X010819Y008284D01*
X010866Y008397D01*
X010866Y008450D01*
X010566Y008450D01*
X010548Y008450D01*
X010566Y008450D01*
X010566Y008150D01*
X010619Y008150D01*
X010732Y008197D01*
X010819Y008284D01*
X010866Y008397D01*
X010866Y008450D01*
X010566Y008450D01*
X010566Y008468D01*
X010866Y008468D01*
X010866Y008520D01*
X010866Y008409D02*
X010957Y008409D01*
X010866Y008409D01*
X010830Y008310D02*
X010993Y008310D01*
X010830Y008310D01*
X010747Y008212D02*
X011076Y008212D01*
X010747Y008212D01*
X010566Y008212D02*
X010548Y008212D01*
X010566Y008212D01*
X010566Y008310D02*
X010548Y008310D01*
X010566Y008310D01*
X010566Y008409D02*
X010548Y008409D01*
X010566Y008409D01*
X010566Y008507D02*
X010548Y008507D01*
X010566Y008507D01*
X010566Y008606D02*
X010548Y008606D01*
X010566Y008606D01*
X010566Y008704D02*
X010548Y008704D01*
X010566Y008704D01*
X010366Y008704D02*
X010040Y008704D01*
X010366Y008704D01*
X010284Y008606D02*
X010122Y008606D01*
X010284Y008606D01*
X010248Y008507D02*
X010158Y008507D01*
X010248Y008507D01*
X010248Y008409D02*
X010158Y008409D01*
X010248Y008409D01*
X010284Y008310D02*
X010121Y008310D01*
X010284Y008310D01*
X010367Y008212D02*
X010038Y008212D01*
X010367Y008212D01*
X010388Y008015D02*
X010018Y008015D01*
X010388Y008015D01*
X010382Y008012D02*
X010295Y007925D01*
X010248Y007812D01*
X010248Y007759D01*
X010548Y007759D01*
X010548Y007741D01*
X010566Y007741D01*
X010566Y007441D01*
X010619Y007441D01*
X010732Y007488D01*
X010819Y007575D01*
X010866Y007689D01*
X010866Y007741D01*
X010566Y007741D01*
X010566Y007441D01*
X010619Y007441D01*
X010732Y007488D01*
X010819Y007575D01*
X010866Y007689D01*
X010866Y007741D01*
X010566Y007741D01*
X010548Y007741D01*
X010548Y007441D01*
X010496Y007441D01*
X010382Y007488D01*
X010295Y007575D01*
X010248Y007689D01*
X010248Y007741D01*
X010548Y007741D01*
X010548Y007441D01*
X010496Y007441D01*
X010382Y007488D01*
X010295Y007575D01*
X010248Y007689D01*
X010248Y007741D01*
X010548Y007741D01*
X010548Y007759D01*
X010248Y007759D01*
X010248Y007812D01*
X010295Y007925D01*
X010382Y008012D01*
X010496Y008059D01*
X010548Y008059D01*
X010548Y007760D01*
X010566Y007760D01*
X010566Y008059D01*
X010619Y008059D01*
X010732Y008012D01*
X010819Y007925D01*
X010866Y007812D01*
X010866Y007759D01*
X010566Y007759D01*
X010566Y007741D01*
X010566Y007759D01*
X010866Y007759D01*
X010866Y007812D01*
X010819Y007925D01*
X010732Y008012D01*
X010619Y008059D01*
X010566Y008059D01*
X010566Y007760D01*
X010548Y007760D01*
X010548Y008059D01*
X010496Y008059D01*
X010382Y008012D01*
X010291Y007916D02*
X010114Y007916D01*
X010291Y007916D01*
X010251Y007817D02*
X010155Y007817D01*
X010251Y007817D01*
X010248Y007719D02*
X010158Y007719D01*
X010248Y007719D01*
X010276Y007620D02*
X010129Y007620D01*
X010276Y007620D01*
X010349Y007522D02*
X010057Y007522D01*
X010349Y007522D01*
X010548Y007522D02*
X010566Y007522D01*
X010548Y007522D01*
X010548Y007620D02*
X010566Y007620D01*
X010548Y007620D01*
X010548Y007719D02*
X010566Y007719D01*
X010548Y007719D01*
X010548Y007817D02*
X010566Y007817D01*
X010548Y007817D01*
X010548Y007916D02*
X010566Y007916D01*
X010548Y007916D01*
X010548Y008015D02*
X010566Y008015D01*
X010548Y008015D01*
X010727Y008015D02*
X011096Y008015D01*
X010727Y008015D01*
X010823Y007916D02*
X011000Y007916D01*
X010823Y007916D01*
X010864Y007817D02*
X010959Y007817D01*
X010864Y007817D01*
X010957Y007812D02*
X010957Y007759D01*
X011256Y007759D01*
X011256Y007741D01*
X010957Y007741D01*
X010957Y007689D01*
X011004Y007575D01*
X011091Y007488D01*
X011204Y007441D01*
X011257Y007441D01*
X011257Y007741D01*
X011275Y007741D01*
X011275Y007441D01*
X011327Y007441D01*
X011441Y007488D01*
X011528Y007575D01*
X011575Y007689D01*
X011575Y007741D01*
X011275Y007741D01*
X011275Y007441D01*
X011327Y007441D01*
X011441Y007488D01*
X011528Y007575D01*
X011575Y007689D01*
X011575Y007741D01*
X011275Y007741D01*
X011257Y007741D01*
X011257Y007441D01*
X011204Y007441D01*
X011091Y007488D01*
X011004Y007575D01*
X010957Y007689D01*
X010957Y007741D01*
X011256Y007741D01*
X011256Y007759D01*
X010957Y007759D01*
X010957Y007812D01*
X011004Y007925D01*
X011091Y008012D01*
X011204Y008059D01*
X011257Y008059D01*
X011257Y007760D01*
X011275Y007760D01*
X011275Y008059D01*
X011327Y008059D01*
X011441Y008012D01*
X011528Y007925D01*
X011575Y007812D01*
X011575Y007759D01*
X011275Y007759D01*
X011275Y007741D01*
X011275Y007759D01*
X011575Y007759D01*
X011575Y007812D01*
X011528Y007925D01*
X011441Y008012D01*
X011327Y008059D01*
X011275Y008059D01*
X011275Y007760D01*
X011257Y007760D01*
X011257Y008059D01*
X011204Y008059D01*
X011091Y008012D01*
X011004Y007925D01*
X010957Y007812D01*
X010957Y007719D02*
X010866Y007719D01*
X010957Y007719D01*
X010985Y007620D02*
X010838Y007620D01*
X010985Y007620D01*
X011057Y007522D02*
X010766Y007522D01*
X011057Y007522D01*
X011257Y007522D02*
X011275Y007522D01*
X011257Y007522D01*
X011257Y007620D02*
X011275Y007620D01*
X011257Y007620D01*
X011257Y007719D02*
X011275Y007719D01*
X011257Y007719D01*
X011257Y007817D02*
X011275Y007817D01*
X011257Y007817D01*
X011257Y007916D02*
X011275Y007916D01*
X011257Y007916D01*
X011257Y008015D02*
X011275Y008015D01*
X011257Y008015D01*
X011435Y008015D02*
X011766Y008015D01*
X011435Y008015D01*
X011532Y007916D02*
X011669Y007916D01*
X011532Y007916D01*
X011572Y007817D02*
X011628Y007817D01*
X011572Y007817D01*
X011626Y007812D02*
X011626Y007759D01*
X011926Y007759D01*
X011926Y007741D01*
X011944Y007741D01*
X011944Y007441D01*
X011997Y007441D01*
X012110Y007488D01*
X012197Y007575D01*
X012244Y007689D01*
X012244Y007741D01*
X011944Y007741D01*
X011944Y007441D01*
X011997Y007441D01*
X012110Y007488D01*
X012197Y007575D01*
X012244Y007689D01*
X012244Y007741D01*
X011944Y007741D01*
X011926Y007741D01*
X011926Y007441D01*
X011874Y007441D01*
X011760Y007488D01*
X011673Y007575D01*
X011626Y007689D01*
X011626Y007741D01*
X011926Y007741D01*
X011926Y007441D01*
X011874Y007441D01*
X011760Y007488D01*
X011673Y007575D01*
X011626Y007689D01*
X011626Y007741D01*
X011926Y007741D01*
X011926Y007759D01*
X011626Y007759D01*
X011626Y007812D01*
X011673Y007925D01*
X011760Y008012D01*
X011874Y008059D01*
X011926Y008059D01*
X011926Y007760D01*
X011944Y007760D01*
X011944Y008059D01*
X011997Y008059D01*
X012110Y008012D01*
X012197Y007925D01*
X012244Y007812D01*
X012244Y007759D01*
X011944Y007759D01*
X011944Y007741D01*
X011944Y007759D01*
X012244Y007759D01*
X012244Y007812D01*
X012197Y007925D01*
X012110Y008012D01*
X011997Y008059D01*
X011944Y008059D01*
X011944Y007760D01*
X011926Y007760D01*
X011926Y008059D01*
X011874Y008059D01*
X011760Y008012D01*
X011673Y007925D01*
X011626Y007812D01*
X011626Y007719D02*
X011575Y007719D01*
X011626Y007719D01*
X011654Y007620D02*
X011546Y007620D01*
X011654Y007620D01*
X011726Y007522D02*
X011474Y007522D01*
X011726Y007522D01*
X011926Y007522D02*
X011944Y007522D01*
X011926Y007522D01*
X011926Y007620D02*
X011944Y007620D01*
X011926Y007620D01*
X011926Y007719D02*
X011944Y007719D01*
X011926Y007719D01*
X011926Y007817D02*
X011944Y007817D01*
X011926Y007817D01*
X011926Y007916D02*
X011944Y007916D01*
X011926Y007916D01*
X011926Y008015D02*
X011944Y008015D01*
X011926Y008015D01*
X011926Y008212D02*
X011944Y008212D01*
X011926Y008212D01*
X011926Y008310D02*
X011944Y008310D01*
X011926Y008310D01*
X012201Y007916D02*
X013047Y007916D01*
X013062Y007817D02*
X012242Y007817D01*
X012486Y007817D01*
X012486Y007719D02*
X012244Y007719D01*
X013125Y007719D01*
X012486Y007916D02*
X012201Y007916D01*
X011997Y007351D02*
X011944Y007351D01*
X011944Y007051D01*
X011926Y007051D01*
X011926Y007351D01*
X011874Y007351D01*
X011760Y007304D01*
X011673Y007217D01*
X011626Y007103D01*
X011626Y007051D01*
X011926Y007051D01*
X011926Y007351D01*
X011874Y007351D01*
X011760Y007304D01*
X011673Y007217D01*
X011626Y007103D01*
X011626Y007051D01*
X011926Y007051D01*
X011944Y007051D01*
X011944Y007351D01*
X011997Y007351D01*
X012110Y007304D01*
X012197Y007217D01*
X012244Y007103D01*
X012244Y007051D01*
X011944Y007051D01*
X011944Y007032D01*
X011944Y006733D01*
X011926Y006733D01*
X011874Y006733D01*
X011760Y006780D01*
X011673Y006866D01*
X011626Y006980D01*
X011626Y007032D01*
X011926Y007032D01*
X011944Y007032D01*
X011944Y006733D01*
X011997Y006733D01*
X012110Y006780D01*
X012197Y006866D01*
X012244Y006980D01*
X012244Y007032D01*
X011944Y007032D01*
X011926Y007032D01*
X011926Y006733D01*
X011944Y006733D01*
X011997Y006733D01*
X012110Y006780D01*
X012197Y006866D01*
X012244Y006980D01*
X012244Y007032D01*
X011944Y007032D01*
X011944Y007051D01*
X012244Y007051D01*
X012244Y007103D01*
X012197Y007217D01*
X012110Y007304D01*
X011997Y007351D01*
X011944Y007325D02*
X011926Y007325D01*
X011944Y007325D01*
X011944Y007226D02*
X011926Y007226D01*
X011944Y007226D01*
X011944Y007128D02*
X011926Y007128D01*
X011944Y007128D01*
X011926Y007051D02*
X011926Y007032D01*
X011926Y006733D01*
X011874Y006733D01*
X011760Y006780D01*
X011673Y006866D01*
X011626Y006980D01*
X011626Y007032D01*
X011926Y007032D01*
X011926Y007051D01*
X011926Y007029D02*
X011944Y007029D01*
X011926Y007029D01*
X011926Y006931D02*
X011944Y006931D01*
X011926Y006931D01*
X011926Y006832D02*
X011944Y006832D01*
X011926Y006832D01*
X011871Y006733D02*
X011330Y006733D01*
X011871Y006733D01*
X011708Y006832D02*
X011493Y006832D01*
X011708Y006832D01*
X011647Y006931D02*
X011554Y006931D01*
X011647Y006931D01*
X011575Y006980D02*
X011528Y006866D01*
X011441Y006780D01*
X011327Y006733D01*
X011275Y006733D01*
X011257Y006733D01*
X011204Y006733D01*
X011091Y006780D01*
X011004Y006866D01*
X010957Y006980D01*
X010957Y007032D01*
X011256Y007032D01*
X011256Y007051D01*
X010957Y007051D01*
X010957Y007103D01*
X011004Y007217D01*
X011091Y007304D01*
X011204Y007351D01*
X011257Y007351D01*
X011257Y007051D01*
X011275Y007051D01*
X011275Y007351D01*
X011327Y007351D01*
X011441Y007304D01*
X011528Y007217D01*
X011575Y007103D01*
X011575Y007051D01*
X011275Y007051D01*
X011257Y007051D01*
X011257Y007351D01*
X011204Y007351D01*
X011091Y007304D01*
X011004Y007217D01*
X010957Y007103D01*
X010957Y007051D01*
X011256Y007051D01*
X011256Y007032D01*
X010957Y007032D01*
X010957Y006980D01*
X011004Y006866D01*
X011091Y006780D01*
X011204Y006733D01*
X011257Y006733D01*
X011257Y007032D01*
X011275Y007032D01*
X011275Y006733D01*
X011257Y006733D01*
X011257Y007032D01*
X011275Y007032D01*
X011275Y006733D01*
X011327Y006733D01*
X011441Y006780D01*
X011528Y006866D01*
X011575Y006980D01*
X011575Y007032D01*
X011275Y007032D01*
X011275Y007051D01*
X011275Y007351D01*
X011327Y007351D01*
X011441Y007304D01*
X011528Y007217D01*
X011575Y007103D01*
X011575Y007051D01*
X011275Y007051D01*
X011275Y007032D01*
X011575Y007032D01*
X011575Y006980D01*
X011575Y007029D02*
X011626Y007029D01*
X011575Y007029D01*
X011565Y007128D02*
X011636Y007128D01*
X011565Y007128D01*
X011518Y007226D02*
X011683Y007226D01*
X011518Y007226D01*
X011390Y007325D02*
X011811Y007325D01*
X011390Y007325D01*
X011275Y007325D02*
X011257Y007325D01*
X011275Y007325D01*
X011275Y007226D02*
X011257Y007226D01*
X011275Y007226D01*
X011275Y007128D02*
X011257Y007128D01*
X011275Y007128D01*
X011275Y007029D02*
X011257Y007029D01*
X011275Y007029D01*
X011275Y006931D02*
X011257Y006931D01*
X011275Y006931D01*
X011275Y006832D02*
X011257Y006832D01*
X011275Y006832D01*
X011202Y006733D02*
X010621Y006733D01*
X011202Y006733D01*
X011038Y006832D02*
X010785Y006832D01*
X011038Y006832D01*
X010977Y006931D02*
X010846Y006931D01*
X010977Y006931D01*
X010957Y007029D02*
X010866Y007029D01*
X010957Y007029D01*
X010866Y007032D02*
X010566Y007032D01*
X010566Y006733D01*
X010548Y006733D01*
X010496Y006733D01*
X010382Y006780D01*
X010295Y006866D01*
X010248Y006980D01*
X010248Y007032D01*
X010548Y007032D01*
X010566Y007032D01*
X010566Y006733D01*
X010619Y006733D01*
X010732Y006780D01*
X010819Y006866D01*
X010866Y006980D01*
X010866Y007032D01*
X010566Y007032D01*
X010548Y007032D01*
X010548Y006733D01*
X010566Y006733D01*
X010619Y006733D01*
X010732Y006780D01*
X010819Y006866D01*
X010866Y006980D01*
X010866Y007032D01*
X010866Y007051D02*
X010866Y007103D01*
X010819Y007217D01*
X010732Y007304D01*
X010619Y007351D01*
X010566Y007351D01*
X010566Y007051D01*
X010548Y007051D01*
X010548Y007351D01*
X010496Y007351D01*
X010382Y007304D01*
X010295Y007217D01*
X010248Y007103D01*
X010248Y007051D01*
X010548Y007051D01*
X010548Y007351D01*
X010496Y007351D01*
X010382Y007304D01*
X010295Y007217D01*
X010248Y007103D01*
X010248Y007051D01*
X010548Y007051D01*
X010566Y007051D01*
X010566Y007351D01*
X010619Y007351D01*
X010732Y007304D01*
X010819Y007217D01*
X010866Y007103D01*
X010866Y007051D01*
X010566Y007051D01*
X010566Y007032D01*
X010566Y007051D01*
X010866Y007051D01*
X010856Y007128D02*
X010967Y007128D01*
X010856Y007128D01*
X010810Y007226D02*
X011013Y007226D01*
X010810Y007226D01*
X010681Y007325D02*
X011142Y007325D01*
X010681Y007325D01*
X010566Y007325D02*
X010548Y007325D01*
X010566Y007325D01*
X010566Y007226D02*
X010548Y007226D01*
X010566Y007226D01*
X010566Y007128D02*
X010548Y007128D01*
X010566Y007128D01*
X010548Y007051D02*
X010548Y007032D01*
X010548Y006733D01*
X010496Y006733D01*
X010382Y006780D01*
X010295Y006866D01*
X010248Y006980D01*
X010248Y007032D01*
X010548Y007032D01*
X010548Y007051D01*
X010548Y007029D02*
X010566Y007029D01*
X010548Y007029D01*
X010548Y006931D02*
X010566Y006931D01*
X010548Y006931D01*
X010548Y006832D02*
X010566Y006832D01*
X010548Y006832D01*
X010493Y006733D02*
X009912Y006733D01*
X010493Y006733D01*
X010330Y006832D02*
X010076Y006832D01*
X010330Y006832D01*
X010269Y006931D02*
X010137Y006931D01*
X010269Y006931D01*
X010248Y007029D02*
X010158Y007029D01*
X010248Y007029D01*
X010258Y007128D02*
X010147Y007128D01*
X010258Y007128D01*
X010305Y007226D02*
X010101Y007226D01*
X010305Y007226D01*
X010433Y007325D02*
X009972Y007325D01*
X010433Y007325D01*
X008549Y006530D02*
X007880Y006530D01*
X007408Y006530D01*
X007053Y006490D01*
X006817Y006490D01*
X006423Y006490D02*
X006069Y006530D01*
X005833Y006530D01*
X006423Y006490D02*
X006423Y006727D01*
X007880Y006727D01*
X004770Y006372D02*
X004612Y006530D01*
X004100Y006530D01*
X004100Y006333D01*
X004100Y006136D01*
X004100Y005939D01*
X004100Y011057D02*
X004100Y011254D01*
X004100Y011451D01*
X004100Y011648D01*
X004770Y011648D01*
X005072Y012207D02*
X005169Y012167D01*
X005222Y012167D01*
X005222Y012433D01*
X004956Y012433D01*
X004956Y012380D01*
X004997Y012282D01*
X005072Y012207D01*
X005027Y012252D02*
X003875Y012252D01*
X003875Y012350D02*
X004968Y012350D01*
X004956Y012433D02*
X005222Y012433D01*
X005222Y012433D01*
X005223Y012433D01*
X005223Y012433D01*
X005489Y012433D01*
X005489Y012380D01*
X005448Y012282D01*
X005373Y012207D01*
X005276Y012167D01*
X005223Y012167D01*
X005223Y012433D01*
X005489Y012433D01*
X005489Y012486D01*
X005448Y012584D01*
X005373Y012659D01*
X005276Y012700D01*
X005223Y012700D01*
X005223Y012434D01*
X005222Y012434D01*
X005222Y012700D01*
X005169Y012700D01*
X005072Y012659D01*
X004997Y012584D01*
X004956Y012486D01*
X004956Y012433D01*
X004956Y012449D02*
X003402Y012449D01*
X003402Y012548D02*
X004981Y012548D01*
X005058Y012646D02*
X003402Y012646D01*
X003402Y012745D02*
X011255Y012745D01*
X011226Y012843D02*
X010655Y012843D01*
X010736Y012942D02*
X011226Y012942D01*
X011304Y012646D02*
X005387Y012646D01*
X005464Y012548D02*
X011304Y012548D01*
X011304Y012449D02*
X005489Y012449D01*
X005477Y012350D02*
X005759Y012350D01*
X005661Y012252D02*
X005418Y012252D01*
X005562Y012153D02*
X003875Y012153D01*
X003875Y012055D02*
X005464Y012055D01*
X005223Y012252D02*
X005222Y012252D01*
X005222Y012350D02*
X005223Y012350D01*
X005222Y012449D02*
X005223Y012449D01*
X005222Y012548D02*
X005223Y012548D01*
X005222Y012646D02*
X005223Y012646D01*
X004426Y012843D02*
X004326Y012843D01*
X004326Y012942D02*
X004426Y012942D01*
X004426Y013040D02*
X004326Y013040D01*
X003834Y012942D02*
X003402Y012942D01*
X003402Y013040D02*
X003700Y013040D01*
X003696Y013139D02*
X001001Y013139D01*
X001001Y013237D02*
X003696Y013237D01*
X003696Y013336D02*
X001001Y013336D01*
X001001Y013434D02*
X003696Y013434D01*
X003696Y013533D02*
X002290Y013533D01*
X002263Y013507D02*
X002338Y013582D01*
X002379Y013679D01*
X002379Y013732D01*
X002113Y013732D01*
X002113Y013733D01*
X002379Y013733D01*
X002379Y013786D01*
X002338Y013883D01*
X002263Y013958D01*
X002165Y013999D01*
X002112Y013999D01*
X002059Y013999D01*
X001961Y013958D01*
X001886Y013883D01*
X001846Y013786D01*
X001846Y013733D01*
X002112Y013733D01*
X002112Y013999D01*
X002112Y013733D01*
X002112Y013733D01*
X002112Y013732D01*
X002112Y013732D01*
X002112Y013466D01*
X002059Y013466D01*
X001961Y013507D01*
X001886Y013582D01*
X001846Y013679D01*
X001846Y013732D01*
X002112Y013732D01*
X002112Y013466D01*
X002165Y013466D01*
X002263Y013507D01*
X002112Y013533D02*
X002112Y013533D01*
X002112Y013631D02*
X002112Y013631D01*
X002112Y013730D02*
X002112Y013730D01*
X002112Y013829D02*
X002112Y013829D01*
X002112Y013927D02*
X002112Y013927D01*
X001930Y013927D02*
X001001Y013927D01*
X001001Y013829D02*
X001864Y013829D01*
X001846Y013730D02*
X001001Y013730D01*
X001001Y013631D02*
X001866Y013631D01*
X001935Y013533D02*
X001001Y013533D01*
X001001Y014026D02*
X003696Y014026D01*
X003696Y014124D02*
X001001Y014124D01*
X001001Y014223D02*
X003696Y014223D01*
X003696Y014321D02*
X002999Y014321D01*
X002972Y014294D02*
X003047Y014369D01*
X003087Y014467D01*
X003087Y014520D01*
X003087Y014573D01*
X003047Y014671D01*
X002972Y014746D01*
X002874Y014786D01*
X002821Y014786D01*
X002821Y014520D01*
X002821Y014520D01*
X003087Y014520D01*
X002821Y014520D01*
X002821Y014520D01*
X002821Y014786D01*
X002768Y014786D01*
X002670Y014746D01*
X002595Y014671D01*
X002554Y014573D01*
X002554Y014520D01*
X002821Y014520D01*
X002821Y014520D01*
X002821Y014519D02*
X002821Y014253D01*
X002874Y014253D01*
X002972Y014294D01*
X002821Y014321D02*
X002821Y014321D01*
X002821Y014253D02*
X002768Y014253D01*
X002670Y014294D01*
X002595Y014369D01*
X002554Y014467D01*
X002554Y014520D01*
X002821Y014520D01*
X002821Y014519D02*
X002821Y014519D01*
X002821Y014253D01*
X002821Y014420D02*
X002821Y014420D01*
X002821Y014518D02*
X002821Y014518D01*
X002821Y014617D02*
X002821Y014617D01*
X002821Y014715D02*
X002821Y014715D01*
X003002Y014715D02*
X003834Y014715D01*
X003834Y014814D02*
X001974Y014814D01*
X002212Y014913D02*
X003696Y014913D01*
X003696Y015011D02*
X002324Y015011D01*
X002422Y015110D02*
X003696Y015110D01*
X003696Y015208D02*
X002520Y015208D01*
X002561Y015307D02*
X003696Y015307D01*
X003696Y015405D02*
X002602Y015405D01*
X002643Y015504D02*
X003696Y015504D01*
X003696Y015602D02*
X002674Y015602D01*
X002674Y015701D02*
X003696Y015701D01*
X003696Y015799D02*
X002674Y015799D01*
X002674Y015898D02*
X003696Y015898D01*
X003696Y015997D02*
X002669Y015997D01*
X002628Y016095D02*
X003696Y016095D01*
X003834Y016194D02*
X002587Y016194D01*
X002546Y016292D02*
X003834Y016292D01*
X003886Y016391D02*
X002485Y016391D01*
X001345Y014814D02*
X001001Y014814D01*
X001001Y014913D02*
X001107Y014913D01*
X001001Y014715D02*
X002640Y014715D01*
X002573Y014617D02*
X001001Y014617D01*
X001001Y014518D02*
X002554Y014518D01*
X002574Y014420D02*
X001001Y014420D01*
X001001Y014321D02*
X002643Y014321D01*
X002295Y013927D02*
X003696Y013927D01*
X003696Y013829D02*
X002361Y013829D01*
X002379Y013730D02*
X003696Y013730D01*
X003696Y013631D02*
X002359Y013631D01*
X002318Y013040D02*
X001001Y013040D01*
X001001Y012942D02*
X002318Y012942D01*
X002318Y012843D02*
X001001Y012843D01*
X001001Y012745D02*
X002318Y012745D01*
X002318Y012646D02*
X001001Y012646D01*
X001001Y012548D02*
X002318Y012548D01*
X002318Y012449D02*
X001001Y012449D01*
X001001Y012350D02*
X002102Y012350D01*
X002102Y012252D02*
X001001Y012252D01*
X001001Y012153D02*
X002102Y012153D01*
X002102Y012055D02*
X001001Y012055D01*
X003068Y014420D02*
X003834Y014420D01*
X003834Y014518D02*
X003087Y014518D01*
X003069Y014617D02*
X003891Y014617D01*
X004326Y014617D02*
X004426Y014617D01*
X004426Y014715D02*
X004326Y014715D01*
X004326Y014814D02*
X004426Y014814D01*
X004426Y014518D02*
X004326Y014518D01*
X004326Y014420D02*
X004426Y014420D01*
X003853Y012843D02*
X003402Y012843D01*
X006409Y012942D02*
X006603Y012942D01*
X006572Y013040D02*
X006440Y013040D01*
X006440Y013139D02*
X006572Y013139D01*
X006572Y013237D02*
X006440Y013237D01*
X006440Y013336D02*
X006572Y013336D01*
X006572Y013434D02*
X006440Y013434D01*
X006440Y013533D02*
X006572Y013533D01*
X006572Y013631D02*
X006440Y013631D01*
X006440Y013730D02*
X006572Y013730D01*
X006572Y013829D02*
X006440Y013829D01*
X006440Y013927D02*
X006572Y013927D01*
X006572Y014026D02*
X006440Y014026D01*
X006379Y014124D02*
X006633Y014124D01*
X008440Y013237D02*
X009232Y013237D01*
X009178Y013139D02*
X008440Y013139D01*
X008440Y013040D02*
X009169Y013040D01*
X009197Y012942D02*
X008409Y012942D01*
X009416Y014124D02*
X009462Y014124D01*
X009424Y014223D02*
X009387Y014223D01*
X010587Y014814D02*
X011276Y014814D01*
X011709Y014814D02*
X012280Y014814D01*
X012293Y014828D02*
X012230Y014764D01*
X012230Y014551D01*
X012467Y014551D01*
X012467Y014828D01*
X012293Y014828D01*
X012230Y014715D02*
X011759Y014715D01*
X011759Y014617D02*
X012230Y014617D01*
X012230Y014493D02*
X012230Y014280D01*
X012293Y014216D01*
X012467Y014216D01*
X012467Y014493D01*
X012230Y014493D01*
X012230Y014420D02*
X011759Y014420D01*
X011759Y014518D02*
X012467Y014518D01*
X012467Y014493D02*
X012467Y014551D01*
X012525Y014551D01*
X012525Y014828D01*
X012699Y014828D01*
X012763Y014764D01*
X012763Y014551D01*
X012525Y014551D01*
X012525Y014493D01*
X012763Y014493D01*
X012763Y014280D01*
X012699Y014216D01*
X012525Y014216D01*
X012525Y014493D01*
X012467Y014493D01*
X012525Y014518D02*
X013302Y014518D01*
X013302Y014520D02*
X013302Y014467D01*
X013343Y014369D01*
X013418Y014294D01*
X013516Y014253D01*
X013569Y014253D01*
X013622Y014253D01*
X013720Y014294D01*
X013795Y014369D01*
X013835Y014467D01*
X013835Y014520D01*
X013835Y014573D01*
X013795Y014671D01*
X013720Y014746D01*
X013622Y014786D01*
X013569Y014786D01*
X013569Y014520D01*
X013569Y014520D01*
X013835Y014520D01*
X013569Y014520D01*
X013569Y014520D01*
X013569Y014786D01*
X013516Y014786D01*
X013418Y014746D01*
X013343Y014671D01*
X013302Y014573D01*
X013302Y014520D01*
X013569Y014520D01*
X013569Y014520D01*
X013569Y014519D02*
X013569Y014253D01*
X013569Y014519D01*
X013569Y014519D01*
X013569Y014518D02*
X013569Y014518D01*
X013569Y014520D02*
X013302Y014520D01*
X013321Y014617D02*
X012763Y014617D01*
X012763Y014715D02*
X013388Y014715D01*
X013569Y014715D02*
X013569Y014715D01*
X013569Y014617D02*
X013569Y014617D01*
X013569Y014420D02*
X013569Y014420D01*
X013569Y014321D02*
X013569Y014321D01*
X013747Y014321D02*
X016098Y014321D01*
X016098Y014223D02*
X012706Y014223D01*
X012763Y014321D02*
X013391Y014321D01*
X013322Y014420D02*
X012763Y014420D01*
X012525Y014420D02*
X012467Y014420D01*
X012467Y014321D02*
X012525Y014321D01*
X012525Y014223D02*
X012467Y014223D01*
X012287Y014223D02*
X011702Y014223D01*
X011759Y014321D02*
X012230Y014321D01*
X012467Y014617D02*
X012525Y014617D01*
X012525Y014715D02*
X012467Y014715D01*
X012467Y014814D02*
X012525Y014814D01*
X012713Y014814D02*
X015124Y014814D01*
X015754Y014814D02*
X016098Y014814D01*
X016098Y014913D02*
X015992Y014913D01*
X016098Y014715D02*
X013750Y014715D01*
X013817Y014617D02*
X016098Y014617D01*
X016098Y014518D02*
X013835Y014518D01*
X013816Y014420D02*
X016098Y014420D01*
X012957Y014913D02*
X010587Y014913D01*
X010587Y015011D02*
X012889Y015011D01*
X012496Y013016D02*
X012526Y012986D01*
X012526Y012357D01*
X012565Y012317D01*
X012565Y012238D01*
X012526Y012120D01*
X012526Y012002D01*
X012289Y011766D01*
X012171Y012238D02*
X011994Y012238D01*
X011994Y012593D01*
X011994Y013016D01*
X011994Y012238D02*
X011817Y012238D01*
X012685Y012449D02*
X013094Y012449D01*
X012925Y012350D02*
X012772Y012350D01*
X012772Y012252D02*
X012826Y012252D01*
X012486Y011069D02*
X012486Y011069D01*
X012486Y010971D02*
X012486Y010971D01*
X012486Y010872D02*
X012486Y010872D01*
X012486Y010774D02*
X012486Y010774D01*
X012918Y010675D02*
X011464Y010675D01*
X011502Y010774D02*
X011502Y010774D01*
X011502Y010872D02*
X011502Y010872D01*
X011502Y010971D02*
X011502Y010971D01*
X011502Y011069D02*
X011502Y011069D01*
X011109Y011069D02*
X011108Y011069D01*
X011108Y010971D02*
X011109Y010971D01*
X011108Y010872D02*
X011109Y010872D01*
X011108Y010774D02*
X011109Y010774D01*
X011146Y010675D02*
X010874Y010675D01*
X010908Y010577D02*
X010920Y010577D01*
X010911Y010774D02*
X010912Y010774D01*
X010911Y010872D02*
X010912Y010872D01*
X010911Y010971D02*
X010912Y010971D01*
X010911Y011069D02*
X010912Y011069D01*
X010715Y011136D02*
X010518Y011136D01*
X010556Y010675D02*
X010321Y010675D01*
X010321Y010577D02*
X010556Y010577D01*
X010557Y010478D02*
X010321Y010478D01*
X010321Y010380D02*
X010656Y010380D01*
X010754Y010281D02*
X010321Y010281D01*
X010321Y010182D02*
X010937Y010182D01*
X013943Y007120D02*
X013943Y006923D01*
X013519Y005945D02*
X012857Y005945D01*
X012842Y005524D02*
X012842Y005497D01*
X012974Y005497D01*
X012978Y005493D01*
X012982Y005497D01*
X013077Y005497D01*
X013077Y005073D01*
X013077Y005157D02*
X013077Y005157D01*
X013077Y005255D02*
X013077Y005255D01*
X013077Y005354D02*
X013077Y005354D01*
X013077Y005452D02*
X013077Y005452D01*
X012486Y005073D02*
X012289Y005073D01*
X011699Y004171D02*
X011699Y004171D01*
X011767Y003482D02*
X011867Y003482D01*
X011867Y003383D02*
X011767Y003383D01*
X011767Y003284D02*
X011867Y003284D01*
X011867Y001905D02*
X011767Y001905D01*
X011767Y001806D02*
X011867Y001806D01*
X013273Y004368D02*
X013274Y004368D01*
X013273Y004467D02*
X013274Y004467D01*
X015183Y009591D02*
X015183Y009591D01*
X015183Y009690D02*
X015183Y009690D01*
X015183Y009757D02*
X015183Y010023D01*
X015183Y009757D01*
X015183Y009757D01*
X015183Y009788D02*
X015183Y009788D01*
X015183Y009887D02*
X015183Y009887D01*
X015183Y009985D02*
X015183Y009985D01*
X015326Y009985D02*
X016098Y009985D01*
X016098Y009887D02*
X015417Y009887D01*
X015450Y009788D02*
X016098Y009788D01*
X016098Y009690D02*
X015444Y009690D01*
X015395Y009591D02*
X016098Y009591D01*
X014486Y010281D02*
X014367Y010281D01*
X014367Y010380D02*
X014444Y010380D01*
X014444Y010478D02*
X014367Y010478D01*
X014351Y010577D02*
X014444Y010577D01*
X004426Y016194D02*
X004326Y016194D01*
X004326Y016292D02*
X004426Y016292D01*
X004426Y016391D02*
X004326Y016391D01*
D24*
X006699Y005309D02*
X006896Y004797D01*
X007250Y004797D01*
X010528Y002484D02*
X010528Y002110D01*
X010528Y002484D02*
X010675Y002632D01*
X011217Y002632D01*
D25*
X006069Y002435D02*
X005833Y002396D01*
X005518Y002002D01*
X005518Y002514D01*
X005528Y002701D02*
X005833Y002396D01*
X005713Y003193D02*
X005321Y003193D01*
X005713Y003193D02*
X006069Y003223D01*
X006057Y003880D01*
X006006Y013518D02*
X005392Y013518D01*
X004976Y013695D01*
X004976Y015506D02*
X005293Y015516D01*
X005451Y015518D01*
X006006Y015518D01*
X008006Y015518D02*
X008742Y014522D01*
X009179Y014522D01*
X009573Y014522D01*
X009691Y014404D02*
X009691Y014876D01*
X010321Y014876D02*
X010321Y014404D01*
X010833Y014522D02*
X011494Y014522D01*
D26*
X005528Y002701D02*
X005321Y002701D01*
D27*
X001778Y003853D03*
X001502Y006884D03*
X004849Y005467D03*
X006069Y003931D03*
X006699Y005309D03*
X005518Y002002D03*
X008234Y001805D03*
D28*
X006057Y003880D02*
X006069Y003931D01*
X005715Y002514D02*
X005518Y002514D01*
D29*
X007250Y004797D03*
X007447Y005309D03*
X008549Y006530D03*
X010321Y005742D03*
X011305Y005742D03*
X011345Y004522D03*
X012683Y005742D03*
X014494Y005152D03*
X014474Y003654D03*
X013411Y003103D03*
X013333Y002276D03*
X009868Y002866D03*
X005833Y006530D03*
X004770Y006372D03*
X006463Y009207D03*
X005282Y010231D03*
X004770Y011648D03*
X005223Y012433D03*
X005892Y014520D03*
X007742Y014520D03*
X009435Y013063D03*
X010498Y013063D03*
X011994Y012593D03*
X013805Y013772D03*
X013569Y014520D03*
X013136Y015110D03*
X014908Y012315D03*
X014140Y011884D03*
X013116Y010309D03*
X013313Y008892D03*
X013313Y007908D03*
X015026Y007394D03*
X015183Y009756D03*
X011108Y010388D03*
X009730Y010585D03*
X009022Y010427D03*
X008471Y009561D03*
X002821Y014520D03*
X002112Y013733D03*
D30*
X009849Y009168D03*
X010557Y009168D03*
X011266Y009168D03*
X011935Y009168D03*
X011935Y008459D03*
X011266Y008459D03*
X011266Y007750D03*
X011935Y007750D03*
X011935Y007042D03*
X011266Y007042D03*
X010557Y007042D03*
X010557Y007750D03*
X009849Y007750D03*
X009849Y007042D03*
X009849Y008459D03*
X010557Y008459D03*
M02*
