%
M48
M72
T01C0.0157
T02C0.0236
T03C0.0354
T04C0.0394
T05C0.1378
%
T01
X4770Y6372
X5833Y6530
X7447Y5309
X7250Y4797
X8549Y6530
X10321Y5742
X11305Y5742
X11345Y4522
X12683Y5742
X14494Y5152
X14474Y3654
X13411Y3103
X13333Y2276
X9868Y2866
X13313Y7908
X13313Y8892
X13116Y10309
X14140Y11884
X14908Y12315
X13805Y13772
X13569Y14520
X13136Y15110
X11994Y12593
X10498Y13063
X9435Y13063
X7742Y14520
X5892Y14520
X5223Y12433
X4770Y11648
X5282Y10231
X6463Y9207
X8471Y9561
X9022Y10427
X9730Y10585
X11108Y10388
X15026Y7394
X15183Y9756
X2821Y14520
X2112Y13733
T02
X9849Y9168
X10557Y9168
X11266Y9168
X11935Y9168
X11935Y8459
X11266Y8459
X11266Y7750
X11935Y7750
X11935Y7042
X11266Y7042
X10557Y7042
X10557Y7750
X9849Y7750
X9849Y7042
X9849Y8459
X10557Y8459
T03
X3746Y3607
X3746Y2288
T04
X5518Y2002
X6069Y3931
X6699Y5309
X4849Y5467
X1778Y3853
X1502Y6884
X8234Y1805
T05
X1660Y2002
X1660Y15782
X15439Y15782
X15439Y2002
M30
