G75*
G70*
%OFA0B0*%
%FSLAX24Y24*%
%IPPOS*%
%LPD*%
%AMOC8*
5,1,8,0,0,1.08239X$1,22.5*
%
%ADD10C,0.0050*%
%ADD11C,0.0240*%
%ADD12C,0.0040*%
D10*
X002826Y001868D02*
X002826Y001958D01*
X002871Y002003D01*
X002916Y002003D01*
X002961Y001958D01*
X003006Y002003D01*
X003051Y002003D01*
X003096Y001958D01*
X003096Y001868D01*
X003051Y001823D01*
X002961Y001913D02*
X002961Y001958D01*
X002871Y001823D02*
X002826Y001868D01*
X003051Y002117D02*
X003051Y002162D01*
X003096Y002162D01*
X003096Y002117D01*
X003051Y002117D01*
X003051Y002265D02*
X003096Y002310D01*
X003096Y002400D01*
X003051Y002445D01*
X003006Y002445D01*
X002961Y002400D01*
X002961Y002355D01*
X002961Y002400D02*
X002916Y002445D01*
X002871Y002445D01*
X002826Y002400D01*
X002826Y002310D01*
X002871Y002265D01*
X002826Y002559D02*
X003006Y002559D01*
X003096Y002649D01*
X003006Y002739D01*
X002826Y002739D01*
X002827Y003641D02*
X002782Y003686D01*
X002782Y003776D01*
X002827Y003821D01*
X002917Y003821D02*
X002917Y003731D01*
X002917Y003821D02*
X003007Y003821D01*
X003052Y003776D01*
X003052Y003686D01*
X003007Y003641D01*
X002827Y003641D01*
X003510Y004325D02*
X003510Y001569D01*
X003746Y001569D01*
X004652Y001569D02*
X005321Y001569D01*
X005321Y002514D01*
X005321Y002868D02*
X005321Y003026D01*
X005321Y003380D02*
X005321Y004325D01*
X004652Y004325D01*
X003825Y004857D02*
X003333Y004857D01*
X003825Y004857D02*
X003825Y012731D01*
X003333Y012731D01*
X003746Y013065D02*
X003943Y013065D01*
X003746Y013065D02*
X003746Y014325D01*
X003943Y014325D01*
X003490Y014072D02*
X003220Y014072D01*
X003355Y013937D01*
X003355Y014117D01*
X003490Y013823D02*
X003220Y013823D01*
X003220Y013643D02*
X003490Y013823D01*
X003490Y013643D02*
X003220Y013643D01*
X003265Y013528D02*
X003220Y013483D01*
X003220Y013393D01*
X003265Y013348D01*
X003445Y013348D01*
X003490Y013393D01*
X003490Y013483D01*
X003445Y013528D01*
X003982Y013695D02*
X003984Y013735D01*
X003990Y013774D01*
X004000Y013813D01*
X004014Y013850D01*
X004032Y013886D01*
X004053Y013920D01*
X004077Y013952D01*
X004105Y013981D01*
X004135Y014007D01*
X004168Y014029D01*
X004202Y014049D01*
X004239Y014064D01*
X004277Y014076D01*
X004316Y014084D01*
X004356Y014088D01*
X004396Y014088D01*
X004436Y014084D01*
X004475Y014076D01*
X004513Y014064D01*
X004550Y014049D01*
X004584Y014029D01*
X004617Y014007D01*
X004647Y013981D01*
X004675Y013952D01*
X004699Y013920D01*
X004720Y013886D01*
X004738Y013850D01*
X004752Y013813D01*
X004762Y013774D01*
X004768Y013735D01*
X004770Y013695D01*
X004768Y013655D01*
X004762Y013616D01*
X004752Y013577D01*
X004738Y013540D01*
X004720Y013504D01*
X004699Y013470D01*
X004675Y013438D01*
X004647Y013409D01*
X004617Y013383D01*
X004584Y013361D01*
X004550Y013341D01*
X004513Y013326D01*
X004475Y013314D01*
X004436Y013306D01*
X004396Y013302D01*
X004356Y013302D01*
X004316Y013306D01*
X004277Y013314D01*
X004239Y013326D01*
X004202Y013341D01*
X004168Y013361D01*
X004135Y013383D01*
X004105Y013409D01*
X004077Y013438D01*
X004053Y013470D01*
X004032Y013504D01*
X004014Y013540D01*
X004000Y013577D01*
X003990Y013616D01*
X003984Y013655D01*
X003982Y013695D01*
X004809Y013065D02*
X005006Y013065D01*
X005006Y013459D01*
X005439Y013341D02*
X005636Y013341D01*
X005439Y013341D02*
X005439Y015703D01*
X005636Y015703D01*
X005006Y015742D02*
X005006Y016136D01*
X004809Y016136D01*
X003982Y015506D02*
X003984Y015546D01*
X003990Y015585D01*
X004000Y015624D01*
X004014Y015661D01*
X004032Y015697D01*
X004053Y015731D01*
X004077Y015763D01*
X004105Y015792D01*
X004135Y015818D01*
X004168Y015840D01*
X004202Y015860D01*
X004239Y015875D01*
X004277Y015887D01*
X004316Y015895D01*
X004356Y015899D01*
X004396Y015899D01*
X004436Y015895D01*
X004475Y015887D01*
X004513Y015875D01*
X004550Y015860D01*
X004584Y015840D01*
X004617Y015818D01*
X004647Y015792D01*
X004675Y015763D01*
X004699Y015731D01*
X004720Y015697D01*
X004738Y015661D01*
X004752Y015624D01*
X004762Y015585D01*
X004768Y015546D01*
X004770Y015506D01*
X004768Y015466D01*
X004762Y015427D01*
X004752Y015388D01*
X004738Y015351D01*
X004720Y015315D01*
X004699Y015281D01*
X004675Y015249D01*
X004647Y015220D01*
X004617Y015194D01*
X004584Y015172D01*
X004550Y015152D01*
X004513Y015137D01*
X004475Y015125D01*
X004436Y015117D01*
X004396Y015113D01*
X004356Y015113D01*
X004316Y015117D01*
X004277Y015125D01*
X004239Y015137D01*
X004202Y015152D01*
X004168Y015172D01*
X004135Y015194D01*
X004105Y015220D01*
X004077Y015249D01*
X004053Y015281D01*
X004032Y015315D01*
X004014Y015351D01*
X004000Y015388D01*
X003990Y015427D01*
X003984Y015466D01*
X003982Y015506D01*
X003490Y015454D02*
X003220Y015454D01*
X003490Y015634D01*
X003220Y015634D01*
X003265Y015748D02*
X003220Y015793D01*
X003220Y015883D01*
X003265Y015928D01*
X003310Y015928D01*
X003355Y015883D01*
X003400Y015928D01*
X003445Y015928D01*
X003490Y015883D01*
X003490Y015793D01*
X003445Y015748D01*
X003355Y015838D02*
X003355Y015883D01*
X003746Y016136D02*
X003746Y014876D01*
X003943Y014876D01*
X003490Y015204D02*
X003490Y015294D01*
X003445Y015339D01*
X003490Y015204D02*
X003445Y015159D01*
X003265Y015159D01*
X003220Y015204D01*
X003220Y015294D01*
X003265Y015339D01*
X003746Y016136D02*
X003943Y016136D01*
X005006Y015270D02*
X005006Y014876D01*
X004809Y014876D01*
X004809Y014325D02*
X005006Y014325D01*
X005006Y013931D01*
X006423Y013341D02*
X006620Y013341D01*
X007408Y013341D02*
X007604Y013341D01*
X008392Y013341D02*
X008589Y013341D01*
X008589Y015703D01*
X008392Y015703D01*
X008224Y016195D02*
X008043Y016195D01*
X008224Y016376D01*
X008224Y016421D01*
X008179Y016466D01*
X008088Y016466D01*
X008043Y016421D01*
X007929Y016466D02*
X007929Y016240D01*
X007884Y016195D01*
X007794Y016195D01*
X007749Y016240D01*
X007749Y016466D01*
X007604Y015703D02*
X007408Y015703D01*
X006620Y015703D02*
X006423Y015703D01*
X008850Y015126D02*
X008850Y014946D01*
X008895Y014901D01*
X008985Y014901D01*
X009030Y014946D01*
X009145Y014946D02*
X009145Y015036D01*
X009280Y015036D01*
X009325Y014991D01*
X009325Y014946D01*
X009280Y014901D01*
X009190Y014901D01*
X009145Y014946D01*
X009145Y015036D02*
X009235Y015126D01*
X009325Y015171D01*
X009494Y015073D02*
X009494Y014679D01*
X010518Y014679D01*
X010518Y015073D01*
X009494Y015073D01*
X009717Y015296D02*
X009762Y015251D01*
X009852Y015251D01*
X009897Y015296D01*
X010012Y015386D02*
X010192Y015386D01*
X010147Y015251D02*
X010147Y015521D01*
X010012Y015386D01*
X009897Y015476D02*
X009852Y015521D01*
X009762Y015521D01*
X009717Y015476D01*
X009717Y015296D01*
X009691Y014640D02*
X009494Y014640D01*
X009494Y014168D01*
X009691Y014168D01*
X009749Y014036D02*
X009749Y013766D01*
X009929Y013766D01*
X010043Y013766D02*
X010224Y013766D01*
X010133Y013766D02*
X010133Y014036D01*
X010043Y013946D01*
X010321Y014168D02*
X010518Y014168D01*
X010518Y014640D01*
X010321Y014640D01*
X010636Y014719D02*
X011030Y014719D01*
X011030Y013695D01*
X010636Y013695D01*
X010636Y014719D01*
X010707Y014896D02*
X010797Y014896D01*
X010842Y014941D01*
X010957Y014941D02*
X011002Y014896D01*
X011092Y014896D01*
X011137Y014941D01*
X011137Y015031D01*
X011092Y015076D01*
X011047Y015076D01*
X010957Y015031D01*
X010957Y015166D01*
X011137Y015166D01*
X010842Y015121D02*
X010797Y015166D01*
X010707Y015166D01*
X010662Y015121D01*
X010662Y014941D01*
X010707Y014896D01*
X011286Y014758D02*
X011286Y014364D01*
X011286Y014758D02*
X012703Y014758D01*
X012703Y014364D01*
X012200Y014916D02*
X012020Y014916D01*
X012200Y015096D01*
X012200Y015141D01*
X012155Y015186D01*
X012065Y015186D01*
X012020Y015141D01*
X011905Y015186D02*
X011725Y015186D01*
X011815Y015186D02*
X011815Y014916D01*
X011782Y016004D02*
X011632Y016004D01*
X011707Y016004D02*
X011707Y016454D01*
X011632Y016454D02*
X011782Y016454D01*
X011939Y016454D02*
X012089Y016304D01*
X012089Y016154D01*
X011939Y016004D01*
X012246Y016229D02*
X012546Y016229D01*
X012706Y016079D02*
X012706Y016379D01*
X012781Y016454D01*
X012931Y016454D01*
X013006Y016379D01*
X012706Y016079D01*
X012781Y016004D01*
X012931Y016004D01*
X013006Y016079D01*
X013006Y016379D01*
X013167Y016379D02*
X013167Y016079D01*
X013467Y016379D01*
X013467Y016079D01*
X013392Y016004D01*
X013242Y016004D01*
X013167Y016079D01*
X013167Y016379D02*
X013242Y016454D01*
X013392Y016454D01*
X013467Y016379D01*
X013627Y016379D02*
X013702Y016454D01*
X013852Y016454D01*
X013927Y016379D01*
X013927Y016304D01*
X013852Y016229D01*
X013927Y016154D01*
X013927Y016079D01*
X013852Y016004D01*
X013702Y016004D01*
X013627Y016079D01*
X013777Y016229D02*
X013852Y016229D01*
X011475Y016454D02*
X011325Y016454D01*
X011400Y016454D02*
X011400Y016004D01*
X011325Y016004D02*
X011475Y016004D01*
X011168Y016004D02*
X011018Y016154D01*
X011018Y016304D01*
X011168Y016454D01*
X010858Y016379D02*
X010783Y016454D01*
X010633Y016454D01*
X010558Y016379D01*
X010558Y016304D01*
X010633Y016229D01*
X010783Y016229D01*
X010858Y016154D01*
X010858Y016079D01*
X010783Y016004D01*
X010633Y016004D01*
X010558Y016079D01*
X010398Y016079D02*
X010323Y016004D01*
X010098Y016004D01*
X010098Y016454D01*
X010323Y016454D01*
X010398Y016379D01*
X010398Y016079D01*
X009938Y016079D02*
X009862Y016004D01*
X009637Y016004D01*
X009637Y016454D01*
X009862Y016454D01*
X009938Y016379D01*
X009938Y016079D01*
X008985Y015171D02*
X008895Y015171D01*
X008850Y015126D01*
X008985Y015171D02*
X009030Y015126D01*
X008982Y014719D02*
X009376Y014719D01*
X009376Y013695D01*
X008982Y013695D01*
X008982Y014719D01*
X009074Y012292D02*
X009029Y012247D01*
X009029Y012067D01*
X009074Y012022D01*
X009164Y012022D01*
X009209Y012067D01*
X009324Y012022D02*
X009504Y012022D01*
X009414Y012022D02*
X009414Y012292D01*
X009324Y012202D01*
X009209Y012247D02*
X009164Y012292D01*
X009074Y012292D01*
X009278Y011904D02*
X009278Y011628D01*
X009947Y011628D01*
X009947Y011904D01*
X009278Y011904D01*
X009618Y012022D02*
X009798Y012022D01*
X009708Y012022D02*
X009708Y012292D01*
X009618Y012202D01*
X010307Y012252D02*
X010307Y012072D01*
X010352Y012027D01*
X010442Y012027D01*
X010487Y012072D01*
X010601Y012027D02*
X010781Y012207D01*
X010781Y012252D01*
X010736Y012297D01*
X010646Y012297D01*
X010601Y012252D01*
X010487Y012252D02*
X010442Y012297D01*
X010352Y012297D01*
X010307Y012252D01*
X010601Y012027D02*
X010781Y012027D01*
X010896Y012027D02*
X011076Y012207D01*
X011076Y012252D01*
X011031Y012297D01*
X010941Y012297D01*
X010896Y012252D01*
X010896Y012027D02*
X011076Y012027D01*
X011246Y011904D02*
X010577Y011904D01*
X010577Y011628D01*
X011246Y011628D01*
X011246Y011904D01*
X011286Y012101D02*
X011286Y012376D01*
X011423Y012376D01*
X011423Y012101D02*
X011286Y012101D01*
X011489Y011977D02*
X011624Y011977D01*
X011669Y011932D01*
X011669Y011842D01*
X011624Y011797D01*
X011489Y011797D01*
X011489Y011707D02*
X011489Y011977D01*
X011579Y011797D02*
X011669Y011707D01*
X011784Y011707D02*
X011964Y011887D01*
X011964Y011932D01*
X011919Y011977D01*
X011829Y011977D01*
X011784Y011932D01*
X011817Y012101D02*
X011955Y012101D01*
X011955Y012376D01*
X011817Y012376D01*
X012034Y012376D02*
X012171Y012376D01*
X012034Y012376D02*
X012034Y012101D01*
X012171Y012101D01*
X012276Y011977D02*
X012411Y011977D01*
X012456Y011932D01*
X012456Y011842D01*
X012411Y011797D01*
X012276Y011797D01*
X012276Y011707D02*
X012276Y011977D01*
X012366Y011797D02*
X012456Y011707D01*
X012571Y011752D02*
X012616Y011707D01*
X012706Y011707D01*
X012751Y011752D01*
X012751Y011797D01*
X012706Y011842D01*
X012661Y011842D01*
X012706Y011842D02*
X012751Y011887D01*
X012751Y011932D01*
X012706Y011977D01*
X012616Y011977D01*
X012571Y011932D01*
X012565Y012101D02*
X012703Y012101D01*
X012703Y012376D01*
X012565Y012376D01*
X012703Y012770D02*
X011286Y012770D01*
X011286Y013164D01*
X012703Y013164D02*
X012703Y012770D01*
X013136Y012416D02*
X013136Y012140D01*
X013274Y012140D01*
X013136Y012022D02*
X013136Y011746D01*
X013805Y011746D01*
X013805Y012022D01*
X013136Y012022D01*
X013136Y012416D02*
X013274Y012416D01*
X013287Y012584D02*
X013287Y012854D01*
X013422Y012854D01*
X013467Y012809D01*
X013467Y012719D01*
X013422Y012674D01*
X013287Y012674D01*
X013377Y012674D02*
X013467Y012584D01*
X013581Y012584D02*
X013762Y012584D01*
X013671Y012584D02*
X013671Y012854D01*
X013581Y012764D01*
X013667Y012416D02*
X013805Y012416D01*
X013805Y012140D01*
X013667Y012140D01*
X013707Y011625D02*
X013797Y011625D01*
X013842Y011580D01*
X013842Y011535D01*
X013797Y011490D01*
X013842Y011445D01*
X013842Y011400D01*
X013797Y011355D01*
X013707Y011355D01*
X013662Y011400D01*
X013547Y011355D02*
X013367Y011355D01*
X013547Y011535D01*
X013547Y011580D01*
X013502Y011625D01*
X013412Y011625D01*
X013367Y011580D01*
X013253Y011580D02*
X013208Y011625D01*
X013117Y011625D01*
X013072Y011580D01*
X013072Y011400D01*
X013117Y011355D01*
X013208Y011355D01*
X013253Y011400D01*
X013662Y011580D02*
X013707Y011625D01*
X013752Y011490D02*
X013797Y011490D01*
X014514Y011492D02*
X014514Y011402D01*
X014559Y011357D01*
X014604Y011357D01*
X014649Y011402D01*
X014649Y011537D01*
X014739Y011537D02*
X014559Y011537D01*
X014514Y011492D01*
X014739Y011537D02*
X014784Y011492D01*
X014784Y011402D01*
X014739Y011357D01*
X014784Y011242D02*
X014784Y011062D01*
X014784Y011152D02*
X014514Y011152D01*
X014604Y011062D01*
X014559Y010947D02*
X014514Y010902D01*
X014514Y010812D01*
X014559Y010767D01*
X014739Y010767D01*
X014784Y010812D01*
X014784Y010902D01*
X014739Y010947D01*
X014789Y010605D02*
X014514Y010605D01*
X014514Y009935D01*
X014789Y009935D01*
X014789Y010605D01*
X015397Y010517D02*
X015697Y010217D01*
X015622Y010292D02*
X015847Y010517D01*
X015847Y010677D02*
X015847Y010752D01*
X015772Y010752D01*
X015772Y010677D01*
X015847Y010677D01*
X015847Y010217D02*
X015397Y010217D01*
X015547Y009596D02*
X015922Y009596D01*
X015997Y009521D01*
X015997Y009446D01*
X015847Y009371D02*
X015772Y009296D01*
X015547Y009296D01*
X015622Y009136D02*
X015547Y009061D01*
X015547Y008835D01*
X015397Y008835D02*
X015847Y008835D01*
X015847Y009061D01*
X015772Y009136D01*
X015622Y009136D01*
X015847Y009371D02*
X015847Y009596D01*
X014789Y009699D02*
X014789Y009030D01*
X014514Y009030D01*
X014514Y009699D01*
X014789Y009699D01*
X014744Y008802D02*
X014789Y008757D01*
X014789Y008667D01*
X014744Y008622D01*
X014699Y008622D01*
X014654Y008667D01*
X014654Y008757D01*
X014699Y008802D01*
X014744Y008802D01*
X014654Y008757D02*
X014609Y008802D01*
X014564Y008802D01*
X014519Y008757D01*
X014519Y008667D01*
X014564Y008622D01*
X014609Y008622D01*
X014654Y008667D01*
X014789Y008508D02*
X014789Y008328D01*
X014789Y008418D02*
X014519Y008418D01*
X014609Y008328D01*
X014564Y008213D02*
X014519Y008168D01*
X014519Y008078D01*
X014564Y008033D01*
X014744Y008033D01*
X014789Y008078D01*
X014789Y008168D01*
X014744Y008213D01*
X015547Y008140D02*
X015547Y007990D01*
X015622Y007915D01*
X015772Y007915D01*
X015847Y007990D01*
X015847Y008140D01*
X015697Y008215D02*
X015697Y007915D01*
X015622Y007755D02*
X015547Y007680D01*
X015547Y007454D01*
X015847Y007454D01*
X015847Y007294D02*
X015547Y007294D01*
X015547Y006994D02*
X015772Y006994D01*
X015847Y007069D01*
X015847Y007294D01*
X015847Y007755D02*
X015622Y007755D01*
X015547Y008140D02*
X015622Y008215D01*
X015697Y008215D01*
X014441Y007049D02*
X014621Y006868D01*
X014666Y006868D01*
X014666Y006754D02*
X014666Y006574D01*
X014666Y006664D02*
X014396Y006664D01*
X014486Y006574D01*
X014441Y006459D02*
X014396Y006414D01*
X014396Y006324D01*
X014441Y006279D01*
X014621Y006279D01*
X014666Y006324D01*
X014666Y006414D01*
X014621Y006459D01*
X014632Y006077D02*
X014356Y006077D01*
X014356Y005408D01*
X014632Y005408D01*
X014632Y006077D01*
X015397Y005838D02*
X015397Y005688D01*
X015472Y005613D01*
X015547Y005613D01*
X015622Y005688D01*
X015622Y005913D01*
X015772Y005913D02*
X015472Y005913D01*
X015397Y005838D01*
X015772Y005913D02*
X015847Y005838D01*
X015847Y005688D01*
X015772Y005613D01*
X015772Y005453D02*
X015847Y005378D01*
X015847Y005228D01*
X015772Y005153D01*
X015472Y005453D01*
X015772Y005453D01*
X015772Y005153D02*
X015472Y005153D01*
X015397Y005228D01*
X015397Y005378D01*
X015472Y005453D01*
X015472Y004993D02*
X015772Y004692D01*
X015847Y004767D01*
X015847Y004917D01*
X015772Y004993D01*
X015472Y004993D01*
X015397Y004917D01*
X015397Y004767D01*
X015472Y004692D01*
X015772Y004692D01*
X015847Y004532D02*
X015847Y004232D01*
X015547Y004532D01*
X015472Y004532D01*
X015397Y004457D01*
X015397Y004307D01*
X015472Y004232D01*
X014383Y004434D02*
X014338Y004389D01*
X014248Y004389D01*
X014203Y004434D01*
X014203Y004524D01*
X014338Y004524D01*
X014383Y004479D01*
X014383Y004434D01*
X014203Y004524D02*
X014293Y004615D01*
X014383Y004660D01*
X013998Y004660D02*
X013998Y004389D01*
X013908Y004389D02*
X014088Y004389D01*
X013908Y004570D02*
X013998Y004660D01*
X013794Y004615D02*
X013749Y004660D01*
X013659Y004660D01*
X013614Y004615D01*
X013614Y004434D01*
X013659Y004389D01*
X013749Y004389D01*
X013794Y004434D01*
X013411Y004384D02*
X013411Y004660D01*
X012742Y004660D01*
X012742Y004384D01*
X013411Y004384D01*
X012830Y004025D02*
X012650Y004025D01*
X012650Y003890D01*
X012740Y003935D01*
X012785Y003935D01*
X012830Y003890D01*
X012830Y003799D01*
X012785Y003754D01*
X012695Y003754D01*
X012650Y003799D01*
X012535Y003754D02*
X012355Y003754D01*
X012445Y003754D02*
X012445Y004025D01*
X012355Y003935D01*
X012241Y003980D02*
X012196Y004025D01*
X012105Y004025D01*
X012060Y003980D01*
X012060Y003799D01*
X012105Y003754D01*
X012196Y003754D01*
X012241Y003799D01*
X012230Y004148D02*
X012230Y004423D01*
X011561Y004423D01*
X011561Y004148D01*
X012230Y004148D01*
X011726Y003945D02*
X011726Y003900D01*
X011681Y003855D01*
X011726Y003810D01*
X011726Y003765D01*
X011681Y003720D01*
X011590Y003720D01*
X011545Y003765D01*
X011431Y003720D02*
X011251Y003720D01*
X011341Y003720D02*
X011341Y003990D01*
X011251Y003900D01*
X011136Y003945D02*
X011091Y003990D01*
X011001Y003990D01*
X010956Y003945D01*
X010956Y003765D01*
X011001Y003720D01*
X011091Y003720D01*
X011136Y003765D01*
X011148Y004109D02*
X011148Y004384D01*
X010478Y004384D01*
X010478Y004109D01*
X011148Y004109D01*
X011545Y003945D02*
X011590Y003990D01*
X011681Y003990D01*
X011726Y003945D01*
X011681Y003855D02*
X011636Y003855D01*
X011384Y003262D02*
X011187Y003262D01*
X011187Y002868D01*
X011187Y002396D02*
X011187Y002002D01*
X011384Y002002D01*
X011436Y001584D02*
X011391Y001539D01*
X011391Y001359D01*
X011436Y001314D01*
X011526Y001314D01*
X011571Y001359D01*
X011686Y001314D02*
X011686Y001584D01*
X011866Y001314D01*
X011866Y001584D01*
X011980Y001494D02*
X012070Y001584D01*
X012070Y001314D01*
X011980Y001314D02*
X012161Y001314D01*
X011571Y001539D02*
X011526Y001584D01*
X011436Y001584D01*
X010734Y001864D02*
X010734Y002258D01*
X010734Y001864D02*
X009317Y001864D01*
X009317Y002258D01*
X009834Y001648D02*
X010014Y001648D01*
X009924Y001648D02*
X009924Y001378D01*
X010129Y001378D02*
X010309Y001378D01*
X010219Y001378D02*
X010219Y001648D01*
X010129Y001558D01*
X008647Y002546D02*
X008647Y002636D01*
X008602Y002681D01*
X008602Y002796D02*
X008557Y002796D01*
X008512Y002841D01*
X008512Y002931D01*
X008557Y002976D01*
X008602Y002976D01*
X008647Y002931D01*
X008647Y002841D01*
X008602Y002796D01*
X008512Y002841D02*
X008467Y002796D01*
X008422Y002796D01*
X008377Y002841D01*
X008377Y002931D01*
X008422Y002976D01*
X008467Y002976D01*
X008512Y002931D01*
X008422Y002681D02*
X008377Y002636D01*
X008377Y002546D01*
X008422Y002501D01*
X008602Y002501D01*
X008647Y002546D01*
X008234Y002317D02*
X007841Y002317D01*
X007841Y003341D01*
X008234Y003341D01*
X008234Y002317D01*
X007762Y002069D02*
X007762Y001833D01*
X007053Y001833D01*
X007053Y002069D01*
X006896Y002238D02*
X006896Y002632D01*
X005872Y002632D01*
X005872Y002238D01*
X006896Y002238D01*
X006371Y002000D02*
X006371Y001910D01*
X006326Y001865D01*
X006326Y001750D02*
X006281Y001750D01*
X006236Y001705D01*
X006236Y001570D01*
X006371Y001570D02*
X006371Y001705D01*
X006326Y001750D01*
X006236Y001705D02*
X006191Y001750D01*
X006146Y001750D01*
X006101Y001705D01*
X006101Y001570D01*
X006371Y001570D01*
X006236Y001365D02*
X006236Y001275D01*
X006371Y001275D02*
X006101Y001275D01*
X006101Y001455D01*
X006146Y001865D02*
X006101Y001910D01*
X006101Y002000D01*
X006146Y002045D01*
X006191Y002045D01*
X006236Y002000D01*
X006281Y002045D01*
X006326Y002045D01*
X006371Y002000D01*
X006236Y002000D02*
X006236Y001955D01*
X005574Y001376D02*
X005394Y001376D01*
X005394Y001241D01*
X005484Y001286D01*
X005529Y001286D01*
X005574Y001241D01*
X005574Y001151D01*
X005529Y001106D01*
X005439Y001106D01*
X005394Y001151D01*
X005279Y001106D02*
X005279Y001376D01*
X005099Y001376D02*
X005099Y001106D01*
X004985Y001151D02*
X004940Y001106D01*
X004850Y001106D01*
X004805Y001151D01*
X004805Y001331D01*
X004850Y001376D01*
X004940Y001376D01*
X004985Y001331D01*
X005099Y001376D02*
X005279Y001106D01*
X005872Y003026D02*
X005872Y003420D01*
X006896Y003420D01*
X006896Y003026D01*
X005872Y003026D01*
X006494Y003559D02*
X006494Y003739D01*
X006494Y003853D02*
X006494Y003988D01*
X006539Y004033D01*
X006584Y004033D01*
X006629Y003988D01*
X006629Y003853D01*
X006764Y003853D02*
X006494Y003853D01*
X006629Y003988D02*
X006674Y004033D01*
X006719Y004033D01*
X006764Y003988D01*
X006764Y003853D01*
X006629Y003649D02*
X006629Y003559D01*
X006764Y003559D02*
X006494Y003559D01*
X007053Y003565D02*
X007053Y003801D01*
X007762Y003801D01*
X007762Y003565D01*
X008261Y003799D02*
X008306Y003754D01*
X008396Y003754D01*
X008441Y003799D01*
X008556Y003754D02*
X008736Y003754D01*
X008646Y003754D02*
X008646Y004025D01*
X008556Y003935D01*
X008441Y003980D02*
X008396Y004025D01*
X008306Y004025D01*
X008261Y003980D01*
X008261Y003799D01*
X008851Y003754D02*
X009031Y003935D01*
X009031Y003980D01*
X008986Y004025D01*
X008896Y004025D01*
X008851Y003980D01*
X008864Y004109D02*
X009534Y004109D01*
X009534Y004384D01*
X008864Y004384D01*
X008864Y004109D01*
X008851Y003754D02*
X009031Y003754D01*
X009317Y003853D02*
X009317Y003459D01*
X009317Y003853D02*
X010734Y003853D01*
X010734Y003459D01*
X010341Y003951D02*
X010065Y003951D01*
X010065Y004620D01*
X010341Y004620D01*
X010341Y003951D01*
X009986Y003951D02*
X009711Y003951D01*
X009711Y004620D01*
X009986Y004620D01*
X009986Y003951D01*
X009601Y004463D02*
X009421Y004463D01*
X009511Y004463D02*
X009511Y004733D01*
X009421Y004643D01*
X009307Y004688D02*
X009262Y004733D01*
X009172Y004733D01*
X009127Y004688D01*
X009127Y004508D01*
X009172Y004463D01*
X009262Y004463D01*
X009307Y004508D01*
X008411Y004613D02*
X008366Y004568D01*
X008186Y004568D01*
X008141Y004613D01*
X008141Y004704D01*
X008186Y004749D01*
X008231Y004863D02*
X008141Y004953D01*
X008411Y004953D01*
X008411Y004863D02*
X008411Y005043D01*
X008366Y005158D02*
X008186Y005158D01*
X008141Y005203D01*
X008141Y005293D01*
X008186Y005338D01*
X008366Y005158D01*
X008411Y005203D01*
X008411Y005293D01*
X008366Y005338D01*
X008186Y005338D01*
X008018Y005211D02*
X007742Y005211D01*
X007742Y004542D01*
X008018Y004542D01*
X008018Y005211D01*
X008392Y005447D02*
X008254Y005585D01*
X008254Y010624D01*
X008392Y010762D01*
X013431Y010762D01*
X013569Y010624D01*
X013569Y005585D01*
X013431Y005447D01*
X008392Y005447D01*
X008366Y004749D02*
X008411Y004704D01*
X008411Y004613D01*
X006764Y004283D02*
X006494Y004283D01*
X006629Y004148D01*
X006629Y004328D01*
X006955Y006353D02*
X006286Y006353D01*
X006286Y006628D01*
X006955Y006628D01*
X006955Y006353D01*
X006799Y006791D02*
X006709Y006791D01*
X006664Y006836D01*
X006709Y006926D02*
X006844Y006926D01*
X006844Y006836D02*
X006844Y007016D01*
X006799Y007061D01*
X006709Y007061D01*
X006664Y007016D01*
X006664Y006971D01*
X006709Y006926D01*
X006799Y006791D02*
X006844Y006836D01*
X006550Y006836D02*
X006505Y006791D01*
X006415Y006791D01*
X006370Y006836D01*
X006370Y007016D01*
X006415Y007061D01*
X006505Y007061D01*
X006550Y007016D01*
X006758Y009049D02*
X007034Y009049D01*
X007034Y009719D01*
X006758Y009719D01*
X006758Y009049D01*
X006550Y009645D02*
X006370Y009645D01*
X006325Y009690D01*
X006325Y009780D01*
X006370Y009825D01*
X006370Y009940D02*
X006325Y009985D01*
X006325Y010075D01*
X006370Y010120D01*
X006415Y010120D01*
X006460Y010075D01*
X006505Y010120D01*
X006550Y010120D01*
X006595Y010075D01*
X006595Y009985D01*
X006550Y009940D01*
X006550Y009825D02*
X006595Y009780D01*
X006595Y009690D01*
X006550Y009645D01*
X006460Y010030D02*
X006460Y010075D01*
X007383Y011175D02*
X007447Y011238D01*
X007415Y011207D02*
X007606Y011016D01*
X007638Y011047D02*
X007574Y010984D01*
X007681Y011154D02*
X007745Y011154D01*
X007809Y011218D01*
X007809Y011282D01*
X007921Y011331D02*
X008049Y011458D01*
X007985Y011395D02*
X007794Y011586D01*
X007794Y011458D01*
X007681Y011409D02*
X007617Y011409D01*
X007554Y011345D01*
X007554Y011282D01*
X007681Y011154D01*
X008451Y010368D02*
X008453Y010396D01*
X008459Y010424D01*
X008469Y010450D01*
X008482Y010475D01*
X008499Y010497D01*
X008519Y010517D01*
X008541Y010534D01*
X008566Y010547D01*
X008592Y010557D01*
X008620Y010563D01*
X008648Y010565D01*
X008676Y010563D01*
X008704Y010557D01*
X008730Y010547D01*
X008755Y010534D01*
X008777Y010517D01*
X008797Y010497D01*
X008814Y010475D01*
X008827Y010450D01*
X008837Y010424D01*
X008843Y010396D01*
X008845Y010368D01*
X008843Y010340D01*
X008837Y010312D01*
X008827Y010286D01*
X008814Y010261D01*
X008797Y010239D01*
X008777Y010219D01*
X008755Y010202D01*
X008730Y010189D01*
X008704Y010179D01*
X008676Y010173D01*
X008648Y010171D01*
X008620Y010173D01*
X008592Y010179D01*
X008566Y010189D01*
X008541Y010202D01*
X008519Y010219D01*
X008499Y010239D01*
X008482Y010261D01*
X008469Y010286D01*
X008459Y010312D01*
X008453Y010340D01*
X008451Y010368D01*
X011784Y011707D02*
X011964Y011707D01*
X015397Y011668D02*
X015397Y011367D01*
X015397Y011518D02*
X015847Y011518D01*
X015772Y011828D02*
X015697Y011903D01*
X015697Y012128D01*
X015622Y012128D02*
X015847Y012128D01*
X015847Y011903D01*
X015772Y011828D01*
X015547Y012053D02*
X015622Y012128D01*
X015547Y012053D02*
X015547Y011903D01*
X015697Y012288D02*
X015547Y012513D01*
X015622Y012672D02*
X015547Y012747D01*
X015547Y012897D01*
X015622Y012972D01*
X015697Y012972D01*
X015697Y012672D01*
X015772Y012672D02*
X015622Y012672D01*
X015772Y012672D02*
X015847Y012747D01*
X015847Y012897D01*
X015772Y013132D02*
X015622Y013132D01*
X015547Y013207D01*
X015547Y013432D01*
X015397Y013432D02*
X015847Y013432D01*
X015847Y013207D01*
X015772Y013132D01*
X015772Y013592D02*
X015697Y013667D01*
X015697Y013893D01*
X015622Y013893D02*
X015847Y013893D01*
X015847Y013667D01*
X015772Y013592D01*
X015547Y013818D02*
X015622Y013893D01*
X015547Y013818D02*
X015547Y013667D01*
X015847Y012513D02*
X015697Y012288D01*
X015847Y012288D02*
X015397Y012288D01*
X014441Y007049D02*
X014396Y007049D01*
X014396Y006868D01*
X015397Y006834D02*
X015397Y006684D01*
X015397Y006759D02*
X015772Y006759D01*
X015847Y006684D01*
X015847Y006609D01*
X015772Y006534D01*
X012447Y003262D02*
X012250Y003262D01*
X012447Y003262D02*
X012447Y002002D01*
X012250Y002002D01*
X011423Y002632D02*
X011425Y002672D01*
X011431Y002711D01*
X011441Y002750D01*
X011455Y002787D01*
X011473Y002823D01*
X011494Y002857D01*
X011518Y002889D01*
X011546Y002918D01*
X011576Y002944D01*
X011609Y002966D01*
X011643Y002986D01*
X011680Y003001D01*
X011718Y003013D01*
X011757Y003021D01*
X011797Y003025D01*
X011837Y003025D01*
X011877Y003021D01*
X011916Y003013D01*
X011954Y003001D01*
X011991Y002986D01*
X012025Y002966D01*
X012058Y002944D01*
X012088Y002918D01*
X012116Y002889D01*
X012140Y002857D01*
X012161Y002823D01*
X012179Y002787D01*
X012193Y002750D01*
X012203Y002711D01*
X012209Y002672D01*
X012211Y002632D01*
X012209Y002592D01*
X012203Y002553D01*
X012193Y002514D01*
X012179Y002477D01*
X012161Y002441D01*
X012140Y002407D01*
X012116Y002375D01*
X012088Y002346D01*
X012058Y002320D01*
X012025Y002298D01*
X011991Y002278D01*
X011954Y002263D01*
X011916Y002251D01*
X011877Y002243D01*
X011837Y002239D01*
X011797Y002239D01*
X011757Y002243D01*
X011718Y002251D01*
X011680Y002263D01*
X011643Y002278D01*
X011609Y002298D01*
X011576Y002320D01*
X011546Y002346D01*
X011518Y002375D01*
X011494Y002407D01*
X011473Y002441D01*
X011455Y002477D01*
X011441Y002514D01*
X011431Y002553D01*
X011425Y002592D01*
X011423Y002632D01*
X010899Y004468D02*
X010719Y004468D01*
X010899Y004648D01*
X010899Y004693D01*
X010854Y004738D01*
X010764Y004738D01*
X010719Y004693D01*
X010605Y004693D02*
X010560Y004738D01*
X010470Y004738D01*
X010425Y004693D01*
X010425Y004513D01*
X010470Y004468D01*
X010560Y004468D01*
X010605Y004513D01*
X007637Y001674D02*
X007637Y001629D01*
X007457Y001449D01*
X007457Y001404D01*
X007342Y001449D02*
X007297Y001404D01*
X007207Y001404D01*
X007162Y001449D01*
X007162Y001629D01*
X007207Y001674D01*
X007297Y001674D01*
X007342Y001629D01*
X007457Y001674D02*
X007637Y001674D01*
X003746Y004325D02*
X003510Y004325D01*
X002349Y004857D02*
X002152Y004857D01*
X002152Y005939D01*
X002152Y011648D01*
X001856Y011648D01*
X001856Y005939D01*
X002152Y005939D01*
X001656Y007433D02*
X001475Y007433D01*
X001430Y007478D01*
X001430Y007568D01*
X001475Y007613D01*
X001430Y007727D02*
X001701Y007907D01*
X001430Y007907D01*
X001475Y008022D02*
X001430Y008067D01*
X001430Y008157D01*
X001475Y008202D01*
X001520Y008202D01*
X001701Y008022D01*
X001701Y008202D01*
X001701Y007727D02*
X001430Y007727D01*
X001656Y007613D02*
X001701Y007568D01*
X001701Y007478D01*
X001656Y007433D01*
X001363Y008917D02*
X001062Y008917D01*
X000987Y008992D01*
X000987Y009142D01*
X001062Y009217D01*
X001363Y009217D01*
X001438Y009142D01*
X001438Y008992D01*
X001363Y008917D01*
X001438Y009377D02*
X000987Y009377D01*
X000987Y009602D01*
X001062Y009678D01*
X001213Y009678D01*
X001288Y009602D01*
X001288Y009377D01*
X001213Y009838D02*
X001213Y009988D01*
X001438Y009838D02*
X001438Y010138D01*
X001438Y010298D02*
X000987Y010298D01*
X001438Y010598D01*
X000987Y010598D01*
X001062Y010758D02*
X000987Y010833D01*
X000987Y010984D01*
X001062Y011059D01*
X001062Y011219D02*
X001363Y011219D01*
X001438Y011294D01*
X001438Y011444D01*
X001363Y011519D01*
X001062Y011519D01*
X000987Y011444D01*
X000987Y011294D01*
X001062Y011219D01*
X001363Y011059D02*
X001438Y010984D01*
X001438Y010833D01*
X001363Y010758D01*
X001062Y010758D01*
X000987Y010138D02*
X000987Y009838D01*
X001438Y009838D01*
X001438Y011679D02*
X000987Y011679D01*
X000987Y011904D01*
X001062Y011979D01*
X001213Y011979D01*
X001288Y011904D01*
X001288Y011679D01*
X001288Y011829D02*
X001438Y011979D01*
X001438Y012139D02*
X001438Y012440D01*
X001213Y012290D02*
X001213Y012139D01*
X001438Y012139D02*
X000987Y012139D01*
X000987Y012440D01*
X000987Y013060D02*
X001438Y013360D01*
X000987Y013360D01*
X000987Y013521D02*
X001137Y013671D01*
X000987Y013821D01*
X001438Y013821D01*
X001438Y013981D02*
X000987Y013981D01*
X000987Y014206D01*
X001062Y014281D01*
X001213Y014281D01*
X001288Y014206D01*
X001288Y013981D01*
X001288Y014131D02*
X001438Y014281D01*
X001438Y013521D02*
X000987Y013521D01*
X000987Y013060D02*
X001438Y013060D01*
X002152Y012731D02*
X002349Y012731D01*
X002152Y012731D02*
X002152Y011648D01*
D11*
X007949Y010939D02*
X007951Y010958D01*
X007957Y010976D01*
X007967Y010992D01*
X007980Y011006D01*
X007996Y011017D01*
X008013Y011024D01*
X008032Y011027D01*
X008051Y011026D01*
X008070Y011021D01*
X008086Y011012D01*
X008101Y011000D01*
X008112Y010984D01*
X008120Y010967D01*
X008124Y010949D01*
X008124Y010929D01*
X008120Y010911D01*
X008112Y010894D01*
X008101Y010878D01*
X008086Y010866D01*
X008070Y010857D01*
X008051Y010852D01*
X008032Y010851D01*
X008013Y010854D01*
X007996Y010861D01*
X007980Y010872D01*
X007967Y010886D01*
X007957Y010902D01*
X007951Y010920D01*
X007949Y010939D01*
X008619Y016097D02*
X008621Y016116D01*
X008627Y016134D01*
X008637Y016150D01*
X008650Y016164D01*
X008666Y016175D01*
X008683Y016182D01*
X008702Y016185D01*
X008721Y016184D01*
X008740Y016179D01*
X008756Y016170D01*
X008771Y016158D01*
X008782Y016142D01*
X008790Y016125D01*
X008794Y016107D01*
X008794Y016087D01*
X008790Y016069D01*
X008782Y016052D01*
X008771Y016036D01*
X008756Y016024D01*
X008740Y016015D01*
X008721Y016010D01*
X008702Y016009D01*
X008683Y016012D01*
X008666Y016019D01*
X008650Y016030D01*
X008637Y016044D01*
X008627Y016060D01*
X008621Y016078D01*
X008619Y016097D01*
D12*
X006803Y002054D02*
X006803Y001747D01*
X006650Y001900D02*
X006957Y001900D01*
M02*
