G75*
G70*
%OFA0B0*%
%FSLAX24Y24*%
%IPPOS*%
%LPD*%
%AMOC8*
5,1,8,0,0,1.08239X$1,22.5*
%
%ADD10C,0.0591*%
%ADD11C,0.0276*%
%ADD12C,0.0100*%
%ADD13C,0.0354*%
D10*
X001778Y003853D03*
X001502Y006884D03*
X004849Y005467D03*
X006069Y003931D03*
X006699Y005309D03*
X005518Y002002D03*
X008234Y001805D03*
D11*
X009868Y002866D03*
X011345Y004522D03*
X011305Y005742D03*
X010321Y005742D03*
X008549Y006530D03*
X007447Y005309D03*
X007250Y004797D03*
X005833Y006530D03*
X004770Y006372D03*
X006463Y009207D03*
X005282Y010231D03*
X004770Y011648D03*
X005223Y012433D03*
X005892Y014520D03*
X007742Y014520D03*
X009435Y013063D03*
X010498Y013063D03*
X011994Y012593D03*
X013805Y013772D03*
X013569Y014520D03*
X013136Y015110D03*
X014908Y012315D03*
X014140Y011884D03*
X013116Y010309D03*
X013313Y008892D03*
X013313Y007908D03*
X015026Y007394D03*
X014494Y005152D03*
X014474Y003654D03*
X013411Y003103D03*
X013333Y002276D03*
X012683Y005742D03*
X015183Y009756D03*
X011108Y010388D03*
X009730Y010585D03*
X009022Y010427D03*
X008471Y009561D03*
X002821Y014520D03*
X002112Y013733D03*
D12*
X002520Y001427D02*
X002436Y001344D01*
X007014Y001344D01*
X007014Y004723D01*
X007003Y004748D01*
X007003Y004847D01*
X007041Y004937D01*
X007110Y005007D01*
X007201Y005044D01*
X007299Y005044D01*
X007390Y005007D01*
X007459Y004937D01*
X007497Y004847D01*
X007497Y004758D01*
X009455Y004758D01*
X009455Y006018D01*
X009730Y006018D01*
X009730Y006781D01*
X009686Y006799D01*
X009606Y006879D01*
X009562Y006985D01*
X009562Y007099D01*
X009606Y007204D01*
X009686Y007284D01*
X009730Y007302D01*
X009730Y007489D01*
X009686Y007508D01*
X009606Y007588D01*
X009562Y007693D01*
X009562Y007807D01*
X009606Y007912D01*
X009686Y007993D01*
X009730Y008011D01*
X009730Y008198D01*
X009686Y008216D01*
X009606Y008297D01*
X009562Y008402D01*
X009562Y008516D01*
X009606Y008621D01*
X009686Y008701D01*
X009730Y008720D01*
X009730Y008907D01*
X009686Y008925D01*
X009606Y009005D01*
X009562Y009111D01*
X009562Y009224D01*
X009606Y009330D01*
X009686Y009410D01*
X009730Y009428D01*
X009730Y010191D01*
X010833Y010191D01*
X010833Y011648D01*
X005017Y011648D01*
X005017Y011599D01*
X004979Y011508D01*
X004910Y011439D01*
X004819Y011401D01*
X004721Y011401D01*
X004630Y011439D01*
X004560Y011508D01*
X004523Y011599D01*
X004523Y011648D01*
X001001Y011648D01*
X001001Y002778D01*
X001085Y002862D01*
X001458Y003017D01*
X001861Y003017D01*
X002234Y002862D01*
X002520Y002577D01*
X002674Y002204D01*
X002674Y001800D01*
X002520Y001427D01*
X002504Y001412D02*
X007014Y001412D01*
X007014Y001511D02*
X002554Y001511D01*
X002595Y001609D02*
X005410Y001609D01*
X005437Y001598D02*
X005598Y001598D01*
X005747Y001659D01*
X005861Y001773D01*
X005922Y001922D01*
X005922Y002083D01*
X005861Y002231D01*
X005747Y002345D01*
X005598Y002406D01*
X005437Y002406D01*
X005289Y002345D01*
X005175Y002231D01*
X005113Y002083D01*
X005113Y001922D01*
X005175Y001773D01*
X005289Y001659D01*
X005437Y001598D01*
X005626Y001609D02*
X007014Y001609D01*
X007014Y001708D02*
X005795Y001708D01*
X005874Y001806D02*
X007014Y001806D01*
X007014Y001905D02*
X005915Y001905D01*
X005922Y002003D02*
X007014Y002003D01*
X007014Y002102D02*
X005914Y002102D01*
X005873Y002200D02*
X007014Y002200D01*
X007014Y002299D02*
X005793Y002299D01*
X005620Y002398D02*
X007014Y002398D01*
X007014Y002496D02*
X004204Y002496D01*
X004172Y002572D02*
X004031Y002714D01*
X003846Y002790D01*
X003646Y002790D01*
X003461Y002714D01*
X003320Y002572D01*
X003243Y002388D01*
X003243Y002188D01*
X003320Y002003D01*
X003461Y001861D01*
X003646Y001785D01*
X003846Y001785D01*
X004031Y001861D01*
X004172Y002003D01*
X004249Y002188D01*
X004249Y002388D01*
X004172Y002572D01*
X004150Y002595D02*
X007014Y002595D01*
X007014Y002693D02*
X004052Y002693D01*
X004245Y002398D02*
X005416Y002398D01*
X005243Y002299D02*
X004249Y002299D01*
X004249Y002200D02*
X005162Y002200D01*
X005121Y002102D02*
X004213Y002102D01*
X004173Y002003D02*
X005113Y002003D01*
X005120Y001905D02*
X004074Y001905D01*
X003898Y001806D02*
X005161Y001806D01*
X005240Y001708D02*
X002636Y001708D01*
X002674Y001806D02*
X003594Y001806D01*
X003418Y001905D02*
X002674Y001905D01*
X002674Y002003D02*
X003320Y002003D01*
X003279Y002102D02*
X002674Y002102D01*
X002674Y002200D02*
X003243Y002200D01*
X003243Y002299D02*
X002635Y002299D01*
X002594Y002398D02*
X003248Y002398D01*
X003288Y002496D02*
X002553Y002496D01*
X002502Y002595D02*
X003342Y002595D01*
X003441Y002693D02*
X002403Y002693D01*
X002305Y002792D02*
X007014Y002792D01*
X007014Y002890D02*
X002167Y002890D01*
X001929Y002989D02*
X007014Y002989D01*
X007014Y003087D02*
X001001Y003087D01*
X001001Y002989D02*
X001390Y002989D01*
X001152Y002890D02*
X001001Y002890D01*
X001001Y002792D02*
X001014Y002792D01*
X001001Y003186D02*
X003456Y003186D01*
X003461Y003180D02*
X003646Y003104D01*
X003846Y003104D01*
X004031Y003180D01*
X004172Y003322D01*
X004249Y003506D01*
X004249Y003707D01*
X004172Y003891D01*
X004031Y004033D01*
X003846Y004109D01*
X003646Y004109D01*
X003461Y004033D01*
X003320Y003891D01*
X003243Y003707D01*
X003243Y003506D01*
X003320Y003322D01*
X003461Y003180D01*
X003357Y003284D02*
X001001Y003284D01*
X001001Y003383D02*
X003295Y003383D01*
X003254Y003482D02*
X001938Y003482D01*
X002007Y003510D02*
X001858Y003448D01*
X001826Y003448D01*
X001826Y003804D01*
X001729Y003804D01*
X001373Y003804D01*
X001373Y003772D01*
X001435Y003624D01*
X001549Y003510D01*
X001697Y003448D01*
X001729Y003448D01*
X001729Y003804D01*
X001729Y003901D01*
X001373Y003901D01*
X001373Y003933D01*
X001435Y004082D01*
X001549Y004195D01*
X001697Y004257D01*
X001729Y004257D01*
X001729Y003901D01*
X001826Y003901D01*
X001826Y004257D01*
X001858Y004257D01*
X002007Y004195D01*
X002120Y004082D01*
X002182Y003933D01*
X002182Y003901D01*
X001826Y003901D01*
X001826Y003804D01*
X002182Y003804D01*
X002182Y003772D01*
X002120Y003624D01*
X002007Y003510D01*
X002077Y003580D02*
X003243Y003580D01*
X003243Y003679D02*
X002143Y003679D01*
X002182Y003777D02*
X003273Y003777D01*
X003313Y003876D02*
X001826Y003876D01*
X001729Y003876D02*
X001001Y003876D01*
X001001Y003974D02*
X001390Y003974D01*
X001431Y004073D02*
X001001Y004073D01*
X001001Y004171D02*
X001525Y004171D01*
X001729Y004171D02*
X001826Y004171D01*
X001826Y004073D02*
X001729Y004073D01*
X001729Y003974D02*
X001826Y003974D01*
X001826Y003777D02*
X001729Y003777D01*
X001729Y003679D02*
X001826Y003679D01*
X001826Y003580D02*
X001729Y003580D01*
X001729Y003482D02*
X001826Y003482D01*
X001617Y003482D02*
X001001Y003482D01*
X001001Y003580D02*
X001478Y003580D01*
X001412Y003679D02*
X001001Y003679D01*
X001001Y003777D02*
X001373Y003777D01*
X001001Y004270D02*
X005836Y004270D01*
X005840Y004274D02*
X005726Y004160D01*
X005665Y004012D01*
X005665Y003851D01*
X005726Y003702D01*
X005840Y003589D01*
X005989Y003527D01*
X006149Y003527D01*
X006298Y003589D01*
X006412Y003702D01*
X006473Y003851D01*
X006473Y004012D01*
X006412Y004160D01*
X006298Y004274D01*
X006149Y004336D01*
X005989Y004336D01*
X005840Y004274D01*
X005737Y004171D02*
X002031Y004171D01*
X002124Y004073D02*
X003558Y004073D01*
X003403Y003974D02*
X002165Y003974D01*
X001001Y004368D02*
X007014Y004368D01*
X007014Y004270D02*
X006302Y004270D01*
X006401Y004171D02*
X007014Y004171D01*
X007014Y004073D02*
X006448Y004073D01*
X006473Y003974D02*
X007014Y003974D01*
X007014Y003876D02*
X006473Y003876D01*
X006443Y003777D02*
X007014Y003777D01*
X007014Y003679D02*
X006388Y003679D01*
X006278Y003580D02*
X007014Y003580D01*
X007014Y003482D02*
X004239Y003482D01*
X004249Y003580D02*
X005860Y003580D01*
X005750Y003679D02*
X004249Y003679D01*
X004220Y003777D02*
X005695Y003777D01*
X005665Y003876D02*
X004179Y003876D01*
X004089Y003974D02*
X005665Y003974D01*
X005690Y004073D02*
X003934Y004073D01*
X004198Y003383D02*
X007014Y003383D01*
X007014Y003284D02*
X004135Y003284D01*
X004036Y003186D02*
X007014Y003186D01*
X007368Y003186D02*
X013179Y003186D01*
X013165Y003152D02*
X013202Y003242D01*
X013272Y003312D01*
X013362Y003349D01*
X013461Y003349D01*
X013551Y003312D01*
X013621Y003242D01*
X013658Y003152D01*
X013658Y003053D01*
X013621Y002963D01*
X013551Y002893D01*
X013461Y002856D01*
X013362Y002856D01*
X013272Y002893D01*
X013202Y002963D01*
X013165Y003053D01*
X013165Y003152D01*
X013165Y003087D02*
X009980Y003087D01*
X010008Y003076D02*
X009917Y003113D01*
X009819Y003113D01*
X009728Y003076D01*
X009659Y003006D01*
X009621Y002915D01*
X009621Y002817D01*
X009659Y002727D01*
X009728Y002657D01*
X009819Y002620D01*
X009917Y002620D01*
X010008Y002657D01*
X010077Y002727D01*
X010115Y002817D01*
X010115Y002915D01*
X010077Y003006D01*
X010008Y003076D01*
X010085Y002989D02*
X013191Y002989D01*
X013279Y002890D02*
X010115Y002890D01*
X010104Y002792D02*
X014794Y002792D01*
X014864Y002862D02*
X014579Y002577D01*
X014424Y002204D01*
X014424Y001800D01*
X014579Y001427D01*
X014663Y001344D01*
X007368Y001344D01*
X007368Y004443D01*
X009809Y004443D01*
X009809Y005742D01*
X010085Y005742D01*
X010085Y005743D01*
X010321Y005743D01*
X010321Y005743D01*
X010321Y005989D01*
X010370Y005989D01*
X010461Y005952D01*
X010530Y005882D01*
X010568Y005791D01*
X010568Y005743D01*
X010321Y005743D01*
X010321Y005989D01*
X010272Y005989D01*
X010181Y005952D01*
X010112Y005882D01*
X010085Y005817D01*
X010085Y006873D01*
X010091Y006879D01*
X010135Y006985D01*
X010135Y007099D01*
X010091Y007204D01*
X010085Y007210D01*
X010085Y007582D01*
X010091Y007588D01*
X010135Y007693D01*
X010135Y007807D01*
X010091Y007912D01*
X010085Y007919D01*
X010085Y008290D01*
X010091Y008297D01*
X010135Y008402D01*
X010135Y008516D01*
X010091Y008621D01*
X010085Y008627D01*
X010085Y008999D01*
X010091Y009005D01*
X010135Y009111D01*
X010135Y009224D01*
X010091Y009330D01*
X010085Y009336D01*
X010085Y009679D01*
X010990Y009679D01*
X010999Y010166D01*
X011059Y010141D01*
X011108Y010141D01*
X011108Y010388D01*
X011109Y010388D01*
X011355Y010388D01*
X011355Y010437D01*
X011318Y010528D01*
X011248Y010597D01*
X011157Y010635D01*
X011109Y010635D01*
X011109Y010388D01*
X011109Y010388D01*
X011355Y010388D01*
X011355Y010339D01*
X011318Y010248D01*
X011248Y010179D01*
X011157Y010141D01*
X011109Y010141D01*
X011109Y010388D01*
X011108Y010388D01*
X011108Y010635D01*
X011059Y010635D01*
X011007Y010613D01*
X011030Y011884D01*
X001001Y011922D01*
X001001Y015006D01*
X001085Y014922D01*
X001458Y014767D01*
X001861Y014767D01*
X002234Y014922D01*
X002520Y015207D01*
X002674Y015580D01*
X002674Y015984D01*
X002520Y016356D01*
X002436Y016440D01*
X014663Y016440D01*
X014579Y016356D01*
X014424Y015984D01*
X014424Y015580D01*
X014579Y015207D01*
X014864Y014922D01*
X015237Y014767D01*
X015641Y014767D01*
X016014Y014922D01*
X016098Y015006D01*
X016098Y002778D01*
X016014Y002862D01*
X015641Y003017D01*
X015237Y003017D01*
X014864Y002862D01*
X014932Y002890D02*
X013544Y002890D01*
X013632Y002989D02*
X015170Y002989D01*
X015708Y002989D02*
X016098Y002989D01*
X016098Y003087D02*
X013658Y003087D01*
X013644Y003186D02*
X016098Y003186D01*
X016098Y003284D02*
X013579Y003284D01*
X013244Y003284D02*
X007368Y003284D01*
X007368Y003383D02*
X016098Y003383D01*
X016098Y003482D02*
X014651Y003482D01*
X014684Y003514D02*
X014721Y003605D01*
X014721Y003703D01*
X014684Y003794D01*
X014614Y003863D01*
X014524Y003901D01*
X014425Y003901D01*
X014335Y003863D01*
X014265Y003794D01*
X014228Y003703D01*
X014228Y003605D01*
X014265Y003514D01*
X014335Y003444D01*
X014425Y003407D01*
X014524Y003407D01*
X014614Y003444D01*
X014684Y003514D01*
X014711Y003580D02*
X016098Y003580D01*
X016098Y003679D02*
X014721Y003679D01*
X014691Y003777D02*
X016098Y003777D01*
X016098Y003876D02*
X014584Y003876D01*
X014365Y003876D02*
X007368Y003876D01*
X007368Y003974D02*
X016098Y003974D01*
X016098Y004073D02*
X007368Y004073D01*
X007368Y004171D02*
X016098Y004171D01*
X016098Y004270D02*
X007368Y004270D01*
X007368Y004368D02*
X011149Y004368D01*
X011135Y004382D02*
X011205Y004313D01*
X011295Y004275D01*
X011394Y004275D01*
X011484Y004313D01*
X011554Y004382D01*
X011591Y004473D01*
X011591Y004571D01*
X011554Y004662D01*
X011484Y004731D01*
X011394Y004769D01*
X011295Y004769D01*
X011205Y004731D01*
X011135Y004662D01*
X011098Y004571D01*
X011098Y004473D01*
X011135Y004382D01*
X011100Y004467D02*
X009809Y004467D01*
X009809Y004566D02*
X011098Y004566D01*
X011138Y004664D02*
X009809Y004664D01*
X009809Y004763D02*
X011281Y004763D01*
X011408Y004763D02*
X016098Y004763D01*
X016098Y004861D02*
X009809Y004861D01*
X009809Y004960D02*
X014337Y004960D01*
X014354Y004943D02*
X014445Y004905D01*
X014494Y004905D01*
X014494Y005151D01*
X014494Y005151D01*
X014494Y004905D01*
X014543Y004905D01*
X014634Y004943D01*
X014703Y005012D01*
X014741Y005103D01*
X014741Y005152D01*
X014741Y005201D01*
X014703Y005292D01*
X014634Y005361D01*
X014543Y005399D01*
X014494Y005399D01*
X014445Y005399D01*
X014354Y005361D01*
X014285Y005292D01*
X014247Y005201D01*
X014247Y005152D01*
X014494Y005152D01*
X014494Y005399D01*
X014494Y005152D01*
X014494Y005152D01*
X014494Y005152D01*
X014247Y005152D01*
X014247Y005103D01*
X014285Y005012D01*
X014354Y004943D01*
X014494Y004960D02*
X014494Y004960D01*
X014494Y005058D02*
X014494Y005058D01*
X014495Y005152D02*
X014495Y005152D01*
X014741Y005152D01*
X014495Y005152D01*
X014494Y005157D02*
X014494Y005157D01*
X014494Y005255D02*
X014494Y005255D01*
X014494Y005354D02*
X014494Y005354D01*
X014347Y005354D02*
X009809Y005354D01*
X009809Y005452D02*
X016098Y005452D01*
X016098Y005354D02*
X014641Y005354D01*
X014718Y005255D02*
X016098Y005255D01*
X016098Y005157D02*
X014741Y005157D01*
X014723Y005058D02*
X016098Y005058D01*
X016098Y004960D02*
X014651Y004960D01*
X014266Y005058D02*
X009809Y005058D01*
X009809Y005157D02*
X014247Y005157D01*
X014270Y005255D02*
X009809Y005255D01*
X009809Y005551D02*
X010163Y005551D01*
X010181Y005533D02*
X010272Y005496D01*
X010321Y005496D01*
X010370Y005496D01*
X010461Y005533D01*
X010530Y005603D01*
X010568Y005693D01*
X010568Y005742D01*
X010321Y005742D01*
X010321Y005496D01*
X010321Y005742D01*
X010321Y005742D01*
X010321Y005743D01*
X010321Y005742D01*
X010074Y005742D01*
X010074Y005693D01*
X010112Y005603D01*
X010181Y005533D01*
X010321Y005551D02*
X010321Y005551D01*
X010321Y005649D02*
X010321Y005649D01*
X010321Y005748D02*
X010321Y005748D01*
X010321Y005847D02*
X010321Y005847D01*
X010321Y005945D02*
X010321Y005945D01*
X010467Y005945D02*
X011159Y005945D01*
X011165Y005952D02*
X011096Y005882D01*
X011058Y005791D01*
X011058Y005743D01*
X011305Y005743D01*
X011305Y005989D01*
X011256Y005989D01*
X011165Y005952D01*
X011081Y005847D02*
X010545Y005847D01*
X010568Y005748D02*
X011058Y005748D01*
X011058Y005742D02*
X011058Y005693D01*
X011096Y005603D01*
X011165Y005533D01*
X011256Y005496D01*
X011305Y005496D01*
X011305Y005742D01*
X011305Y005742D01*
X011058Y005742D01*
X011076Y005649D02*
X010550Y005649D01*
X010479Y005551D02*
X011147Y005551D01*
X011305Y005551D02*
X011305Y005551D01*
X011305Y005496D02*
X011354Y005496D01*
X011445Y005533D01*
X011514Y005603D01*
X011552Y005693D01*
X011552Y005742D01*
X011306Y005742D01*
X011306Y005743D01*
X011552Y005743D01*
X011552Y005791D01*
X011514Y005882D01*
X011445Y005952D01*
X011354Y005989D01*
X011305Y005989D01*
X011305Y005743D01*
X011305Y005743D01*
X011305Y005742D01*
X011305Y005496D01*
X011305Y005649D02*
X011305Y005649D01*
X011305Y005748D02*
X011305Y005748D01*
X011305Y005847D02*
X011305Y005847D01*
X011305Y005945D02*
X011305Y005945D01*
X011451Y005945D02*
X012537Y005945D01*
X012543Y005952D02*
X012474Y005882D01*
X012436Y005791D01*
X012436Y005743D01*
X012683Y005743D01*
X012683Y005989D01*
X012634Y005989D01*
X012543Y005952D01*
X012459Y005847D02*
X011529Y005847D01*
X011552Y005748D02*
X012436Y005748D01*
X012436Y005742D02*
X012436Y005693D01*
X012474Y005603D01*
X012543Y005533D01*
X012634Y005496D01*
X012683Y005496D01*
X012683Y005742D01*
X012683Y005742D01*
X012436Y005742D01*
X012454Y005649D02*
X011534Y005649D01*
X011463Y005551D02*
X012525Y005551D01*
X012683Y005551D02*
X012683Y005551D01*
X012683Y005496D02*
X012732Y005496D01*
X012823Y005533D01*
X012892Y005603D01*
X012930Y005693D01*
X012930Y005742D01*
X012684Y005742D01*
X012684Y005743D01*
X012930Y005743D01*
X012930Y005791D01*
X012892Y005882D01*
X012823Y005952D01*
X012732Y005989D01*
X012683Y005989D01*
X012683Y005743D01*
X012683Y005743D01*
X012683Y005742D01*
X012683Y005496D01*
X012683Y005649D02*
X012683Y005649D01*
X012683Y005748D02*
X012683Y005748D01*
X012683Y005847D02*
X012683Y005847D01*
X012683Y005945D02*
X012683Y005945D01*
X012829Y005945D02*
X016098Y005945D01*
X016098Y005847D02*
X012907Y005847D01*
X012930Y005748D02*
X016098Y005748D01*
X016098Y005649D02*
X012912Y005649D01*
X012841Y005551D02*
X016098Y005551D01*
X016098Y006044D02*
X010085Y006044D01*
X010085Y006142D02*
X016098Y006142D01*
X016098Y006241D02*
X010085Y006241D01*
X010085Y006339D02*
X016098Y006339D01*
X016098Y006438D02*
X010085Y006438D01*
X010085Y006536D02*
X016098Y006536D01*
X016098Y006635D02*
X010085Y006635D01*
X010085Y006733D02*
X016098Y006733D01*
X016098Y006832D02*
X012130Y006832D01*
X012097Y006799D02*
X012178Y006879D01*
X012221Y006985D01*
X012221Y007099D01*
X012178Y007204D01*
X012097Y007284D01*
X011992Y007328D01*
X011878Y007328D01*
X011773Y007284D01*
X011692Y007204D01*
X011649Y007099D01*
X011649Y006985D01*
X011692Y006879D01*
X011773Y006799D01*
X011878Y006755D01*
X011992Y006755D01*
X012097Y006799D01*
X012199Y006931D02*
X016098Y006931D01*
X016098Y007029D02*
X012221Y007029D01*
X012209Y007128D02*
X016098Y007128D01*
X016098Y007226D02*
X015207Y007226D01*
X015235Y007254D02*
X015165Y007185D01*
X015075Y007147D01*
X014977Y007147D01*
X014886Y007185D01*
X014816Y007254D01*
X014779Y007345D01*
X014779Y007443D01*
X014816Y007534D01*
X014886Y007603D01*
X014977Y007641D01*
X015075Y007641D01*
X015165Y007603D01*
X015235Y007534D01*
X015272Y007443D01*
X015272Y007345D01*
X015235Y007254D01*
X015264Y007325D02*
X016098Y007325D01*
X016098Y007423D02*
X015272Y007423D01*
X015240Y007522D02*
X016098Y007522D01*
X016098Y007620D02*
X015124Y007620D01*
X014927Y007620D02*
X012191Y007620D01*
X012178Y007588D02*
X012221Y007693D01*
X012221Y007807D01*
X012178Y007912D01*
X012097Y007993D01*
X011992Y008036D01*
X011878Y008036D01*
X011773Y007993D01*
X011692Y007912D01*
X011649Y007807D01*
X011649Y007693D01*
X011692Y007588D01*
X011773Y007508D01*
X011878Y007464D01*
X011992Y007464D01*
X012097Y007508D01*
X012178Y007588D01*
X012111Y007522D02*
X014811Y007522D01*
X014779Y007423D02*
X010085Y007423D01*
X010085Y007325D02*
X010493Y007325D01*
X010500Y007328D02*
X010395Y007284D01*
X010315Y007204D01*
X010271Y007099D01*
X010271Y006985D01*
X010315Y006879D01*
X010395Y006799D01*
X010500Y006755D01*
X010614Y006755D01*
X010719Y006799D01*
X010800Y006879D01*
X010843Y006985D01*
X010843Y007099D01*
X010800Y007204D01*
X010719Y007284D01*
X010614Y007328D01*
X010500Y007328D01*
X010621Y007325D02*
X011202Y007325D01*
X011209Y007328D02*
X011104Y007284D01*
X011023Y007204D01*
X010980Y007099D01*
X010980Y006985D01*
X011023Y006879D01*
X011104Y006799D01*
X011209Y006755D01*
X011323Y006755D01*
X011428Y006799D01*
X011508Y006879D01*
X011552Y006985D01*
X011552Y007099D01*
X011508Y007204D01*
X011428Y007284D01*
X011323Y007328D01*
X011209Y007328D01*
X011330Y007325D02*
X011871Y007325D01*
X011999Y007325D02*
X014787Y007325D01*
X014844Y007226D02*
X012155Y007226D01*
X011715Y007226D02*
X011486Y007226D01*
X011540Y007128D02*
X011661Y007128D01*
X011649Y007029D02*
X011552Y007029D01*
X011530Y006931D02*
X011671Y006931D01*
X011740Y006832D02*
X011461Y006832D01*
X011071Y006832D02*
X010752Y006832D01*
X010821Y006931D02*
X011002Y006931D01*
X010980Y007029D02*
X010843Y007029D01*
X010831Y007128D02*
X010992Y007128D01*
X011046Y007226D02*
X010777Y007226D01*
X010719Y007508D02*
X010800Y007588D01*
X010843Y007693D01*
X010843Y007807D01*
X010800Y007912D01*
X010719Y007993D01*
X010614Y008036D01*
X010500Y008036D01*
X010395Y007993D01*
X010315Y007912D01*
X010271Y007807D01*
X010271Y007693D01*
X010315Y007588D01*
X010395Y007508D01*
X010500Y007464D01*
X010614Y007464D01*
X010719Y007508D01*
X010734Y007522D02*
X011089Y007522D01*
X011104Y007508D02*
X011209Y007464D01*
X011323Y007464D01*
X011428Y007508D01*
X011508Y007588D01*
X011552Y007693D01*
X011552Y007807D01*
X011508Y007912D01*
X011428Y007993D01*
X011323Y008036D01*
X011209Y008036D01*
X011104Y007993D01*
X011023Y007912D01*
X010980Y007807D01*
X010980Y007693D01*
X011023Y007588D01*
X011104Y007508D01*
X011010Y007620D02*
X010813Y007620D01*
X010843Y007719D02*
X010980Y007719D01*
X010984Y007817D02*
X010839Y007817D01*
X010796Y007916D02*
X011027Y007916D01*
X011156Y008015D02*
X010667Y008015D01*
X010614Y008173D02*
X010500Y008173D01*
X010395Y008216D01*
X010315Y008297D01*
X010271Y008402D01*
X010271Y008516D01*
X010315Y008621D01*
X010395Y008701D01*
X010500Y008745D01*
X010614Y008745D01*
X010719Y008701D01*
X010800Y008621D01*
X010843Y008516D01*
X010843Y008402D01*
X010800Y008297D01*
X010719Y008216D01*
X010614Y008173D01*
X010708Y008212D02*
X011115Y008212D01*
X011104Y008216D02*
X011209Y008173D01*
X011323Y008173D01*
X011428Y008216D01*
X011508Y008297D01*
X011552Y008402D01*
X011552Y008516D01*
X011508Y008621D01*
X011428Y008701D01*
X011323Y008745D01*
X011209Y008745D01*
X011104Y008701D01*
X011023Y008621D01*
X010980Y008516D01*
X010980Y008402D01*
X011023Y008297D01*
X011104Y008216D01*
X011018Y008310D02*
X010805Y008310D01*
X010843Y008409D02*
X010980Y008409D01*
X010980Y008507D02*
X010843Y008507D01*
X010806Y008606D02*
X011017Y008606D01*
X011111Y008704D02*
X010712Y008704D01*
X010614Y008881D02*
X010500Y008881D01*
X010395Y008925D01*
X010315Y009005D01*
X010271Y009111D01*
X010271Y009224D01*
X010315Y009330D01*
X010395Y009410D01*
X010500Y009454D01*
X010614Y009454D01*
X010719Y009410D01*
X010800Y009330D01*
X010843Y009224D01*
X010843Y009111D01*
X010800Y009005D01*
X010719Y008925D01*
X010614Y008881D01*
X010663Y008901D02*
X011160Y008901D01*
X011209Y008881D02*
X011323Y008881D01*
X011428Y008925D01*
X011508Y009005D01*
X011552Y009111D01*
X011552Y009224D01*
X011508Y009330D01*
X011428Y009410D01*
X011323Y009454D01*
X011209Y009454D01*
X011104Y009410D01*
X011023Y009330D01*
X010980Y009224D01*
X010980Y009111D01*
X011023Y009005D01*
X011104Y008925D01*
X011209Y008881D01*
X011371Y008901D02*
X011830Y008901D01*
X011878Y008881D02*
X011992Y008881D01*
X012097Y008925D01*
X012178Y009005D01*
X012221Y009111D01*
X012221Y009224D01*
X012178Y009330D01*
X012097Y009410D01*
X011992Y009454D01*
X011878Y009454D01*
X011773Y009410D01*
X011692Y009330D01*
X011649Y009224D01*
X011649Y009111D01*
X011692Y009005D01*
X011773Y008925D01*
X011878Y008881D01*
X011878Y008745D02*
X011773Y008701D01*
X011692Y008621D01*
X011649Y008516D01*
X011649Y008402D01*
X011692Y008297D01*
X011773Y008216D01*
X011878Y008173D01*
X011992Y008173D01*
X012097Y008216D01*
X012178Y008297D01*
X012221Y008402D01*
X012221Y008516D01*
X012178Y008621D01*
X012097Y008701D01*
X011992Y008745D01*
X011878Y008745D01*
X011780Y008704D02*
X011421Y008704D01*
X011515Y008606D02*
X011686Y008606D01*
X011649Y008507D02*
X011552Y008507D01*
X011552Y008409D02*
X011649Y008409D01*
X011687Y008310D02*
X011514Y008310D01*
X011417Y008212D02*
X011784Y008212D01*
X011825Y008015D02*
X011376Y008015D01*
X011505Y007916D02*
X011696Y007916D01*
X011653Y007817D02*
X011548Y007817D01*
X011552Y007719D02*
X011649Y007719D01*
X011679Y007620D02*
X011522Y007620D01*
X011442Y007522D02*
X011759Y007522D01*
X012221Y007719D02*
X013153Y007719D01*
X013173Y007698D02*
X013264Y007661D01*
X013313Y007661D01*
X013313Y007907D01*
X013313Y007907D01*
X013313Y007661D01*
X013362Y007661D01*
X013453Y007698D01*
X013522Y007768D01*
X013560Y007859D01*
X013560Y007907D01*
X013313Y007907D01*
X013066Y007907D01*
X013066Y007859D01*
X013104Y007768D01*
X013173Y007698D01*
X013313Y007719D02*
X013313Y007719D01*
X013313Y007817D02*
X013313Y007817D01*
X013313Y007907D02*
X013313Y007908D01*
X013313Y008155D01*
X013264Y008155D01*
X013173Y008117D01*
X013104Y008048D01*
X013066Y007957D01*
X013066Y007908D01*
X013313Y007908D01*
X013313Y007908D01*
X013313Y008155D01*
X013362Y008155D01*
X013453Y008117D01*
X013522Y008048D01*
X013560Y007957D01*
X013560Y007908D01*
X013313Y007908D01*
X013313Y007907D01*
X013313Y007916D02*
X013313Y007916D01*
X013313Y008015D02*
X013313Y008015D01*
X013313Y008113D02*
X013313Y008113D01*
X013169Y008113D02*
X010085Y008113D01*
X010085Y008015D02*
X010447Y008015D01*
X010318Y007916D02*
X010087Y007916D01*
X010130Y007817D02*
X010275Y007817D01*
X010271Y007719D02*
X010135Y007719D01*
X010104Y007620D02*
X010301Y007620D01*
X010381Y007522D02*
X010085Y007522D01*
X010085Y007226D02*
X010337Y007226D01*
X010283Y007128D02*
X010123Y007128D01*
X010135Y007029D02*
X010271Y007029D01*
X010293Y006931D02*
X010112Y006931D01*
X010085Y006832D02*
X010362Y006832D01*
X009730Y006733D02*
X008695Y006733D01*
X008689Y006739D02*
X008598Y006777D01*
X008500Y006777D01*
X008409Y006739D01*
X008340Y006670D01*
X008302Y006579D01*
X008302Y006481D01*
X008340Y006390D01*
X008409Y006320D01*
X008500Y006283D01*
X008598Y006283D01*
X008689Y006320D01*
X008759Y006390D01*
X008796Y006481D01*
X008796Y006579D01*
X008759Y006670D01*
X008689Y006739D01*
X008773Y006635D02*
X009730Y006635D01*
X009730Y006536D02*
X008796Y006536D01*
X008778Y006438D02*
X009730Y006438D01*
X009730Y006339D02*
X008708Y006339D01*
X008391Y006339D02*
X005991Y006339D01*
X005973Y006320D02*
X006042Y006390D01*
X006080Y006481D01*
X006080Y006530D01*
X006080Y006579D01*
X006042Y006670D01*
X005973Y006739D01*
X005882Y006777D01*
X005833Y006777D01*
X005833Y006530D01*
X005833Y006530D01*
X006080Y006530D01*
X005833Y006530D01*
X005833Y006530D01*
X005833Y006777D01*
X005784Y006777D01*
X005693Y006739D01*
X005623Y006670D01*
X005586Y006579D01*
X005586Y006530D01*
X005832Y006530D01*
X005832Y006530D01*
X005586Y006530D01*
X005586Y006481D01*
X005623Y006390D01*
X005693Y006320D01*
X005784Y006283D01*
X005833Y006283D01*
X005882Y006283D01*
X005973Y006320D01*
X005833Y006339D02*
X005833Y006339D01*
X005833Y006283D02*
X005833Y006529D01*
X005833Y006529D01*
X005833Y006283D01*
X005833Y006438D02*
X005833Y006438D01*
X005833Y006536D02*
X005833Y006536D01*
X005833Y006635D02*
X005833Y006635D01*
X005833Y006733D02*
X005833Y006733D01*
X005978Y006733D02*
X008404Y006733D01*
X008326Y006635D02*
X006056Y006635D01*
X006080Y006536D02*
X008302Y006536D01*
X008320Y006438D02*
X006062Y006438D01*
X005674Y006339D02*
X005017Y006339D01*
X005017Y006323D02*
X005017Y006421D01*
X004979Y006512D01*
X004910Y006582D01*
X004819Y006619D01*
X004721Y006619D01*
X004630Y006582D01*
X004560Y006512D01*
X004523Y006421D01*
X004523Y006323D01*
X004560Y006232D01*
X004630Y006163D01*
X004721Y006125D01*
X004819Y006125D01*
X004910Y006163D01*
X004979Y006232D01*
X005017Y006323D01*
X004982Y006241D02*
X009730Y006241D01*
X009730Y006142D02*
X004859Y006142D01*
X004680Y006142D02*
X001001Y006142D01*
X001001Y006044D02*
X009730Y006044D01*
X009455Y005945D02*
X001001Y005945D01*
X001001Y005847D02*
X004709Y005847D01*
X004768Y005871D02*
X004619Y005810D01*
X004506Y005696D01*
X004444Y005547D01*
X004444Y005515D01*
X004800Y005515D01*
X004800Y005418D01*
X004897Y005418D01*
X004897Y005062D01*
X004929Y005062D01*
X005078Y005124D01*
X005191Y005238D01*
X005253Y005386D01*
X005253Y005418D01*
X004897Y005418D01*
X004897Y005515D01*
X005253Y005515D01*
X005253Y005547D01*
X005191Y005696D01*
X005078Y005810D01*
X004929Y005871D01*
X004897Y005871D01*
X004897Y005515D01*
X004800Y005515D01*
X004800Y005871D01*
X004768Y005871D01*
X004800Y005847D02*
X004897Y005847D01*
X004988Y005847D02*
X009455Y005847D01*
X009455Y005748D02*
X005139Y005748D01*
X005210Y005649D02*
X006467Y005649D01*
X006470Y005652D02*
X006356Y005538D01*
X006295Y005390D01*
X006295Y005229D01*
X006356Y005080D01*
X006470Y004966D01*
X006618Y004905D01*
X006779Y004905D01*
X006928Y004966D01*
X007042Y005080D01*
X007103Y005229D01*
X007103Y005390D01*
X007042Y005538D01*
X006928Y005652D01*
X006779Y005714D01*
X006618Y005714D01*
X006470Y005652D01*
X006369Y005551D02*
X005251Y005551D01*
X005239Y005354D02*
X006295Y005354D01*
X006295Y005255D02*
X005199Y005255D01*
X005110Y005157D02*
X006324Y005157D01*
X006378Y005058D02*
X001001Y005058D01*
X001001Y004960D02*
X006486Y004960D01*
X006911Y004960D02*
X007063Y004960D01*
X007020Y005058D02*
X009455Y005058D01*
X009455Y004960D02*
X007437Y004960D01*
X007447Y005062D02*
X007398Y005062D01*
X007307Y005100D01*
X007238Y005169D01*
X007200Y005260D01*
X007200Y005309D01*
X007446Y005309D01*
X007446Y005309D01*
X007200Y005309D01*
X007200Y005358D01*
X007238Y005449D01*
X007307Y005519D01*
X007398Y005556D01*
X007447Y005556D01*
X007447Y005310D01*
X007447Y005310D01*
X007447Y005556D01*
X007496Y005556D01*
X007587Y005519D01*
X007656Y005449D01*
X007694Y005358D01*
X007694Y005309D01*
X007447Y005309D01*
X007447Y005062D01*
X007496Y005062D01*
X007587Y005100D01*
X007656Y005169D01*
X007694Y005260D01*
X007694Y005309D01*
X007447Y005309D01*
X007447Y005309D01*
X007447Y005309D01*
X007447Y005062D01*
X007447Y005157D02*
X007447Y005157D01*
X007447Y005255D02*
X007447Y005255D01*
X007447Y005354D02*
X007447Y005354D01*
X007447Y005452D02*
X007447Y005452D01*
X007447Y005551D02*
X007447Y005551D01*
X007509Y005551D02*
X009455Y005551D01*
X009455Y005649D02*
X006930Y005649D01*
X007029Y005551D02*
X007385Y005551D01*
X007241Y005452D02*
X007077Y005452D01*
X007103Y005354D02*
X007200Y005354D01*
X007202Y005255D02*
X007103Y005255D01*
X007073Y005157D02*
X007250Y005157D01*
X007009Y004861D02*
X001001Y004861D01*
X001001Y004763D02*
X007003Y004763D01*
X007014Y004664D02*
X001001Y004664D01*
X001001Y004566D02*
X007014Y004566D01*
X007014Y004467D02*
X001001Y004467D01*
X001001Y005157D02*
X004587Y005157D01*
X004619Y005124D02*
X004768Y005062D01*
X004800Y005062D01*
X004800Y005418D01*
X004444Y005418D01*
X004444Y005386D01*
X004506Y005238D01*
X004619Y005124D01*
X004498Y005255D02*
X001001Y005255D01*
X001001Y005354D02*
X004458Y005354D01*
X004446Y005551D02*
X001001Y005551D01*
X001001Y005649D02*
X004487Y005649D01*
X004558Y005748D02*
X001001Y005748D01*
X001001Y005452D02*
X004800Y005452D01*
X004897Y005452D02*
X006321Y005452D01*
X005604Y006438D02*
X005010Y006438D01*
X004955Y006536D02*
X005586Y006536D01*
X005609Y006635D02*
X001825Y006635D01*
X001845Y006655D02*
X001906Y006804D01*
X001906Y006965D01*
X001845Y007113D01*
X001731Y007227D01*
X001582Y007288D01*
X001422Y007288D01*
X001273Y007227D01*
X001159Y007113D01*
X001098Y006965D01*
X001098Y006804D01*
X001159Y006655D01*
X001273Y006541D01*
X001422Y006480D01*
X001582Y006480D01*
X001731Y006541D01*
X001845Y006655D01*
X001877Y006733D02*
X005687Y006733D01*
X004897Y005748D02*
X004800Y005748D01*
X004800Y005649D02*
X004897Y005649D01*
X004897Y005551D02*
X004800Y005551D01*
X004800Y005354D02*
X004897Y005354D01*
X004897Y005255D02*
X004800Y005255D01*
X004800Y005157D02*
X004897Y005157D01*
X004557Y006241D02*
X001001Y006241D01*
X001001Y006339D02*
X004523Y006339D01*
X004530Y006438D02*
X001001Y006438D01*
X001001Y006536D02*
X001285Y006536D01*
X001179Y006635D02*
X001001Y006635D01*
X001001Y006733D02*
X001127Y006733D01*
X001098Y006832D02*
X001001Y006832D01*
X001001Y006931D02*
X001098Y006931D01*
X001124Y007029D02*
X001001Y007029D01*
X001001Y007128D02*
X001174Y007128D01*
X001272Y007226D02*
X001001Y007226D01*
X001001Y007325D02*
X009730Y007325D01*
X009730Y007423D02*
X001001Y007423D01*
X001001Y007522D02*
X009672Y007522D01*
X009592Y007620D02*
X001001Y007620D01*
X001001Y007719D02*
X009562Y007719D01*
X009567Y007817D02*
X001001Y007817D01*
X001001Y007916D02*
X009609Y007916D01*
X009730Y008015D02*
X001001Y008015D01*
X001001Y008113D02*
X009730Y008113D01*
X009698Y008212D02*
X001001Y008212D01*
X001001Y008310D02*
X009600Y008310D01*
X009562Y008409D02*
X001001Y008409D01*
X001001Y008507D02*
X009562Y008507D01*
X009600Y008606D02*
X001001Y008606D01*
X001001Y008704D02*
X009693Y008704D01*
X009730Y008803D02*
X001001Y008803D01*
X001001Y008901D02*
X009730Y008901D01*
X009611Y009000D02*
X006605Y009000D01*
X006602Y008998D02*
X006672Y009067D01*
X006709Y009158D01*
X006709Y009207D01*
X006709Y009256D01*
X006672Y009347D01*
X006602Y009416D01*
X006512Y009454D01*
X006463Y009454D01*
X006463Y009207D01*
X006709Y009207D01*
X006463Y009207D01*
X006463Y009207D01*
X006462Y009207D01*
X006462Y009207D01*
X006216Y009207D01*
X006216Y009256D01*
X006253Y009347D01*
X006323Y009416D01*
X006414Y009454D01*
X006462Y009454D01*
X006462Y009207D01*
X006216Y009207D01*
X006216Y009158D01*
X006253Y009067D01*
X006323Y008998D01*
X006414Y008960D01*
X006462Y008960D01*
X006462Y009206D01*
X006463Y009206D01*
X006463Y008960D01*
X006512Y008960D01*
X006602Y008998D01*
X006685Y009099D02*
X009567Y009099D01*
X009562Y009197D02*
X006709Y009197D01*
X006693Y009296D02*
X009592Y009296D01*
X009670Y009394D02*
X008653Y009394D01*
X008680Y009421D02*
X008717Y009512D01*
X008717Y009610D01*
X008680Y009701D01*
X008610Y009771D01*
X008520Y009808D01*
X008421Y009808D01*
X008331Y009771D01*
X008261Y009701D01*
X008224Y009610D01*
X008224Y009512D01*
X008261Y009421D01*
X008331Y009352D01*
X008421Y009314D01*
X008520Y009314D01*
X008610Y009352D01*
X008680Y009421D01*
X008709Y009493D02*
X009730Y009493D01*
X009730Y009591D02*
X008717Y009591D01*
X008684Y009690D02*
X009730Y009690D01*
X009730Y009788D02*
X008567Y009788D01*
X008374Y009788D02*
X001001Y009788D01*
X001001Y009690D02*
X008257Y009690D01*
X008224Y009591D02*
X001001Y009591D01*
X001001Y009493D02*
X008232Y009493D01*
X008289Y009394D02*
X006625Y009394D01*
X006463Y009394D02*
X006462Y009394D01*
X006462Y009296D02*
X006463Y009296D01*
X006462Y009197D02*
X006463Y009197D01*
X006462Y009099D02*
X006463Y009099D01*
X006462Y009000D02*
X006463Y009000D01*
X006321Y009000D02*
X001001Y009000D01*
X001001Y009099D02*
X006240Y009099D01*
X006216Y009197D02*
X001001Y009197D01*
X001001Y009296D02*
X006232Y009296D01*
X006301Y009394D02*
X001001Y009394D01*
X001001Y009887D02*
X009730Y009887D01*
X009730Y009985D02*
X005335Y009985D01*
X005331Y009984D02*
X005421Y010021D01*
X005491Y010091D01*
X005528Y010181D01*
X005528Y010280D01*
X005491Y010370D01*
X005421Y010440D01*
X005331Y010477D01*
X005232Y010477D01*
X005142Y010440D01*
X005072Y010370D01*
X005035Y010280D01*
X005035Y010181D01*
X005072Y010091D01*
X005142Y010021D01*
X005232Y009984D01*
X005331Y009984D01*
X005228Y009985D02*
X001001Y009985D01*
X001001Y010084D02*
X005079Y010084D01*
X005035Y010182D02*
X001001Y010182D01*
X001001Y010281D02*
X005035Y010281D01*
X005081Y010380D02*
X001001Y010380D01*
X001001Y010478D02*
X008776Y010478D01*
X008775Y010476D02*
X008812Y010567D01*
X008882Y010637D01*
X008973Y010674D01*
X009071Y010674D01*
X009162Y010637D01*
X009231Y010567D01*
X009269Y010476D01*
X009269Y010378D01*
X009231Y010288D01*
X009162Y010218D01*
X009071Y010181D01*
X008973Y010181D01*
X008882Y010218D01*
X008812Y010288D01*
X008775Y010378D01*
X008775Y010476D01*
X008775Y010380D02*
X005482Y010380D01*
X005528Y010281D02*
X008819Y010281D01*
X008968Y010182D02*
X005528Y010182D01*
X005484Y010084D02*
X009730Y010084D01*
X009730Y010182D02*
X009075Y010182D01*
X009224Y010281D02*
X010833Y010281D01*
X010833Y010380D02*
X009874Y010380D01*
X009870Y010376D02*
X009940Y010445D01*
X009977Y010536D01*
X009977Y010585D01*
X009977Y010634D01*
X009940Y010725D01*
X009870Y010794D01*
X009779Y010832D01*
X009731Y010832D01*
X009731Y010585D01*
X009977Y010585D01*
X009731Y010585D01*
X009731Y010585D01*
X009730Y010585D01*
X009730Y010585D01*
X009484Y010585D01*
X009484Y010634D01*
X009521Y010725D01*
X009591Y010794D01*
X009681Y010832D01*
X009730Y010832D01*
X009730Y010585D01*
X009484Y010585D01*
X009484Y010536D01*
X009521Y010445D01*
X009591Y010376D01*
X009681Y010338D01*
X009730Y010338D01*
X009730Y010584D01*
X009731Y010584D01*
X009731Y010338D01*
X009779Y010338D01*
X009870Y010376D01*
X009953Y010478D02*
X010833Y010478D01*
X010833Y010577D02*
X009977Y010577D01*
X009960Y010675D02*
X010833Y010675D01*
X010833Y010774D02*
X009891Y010774D01*
X009731Y010774D02*
X009730Y010774D01*
X009730Y010675D02*
X009731Y010675D01*
X009730Y010577D02*
X009731Y010577D01*
X009730Y010478D02*
X009731Y010478D01*
X009730Y010380D02*
X009731Y010380D01*
X009587Y010380D02*
X009269Y010380D01*
X009268Y010478D02*
X009507Y010478D01*
X009484Y010577D02*
X009222Y010577D01*
X009501Y010675D02*
X001001Y010675D01*
X001001Y010577D02*
X008822Y010577D01*
X009570Y010774D02*
X001001Y010774D01*
X001001Y010872D02*
X010833Y010872D01*
X010833Y010971D02*
X001001Y010971D01*
X001001Y011069D02*
X010833Y011069D01*
X010833Y011168D02*
X001001Y011168D01*
X001001Y011266D02*
X010833Y011266D01*
X010833Y011365D02*
X001001Y011365D01*
X001001Y011464D02*
X004605Y011464D01*
X004538Y011562D02*
X001001Y011562D01*
X001001Y011956D02*
X013903Y011956D01*
X013893Y011933D02*
X013893Y011884D01*
X013893Y011835D01*
X013931Y011744D01*
X014000Y011675D01*
X014091Y011637D01*
X014140Y011637D01*
X014189Y011637D01*
X014280Y011675D01*
X014349Y011744D01*
X014387Y011835D01*
X014387Y011884D01*
X014140Y011884D01*
X014140Y011884D01*
X014387Y011884D01*
X014387Y011933D01*
X014349Y012024D01*
X014280Y012093D01*
X014189Y012131D01*
X014140Y012131D01*
X014140Y011884D01*
X014140Y011637D01*
X014140Y011884D01*
X014140Y011884D01*
X014140Y011884D01*
X014139Y011884D02*
X013893Y011884D01*
X014139Y011884D01*
X014139Y011884D01*
X014140Y011884D02*
X014140Y012131D01*
X014091Y012131D01*
X014000Y012093D01*
X013931Y012024D01*
X013893Y011933D01*
X013893Y011858D02*
X011029Y011858D01*
X011027Y011759D02*
X013924Y011759D01*
X014034Y011661D02*
X011026Y011661D01*
X011024Y011562D02*
X016098Y011562D01*
X016098Y011464D02*
X011022Y011464D01*
X011020Y011365D02*
X016098Y011365D01*
X016098Y011266D02*
X011019Y011266D01*
X011017Y011168D02*
X016098Y011168D01*
X016098Y011069D02*
X011015Y011069D01*
X011013Y010971D02*
X016098Y010971D01*
X016098Y010872D02*
X011011Y010872D01*
X011010Y010774D02*
X016098Y010774D01*
X016098Y010675D02*
X011008Y010675D01*
X011108Y010577D02*
X011109Y010577D01*
X011108Y010478D02*
X011109Y010478D01*
X011108Y010380D02*
X011109Y010380D01*
X011108Y010281D02*
X011109Y010281D01*
X011108Y010182D02*
X011109Y010182D01*
X011252Y010182D02*
X012901Y010182D01*
X012907Y010169D02*
X012976Y010100D01*
X013067Y010062D01*
X013116Y010062D01*
X013116Y010309D01*
X013116Y010309D01*
X012869Y010309D01*
X012869Y010260D01*
X012907Y010169D01*
X012869Y010281D02*
X011331Y010281D01*
X011355Y010380D02*
X012878Y010380D01*
X012869Y010358D02*
X012869Y010309D01*
X013116Y010309D01*
X013116Y010309D01*
X013116Y010062D01*
X013165Y010062D01*
X013256Y010100D01*
X013325Y010169D01*
X013363Y010260D01*
X013363Y010309D01*
X013117Y010309D01*
X013117Y010309D01*
X013363Y010309D01*
X013363Y010358D01*
X013325Y010449D01*
X013256Y010519D01*
X013165Y010556D01*
X013116Y010556D01*
X013067Y010556D01*
X012976Y010519D01*
X012907Y010449D01*
X012869Y010358D01*
X012936Y010478D02*
X011338Y010478D01*
X011269Y010577D02*
X016098Y010577D01*
X016098Y010478D02*
X013296Y010478D01*
X013354Y010380D02*
X016098Y010380D01*
X016098Y010281D02*
X013363Y010281D01*
X013331Y010182D02*
X016098Y010182D01*
X016098Y010084D02*
X013217Y010084D01*
X013116Y010084D02*
X013116Y010084D01*
X013116Y010182D02*
X013116Y010182D01*
X013116Y010281D02*
X013116Y010281D01*
X013116Y010310D02*
X013116Y010556D01*
X013116Y010310D01*
X013116Y010310D01*
X013116Y010380D02*
X013116Y010380D01*
X013116Y010478D02*
X013116Y010478D01*
X013015Y010084D02*
X010997Y010084D01*
X010996Y009985D02*
X015092Y009985D01*
X015134Y010003D02*
X015043Y009965D01*
X014974Y009896D01*
X014936Y009805D01*
X014936Y009707D01*
X014974Y009616D01*
X015043Y009547D01*
X015134Y009509D01*
X015232Y009509D01*
X015323Y009547D01*
X015392Y009616D01*
X015430Y009707D01*
X015430Y009805D01*
X015392Y009896D01*
X015323Y009965D01*
X015232Y010003D01*
X015134Y010003D01*
X015275Y009985D02*
X016098Y009985D01*
X016098Y009887D02*
X015396Y009887D01*
X015430Y009788D02*
X016098Y009788D01*
X016098Y009690D02*
X015423Y009690D01*
X015367Y009591D02*
X016098Y009591D01*
X016098Y009493D02*
X010085Y009493D01*
X010085Y009591D02*
X014999Y009591D01*
X014943Y009690D02*
X010990Y009690D01*
X010992Y009788D02*
X014936Y009788D01*
X014970Y009887D02*
X010994Y009887D01*
X011088Y009394D02*
X010735Y009394D01*
X010814Y009296D02*
X011009Y009296D01*
X010980Y009197D02*
X010843Y009197D01*
X010838Y009099D02*
X010985Y009099D01*
X011029Y009000D02*
X010794Y009000D01*
X010452Y008901D02*
X010085Y008901D01*
X010085Y008803D02*
X013083Y008803D01*
X013066Y008843D02*
X013104Y008752D01*
X013173Y008683D01*
X013264Y008645D01*
X013313Y008645D01*
X013313Y008892D01*
X013313Y008892D01*
X013066Y008892D01*
X013066Y008941D01*
X013104Y009032D01*
X013173Y009101D01*
X013264Y009139D01*
X013313Y009139D01*
X013313Y008892D01*
X013313Y008892D01*
X013313Y009139D01*
X013362Y009139D01*
X013453Y009101D01*
X013522Y009032D01*
X013560Y008941D01*
X013560Y008892D01*
X013313Y008892D01*
X013066Y008892D01*
X013066Y008843D01*
X013066Y008901D02*
X012041Y008901D01*
X012172Y009000D02*
X013091Y009000D01*
X013171Y009099D02*
X012216Y009099D01*
X012221Y009197D02*
X016098Y009197D01*
X016098Y009099D02*
X013456Y009099D01*
X013536Y009000D02*
X016098Y009000D01*
X016098Y008901D02*
X013560Y008901D01*
X013560Y008892D02*
X013313Y008892D01*
X013313Y008892D01*
X013313Y008892D01*
X013313Y008645D01*
X013362Y008645D01*
X013453Y008683D01*
X013522Y008752D01*
X013560Y008843D01*
X013560Y008892D01*
X013543Y008803D02*
X016098Y008803D01*
X016098Y008704D02*
X013475Y008704D01*
X013313Y008704D02*
X013313Y008704D01*
X013313Y008803D02*
X013313Y008803D01*
X013313Y008901D02*
X013313Y008901D01*
X013313Y009000D02*
X013313Y009000D01*
X013313Y009099D02*
X013313Y009099D01*
X013152Y008704D02*
X012090Y008704D01*
X012184Y008606D02*
X016098Y008606D01*
X016098Y008507D02*
X012221Y008507D01*
X012221Y008409D02*
X016098Y008409D01*
X016098Y008310D02*
X012183Y008310D01*
X012086Y008212D02*
X016098Y008212D01*
X016098Y008113D02*
X013457Y008113D01*
X013536Y008015D02*
X016098Y008015D01*
X016098Y007916D02*
X013560Y007916D01*
X013543Y007817D02*
X016098Y007817D01*
X016098Y007719D02*
X013473Y007719D01*
X013083Y007817D02*
X012217Y007817D01*
X012174Y007916D02*
X013066Y007916D01*
X013090Y008015D02*
X012045Y008015D01*
X011698Y009000D02*
X011503Y009000D01*
X011547Y009099D02*
X011654Y009099D01*
X011649Y009197D02*
X011552Y009197D01*
X011523Y009296D02*
X011678Y009296D01*
X011757Y009394D02*
X011444Y009394D01*
X012113Y009394D02*
X016098Y009394D01*
X016098Y009296D02*
X012192Y009296D01*
X010379Y009394D02*
X010085Y009394D01*
X010105Y009296D02*
X010300Y009296D01*
X010271Y009197D02*
X010135Y009197D01*
X010130Y009099D02*
X010276Y009099D01*
X010320Y009000D02*
X010086Y009000D01*
X010085Y008704D02*
X010402Y008704D01*
X010308Y008606D02*
X010097Y008606D01*
X010135Y008507D02*
X010271Y008507D01*
X010271Y008409D02*
X010135Y008409D01*
X010097Y008310D02*
X010309Y008310D01*
X010406Y008212D02*
X010085Y008212D01*
X009628Y007226D02*
X001732Y007226D01*
X001830Y007128D02*
X009574Y007128D01*
X009562Y007029D02*
X001880Y007029D01*
X001906Y006931D02*
X009585Y006931D01*
X009653Y006832D02*
X001906Y006832D01*
X001719Y006536D02*
X004585Y006536D01*
X007368Y003777D02*
X014258Y003777D01*
X014228Y003679D02*
X007368Y003679D01*
X007368Y003580D02*
X014238Y003580D01*
X014298Y003482D02*
X007368Y003482D01*
X007368Y003087D02*
X009757Y003087D01*
X009652Y002989D02*
X007368Y002989D01*
X007368Y002890D02*
X009621Y002890D01*
X009632Y002792D02*
X007368Y002792D01*
X007368Y002693D02*
X009692Y002693D01*
X010044Y002693D02*
X014695Y002693D01*
X014597Y002595D02*
X007368Y002595D01*
X007368Y002496D02*
X013220Y002496D01*
X013193Y002485D02*
X013123Y002416D01*
X013086Y002325D01*
X013086Y002227D01*
X013123Y002136D01*
X013193Y002067D01*
X013284Y002029D01*
X013382Y002029D01*
X013473Y002067D01*
X013542Y002136D01*
X013580Y002227D01*
X013580Y002325D01*
X013542Y002416D01*
X013473Y002485D01*
X013382Y002523D01*
X013284Y002523D01*
X013193Y002485D01*
X013116Y002398D02*
X007368Y002398D01*
X007368Y002299D02*
X013086Y002299D01*
X013097Y002200D02*
X008337Y002200D01*
X008315Y002210D02*
X008283Y002210D01*
X008283Y001854D01*
X008186Y001854D01*
X008186Y002210D01*
X008154Y002210D01*
X008005Y002148D01*
X007892Y002034D01*
X007830Y001886D01*
X007830Y001854D01*
X008186Y001854D01*
X008186Y001757D01*
X007830Y001757D01*
X007830Y001725D01*
X007892Y001576D01*
X008005Y001463D01*
X008154Y001401D01*
X008186Y001401D01*
X008186Y001757D01*
X008283Y001757D01*
X008283Y001854D01*
X008639Y001854D01*
X008639Y001886D01*
X008577Y002034D01*
X008463Y002148D01*
X008315Y002210D01*
X008283Y002200D02*
X008186Y002200D01*
X008132Y002200D02*
X007368Y002200D01*
X007368Y002102D02*
X007959Y002102D01*
X007879Y002003D02*
X007368Y002003D01*
X007368Y001905D02*
X007838Y001905D01*
X007837Y001708D02*
X007368Y001708D01*
X007368Y001806D02*
X008186Y001806D01*
X008283Y001806D02*
X014424Y001806D01*
X014424Y001905D02*
X008631Y001905D01*
X008590Y002003D02*
X014424Y002003D01*
X014424Y002102D02*
X013508Y002102D01*
X013569Y002200D02*
X014424Y002200D01*
X014464Y002299D02*
X013580Y002299D01*
X013550Y002398D02*
X014505Y002398D01*
X014546Y002496D02*
X013446Y002496D01*
X013158Y002102D02*
X008510Y002102D01*
X008283Y002102D02*
X008186Y002102D01*
X008186Y002003D02*
X008283Y002003D01*
X008283Y001905D02*
X008186Y001905D01*
X008283Y001757D02*
X008639Y001757D01*
X008639Y001725D01*
X008577Y001576D01*
X008463Y001463D01*
X008315Y001401D01*
X008283Y001401D01*
X008283Y001757D01*
X008283Y001708D02*
X008186Y001708D01*
X008186Y001609D02*
X008283Y001609D01*
X008283Y001511D02*
X008186Y001511D01*
X008186Y001412D02*
X008283Y001412D01*
X008342Y001412D02*
X014594Y001412D01*
X014544Y001511D02*
X008511Y001511D01*
X008591Y001609D02*
X014504Y001609D01*
X014463Y001708D02*
X008631Y001708D01*
X008127Y001412D02*
X007368Y001412D01*
X007368Y001511D02*
X007957Y001511D01*
X007878Y001609D02*
X007368Y001609D01*
X007497Y004763D02*
X009455Y004763D01*
X009455Y004861D02*
X007491Y004861D01*
X007644Y005157D02*
X009455Y005157D01*
X009455Y005255D02*
X007692Y005255D01*
X007694Y005354D02*
X009455Y005354D01*
X009455Y005452D02*
X007653Y005452D01*
X009809Y005649D02*
X010092Y005649D01*
X010085Y005847D02*
X010097Y005847D01*
X010085Y005945D02*
X010175Y005945D01*
X011551Y004664D02*
X016098Y004664D01*
X016098Y004566D02*
X011591Y004566D01*
X011589Y004467D02*
X016098Y004467D01*
X016098Y004368D02*
X011540Y004368D01*
X015946Y002890D02*
X016098Y002890D01*
X016084Y002792D02*
X016098Y002792D01*
X010833Y011464D02*
X004935Y011464D01*
X005001Y011562D02*
X010833Y011562D01*
X011785Y012453D02*
X011747Y012544D01*
X011747Y012593D01*
X011994Y012593D01*
X011994Y012840D01*
X011945Y012840D01*
X011854Y012802D01*
X011785Y012733D01*
X011747Y012642D01*
X011747Y012593D01*
X011994Y012593D01*
X011994Y012593D01*
X011994Y012593D01*
X011994Y012840D01*
X012043Y012840D01*
X012134Y012802D01*
X012203Y012733D01*
X012241Y012642D01*
X012241Y012593D01*
X011995Y012593D01*
X011995Y012593D01*
X012241Y012593D01*
X012241Y012544D01*
X012203Y012453D01*
X012134Y012383D01*
X012043Y012346D01*
X011994Y012346D01*
X011945Y012346D01*
X011854Y012383D01*
X011785Y012453D01*
X011789Y012449D02*
X005469Y012449D01*
X005469Y012482D02*
X005432Y012573D01*
X005362Y012643D01*
X005272Y012680D01*
X005173Y012680D01*
X005083Y012643D01*
X005013Y012573D01*
X004976Y012482D01*
X004976Y012384D01*
X005013Y012293D01*
X005083Y012224D01*
X005173Y012186D01*
X005272Y012186D01*
X005362Y012224D01*
X005432Y012293D01*
X005469Y012384D01*
X005469Y012482D01*
X005442Y012548D02*
X011747Y012548D01*
X011749Y012646D02*
X005354Y012646D01*
X005455Y012350D02*
X011934Y012350D01*
X011994Y012350D02*
X011994Y012350D01*
X011994Y012346D02*
X011994Y012592D01*
X011994Y012592D01*
X011994Y012346D01*
X012054Y012350D02*
X014661Y012350D01*
X014661Y012364D02*
X014698Y012455D01*
X014768Y012524D01*
X014858Y012562D01*
X014957Y012562D01*
X015047Y012524D01*
X015117Y012455D01*
X015154Y012364D01*
X015154Y012266D01*
X015117Y012175D01*
X015047Y012106D01*
X014957Y012068D01*
X014858Y012068D01*
X014768Y012106D01*
X014698Y012175D01*
X014661Y012266D01*
X014661Y012364D01*
X014696Y012449D02*
X012199Y012449D01*
X012241Y012548D02*
X014823Y012548D01*
X014992Y012548D02*
X016098Y012548D01*
X016098Y012646D02*
X012239Y012646D01*
X012191Y012745D02*
X016098Y012745D01*
X016098Y012843D02*
X010612Y012843D01*
X010638Y012854D02*
X010707Y012923D01*
X010745Y013014D01*
X010745Y013112D01*
X010707Y013203D01*
X010638Y013272D01*
X010547Y013310D01*
X010449Y013310D01*
X010358Y013272D01*
X010289Y013203D01*
X010251Y013112D01*
X010251Y013014D01*
X010289Y012923D01*
X010358Y012854D01*
X010449Y012816D01*
X010547Y012816D01*
X010638Y012854D01*
X010715Y012942D02*
X016098Y012942D01*
X016098Y013040D02*
X010745Y013040D01*
X010734Y013139D02*
X016098Y013139D01*
X016098Y013237D02*
X010673Y013237D01*
X010323Y013237D02*
X009610Y013237D01*
X009644Y013203D02*
X009575Y013272D01*
X009484Y013310D01*
X009386Y013310D01*
X009295Y013272D01*
X009226Y013203D01*
X009188Y013112D01*
X009188Y013014D01*
X009226Y012923D01*
X009295Y012854D01*
X009386Y012816D01*
X009484Y012816D01*
X009575Y012854D01*
X009644Y012923D01*
X009682Y013014D01*
X009682Y013112D01*
X009644Y013203D01*
X009671Y013139D02*
X010262Y013139D01*
X010251Y013040D02*
X009682Y013040D01*
X009652Y012942D02*
X010281Y012942D01*
X010384Y012843D02*
X009549Y012843D01*
X009321Y012843D02*
X001001Y012843D01*
X001001Y012745D02*
X011797Y012745D01*
X011994Y012745D02*
X011994Y012745D01*
X011994Y012646D02*
X011994Y012646D01*
X011994Y012548D02*
X011994Y012548D01*
X011994Y012449D02*
X011994Y012449D01*
X013596Y013632D02*
X013558Y013723D01*
X013558Y013821D01*
X013596Y013912D01*
X013665Y013981D01*
X013756Y014019D01*
X013854Y014019D01*
X013945Y013981D01*
X014014Y013912D01*
X014052Y013821D01*
X014052Y013723D01*
X014014Y013632D01*
X013945Y013563D01*
X013854Y013525D01*
X013756Y013525D01*
X013665Y013563D01*
X013596Y013632D01*
X013596Y013631D02*
X002338Y013631D01*
X002322Y013593D02*
X002359Y013683D01*
X002359Y013782D01*
X002322Y013872D01*
X002252Y013942D01*
X002161Y013979D01*
X002063Y013979D01*
X001972Y013942D01*
X001903Y013872D01*
X001865Y013782D01*
X001865Y013683D01*
X001903Y013593D01*
X001972Y013523D01*
X002063Y013486D01*
X002161Y013486D01*
X002252Y013523D01*
X002322Y013593D01*
X002262Y013533D02*
X013737Y013533D01*
X013873Y013533D02*
X016098Y013533D01*
X016098Y013631D02*
X014014Y013631D01*
X014052Y013730D02*
X016098Y013730D01*
X016098Y013829D02*
X014049Y013829D01*
X013999Y013927D02*
X016098Y013927D01*
X016098Y014026D02*
X001001Y014026D01*
X001001Y014124D02*
X016098Y014124D01*
X016098Y014223D02*
X001001Y014223D01*
X001001Y014321D02*
X002670Y014321D01*
X002681Y014311D02*
X002772Y014273D01*
X002870Y014273D01*
X002961Y014311D01*
X003030Y014380D01*
X003068Y014471D01*
X003068Y014569D01*
X003030Y014660D01*
X002961Y014729D01*
X002870Y014767D01*
X002772Y014767D01*
X002681Y014729D01*
X002612Y014660D01*
X002574Y014569D01*
X002574Y014471D01*
X002612Y014380D01*
X002681Y014311D01*
X002595Y014420D02*
X001001Y014420D01*
X001001Y014518D02*
X002574Y014518D01*
X002594Y014617D02*
X001001Y014617D01*
X001001Y014715D02*
X002667Y014715D01*
X002974Y014715D02*
X005738Y014715D01*
X005752Y014729D02*
X005683Y014660D01*
X005645Y014569D01*
X005645Y014471D01*
X005683Y014380D01*
X005752Y014311D01*
X005843Y014273D01*
X005941Y014273D01*
X006032Y014311D01*
X006101Y014380D01*
X006139Y014471D01*
X006139Y014569D01*
X006101Y014660D01*
X006032Y014729D01*
X005941Y014767D01*
X005843Y014767D01*
X005752Y014729D01*
X005665Y014617D02*
X003048Y014617D01*
X003068Y014518D02*
X005645Y014518D01*
X005666Y014420D02*
X003047Y014420D01*
X002971Y014321D02*
X005741Y014321D01*
X006042Y014321D02*
X007592Y014321D01*
X007602Y014311D02*
X007693Y014273D01*
X007791Y014273D01*
X007882Y014311D01*
X007951Y014380D01*
X007989Y014471D01*
X007989Y014569D01*
X007951Y014660D01*
X007882Y014729D01*
X007791Y014767D01*
X007693Y014767D01*
X007602Y014729D01*
X007533Y014660D01*
X007495Y014569D01*
X007495Y014471D01*
X007533Y014380D01*
X007602Y014311D01*
X007516Y014420D02*
X006118Y014420D01*
X006139Y014518D02*
X007495Y014518D01*
X007515Y014617D02*
X006119Y014617D01*
X006045Y014715D02*
X007589Y014715D01*
X007896Y014715D02*
X013415Y014715D01*
X013429Y014729D02*
X013360Y014660D01*
X013322Y014569D01*
X013322Y014471D01*
X013360Y014380D01*
X013429Y014311D01*
X013520Y014273D01*
X013618Y014273D01*
X013709Y014311D01*
X013778Y014380D01*
X013816Y014471D01*
X013816Y014569D01*
X013778Y014660D01*
X013709Y014729D01*
X013618Y014767D01*
X013520Y014767D01*
X013429Y014729D01*
X013342Y014617D02*
X007969Y014617D01*
X007989Y014518D02*
X013322Y014518D01*
X013343Y014420D02*
X007968Y014420D01*
X007893Y014321D02*
X013418Y014321D01*
X013719Y014321D02*
X016098Y014321D01*
X016098Y014420D02*
X013795Y014420D01*
X013816Y014518D02*
X016098Y014518D01*
X016098Y014617D02*
X013796Y014617D01*
X013722Y014715D02*
X016098Y014715D01*
X016098Y014814D02*
X015754Y014814D01*
X015992Y014913D02*
X016098Y014913D01*
X015124Y014814D02*
X001974Y014814D01*
X002212Y014913D02*
X012985Y014913D01*
X012996Y014901D02*
X013087Y014864D01*
X013185Y014864D01*
X013276Y014901D01*
X013345Y014971D01*
X013383Y015061D01*
X013383Y015160D01*
X013345Y015250D01*
X013276Y015320D01*
X013185Y015357D01*
X013087Y015357D01*
X012996Y015320D01*
X012927Y015250D01*
X012889Y015160D01*
X012889Y015061D01*
X012927Y014971D01*
X012996Y014901D01*
X012910Y015011D02*
X002324Y015011D01*
X002422Y015110D02*
X012889Y015110D01*
X012909Y015208D02*
X002520Y015208D01*
X002561Y015307D02*
X012983Y015307D01*
X013289Y015307D02*
X014538Y015307D01*
X014497Y015405D02*
X002602Y015405D01*
X002643Y015504D02*
X014456Y015504D01*
X014424Y015602D02*
X002674Y015602D01*
X002674Y015701D02*
X014424Y015701D01*
X014424Y015799D02*
X002674Y015799D01*
X002674Y015898D02*
X014424Y015898D01*
X014430Y015997D02*
X002669Y015997D01*
X002628Y016095D02*
X014471Y016095D01*
X014512Y016194D02*
X002587Y016194D01*
X002546Y016292D02*
X014552Y016292D01*
X014613Y016391D02*
X002485Y016391D01*
X001345Y014814D02*
X001001Y014814D01*
X001001Y014913D02*
X001107Y014913D01*
X001001Y013927D02*
X001958Y013927D01*
X001885Y013829D02*
X001001Y013829D01*
X001001Y013730D02*
X001865Y013730D01*
X001887Y013631D02*
X001001Y013631D01*
X001001Y013533D02*
X001963Y013533D01*
X002359Y013730D02*
X013558Y013730D01*
X013561Y013829D02*
X002340Y013829D01*
X002267Y013927D02*
X013611Y013927D01*
X013287Y014913D02*
X014886Y014913D01*
X014775Y015011D02*
X013362Y015011D01*
X013383Y015110D02*
X014676Y015110D01*
X014578Y015208D02*
X013363Y015208D01*
X015119Y012449D02*
X016098Y012449D01*
X016098Y012350D02*
X015154Y012350D01*
X015148Y012252D02*
X016098Y012252D01*
X016098Y012153D02*
X015095Y012153D01*
X014720Y012153D02*
X001001Y012153D01*
X001001Y012055D02*
X013961Y012055D01*
X014140Y012055D02*
X014140Y012055D01*
X014140Y011956D02*
X014140Y011956D01*
X014140Y011858D02*
X014140Y011858D01*
X014140Y011759D02*
X014140Y011759D01*
X014140Y011661D02*
X014140Y011661D01*
X014245Y011661D02*
X016098Y011661D01*
X016098Y011759D02*
X014355Y011759D01*
X014387Y011858D02*
X016098Y011858D01*
X016098Y011956D02*
X014377Y011956D01*
X014318Y012055D02*
X016098Y012055D01*
X016098Y013336D02*
X001001Y013336D01*
X001001Y013434D02*
X016098Y013434D01*
X014667Y012252D02*
X005390Y012252D01*
X005055Y012252D02*
X001001Y012252D01*
X001001Y012350D02*
X004990Y012350D01*
X004976Y012449D02*
X001001Y012449D01*
X001001Y012548D02*
X005003Y012548D01*
X005091Y012646D02*
X001001Y012646D01*
X001001Y012942D02*
X009218Y012942D01*
X009188Y013040D02*
X001001Y013040D01*
X001001Y013139D02*
X009199Y013139D01*
X009260Y013237D02*
X001001Y013237D01*
D13*
X009849Y009168D03*
X010557Y009168D03*
X011266Y009168D03*
X011935Y009168D03*
X011935Y008459D03*
X011266Y008459D03*
X011266Y007750D03*
X011935Y007750D03*
X011935Y007042D03*
X011266Y007042D03*
X010557Y007042D03*
X010557Y007750D03*
X009849Y007750D03*
X009849Y007042D03*
X009849Y008459D03*
X010557Y008459D03*
M02*
