%
M48
M72
T01C0.0157
T02C0.0197
T03C0.0354
T04C0.0394
T05C0.0591
T06C0.1378
%
T01
X3703Y1420
X3703Y2207
X3703Y2995
X4884Y2916
X4884Y3506
X5081Y4097
X5672Y3900
X6262Y3900
X5475Y3113
X5475Y2522
X4884Y2325
X4884Y4884
X4884Y5475
X4884Y6262
X4884Y7050
X4884Y7640
X5278Y8034
X3703Y6735
X3703Y5947
X2817Y7109
X3566Y7719
X3014Y9412
X4097Y10810
X4097Y11597
X5743Y11081
X5731Y10140
X6302Y10219
X7483Y10416
X7483Y9825
X7877Y9432
X7837Y7837
X8231Y7247
X8625Y7837
X7247Y6066
X9609Y5672
X9609Y5081
X9609Y4491
X10396Y4491
X10396Y5081
X10396Y5672
X11774Y7247
X11577Y8034
X11026Y9235
X12601Y9235
X13743Y9195
X13743Y9983
X14294Y10593
X14747Y9806
X15081Y10534
X13034Y11066
X10849Y14117
X10042Y14117
X9314Y14215
X8329Y15022
X7345Y14825
X7345Y14038
X5377Y14825
X4589Y14825
X3802Y14629
X3014Y14629
X2522Y13979
X7680Y11026
X8684Y11125
X12168Y6459
X12365Y5081
X14727Y4884
X15014Y5392
X15121Y4294
X15121Y3703
X15121Y3113
X14924Y2522
X14924Y2522
X14333Y2522
X13743Y1932
X13152Y2129
X9215Y1735
X9215Y947
T02
X12562Y3113
T03
X12040Y751
X10721Y751
X7758Y751
X5947Y751
X711Y3753
X711Y5071
X731Y7276
X731Y8595
T04
X2837Y3408
X8428Y3113
X9428Y3113
X10428Y3113
X15121Y6853
X15121Y7837
T05
X3046Y10424
X2046Y11424
X3046Y12424
X1046Y12424
X1046Y10424
T06
X1144Y1144
X1144Y14924
X14924Y14924
X14924Y1144
M30
