G75*
G70*
%OFA0B0*%
%FSLAX24Y24*%
%IPPOS*%
%LPD*%
%AMOC8*
5,1,8,0,0,1.08239X$1,22.5*
%
%ADD10C,0.1458*%
%ADD11R,0.0710X0.0710*%
%ADD12R,0.0395X0.0395*%
%ADD13R,0.0493X0.0474*%
%ADD14R,0.0946X0.0493*%
%ADD15R,0.0474X0.0395*%
%ADD16R,0.0946X0.0198*%
%ADD17R,0.0395X0.0474*%
%ADD18R,0.0277X0.0277*%
%ADD19R,0.0277X0.0277*%
%ADD20C,0.1000*%
%ADD21C,0.1080*%
%ADD22R,0.0886X0.0886*%
%ADD23R,0.0966X0.0966*%
%ADD24R,0.0946X0.0552*%
%ADD25R,0.0789X0.0356*%
%ADD26C,0.0434*%
%ADD27R,0.0277X0.0237*%
%ADD28R,0.0474X0.0493*%
%ADD29R,0.0493X0.0946*%
%ADD30R,0.0552X0.0946*%
%ADD31R,0.0356X0.0789*%
%ADD32C,0.0276*%
%ADD33C,0.0356*%
%ADD34C,0.0591*%
%ADD35C,0.0671*%
%ADD36R,0.0591X0.0591*%
%ADD37R,0.0671X0.0671*%
%ADD38R,0.0315X0.0315*%
D10*
X001144Y001144D03*
X001144Y014924D03*
X014924Y014924D03*
X014924Y001144D03*
D11*
X014188Y007837D03*
X012928Y007837D03*
X002798Y002593D03*
X002798Y001333D03*
D12*
X003251Y004215D03*
X003251Y004845D03*
X011420Y014116D03*
X012050Y014116D03*
X012562Y003113D03*
D13*
X012945Y003900D03*
X012945Y005869D03*
X010465Y010239D03*
X013969Y012888D03*
X007060Y007050D03*
X007060Y005081D03*
D14*
X006459Y004501D03*
X006459Y005662D03*
X006459Y006469D03*
X006459Y007630D03*
X009865Y009658D03*
X009865Y010819D03*
X013546Y006449D03*
X013546Y005288D03*
X013546Y004481D03*
X013546Y003319D03*
X014569Y012308D03*
X014569Y013469D03*
D15*
X013132Y013418D03*
X013132Y012414D03*
X011627Y012414D03*
X011627Y012916D03*
X011627Y013418D03*
X010928Y013113D03*
X010928Y012483D03*
X006440Y011499D03*
X006440Y010869D03*
X005514Y012276D03*
X005514Y013280D03*
X006341Y014117D03*
X006341Y014747D03*
X004008Y013280D03*
X004008Y012778D03*
X004008Y012276D03*
D16*
X007463Y012148D03*
X007463Y011892D03*
X007463Y011636D03*
X007463Y012404D03*
X007463Y012660D03*
X007463Y012916D03*
X007463Y013172D03*
X010061Y013172D03*
X010061Y012916D03*
X010061Y012660D03*
X010061Y012404D03*
X010061Y012148D03*
X010061Y011892D03*
X010061Y011636D03*
X011302Y006233D03*
X011302Y005977D03*
X011302Y005721D03*
X011302Y005465D03*
X011302Y005209D03*
X011302Y004953D03*
X011302Y004697D03*
X011302Y004441D03*
X011302Y004186D03*
X011302Y003930D03*
X008703Y003930D03*
X008703Y004186D03*
X008703Y004441D03*
X008703Y004697D03*
X008703Y004953D03*
X008703Y005209D03*
X008703Y005465D03*
X008703Y005721D03*
X008703Y005977D03*
X008703Y006233D03*
D17*
X011459Y003310D03*
X012089Y003310D03*
G36*
X012317Y009529D02*
X011976Y009332D01*
X011739Y009741D01*
X012080Y009938D01*
X012317Y009529D01*
G37*
G36*
X013187Y010031D02*
X012846Y009834D01*
X012609Y010243D01*
X012950Y010440D01*
X013187Y010031D01*
G37*
G36*
X012434Y011335D02*
X012093Y011138D01*
X011856Y011547D01*
X012197Y011744D01*
X012434Y011335D01*
G37*
G36*
X011999Y011084D02*
X011658Y010887D01*
X011421Y011296D01*
X011762Y011493D01*
X011999Y011084D01*
G37*
G36*
X011564Y010833D02*
X011223Y010636D01*
X010986Y011045D01*
X011327Y011242D01*
X011564Y010833D01*
G37*
D18*
G36*
X010895Y011209D02*
X010757Y011447D01*
X010995Y011585D01*
X011133Y011347D01*
X010895Y011209D01*
G37*
G36*
X010698Y011550D02*
X010560Y011788D01*
X010798Y011926D01*
X010936Y011688D01*
X010698Y011550D01*
G37*
G36*
X011260Y011783D02*
X011022Y011921D01*
X011160Y012159D01*
X011398Y012021D01*
X011260Y011783D01*
G37*
G36*
X011601Y011586D02*
X011363Y011724D01*
X011501Y011962D01*
X011739Y011824D01*
X011601Y011586D01*
G37*
D19*
X008526Y010475D03*
X008526Y010081D03*
X006538Y012188D03*
X006144Y012188D03*
X006144Y012562D03*
X006538Y012562D03*
X006538Y013034D03*
X006538Y013428D03*
X006144Y013428D03*
X006144Y013034D03*
X008231Y013723D03*
X008231Y014117D03*
X005278Y010593D03*
X004884Y010593D03*
X012589Y002652D03*
X012983Y002652D03*
D20*
X002046Y011424D03*
D21*
X002046Y011424D03*
D22*
X003046Y012424D03*
X001046Y012424D03*
X001046Y010424D03*
X003046Y010424D03*
D23*
X003046Y010424D03*
X001046Y010424D03*
X001046Y012424D03*
X003046Y012424D03*
D24*
X001176Y009343D03*
X001176Y006528D03*
X001156Y005819D03*
X001156Y003004D03*
D25*
X002286Y004166D03*
X002286Y004658D03*
X002306Y007690D03*
X002306Y008182D03*
D26*
X000731Y008595D03*
X000731Y007276D03*
X000711Y005071D03*
X000711Y003753D03*
X005947Y000751D03*
X007758Y000751D03*
X010721Y000751D03*
X012040Y000751D03*
D27*
X005420Y009353D03*
X005420Y009865D03*
X004672Y009865D03*
X004672Y009609D03*
X004672Y009353D03*
D28*
X010003Y006843D03*
D29*
X010583Y007443D03*
X009422Y007443D03*
D30*
X008520Y001262D03*
X009973Y001195D03*
X012788Y001195D03*
X005186Y001262D03*
D31*
X006361Y002325D03*
X006853Y002325D03*
X007345Y002325D03*
X011134Y002325D03*
X011627Y002325D03*
D32*
X013152Y002129D03*
X013743Y001932D03*
X014333Y002522D03*
X014924Y002522D03*
X014924Y002522D03*
X015121Y003113D03*
X015121Y003703D03*
X015121Y004294D03*
X014727Y004884D03*
X015014Y005392D03*
X012365Y005081D03*
X012168Y006459D03*
X011774Y007247D03*
X011577Y008034D03*
X011026Y009235D03*
X012601Y009235D03*
X013743Y009195D03*
X013743Y009983D03*
X014294Y010593D03*
X014747Y009806D03*
X015081Y010534D03*
X013034Y011066D03*
X010849Y014117D03*
X010042Y014117D03*
X009314Y014215D03*
X008329Y015022D03*
X007345Y014825D03*
X007345Y014038D03*
X005377Y014825D03*
X004589Y014825D03*
X003802Y014629D03*
X003014Y014629D03*
X002522Y013979D03*
X004097Y011597D03*
X004097Y010810D03*
X003014Y009412D03*
X003566Y007719D03*
X002817Y007109D03*
X003703Y006735D03*
X003703Y005947D03*
X004884Y006262D03*
X004884Y005475D03*
X004884Y004884D03*
X005081Y004097D03*
X004884Y003506D03*
X004884Y002916D03*
X004884Y002325D03*
X005475Y002522D03*
X005475Y003113D03*
X005672Y003900D03*
X006262Y003900D03*
X007247Y006066D03*
X008231Y007247D03*
X008625Y007837D03*
X007837Y007837D03*
X007877Y009432D03*
X007483Y009825D03*
X007483Y010416D03*
X007680Y011026D03*
X008684Y011125D03*
X006302Y010219D03*
X005731Y010140D03*
X005743Y011081D03*
X005278Y008034D03*
X004884Y007640D03*
X004884Y007050D03*
X003703Y002995D03*
X003703Y002207D03*
X003703Y001420D03*
X009215Y001735D03*
X009215Y000947D03*
X009609Y004491D03*
X009609Y005081D03*
X009609Y005672D03*
X010396Y005672D03*
X010396Y005081D03*
X010396Y004491D03*
D33*
X010396Y004491D03*
X010396Y005081D03*
X010396Y005672D03*
X009609Y005672D03*
X009609Y005081D03*
X009609Y004491D03*
X007247Y006066D03*
X008231Y007247D03*
X008625Y007837D03*
X007837Y007837D03*
X007877Y009432D03*
X007483Y009825D03*
X007483Y010416D03*
X007680Y011026D03*
X008684Y011125D03*
X011026Y009235D03*
X011577Y008034D03*
X011774Y007247D03*
X012168Y006459D03*
X012365Y005081D03*
X014727Y004884D03*
X015014Y005392D03*
X015121Y004294D03*
X015121Y003703D03*
X015121Y003113D03*
X014924Y002522D03*
X014924Y002522D03*
X014333Y002522D03*
X013743Y001932D03*
X013152Y002129D03*
X009215Y001735D03*
X009215Y000947D03*
X006262Y003900D03*
X005672Y003900D03*
X005081Y004097D03*
X004884Y003506D03*
X004884Y002916D03*
X004884Y002325D03*
X005475Y002522D03*
X005475Y003113D03*
X003703Y002995D03*
X003703Y002207D03*
X003703Y001420D03*
X004884Y004884D03*
X004884Y005475D03*
X004884Y006262D03*
X004884Y007050D03*
X004884Y007640D03*
X005278Y008034D03*
X003703Y006735D03*
X003703Y005947D03*
X002817Y007109D03*
X003566Y007719D03*
X003014Y009412D03*
X004097Y010810D03*
X004097Y011597D03*
X005743Y011081D03*
X005731Y010140D03*
X006302Y010219D03*
X007345Y014038D03*
X007345Y014825D03*
X008329Y015022D03*
X009314Y014215D03*
X010042Y014117D03*
X010849Y014117D03*
X013034Y011066D03*
X013743Y009983D03*
X014294Y010593D03*
X014747Y009806D03*
X015081Y010534D03*
X013743Y009195D03*
X012601Y009235D03*
X005377Y014825D03*
X004589Y014825D03*
X003802Y014629D03*
X003014Y014629D03*
X002522Y013979D03*
D34*
X002837Y003408D03*
D35*
X002837Y003408D03*
D36*
X008428Y003113D03*
X009428Y003113D03*
X010428Y003113D03*
X015121Y006853D03*
X015121Y007837D03*
D37*
X015121Y007837D03*
X015121Y006853D03*
X010428Y003113D03*
X009428Y003113D03*
X008428Y003113D03*
D38*
X012562Y003113D03*
M02*
