G75*
G70*
%OFA0B0*%
%FSLAX24Y24*%
%IPPOS*%
%LPD*%
%AMOC8*
5,1,8,0,0,1.08239X$1,22.5*
%
%ADD10R,0.0630X0.0630*%
%ADD11R,0.0315X0.0315*%
%ADD12R,0.0413X0.0394*%
%ADD13R,0.0866X0.0413*%
%ADD14R,0.0394X0.0315*%
%ADD15R,0.0866X0.0118*%
%ADD16R,0.0315X0.0394*%
%ADD17R,0.0197X0.0197*%
%ADD18R,0.0197X0.0197*%
%ADD19C,0.1000*%
%ADD20R,0.0886X0.0886*%
%ADD21R,0.0866X0.0472*%
%ADD22R,0.0709X0.0276*%
%ADD23R,0.0197X0.0157*%
%ADD24R,0.0394X0.0413*%
%ADD25R,0.0413X0.0866*%
%ADD26R,0.0472X0.0866*%
%ADD27R,0.0276X0.0709*%
%ADD28C,0.0160*%
%ADD29C,0.0276*%
%ADD30C,0.0591*%
%ADD31C,0.0120*%
%ADD32C,0.0240*%
%ADD33C,0.0100*%
%ADD34C,0.0059*%
%ADD35R,0.0591X0.0591*%
%ADD36C,0.0320*%
D10*
X002798Y001333D03*
X002798Y002593D03*
X012928Y007837D03*
X014188Y007837D03*
D11*
X012562Y003113D03*
X003251Y004215D03*
X003251Y004845D03*
X011420Y014116D03*
X012050Y014116D03*
D12*
X013969Y012888D03*
X010465Y010239D03*
X007060Y007050D03*
X007060Y005081D03*
X012945Y005869D03*
X012945Y003900D03*
D13*
X013546Y003319D03*
X013546Y004481D03*
X013546Y005288D03*
X013546Y006449D03*
X009865Y009658D03*
X009865Y010819D03*
X006459Y007630D03*
X006459Y006469D03*
X006459Y005662D03*
X006459Y004501D03*
X014569Y012308D03*
X014569Y013469D03*
D14*
X013132Y013418D03*
X013132Y012414D03*
X011627Y012414D03*
X011627Y012916D03*
X011627Y013418D03*
X010928Y013113D03*
X010928Y012483D03*
X006440Y011499D03*
X006440Y010869D03*
X005514Y012276D03*
X005514Y013280D03*
X006341Y014117D03*
X006341Y014747D03*
X004008Y013280D03*
X004008Y012778D03*
X004008Y012276D03*
D15*
X007463Y012148D03*
X007463Y011892D03*
X007463Y011636D03*
X007463Y012404D03*
X007463Y012660D03*
X007463Y012916D03*
X007463Y013172D03*
X010061Y013172D03*
X010061Y012916D03*
X010061Y012660D03*
X010061Y012404D03*
X010061Y012148D03*
X010061Y011892D03*
X010061Y011636D03*
X011302Y006233D03*
X011302Y005977D03*
X011302Y005721D03*
X011302Y005465D03*
X011302Y005209D03*
X011302Y004953D03*
X011302Y004697D03*
X011302Y004441D03*
X011302Y004186D03*
X011302Y003930D03*
X008703Y003930D03*
X008703Y004186D03*
X008703Y004441D03*
X008703Y004697D03*
X008703Y004953D03*
X008703Y005209D03*
X008703Y005465D03*
X008703Y005721D03*
X008703Y005977D03*
X008703Y006233D03*
D16*
X011459Y003310D03*
X012089Y003310D03*
G36*
X012262Y009543D02*
X011991Y009386D01*
X011794Y009727D01*
X012065Y009884D01*
X012262Y009543D01*
G37*
G36*
X013132Y010045D02*
X012861Y009888D01*
X012664Y010229D01*
X012935Y010386D01*
X013132Y010045D01*
G37*
G36*
X012379Y011349D02*
X012108Y011192D01*
X011911Y011533D01*
X012182Y011690D01*
X012379Y011349D01*
G37*
G36*
X011944Y011098D02*
X011673Y010941D01*
X011476Y011282D01*
X011747Y011439D01*
X011944Y011098D01*
G37*
G36*
X011509Y010847D02*
X011238Y010690D01*
X011041Y011031D01*
X011312Y011188D01*
X011509Y010847D01*
G37*
D17*
G36*
X010910Y011264D02*
X010812Y011432D01*
X010980Y011530D01*
X011078Y011362D01*
X010910Y011264D01*
G37*
G36*
X010713Y011605D02*
X010615Y011773D01*
X010783Y011871D01*
X010881Y011703D01*
X010713Y011605D01*
G37*
G36*
X011245Y011838D02*
X011077Y011936D01*
X011175Y012104D01*
X011343Y012006D01*
X011245Y011838D01*
G37*
G36*
X011586Y011641D02*
X011418Y011739D01*
X011516Y011907D01*
X011684Y011809D01*
X011586Y011641D01*
G37*
D18*
X008526Y010475D03*
X008526Y010081D03*
X006538Y012188D03*
X006144Y012188D03*
X006144Y012562D03*
X006538Y012562D03*
X006538Y013034D03*
X006538Y013428D03*
X006144Y013428D03*
X006144Y013034D03*
X008231Y013723D03*
X008231Y014117D03*
X005278Y010593D03*
X004884Y010593D03*
X012589Y002652D03*
X012983Y002652D03*
D19*
X002046Y011424D03*
D20*
X003046Y012424D03*
X001046Y012424D03*
X001046Y010424D03*
X003046Y010424D03*
D21*
X001176Y009343D03*
X001176Y006528D03*
X001156Y005819D03*
X001156Y003004D03*
D22*
X002286Y004166D03*
X002286Y004658D03*
X002306Y007690D03*
X002306Y008182D03*
D23*
X004672Y009353D03*
X004672Y009609D03*
X004672Y009865D03*
X005420Y009865D03*
X005420Y009353D03*
D24*
X010003Y006843D03*
D25*
X010583Y007443D03*
X009422Y007443D03*
D26*
X008520Y001262D03*
X009973Y001195D03*
X012788Y001195D03*
X005186Y001262D03*
D27*
X006361Y002325D03*
X006853Y002325D03*
X007345Y002325D03*
X011134Y002325D03*
X011627Y002325D03*
D28*
X012089Y003310D02*
X012365Y003310D01*
X012562Y003113D01*
X009428Y003113D02*
X009428Y002538D01*
X009215Y002325D01*
X007345Y002325D01*
X008684Y011125D02*
X008703Y011125D01*
X002046Y011424D02*
X002042Y011503D01*
D29*
X004097Y011597D03*
X004097Y010810D03*
X003014Y009412D03*
X003566Y007719D03*
X002817Y007109D03*
X003703Y006735D03*
X003703Y005947D03*
X004884Y006262D03*
X004884Y005475D03*
X004884Y004884D03*
X005081Y004097D03*
X004884Y003506D03*
X004884Y002916D03*
X004884Y002325D03*
X005475Y002522D03*
X005475Y003113D03*
X005672Y003900D03*
X006262Y003900D03*
X007247Y006066D03*
X008231Y007247D03*
X008625Y007837D03*
X007837Y007837D03*
X007877Y009432D03*
X007483Y009825D03*
X007483Y010416D03*
X007680Y011026D03*
X008684Y011125D03*
X011026Y009235D03*
X011577Y008034D03*
X011774Y007247D03*
X012168Y006459D03*
X012365Y005081D03*
X010396Y005081D03*
X010396Y004491D03*
X009609Y004491D03*
X009609Y005081D03*
X009609Y005672D03*
X010396Y005672D03*
X012601Y009235D03*
X013743Y009195D03*
X013743Y009983D03*
X014294Y010593D03*
X014747Y009806D03*
X015081Y010534D03*
X013034Y011066D03*
X010849Y014117D03*
X010042Y014117D03*
X009314Y014215D03*
X008329Y015022D03*
X007345Y014825D03*
X007345Y014038D03*
X005377Y014825D03*
X004589Y014825D03*
X003802Y014629D03*
X003014Y014629D03*
X002522Y013979D03*
X005743Y011081D03*
X005731Y010140D03*
X006302Y010219D03*
X005278Y008034D03*
X004884Y007640D03*
X004884Y007050D03*
X003703Y002995D03*
X003703Y002207D03*
X003703Y001420D03*
X009215Y001735D03*
X009215Y000947D03*
X013152Y002129D03*
X013743Y001932D03*
X014333Y002522D03*
X014924Y002522D03*
X014924Y002522D03*
X015121Y003113D03*
X015121Y003703D03*
X015121Y004294D03*
X014727Y004884D03*
X015014Y005392D03*
D30*
X002837Y003408D03*
D31*
X002423Y001819D02*
X001918Y001819D01*
X001964Y001773D02*
X001773Y001964D01*
X001540Y002099D01*
X001279Y002169D01*
X001009Y002169D01*
X000749Y002099D01*
X000515Y001964D01*
X000496Y001945D01*
X000496Y003287D01*
X000604Y003242D01*
X000604Y002719D01*
X000674Y002649D01*
X001638Y002649D01*
X001708Y002719D01*
X001708Y003290D01*
X001638Y003360D01*
X001044Y003360D01*
X001146Y003462D01*
X001172Y003525D01*
X001917Y003525D01*
X001952Y003560D01*
X001952Y003909D01*
X002690Y003909D01*
X002707Y003927D01*
X002962Y003927D01*
X002962Y003871D01*
X002913Y003822D01*
X002755Y003822D01*
X002602Y003759D01*
X002486Y003643D01*
X002423Y003490D01*
X002423Y003326D01*
X002486Y003173D01*
X002598Y003061D01*
X002598Y003027D01*
X002434Y003027D01*
X002364Y002957D01*
X002364Y002229D01*
X002423Y002170D01*
X002423Y001751D01*
X002410Y001743D01*
X002388Y001721D01*
X002372Y001694D01*
X002364Y001664D01*
X002364Y001393D01*
X002738Y001393D01*
X002738Y001273D01*
X002858Y001273D01*
X002858Y001393D01*
X003232Y001393D01*
X003232Y001664D01*
X003224Y001694D01*
X003208Y001721D01*
X003186Y001743D01*
X003173Y001751D01*
X003173Y002170D01*
X003232Y002229D01*
X003232Y002957D01*
X003162Y003027D01*
X003076Y003027D01*
X003076Y003061D01*
X003188Y003173D01*
X003251Y003326D01*
X003251Y003484D01*
X003404Y003637D01*
X003440Y003725D01*
X003440Y003939D01*
X003457Y003939D01*
X003527Y004008D01*
X003527Y004422D01*
X003468Y004481D01*
X003468Y004585D01*
X003481Y004592D01*
X003503Y004614D01*
X003519Y004642D01*
X003527Y004672D01*
X003527Y004826D01*
X003269Y004826D01*
X003269Y004864D01*
X003232Y004864D01*
X003232Y005122D01*
X003077Y005122D01*
X003047Y005113D01*
X003020Y005098D01*
X002998Y005076D01*
X002982Y005048D01*
X002974Y005018D01*
X002974Y004864D01*
X003232Y004864D01*
X003232Y004826D01*
X002974Y004826D01*
X002974Y004672D01*
X002982Y004642D01*
X002998Y004614D01*
X003020Y004592D01*
X003033Y004585D01*
X003033Y004481D01*
X002974Y004422D01*
X002974Y004405D01*
X002707Y004405D01*
X002697Y004415D01*
X002713Y004425D01*
X002736Y004447D01*
X002751Y004474D01*
X002759Y004505D01*
X002759Y004649D01*
X002295Y004649D01*
X002295Y004667D01*
X002759Y004667D01*
X002759Y004812D01*
X002751Y004842D01*
X002736Y004869D01*
X002713Y004891D01*
X002686Y004907D01*
X002656Y004915D01*
X002295Y004915D01*
X002295Y004667D01*
X002277Y004667D01*
X002277Y004915D01*
X001952Y004915D01*
X001952Y005264D01*
X001917Y005299D01*
X001172Y005299D01*
X001146Y005362D01*
X001044Y005464D01*
X001638Y005464D01*
X001708Y005534D01*
X001708Y006105D01*
X001640Y006173D01*
X001658Y006173D01*
X001728Y006243D01*
X001728Y006814D01*
X001658Y006883D01*
X001063Y006883D01*
X001166Y006986D01*
X001192Y007049D01*
X001937Y007049D01*
X001972Y007084D01*
X001972Y007433D01*
X002297Y007433D01*
X002297Y007681D01*
X002315Y007681D01*
X002315Y007698D01*
X002779Y007698D01*
X002779Y007843D01*
X002771Y007873D01*
X002755Y007900D01*
X002733Y007923D01*
X002717Y007932D01*
X002779Y007995D01*
X002779Y008003D01*
X002941Y008003D01*
X003187Y008249D01*
X003292Y008354D01*
X003292Y008747D01*
X003974Y009430D01*
X004454Y009430D01*
X004454Y009353D01*
X004672Y009353D01*
X004889Y009353D01*
X004889Y009447D01*
X004882Y009474D01*
X004889Y009481D01*
X004889Y009993D01*
X004820Y010063D01*
X004524Y010063D01*
X004454Y009993D01*
X004454Y009788D01*
X003826Y009788D01*
X003721Y009683D01*
X002934Y008896D01*
X002934Y008502D01*
X002793Y008361D01*
X002779Y008361D01*
X002779Y008369D01*
X002709Y008439D01*
X001972Y008439D01*
X001972Y008787D01*
X001937Y008822D01*
X001192Y008822D01*
X001166Y008885D01*
X001063Y008988D01*
X001658Y008988D01*
X001728Y009058D01*
X001728Y009629D01*
X001658Y009698D01*
X000693Y009698D01*
X000624Y009629D01*
X000624Y009106D01*
X000496Y009053D01*
X000496Y009929D01*
X000508Y009908D01*
X000530Y009886D01*
X000557Y009870D01*
X000587Y009862D01*
X000986Y009862D01*
X000986Y010364D01*
X001106Y010364D01*
X001106Y010484D01*
X000986Y010484D01*
X000986Y010986D01*
X000587Y010986D01*
X000557Y010978D01*
X000530Y010962D01*
X000508Y010940D01*
X000496Y010919D01*
X000496Y011929D01*
X000508Y011908D01*
X000530Y011886D01*
X000557Y011870D01*
X000587Y011862D01*
X000986Y011862D01*
X000986Y012364D01*
X001106Y012364D01*
X001106Y012484D01*
X000986Y012484D01*
X000986Y012986D01*
X000587Y012986D01*
X000557Y012978D01*
X000530Y012962D01*
X000508Y012940D01*
X000496Y012919D01*
X000496Y014123D01*
X000515Y014104D01*
X000749Y013969D01*
X001009Y013899D01*
X001279Y013899D01*
X001540Y013969D01*
X001773Y014104D01*
X001964Y014295D01*
X002099Y014528D01*
X002169Y014789D01*
X002169Y015059D01*
X002099Y015319D01*
X001964Y015553D01*
X001945Y015572D01*
X014123Y015572D01*
X014104Y015553D01*
X013969Y015319D01*
X013899Y015059D01*
X013899Y014789D01*
X013969Y014528D01*
X014104Y014295D01*
X014295Y014104D01*
X014528Y013969D01*
X014789Y013899D01*
X015059Y013899D01*
X015319Y013969D01*
X015553Y014104D01*
X015572Y014123D01*
X015572Y008821D01*
X004097Y008821D01*
X004097Y000496D01*
X001945Y000496D01*
X001964Y000515D01*
X002099Y000749D01*
X002169Y001009D01*
X002169Y001279D01*
X002099Y001540D01*
X001964Y001773D01*
X002006Y001701D02*
X002376Y001701D01*
X002364Y001582D02*
X002075Y001582D01*
X002119Y001464D02*
X002364Y001464D01*
X002151Y001345D02*
X002738Y001345D01*
X002738Y001273D02*
X002364Y001273D01*
X002364Y001003D01*
X002372Y000972D01*
X002388Y000945D01*
X002410Y000923D01*
X002437Y000907D01*
X002467Y000899D01*
X002738Y000899D01*
X002738Y001273D01*
X002738Y001227D02*
X002858Y001227D01*
X002858Y001273D02*
X002858Y000899D01*
X003128Y000899D01*
X003159Y000907D01*
X003186Y000923D01*
X003208Y000945D01*
X003224Y000972D01*
X003232Y001003D01*
X003232Y001273D01*
X002858Y001273D01*
X002858Y001345D02*
X003456Y001345D01*
X003476Y001298D01*
X003504Y001256D01*
X003540Y001220D01*
X003582Y001192D01*
X003628Y001173D01*
X003678Y001163D01*
X003703Y001163D01*
X003703Y001420D01*
X003703Y001420D01*
X003446Y001420D01*
X003446Y001445D01*
X003456Y001495D01*
X003476Y001542D01*
X003504Y001584D01*
X003540Y001619D01*
X003582Y001647D01*
X003628Y001667D01*
X003678Y001677D01*
X003703Y001677D01*
X003703Y001420D01*
X003703Y001420D01*
X003446Y001420D01*
X003446Y001395D01*
X003456Y001345D01*
X003450Y001464D02*
X003232Y001464D01*
X003232Y001582D02*
X003503Y001582D01*
X003220Y001701D02*
X004097Y001701D01*
X004097Y001819D02*
X003173Y001819D01*
X003173Y001938D02*
X004097Y001938D01*
X004097Y002056D02*
X003911Y002056D01*
X003903Y002044D02*
X003931Y002086D01*
X003950Y002132D01*
X003960Y002182D01*
X003960Y002207D01*
X003703Y002207D01*
X003446Y002207D01*
X003446Y002182D01*
X003456Y002132D01*
X003476Y002086D01*
X003504Y002044D01*
X003540Y002008D01*
X003582Y001980D01*
X003628Y001960D01*
X003678Y001950D01*
X003703Y001950D01*
X003703Y002207D01*
X003703Y002207D01*
X003703Y002207D01*
X003446Y002207D01*
X003446Y002233D01*
X003456Y002282D01*
X003476Y002329D01*
X003504Y002371D01*
X003540Y002407D01*
X003582Y002435D01*
X003628Y002454D01*
X003678Y002464D01*
X003703Y002464D01*
X003703Y002207D01*
X003703Y001950D01*
X003729Y001950D01*
X003778Y001960D01*
X003825Y001980D01*
X003867Y002008D01*
X003903Y002044D01*
X003959Y002175D02*
X004097Y002175D01*
X004097Y002293D02*
X003946Y002293D01*
X003950Y002282D02*
X003931Y002329D01*
X003903Y002371D01*
X003867Y002407D01*
X003825Y002435D01*
X003778Y002454D01*
X003729Y002464D01*
X003703Y002464D01*
X003703Y002207D01*
X003703Y002207D01*
X003703Y002207D01*
X003960Y002207D01*
X003960Y002233D01*
X003950Y002282D01*
X003860Y002412D02*
X004097Y002412D01*
X004097Y002530D02*
X003232Y002530D01*
X003232Y002412D02*
X003547Y002412D01*
X003461Y002293D02*
X003232Y002293D01*
X003178Y002175D02*
X003448Y002175D01*
X003495Y002056D02*
X003173Y002056D01*
X003703Y002056D02*
X003703Y002056D01*
X003703Y002175D02*
X003703Y002175D01*
X003703Y002293D02*
X003703Y002293D01*
X003703Y002412D02*
X003703Y002412D01*
X003678Y002738D02*
X003703Y002738D01*
X003703Y002995D01*
X003703Y003251D01*
X003678Y003251D01*
X003628Y003242D01*
X003582Y003222D01*
X003540Y003194D01*
X003504Y003158D01*
X003476Y003116D01*
X003456Y003070D01*
X003446Y003020D01*
X003446Y002995D01*
X003703Y002995D01*
X003703Y002995D01*
X003703Y002995D01*
X003703Y003251D01*
X003729Y003251D01*
X003778Y003242D01*
X003825Y003222D01*
X003867Y003194D01*
X003903Y003158D01*
X003931Y003116D01*
X003950Y003070D01*
X003960Y003020D01*
X003960Y002995D01*
X003703Y002995D01*
X003446Y002995D01*
X003446Y002969D01*
X003456Y002920D01*
X003476Y002873D01*
X003504Y002831D01*
X003540Y002795D01*
X003582Y002767D01*
X003232Y002767D01*
X003232Y002649D02*
X004097Y002649D01*
X004097Y002767D02*
X003825Y002767D01*
X003867Y002795D01*
X003903Y002831D01*
X003931Y002873D01*
X003950Y002920D01*
X003960Y002969D01*
X003960Y002995D01*
X003703Y002995D01*
X003703Y002995D01*
X003703Y002995D01*
X003703Y002738D01*
X003729Y002738D01*
X003778Y002748D01*
X003825Y002767D01*
X003703Y002767D02*
X003703Y002767D01*
X003678Y002738D02*
X003628Y002748D01*
X003582Y002767D01*
X003471Y002886D02*
X003232Y002886D01*
X003185Y003004D02*
X003446Y003004D01*
X003480Y003123D02*
X003138Y003123D01*
X003216Y003241D02*
X003627Y003241D01*
X003703Y003241D02*
X003703Y003241D01*
X003780Y003241D02*
X004097Y003241D01*
X004097Y003123D02*
X003927Y003123D01*
X003960Y003004D02*
X004097Y003004D01*
X004097Y002886D02*
X003936Y002886D01*
X003703Y002886D02*
X003703Y002886D01*
X003703Y003004D02*
X003703Y003004D01*
X003703Y003123D02*
X003703Y003123D01*
X004097Y003360D02*
X003251Y003360D01*
X003251Y003478D02*
X004097Y003478D01*
X004097Y003597D02*
X003364Y003597D01*
X003436Y003715D02*
X004097Y003715D01*
X004097Y003834D02*
X003440Y003834D01*
X003471Y003952D02*
X004097Y003952D01*
X004097Y004071D02*
X003527Y004071D01*
X003527Y004189D02*
X004097Y004189D01*
X004097Y004308D02*
X003527Y004308D01*
X003523Y004426D02*
X004097Y004426D01*
X004097Y004545D02*
X003468Y004545D01*
X003525Y004663D02*
X004097Y004663D01*
X004097Y004782D02*
X003527Y004782D01*
X003527Y004864D02*
X003269Y004864D01*
X003269Y005122D01*
X003424Y005122D01*
X003454Y005113D01*
X003481Y005098D01*
X003503Y005076D01*
X003519Y005048D01*
X003527Y005018D01*
X003527Y004864D01*
X003527Y004900D02*
X004097Y004900D01*
X004097Y005019D02*
X003527Y005019D01*
X003269Y005019D02*
X003232Y005019D01*
X003232Y004900D02*
X003269Y004900D01*
X002974Y004900D02*
X002698Y004900D01*
X002759Y004782D02*
X002974Y004782D01*
X002976Y004663D02*
X002295Y004663D01*
X002295Y004782D02*
X002277Y004782D01*
X002277Y004900D02*
X002295Y004900D01*
X001952Y005019D02*
X002974Y005019D01*
X003033Y004545D02*
X002759Y004545D01*
X002714Y004426D02*
X002978Y004426D01*
X002925Y003834D02*
X001952Y003834D01*
X001952Y003715D02*
X002558Y003715D01*
X002467Y003597D02*
X001952Y003597D01*
X001639Y003360D02*
X002423Y003360D01*
X002423Y003478D02*
X001152Y003478D01*
X001708Y003241D02*
X002458Y003241D01*
X002537Y003123D02*
X001708Y003123D01*
X001708Y003004D02*
X002410Y003004D01*
X002364Y002886D02*
X001708Y002886D01*
X001708Y002767D02*
X002364Y002767D01*
X002364Y002649D02*
X000496Y002649D01*
X000496Y002767D02*
X000604Y002767D01*
X000604Y002886D02*
X000496Y002886D01*
X000496Y003004D02*
X000604Y003004D01*
X000604Y003123D02*
X000496Y003123D01*
X000496Y003241D02*
X000604Y003241D01*
X000496Y002530D02*
X002364Y002530D01*
X002364Y002412D02*
X000496Y002412D01*
X000496Y002293D02*
X002364Y002293D01*
X002418Y002175D02*
X000496Y002175D01*
X000496Y002056D02*
X000674Y002056D01*
X001614Y002056D02*
X002423Y002056D01*
X002423Y001938D02*
X001800Y001938D01*
X002169Y001227D02*
X002364Y001227D01*
X002364Y001108D02*
X002169Y001108D01*
X002163Y000990D02*
X002367Y000990D01*
X002132Y000871D02*
X004097Y000871D01*
X004097Y000753D02*
X002100Y000753D01*
X002033Y000634D02*
X004097Y000634D01*
X004097Y000516D02*
X001964Y000516D01*
X002738Y000990D02*
X002858Y000990D01*
X002858Y001108D02*
X002738Y001108D01*
X003232Y001108D02*
X004097Y001108D01*
X004097Y000990D02*
X003228Y000990D01*
X003232Y001227D02*
X003533Y001227D01*
X003703Y001227D02*
X003703Y001227D01*
X003703Y001163D02*
X003729Y001163D01*
X003778Y001173D01*
X003825Y001192D01*
X003867Y001220D01*
X003903Y001256D01*
X003931Y001298D01*
X003950Y001345D01*
X003960Y001395D01*
X003960Y001420D01*
X003960Y001445D01*
X003950Y001495D01*
X003931Y001542D01*
X003903Y001584D01*
X003867Y001619D01*
X003825Y001647D01*
X003778Y001667D01*
X003729Y001677D01*
X003703Y001677D01*
X003703Y001420D01*
X003703Y001420D01*
X003960Y001420D01*
X003703Y001420D01*
X003703Y001420D01*
X003703Y001163D01*
X003873Y001227D02*
X004097Y001227D01*
X004097Y001345D02*
X003950Y001345D01*
X003957Y001464D02*
X004097Y001464D01*
X004097Y001582D02*
X003904Y001582D01*
X003703Y001582D02*
X003703Y001582D01*
X003703Y001464D02*
X003703Y001464D01*
X003703Y001345D02*
X003703Y001345D01*
X006357Y002329D02*
X006361Y002325D01*
X006357Y002329D02*
X006357Y003026D01*
X006837Y003506D01*
X006853Y003506D01*
X007532Y004186D01*
X008703Y004186D01*
X008703Y003930D02*
X007867Y003930D01*
X006853Y002916D01*
X006853Y002325D01*
X007827Y004697D02*
X007443Y005081D01*
X007060Y005081D01*
X007827Y004697D02*
X008703Y004697D01*
X008703Y005465D02*
X008044Y005465D01*
X007837Y005672D01*
X007837Y006853D01*
X007640Y007050D01*
X007060Y007050D01*
X005568Y009155D02*
X005272Y009155D01*
X005202Y009225D01*
X005202Y009481D01*
X005272Y009551D01*
X005568Y009551D01*
X005600Y009518D01*
X006476Y009518D01*
X006684Y009726D01*
X006684Y010601D01*
X006682Y010600D01*
X006652Y010592D01*
X006458Y010592D01*
X006458Y010850D01*
X006421Y010850D01*
X006421Y010592D01*
X006227Y010592D01*
X006197Y010600D01*
X006170Y010616D01*
X006147Y010638D01*
X006132Y010665D01*
X006124Y010696D01*
X006124Y010850D01*
X006421Y010850D01*
X006421Y010887D01*
X006124Y010887D01*
X006124Y011042D01*
X006132Y011072D01*
X006147Y011099D01*
X006170Y011121D01*
X006183Y011129D01*
X006183Y011233D01*
X006124Y011292D01*
X006124Y011705D01*
X006193Y011775D01*
X006354Y011775D01*
X006369Y011821D01*
X006369Y011907D01*
X006359Y011917D01*
X006359Y012001D01*
X006341Y012019D01*
X006292Y011970D01*
X005997Y011970D01*
X005948Y012019D01*
X005779Y012019D01*
X005760Y012000D01*
X005268Y012000D01*
X005198Y012069D01*
X005198Y012483D01*
X005268Y012553D01*
X005760Y012553D01*
X005830Y012483D01*
X005830Y012357D01*
X005948Y012357D01*
X005966Y012375D01*
X005927Y012414D01*
X005927Y012709D01*
X005997Y012779D01*
X006292Y012779D01*
X006341Y012730D01*
X006390Y012779D01*
X006516Y012779D01*
X006535Y012798D01*
X006516Y012817D01*
X006390Y012817D01*
X006341Y012866D01*
X006292Y012817D01*
X005996Y012817D01*
X005926Y012886D01*
X005926Y013182D01*
X005975Y013230D01*
X005975Y013232D01*
X005948Y013258D01*
X005830Y013258D01*
X005830Y013073D01*
X005760Y013004D01*
X005268Y013004D01*
X005198Y013073D01*
X005198Y013487D01*
X005268Y013557D01*
X005552Y013557D01*
X005592Y013597D01*
X005948Y013597D01*
X005997Y013645D01*
X006292Y013645D01*
X006341Y013596D01*
X006369Y013624D01*
X006369Y013840D01*
X006095Y013840D01*
X006025Y013910D01*
X006025Y014324D01*
X006084Y014383D01*
X006084Y014486D01*
X006071Y014494D01*
X006049Y014516D01*
X006034Y014543D01*
X006025Y014573D01*
X006025Y014728D01*
X006323Y014728D01*
X006323Y014765D01*
X006025Y014765D01*
X006025Y014920D01*
X006034Y014950D01*
X006049Y014977D01*
X006071Y014999D01*
X006098Y015015D01*
X006129Y015023D01*
X006323Y015023D01*
X006323Y014765D01*
X006360Y014765D01*
X006657Y014765D01*
X006657Y014920D01*
X006649Y014950D01*
X006633Y014977D01*
X006611Y014999D01*
X006584Y015015D01*
X006554Y015023D01*
X006360Y015023D01*
X006360Y014765D01*
X006360Y014728D01*
X006657Y014728D01*
X006657Y014573D01*
X006649Y014543D01*
X006633Y014516D01*
X006611Y014494D01*
X006598Y014486D01*
X006598Y014383D01*
X006657Y014324D01*
X006657Y014040D01*
X006707Y013990D01*
X006707Y013624D01*
X006755Y013575D01*
X006755Y013280D01*
X006707Y013231D01*
X006707Y013230D01*
X006755Y013182D01*
X006755Y013085D01*
X006914Y013085D01*
X006911Y013097D01*
X006911Y013172D01*
X007463Y013172D01*
X007463Y013172D01*
X007463Y013350D01*
X007912Y013350D01*
X007942Y013342D01*
X007969Y013326D01*
X007991Y013304D01*
X008007Y013277D01*
X008015Y013247D01*
X008015Y013172D01*
X007463Y013172D01*
X007463Y013172D01*
X007463Y013350D01*
X007014Y013350D01*
X006984Y013342D01*
X006957Y013326D01*
X006935Y013304D01*
X006919Y013277D01*
X006911Y013247D01*
X006911Y013172D01*
X007463Y013172D01*
X008015Y013172D01*
X008015Y013097D01*
X008007Y013067D01*
X007994Y013045D01*
X008015Y013024D01*
X008015Y012808D01*
X007995Y012788D01*
X008015Y012768D01*
X008015Y012585D01*
X008062Y012632D01*
X008062Y013527D01*
X008013Y013575D01*
X008013Y013871D01*
X008063Y013921D01*
X008059Y013923D01*
X008037Y013945D01*
X008021Y013972D01*
X008013Y014003D01*
X008013Y014117D01*
X008231Y014117D01*
X008231Y014117D01*
X008231Y014334D01*
X008345Y014334D01*
X008375Y014326D01*
X008402Y014310D01*
X008425Y014288D01*
X008440Y014261D01*
X008448Y014231D01*
X008448Y014117D01*
X008231Y014117D01*
X008231Y014117D01*
X008231Y014334D01*
X008117Y014334D01*
X008086Y014326D01*
X008059Y014310D01*
X008037Y014288D01*
X008021Y014261D01*
X008013Y014231D01*
X008013Y014117D01*
X008231Y014117D01*
X008448Y014117D01*
X008448Y014003D01*
X008440Y013972D01*
X008425Y013945D01*
X008402Y013923D01*
X008398Y013921D01*
X008448Y013871D01*
X008448Y013575D01*
X008400Y013527D01*
X008400Y012492D01*
X008301Y012393D01*
X008236Y012327D01*
X008541Y012327D01*
X008758Y012111D01*
X008863Y012006D01*
X008863Y011309D01*
X008901Y011270D01*
X008940Y011176D01*
X008940Y011073D01*
X008901Y010979D01*
X008853Y010930D01*
X008853Y010799D01*
X008710Y010656D01*
X008743Y010623D01*
X008743Y010327D01*
X008693Y010277D01*
X008697Y010275D01*
X008720Y010253D01*
X008735Y010226D01*
X008743Y010195D01*
X008743Y010081D01*
X008526Y010081D01*
X008526Y009864D01*
X008640Y009864D01*
X008670Y009872D01*
X008697Y009888D01*
X008720Y009910D01*
X008735Y009937D01*
X008743Y009967D01*
X008743Y010081D01*
X008526Y010081D01*
X008526Y010081D01*
X008526Y009864D01*
X008412Y009864D01*
X008382Y009872D01*
X008354Y009888D01*
X008332Y009910D01*
X008317Y009937D01*
X008308Y009967D01*
X008308Y010081D01*
X008526Y010081D01*
X008526Y010081D01*
X008526Y010081D01*
X008308Y010081D01*
X008308Y010195D01*
X008317Y010226D01*
X008332Y010253D01*
X008354Y010275D01*
X008358Y010277D01*
X008308Y010327D01*
X008308Y010623D01*
X008357Y010671D01*
X008357Y010781D01*
X008456Y010880D01*
X008510Y010935D01*
X008466Y010979D01*
X008427Y011073D01*
X008427Y011176D01*
X008466Y011270D01*
X008505Y011309D01*
X008505Y011857D01*
X008393Y011969D01*
X008015Y011969D01*
X008015Y011784D01*
X007994Y011763D01*
X008007Y011741D01*
X008015Y011711D01*
X008015Y011636D01*
X007463Y011636D01*
X007463Y011458D01*
X007912Y011458D01*
X007942Y011466D01*
X007969Y011482D01*
X007991Y011504D01*
X008007Y011531D01*
X008015Y011562D01*
X008015Y011636D01*
X007463Y011636D01*
X007463Y011636D01*
X007463Y011636D01*
X007463Y011458D01*
X007022Y011458D01*
X007022Y009586D01*
X006715Y009279D01*
X006616Y009180D01*
X005592Y009180D01*
X005568Y009155D01*
X005578Y009166D02*
X010778Y009166D01*
X010779Y009160D02*
X010799Y009113D01*
X010827Y009071D01*
X010862Y009035D01*
X010904Y009007D01*
X010951Y008988D01*
X011001Y008978D01*
X011026Y008978D01*
X011026Y009235D01*
X011026Y009492D01*
X011001Y009492D01*
X010951Y009482D01*
X010904Y009462D01*
X010862Y009434D01*
X010827Y009399D01*
X010799Y009356D01*
X010779Y009310D01*
X010769Y009260D01*
X010769Y009235D01*
X011026Y009235D01*
X011026Y009235D01*
X011026Y009235D01*
X011026Y009492D01*
X011051Y009492D01*
X011101Y009482D01*
X011148Y009462D01*
X011190Y009434D01*
X011226Y009399D01*
X011254Y009356D01*
X011273Y009310D01*
X011283Y009260D01*
X011283Y009235D01*
X011026Y009235D01*
X010769Y009235D01*
X010769Y009210D01*
X010779Y009160D01*
X010774Y009285D02*
X008087Y009285D01*
X008076Y009268D02*
X008104Y009310D01*
X008124Y009357D01*
X008133Y009406D01*
X008133Y009432D01*
X008133Y009457D01*
X008124Y009507D01*
X008104Y009553D01*
X008076Y009595D01*
X008040Y009631D01*
X007998Y009659D01*
X007951Y009679D01*
X007902Y009689D01*
X007877Y009689D01*
X007877Y009432D01*
X008133Y009432D01*
X007877Y009432D01*
X007877Y009432D01*
X007877Y009432D01*
X007877Y009689D01*
X007851Y009689D01*
X007802Y009679D01*
X007755Y009659D01*
X007713Y009631D01*
X007677Y009595D01*
X007649Y009553D01*
X007630Y009507D01*
X007620Y009457D01*
X007620Y009432D01*
X007877Y009432D01*
X007877Y009175D01*
X007902Y009175D01*
X007951Y009185D01*
X007998Y009204D01*
X008040Y009232D01*
X008076Y009268D01*
X008133Y009403D02*
X009322Y009403D01*
X009321Y009405D02*
X009337Y009378D01*
X009359Y009356D01*
X009386Y009340D01*
X009416Y009332D01*
X009822Y009332D01*
X009822Y009615D01*
X009908Y009615D01*
X009908Y009332D01*
X010314Y009332D01*
X010344Y009340D01*
X010371Y009356D01*
X010393Y009378D01*
X010409Y009405D01*
X010417Y009436D01*
X010417Y009549D01*
X010520Y009549D01*
X010555Y009584D01*
X010555Y009889D01*
X010555Y009923D01*
X010721Y009923D01*
X010759Y009960D01*
X010888Y009960D01*
X011348Y009500D01*
X011415Y009433D01*
X011503Y009396D01*
X011847Y009396D01*
X011912Y009284D01*
X012007Y009258D01*
X012365Y009465D01*
X012391Y009560D01*
X012145Y009987D01*
X012049Y010012D01*
X011810Y009874D01*
X011650Y009874D01*
X011189Y010335D01*
X011122Y010402D01*
X011034Y010438D01*
X010791Y010438D01*
X010791Y010485D01*
X010721Y010554D01*
X010555Y010554D01*
X010555Y010893D01*
X010520Y010929D01*
X010417Y010929D01*
X010417Y011042D01*
X010409Y011072D01*
X010393Y011099D01*
X010371Y011121D01*
X010344Y011137D01*
X010314Y011145D01*
X009908Y011145D01*
X009908Y010863D01*
X009822Y010863D01*
X009822Y011145D01*
X009416Y011145D01*
X009386Y011137D01*
X009359Y011121D01*
X009337Y011099D01*
X009321Y011072D01*
X009313Y011042D01*
X009313Y010929D01*
X009210Y010929D01*
X009175Y010893D01*
X009175Y009584D01*
X009210Y009549D01*
X009313Y009549D01*
X009313Y009436D01*
X009321Y009405D01*
X009313Y009522D02*
X008117Y009522D01*
X008027Y009640D02*
X009175Y009640D01*
X009175Y009759D02*
X007731Y009759D01*
X007730Y009750D02*
X007740Y009800D01*
X007740Y009825D01*
X007483Y009825D01*
X007483Y009569D01*
X007508Y009569D01*
X007558Y009578D01*
X007604Y009598D01*
X007647Y009626D01*
X007682Y009662D01*
X007710Y009704D01*
X007730Y009750D01*
X007740Y009825D02*
X007740Y009851D01*
X007730Y009900D01*
X007710Y009947D01*
X007682Y009989D01*
X007647Y010025D01*
X007604Y010053D01*
X007558Y010072D01*
X007508Y010082D01*
X007483Y010082D01*
X007483Y009825D01*
X007483Y009825D01*
X007483Y009825D01*
X007483Y009569D01*
X007458Y009569D01*
X007408Y009578D01*
X007361Y009598D01*
X007319Y009626D01*
X007283Y009662D01*
X007255Y009704D01*
X007236Y009750D01*
X007226Y009800D01*
X007226Y009825D01*
X007483Y009825D01*
X007740Y009825D01*
X007734Y009877D02*
X008373Y009877D01*
X008308Y009996D02*
X007676Y009996D01*
X007483Y009996D02*
X007483Y009996D01*
X007483Y010082D02*
X007458Y010082D01*
X007408Y010072D01*
X007361Y010053D01*
X007319Y010025D01*
X007283Y009989D01*
X007255Y009947D01*
X007236Y009900D01*
X007226Y009851D01*
X007226Y009825D01*
X007483Y009825D01*
X007483Y009825D01*
X007483Y009825D01*
X007483Y010082D01*
X007483Y010159D02*
X007508Y010159D01*
X007558Y010169D01*
X007604Y010188D01*
X007647Y010216D01*
X007682Y010252D01*
X007710Y010294D01*
X007730Y010341D01*
X007740Y010391D01*
X007740Y010416D01*
X007740Y010441D01*
X007730Y010491D01*
X007710Y010538D01*
X007682Y010580D01*
X007647Y010615D01*
X007604Y010644D01*
X007558Y010663D01*
X007508Y010673D01*
X007483Y010673D01*
X007483Y010416D01*
X007740Y010416D01*
X007483Y010416D01*
X007483Y010416D01*
X007483Y010416D01*
X007483Y010673D01*
X007458Y010673D01*
X007408Y010663D01*
X007361Y010644D01*
X007319Y010615D01*
X007283Y010580D01*
X007255Y010538D01*
X007236Y010491D01*
X007226Y010441D01*
X007226Y010416D01*
X007483Y010416D01*
X007483Y010159D01*
X007483Y010416D01*
X007483Y010416D01*
X007483Y010416D01*
X007226Y010416D01*
X007226Y010391D01*
X007236Y010341D01*
X007255Y010294D01*
X007283Y010252D01*
X007319Y010216D01*
X007361Y010188D01*
X007408Y010169D01*
X007458Y010159D01*
X007483Y010159D01*
X007483Y010233D02*
X007483Y010233D01*
X007483Y010351D02*
X007483Y010351D01*
X007483Y010470D02*
X007483Y010470D01*
X007483Y010588D02*
X007483Y010588D01*
X007674Y010588D02*
X008308Y010588D01*
X008308Y010470D02*
X007734Y010470D01*
X007732Y010351D02*
X008308Y010351D01*
X008321Y010233D02*
X007663Y010233D01*
X007303Y010233D02*
X007022Y010233D01*
X007022Y010351D02*
X007234Y010351D01*
X007232Y010470D02*
X007022Y010470D01*
X007022Y010588D02*
X007292Y010588D01*
X007022Y010707D02*
X008357Y010707D01*
X008401Y010825D02*
X007841Y010825D01*
X007843Y010827D02*
X007879Y010862D01*
X007907Y010904D01*
X007927Y010951D01*
X007937Y011001D01*
X007937Y011026D01*
X007680Y011026D01*
X007680Y011026D01*
X007680Y010769D01*
X007705Y010769D01*
X007755Y010779D01*
X007801Y010799D01*
X007843Y010827D01*
X007923Y010944D02*
X008501Y010944D01*
X008432Y011062D02*
X007934Y011062D01*
X007937Y011051D02*
X007927Y011101D01*
X007907Y011148D01*
X007879Y011190D01*
X007843Y011226D01*
X007801Y011254D01*
X007755Y011273D01*
X007705Y011283D01*
X007680Y011283D01*
X007680Y011026D01*
X007680Y011026D01*
X007937Y011026D01*
X007937Y011051D01*
X007885Y011181D02*
X008429Y011181D01*
X008495Y011299D02*
X007022Y011299D01*
X007022Y011181D02*
X007474Y011181D01*
X007480Y011190D02*
X007452Y011148D01*
X007433Y011101D01*
X007423Y011051D01*
X007423Y011026D01*
X007423Y011001D01*
X007433Y010951D01*
X007452Y010904D01*
X007480Y010862D01*
X007516Y010827D01*
X007558Y010799D01*
X007605Y010779D01*
X007654Y010769D01*
X007680Y010769D01*
X007680Y011026D01*
X007680Y011026D01*
X007423Y011026D01*
X007680Y011026D01*
X007680Y011026D01*
X007680Y011283D01*
X007654Y011283D01*
X007605Y011273D01*
X007558Y011254D01*
X007516Y011226D01*
X007480Y011190D01*
X007425Y011062D02*
X007022Y011062D01*
X007022Y010944D02*
X007436Y010944D01*
X007518Y010825D02*
X007022Y010825D01*
X006684Y010588D02*
X005900Y010588D01*
X005900Y010604D02*
X005841Y010663D01*
X005742Y010762D01*
X005474Y010762D01*
X005426Y010811D01*
X005130Y010811D01*
X005080Y010761D01*
X005078Y010765D01*
X005056Y010787D01*
X005029Y010802D01*
X004999Y010811D01*
X004884Y010811D01*
X004770Y010811D01*
X004740Y010802D01*
X004713Y010787D01*
X004691Y010765D01*
X004675Y010737D01*
X004667Y010707D01*
X004667Y010593D01*
X004667Y010479D01*
X004675Y010449D01*
X004691Y010422D01*
X004713Y010399D01*
X004740Y010384D01*
X004770Y010376D01*
X004884Y010376D01*
X004884Y010593D01*
X004667Y010593D01*
X004884Y010593D01*
X004884Y010593D01*
X004884Y010593D01*
X004884Y010811D01*
X004884Y010593D01*
X004884Y010593D01*
X004884Y010376D01*
X004999Y010376D01*
X005029Y010384D01*
X005056Y010399D01*
X005078Y010422D01*
X005080Y010426D01*
X005130Y010376D01*
X005426Y010376D01*
X005474Y010424D01*
X005562Y010424D01*
X005562Y010335D01*
X005513Y010286D01*
X005474Y010191D01*
X005474Y010089D01*
X005483Y010067D01*
X005479Y010063D01*
X005272Y010063D01*
X005202Y009993D01*
X005202Y009737D01*
X005272Y009667D01*
X005568Y009667D01*
X005586Y009686D01*
X005608Y009686D01*
X005772Y009850D01*
X005807Y009864D01*
X005823Y009900D01*
X005823Y009900D01*
X005876Y009923D01*
X005949Y009995D01*
X005988Y010089D01*
X005988Y010191D01*
X005949Y010286D01*
X005900Y010335D01*
X005900Y010604D01*
X005900Y010470D02*
X006244Y010470D01*
X006227Y010466D02*
X006180Y010447D01*
X006138Y010419D01*
X006102Y010383D01*
X006074Y010341D01*
X006055Y010294D01*
X006045Y010244D01*
X006045Y010219D01*
X006045Y010194D01*
X006055Y010144D01*
X006074Y010097D01*
X006102Y010055D01*
X006138Y010020D01*
X006180Y009991D01*
X006227Y009972D01*
X006276Y009962D01*
X006302Y009962D01*
X006327Y009962D01*
X006377Y009972D01*
X006423Y009991D01*
X006465Y010020D01*
X006501Y010055D01*
X006529Y010097D01*
X006549Y010144D01*
X006559Y010194D01*
X006559Y010219D01*
X006302Y010219D01*
X006302Y010219D01*
X006559Y010219D01*
X006559Y010244D01*
X006549Y010294D01*
X006529Y010341D01*
X006501Y010383D01*
X006465Y010419D01*
X006423Y010447D01*
X006377Y010466D01*
X006327Y010476D01*
X006302Y010476D01*
X006302Y010219D01*
X006302Y009962D01*
X006302Y010219D01*
X006302Y010219D01*
X006302Y010219D01*
X006302Y010476D01*
X006276Y010476D01*
X006227Y010466D01*
X006302Y010470D02*
X006302Y010470D01*
X006359Y010470D02*
X006684Y010470D01*
X006684Y010351D02*
X006522Y010351D01*
X006559Y010233D02*
X006684Y010233D01*
X006684Y010114D02*
X006536Y010114D01*
X006430Y009996D02*
X006684Y009996D01*
X006684Y009877D02*
X005813Y009877D01*
X005681Y009759D02*
X006684Y009759D01*
X006598Y009640D02*
X004889Y009640D01*
X004889Y009522D02*
X005243Y009522D01*
X005202Y009403D02*
X004889Y009403D01*
X004889Y009353D02*
X004672Y009353D01*
X004672Y009353D01*
X004672Y009155D01*
X004786Y009155D01*
X004816Y009163D01*
X004843Y009179D01*
X004866Y009201D01*
X004881Y009228D01*
X004889Y009258D01*
X004889Y009353D01*
X004889Y009285D02*
X005202Y009285D01*
X005261Y009166D02*
X004821Y009166D01*
X004672Y009166D02*
X004672Y009166D01*
X004672Y009155D02*
X004558Y009155D01*
X004527Y009163D01*
X004500Y009179D01*
X004478Y009201D01*
X004462Y009228D01*
X004454Y009258D01*
X004454Y009353D01*
X004672Y009353D01*
X004672Y009353D01*
X004672Y009353D01*
X004672Y009155D01*
X004672Y009285D02*
X004672Y009285D01*
X004523Y009166D02*
X003711Y009166D01*
X003829Y009285D02*
X004454Y009285D01*
X004454Y009403D02*
X003948Y009403D01*
X003900Y009609D02*
X004672Y009609D01*
X004889Y009759D02*
X005202Y009759D01*
X005202Y009877D02*
X004889Y009877D01*
X004887Y009996D02*
X005205Y009996D01*
X005420Y009865D02*
X005534Y009865D01*
X005672Y010003D01*
X005731Y010140D01*
X005491Y010233D02*
X003608Y010233D01*
X003608Y010351D02*
X005562Y010351D01*
X005474Y010114D02*
X003608Y010114D01*
X003608Y009996D02*
X004457Y009996D01*
X004454Y009877D02*
X003547Y009877D01*
X003535Y009870D02*
X003562Y009886D01*
X003584Y009908D01*
X003600Y009935D01*
X003608Y009965D01*
X003608Y010364D01*
X003106Y010364D01*
X003106Y010484D01*
X002986Y010484D01*
X002986Y010986D01*
X002587Y010986D01*
X002557Y010978D01*
X002530Y010962D01*
X002508Y010940D01*
X002492Y010913D01*
X002484Y010882D01*
X002484Y010484D01*
X002986Y010484D01*
X002986Y010364D01*
X002484Y010364D01*
X002484Y009965D01*
X002492Y009935D01*
X002508Y009908D01*
X002530Y009886D01*
X002557Y009870D01*
X002587Y009862D01*
X002986Y009862D01*
X002986Y010364D01*
X003106Y010364D01*
X003106Y009862D01*
X003504Y009862D01*
X003535Y009870D01*
X003797Y009759D02*
X000496Y009759D01*
X000496Y009877D02*
X000545Y009877D01*
X000496Y009640D02*
X000635Y009640D01*
X000624Y009522D02*
X000496Y009522D01*
X000496Y009403D02*
X000624Y009403D01*
X000624Y009285D02*
X000496Y009285D01*
X000496Y009166D02*
X000624Y009166D01*
X001122Y008929D02*
X002967Y008929D01*
X002934Y008811D02*
X001949Y008811D01*
X001972Y008692D02*
X002934Y008692D01*
X002934Y008574D02*
X001972Y008574D01*
X001972Y008455D02*
X002887Y008455D01*
X003113Y008428D02*
X002867Y008182D01*
X002306Y008182D01*
X002315Y007681D02*
X002779Y007681D01*
X002779Y007536D01*
X002771Y007506D01*
X002755Y007479D01*
X002733Y007456D01*
X002706Y007441D01*
X002676Y007433D01*
X002315Y007433D01*
X002315Y007681D01*
X002315Y007626D02*
X002297Y007626D01*
X002297Y007507D02*
X002315Y007507D01*
X001972Y007389D02*
X004097Y007389D01*
X004097Y007507D02*
X003710Y007507D01*
X003729Y007520D02*
X003765Y007555D01*
X003793Y007597D01*
X003812Y007644D01*
X003822Y007694D01*
X003822Y007719D01*
X003566Y007719D01*
X003566Y007719D01*
X003822Y007719D01*
X003822Y007744D01*
X004097Y007744D01*
X004097Y007626D02*
X003805Y007626D01*
X003822Y007744D02*
X003812Y007794D01*
X003793Y007841D01*
X003765Y007883D01*
X003729Y007919D01*
X003687Y007947D01*
X003640Y007966D01*
X003591Y007976D01*
X003566Y007976D01*
X003566Y007719D01*
X003566Y007462D01*
X003591Y007462D01*
X003640Y007472D01*
X003687Y007491D01*
X003729Y007520D01*
X003566Y007507D02*
X003566Y007507D01*
X003566Y007462D02*
X003566Y007719D01*
X003566Y007719D01*
X003566Y007719D01*
X003566Y007976D01*
X003540Y007976D01*
X003491Y007966D01*
X003444Y007947D01*
X003402Y007919D01*
X003366Y007883D01*
X003338Y007841D01*
X003319Y007794D01*
X003309Y007744D01*
X002779Y007744D01*
X002779Y007626D02*
X003326Y007626D01*
X003319Y007644D02*
X003338Y007597D01*
X003366Y007555D01*
X003402Y007520D01*
X003444Y007491D01*
X003491Y007472D01*
X003540Y007462D01*
X003566Y007462D01*
X003421Y007507D02*
X002771Y007507D01*
X002792Y007366D02*
X002743Y007356D01*
X002696Y007336D01*
X002654Y007308D01*
X002618Y007273D01*
X002590Y007230D01*
X002571Y007184D01*
X002561Y007134D01*
X002561Y007109D01*
X002817Y007109D01*
X002817Y007109D01*
X002817Y007366D01*
X002792Y007366D01*
X002817Y007366D02*
X002843Y007366D01*
X002892Y007356D01*
X002939Y007336D01*
X002981Y007308D01*
X003017Y007273D01*
X003045Y007230D01*
X003064Y007184D01*
X003074Y007134D01*
X003074Y007109D01*
X002817Y007109D01*
X002817Y007109D01*
X002561Y007109D01*
X002561Y007084D01*
X002571Y007034D01*
X002590Y006987D01*
X002618Y006945D01*
X002654Y006909D01*
X002696Y006881D01*
X002743Y006862D01*
X002792Y006852D01*
X002817Y006852D01*
X002817Y007109D01*
X002817Y007109D01*
X002817Y007366D01*
X002817Y007270D02*
X002817Y007270D01*
X002817Y007152D02*
X002817Y007152D01*
X002817Y007109D02*
X002817Y007109D01*
X002817Y006852D01*
X002843Y006852D01*
X002892Y006862D01*
X002939Y006881D01*
X002981Y006909D01*
X003017Y006945D01*
X003045Y006987D01*
X003064Y007034D01*
X003074Y007084D01*
X003074Y007109D01*
X002817Y007109D01*
X002817Y007033D02*
X002817Y007033D01*
X002817Y006915D02*
X002817Y006915D01*
X002649Y006915D02*
X001094Y006915D01*
X001185Y007033D02*
X002571Y007033D01*
X002564Y007152D02*
X001972Y007152D01*
X001972Y007270D02*
X002616Y007270D01*
X003019Y007270D02*
X004097Y007270D01*
X004097Y007152D02*
X003071Y007152D01*
X003064Y007033D02*
X004097Y007033D01*
X004097Y006915D02*
X003887Y006915D01*
X003903Y006899D02*
X003867Y006934D01*
X003825Y006962D01*
X003778Y006982D01*
X003729Y006992D01*
X003703Y006992D01*
X003678Y006992D01*
X003628Y006982D01*
X003582Y006962D01*
X003540Y006934D01*
X003504Y006899D01*
X003476Y006856D01*
X003456Y006810D01*
X003446Y006760D01*
X003446Y006735D01*
X003703Y006735D01*
X003703Y006735D01*
X003703Y006992D01*
X003703Y006735D01*
X003703Y006735D01*
X003446Y006735D01*
X003446Y006710D01*
X003456Y006660D01*
X003476Y006613D01*
X003504Y006571D01*
X003540Y006535D01*
X003582Y006507D01*
X003628Y006488D01*
X003678Y006478D01*
X003703Y006478D01*
X003703Y006735D01*
X003703Y006735D01*
X003960Y006735D01*
X003960Y006760D01*
X003950Y006810D01*
X003931Y006856D01*
X003903Y006899D01*
X003953Y006796D02*
X004097Y006796D01*
X004097Y006678D02*
X003954Y006678D01*
X003950Y006660D02*
X003960Y006710D01*
X003960Y006735D01*
X003703Y006735D01*
X003703Y006735D01*
X003703Y006478D01*
X003729Y006478D01*
X003778Y006488D01*
X003825Y006507D01*
X003867Y006535D01*
X003903Y006571D01*
X003931Y006613D01*
X003950Y006660D01*
X003891Y006559D02*
X004097Y006559D01*
X004097Y006441D02*
X001728Y006441D01*
X001728Y006559D02*
X003516Y006559D01*
X003453Y006678D02*
X001728Y006678D01*
X001728Y006796D02*
X003454Y006796D01*
X003520Y006915D02*
X002986Y006915D01*
X003319Y007644D02*
X003309Y007694D01*
X003309Y007719D01*
X003565Y007719D01*
X003565Y007719D01*
X003309Y007719D01*
X003309Y007744D01*
X003352Y007863D02*
X002774Y007863D01*
X002766Y007981D02*
X004097Y007981D01*
X004097Y007863D02*
X003779Y007863D01*
X003566Y007863D02*
X003566Y007863D01*
X003566Y007744D02*
X003566Y007744D01*
X003566Y007626D02*
X003566Y007626D01*
X003038Y008100D02*
X004097Y008100D01*
X004097Y008218D02*
X003156Y008218D01*
X003275Y008337D02*
X004097Y008337D01*
X004097Y008455D02*
X003292Y008455D01*
X003292Y008574D02*
X004097Y008574D01*
X004097Y008692D02*
X003292Y008692D01*
X003355Y008811D02*
X004097Y008811D01*
X003592Y009048D02*
X010850Y009048D01*
X011026Y009048D02*
X011026Y009048D01*
X011026Y008978D02*
X011051Y008978D01*
X011101Y008988D01*
X011148Y009007D01*
X011190Y009035D01*
X011226Y009071D01*
X011254Y009113D01*
X011273Y009160D01*
X011283Y009210D01*
X011283Y009235D01*
X011026Y009235D01*
X011026Y009235D01*
X011026Y009235D01*
X011026Y008978D01*
X011202Y009048D02*
X012425Y009048D01*
X012437Y009035D02*
X012479Y009007D01*
X012526Y008988D01*
X012576Y008978D01*
X012601Y008978D01*
X012626Y008978D01*
X012676Y008988D01*
X012723Y009007D01*
X012765Y009035D01*
X012800Y009071D01*
X012829Y009113D01*
X012848Y009160D01*
X012858Y009210D01*
X012858Y009235D01*
X012858Y009260D01*
X012848Y009310D01*
X012829Y009356D01*
X012800Y009399D01*
X012765Y009434D01*
X012723Y009462D01*
X012676Y009482D01*
X012626Y009492D01*
X012601Y009492D01*
X012601Y009235D01*
X012601Y009235D01*
X012601Y009492D01*
X012576Y009492D01*
X012526Y009482D01*
X012479Y009462D01*
X012437Y009434D01*
X012401Y009399D01*
X012373Y009356D01*
X012354Y009310D01*
X012344Y009260D01*
X012344Y009235D01*
X012601Y009235D01*
X012858Y009235D01*
X012601Y009235D01*
X012601Y009235D01*
X012601Y009235D01*
X012601Y008978D01*
X012601Y009235D01*
X012601Y009235D01*
X012344Y009235D01*
X012344Y009210D01*
X012354Y009160D01*
X012373Y009113D01*
X012401Y009071D01*
X012437Y009035D01*
X012353Y009166D02*
X011274Y009166D01*
X011278Y009285D02*
X011911Y009285D01*
X012053Y009285D02*
X012349Y009285D01*
X012406Y009403D02*
X012258Y009403D01*
X012380Y009522D02*
X015572Y009522D01*
X015572Y009640D02*
X014944Y009640D01*
X014946Y009642D02*
X014974Y009684D01*
X014994Y009731D01*
X015003Y009780D01*
X015003Y009806D01*
X015003Y009831D01*
X014994Y009881D01*
X014974Y009927D01*
X014946Y009969D01*
X014910Y010005D01*
X014868Y010033D01*
X014822Y010053D01*
X014772Y010063D01*
X014747Y010063D01*
X014747Y009806D01*
X015003Y009806D01*
X014747Y009806D01*
X014747Y009806D01*
X014747Y009806D01*
X014747Y010063D01*
X014721Y010063D01*
X014672Y010053D01*
X014625Y010033D01*
X014583Y010005D01*
X014547Y009969D01*
X014519Y009927D01*
X014500Y009881D01*
X014490Y009831D01*
X014490Y009806D01*
X014747Y009806D01*
X014747Y009549D01*
X014772Y009549D01*
X014822Y009559D01*
X014868Y009578D01*
X014910Y009606D01*
X014946Y009642D01*
X014999Y009759D02*
X015572Y009759D01*
X015572Y009877D02*
X014994Y009877D01*
X014920Y009996D02*
X015572Y009996D01*
X015572Y010114D02*
X013964Y010114D01*
X013970Y010104D02*
X013942Y010147D01*
X013906Y010182D01*
X013864Y010210D01*
X013818Y010230D01*
X013768Y010240D01*
X013743Y010240D01*
X013743Y009983D01*
X014000Y009983D01*
X014000Y010008D01*
X013990Y010058D01*
X013970Y010104D01*
X014000Y009996D02*
X014573Y009996D01*
X014499Y009877D02*
X013977Y009877D01*
X013970Y009861D02*
X013990Y009908D01*
X014000Y009958D01*
X014000Y009983D01*
X013743Y009983D01*
X013743Y009983D01*
X013743Y009983D01*
X013743Y009726D01*
X013768Y009726D01*
X013818Y009736D01*
X013864Y009755D01*
X013906Y009783D01*
X013942Y009819D01*
X013970Y009861D01*
X013869Y009759D02*
X014494Y009759D01*
X014490Y009780D02*
X014500Y009731D01*
X014519Y009684D01*
X014547Y009642D01*
X014583Y009606D01*
X014625Y009578D01*
X014672Y009559D01*
X014721Y009549D01*
X014747Y009549D01*
X014747Y009806D01*
X014747Y009806D01*
X014747Y009806D01*
X014490Y009806D01*
X014490Y009780D01*
X014549Y009640D02*
X012345Y009640D01*
X012276Y009759D02*
X013616Y009759D01*
X013621Y009755D02*
X013668Y009736D01*
X013717Y009726D01*
X013743Y009726D01*
X013743Y009983D01*
X013743Y009983D01*
X013743Y010240D01*
X013717Y010240D01*
X013668Y010230D01*
X013621Y010210D01*
X013579Y010182D01*
X013543Y010147D01*
X013515Y010104D01*
X013496Y010058D01*
X013486Y010008D01*
X013486Y009983D01*
X013743Y009983D01*
X013743Y009983D01*
X013486Y009983D01*
X013486Y009958D01*
X013496Y009908D01*
X013515Y009861D01*
X013543Y009819D01*
X013579Y009783D01*
X013621Y009755D01*
X013743Y009759D02*
X013743Y009759D01*
X013743Y009877D02*
X013743Y009877D01*
X013743Y009996D02*
X013743Y009996D01*
X013743Y010114D02*
X013743Y010114D01*
X013743Y010233D02*
X013743Y010233D01*
X013804Y010233D02*
X015572Y010233D01*
X015572Y010351D02*
X015262Y010351D01*
X015245Y010335D02*
X015281Y010370D01*
X015309Y010412D01*
X015328Y010459D01*
X015338Y010509D01*
X015338Y010534D01*
X015081Y010534D01*
X014824Y010534D01*
X014824Y010509D01*
X014834Y010459D01*
X014854Y010412D01*
X014882Y010370D01*
X014918Y010335D01*
X014960Y010306D01*
X015006Y010287D01*
X015056Y010277D01*
X015081Y010277D01*
X015081Y010534D01*
X015081Y010534D01*
X014824Y010534D01*
X014824Y010559D01*
X014834Y010609D01*
X014854Y010656D01*
X014882Y010698D01*
X014918Y010734D01*
X014960Y010762D01*
X015006Y010781D01*
X015056Y010791D01*
X015081Y010791D01*
X015081Y010534D01*
X015081Y010534D01*
X015081Y010534D01*
X015081Y010277D01*
X015107Y010277D01*
X015156Y010287D01*
X015203Y010306D01*
X015245Y010335D01*
X015330Y010470D02*
X015572Y010470D01*
X015572Y010588D02*
X015332Y010588D01*
X015328Y010609D02*
X015338Y010559D01*
X015338Y010534D01*
X015081Y010534D01*
X015081Y010791D01*
X015107Y010791D01*
X015156Y010781D01*
X015203Y010762D01*
X015245Y010734D01*
X015281Y010698D01*
X015309Y010656D01*
X015328Y010609D01*
X015272Y010707D02*
X015572Y010707D01*
X015572Y010825D02*
X014405Y010825D01*
X014416Y010821D02*
X014369Y010840D01*
X014319Y010850D01*
X014294Y010850D01*
X014294Y010593D01*
X014294Y010593D01*
X014551Y010593D01*
X014551Y010568D01*
X014541Y010518D01*
X014521Y010471D01*
X014493Y010429D01*
X014458Y010394D01*
X014416Y010365D01*
X014369Y010346D01*
X014319Y010336D01*
X014294Y010336D01*
X014294Y010593D01*
X014294Y010593D01*
X014551Y010593D01*
X014551Y010618D01*
X014541Y010668D01*
X014521Y010715D01*
X014493Y010757D01*
X014458Y010793D01*
X014416Y010821D01*
X014294Y010825D02*
X014294Y010825D01*
X014294Y010850D02*
X014269Y010850D01*
X014219Y010840D01*
X014172Y010821D01*
X014130Y010793D01*
X014094Y010757D01*
X014066Y010715D01*
X014047Y010668D01*
X014037Y010618D01*
X014037Y010593D01*
X014037Y010568D01*
X014047Y010518D01*
X014066Y010471D01*
X014094Y010429D01*
X014130Y010394D01*
X014172Y010365D01*
X014219Y010346D01*
X014269Y010336D01*
X014294Y010336D01*
X014294Y010593D01*
X014294Y010593D01*
X014037Y010593D01*
X014294Y010593D01*
X014294Y010593D01*
X014294Y010850D01*
X014183Y010825D02*
X013125Y010825D01*
X013109Y010819D02*
X013156Y010838D01*
X013198Y010866D01*
X013234Y010902D01*
X013262Y010944D01*
X013281Y010991D01*
X013291Y011040D01*
X013291Y011066D01*
X013291Y011091D01*
X013281Y011140D01*
X013262Y011187D01*
X013234Y011229D01*
X013198Y011265D01*
X013156Y011293D01*
X013109Y011312D01*
X013059Y011322D01*
X013034Y011322D01*
X013009Y011322D01*
X012959Y011312D01*
X012912Y011293D01*
X012870Y011265D01*
X012835Y011229D01*
X012806Y011187D01*
X012787Y011140D01*
X012777Y011091D01*
X012777Y011066D01*
X013034Y011066D01*
X013034Y011322D01*
X013034Y011066D01*
X013034Y011066D01*
X013291Y011066D01*
X013034Y011066D01*
X013034Y011066D01*
X013034Y011066D01*
X012777Y011066D01*
X012777Y011040D01*
X012787Y010991D01*
X012806Y010944D01*
X012835Y010902D01*
X012870Y010866D01*
X012912Y010838D01*
X012959Y010819D01*
X013009Y010809D01*
X013034Y010809D01*
X013059Y010809D01*
X013109Y010819D01*
X013034Y010825D02*
X013034Y010825D01*
X013034Y010809D02*
X013034Y011065D01*
X013034Y011065D01*
X013034Y010809D01*
X012943Y010825D02*
X011709Y010825D01*
X011689Y010813D02*
X012047Y011020D01*
X012063Y011081D01*
X012124Y011064D01*
X012482Y011271D01*
X012507Y011366D01*
X012261Y011793D01*
X012166Y011818D01*
X012117Y011790D01*
X012105Y011808D01*
X012086Y011812D01*
X011954Y011943D01*
X011693Y011943D01*
X011532Y012036D01*
X011465Y012018D01*
X011447Y012085D01*
X011197Y012230D01*
X011214Y012247D01*
X011311Y012247D01*
X011311Y012207D01*
X011380Y012137D01*
X011873Y012137D01*
X011942Y012207D01*
X011942Y012621D01*
X011898Y012665D01*
X011942Y012709D01*
X011942Y012737D01*
X012022Y012737D01*
X012126Y012842D01*
X012229Y012945D01*
X012229Y013840D01*
X012257Y013840D01*
X012327Y013910D01*
X012327Y014323D01*
X012257Y014393D01*
X011844Y014393D01*
X011784Y014334D01*
X011686Y014334D01*
X011627Y014393D01*
X011214Y014393D01*
X011144Y014323D01*
X011144Y014296D01*
X011033Y014296D01*
X010994Y014334D01*
X010900Y014374D01*
X010798Y014374D01*
X010703Y014334D01*
X010631Y014262D01*
X010592Y014168D01*
X010592Y014066D01*
X010631Y013971D01*
X010703Y013899D01*
X010798Y013860D01*
X010900Y013860D01*
X010994Y013899D01*
X011033Y013938D01*
X011144Y013938D01*
X011144Y013910D01*
X011214Y013840D01*
X011627Y013840D01*
X011686Y013899D01*
X011784Y013899D01*
X011844Y013840D01*
X011871Y013840D01*
X011871Y013694D01*
X011380Y013694D01*
X011311Y013625D01*
X011311Y013589D01*
X011192Y013589D01*
X011093Y013490D01*
X010993Y013390D01*
X010681Y013390D01*
X010612Y013320D01*
X010612Y013253D01*
X010605Y013277D01*
X010590Y013304D01*
X010567Y013326D01*
X010540Y013342D01*
X010510Y013350D01*
X010061Y013350D01*
X009613Y013350D01*
X009582Y013342D01*
X009555Y013326D01*
X009533Y013304D01*
X009517Y013277D01*
X009509Y013247D01*
X009509Y013172D01*
X010061Y013172D01*
X010061Y013172D01*
X010061Y013350D01*
X010061Y013172D01*
X010061Y013172D01*
X009509Y013172D01*
X009509Y013097D01*
X009517Y013067D01*
X009530Y013045D01*
X009509Y013024D01*
X009509Y012808D01*
X009529Y012788D01*
X009509Y012768D01*
X009509Y012552D01*
X009530Y012531D01*
X009517Y012509D01*
X009509Y012479D01*
X009509Y012404D01*
X009509Y012329D01*
X009517Y012299D01*
X009530Y012277D01*
X009509Y012257D01*
X009509Y012040D01*
X009529Y012020D01*
X009509Y012001D01*
X009509Y011784D01*
X009530Y011763D01*
X009517Y011741D01*
X009509Y011711D01*
X009509Y011636D01*
X009509Y011562D01*
X009517Y011531D01*
X009533Y011504D01*
X009555Y011482D01*
X009582Y011466D01*
X009613Y011458D01*
X010061Y011458D01*
X010061Y011636D01*
X010061Y011636D01*
X009509Y011636D01*
X010061Y011636D01*
X010061Y011636D01*
X010061Y011458D01*
X010510Y011458D01*
X010540Y011466D01*
X010567Y011482D01*
X010590Y011504D01*
X010605Y011531D01*
X010609Y011544D01*
X010633Y011501D01*
X010701Y011483D01*
X010683Y011416D01*
X010830Y011160D01*
X010897Y011143D01*
X010931Y011084D01*
X010913Y011014D01*
X011159Y010588D01*
X011254Y010562D01*
X011612Y010769D01*
X011628Y010830D01*
X011689Y010813D01*
X011646Y010825D02*
X011627Y010825D01*
X011504Y010707D02*
X014063Y010707D01*
X014037Y010588D02*
X011298Y010588D01*
X011159Y010588D02*
X010555Y010588D01*
X010555Y010707D02*
X011090Y010707D01*
X011022Y010825D02*
X010555Y010825D01*
X010417Y010944D02*
X010954Y010944D01*
X010925Y011062D02*
X010412Y011062D01*
X010750Y011299D02*
X008872Y011299D01*
X008863Y011418D02*
X010683Y011418D01*
X010613Y011536D02*
X010607Y011536D01*
X010819Y011181D02*
X008938Y011181D01*
X008936Y011062D02*
X009318Y011062D01*
X009313Y010944D02*
X008866Y010944D01*
X008853Y010825D02*
X009175Y010825D01*
X009175Y010707D02*
X008761Y010707D01*
X008743Y010588D02*
X009175Y010588D01*
X009175Y010470D02*
X008743Y010470D01*
X008743Y010351D02*
X009175Y010351D01*
X009175Y010233D02*
X008731Y010233D01*
X008743Y010114D02*
X009175Y010114D01*
X009175Y009996D02*
X008743Y009996D01*
X008679Y009877D02*
X009175Y009877D01*
X008526Y009877D02*
X008526Y009877D01*
X008526Y009996D02*
X008526Y009996D01*
X008308Y010114D02*
X007022Y010114D01*
X007022Y009996D02*
X007290Y009996D01*
X007231Y009877D02*
X007022Y009877D01*
X007022Y009759D02*
X007234Y009759D01*
X007305Y009640D02*
X007022Y009640D01*
X006957Y009522D02*
X007636Y009522D01*
X007620Y009432D02*
X007620Y009406D01*
X007630Y009357D01*
X007649Y009310D01*
X007677Y009268D01*
X007713Y009232D01*
X007755Y009204D01*
X007802Y009185D01*
X007851Y009175D01*
X007877Y009175D01*
X007877Y009432D01*
X007877Y009432D01*
X007877Y009432D01*
X007620Y009432D01*
X007620Y009403D02*
X006839Y009403D01*
X006720Y009285D02*
X007666Y009285D01*
X007877Y009285D02*
X007877Y009285D01*
X007877Y009403D02*
X007877Y009403D01*
X007877Y009522D02*
X007877Y009522D01*
X007877Y009640D02*
X007877Y009640D01*
X007726Y009640D02*
X007661Y009640D01*
X007483Y009640D02*
X007483Y009640D01*
X007483Y009759D02*
X007483Y009759D01*
X007483Y009877D02*
X007483Y009877D01*
X007680Y010825D02*
X007680Y010825D01*
X007680Y010944D02*
X007680Y010944D01*
X007680Y011062D02*
X007680Y011062D01*
X007680Y011181D02*
X007680Y011181D01*
X007463Y011536D02*
X007463Y011536D01*
X007022Y011418D02*
X008505Y011418D01*
X008505Y011536D02*
X008008Y011536D01*
X008015Y011655D02*
X008505Y011655D01*
X008505Y011773D02*
X008004Y011773D01*
X008015Y011892D02*
X008471Y011892D01*
X008684Y011932D02*
X008467Y012148D01*
X007463Y012148D01*
X008015Y012603D02*
X008033Y012603D01*
X008015Y012721D02*
X008062Y012721D01*
X008062Y012840D02*
X008015Y012840D01*
X008015Y012958D02*
X008062Y012958D01*
X008062Y013077D02*
X008009Y013077D01*
X008015Y013195D02*
X008062Y013195D01*
X008062Y013314D02*
X007982Y013314D01*
X008062Y013432D02*
X006755Y013432D01*
X006755Y013314D02*
X006944Y013314D01*
X006911Y013195D02*
X006742Y013195D01*
X006755Y013551D02*
X008038Y013551D01*
X008013Y013669D02*
X006707Y013669D01*
X006707Y013788D02*
X007287Y013788D01*
X007270Y013791D02*
X007320Y013781D01*
X007345Y013781D01*
X007345Y014038D01*
X007345Y014295D01*
X007320Y014295D01*
X007270Y014285D01*
X007223Y014266D01*
X007181Y014237D01*
X007146Y014202D01*
X007117Y014160D01*
X007098Y014113D01*
X007088Y014063D01*
X007088Y014038D01*
X007345Y014038D01*
X007345Y014038D01*
X007345Y014038D01*
X007345Y014295D01*
X007370Y014295D01*
X007420Y014285D01*
X007467Y014266D01*
X007509Y014237D01*
X007545Y014202D01*
X007573Y014160D01*
X007592Y014113D01*
X007602Y014063D01*
X007602Y014038D01*
X007345Y014038D01*
X007088Y014038D01*
X007088Y014013D01*
X007098Y013963D01*
X007117Y013916D01*
X007146Y013874D01*
X007181Y013838D01*
X007223Y013810D01*
X007270Y013791D01*
X007345Y013788D02*
X007345Y013788D01*
X007345Y013781D02*
X007370Y013781D01*
X007420Y013791D01*
X007467Y013810D01*
X007509Y013838D01*
X007545Y013874D01*
X007573Y013916D01*
X007592Y013963D01*
X007602Y014013D01*
X007602Y014038D01*
X007345Y014038D01*
X007345Y014038D01*
X007345Y014038D01*
X007345Y013781D01*
X007403Y013788D02*
X008013Y013788D01*
X008049Y013906D02*
X007566Y013906D01*
X007602Y014025D02*
X008013Y014025D01*
X008013Y014143D02*
X007580Y014143D01*
X007473Y014262D02*
X008022Y014262D01*
X008231Y014262D02*
X008231Y014262D01*
X008231Y014143D02*
X008231Y014143D01*
X008231Y014117D02*
X008231Y014117D01*
X008448Y014143D02*
X009066Y014143D01*
X009067Y014140D02*
X009086Y014093D01*
X009114Y014051D01*
X009150Y014016D01*
X009192Y013988D01*
X009239Y013968D01*
X009288Y013958D01*
X009314Y013958D01*
X009339Y013958D01*
X009388Y013968D01*
X009435Y013988D01*
X009477Y014016D01*
X009513Y014051D01*
X009541Y014093D01*
X009561Y014140D01*
X009570Y014190D01*
X009570Y014215D01*
X009314Y014215D01*
X009314Y014215D01*
X009570Y014215D01*
X009570Y014240D01*
X009561Y014290D01*
X009541Y014337D01*
X009513Y014379D01*
X009477Y014415D01*
X009435Y014443D01*
X009388Y014462D01*
X009339Y014472D01*
X009314Y014472D01*
X009314Y014215D01*
X009314Y013958D01*
X009314Y014215D01*
X009314Y014215D01*
X009314Y014215D01*
X009314Y014472D01*
X009288Y014472D01*
X009239Y014462D01*
X009192Y014443D01*
X009150Y014415D01*
X009114Y014379D01*
X009086Y014337D01*
X009067Y014290D01*
X009057Y014240D01*
X009057Y014215D01*
X009057Y014190D01*
X009067Y014140D01*
X009057Y014215D02*
X009314Y014215D01*
X009314Y014215D01*
X009057Y014215D01*
X009061Y014262D02*
X008440Y014262D01*
X008448Y014025D02*
X009141Y014025D01*
X009314Y014025D02*
X009314Y014025D01*
X009314Y014143D02*
X009314Y014143D01*
X009314Y014262D02*
X009314Y014262D01*
X009314Y014380D02*
X009314Y014380D01*
X009115Y014380D02*
X006601Y014380D01*
X006616Y014499D02*
X013986Y014499D01*
X013945Y014617D02*
X007496Y014617D01*
X007509Y014626D02*
X007467Y014598D01*
X007420Y014578D01*
X007370Y014569D01*
X007345Y014569D01*
X007345Y014825D01*
X007345Y014825D01*
X007345Y014569D01*
X007320Y014569D01*
X007270Y014578D01*
X007223Y014598D01*
X007181Y014626D01*
X007146Y014662D01*
X007117Y014704D01*
X007098Y014750D01*
X007088Y014800D01*
X007088Y014825D01*
X007345Y014825D01*
X007345Y014825D01*
X007345Y014825D01*
X007602Y014825D01*
X007602Y014800D01*
X007592Y014750D01*
X007573Y014704D01*
X007545Y014662D01*
X007509Y014626D01*
X007586Y014736D02*
X013914Y014736D01*
X013899Y014854D02*
X008524Y014854D01*
X008529Y014858D02*
X008557Y014901D01*
X008576Y014947D01*
X008586Y014997D01*
X008586Y015022D01*
X008329Y015022D01*
X008072Y015022D01*
X008072Y014997D01*
X008082Y014947D01*
X008102Y014901D01*
X008130Y014858D01*
X008166Y014823D01*
X008208Y014795D01*
X008254Y014775D01*
X008304Y014765D01*
X008329Y014765D01*
X008329Y015022D01*
X008329Y015022D01*
X008329Y015022D01*
X008072Y015022D01*
X008072Y015048D01*
X008082Y015097D01*
X008102Y015144D01*
X008130Y015186D01*
X008166Y015222D01*
X008208Y015250D01*
X008254Y015269D01*
X008304Y015279D01*
X008329Y015279D01*
X008329Y015022D01*
X008329Y014765D01*
X008355Y014765D01*
X008404Y014775D01*
X008451Y014795D01*
X008493Y014823D01*
X008529Y014858D01*
X008581Y014973D02*
X013899Y014973D01*
X013908Y015091D02*
X008577Y015091D01*
X008576Y015097D02*
X008557Y015144D01*
X008529Y015186D01*
X008493Y015222D01*
X008451Y015250D01*
X008404Y015269D01*
X008355Y015279D01*
X008329Y015279D01*
X008329Y015022D01*
X008329Y015022D01*
X008329Y015022D01*
X008586Y015022D01*
X008586Y015048D01*
X008576Y015097D01*
X008505Y015210D02*
X013940Y015210D01*
X013974Y015328D02*
X002094Y015328D01*
X002128Y015210D02*
X008153Y015210D01*
X008081Y015091D02*
X002160Y015091D01*
X002169Y014973D02*
X004379Y014973D01*
X004390Y014989D02*
X004362Y014947D01*
X004342Y014900D01*
X004332Y014851D01*
X004332Y014825D01*
X004332Y014800D01*
X004342Y014750D01*
X004362Y014704D01*
X004390Y014662D01*
X004425Y014626D01*
X004467Y014598D01*
X004514Y014578D01*
X004564Y014569D01*
X004589Y014569D01*
X004589Y014825D01*
X004589Y014825D01*
X004332Y014825D01*
X004589Y014825D01*
X004589Y014825D01*
X004589Y014569D01*
X004614Y014569D01*
X004664Y014578D01*
X004711Y014598D01*
X004753Y014626D01*
X004789Y014662D01*
X004817Y014704D01*
X004836Y014750D01*
X004846Y014800D01*
X004846Y014825D01*
X004589Y014825D01*
X004589Y014825D01*
X004846Y014825D01*
X004846Y014851D01*
X004836Y014900D01*
X004817Y014947D01*
X004789Y014989D01*
X004753Y015025D01*
X004711Y015053D01*
X004664Y015072D01*
X004614Y015082D01*
X004589Y015082D01*
X004564Y015082D01*
X004514Y015072D01*
X004467Y015053D01*
X004425Y015025D01*
X004390Y014989D01*
X004333Y014854D02*
X003927Y014854D01*
X003923Y014856D02*
X003877Y014875D01*
X003827Y014885D01*
X003802Y014885D01*
X003802Y014629D01*
X003802Y014629D01*
X004059Y014629D01*
X004059Y014654D01*
X004049Y014703D01*
X004029Y014750D01*
X004001Y014792D01*
X003965Y014828D01*
X003923Y014856D01*
X003802Y014854D02*
X003802Y014854D01*
X003802Y014885D02*
X003776Y014885D01*
X003727Y014875D01*
X003680Y014856D01*
X003638Y014828D01*
X003602Y014792D01*
X003574Y014750D01*
X003555Y014703D01*
X003545Y014654D01*
X003545Y014629D01*
X003802Y014629D01*
X003802Y014628D01*
X003802Y014372D01*
X003827Y014372D01*
X003877Y014382D01*
X003923Y014401D01*
X003965Y014429D01*
X004001Y014465D01*
X004029Y014507D01*
X004049Y014554D01*
X004059Y014603D01*
X004059Y014628D01*
X003802Y014628D01*
X003802Y014628D01*
X003802Y014372D01*
X003776Y014372D01*
X003727Y014382D01*
X003680Y014401D01*
X003638Y014429D01*
X003602Y014465D01*
X003574Y014507D01*
X003555Y014554D01*
X003545Y014603D01*
X003545Y014628D01*
X003802Y014628D01*
X003802Y014629D01*
X003802Y014885D01*
X003677Y014854D02*
X003139Y014854D01*
X003136Y014856D02*
X003089Y014875D01*
X003040Y014885D01*
X003014Y014885D01*
X002989Y014885D01*
X002939Y014875D01*
X002893Y014856D01*
X002851Y014828D01*
X002815Y014792D01*
X002787Y014750D01*
X002767Y014703D01*
X002757Y014654D01*
X002757Y014629D01*
X003014Y014629D01*
X003014Y014885D01*
X003014Y014629D01*
X003014Y014629D01*
X003014Y014628D01*
X003014Y014628D01*
X003014Y014372D01*
X002989Y014372D01*
X002939Y014382D01*
X002893Y014401D01*
X002851Y014429D01*
X002815Y014465D01*
X002787Y014507D01*
X002767Y014554D01*
X002757Y014603D01*
X002757Y014628D01*
X003014Y014628D01*
X003014Y014372D01*
X003040Y014372D01*
X003089Y014382D01*
X003136Y014401D01*
X003178Y014429D01*
X003214Y014465D01*
X003242Y014507D01*
X003261Y014554D01*
X003271Y014603D01*
X003271Y014628D01*
X003014Y014628D01*
X003014Y014629D01*
X003271Y014629D01*
X003271Y014654D01*
X003261Y014703D01*
X003242Y014750D01*
X003214Y014792D01*
X003178Y014828D01*
X003136Y014856D01*
X003014Y014854D02*
X003014Y014854D01*
X003014Y014736D02*
X003014Y014736D01*
X003014Y014617D02*
X003014Y014617D01*
X003014Y014499D02*
X003014Y014499D01*
X003014Y014380D02*
X003014Y014380D01*
X002947Y014380D02*
X002013Y014380D01*
X002082Y014499D02*
X002792Y014499D01*
X002757Y014617D02*
X002123Y014617D01*
X002155Y014736D02*
X002781Y014736D01*
X002890Y014854D02*
X002169Y014854D01*
X002026Y015447D02*
X014043Y015447D01*
X014116Y015565D02*
X001952Y015565D01*
X003082Y014380D02*
X003734Y014380D01*
X003802Y014380D02*
X003802Y014380D01*
X003869Y014380D02*
X006082Y014380D01*
X006067Y014499D02*
X004024Y014499D01*
X004059Y014617D02*
X004439Y014617D01*
X004348Y014736D02*
X004035Y014736D01*
X003802Y014736D02*
X003802Y014736D01*
X003802Y014617D02*
X003802Y014617D01*
X003802Y014499D02*
X003802Y014499D01*
X003580Y014499D02*
X003236Y014499D01*
X003271Y014617D02*
X003545Y014617D01*
X003568Y014736D02*
X003248Y014736D01*
X002686Y014178D02*
X002644Y014207D01*
X002597Y014226D01*
X002548Y014236D01*
X002522Y014236D01*
X002497Y014236D01*
X002447Y014226D01*
X002401Y014207D01*
X002358Y014178D01*
X002323Y014143D01*
X001812Y014143D01*
X001931Y014262D02*
X006025Y014262D01*
X006025Y014143D02*
X002721Y014143D01*
X002722Y014143D02*
X002686Y014178D01*
X002722Y014143D02*
X002750Y014101D01*
X002769Y014054D01*
X002779Y014004D01*
X002779Y013979D01*
X002522Y013979D01*
X002522Y013979D01*
X002265Y013979D01*
X002265Y014004D01*
X002275Y014054D01*
X002295Y014101D01*
X002323Y014143D01*
X002269Y014025D02*
X001636Y014025D01*
X001305Y013906D02*
X002275Y013906D01*
X002275Y013904D02*
X002295Y013857D01*
X002323Y013815D01*
X002358Y013779D01*
X002401Y013751D01*
X002447Y013732D01*
X002497Y013722D01*
X002522Y013722D01*
X002522Y013979D01*
X002522Y014236D01*
X002522Y013979D01*
X002522Y013979D01*
X002265Y013979D01*
X002265Y013954D01*
X002275Y013904D01*
X002350Y013788D02*
X000496Y013788D01*
X000496Y013906D02*
X000984Y013906D01*
X000653Y014025D02*
X000496Y014025D01*
X000496Y013669D02*
X006369Y013669D01*
X006369Y013788D02*
X002694Y013788D01*
X002686Y013779D02*
X002722Y013815D01*
X002750Y013857D01*
X002769Y013904D01*
X002779Y013954D01*
X002779Y013979D01*
X002522Y013979D01*
X002522Y013979D01*
X002522Y013979D01*
X002522Y013722D01*
X002548Y013722D01*
X002597Y013732D01*
X002644Y013751D01*
X002686Y013779D01*
X002770Y013906D02*
X006029Y013906D01*
X006025Y014025D02*
X002775Y014025D01*
X002522Y014025D02*
X002522Y014025D01*
X002522Y014143D02*
X002522Y014143D01*
X002522Y013906D02*
X002522Y013906D01*
X002522Y013788D02*
X002522Y013788D01*
X001994Y013517D02*
X001906Y013481D01*
X001839Y013414D01*
X001803Y013326D01*
X001803Y011993D01*
X001695Y011949D01*
X001521Y011774D01*
X001427Y011547D01*
X001427Y011301D01*
X001521Y011073D01*
X001695Y010899D01*
X001923Y010805D01*
X002169Y010805D01*
X002396Y010899D01*
X002571Y011073D01*
X002665Y011301D01*
X002665Y011547D01*
X002571Y011774D01*
X002396Y011949D01*
X002281Y011996D01*
X002281Y013039D01*
X003727Y013039D01*
X003737Y013029D01*
X003692Y012985D01*
X003692Y012571D01*
X003737Y012527D01*
X003716Y012507D01*
X003701Y012480D01*
X003692Y012449D01*
X003692Y012295D01*
X003990Y012295D01*
X003990Y012257D01*
X004027Y012257D01*
X004027Y012000D01*
X004221Y012000D01*
X004251Y012008D01*
X004278Y012023D01*
X004301Y012046D01*
X004316Y012073D01*
X004324Y012103D01*
X004324Y012257D01*
X004027Y012257D01*
X004027Y012295D01*
X004324Y012295D01*
X004324Y012449D01*
X004316Y012480D01*
X004301Y012507D01*
X004280Y012527D01*
X004324Y012571D01*
X004324Y012985D01*
X004280Y013029D01*
X004324Y013073D01*
X004324Y013487D01*
X004255Y013557D01*
X003762Y013557D01*
X003723Y013517D01*
X001994Y013517D01*
X001858Y013432D02*
X000496Y013432D01*
X000496Y013314D02*
X001803Y013314D01*
X001803Y013195D02*
X000496Y013195D01*
X000496Y013077D02*
X001803Y013077D01*
X001803Y012958D02*
X001566Y012958D01*
X001562Y012962D02*
X001535Y012978D01*
X001504Y012986D01*
X001106Y012986D01*
X001106Y012484D01*
X000986Y012484D01*
X000986Y012603D02*
X001106Y012603D01*
X001106Y012721D02*
X000986Y012721D01*
X000986Y012840D02*
X001106Y012840D01*
X001106Y012958D02*
X000986Y012958D01*
X000526Y012958D02*
X000496Y012958D01*
X001106Y012484D02*
X001608Y012484D01*
X001803Y012484D01*
X001803Y012366D02*
X001106Y012366D01*
X001106Y012364D02*
X001608Y012364D01*
X001608Y011965D01*
X001600Y011935D01*
X001584Y011908D01*
X001562Y011886D01*
X001535Y011870D01*
X001504Y011862D01*
X001106Y011862D01*
X001106Y012364D01*
X001106Y012247D02*
X000986Y012247D01*
X000986Y012129D02*
X001106Y012129D01*
X001106Y012010D02*
X000986Y012010D01*
X000986Y011892D02*
X001106Y011892D01*
X001520Y011773D02*
X000496Y011773D01*
X000496Y011655D02*
X001471Y011655D01*
X001427Y011536D02*
X000496Y011536D01*
X000496Y011418D02*
X001427Y011418D01*
X001427Y011299D02*
X000496Y011299D01*
X000496Y011181D02*
X001477Y011181D01*
X001532Y011062D02*
X000496Y011062D01*
X000496Y010944D02*
X000511Y010944D01*
X000986Y010944D02*
X001106Y010944D01*
X001106Y010986D02*
X001106Y010484D01*
X001608Y010484D01*
X001608Y010882D01*
X001600Y010913D01*
X001584Y010940D01*
X001562Y010962D01*
X001535Y010978D01*
X001504Y010986D01*
X001106Y010986D01*
X001106Y010825D02*
X000986Y010825D01*
X000986Y010707D02*
X001106Y010707D01*
X001106Y010588D02*
X000986Y010588D01*
X001106Y010470D02*
X002986Y010470D01*
X002986Y010588D02*
X003106Y010588D01*
X003106Y010484D02*
X003106Y010986D01*
X003504Y010986D01*
X003535Y010978D01*
X003562Y010962D01*
X003584Y010940D01*
X003600Y010913D01*
X003608Y010882D01*
X003608Y010484D01*
X003106Y010484D01*
X003106Y010470D02*
X004669Y010470D01*
X004667Y010588D02*
X004228Y010588D01*
X004219Y010582D02*
X004261Y010610D01*
X004297Y010646D01*
X004325Y010688D01*
X004344Y010735D01*
X004354Y010784D01*
X004354Y010810D01*
X004354Y010835D01*
X004344Y010885D01*
X004325Y010931D01*
X004297Y010973D01*
X004261Y011009D01*
X004219Y011037D01*
X004172Y011057D01*
X004122Y011066D01*
X004097Y011066D01*
X004072Y011066D01*
X004022Y011057D01*
X003975Y011037D01*
X003933Y011009D01*
X003897Y010973D01*
X003869Y010931D01*
X003850Y010885D01*
X003840Y010835D01*
X003840Y010810D01*
X004097Y010810D01*
X004097Y011066D01*
X004097Y010810D01*
X004097Y010810D01*
X004354Y010810D01*
X004097Y010810D01*
X004097Y010810D01*
X004097Y010810D01*
X003840Y010810D01*
X003840Y010784D01*
X003850Y010735D01*
X003869Y010688D01*
X003897Y010646D01*
X003933Y010610D01*
X003975Y010582D01*
X004022Y010563D01*
X004072Y010553D01*
X004097Y010553D01*
X004122Y010553D01*
X004172Y010563D01*
X004219Y010582D01*
X004097Y010588D02*
X004097Y010588D01*
X004097Y010553D02*
X004097Y010810D01*
X004097Y010810D01*
X004097Y010553D01*
X003966Y010588D02*
X003608Y010588D01*
X003608Y010707D02*
X003862Y010707D01*
X003840Y010825D02*
X003608Y010825D01*
X003580Y010944D02*
X003878Y010944D01*
X004049Y011062D02*
X002560Y011062D01*
X002511Y010944D02*
X002441Y010944D01*
X002484Y010825D02*
X002218Y010825D01*
X002484Y010707D02*
X001608Y010707D01*
X001608Y010825D02*
X001874Y010825D01*
X001651Y010944D02*
X001580Y010944D01*
X001608Y010588D02*
X002484Y010588D01*
X002484Y010351D02*
X001608Y010351D01*
X001608Y010364D02*
X001106Y010364D01*
X001106Y009862D01*
X001504Y009862D01*
X001535Y009870D01*
X001562Y009886D01*
X001584Y009908D01*
X001600Y009935D01*
X001608Y009965D01*
X001608Y010364D01*
X001608Y010233D02*
X002484Y010233D01*
X002484Y010114D02*
X001608Y010114D01*
X001608Y009996D02*
X002484Y009996D01*
X002545Y009877D02*
X001547Y009877D01*
X001716Y009640D02*
X002894Y009640D01*
X002893Y009640D02*
X002851Y009611D01*
X002815Y009576D01*
X002787Y009534D01*
X002767Y009487D01*
X002757Y009437D01*
X002757Y009412D01*
X003014Y009412D01*
X003014Y009412D01*
X002757Y009412D01*
X002757Y009387D01*
X002767Y009337D01*
X002787Y009290D01*
X002815Y009248D01*
X002851Y009212D01*
X002893Y009184D01*
X002939Y009165D01*
X002989Y009155D01*
X003014Y009155D01*
X003014Y009412D01*
X003014Y009669D01*
X002989Y009669D01*
X002939Y009659D01*
X002893Y009640D01*
X003014Y009640D02*
X003014Y009640D01*
X003014Y009669D02*
X003014Y009412D01*
X003014Y009412D01*
X003014Y009412D01*
X003014Y009155D01*
X003040Y009155D01*
X003089Y009165D01*
X003136Y009184D01*
X003178Y009212D01*
X003214Y009248D01*
X003242Y009290D01*
X003261Y009337D01*
X003271Y009387D01*
X003271Y009412D01*
X003271Y009437D01*
X003261Y009487D01*
X003242Y009534D01*
X003214Y009576D01*
X003178Y009611D01*
X003136Y009640D01*
X003089Y009659D01*
X003040Y009669D01*
X003014Y009669D01*
X003135Y009640D02*
X003678Y009640D01*
X003560Y009522D02*
X003247Y009522D01*
X003271Y009412D02*
X003014Y009412D01*
X003014Y009412D01*
X003271Y009412D01*
X003271Y009403D02*
X003441Y009403D01*
X003323Y009285D02*
X003238Y009285D01*
X003204Y009166D02*
X003092Y009166D01*
X003014Y009166D02*
X003014Y009166D01*
X002937Y009166D02*
X001728Y009166D01*
X001728Y009285D02*
X002791Y009285D01*
X002757Y009403D02*
X001728Y009403D01*
X001728Y009522D02*
X002782Y009522D01*
X003014Y009522D02*
X003014Y009522D01*
X003014Y009403D02*
X003014Y009403D01*
X003014Y009285D02*
X003014Y009285D01*
X003086Y009048D02*
X001718Y009048D01*
X001106Y009877D02*
X000986Y009877D01*
X000986Y009996D02*
X001106Y009996D01*
X001106Y010114D02*
X000986Y010114D01*
X000986Y010233D02*
X001106Y010233D01*
X001106Y010351D02*
X000986Y010351D01*
X002530Y011886D02*
X002557Y011870D01*
X002587Y011862D01*
X002986Y011862D01*
X002986Y012364D01*
X002484Y012364D01*
X002484Y011965D01*
X002492Y011935D01*
X002508Y011908D01*
X002530Y011886D01*
X002524Y011892D02*
X002454Y011892D01*
X002484Y012010D02*
X002281Y012010D01*
X002281Y012129D02*
X002484Y012129D01*
X002484Y012247D02*
X002281Y012247D01*
X002281Y012366D02*
X002986Y012366D01*
X002986Y012364D02*
X002986Y012484D01*
X003106Y012484D01*
X002986Y012484D01*
X002986Y012986D01*
X002587Y012986D01*
X002557Y012978D01*
X002530Y012962D01*
X002508Y012940D01*
X002492Y012913D01*
X002484Y012882D01*
X002484Y012484D01*
X002281Y012484D01*
X002281Y012603D02*
X002484Y012603D01*
X002484Y012721D02*
X002281Y012721D01*
X002281Y012840D02*
X002484Y012840D01*
X002526Y012958D02*
X002281Y012958D01*
X001803Y012840D02*
X001608Y012840D01*
X001608Y012882D02*
X001600Y012913D01*
X001584Y012940D01*
X001562Y012962D01*
X001608Y012882D02*
X001608Y012484D01*
X001608Y012603D02*
X001803Y012603D01*
X001803Y012721D02*
X001608Y012721D01*
X001608Y012247D02*
X001803Y012247D01*
X001803Y012129D02*
X001608Y012129D01*
X001608Y012010D02*
X001803Y012010D01*
X001638Y011892D02*
X001568Y011892D01*
X000524Y011892D02*
X000496Y011892D01*
X000496Y013551D02*
X003756Y013551D01*
X004261Y013551D02*
X005262Y013551D01*
X005198Y013432D02*
X004324Y013432D01*
X004324Y013314D02*
X005198Y013314D01*
X005198Y013195D02*
X004324Y013195D01*
X004324Y013077D02*
X005198Y013077D01*
X005199Y012484D02*
X004314Y012484D01*
X004324Y012366D02*
X005198Y012366D01*
X005198Y012247D02*
X004324Y012247D01*
X004324Y012129D02*
X005198Y012129D01*
X005258Y012010D02*
X004255Y012010D01*
X004172Y011844D02*
X004122Y011854D01*
X004097Y011854D01*
X004072Y011854D01*
X004022Y011844D01*
X003975Y011825D01*
X003933Y011797D01*
X003897Y011761D01*
X003869Y011719D01*
X003850Y011672D01*
X003840Y011622D01*
X003840Y011597D01*
X003840Y011572D01*
X003850Y011522D01*
X003869Y011475D01*
X003897Y011433D01*
X003933Y011397D01*
X003975Y011369D01*
X004022Y011350D01*
X004072Y011340D01*
X004097Y011340D01*
X004122Y011340D01*
X004172Y011350D01*
X004219Y011369D01*
X004261Y011397D01*
X004297Y011433D01*
X004325Y011475D01*
X004344Y011522D01*
X004354Y011572D01*
X004354Y011597D01*
X004354Y011622D01*
X004344Y011672D01*
X004325Y011719D01*
X004297Y011761D01*
X004261Y011797D01*
X004219Y011825D01*
X004172Y011844D01*
X004097Y011854D02*
X004097Y011597D01*
X004097Y011597D01*
X004097Y011340D01*
X004097Y011597D01*
X003840Y011597D01*
X004097Y011597D01*
X004097Y011597D01*
X004097Y011597D01*
X004354Y011597D01*
X004097Y011597D01*
X004097Y011854D01*
X004097Y011773D02*
X004097Y011773D01*
X004097Y011655D02*
X004097Y011655D01*
X004097Y011597D02*
X004097Y011597D01*
X004097Y011536D02*
X004097Y011536D01*
X004097Y011418D02*
X004097Y011418D01*
X003913Y011418D02*
X002665Y011418D01*
X002665Y011536D02*
X003847Y011536D01*
X003847Y011655D02*
X002620Y011655D01*
X002571Y011773D02*
X003910Y011773D01*
X003990Y012000D02*
X003796Y012000D01*
X003766Y012008D01*
X003738Y012023D01*
X003716Y012046D01*
X003701Y012073D01*
X003692Y012103D01*
X003692Y012257D01*
X003990Y012257D01*
X003990Y012000D01*
X003990Y012010D02*
X004027Y012010D01*
X004027Y012129D02*
X003990Y012129D01*
X003990Y012247D02*
X004027Y012247D01*
X003762Y012010D02*
X003608Y012010D01*
X003608Y011965D02*
X003608Y012364D01*
X003106Y012364D01*
X003106Y012484D01*
X003106Y012986D01*
X003504Y012986D01*
X003535Y012978D01*
X003562Y012962D01*
X003584Y012940D01*
X003600Y012913D01*
X003608Y012882D01*
X003608Y012484D01*
X003703Y012484D01*
X003608Y012484D02*
X003106Y012484D01*
X003106Y012366D02*
X003692Y012366D01*
X003692Y012247D02*
X003608Y012247D01*
X003608Y012129D02*
X003692Y012129D01*
X003608Y011965D02*
X003600Y011935D01*
X003584Y011908D01*
X003562Y011886D01*
X003535Y011870D01*
X003504Y011862D01*
X003106Y011862D01*
X003106Y012364D01*
X002986Y012364D01*
X002986Y012247D02*
X003106Y012247D01*
X003106Y012129D02*
X002986Y012129D01*
X002986Y012010D02*
X003106Y012010D01*
X003106Y011892D02*
X002986Y011892D01*
X002986Y012484D02*
X002484Y012484D01*
X002986Y012603D02*
X003106Y012603D01*
X003106Y012721D02*
X002986Y012721D01*
X002986Y012840D02*
X003106Y012840D01*
X003106Y012958D02*
X002986Y012958D01*
X003566Y012958D02*
X003692Y012958D01*
X003692Y012840D02*
X003608Y012840D01*
X003608Y012721D02*
X003692Y012721D01*
X003692Y012603D02*
X003608Y012603D01*
X003568Y011892D02*
X006369Y011892D01*
X006350Y012010D02*
X006332Y012010D01*
X006538Y011991D02*
X006538Y012188D01*
X006191Y011773D02*
X004284Y011773D01*
X004347Y011655D02*
X006124Y011655D01*
X006124Y011536D02*
X004347Y011536D01*
X004281Y011418D02*
X006124Y011418D01*
X006124Y011299D02*
X005879Y011299D01*
X005864Y011309D02*
X005818Y011328D01*
X005768Y011338D01*
X005743Y011338D01*
X005743Y011081D01*
X005743Y011081D01*
X006000Y011081D01*
X006000Y011056D01*
X005990Y011006D01*
X005970Y010960D01*
X005942Y010918D01*
X005906Y010882D01*
X005864Y010854D01*
X005818Y010834D01*
X005768Y010824D01*
X005743Y010824D01*
X005743Y011081D01*
X005743Y011081D01*
X006000Y011081D01*
X006000Y011107D01*
X005990Y011156D01*
X005970Y011203D01*
X005942Y011245D01*
X005906Y011281D01*
X005864Y011309D01*
X005743Y011299D02*
X005743Y011299D01*
X005743Y011338D02*
X005717Y011338D01*
X005668Y011328D01*
X005621Y011309D01*
X005579Y011281D01*
X005543Y011245D01*
X005515Y011203D01*
X005496Y011156D01*
X005486Y011107D01*
X005486Y011081D01*
X005486Y011056D01*
X005496Y011006D01*
X005515Y010960D01*
X005543Y010918D01*
X005579Y010882D01*
X005621Y010854D01*
X005668Y010834D01*
X005717Y010824D01*
X005743Y010824D01*
X005743Y011081D01*
X005743Y011081D01*
X005486Y011081D01*
X005743Y011081D01*
X005743Y011081D01*
X005743Y011338D01*
X005606Y011299D02*
X002664Y011299D01*
X002615Y011181D02*
X005506Y011181D01*
X005486Y011062D02*
X004145Y011062D01*
X004097Y011062D02*
X004097Y011062D01*
X004097Y010944D02*
X004097Y010944D01*
X004097Y010825D02*
X004097Y010825D01*
X004097Y010707D02*
X004097Y010707D01*
X004332Y010707D02*
X004667Y010707D01*
X004884Y010707D02*
X004884Y010707D01*
X004884Y010588D02*
X004884Y010588D01*
X004884Y010470D02*
X004884Y010470D01*
X004354Y010825D02*
X005714Y010825D01*
X005743Y010825D02*
X005743Y010825D01*
X005771Y010825D02*
X006124Y010825D01*
X006124Y010707D02*
X005797Y010707D01*
X005743Y010944D02*
X005743Y010944D01*
X005743Y011062D02*
X005743Y011062D01*
X005743Y011181D02*
X005743Y011181D01*
X005526Y010944D02*
X004316Y010944D01*
X003106Y010944D02*
X002986Y010944D01*
X002986Y010825D02*
X003106Y010825D01*
X003106Y010707D02*
X002986Y010707D01*
X002986Y010351D02*
X003106Y010351D01*
X003106Y010233D02*
X002986Y010233D01*
X002986Y010114D02*
X003106Y010114D01*
X003106Y009996D02*
X002986Y009996D01*
X002986Y009877D02*
X003106Y009877D01*
X003900Y009609D02*
X003113Y008821D01*
X003113Y008428D01*
X003474Y008929D02*
X015572Y008929D01*
X015572Y009048D02*
X013953Y009048D01*
X013942Y009032D02*
X013970Y009074D01*
X013990Y009121D01*
X014000Y009170D01*
X014000Y009195D01*
X013743Y009195D01*
X013743Y008939D01*
X013768Y008939D01*
X013818Y008948D01*
X013864Y008968D01*
X013906Y008996D01*
X013942Y009032D01*
X013999Y009166D02*
X015572Y009166D01*
X015572Y009285D02*
X013984Y009285D01*
X013990Y009270D02*
X013970Y009317D01*
X013942Y009359D01*
X013906Y009395D01*
X013864Y009423D01*
X013818Y009442D01*
X013768Y009452D01*
X013743Y009452D01*
X013743Y009195D01*
X013743Y009195D01*
X013743Y009195D01*
X013743Y008939D01*
X013717Y008939D01*
X013668Y008948D01*
X013621Y008968D01*
X013579Y008996D01*
X013543Y009032D01*
X013515Y009074D01*
X013496Y009121D01*
X013486Y009170D01*
X013486Y009195D01*
X013743Y009195D01*
X014000Y009195D01*
X014000Y009221D01*
X013990Y009270D01*
X013894Y009403D02*
X015572Y009403D01*
X014747Y009640D02*
X014747Y009640D01*
X014747Y009759D02*
X014747Y009759D01*
X014747Y009877D02*
X014747Y009877D01*
X014747Y009996D02*
X014747Y009996D01*
X014901Y010351D02*
X014381Y010351D01*
X014294Y010351D02*
X014294Y010351D01*
X014207Y010351D02*
X013094Y010351D01*
X013128Y010292D02*
X013031Y010460D01*
X013009Y010482D01*
X012982Y010497D01*
X012951Y010505D01*
X012920Y010505D01*
X012890Y010497D01*
X012756Y010420D01*
X012905Y010163D01*
X013128Y010292D01*
X013147Y010259D02*
X012923Y010130D01*
X013072Y009873D01*
X013206Y009950D01*
X013228Y009972D01*
X013243Y010000D01*
X013252Y010030D01*
X013252Y010061D01*
X013243Y010091D01*
X013147Y010259D01*
X013162Y010233D02*
X013681Y010233D01*
X013521Y010114D02*
X013230Y010114D01*
X013241Y009996D02*
X013486Y009996D01*
X013508Y009877D02*
X013079Y009877D01*
X013070Y009877D02*
X013026Y009877D01*
X013039Y009854D02*
X012891Y010112D01*
X012923Y010130D01*
X012905Y010163D01*
X012872Y010144D01*
X012891Y010112D01*
X012668Y009983D01*
X012764Y009815D01*
X012787Y009793D01*
X012814Y009777D01*
X012844Y009769D01*
X012875Y009769D01*
X012906Y009777D01*
X013039Y009854D01*
X013001Y009996D02*
X012958Y009996D01*
X012933Y010114D02*
X012895Y010114D01*
X012889Y010114D02*
X012820Y010114D01*
X012872Y010144D02*
X012649Y010015D01*
X012552Y010183D01*
X012544Y010213D01*
X012544Y010245D01*
X012552Y010275D01*
X012568Y010302D01*
X012590Y010324D01*
X012723Y010401D01*
X012872Y010144D01*
X012864Y010233D02*
X012821Y010233D01*
X012796Y010351D02*
X012753Y010351D01*
X012636Y010351D02*
X011173Y010351D01*
X011189Y010335D02*
X011189Y010335D01*
X011292Y010233D02*
X012544Y010233D01*
X012592Y010114D02*
X011410Y010114D01*
X011529Y009996D02*
X012020Y009996D01*
X012112Y009996D02*
X012690Y009996D01*
X012729Y009877D02*
X012208Y009877D01*
X011815Y009877D02*
X011647Y009877D01*
X011327Y009522D02*
X010417Y009522D01*
X010408Y009403D02*
X010831Y009403D01*
X011026Y009403D02*
X011026Y009403D01*
X011026Y009285D02*
X011026Y009285D01*
X011026Y009166D02*
X011026Y009166D01*
X011221Y009403D02*
X011487Y009403D01*
X011348Y009500D02*
X011348Y009500D01*
X011208Y009640D02*
X010555Y009640D01*
X010555Y009759D02*
X011090Y009759D01*
X010971Y009877D02*
X010555Y009877D01*
X010791Y010470D02*
X012841Y010470D01*
X013021Y010470D02*
X014067Y010470D01*
X014294Y010470D02*
X014294Y010470D01*
X014294Y010588D02*
X014294Y010588D01*
X014294Y010707D02*
X014294Y010707D01*
X014525Y010707D02*
X014891Y010707D01*
X014830Y010588D02*
X014551Y010588D01*
X014520Y010470D02*
X014832Y010470D01*
X015081Y010470D02*
X015081Y010470D01*
X015081Y010534D02*
X015081Y010534D01*
X015081Y010588D02*
X015081Y010588D01*
X015081Y010707D02*
X015081Y010707D01*
X015081Y010351D02*
X015081Y010351D01*
X015572Y010944D02*
X013261Y010944D01*
X013291Y011062D02*
X015572Y011062D01*
X015572Y011181D02*
X013264Y011181D01*
X013141Y011299D02*
X015572Y011299D01*
X015572Y011418D02*
X012478Y011418D01*
X012489Y011299D02*
X012927Y011299D01*
X013034Y011299D02*
X013034Y011299D01*
X013034Y011181D02*
X013034Y011181D01*
X013034Y011062D02*
X013034Y011062D01*
X013034Y010944D02*
X013034Y010944D01*
X012807Y010944D02*
X011914Y010944D01*
X012058Y011062D02*
X012777Y011062D01*
X012804Y011181D02*
X012325Y011181D01*
X012409Y011536D02*
X015572Y011536D01*
X015572Y011655D02*
X012341Y011655D01*
X012273Y011773D02*
X015572Y011773D01*
X015572Y011892D02*
X012006Y011892D01*
X011942Y012247D02*
X012817Y012247D01*
X012817Y012241D02*
X012825Y012210D01*
X012840Y012183D01*
X012862Y012161D01*
X012890Y012145D01*
X012920Y012137D01*
X013114Y012137D01*
X013114Y012395D01*
X013151Y012395D01*
X013151Y012137D01*
X013345Y012137D01*
X013375Y012145D01*
X013402Y012161D01*
X013425Y012183D01*
X013440Y012210D01*
X013448Y012241D01*
X013448Y012395D01*
X013151Y012395D01*
X013151Y012433D01*
X013114Y012433D01*
X013114Y012690D01*
X012920Y012690D01*
X012890Y012682D01*
X012862Y012667D01*
X012840Y012644D01*
X012825Y012617D01*
X012817Y012587D01*
X012817Y012433D01*
X013114Y012433D01*
X013114Y012395D01*
X012817Y012395D01*
X012817Y012241D01*
X012817Y012366D02*
X011942Y012366D01*
X011942Y012484D02*
X012817Y012484D01*
X012821Y012603D02*
X011942Y012603D01*
X011942Y012721D02*
X013643Y012721D01*
X013643Y012642D02*
X013643Y012913D01*
X013447Y013110D01*
X013154Y013110D01*
X013078Y013141D01*
X012886Y013141D01*
X012817Y013211D01*
X012817Y013625D01*
X012886Y013694D01*
X013379Y013694D01*
X013448Y013625D01*
X013448Y013588D01*
X013593Y013588D01*
X013681Y013552D01*
X013748Y013484D01*
X013880Y013353D01*
X013880Y013543D01*
X013915Y013578D01*
X014017Y013578D01*
X014017Y013691D01*
X014025Y013722D01*
X014041Y013749D01*
X014063Y013771D01*
X014090Y013787D01*
X014121Y013795D01*
X014526Y013795D01*
X014526Y013512D01*
X014613Y013512D01*
X014613Y013795D01*
X015018Y013795D01*
X015048Y013787D01*
X015076Y013771D01*
X015098Y013749D01*
X015113Y013722D01*
X015122Y013691D01*
X015122Y013578D01*
X015224Y013578D01*
X015259Y013543D01*
X015259Y012234D01*
X015224Y012198D01*
X015122Y012198D01*
X015122Y012085D01*
X015113Y012055D01*
X015098Y012028D01*
X015076Y012006D01*
X015048Y011990D01*
X015018Y011982D01*
X014613Y011982D01*
X014613Y012264D01*
X014526Y012264D01*
X014526Y011982D01*
X014121Y011982D01*
X014090Y011990D01*
X014063Y012006D01*
X014041Y012028D01*
X014025Y012055D01*
X014017Y012085D01*
X014017Y012198D01*
X013915Y012198D01*
X013880Y012234D01*
X013880Y012572D01*
X013713Y012572D01*
X013643Y012642D01*
X013683Y012603D02*
X013444Y012603D01*
X013440Y012617D02*
X013425Y012644D01*
X013402Y012667D01*
X013375Y012682D01*
X013345Y012690D01*
X013151Y012690D01*
X013151Y012433D01*
X013448Y012433D01*
X013448Y012587D01*
X013440Y012617D01*
X013448Y012484D02*
X013880Y012484D01*
X013880Y012366D02*
X013448Y012366D01*
X013448Y012247D02*
X013880Y012247D01*
X014017Y012129D02*
X011372Y012129D01*
X011577Y012010D02*
X014059Y012010D01*
X014526Y012010D02*
X014613Y012010D01*
X014613Y012129D02*
X014526Y012129D01*
X014526Y012247D02*
X014613Y012247D01*
X015080Y012010D02*
X015572Y012010D01*
X015572Y012129D02*
X015122Y012129D01*
X015259Y012247D02*
X015572Y012247D01*
X015572Y012366D02*
X015259Y012366D01*
X015259Y012484D02*
X015572Y012484D01*
X015572Y012603D02*
X015259Y012603D01*
X015259Y012721D02*
X015572Y012721D01*
X015572Y012840D02*
X015259Y012840D01*
X015259Y012958D02*
X015572Y012958D01*
X015572Y013077D02*
X015259Y013077D01*
X015259Y013195D02*
X015572Y013195D01*
X015572Y013314D02*
X015259Y013314D01*
X015259Y013432D02*
X015572Y013432D01*
X015572Y013551D02*
X015252Y013551D01*
X015122Y013669D02*
X015572Y013669D01*
X015572Y013788D02*
X015045Y013788D01*
X015084Y013906D02*
X015572Y013906D01*
X015572Y014025D02*
X015415Y014025D01*
X014763Y013906D02*
X012323Y013906D01*
X012327Y014025D02*
X014432Y014025D01*
X014256Y014143D02*
X012327Y014143D01*
X012327Y014262D02*
X014137Y014262D01*
X014055Y014380D02*
X012270Y014380D01*
X012050Y014116D02*
X012050Y013019D01*
X011947Y012916D01*
X011627Y012916D01*
X011627Y012916D01*
X012124Y012840D02*
X013643Y012840D01*
X013599Y012958D02*
X012229Y012958D01*
X012229Y013077D02*
X013480Y013077D01*
X013801Y013432D02*
X013880Y013432D01*
X013887Y013551D02*
X013682Y013551D01*
X013404Y013669D02*
X014017Y013669D01*
X014094Y013788D02*
X012229Y013788D01*
X012229Y013669D02*
X012861Y013669D01*
X012817Y013551D02*
X012229Y013551D01*
X012229Y013432D02*
X012817Y013432D01*
X012817Y013314D02*
X012229Y013314D01*
X012229Y013195D02*
X012833Y013195D01*
X013114Y012603D02*
X013151Y012603D01*
X013151Y012484D02*
X013114Y012484D01*
X013114Y012366D02*
X013151Y012366D01*
X013151Y012247D02*
X013114Y012247D01*
X014526Y013551D02*
X014613Y013551D01*
X014613Y013669D02*
X014526Y013669D01*
X014526Y013788D02*
X014613Y013788D01*
X011871Y013788D02*
X008448Y013788D01*
X008448Y013669D02*
X011355Y013669D01*
X011154Y013551D02*
X008424Y013551D01*
X008400Y013432D02*
X011035Y013432D01*
X010612Y013314D02*
X010580Y013314D01*
X010061Y013314D02*
X010061Y013314D01*
X010061Y013195D02*
X010061Y013195D01*
X009543Y013314D02*
X008400Y013314D01*
X008400Y013195D02*
X009509Y013195D01*
X009515Y013077D02*
X008400Y013077D01*
X008400Y012958D02*
X009509Y012958D01*
X009509Y012840D02*
X008400Y012840D01*
X008400Y012721D02*
X009509Y012721D01*
X009509Y012603D02*
X008400Y012603D01*
X008392Y012484D02*
X009511Y012484D01*
X009509Y012404D02*
X010061Y012404D01*
X009509Y012404D01*
X009509Y012366D02*
X008274Y012366D01*
X008621Y012247D02*
X009509Y012247D01*
X009509Y012129D02*
X008740Y012129D01*
X008858Y012010D02*
X009519Y012010D01*
X009509Y011892D02*
X008863Y011892D01*
X008863Y011773D02*
X009520Y011773D01*
X009509Y011655D02*
X008863Y011655D01*
X008863Y011536D02*
X009516Y011536D01*
X010061Y011536D02*
X010061Y011536D01*
X009908Y011062D02*
X009822Y011062D01*
X009822Y010944D02*
X009908Y010944D01*
X008684Y011125D02*
X008684Y011932D01*
X010061Y012404D02*
X010061Y012404D01*
X010067Y013860D02*
X010117Y013870D01*
X010164Y013889D01*
X010206Y013917D01*
X010241Y013953D01*
X010270Y013995D01*
X010289Y014042D01*
X010299Y014091D01*
X010299Y014117D01*
X010299Y014142D01*
X010289Y014192D01*
X010270Y014238D01*
X010241Y014280D01*
X010206Y014316D01*
X010164Y014344D01*
X010117Y014364D01*
X010067Y014374D01*
X010042Y014374D01*
X010042Y014117D01*
X010042Y014117D01*
X010299Y014117D01*
X010042Y014117D01*
X010042Y014117D01*
X010042Y014374D01*
X010017Y014374D01*
X009967Y014364D01*
X009920Y014344D01*
X009878Y014316D01*
X009842Y014280D01*
X009814Y014238D01*
X009795Y014192D01*
X009785Y014142D01*
X009785Y014117D01*
X010042Y014117D01*
X010042Y014117D01*
X010042Y013860D01*
X010067Y013860D01*
X010042Y013860D02*
X010042Y014117D01*
X010042Y014117D01*
X009785Y014117D01*
X009785Y014091D01*
X009795Y014042D01*
X009814Y013995D01*
X009842Y013953D01*
X009878Y013917D01*
X009920Y013889D01*
X009967Y013870D01*
X010017Y013860D01*
X010042Y013860D01*
X010042Y013906D02*
X010042Y013906D01*
X010042Y014025D02*
X010042Y014025D01*
X010042Y014143D02*
X010042Y014143D01*
X010042Y014262D02*
X010042Y014262D01*
X010254Y014262D02*
X010631Y014262D01*
X010592Y014143D02*
X010299Y014143D01*
X010282Y014025D02*
X010609Y014025D01*
X010696Y013906D02*
X010189Y013906D01*
X009895Y013906D02*
X008413Y013906D01*
X008329Y014854D02*
X008329Y014854D01*
X008329Y014973D02*
X008329Y014973D01*
X008329Y015091D02*
X008329Y015091D01*
X008329Y015210D02*
X008329Y015210D01*
X008077Y014973D02*
X007556Y014973D01*
X007545Y014989D02*
X007573Y014947D01*
X007592Y014900D01*
X007602Y014851D01*
X007602Y014825D01*
X007345Y014825D01*
X007088Y014825D01*
X007088Y014851D01*
X007098Y014900D01*
X007117Y014947D01*
X007146Y014989D01*
X007181Y015025D01*
X007223Y015053D01*
X007270Y015072D01*
X007320Y015082D01*
X007345Y015082D01*
X007345Y014825D01*
X007345Y014825D01*
X007345Y015082D01*
X007370Y015082D01*
X007420Y015072D01*
X007467Y015053D01*
X007509Y015025D01*
X007545Y014989D01*
X007601Y014854D02*
X008134Y014854D01*
X007345Y014854D02*
X007345Y014854D01*
X007345Y014736D02*
X007345Y014736D01*
X007345Y014617D02*
X007345Y014617D01*
X007194Y014617D02*
X006657Y014617D01*
X006657Y014854D02*
X007089Y014854D01*
X007104Y014736D02*
X006360Y014736D01*
X006323Y014736D02*
X005617Y014736D01*
X005624Y014750D02*
X005633Y014800D01*
X005633Y014825D01*
X005377Y014825D01*
X005377Y014825D01*
X005377Y014569D01*
X005402Y014569D01*
X005451Y014578D01*
X005498Y014598D01*
X005540Y014626D01*
X005576Y014662D01*
X005604Y014704D01*
X005624Y014750D01*
X005633Y014825D02*
X005633Y014851D01*
X005624Y014900D01*
X005604Y014947D01*
X005576Y014989D01*
X005540Y015025D01*
X005498Y015053D01*
X005451Y015072D01*
X005402Y015082D01*
X005377Y015082D01*
X005377Y014825D01*
X005377Y014825D01*
X005633Y014825D01*
X005633Y014854D02*
X006025Y014854D01*
X006046Y014973D02*
X005587Y014973D01*
X005377Y014973D02*
X005377Y014973D01*
X005377Y015082D02*
X005351Y015082D01*
X005302Y015072D01*
X005255Y015053D01*
X005213Y015025D01*
X005177Y014989D01*
X005149Y014947D01*
X005130Y014900D01*
X005120Y014851D01*
X005120Y014825D01*
X005120Y014800D01*
X005130Y014750D01*
X005149Y014704D01*
X005177Y014662D01*
X005213Y014626D01*
X005255Y014598D01*
X005302Y014578D01*
X005351Y014569D01*
X005377Y014569D01*
X005377Y014825D01*
X005377Y014825D01*
X005120Y014825D01*
X005377Y014825D01*
X005377Y014825D01*
X005377Y015082D01*
X005377Y014854D02*
X005377Y014854D01*
X005377Y014736D02*
X005377Y014736D01*
X005377Y014617D02*
X005377Y014617D01*
X005527Y014617D02*
X006025Y014617D01*
X006323Y014854D02*
X006360Y014854D01*
X006360Y014973D02*
X006323Y014973D01*
X006636Y014973D02*
X007134Y014973D01*
X007345Y014973D02*
X007345Y014973D01*
X007345Y014262D02*
X007345Y014262D01*
X007345Y014143D02*
X007345Y014143D01*
X007345Y014025D02*
X007345Y014025D01*
X007345Y013906D02*
X007345Y013906D01*
X007124Y013906D02*
X006707Y013906D01*
X006673Y014025D02*
X007088Y014025D01*
X007111Y014143D02*
X006657Y014143D01*
X006657Y014262D02*
X007217Y014262D01*
X007463Y013314D02*
X007463Y013314D01*
X007463Y013195D02*
X007463Y013195D01*
X007463Y013172D02*
X007463Y013172D01*
X006367Y012840D02*
X006315Y012840D01*
X005973Y012840D02*
X004324Y012840D01*
X004324Y012958D02*
X005926Y012958D01*
X005926Y013077D02*
X005830Y013077D01*
X005830Y013195D02*
X005940Y013195D01*
X005939Y012721D02*
X004324Y012721D01*
X004324Y012603D02*
X005927Y012603D01*
X005927Y012484D02*
X005829Y012484D01*
X005830Y012366D02*
X005957Y012366D01*
X005957Y012010D02*
X005771Y012010D01*
X005980Y011181D02*
X006183Y011181D01*
X006129Y011062D02*
X006000Y011062D01*
X005960Y010944D02*
X006124Y010944D01*
X006421Y010825D02*
X006458Y010825D01*
X006458Y010707D02*
X006421Y010707D01*
X006302Y010351D02*
X006302Y010351D01*
X006302Y010233D02*
X006302Y010233D01*
X006302Y010219D02*
X006302Y010219D01*
X006045Y010219D01*
X006302Y010219D01*
X006302Y010114D02*
X006302Y010114D01*
X006302Y009996D02*
X006302Y009996D01*
X006174Y009996D02*
X005949Y009996D01*
X005988Y010114D02*
X006067Y010114D01*
X006045Y010233D02*
X005971Y010233D01*
X005900Y010351D02*
X006081Y010351D01*
X006479Y009522D02*
X005597Y009522D01*
X003703Y006915D02*
X003703Y006915D01*
X003703Y006796D02*
X003703Y006796D01*
X003703Y006678D02*
X003703Y006678D01*
X003703Y006559D02*
X003703Y006559D01*
X003703Y006204D02*
X003678Y006204D01*
X003628Y006194D01*
X003582Y006175D01*
X003540Y006147D01*
X003504Y006111D01*
X003476Y006069D01*
X003456Y006022D01*
X003446Y005973D01*
X003446Y005947D01*
X003446Y005922D01*
X003456Y005872D01*
X003476Y005826D01*
X003504Y005784D01*
X003540Y005748D01*
X003582Y005720D01*
X003628Y005700D01*
X003678Y005691D01*
X003703Y005691D01*
X003703Y005947D01*
X003703Y005947D01*
X003446Y005947D01*
X003703Y005947D01*
X003703Y005947D01*
X003703Y005691D01*
X003729Y005691D01*
X003778Y005700D01*
X003825Y005720D01*
X003867Y005748D01*
X003903Y005784D01*
X003931Y005826D01*
X003950Y005872D01*
X003960Y005922D01*
X003960Y005947D01*
X003703Y005947D01*
X003703Y005947D01*
X003703Y006204D01*
X003729Y006204D01*
X003778Y006194D01*
X003825Y006175D01*
X003867Y006147D01*
X003903Y006111D01*
X003931Y006069D01*
X003950Y006022D01*
X003960Y005973D01*
X003960Y005947D01*
X003703Y005947D01*
X003703Y005947D01*
X003703Y006204D01*
X003703Y006204D01*
X003674Y006204D02*
X001689Y006204D01*
X001708Y006085D02*
X003486Y006085D01*
X003446Y005967D02*
X001708Y005967D01*
X001708Y005848D02*
X003466Y005848D01*
X003567Y005730D02*
X001708Y005730D01*
X001708Y005611D02*
X004097Y005611D01*
X004097Y005493D02*
X001667Y005493D01*
X001952Y005256D02*
X004097Y005256D01*
X004097Y005374D02*
X001134Y005374D01*
X001952Y005137D02*
X004097Y005137D01*
X004097Y005730D02*
X003840Y005730D01*
X003703Y005730D02*
X003703Y005730D01*
X003703Y005848D02*
X003703Y005848D01*
X003703Y005967D02*
X003703Y005967D01*
X003703Y006085D02*
X003703Y006085D01*
X003732Y006204D02*
X004097Y006204D01*
X004097Y006322D02*
X001728Y006322D01*
X003920Y006085D02*
X004097Y006085D01*
X004097Y005967D02*
X003960Y005967D01*
X003940Y005848D02*
X004097Y005848D01*
X009822Y009403D02*
X009908Y009403D01*
X009908Y009522D02*
X009822Y009522D01*
X010003Y006843D02*
X010003Y006459D01*
X010229Y006233D01*
X011302Y006233D01*
X011302Y005465D02*
X011961Y005465D01*
X012365Y005869D01*
X012945Y005869D01*
X011961Y004697D02*
X012365Y004294D01*
X012365Y004097D01*
X012562Y003900D01*
X012945Y003900D01*
X011961Y004697D02*
X011302Y004697D01*
X012601Y009048D02*
X012601Y009048D01*
X012601Y009166D02*
X012601Y009166D01*
X012601Y009285D02*
X012601Y009285D01*
X012601Y009403D02*
X012601Y009403D01*
X012796Y009403D02*
X013591Y009403D01*
X013579Y009395D02*
X013543Y009359D01*
X013515Y009317D01*
X013496Y009270D01*
X013486Y009221D01*
X013486Y009195D01*
X013743Y009195D01*
X013743Y009195D01*
X013743Y009195D01*
X013743Y009452D01*
X013717Y009452D01*
X013668Y009442D01*
X013621Y009423D01*
X013579Y009395D01*
X013502Y009285D02*
X012853Y009285D01*
X012849Y009166D02*
X013487Y009166D01*
X013533Y009048D02*
X012777Y009048D01*
X013743Y009048D02*
X013743Y009048D01*
X013743Y009166D02*
X013743Y009166D01*
X013743Y009285D02*
X013743Y009285D01*
X013743Y009403D02*
X013743Y009403D01*
X013100Y010233D02*
X013025Y010233D01*
X011147Y013906D02*
X011002Y013906D01*
X010849Y014117D02*
X011420Y014117D01*
X011420Y014116D01*
X011201Y014380D02*
X009512Y014380D01*
X009566Y014262D02*
X009830Y014262D01*
X009785Y014143D02*
X009561Y014143D01*
X009486Y014025D02*
X009802Y014025D01*
X011640Y014380D02*
X011831Y014380D01*
X005226Y014617D02*
X004740Y014617D01*
X004830Y014736D02*
X005136Y014736D01*
X005120Y014854D02*
X004845Y014854D01*
X004800Y014973D02*
X005166Y014973D01*
X004589Y014973D02*
X004589Y014973D01*
X004589Y015082D02*
X004589Y014825D01*
X004589Y014825D01*
X004589Y015082D01*
X004589Y014854D02*
X004589Y014854D01*
X004589Y014736D02*
X004589Y014736D01*
X004589Y014617D02*
X004589Y014617D01*
D32*
X004022Y013278D02*
X002042Y013278D01*
X002042Y011503D01*
X003251Y004215D02*
X003201Y004166D01*
X003201Y003772D01*
X002837Y003408D01*
X002837Y002632D01*
X002798Y002593D01*
X003201Y004166D02*
X002286Y004166D01*
X010465Y010239D02*
X010504Y010199D01*
X010987Y010199D01*
X011551Y009635D01*
X012028Y009635D01*
X013969Y012888D02*
X013969Y012926D01*
X013546Y013349D01*
X013201Y013349D01*
X013132Y013418D01*
X011617Y002335D02*
X011627Y002325D01*
D33*
X011621Y002331D01*
X011621Y002766D01*
X012085Y003034D01*
X012085Y003306D01*
X012089Y003310D01*
X012089Y003865D01*
X011951Y003995D01*
X011951Y004050D01*
X011782Y004188D01*
X011304Y004188D01*
X011302Y004186D01*
X011302Y004176D01*
X011302Y003930D02*
X011302Y003930D01*
X010760Y003930D01*
X010760Y004003D01*
X010767Y004031D01*
X010781Y004056D01*
X010783Y004058D01*
X010760Y004081D01*
X010760Y004290D01*
X010783Y004314D01*
X010781Y004315D01*
X010767Y004340D01*
X010760Y004368D01*
X010760Y004441D01*
X011302Y004441D01*
X011302Y004442D01*
X011844Y004442D01*
X011844Y004515D01*
X011840Y004528D01*
X011891Y004528D01*
X012196Y004224D01*
X012196Y004027D01*
X012393Y003830D01*
X012492Y003731D01*
X012630Y003731D01*
X012630Y003658D01*
X012694Y003594D01*
X012866Y003594D01*
X012866Y003250D01*
X012895Y003220D01*
X013004Y003220D01*
X013004Y003098D01*
X013011Y003071D01*
X013025Y003046D01*
X013046Y003025D01*
X013071Y003011D01*
X013098Y003004D01*
X013496Y003004D01*
X013496Y003269D01*
X013596Y003269D01*
X013596Y003004D01*
X013993Y003004D01*
X014021Y003011D01*
X014046Y003025D01*
X014066Y003046D01*
X014081Y003071D01*
X014088Y003098D01*
X014088Y003220D01*
X014196Y003220D01*
X014226Y003250D01*
X014226Y004551D01*
X014196Y004580D01*
X014088Y004580D01*
X014088Y004702D01*
X014081Y004730D01*
X014066Y004755D01*
X014046Y004775D01*
X014021Y004789D01*
X013993Y004797D01*
X013596Y004797D01*
X013596Y004531D01*
X013496Y004531D01*
X013496Y004797D01*
X013098Y004797D01*
X013071Y004789D01*
X013046Y004775D01*
X013025Y004755D01*
X013011Y004730D01*
X013004Y004702D01*
X013004Y004580D01*
X012895Y004580D01*
X012866Y004551D01*
X012866Y004206D01*
X012694Y004206D01*
X012630Y004142D01*
X012630Y004071D01*
X012534Y004167D01*
X012534Y004364D01*
X012435Y004463D01*
X012031Y004866D01*
X011840Y004866D01*
X011844Y004880D01*
X011844Y004953D01*
X011302Y004953D01*
X011302Y004953D01*
X011844Y004953D01*
X011844Y005027D01*
X011836Y005054D01*
X011822Y005079D01*
X011820Y005081D01*
X011822Y005083D01*
X011836Y005108D01*
X011844Y005136D01*
X011844Y005209D01*
X011302Y005209D01*
X011302Y005209D01*
X011302Y005041D01*
X011302Y004953D01*
X010760Y004953D01*
X010760Y004880D01*
X010767Y004852D01*
X010781Y004827D01*
X010783Y004825D01*
X010760Y004802D01*
X010760Y004593D01*
X010783Y004569D01*
X010781Y004568D01*
X010767Y004543D01*
X010760Y004515D01*
X010760Y004442D01*
X011302Y004442D01*
X011302Y004441D02*
X011844Y004441D01*
X011844Y004368D01*
X011838Y004347D01*
X011839Y004347D01*
X011848Y004347D01*
X011889Y004306D01*
X012008Y004209D01*
X012017Y004209D01*
X012058Y004168D01*
X012103Y004132D01*
X012104Y004122D01*
X012110Y004116D01*
X012110Y004063D01*
X012152Y004024D01*
X012155Y004024D01*
X012200Y003979D01*
X012246Y003935D01*
X012246Y003933D01*
X012248Y003931D01*
X012248Y003867D01*
X012250Y003804D01*
X012248Y003802D01*
X012248Y003616D01*
X012292Y003616D01*
X012356Y003552D01*
X012356Y003499D01*
X012443Y003499D01*
X012554Y003388D01*
X012562Y003379D01*
X012764Y003379D01*
X012828Y003315D01*
X012828Y002910D01*
X012764Y002846D01*
X012746Y002846D01*
X012789Y002803D01*
X012797Y002818D01*
X012817Y002838D01*
X012842Y002852D01*
X012870Y002860D01*
X012983Y002860D01*
X012983Y002652D01*
X012983Y002652D01*
X013190Y002652D01*
X013190Y002539D01*
X013183Y002512D01*
X013169Y002487D01*
X013148Y002466D01*
X013123Y002452D01*
X013096Y002445D01*
X012983Y002445D01*
X012983Y002652D01*
X012983Y002652D01*
X013190Y002652D01*
X013190Y002765D01*
X013183Y002793D01*
X013169Y002818D01*
X013148Y002838D01*
X013123Y002852D01*
X013096Y002860D01*
X012983Y002860D01*
X012983Y002652D01*
X012983Y002445D01*
X012870Y002445D01*
X012842Y002452D01*
X012817Y002466D01*
X012797Y002487D01*
X012789Y002501D01*
X012733Y002445D01*
X012446Y002445D01*
X012382Y002509D01*
X012382Y002796D01*
X012403Y002817D01*
X012403Y002846D01*
X012359Y002846D01*
X012295Y002910D01*
X012295Y003007D01*
X012292Y003004D01*
X012244Y003004D01*
X012244Y002968D01*
X012228Y002952D01*
X012222Y002929D01*
X012183Y002907D01*
X012151Y002875D01*
X012128Y002875D01*
X011871Y002727D01*
X011873Y002725D01*
X011873Y001982D01*
X012228Y001982D01*
X012257Y001952D01*
X012257Y001205D01*
X012325Y001177D01*
X012443Y001059D01*
X012443Y001674D01*
X012507Y001738D01*
X013069Y001738D01*
X013133Y001674D01*
X013133Y000717D01*
X013069Y000653D01*
X012543Y000653D01*
X012543Y000651D01*
X012474Y000486D01*
X014148Y000486D01*
X014112Y000521D01*
X013978Y000753D01*
X013909Y001011D01*
X013909Y001278D01*
X013978Y001536D01*
X014112Y001767D01*
X014301Y001956D01*
X014532Y002090D01*
X014790Y002159D01*
X015057Y002159D01*
X015315Y002090D01*
X015547Y001956D01*
X015582Y001920D01*
X015582Y008428D01*
X004491Y008428D01*
X004491Y000486D01*
X005513Y000486D01*
X005445Y000651D01*
X005445Y000720D01*
X004904Y000720D01*
X004840Y000784D01*
X004840Y001741D01*
X004904Y001804D01*
X005467Y001804D01*
X005531Y001741D01*
X005531Y001045D01*
X005663Y001177D01*
X005740Y001209D01*
X005740Y001952D01*
X005769Y001982D01*
X006114Y001982D01*
X006114Y002725D01*
X006178Y002789D01*
X006188Y002789D01*
X006188Y003096D01*
X006287Y003195D01*
X006767Y003676D01*
X006783Y003676D01*
X007462Y004355D01*
X008165Y004355D01*
X008161Y004368D01*
X008161Y004441D01*
X008703Y004441D01*
X008703Y004442D01*
X008161Y004442D01*
X008161Y004515D01*
X008165Y004528D01*
X007757Y004528D01*
X007375Y004910D01*
X007375Y004839D01*
X007311Y004775D01*
X007139Y004775D01*
X007139Y004431D01*
X007110Y004401D01*
X007001Y004401D01*
X007001Y004279D01*
X006994Y004252D01*
X006980Y004227D01*
X006959Y004207D01*
X006934Y004192D01*
X006907Y004185D01*
X006509Y004185D01*
X006509Y004451D01*
X006409Y004451D01*
X006409Y004185D01*
X006012Y004185D01*
X005984Y004192D01*
X005959Y004207D01*
X005939Y004227D01*
X005925Y004252D01*
X005917Y004279D01*
X005917Y004401D01*
X005809Y004401D01*
X005779Y004431D01*
X005779Y005732D01*
X005809Y005761D01*
X005917Y005761D01*
X005917Y005883D01*
X005925Y005911D01*
X005939Y005936D01*
X005959Y005956D01*
X005984Y005970D01*
X006012Y005978D01*
X006409Y005978D01*
X006409Y005712D01*
X006509Y005712D01*
X006509Y005978D01*
X006907Y005978D01*
X006934Y005970D01*
X006959Y005956D01*
X006980Y005936D01*
X006994Y005911D01*
X007001Y005883D01*
X007001Y005761D01*
X007110Y005761D01*
X007139Y005732D01*
X007139Y005387D01*
X007311Y005387D01*
X007375Y005323D01*
X007375Y005250D01*
X007513Y005250D01*
X007613Y005151D01*
X007897Y004866D01*
X008165Y004866D01*
X008161Y004880D01*
X008161Y004953D01*
X008703Y004953D01*
X008703Y004953D01*
X008161Y004953D01*
X008161Y005027D01*
X008169Y005054D01*
X008183Y005079D01*
X008185Y005081D01*
X008183Y005083D01*
X008169Y005108D01*
X008161Y005136D01*
X008161Y005209D01*
X008703Y005209D01*
X008703Y005209D01*
X008703Y005209D01*
X008703Y005121D01*
X008703Y004953D01*
X008703Y004953D01*
X009245Y004953D01*
X009245Y004880D01*
X009238Y004852D01*
X009224Y004827D01*
X009222Y004825D01*
X009245Y004802D01*
X009245Y004593D01*
X009222Y004569D01*
X009224Y004568D01*
X009238Y004543D01*
X009245Y004515D01*
X009245Y004442D01*
X008703Y004442D01*
X008703Y004441D01*
X009245Y004441D01*
X009245Y004368D01*
X009238Y004340D01*
X009224Y004315D01*
X009222Y004314D01*
X009245Y004290D01*
X009245Y004081D01*
X009222Y004058D01*
X009245Y004034D01*
X009245Y003825D01*
X009182Y003762D01*
X008774Y003762D01*
X008773Y003761D01*
X007937Y003761D01*
X007022Y002846D01*
X007022Y002789D01*
X007036Y002789D01*
X007099Y002726D01*
X007162Y002789D01*
X007528Y002789D01*
X007592Y002725D01*
X007592Y002514D01*
X009137Y002514D01*
X009239Y002616D01*
X009239Y002708D01*
X009087Y002708D01*
X009023Y002772D01*
X009023Y003453D01*
X009087Y003517D01*
X009768Y003517D01*
X009832Y003453D01*
X009832Y002772D01*
X009768Y002708D01*
X009617Y002708D01*
X009617Y002460D01*
X009404Y002247D01*
X009293Y002136D01*
X007592Y002136D01*
X007592Y001982D01*
X007937Y001982D01*
X007966Y001952D01*
X007966Y001209D01*
X008043Y001177D01*
X008175Y001045D01*
X008175Y001741D01*
X008239Y001804D01*
X008802Y001804D01*
X008866Y001741D01*
X008866Y000784D01*
X008802Y000720D01*
X008261Y000720D01*
X008261Y000651D01*
X008193Y000486D01*
X010287Y000486D01*
X010218Y000651D01*
X010218Y000653D01*
X009692Y000653D01*
X009628Y000717D01*
X009628Y001674D01*
X009692Y001738D01*
X010254Y001738D01*
X010318Y001674D01*
X010318Y001059D01*
X010436Y001177D01*
X010504Y001205D01*
X010504Y001952D01*
X010533Y001982D01*
X010888Y001982D01*
X010888Y002306D01*
X011116Y002306D01*
X011116Y002344D01*
X011116Y002789D01*
X010982Y002789D01*
X010955Y002781D01*
X010930Y002767D01*
X010909Y002747D01*
X010895Y002722D01*
X010888Y002694D01*
X010888Y002344D01*
X011116Y002344D01*
X011153Y002344D01*
X011153Y002789D01*
X011287Y002789D01*
X011314Y002781D01*
X011339Y002767D01*
X011359Y002747D01*
X011374Y002722D01*
X011380Y002700D01*
X011380Y002725D01*
X011444Y002789D01*
X011462Y002789D01*
X011462Y002832D01*
X011478Y002849D01*
X011484Y002871D01*
X011523Y002894D01*
X011555Y002925D01*
X011578Y002925D01*
X011817Y003063D01*
X011721Y003063D01*
X011662Y003004D01*
X011257Y003004D01*
X011193Y003068D01*
X011193Y003151D01*
X011053Y003151D01*
X010949Y003047D01*
X010856Y002954D01*
X010832Y002954D01*
X010832Y002772D01*
X010768Y002708D01*
X010087Y002708D01*
X010023Y002772D01*
X010023Y003453D01*
X010087Y003517D01*
X010768Y003517D01*
X010832Y003453D01*
X010832Y003380D01*
X010921Y003469D01*
X011193Y003469D01*
X011193Y003552D01*
X011257Y003616D01*
X011662Y003616D01*
X011721Y003556D01*
X011827Y003556D01*
X011886Y003616D01*
X011930Y003616D01*
X011930Y003796D01*
X011888Y003836D01*
X011885Y003836D01*
X011844Y003877D01*
X011844Y003856D01*
X011836Y003829D01*
X011822Y003804D01*
X011802Y003783D01*
X011777Y003769D01*
X011749Y003762D01*
X011302Y003762D01*
X011302Y003930D01*
X011302Y003930D01*
X010760Y003930D01*
X010760Y003856D01*
X010767Y003829D01*
X010781Y003804D01*
X010802Y003783D01*
X010827Y003769D01*
X010854Y003762D01*
X011302Y003762D01*
X011302Y003930D01*
X011302Y003903D02*
X011302Y003903D01*
X011302Y003805D02*
X011302Y003805D01*
X011249Y003608D02*
X007784Y003608D01*
X007882Y003706D02*
X011930Y003706D01*
X011921Y003805D02*
X011823Y003805D01*
X011878Y003608D02*
X011670Y003608D01*
X011459Y003310D02*
X010987Y003310D01*
X010790Y003113D01*
X010428Y003113D01*
X010023Y003115D02*
X009832Y003115D01*
X009832Y003017D02*
X010023Y003017D01*
X010023Y002918D02*
X009832Y002918D01*
X009832Y002820D02*
X010023Y002820D01*
X010075Y002721D02*
X009781Y002721D01*
X009617Y002623D02*
X010888Y002623D01*
X010895Y002721D02*
X010781Y002721D01*
X010832Y002820D02*
X011462Y002820D01*
X011380Y002721D02*
X011374Y002721D01*
X011153Y002721D02*
X011116Y002721D01*
X011116Y002623D02*
X011153Y002623D01*
X011153Y002524D02*
X011116Y002524D01*
X011116Y002426D02*
X011153Y002426D01*
X011116Y002327D02*
X009484Y002327D01*
X009386Y002229D02*
X010888Y002229D01*
X010888Y002130D02*
X007592Y002130D01*
X007592Y002032D02*
X010888Y002032D01*
X010504Y001933D02*
X009363Y001933D01*
X009372Y001927D02*
X009332Y001954D01*
X009287Y001972D01*
X009239Y001982D01*
X009215Y001982D01*
X009191Y001982D01*
X009143Y001972D01*
X009098Y001954D01*
X009058Y001927D01*
X009023Y001892D01*
X008996Y001852D01*
X008978Y001807D01*
X008968Y001759D01*
X008968Y001735D01*
X009215Y001735D01*
X009215Y001982D01*
X009215Y001735D01*
X009215Y001735D01*
X009215Y001735D01*
X008968Y001735D01*
X008968Y001710D01*
X008978Y001663D01*
X008996Y001618D01*
X009023Y001577D01*
X009058Y001543D01*
X009098Y001516D01*
X009143Y001497D01*
X009191Y001488D01*
X009215Y001488D01*
X009215Y001735D01*
X009462Y001735D01*
X009462Y001759D01*
X009452Y001807D01*
X009434Y001852D01*
X009407Y001892D01*
X009372Y001927D01*
X009441Y001835D02*
X010504Y001835D01*
X010504Y001736D02*
X010256Y001736D01*
X010318Y001638D02*
X010504Y001638D01*
X010504Y001539D02*
X010318Y001539D01*
X010318Y001441D02*
X010504Y001441D01*
X010504Y001342D02*
X010318Y001342D01*
X010318Y001244D02*
X010504Y001244D01*
X010404Y001145D02*
X010318Y001145D01*
X010218Y000653D02*
X008261Y000653D01*
X008221Y000554D02*
X010258Y000554D01*
X009628Y000751D02*
X009366Y000751D01*
X009372Y000756D02*
X009407Y000790D01*
X009434Y000830D01*
X009452Y000875D01*
X009462Y000923D01*
X009462Y000947D01*
X009215Y000947D01*
X009215Y000947D01*
X009215Y000701D01*
X009191Y000701D01*
X009143Y000710D01*
X009098Y000729D01*
X009058Y000756D01*
X009023Y000790D01*
X008996Y000830D01*
X008978Y000875D01*
X008968Y000923D01*
X008968Y000947D01*
X009215Y000947D01*
X009215Y000701D01*
X009239Y000701D01*
X009287Y000710D01*
X009332Y000729D01*
X009372Y000756D01*
X009442Y000850D02*
X009628Y000850D01*
X009628Y000948D02*
X009462Y000948D01*
X009462Y000947D02*
X009462Y000972D01*
X009452Y001019D01*
X009434Y001064D01*
X009407Y001105D01*
X009372Y001139D01*
X009332Y001166D01*
X009287Y001185D01*
X009239Y001194D01*
X009215Y001194D01*
X009191Y001194D01*
X009143Y001185D01*
X009098Y001166D01*
X009058Y001139D01*
X009023Y001105D01*
X008996Y001064D01*
X008978Y001019D01*
X008968Y000972D01*
X008968Y000947D01*
X009215Y000947D01*
X009215Y000947D01*
X009215Y000947D01*
X009462Y000947D01*
X009441Y001047D02*
X009628Y001047D01*
X009628Y001145D02*
X009364Y001145D01*
X009215Y001145D02*
X009215Y001145D01*
X009215Y001194D02*
X009215Y000947D01*
X009215Y000947D01*
X009215Y001194D01*
X009215Y001047D02*
X009215Y001047D01*
X009215Y000948D02*
X009215Y000948D01*
X009215Y000850D02*
X009215Y000850D01*
X009215Y000751D02*
X009215Y000751D01*
X009065Y000751D02*
X008832Y000751D01*
X008866Y000850D02*
X008988Y000850D01*
X008968Y000948D02*
X008866Y000948D01*
X008866Y001047D02*
X008989Y001047D01*
X009067Y001145D02*
X008866Y001145D01*
X008866Y001244D02*
X009628Y001244D01*
X009628Y001342D02*
X008866Y001342D01*
X008866Y001441D02*
X009628Y001441D01*
X009628Y001539D02*
X009366Y001539D01*
X009372Y001543D02*
X009407Y001577D01*
X009434Y001618D01*
X009452Y001663D01*
X009462Y001710D01*
X009462Y001735D01*
X009215Y001735D01*
X009215Y001735D01*
X009215Y001735D01*
X009215Y001488D01*
X009239Y001488D01*
X009287Y001497D01*
X009332Y001516D01*
X009372Y001543D01*
X009442Y001638D02*
X009628Y001638D01*
X009690Y001736D02*
X009462Y001736D01*
X009215Y001736D02*
X009215Y001736D01*
X009215Y001638D02*
X009215Y001638D01*
X009215Y001539D02*
X009215Y001539D01*
X009064Y001539D02*
X008866Y001539D01*
X008866Y001638D02*
X008988Y001638D01*
X008968Y001736D02*
X008866Y001736D01*
X008989Y001835D02*
X007966Y001835D01*
X007966Y001933D02*
X009067Y001933D01*
X009215Y001933D02*
X009215Y001933D01*
X009215Y001835D02*
X009215Y001835D01*
X009146Y002524D02*
X007592Y002524D01*
X007592Y002623D02*
X009239Y002623D01*
X009075Y002721D02*
X008774Y002721D01*
X008765Y002716D02*
X008790Y002730D01*
X008810Y002751D01*
X008825Y002775D01*
X008832Y002803D01*
X008832Y003064D01*
X008476Y003064D01*
X008476Y002708D01*
X008737Y002708D01*
X008765Y002716D01*
X008832Y002820D02*
X009023Y002820D01*
X009023Y002918D02*
X008832Y002918D01*
X008832Y003017D02*
X009023Y003017D01*
X009023Y003115D02*
X008476Y003115D01*
X008476Y003161D02*
X008832Y003161D01*
X008832Y003422D01*
X008825Y003450D01*
X008810Y003475D01*
X008790Y003495D01*
X008765Y003510D01*
X008737Y003517D01*
X008476Y003517D01*
X008476Y003161D01*
X008476Y003064D01*
X008379Y003064D01*
X008379Y002708D01*
X008118Y002708D01*
X008090Y002716D01*
X008065Y002730D01*
X008045Y002751D01*
X008031Y002775D01*
X008023Y002803D01*
X008023Y003064D01*
X008379Y003064D01*
X008379Y003161D01*
X008023Y003161D01*
X008023Y003422D01*
X008031Y003450D01*
X008045Y003475D01*
X008065Y003495D01*
X008090Y003510D01*
X008118Y003517D01*
X008379Y003517D01*
X008379Y003161D01*
X008476Y003161D01*
X008476Y003214D02*
X008379Y003214D01*
X008379Y003312D02*
X008476Y003312D01*
X008476Y003411D02*
X008379Y003411D01*
X008379Y003509D02*
X008476Y003509D01*
X008766Y003509D02*
X009079Y003509D01*
X009023Y003411D02*
X008832Y003411D01*
X008832Y003312D02*
X009023Y003312D01*
X009023Y003214D02*
X008832Y003214D01*
X008476Y003017D02*
X008379Y003017D01*
X008379Y003115D02*
X007291Y003115D01*
X007193Y003017D02*
X008023Y003017D01*
X008023Y002918D02*
X007094Y002918D01*
X007022Y002820D02*
X008023Y002820D01*
X008081Y002721D02*
X007592Y002721D01*
X007390Y003214D02*
X008023Y003214D01*
X008023Y003312D02*
X007488Y003312D01*
X007587Y003411D02*
X008023Y003411D01*
X008089Y003509D02*
X007685Y003509D01*
X007109Y004002D02*
X006488Y004002D01*
X006481Y004017D02*
X006500Y003972D01*
X006509Y003924D01*
X006509Y003900D01*
X006262Y003900D01*
X006016Y003900D01*
X006016Y003876D01*
X006025Y003828D01*
X006044Y003783D01*
X006071Y003743D01*
X006105Y003708D01*
X006145Y003681D01*
X006190Y003663D01*
X006238Y003653D01*
X006262Y003653D01*
X006262Y003900D01*
X006262Y003900D01*
X006262Y003900D01*
X006016Y003900D01*
X006016Y003924D01*
X006025Y003972D01*
X006044Y004017D01*
X006071Y004058D01*
X006105Y004092D01*
X006145Y004119D01*
X006190Y004138D01*
X006238Y004147D01*
X006262Y004147D01*
X006262Y003900D01*
X006262Y003900D01*
X006262Y003653D01*
X006287Y003653D01*
X006334Y003663D01*
X006379Y003681D01*
X006420Y003708D01*
X006454Y003743D01*
X006481Y003783D01*
X006500Y003828D01*
X006509Y003876D01*
X006509Y003900D01*
X006262Y003900D01*
X006262Y003900D01*
X006262Y004147D01*
X006287Y004147D01*
X006334Y004138D01*
X006379Y004119D01*
X006420Y004092D01*
X006454Y004058D01*
X006481Y004017D01*
X006408Y004100D02*
X007207Y004100D01*
X007306Y004199D02*
X006945Y004199D01*
X007001Y004297D02*
X007404Y004297D01*
X007139Y004494D02*
X008161Y004494D01*
X008161Y004396D02*
X007001Y004396D01*
X007139Y004593D02*
X007693Y004593D01*
X007595Y004691D02*
X007139Y004691D01*
X007326Y004790D02*
X007496Y004790D01*
X007398Y004888D02*
X007375Y004888D01*
X007580Y005184D02*
X008161Y005184D01*
X008161Y005209D02*
X008703Y005209D01*
X008703Y004953D01*
X008703Y004953D01*
X009245Y004953D01*
X009245Y005027D01*
X009238Y005054D01*
X009224Y005079D01*
X009222Y005081D01*
X009224Y005083D01*
X009238Y005108D01*
X009245Y005136D01*
X009245Y005209D01*
X008703Y005209D01*
X008703Y005209D01*
X009245Y005209D01*
X009245Y005283D01*
X009238Y005310D01*
X009224Y005335D01*
X009222Y005337D01*
X009245Y005361D01*
X009245Y005569D01*
X009222Y005593D01*
X009224Y005595D01*
X009238Y005620D01*
X009245Y005648D01*
X009245Y005721D01*
X009245Y005794D01*
X009238Y005822D01*
X009224Y005847D01*
X009222Y005849D01*
X009224Y005851D01*
X009238Y005876D01*
X009245Y005904D01*
X009245Y005977D01*
X009245Y006050D01*
X009238Y006078D01*
X009224Y006103D01*
X009222Y006105D01*
X009224Y006107D01*
X009238Y006132D01*
X009245Y006159D01*
X009245Y006233D01*
X009245Y006306D01*
X009238Y006334D01*
X009224Y006359D01*
X009203Y006379D01*
X009178Y006394D01*
X009151Y006401D01*
X008703Y006401D01*
X008256Y006401D01*
X008228Y006394D01*
X008203Y006379D01*
X008183Y006359D01*
X008169Y006334D01*
X008161Y006306D01*
X008161Y006233D01*
X008703Y006233D01*
X008703Y006233D01*
X008703Y006401D01*
X008703Y006233D01*
X008703Y006233D01*
X008161Y006233D01*
X008161Y006159D01*
X008169Y006132D01*
X008183Y006107D01*
X008185Y006105D01*
X008183Y006103D01*
X008169Y006078D01*
X008161Y006050D01*
X008161Y005977D01*
X008703Y005977D01*
X008703Y005977D01*
X008161Y005977D01*
X008161Y005904D01*
X008169Y005876D01*
X008183Y005851D01*
X008185Y005849D01*
X008183Y005847D01*
X008169Y005822D01*
X008161Y005794D01*
X008161Y005721D01*
X008161Y005648D01*
X008165Y005634D01*
X008114Y005634D01*
X008006Y005742D01*
X008006Y006923D01*
X007710Y007219D01*
X007375Y007219D01*
X007375Y007292D01*
X007311Y007356D01*
X007139Y007356D01*
X007139Y007700D01*
X007110Y007730D01*
X007001Y007730D01*
X007001Y007852D01*
X006994Y007879D01*
X006980Y007904D01*
X006959Y007924D01*
X006934Y007939D01*
X006907Y007946D01*
X006509Y007946D01*
X006509Y007680D01*
X006409Y007680D01*
X006409Y007946D01*
X006012Y007946D01*
X005984Y007939D01*
X005959Y007924D01*
X005939Y007904D01*
X005925Y007879D01*
X005917Y007852D01*
X005917Y007730D01*
X005809Y007730D01*
X005779Y007700D01*
X005779Y006399D01*
X005809Y006370D01*
X005917Y006370D01*
X005917Y006248D01*
X005925Y006220D01*
X005939Y006195D01*
X005959Y006175D01*
X005984Y006161D01*
X006012Y006153D01*
X006409Y006153D01*
X006409Y006419D01*
X006509Y006419D01*
X006509Y006153D01*
X006907Y006153D01*
X006934Y006161D01*
X006959Y006175D01*
X006980Y006195D01*
X006994Y006220D01*
X007001Y006248D01*
X007001Y006370D01*
X007110Y006370D01*
X007139Y006399D01*
X007139Y006744D01*
X007311Y006744D01*
X007375Y006808D01*
X007375Y006881D01*
X007570Y006881D01*
X007668Y006783D01*
X007668Y005602D01*
X007767Y005503D01*
X007974Y005296D01*
X008165Y005296D01*
X008161Y005283D01*
X008161Y005209D01*
X008161Y005282D02*
X007375Y005282D01*
X007318Y005381D02*
X007889Y005381D01*
X007791Y005479D02*
X007139Y005479D01*
X007139Y005578D02*
X007692Y005578D01*
X007668Y005676D02*
X007139Y005676D01*
X007175Y005828D02*
X007222Y005819D01*
X007247Y005819D01*
X007271Y005819D01*
X007319Y005828D01*
X007364Y005847D01*
X007404Y005874D01*
X007438Y005908D01*
X007465Y005949D01*
X007484Y005994D01*
X007493Y006041D01*
X007493Y006066D01*
X007493Y006090D01*
X007484Y006138D01*
X007465Y006182D01*
X007438Y006223D01*
X007404Y006257D01*
X007364Y006284D01*
X007319Y006303D01*
X007271Y006312D01*
X007247Y006312D01*
X007247Y006066D01*
X007247Y006066D01*
X007493Y006066D01*
X007247Y006066D01*
X007247Y006066D01*
X007247Y006312D01*
X007222Y006312D01*
X007175Y006303D01*
X007130Y006284D01*
X007089Y006257D01*
X007055Y006223D01*
X007028Y006182D01*
X007009Y006138D01*
X007000Y006090D01*
X007000Y006066D01*
X007247Y006066D01*
X007247Y006066D01*
X007247Y006065D02*
X007247Y005819D01*
X007247Y006065D01*
X007247Y006065D01*
X007247Y006066D02*
X007000Y006066D01*
X007000Y006041D01*
X007009Y005994D01*
X007028Y005949D01*
X007055Y005908D01*
X007089Y005874D01*
X007130Y005847D01*
X007175Y005828D01*
X007247Y005873D02*
X007247Y005873D01*
X007247Y005972D02*
X007247Y005972D01*
X007247Y006070D02*
X007247Y006070D01*
X007247Y006169D02*
X007247Y006169D01*
X007247Y006267D02*
X007247Y006267D01*
X007389Y006267D02*
X007668Y006267D01*
X007668Y006169D02*
X007471Y006169D01*
X007493Y006070D02*
X007668Y006070D01*
X007668Y005972D02*
X007475Y005972D01*
X007403Y005873D02*
X007668Y005873D01*
X007668Y005775D02*
X007001Y005775D01*
X007001Y005873D02*
X007090Y005873D01*
X007018Y005972D02*
X006930Y005972D01*
X007000Y006070D02*
X005041Y006070D01*
X005042Y006071D02*
X005076Y006105D01*
X005103Y006145D01*
X005122Y006190D01*
X005131Y006238D01*
X005131Y006262D01*
X004884Y006262D01*
X004884Y006262D01*
X004884Y006016D01*
X004860Y006016D01*
X004812Y006025D01*
X004767Y006044D01*
X004727Y006071D01*
X004693Y006105D01*
X004666Y006145D01*
X004647Y006190D01*
X004638Y006238D01*
X004638Y006262D01*
X004884Y006262D01*
X004884Y006262D01*
X004638Y006262D01*
X004638Y006287D01*
X004647Y006334D01*
X004666Y006379D01*
X004693Y006420D01*
X004727Y006454D01*
X004767Y006481D01*
X004812Y006500D01*
X004860Y006509D01*
X004884Y006509D01*
X004884Y006262D01*
X004884Y006016D01*
X004909Y006016D01*
X004956Y006025D01*
X005001Y006044D01*
X005042Y006071D01*
X005113Y006169D02*
X005971Y006169D01*
X005917Y006267D02*
X005131Y006267D01*
X005131Y006262D02*
X005131Y006287D01*
X005122Y006334D01*
X005103Y006379D01*
X005076Y006420D01*
X005042Y006454D01*
X005001Y006481D01*
X004956Y006500D01*
X004909Y006509D01*
X004884Y006509D01*
X004884Y006262D01*
X004884Y006262D01*
X004884Y006262D01*
X005131Y006262D01*
X005109Y006366D02*
X005917Y006366D01*
X005779Y006464D02*
X005027Y006464D01*
X004884Y006464D02*
X004884Y006464D01*
X004884Y006366D02*
X004884Y006366D01*
X004884Y006267D02*
X004884Y006267D01*
X004884Y006169D02*
X004884Y006169D01*
X004884Y006070D02*
X004884Y006070D01*
X004728Y006070D02*
X004491Y006070D01*
X004491Y005972D02*
X005989Y005972D01*
X005917Y005873D02*
X004491Y005873D01*
X004491Y005775D02*
X005917Y005775D01*
X005779Y005676D02*
X005028Y005676D01*
X005042Y005667D02*
X005001Y005694D01*
X004956Y005712D01*
X004909Y005722D01*
X004884Y005722D01*
X004860Y005722D01*
X004812Y005712D01*
X004767Y005694D01*
X004727Y005667D01*
X004693Y005632D01*
X004666Y005592D01*
X004647Y005547D01*
X004638Y005499D01*
X004638Y005475D01*
X004884Y005475D01*
X004884Y005475D01*
X004638Y005475D01*
X004638Y005451D01*
X004647Y005403D01*
X004666Y005358D01*
X004693Y005318D01*
X004727Y005283D01*
X004767Y005256D01*
X004812Y005238D01*
X004860Y005228D01*
X004884Y005228D01*
X004884Y005475D01*
X004884Y005722D01*
X004884Y005475D01*
X004884Y005475D01*
X004884Y005475D01*
X004884Y005228D01*
X004909Y005228D01*
X004956Y005238D01*
X005001Y005256D01*
X005042Y005283D01*
X005076Y005318D01*
X005103Y005358D01*
X005122Y005403D01*
X005131Y005451D01*
X005131Y005475D01*
X005131Y005499D01*
X005122Y005547D01*
X005103Y005592D01*
X005076Y005632D01*
X005042Y005667D01*
X005109Y005578D02*
X005779Y005578D01*
X005779Y005479D02*
X005131Y005479D01*
X005131Y005475D02*
X004884Y005475D01*
X004884Y005475D01*
X005131Y005475D01*
X005112Y005381D02*
X005779Y005381D01*
X005779Y005282D02*
X005040Y005282D01*
X004884Y005282D02*
X004884Y005282D01*
X004884Y005381D02*
X004884Y005381D01*
X004884Y005479D02*
X004884Y005479D01*
X004884Y005578D02*
X004884Y005578D01*
X004884Y005676D02*
X004884Y005676D01*
X004741Y005676D02*
X004491Y005676D01*
X004491Y005578D02*
X004660Y005578D01*
X004638Y005479D02*
X004491Y005479D01*
X004491Y005381D02*
X004656Y005381D01*
X004729Y005282D02*
X004491Y005282D01*
X004491Y005184D02*
X005779Y005184D01*
X005779Y005085D02*
X005029Y005085D01*
X005042Y005076D02*
X005001Y005103D01*
X004956Y005122D01*
X004909Y005131D01*
X004884Y005131D01*
X004860Y005131D01*
X004812Y005122D01*
X004767Y005103D01*
X004727Y005076D01*
X004693Y005042D01*
X004666Y005001D01*
X004647Y004956D01*
X004638Y004909D01*
X004638Y004884D01*
X004638Y004860D01*
X004647Y004812D01*
X004666Y004767D01*
X004693Y004727D01*
X004727Y004693D01*
X004767Y004666D01*
X004812Y004647D01*
X004860Y004638D01*
X004884Y004638D01*
X004884Y004884D01*
X004884Y004884D01*
X004638Y004884D01*
X004884Y004884D01*
X004884Y004884D01*
X004884Y004638D01*
X004909Y004638D01*
X004956Y004647D01*
X005001Y004666D01*
X005042Y004693D01*
X005076Y004727D01*
X005103Y004767D01*
X005122Y004812D01*
X005131Y004860D01*
X005131Y004884D01*
X004884Y004884D01*
X004884Y004884D01*
X004884Y005131D01*
X004884Y004884D01*
X004884Y004884D01*
X005131Y004884D01*
X005131Y004909D01*
X005122Y004956D01*
X005103Y005001D01*
X005076Y005042D01*
X005042Y005076D01*
X005109Y004987D02*
X005779Y004987D01*
X005779Y004888D02*
X005131Y004888D01*
X005112Y004790D02*
X005779Y004790D01*
X005779Y004691D02*
X005039Y004691D01*
X004884Y004691D02*
X004884Y004691D01*
X004884Y004790D02*
X004884Y004790D01*
X004884Y004888D02*
X004884Y004888D01*
X004884Y004987D02*
X004884Y004987D01*
X004884Y005085D02*
X004884Y005085D01*
X004740Y005085D02*
X004491Y005085D01*
X004491Y004987D02*
X004660Y004987D01*
X004638Y004888D02*
X004491Y004888D01*
X004491Y004790D02*
X004657Y004790D01*
X004730Y004691D02*
X004491Y004691D01*
X004491Y004593D02*
X005779Y004593D01*
X005779Y004494D02*
X004491Y004494D01*
X004491Y004396D02*
X005917Y004396D01*
X005917Y004297D02*
X005226Y004297D01*
X005239Y004289D02*
X005198Y004316D01*
X005153Y004334D01*
X005106Y004344D01*
X005081Y004344D01*
X005057Y004344D01*
X005009Y004334D01*
X004964Y004316D01*
X004924Y004289D01*
X004890Y004254D01*
X004863Y004214D01*
X004844Y004169D01*
X004834Y004121D01*
X004834Y004097D01*
X004834Y004073D01*
X004844Y004025D01*
X004863Y003980D01*
X004890Y003940D01*
X004924Y003905D01*
X004964Y003878D01*
X005009Y003860D01*
X005057Y003850D01*
X005081Y003850D01*
X005081Y004097D01*
X004834Y004097D01*
X005081Y004097D01*
X005081Y004097D01*
X005081Y004097D01*
X005081Y004344D01*
X005081Y004097D01*
X005081Y004097D01*
X005081Y003850D01*
X005106Y003850D01*
X005153Y003860D01*
X005198Y003878D01*
X005239Y003905D01*
X005273Y003940D01*
X005300Y003980D01*
X005319Y004025D01*
X005328Y004073D01*
X005328Y004097D01*
X005328Y004121D01*
X005319Y004169D01*
X005300Y004214D01*
X005273Y004254D01*
X005239Y004289D01*
X005306Y004199D02*
X005973Y004199D01*
X006117Y004100D02*
X005817Y004100D01*
X005829Y004092D02*
X005789Y004119D01*
X005744Y004138D01*
X005696Y004147D01*
X005672Y004147D01*
X005672Y003900D01*
X005672Y003900D01*
X005919Y003900D01*
X005919Y003876D01*
X005909Y003828D01*
X005891Y003783D01*
X005864Y003743D01*
X005829Y003708D01*
X005789Y003681D01*
X005744Y003663D01*
X005696Y003653D01*
X005672Y003653D01*
X005672Y003900D01*
X005672Y003900D01*
X005919Y003900D01*
X005919Y003924D01*
X005909Y003972D01*
X005891Y004017D01*
X005864Y004058D01*
X005829Y004092D01*
X005897Y004002D02*
X006037Y004002D01*
X006016Y003903D02*
X005919Y003903D01*
X005899Y003805D02*
X006035Y003805D01*
X006109Y003706D02*
X005826Y003706D01*
X005672Y003706D02*
X005672Y003706D01*
X005672Y003653D02*
X005672Y003900D01*
X005672Y003900D01*
X005425Y003900D01*
X005425Y003876D01*
X005434Y003828D01*
X005453Y003783D01*
X005480Y003743D01*
X005514Y003708D01*
X005555Y003681D01*
X005600Y003663D01*
X005647Y003653D01*
X005672Y003653D01*
X005672Y003805D02*
X005672Y003805D01*
X005672Y003900D02*
X005672Y003900D01*
X005425Y003900D01*
X005425Y003924D01*
X005434Y003972D01*
X005453Y004017D01*
X005480Y004058D01*
X005514Y004092D01*
X005555Y004119D01*
X005600Y004138D01*
X005647Y004147D01*
X005672Y004147D01*
X005672Y003900D01*
X005672Y003903D02*
X005672Y003903D01*
X005672Y004002D02*
X005672Y004002D01*
X005672Y004100D02*
X005672Y004100D01*
X005527Y004100D02*
X005328Y004100D01*
X005328Y004097D02*
X005081Y004097D01*
X005081Y004097D01*
X005328Y004097D01*
X005309Y004002D02*
X005447Y004002D01*
X005425Y003903D02*
X005235Y003903D01*
X005081Y003903D02*
X005081Y003903D01*
X005081Y004002D02*
X005081Y004002D01*
X005081Y004100D02*
X005081Y004100D01*
X005081Y004199D02*
X005081Y004199D01*
X005081Y004297D02*
X005081Y004297D01*
X004936Y004297D02*
X004491Y004297D01*
X004491Y004199D02*
X004856Y004199D01*
X004834Y004100D02*
X004491Y004100D01*
X004491Y004002D02*
X004854Y004002D01*
X004927Y003903D02*
X004491Y003903D01*
X004491Y003805D02*
X005444Y003805D01*
X005518Y003706D02*
X005030Y003706D01*
X005042Y003698D02*
X005001Y003725D01*
X004956Y003744D01*
X004909Y003753D01*
X004884Y003753D01*
X004860Y003753D01*
X004812Y003744D01*
X004767Y003725D01*
X004727Y003698D01*
X004693Y003664D01*
X004666Y003623D01*
X004647Y003578D01*
X004638Y003531D01*
X004638Y003506D01*
X004638Y003482D01*
X004647Y003434D01*
X004666Y003390D01*
X004693Y003349D01*
X004727Y003315D01*
X004767Y003288D01*
X004812Y003269D01*
X004860Y003260D01*
X004884Y003260D01*
X004884Y003506D01*
X004884Y003506D01*
X004638Y003506D01*
X004884Y003506D01*
X004884Y003506D01*
X004884Y003260D01*
X004909Y003260D01*
X004956Y003269D01*
X005001Y003288D01*
X005042Y003315D01*
X005076Y003349D01*
X005103Y003390D01*
X005122Y003434D01*
X005131Y003482D01*
X005131Y003506D01*
X004884Y003506D01*
X004884Y003506D01*
X004884Y003753D01*
X004884Y003506D01*
X004884Y003506D01*
X005131Y003506D01*
X005131Y003531D01*
X005122Y003578D01*
X005103Y003623D01*
X005076Y003664D01*
X005042Y003698D01*
X005110Y003608D02*
X006699Y003608D01*
X006601Y003509D02*
X005131Y003509D01*
X005112Y003411D02*
X006502Y003411D01*
X006404Y003312D02*
X005621Y003312D01*
X005632Y003304D02*
X005592Y003332D01*
X005547Y003350D01*
X005499Y003360D01*
X005475Y003360D01*
X005475Y003113D01*
X005475Y003113D01*
X005475Y003360D01*
X005451Y003360D01*
X005403Y003350D01*
X005358Y003332D01*
X005318Y003304D01*
X005283Y003270D01*
X005256Y003230D01*
X005238Y003185D01*
X005228Y003137D01*
X005228Y003113D01*
X005475Y003113D01*
X005722Y003113D01*
X005722Y003137D01*
X005712Y003185D01*
X005694Y003230D01*
X005667Y003270D01*
X005632Y003304D01*
X005700Y003214D02*
X006305Y003214D01*
X006207Y003115D02*
X005722Y003115D01*
X005722Y003113D02*
X005475Y003113D01*
X005475Y003113D01*
X005475Y003113D01*
X005228Y003113D01*
X005228Y003088D01*
X005238Y003041D01*
X005256Y002996D01*
X005283Y002955D01*
X005318Y002921D01*
X005358Y002894D01*
X005403Y002875D01*
X005451Y002866D01*
X005475Y002866D01*
X005499Y002866D01*
X005547Y002875D01*
X005592Y002894D01*
X005632Y002921D01*
X005667Y002955D01*
X005694Y002996D01*
X005712Y003041D01*
X005722Y003088D01*
X005722Y003113D01*
X005702Y003017D02*
X006188Y003017D01*
X006188Y002918D02*
X005628Y002918D01*
X005475Y002918D02*
X005475Y002918D01*
X005475Y002866D02*
X005475Y003113D01*
X005475Y003113D01*
X005475Y002866D01*
X005475Y002769D02*
X005499Y002769D01*
X005547Y002760D01*
X005592Y002741D01*
X005632Y002714D01*
X005667Y002680D01*
X005694Y002639D01*
X005712Y002594D01*
X005722Y002547D01*
X005722Y002522D01*
X005475Y002522D01*
X005475Y002275D01*
X005499Y002275D01*
X005547Y002285D01*
X005592Y002303D01*
X005632Y002330D01*
X005667Y002365D01*
X005694Y002405D01*
X005712Y002450D01*
X005722Y002498D01*
X005722Y002522D01*
X005475Y002522D01*
X005475Y002522D01*
X005475Y002275D01*
X005451Y002275D01*
X005403Y002285D01*
X005358Y002303D01*
X005318Y002330D01*
X005283Y002365D01*
X005256Y002405D01*
X005238Y002450D01*
X005228Y002498D01*
X005228Y002522D01*
X005475Y002522D01*
X005475Y002522D01*
X005475Y002522D01*
X005228Y002522D01*
X005228Y002547D01*
X005238Y002594D01*
X005256Y002639D01*
X005283Y002680D01*
X005318Y002714D01*
X005358Y002741D01*
X005403Y002760D01*
X005451Y002769D01*
X005475Y002769D01*
X005475Y002522D01*
X005475Y002522D01*
X005475Y002769D01*
X005475Y002721D02*
X005475Y002721D01*
X005475Y002623D02*
X005475Y002623D01*
X005475Y002524D02*
X005475Y002524D01*
X005475Y002426D02*
X005475Y002426D01*
X005475Y002327D02*
X005475Y002327D01*
X005627Y002327D02*
X006114Y002327D01*
X006114Y002229D02*
X005111Y002229D01*
X005103Y002208D02*
X005122Y002253D01*
X005131Y002301D01*
X005131Y002325D01*
X004884Y002325D01*
X004884Y002325D01*
X004884Y002079D01*
X004860Y002079D01*
X004812Y002088D01*
X004767Y002107D01*
X004727Y002134D01*
X004693Y002168D01*
X004666Y002208D01*
X004647Y002253D01*
X004638Y002301D01*
X004638Y002325D01*
X004884Y002325D01*
X004884Y002325D01*
X004638Y002325D01*
X004638Y002350D01*
X004647Y002397D01*
X004666Y002442D01*
X004693Y002483D01*
X004727Y002517D01*
X004767Y002544D01*
X004812Y002563D01*
X004860Y002572D01*
X004884Y002572D01*
X004884Y002325D01*
X004884Y002079D01*
X004909Y002079D01*
X004956Y002088D01*
X005001Y002107D01*
X005042Y002134D01*
X005076Y002168D01*
X005103Y002208D01*
X005036Y002130D02*
X006114Y002130D01*
X006114Y002032D02*
X004491Y002032D01*
X004491Y002130D02*
X004732Y002130D01*
X004657Y002229D02*
X004491Y002229D01*
X004491Y002327D02*
X004638Y002327D01*
X004659Y002426D02*
X004491Y002426D01*
X004491Y002524D02*
X004737Y002524D01*
X004884Y002524D02*
X004884Y002524D01*
X004884Y002572D02*
X004884Y002325D01*
X004884Y002325D01*
X004884Y002325D01*
X005131Y002325D01*
X005131Y002350D01*
X005122Y002397D01*
X005103Y002442D01*
X005076Y002483D01*
X005042Y002517D01*
X005001Y002544D01*
X004956Y002563D01*
X004909Y002572D01*
X004884Y002572D01*
X004884Y002669D02*
X004909Y002669D01*
X004956Y002679D01*
X005001Y002697D01*
X005042Y002724D01*
X005076Y002759D01*
X005103Y002799D01*
X005122Y002844D01*
X005131Y002892D01*
X005131Y002916D01*
X005131Y002940D01*
X005122Y002988D01*
X005103Y003033D01*
X005076Y003073D01*
X005042Y003108D01*
X005001Y003135D01*
X004956Y003153D01*
X004909Y003163D01*
X004884Y003163D01*
X004860Y003163D01*
X004812Y003153D01*
X004767Y003135D01*
X004727Y003108D01*
X004693Y003073D01*
X004666Y003033D01*
X004647Y002988D01*
X004638Y002940D01*
X004638Y002916D01*
X004884Y002916D01*
X004884Y002916D01*
X004638Y002916D01*
X004638Y002892D01*
X004647Y002844D01*
X004666Y002799D01*
X004693Y002759D01*
X004727Y002724D01*
X004767Y002697D01*
X004812Y002679D01*
X004860Y002669D01*
X004884Y002669D01*
X004884Y002916D01*
X004884Y003163D01*
X004884Y002916D01*
X004884Y002916D01*
X004884Y002916D01*
X004884Y002669D01*
X004884Y002721D02*
X004884Y002721D01*
X004884Y002820D02*
X004884Y002820D01*
X004884Y002916D02*
X004884Y002916D01*
X005131Y002916D01*
X004884Y002916D01*
X004884Y002918D02*
X004884Y002918D01*
X004884Y003017D02*
X004884Y003017D01*
X004884Y003115D02*
X004884Y003115D01*
X004738Y003115D02*
X004491Y003115D01*
X004491Y003017D02*
X004659Y003017D01*
X004638Y002918D02*
X004491Y002918D01*
X004491Y002820D02*
X004657Y002820D01*
X004732Y002721D02*
X004491Y002721D01*
X004491Y002623D02*
X005249Y002623D01*
X005228Y002524D02*
X005031Y002524D01*
X005110Y002426D02*
X005248Y002426D01*
X005323Y002327D02*
X005131Y002327D01*
X004884Y002327D02*
X004884Y002327D01*
X004884Y002229D02*
X004884Y002229D01*
X004884Y002130D02*
X004884Y002130D01*
X004884Y002426D02*
X004884Y002426D01*
X005037Y002721D02*
X005328Y002721D01*
X005622Y002721D02*
X006114Y002721D01*
X006114Y002623D02*
X005701Y002623D01*
X005722Y002524D02*
X006114Y002524D01*
X006114Y002426D02*
X005702Y002426D01*
X005740Y001933D02*
X004491Y001933D01*
X004491Y001835D02*
X005740Y001835D01*
X005740Y001736D02*
X005531Y001736D01*
X005531Y001638D02*
X005740Y001638D01*
X005740Y001539D02*
X005531Y001539D01*
X005531Y001441D02*
X005740Y001441D01*
X005740Y001342D02*
X005531Y001342D01*
X005531Y001244D02*
X005740Y001244D01*
X005631Y001145D02*
X005531Y001145D01*
X005531Y001047D02*
X005532Y001047D01*
X005445Y000653D02*
X004491Y000653D01*
X004491Y000751D02*
X004873Y000751D01*
X004840Y000850D02*
X004491Y000850D01*
X004491Y000948D02*
X004840Y000948D01*
X004840Y001047D02*
X004491Y001047D01*
X004491Y001145D02*
X004840Y001145D01*
X004840Y001244D02*
X004491Y001244D01*
X004491Y001342D02*
X004840Y001342D01*
X004840Y001441D02*
X004491Y001441D01*
X004491Y001539D02*
X004840Y001539D01*
X004840Y001638D02*
X004491Y001638D01*
X004491Y001736D02*
X004840Y001736D01*
X005112Y002820D02*
X006188Y002820D01*
X005475Y003017D02*
X005475Y003017D01*
X005475Y003115D02*
X005475Y003115D01*
X005475Y003214D02*
X005475Y003214D01*
X005475Y003312D02*
X005475Y003312D01*
X005329Y003312D02*
X005038Y003312D01*
X004884Y003312D02*
X004884Y003312D01*
X004884Y003411D02*
X004884Y003411D01*
X004884Y003509D02*
X004884Y003509D01*
X004884Y003608D02*
X004884Y003608D01*
X004884Y003706D02*
X004884Y003706D01*
X004739Y003706D02*
X004491Y003706D01*
X004491Y003608D02*
X004659Y003608D01*
X004638Y003509D02*
X004491Y003509D01*
X004491Y003411D02*
X004657Y003411D01*
X004731Y003312D02*
X004491Y003312D01*
X004491Y003214D02*
X005250Y003214D01*
X005228Y003115D02*
X005031Y003115D01*
X005110Y003017D02*
X005248Y003017D01*
X005322Y002918D02*
X005131Y002918D01*
X006262Y003706D02*
X006262Y003706D01*
X006262Y003805D02*
X006262Y003805D01*
X006262Y003903D02*
X006262Y003903D01*
X006262Y004002D02*
X006262Y004002D01*
X006262Y004100D02*
X006262Y004100D01*
X006409Y004199D02*
X006509Y004199D01*
X006509Y004297D02*
X006409Y004297D01*
X006409Y004396D02*
X006509Y004396D01*
X006509Y003903D02*
X007010Y003903D01*
X006912Y003805D02*
X006490Y003805D01*
X006416Y003706D02*
X006813Y003706D01*
X007876Y004888D02*
X008161Y004888D01*
X008161Y004987D02*
X007777Y004987D01*
X007679Y005085D02*
X008182Y005085D01*
X008703Y005085D02*
X008703Y005085D01*
X008703Y004987D02*
X008703Y004987D01*
X008703Y005184D02*
X008703Y005184D01*
X009225Y005085D02*
X009362Y005085D01*
X009362Y005081D02*
X009609Y005081D01*
X009609Y004834D01*
X009633Y004834D01*
X009681Y004844D01*
X009726Y004863D01*
X009766Y004890D01*
X009801Y004924D01*
X009828Y004964D01*
X009846Y005009D01*
X009856Y005057D01*
X009856Y005081D01*
X009609Y005081D01*
X009609Y005081D01*
X009609Y005081D01*
X009609Y004834D01*
X009585Y004834D01*
X009537Y004844D01*
X009492Y004863D01*
X009451Y004890D01*
X009417Y004924D01*
X009390Y004964D01*
X009371Y005009D01*
X009362Y005057D01*
X009362Y005081D01*
X009609Y005081D01*
X009856Y005081D01*
X009856Y005106D01*
X009846Y005153D01*
X009828Y005198D01*
X009801Y005239D01*
X009766Y005273D01*
X009726Y005300D01*
X009681Y005319D01*
X009633Y005328D01*
X009609Y005328D01*
X009609Y005081D01*
X009609Y005081D01*
X009609Y005081D01*
X009609Y005328D01*
X009585Y005328D01*
X009537Y005319D01*
X009492Y005300D01*
X009451Y005273D01*
X009417Y005239D01*
X009390Y005198D01*
X009371Y005153D01*
X009362Y005106D01*
X009362Y005081D01*
X009381Y004987D02*
X009245Y004987D01*
X009245Y004888D02*
X009454Y004888D01*
X009609Y004888D02*
X009609Y004888D01*
X009609Y004987D02*
X009609Y004987D01*
X009609Y005085D02*
X009609Y005085D01*
X009609Y005184D02*
X009609Y005184D01*
X009609Y005282D02*
X009609Y005282D01*
X009609Y005425D02*
X009633Y005425D01*
X009681Y005434D01*
X009726Y005453D01*
X009766Y005480D01*
X009801Y005514D01*
X009828Y005555D01*
X009846Y005600D01*
X009856Y005647D01*
X009856Y005672D01*
X009856Y005696D01*
X009846Y005744D01*
X009828Y005789D01*
X009801Y005829D01*
X009766Y005864D01*
X009726Y005891D01*
X009681Y005909D01*
X009633Y005919D01*
X009609Y005919D01*
X009609Y005672D01*
X009609Y005672D01*
X009856Y005672D01*
X009609Y005672D01*
X009609Y005672D01*
X009609Y005919D01*
X009585Y005919D01*
X009537Y005909D01*
X009492Y005891D01*
X009451Y005864D01*
X009417Y005829D01*
X009390Y005789D01*
X009371Y005744D01*
X009362Y005696D01*
X009362Y005672D01*
X009609Y005672D01*
X009609Y005672D01*
X009609Y005425D01*
X009609Y005672D01*
X009609Y005672D01*
X009362Y005672D01*
X009362Y005647D01*
X009371Y005600D01*
X009390Y005555D01*
X009417Y005514D01*
X009451Y005480D01*
X009492Y005453D01*
X009537Y005434D01*
X009585Y005425D01*
X009609Y005425D01*
X009609Y005479D02*
X009609Y005479D01*
X009609Y005578D02*
X009609Y005578D01*
X009609Y005676D02*
X009609Y005676D01*
X009609Y005775D02*
X009609Y005775D01*
X009609Y005873D02*
X009609Y005873D01*
X009752Y005873D02*
X010253Y005873D01*
X010239Y005864D02*
X010204Y005829D01*
X010177Y005789D01*
X010159Y005744D01*
X010149Y005696D01*
X010149Y005672D01*
X010396Y005672D01*
X010396Y005672D01*
X010396Y005919D01*
X010372Y005919D01*
X010324Y005909D01*
X010279Y005891D01*
X010239Y005864D01*
X010172Y005775D02*
X009833Y005775D01*
X009856Y005676D02*
X010149Y005676D01*
X010149Y005672D02*
X010149Y005647D01*
X010159Y005600D01*
X010177Y005555D01*
X010204Y005514D01*
X010239Y005480D01*
X010279Y005453D01*
X010324Y005434D01*
X010372Y005425D01*
X010396Y005425D01*
X010396Y005672D01*
X010396Y005672D01*
X010149Y005672D01*
X010168Y005578D02*
X009837Y005578D01*
X009765Y005479D02*
X010240Y005479D01*
X010396Y005479D02*
X010396Y005479D01*
X010396Y005425D02*
X010421Y005425D01*
X010468Y005434D01*
X010513Y005453D01*
X010554Y005480D01*
X010588Y005514D01*
X010615Y005555D01*
X010634Y005600D01*
X010643Y005647D01*
X010643Y005672D01*
X010643Y005696D01*
X010634Y005744D01*
X010615Y005789D01*
X010588Y005829D01*
X010554Y005864D01*
X010513Y005891D01*
X010468Y005909D01*
X010421Y005919D01*
X010396Y005919D01*
X010396Y005672D01*
X010396Y005672D01*
X010643Y005672D01*
X010396Y005672D01*
X010396Y005672D01*
X010396Y005425D01*
X010396Y005328D02*
X010421Y005328D01*
X010468Y005319D01*
X010513Y005300D01*
X010554Y005273D01*
X010588Y005239D01*
X010615Y005198D01*
X010634Y005153D01*
X010643Y005106D01*
X010643Y005081D01*
X010396Y005081D01*
X010396Y005081D01*
X010396Y004834D01*
X010372Y004834D01*
X010324Y004844D01*
X010279Y004863D01*
X010239Y004890D01*
X010204Y004924D01*
X010177Y004964D01*
X010159Y005009D01*
X010149Y005057D01*
X010149Y005081D01*
X010396Y005081D01*
X010396Y005081D01*
X010396Y004834D01*
X010421Y004834D01*
X010468Y004844D01*
X010513Y004863D01*
X010554Y004890D01*
X010588Y004924D01*
X010615Y004964D01*
X010634Y005009D01*
X010643Y005057D01*
X010643Y005081D01*
X010396Y005081D01*
X010149Y005081D01*
X010149Y005106D01*
X010159Y005153D01*
X010177Y005198D01*
X010204Y005239D01*
X010239Y005273D01*
X010279Y005300D01*
X010324Y005319D01*
X010372Y005328D01*
X010396Y005328D01*
X010396Y005081D01*
X010396Y005081D01*
X010396Y005081D01*
X010396Y005328D01*
X010396Y005282D02*
X010396Y005282D01*
X010396Y005184D02*
X010396Y005184D01*
X010396Y005085D02*
X010396Y005085D01*
X010396Y004987D02*
X010396Y004987D01*
X010396Y004888D02*
X010396Y004888D01*
X010396Y004738D02*
X010421Y004738D01*
X010468Y004728D01*
X010513Y004709D01*
X010554Y004682D01*
X010588Y004648D01*
X010615Y004608D01*
X010634Y004563D01*
X010643Y004515D01*
X010643Y004491D01*
X010396Y004491D01*
X010396Y004738D01*
X010372Y004738D01*
X010324Y004728D01*
X010279Y004709D01*
X010239Y004682D01*
X010204Y004648D01*
X010177Y004608D01*
X010159Y004563D01*
X010149Y004515D01*
X010149Y004491D01*
X010396Y004491D01*
X010396Y004491D01*
X010396Y004491D01*
X010396Y004738D01*
X010396Y004691D02*
X010396Y004691D01*
X010396Y004593D02*
X010396Y004593D01*
X010396Y004494D02*
X010396Y004494D01*
X010396Y004491D02*
X010396Y004491D01*
X010149Y004491D01*
X010149Y004466D01*
X010159Y004419D01*
X010177Y004374D01*
X010204Y004333D01*
X010239Y004299D01*
X010279Y004272D01*
X010324Y004253D01*
X010372Y004244D01*
X010396Y004244D01*
X010396Y004491D01*
X010396Y004491D01*
X010643Y004491D01*
X010643Y004466D01*
X010634Y004419D01*
X010615Y004374D01*
X010588Y004333D01*
X010554Y004299D01*
X010513Y004272D01*
X010468Y004253D01*
X010421Y004244D01*
X010396Y004244D01*
X010396Y004491D01*
X010396Y004396D02*
X010396Y004396D01*
X010396Y004297D02*
X010396Y004297D01*
X010242Y004297D02*
X009763Y004297D01*
X009766Y004299D02*
X009801Y004333D01*
X009828Y004374D01*
X009846Y004419D01*
X009856Y004466D01*
X009856Y004491D01*
X009856Y004515D01*
X009846Y004563D01*
X009828Y004608D01*
X009801Y004648D01*
X009766Y004682D01*
X009726Y004709D01*
X009681Y004728D01*
X009633Y004738D01*
X009609Y004738D01*
X009609Y004491D01*
X009609Y004491D01*
X009856Y004491D01*
X009609Y004491D01*
X009609Y004491D01*
X009609Y004738D01*
X009585Y004738D01*
X009537Y004728D01*
X009492Y004709D01*
X009451Y004682D01*
X009417Y004648D01*
X009390Y004608D01*
X009371Y004563D01*
X009362Y004515D01*
X009362Y004491D01*
X009609Y004491D01*
X009609Y004491D01*
X009609Y004244D01*
X009633Y004244D01*
X009681Y004253D01*
X009726Y004272D01*
X009766Y004299D01*
X009837Y004396D02*
X010168Y004396D01*
X010149Y004494D02*
X009856Y004494D01*
X009834Y004593D02*
X010171Y004593D01*
X010252Y004691D02*
X009753Y004691D01*
X009609Y004691D02*
X009609Y004691D01*
X009609Y004593D02*
X009609Y004593D01*
X009609Y004494D02*
X009609Y004494D01*
X009609Y004491D02*
X009362Y004491D01*
X009362Y004466D01*
X009371Y004419D01*
X009390Y004374D01*
X009417Y004333D01*
X009451Y004299D01*
X009492Y004272D01*
X009537Y004253D01*
X009585Y004244D01*
X009609Y004244D01*
X009609Y004491D01*
X009609Y004491D01*
X009609Y004396D02*
X009609Y004396D01*
X009609Y004297D02*
X009609Y004297D01*
X009454Y004297D02*
X009238Y004297D01*
X009245Y004199D02*
X010760Y004199D01*
X010767Y004297D02*
X010551Y004297D01*
X010624Y004396D02*
X010760Y004396D01*
X010760Y004494D02*
X010643Y004494D01*
X010621Y004593D02*
X010760Y004593D01*
X010760Y004691D02*
X010541Y004691D01*
X010551Y004888D02*
X010760Y004888D01*
X010760Y004953D02*
X011302Y004953D01*
X011302Y004953D01*
X011302Y004953D01*
X011302Y005209D01*
X011302Y005209D01*
X011844Y005209D01*
X011844Y005283D01*
X011840Y005296D01*
X012031Y005296D01*
X012435Y005700D01*
X012630Y005700D01*
X012630Y005627D01*
X012694Y005563D01*
X012866Y005563D01*
X012866Y005218D01*
X012895Y005189D01*
X013004Y005189D01*
X013004Y005067D01*
X013011Y005039D01*
X013025Y005014D01*
X013046Y004994D01*
X013071Y004980D01*
X013098Y004972D01*
X013496Y004972D01*
X013496Y005238D01*
X013596Y005238D01*
X013596Y004972D01*
X013993Y004972D01*
X014021Y004980D01*
X014046Y004994D01*
X014066Y005014D01*
X014081Y005039D01*
X014088Y005067D01*
X014088Y005189D01*
X014196Y005189D01*
X014226Y005218D01*
X014226Y006519D01*
X014196Y006549D01*
X014088Y006549D01*
X014088Y006670D01*
X014081Y006698D01*
X014066Y006723D01*
X014046Y006743D01*
X014021Y006758D01*
X013993Y006765D01*
X013596Y006765D01*
X013596Y006499D01*
X013496Y006499D01*
X013496Y006765D01*
X013098Y006765D01*
X013071Y006758D01*
X013046Y006743D01*
X013025Y006723D01*
X013011Y006698D01*
X013004Y006670D01*
X013004Y006549D01*
X012895Y006549D01*
X012866Y006519D01*
X012866Y006175D01*
X012694Y006175D01*
X012630Y006111D01*
X012630Y006038D01*
X012295Y006038D01*
X012196Y005939D01*
X011891Y005634D01*
X011840Y005634D01*
X011844Y005648D01*
X011844Y005721D01*
X011302Y005721D01*
X011302Y005721D01*
X011844Y005721D01*
X011844Y005794D01*
X011836Y005822D01*
X011822Y005847D01*
X011820Y005849D01*
X011822Y005851D01*
X011836Y005876D01*
X011844Y005904D01*
X011844Y005977D01*
X011844Y006050D01*
X011836Y006078D01*
X011822Y006103D01*
X011820Y006105D01*
X011844Y006129D01*
X011844Y006337D01*
X011780Y006401D01*
X011373Y006401D01*
X011372Y006402D01*
X010299Y006402D01*
X010173Y006527D01*
X010245Y006527D01*
X010308Y006591D01*
X010308Y006764D01*
X010653Y006764D01*
X010682Y006793D01*
X010682Y006901D01*
X010804Y006901D01*
X010832Y006909D01*
X010857Y006923D01*
X010877Y006943D01*
X010892Y006968D01*
X010899Y006996D01*
X010899Y007393D01*
X010633Y007393D01*
X010633Y007493D01*
X010899Y007493D01*
X010899Y007891D01*
X010892Y007919D01*
X010877Y007943D01*
X010857Y007964D01*
X010832Y007978D01*
X010804Y007986D01*
X010682Y007986D01*
X010682Y008094D01*
X010653Y008123D01*
X009352Y008123D01*
X009323Y008094D01*
X009323Y007986D01*
X009201Y007986D01*
X009173Y007978D01*
X009148Y007964D01*
X009128Y007943D01*
X009113Y007919D01*
X009106Y007891D01*
X009106Y007493D01*
X009372Y007493D01*
X009372Y007393D01*
X009106Y007393D01*
X009106Y006996D01*
X009113Y006968D01*
X009128Y006943D01*
X009148Y006923D01*
X009173Y006909D01*
X009201Y006901D01*
X009323Y006901D01*
X009323Y006793D01*
X009352Y006764D01*
X009697Y006764D01*
X009697Y006591D01*
X009760Y006527D01*
X009833Y006527D01*
X009833Y006389D01*
X009932Y006290D01*
X010159Y006064D01*
X010763Y006064D01*
X010760Y006050D01*
X010760Y005977D01*
X011302Y005977D01*
X011844Y005977D01*
X011302Y005977D01*
X011302Y005977D01*
X011302Y005809D01*
X011302Y005721D01*
X011302Y005721D01*
X011302Y005977D01*
X011302Y005977D01*
X011302Y005977D01*
X010760Y005977D01*
X010760Y005904D01*
X010767Y005876D01*
X010781Y005851D01*
X010783Y005849D01*
X010781Y005847D01*
X010767Y005822D01*
X010760Y005794D01*
X010760Y005721D01*
X010760Y005648D01*
X010767Y005620D01*
X010781Y005595D01*
X010783Y005593D01*
X010760Y005569D01*
X010760Y005361D01*
X010783Y005337D01*
X010781Y005335D01*
X010767Y005310D01*
X010760Y005283D01*
X010760Y005209D01*
X010760Y005136D01*
X010767Y005108D01*
X010781Y005083D01*
X010783Y005081D01*
X010781Y005079D01*
X010767Y005054D01*
X010760Y005027D01*
X010760Y004953D01*
X010760Y004987D02*
X010624Y004987D01*
X010643Y005085D02*
X010780Y005085D01*
X010760Y005184D02*
X010621Y005184D01*
X010540Y005282D02*
X010760Y005282D01*
X010760Y005209D02*
X011302Y005209D01*
X010760Y005209D01*
X010760Y005381D02*
X009245Y005381D01*
X009245Y005479D02*
X009453Y005479D01*
X009381Y005578D02*
X009237Y005578D01*
X009245Y005676D02*
X009362Y005676D01*
X009384Y005775D02*
X009245Y005775D01*
X009245Y005721D02*
X008703Y005721D01*
X008161Y005721D01*
X008703Y005721D01*
X008703Y005721D01*
X008703Y005889D01*
X008703Y005977D01*
X008703Y006145D01*
X008703Y006233D01*
X008703Y006233D01*
X009245Y006233D01*
X008703Y006233D01*
X008703Y006233D01*
X008703Y005977D01*
X008703Y005977D01*
X008703Y005977D01*
X008703Y005721D01*
X008703Y005721D01*
X008703Y005721D01*
X009245Y005721D01*
X009236Y005873D02*
X009466Y005873D01*
X009245Y005972D02*
X010760Y005972D01*
X010769Y005873D02*
X010539Y005873D01*
X010621Y005775D02*
X010760Y005775D01*
X010760Y005721D02*
X011302Y005721D01*
X010760Y005721D01*
X010760Y005676D02*
X010643Y005676D01*
X010624Y005578D02*
X010768Y005578D01*
X010760Y005479D02*
X010552Y005479D01*
X010396Y005578D02*
X010396Y005578D01*
X010396Y005676D02*
X010396Y005676D01*
X010396Y005775D02*
X010396Y005775D01*
X010396Y005873D02*
X010396Y005873D01*
X010153Y006070D02*
X009240Y006070D01*
X009245Y005977D02*
X008703Y005977D01*
X008703Y005977D01*
X009245Y005977D01*
X009245Y006169D02*
X010054Y006169D01*
X009956Y006267D02*
X009245Y006267D01*
X009217Y006366D02*
X009857Y006366D01*
X009833Y006464D02*
X008006Y006464D01*
X008006Y006366D02*
X008190Y006366D01*
X008161Y006267D02*
X008006Y006267D01*
X008006Y006169D02*
X008161Y006169D01*
X008166Y006070D02*
X008006Y006070D01*
X008006Y005972D02*
X008161Y005972D01*
X008170Y005873D02*
X008006Y005873D01*
X008006Y005775D02*
X008161Y005775D01*
X008161Y005676D02*
X008072Y005676D01*
X008703Y005775D02*
X008703Y005775D01*
X008703Y005873D02*
X008703Y005873D01*
X008703Y005972D02*
X008703Y005972D01*
X008703Y006070D02*
X008703Y006070D01*
X008703Y006169D02*
X008703Y006169D01*
X008703Y006267D02*
X008703Y006267D01*
X008703Y006366D02*
X008703Y006366D01*
X009120Y006957D02*
X007973Y006957D01*
X008006Y006858D02*
X009323Y006858D01*
X009106Y007055D02*
X008388Y007055D01*
X008423Y007089D01*
X008450Y007130D01*
X008468Y007175D01*
X008478Y007222D01*
X008478Y007247D01*
X008478Y007271D01*
X008468Y007319D01*
X008450Y007364D01*
X008423Y007404D01*
X008388Y007438D01*
X008348Y007465D01*
X008303Y007484D01*
X008255Y007493D01*
X008231Y007493D01*
X008231Y007247D01*
X008231Y007247D01*
X008478Y007247D01*
X008231Y007247D01*
X008231Y007247D01*
X008231Y007493D01*
X008207Y007493D01*
X008159Y007484D01*
X008114Y007465D01*
X008074Y007438D01*
X008039Y007404D01*
X008012Y007364D01*
X007994Y007319D01*
X007984Y007271D01*
X007984Y007247D01*
X008231Y007247D01*
X008231Y007247D01*
X008231Y007000D01*
X008255Y007000D01*
X008303Y007009D01*
X008348Y007028D01*
X008388Y007055D01*
X008459Y007154D02*
X009106Y007154D01*
X009106Y007252D02*
X008478Y007252D01*
X008455Y007351D02*
X009106Y007351D01*
X009106Y007548D02*
X007139Y007548D01*
X007139Y007646D02*
X007679Y007646D01*
X007680Y007645D02*
X007720Y007618D01*
X007765Y007600D01*
X007813Y007590D01*
X007837Y007590D01*
X007837Y007837D01*
X007837Y007837D01*
X007590Y007837D01*
X007590Y007813D01*
X007600Y007765D01*
X007618Y007720D01*
X007645Y007680D01*
X007680Y007645D01*
X007608Y007745D02*
X007001Y007745D01*
X007001Y007843D02*
X007590Y007843D01*
X007590Y007837D02*
X007837Y007837D01*
X007837Y007837D01*
X007837Y007590D01*
X007861Y007590D01*
X007909Y007600D01*
X007954Y007618D01*
X007995Y007645D01*
X008029Y007680D01*
X008056Y007720D01*
X008075Y007765D01*
X008084Y007813D01*
X008084Y007837D01*
X007837Y007837D01*
X007837Y007837D01*
X007837Y008084D01*
X007813Y008084D01*
X007765Y008075D01*
X007720Y008056D01*
X007680Y008029D01*
X007645Y007995D01*
X007618Y007954D01*
X007600Y007909D01*
X007590Y007861D01*
X007590Y007837D01*
X007613Y007942D02*
X006924Y007942D01*
X006509Y007942D02*
X006409Y007942D01*
X006409Y007843D02*
X006509Y007843D01*
X006509Y007745D02*
X006409Y007745D01*
X005994Y007942D02*
X005507Y007942D01*
X005515Y007962D02*
X005525Y008010D01*
X005525Y008034D01*
X005278Y008034D01*
X005031Y008034D01*
X005031Y008010D01*
X005041Y007962D01*
X005059Y007917D01*
X005086Y007877D01*
X005121Y007842D01*
X005161Y007815D01*
X005206Y007797D01*
X005254Y007787D01*
X005278Y007787D01*
X005278Y008034D01*
X005278Y008034D01*
X005031Y008034D01*
X005031Y008058D01*
X005041Y008106D01*
X005059Y008151D01*
X005086Y008191D01*
X005121Y008226D01*
X005161Y008253D01*
X005206Y008271D01*
X005254Y008281D01*
X005278Y008281D01*
X005278Y008034D01*
X005278Y008034D01*
X005278Y008034D01*
X005278Y007787D01*
X005302Y007787D01*
X005350Y007797D01*
X005395Y007815D01*
X005435Y007842D01*
X005470Y007877D01*
X005497Y007917D01*
X005515Y007962D01*
X005525Y008034D02*
X005525Y008058D01*
X005515Y008106D01*
X005497Y008151D01*
X005470Y008191D01*
X005435Y008226D01*
X005395Y008253D01*
X005350Y008271D01*
X005302Y008281D01*
X005278Y008281D01*
X005278Y008034D01*
X005278Y008034D01*
X005525Y008034D01*
X005525Y008040D02*
X007696Y008040D01*
X007837Y008040D02*
X007837Y008040D01*
X007837Y008084D02*
X007861Y008084D01*
X007909Y008075D01*
X007954Y008056D01*
X007995Y008029D01*
X008029Y007995D01*
X008056Y007954D01*
X008075Y007909D01*
X008084Y007861D01*
X008084Y007837D01*
X007837Y007837D01*
X007837Y007837D01*
X007837Y008084D01*
X007837Y007942D02*
X007837Y007942D01*
X007837Y007843D02*
X007837Y007843D01*
X007837Y007745D02*
X007837Y007745D01*
X007837Y007646D02*
X007837Y007646D01*
X007995Y007646D02*
X008467Y007646D01*
X008467Y007645D02*
X008508Y007618D01*
X008553Y007600D01*
X008600Y007590D01*
X008625Y007590D01*
X008649Y007590D01*
X008697Y007600D01*
X008741Y007618D01*
X008782Y007645D01*
X008816Y007680D01*
X008843Y007720D01*
X008862Y007765D01*
X008871Y007813D01*
X008871Y007837D01*
X008625Y007837D01*
X008625Y007837D01*
X008871Y007837D01*
X008871Y007861D01*
X008862Y007909D01*
X008843Y007954D01*
X008816Y007995D01*
X008782Y008029D01*
X008741Y008056D01*
X008697Y008075D01*
X008649Y008084D01*
X008625Y008084D01*
X008625Y007837D01*
X008625Y007590D01*
X008625Y007837D01*
X008625Y007837D01*
X008625Y007837D01*
X008378Y007837D01*
X008378Y007813D01*
X008387Y007765D01*
X008406Y007720D01*
X008433Y007680D01*
X008467Y007645D01*
X008396Y007745D02*
X008066Y007745D01*
X008084Y007843D02*
X008378Y007843D01*
X008378Y007837D02*
X008625Y007837D01*
X008625Y007837D01*
X008625Y008084D01*
X008600Y008084D01*
X008553Y008075D01*
X008508Y008056D01*
X008467Y008029D01*
X008433Y007995D01*
X008406Y007954D01*
X008387Y007909D01*
X008378Y007861D01*
X008378Y007837D01*
X008401Y007942D02*
X008061Y007942D01*
X007978Y008040D02*
X008484Y008040D01*
X008625Y008040D02*
X008625Y008040D01*
X008625Y007942D02*
X008625Y007942D01*
X008625Y007843D02*
X008625Y007843D01*
X008625Y007745D02*
X008625Y007745D01*
X008625Y007646D02*
X008625Y007646D01*
X008783Y007646D02*
X009106Y007646D01*
X009106Y007745D02*
X008853Y007745D01*
X008871Y007843D02*
X009106Y007843D01*
X009127Y007942D02*
X008849Y007942D01*
X008765Y008040D02*
X009323Y008040D01*
X009372Y007449D02*
X008372Y007449D01*
X008231Y007449D02*
X008231Y007449D01*
X008231Y007351D02*
X008231Y007351D01*
X008231Y007252D02*
X008231Y007252D01*
X008231Y007247D02*
X007984Y007247D01*
X007984Y007222D01*
X007994Y007175D01*
X008012Y007130D01*
X008039Y007089D01*
X008074Y007055D01*
X008114Y007028D01*
X008159Y007009D01*
X008207Y007000D01*
X008231Y007000D01*
X008231Y007247D01*
X008231Y007247D01*
X008231Y007154D02*
X008231Y007154D01*
X008231Y007055D02*
X008231Y007055D01*
X008073Y007055D02*
X007874Y007055D01*
X007776Y007154D02*
X008002Y007154D01*
X007984Y007252D02*
X007375Y007252D01*
X007317Y007351D02*
X008007Y007351D01*
X008089Y007449D02*
X007139Y007449D01*
X007375Y006858D02*
X007593Y006858D01*
X007668Y006760D02*
X007327Y006760D01*
X007139Y006661D02*
X007668Y006661D01*
X007668Y006563D02*
X007139Y006563D01*
X007139Y006464D02*
X007668Y006464D01*
X007668Y006366D02*
X007001Y006366D01*
X007001Y006267D02*
X007104Y006267D01*
X007022Y006169D02*
X006948Y006169D01*
X006509Y006169D02*
X006409Y006169D01*
X006409Y006267D02*
X006509Y006267D01*
X006509Y006366D02*
X006409Y006366D01*
X006409Y005972D02*
X006509Y005972D01*
X006509Y005873D02*
X006409Y005873D01*
X006409Y005775D02*
X006509Y005775D01*
X005779Y006563D02*
X004491Y006563D01*
X004491Y006661D02*
X005779Y006661D01*
X005779Y006760D02*
X004491Y006760D01*
X004491Y006858D02*
X004727Y006858D01*
X004767Y006831D01*
X004812Y006812D01*
X004860Y006803D01*
X004884Y006803D01*
X004884Y007050D01*
X004884Y007050D01*
X004638Y007050D01*
X004638Y007074D01*
X004647Y007122D01*
X004666Y007167D01*
X004693Y007207D01*
X004727Y007242D01*
X004767Y007269D01*
X004812Y007287D01*
X004860Y007297D01*
X004884Y007297D01*
X004884Y007050D01*
X004884Y007050D01*
X004638Y007050D01*
X004638Y007025D01*
X004647Y006978D01*
X004666Y006933D01*
X004693Y006892D01*
X004727Y006858D01*
X004656Y006957D02*
X004491Y006957D01*
X004491Y007055D02*
X004638Y007055D01*
X004660Y007154D02*
X004491Y007154D01*
X004491Y007252D02*
X004743Y007252D01*
X004884Y007252D02*
X004884Y007252D01*
X004884Y007297D02*
X004909Y007297D01*
X004956Y007287D01*
X005001Y007269D01*
X005042Y007242D01*
X005076Y007207D01*
X005103Y007167D01*
X005122Y007122D01*
X005131Y007074D01*
X005131Y007050D01*
X004884Y007050D01*
X004884Y007297D01*
X004884Y007393D02*
X004909Y007393D01*
X004956Y007403D01*
X005001Y007422D01*
X005042Y007449D01*
X005779Y007449D01*
X005779Y007351D02*
X004491Y007351D01*
X004491Y007449D02*
X004727Y007449D01*
X004767Y007422D01*
X004812Y007403D01*
X004860Y007393D01*
X004884Y007393D01*
X004884Y007640D01*
X004638Y007640D01*
X004638Y007616D01*
X004647Y007568D01*
X004666Y007523D01*
X004693Y007483D01*
X004727Y007449D01*
X004656Y007548D02*
X004491Y007548D01*
X004491Y007646D02*
X004638Y007646D01*
X004638Y007640D02*
X004884Y007640D01*
X004884Y007640D01*
X004884Y007640D01*
X004884Y007393D01*
X004884Y007449D02*
X004884Y007449D01*
X004884Y007548D02*
X004884Y007548D01*
X004884Y007640D02*
X004884Y007640D01*
X004884Y007887D01*
X004860Y007887D01*
X004812Y007878D01*
X004767Y007859D01*
X004727Y007832D01*
X004693Y007798D01*
X004666Y007757D01*
X004647Y007712D01*
X004638Y007665D01*
X004638Y007640D01*
X004660Y007745D02*
X004491Y007745D01*
X004491Y007843D02*
X004743Y007843D01*
X004884Y007843D02*
X004884Y007843D01*
X004884Y007887D02*
X004884Y007640D01*
X004884Y007640D01*
X005131Y007640D01*
X005131Y007616D01*
X005122Y007568D01*
X005103Y007523D01*
X005076Y007483D01*
X005042Y007449D01*
X005113Y007548D02*
X005779Y007548D01*
X005779Y007646D02*
X005131Y007646D01*
X005131Y007640D02*
X005131Y007665D01*
X005122Y007712D01*
X005103Y007757D01*
X005076Y007798D01*
X005042Y007832D01*
X005001Y007859D01*
X004956Y007878D01*
X004909Y007887D01*
X004884Y007887D01*
X004884Y007745D02*
X004884Y007745D01*
X004884Y007646D02*
X004884Y007646D01*
X004884Y007640D02*
X005131Y007640D01*
X005108Y007745D02*
X005917Y007745D01*
X005917Y007843D02*
X005436Y007843D01*
X005278Y007843D02*
X005278Y007843D01*
X005278Y007942D02*
X005278Y007942D01*
X005278Y008040D02*
X005278Y008040D01*
X005278Y008139D02*
X005278Y008139D01*
X005278Y008237D02*
X005278Y008237D01*
X005138Y008237D02*
X004491Y008237D01*
X004491Y008139D02*
X005054Y008139D01*
X005031Y008040D02*
X004491Y008040D01*
X004491Y007942D02*
X005049Y007942D01*
X005025Y007843D02*
X005120Y007843D01*
X005502Y008139D02*
X011353Y008139D01*
X011359Y008151D02*
X011340Y008106D01*
X011330Y008058D01*
X011330Y008034D01*
X011330Y008010D01*
X011340Y007962D01*
X011359Y007917D01*
X011386Y007877D01*
X011420Y007842D01*
X011460Y007815D01*
X011505Y007797D01*
X011553Y007787D01*
X011577Y007787D01*
X011577Y008034D01*
X011330Y008034D01*
X011577Y008034D01*
X011577Y008034D01*
X011577Y008034D01*
X011577Y008281D01*
X011553Y008281D01*
X011505Y008271D01*
X011460Y008253D01*
X011420Y008226D01*
X011386Y008191D01*
X011359Y008151D01*
X011330Y008040D02*
X010682Y008040D01*
X010878Y007942D02*
X011348Y007942D01*
X011419Y007843D02*
X010899Y007843D01*
X010899Y007745D02*
X012504Y007745D01*
X012504Y007787D02*
X012504Y007508D01*
X012511Y007480D01*
X012525Y007455D01*
X012546Y007435D01*
X012571Y007421D01*
X012598Y007413D01*
X012878Y007413D01*
X012878Y007787D01*
X012978Y007787D01*
X012978Y007413D01*
X013257Y007413D01*
X013285Y007421D01*
X013310Y007435D01*
X013330Y007455D01*
X013340Y007472D01*
X013768Y007472D01*
X013827Y007413D01*
X014548Y007413D01*
X014612Y007477D01*
X014612Y007568D01*
X014716Y007568D01*
X014716Y007497D01*
X014780Y007433D01*
X015461Y007433D01*
X015525Y007497D01*
X015525Y008178D01*
X015461Y008241D01*
X014780Y008241D01*
X014716Y008178D01*
X014716Y008106D01*
X014612Y008106D01*
X014612Y008197D01*
X014548Y008261D01*
X013827Y008261D01*
X013768Y008202D01*
X013340Y008202D01*
X013330Y008219D01*
X013310Y008239D01*
X013285Y008254D01*
X013257Y008261D01*
X012978Y008261D01*
X012978Y007887D01*
X012878Y007887D01*
X012878Y008261D01*
X012598Y008261D01*
X012571Y008254D01*
X012546Y008239D01*
X012525Y008219D01*
X012511Y008194D01*
X012504Y008166D01*
X012504Y007887D01*
X012878Y007887D01*
X012878Y007787D01*
X012504Y007787D01*
X012504Y007646D02*
X010899Y007646D01*
X010899Y007548D02*
X012504Y007548D01*
X012532Y007449D02*
X011916Y007449D01*
X011932Y007438D02*
X011891Y007465D01*
X011846Y007484D01*
X011798Y007493D01*
X011774Y007493D01*
X011750Y007493D01*
X011702Y007484D01*
X011657Y007465D01*
X011617Y007438D01*
X011582Y007404D01*
X011555Y007364D01*
X011537Y007319D01*
X011527Y007271D01*
X011527Y007247D01*
X011774Y007247D01*
X011774Y007493D01*
X011774Y007247D01*
X011774Y007247D01*
X011774Y007247D01*
X012021Y007247D01*
X012021Y007271D01*
X012012Y007319D01*
X011993Y007364D01*
X011966Y007404D01*
X011932Y007438D01*
X011998Y007351D02*
X015582Y007351D01*
X015582Y007449D02*
X015477Y007449D01*
X015525Y007548D02*
X015582Y007548D01*
X015582Y007646D02*
X015525Y007646D01*
X015525Y007745D02*
X015582Y007745D01*
X015582Y007843D02*
X015525Y007843D01*
X015525Y007942D02*
X015582Y007942D01*
X015582Y008040D02*
X015525Y008040D01*
X015525Y008139D02*
X015582Y008139D01*
X015582Y008237D02*
X015466Y008237D01*
X015582Y008336D02*
X004491Y008336D01*
X005419Y008237D02*
X011437Y008237D01*
X011577Y008237D02*
X011577Y008237D01*
X011577Y008281D02*
X011602Y008281D01*
X011649Y008271D01*
X011694Y008253D01*
X011735Y008226D01*
X011769Y008191D01*
X011796Y008151D01*
X011815Y008106D01*
X011824Y008058D01*
X011824Y008034D01*
X011577Y008034D01*
X011577Y008034D01*
X011577Y007787D01*
X011602Y007787D01*
X011649Y007797D01*
X011694Y007815D01*
X011735Y007842D01*
X011769Y007877D01*
X011796Y007917D01*
X011815Y007962D01*
X011824Y008010D01*
X011824Y008034D01*
X011577Y008034D01*
X011577Y008281D01*
X011577Y008139D02*
X011577Y008139D01*
X011577Y008040D02*
X011577Y008040D01*
X011577Y008034D02*
X011577Y008034D01*
X011577Y007942D02*
X011577Y007942D01*
X011577Y007843D02*
X011577Y007843D01*
X011735Y007843D02*
X012878Y007843D01*
X012878Y007745D02*
X012978Y007745D01*
X012978Y007646D02*
X012878Y007646D01*
X012878Y007548D02*
X012978Y007548D01*
X012978Y007449D02*
X012878Y007449D01*
X013324Y007449D02*
X013792Y007449D01*
X013596Y006760D02*
X013496Y006760D01*
X013496Y006661D02*
X013596Y006661D01*
X013596Y006563D02*
X013496Y006563D01*
X013077Y006760D02*
X010308Y006760D01*
X010308Y006661D02*
X012026Y006661D01*
X012011Y006651D02*
X011976Y006617D01*
X011949Y006576D01*
X011931Y006531D01*
X011921Y006484D01*
X011921Y006459D01*
X011921Y006435D01*
X011931Y006387D01*
X011949Y006342D01*
X011976Y006302D01*
X012011Y006267D01*
X011844Y006267D01*
X011844Y006169D02*
X012688Y006169D01*
X012630Y006070D02*
X011839Y006070D01*
X011844Y005972D02*
X012228Y005972D01*
X012130Y005873D02*
X011835Y005873D01*
X011844Y005775D02*
X012031Y005775D01*
X011933Y005676D02*
X011844Y005676D01*
X012116Y005381D02*
X012866Y005381D01*
X012866Y005479D02*
X012214Y005479D01*
X012313Y005578D02*
X012679Y005578D01*
X012630Y005676D02*
X012411Y005676D01*
X012389Y005328D02*
X012365Y005328D01*
X012365Y005081D01*
X012365Y005081D01*
X012612Y005081D01*
X012612Y005057D01*
X012602Y005009D01*
X012583Y004964D01*
X012556Y004924D01*
X012522Y004890D01*
X012482Y004863D01*
X012437Y004844D01*
X012389Y004834D01*
X012365Y004834D01*
X012365Y005081D01*
X012365Y005081D01*
X012612Y005081D01*
X012612Y005106D01*
X012602Y005153D01*
X012583Y005198D01*
X012556Y005239D01*
X012522Y005273D01*
X012482Y005300D01*
X012437Y005319D01*
X012389Y005328D01*
X012365Y005328D02*
X012340Y005328D01*
X012293Y005319D01*
X012248Y005300D01*
X012207Y005273D01*
X012173Y005239D01*
X012146Y005198D01*
X012127Y005153D01*
X012118Y005106D01*
X012118Y005081D01*
X012118Y005057D01*
X012127Y005009D01*
X012146Y004964D01*
X012173Y004924D01*
X012207Y004890D01*
X012248Y004863D01*
X012293Y004844D01*
X012340Y004834D01*
X012365Y004834D01*
X012365Y005081D01*
X012118Y005081D01*
X012365Y005081D01*
X012365Y005081D01*
X012365Y005081D01*
X012365Y005328D01*
X012365Y005282D02*
X012365Y005282D01*
X012365Y005184D02*
X012365Y005184D01*
X012365Y005085D02*
X012365Y005085D01*
X012365Y004987D02*
X012365Y004987D01*
X012365Y004888D02*
X012365Y004888D01*
X012520Y004888D02*
X014480Y004888D01*
X014480Y004884D02*
X014727Y004884D01*
X014727Y004638D01*
X014751Y004638D01*
X014799Y004647D01*
X014844Y004666D01*
X014884Y004693D01*
X014919Y004727D01*
X014946Y004767D01*
X014964Y004812D01*
X014974Y004860D01*
X014974Y004884D01*
X014727Y004884D01*
X014727Y004884D01*
X014727Y004638D01*
X014703Y004638D01*
X014655Y004647D01*
X014610Y004666D01*
X014570Y004693D01*
X014535Y004727D01*
X014508Y004767D01*
X014490Y004812D01*
X014480Y004860D01*
X014480Y004884D01*
X014727Y004884D01*
X014727Y004884D01*
X014727Y004884D01*
X014974Y004884D01*
X014974Y004909D01*
X014964Y004956D01*
X014946Y005001D01*
X014919Y005042D01*
X014884Y005076D01*
X014844Y005103D01*
X014799Y005122D01*
X014751Y005131D01*
X014727Y005131D01*
X014727Y004884D01*
X014727Y004884D01*
X014727Y005131D01*
X014703Y005131D01*
X014655Y005122D01*
X014610Y005103D01*
X014570Y005076D01*
X014535Y005042D01*
X014508Y005001D01*
X014490Y004956D01*
X014480Y004909D01*
X014480Y004884D01*
X014499Y004790D02*
X014020Y004790D01*
X014088Y004691D02*
X014572Y004691D01*
X014727Y004691D02*
X014727Y004691D01*
X014727Y004790D02*
X014727Y004790D01*
X014727Y004888D02*
X014727Y004888D01*
X014727Y004987D02*
X014727Y004987D01*
X014727Y005085D02*
X014727Y005085D01*
X014871Y005085D02*
X015582Y005085D01*
X015582Y004987D02*
X014952Y004987D01*
X014974Y004888D02*
X015582Y004888D01*
X015582Y004790D02*
X014955Y004790D01*
X014882Y004691D02*
X015582Y004691D01*
X015582Y004593D02*
X014088Y004593D01*
X014226Y004494D02*
X014976Y004494D01*
X014963Y004486D02*
X014929Y004451D01*
X014902Y004411D01*
X014883Y004366D01*
X014874Y004318D01*
X014874Y004294D01*
X015121Y004294D01*
X015367Y004294D01*
X015367Y004318D01*
X015358Y004366D01*
X015339Y004411D01*
X015312Y004451D01*
X015278Y004486D01*
X015238Y004513D01*
X015193Y004531D01*
X015145Y004541D01*
X015121Y004541D01*
X015121Y004294D01*
X015121Y004294D01*
X015367Y004294D01*
X015367Y004270D01*
X015358Y004222D01*
X015339Y004177D01*
X015312Y004136D01*
X015278Y004102D01*
X015238Y004075D01*
X015193Y004056D01*
X015145Y004047D01*
X015121Y004047D01*
X015121Y004294D01*
X015121Y004294D01*
X015121Y004294D01*
X015121Y004541D01*
X015096Y004541D01*
X015049Y004531D01*
X015004Y004513D01*
X014963Y004486D01*
X014896Y004396D02*
X014226Y004396D01*
X014226Y004297D02*
X014874Y004297D01*
X014874Y004294D02*
X014874Y004270D01*
X014883Y004222D01*
X014902Y004177D01*
X014929Y004136D01*
X014963Y004102D01*
X015004Y004075D01*
X015049Y004056D01*
X015096Y004047D01*
X015121Y004047D01*
X015121Y004294D01*
X015121Y004294D01*
X014874Y004294D01*
X014893Y004199D02*
X014226Y004199D01*
X014226Y004100D02*
X014966Y004100D01*
X015121Y004100D02*
X015121Y004100D01*
X015121Y004199D02*
X015121Y004199D01*
X015121Y004297D02*
X015121Y004297D01*
X015121Y004396D02*
X015121Y004396D01*
X015121Y004494D02*
X015121Y004494D01*
X015265Y004494D02*
X015582Y004494D01*
X015582Y004396D02*
X015346Y004396D01*
X015367Y004297D02*
X015582Y004297D01*
X015582Y004199D02*
X015348Y004199D01*
X015275Y004100D02*
X015582Y004100D01*
X015582Y004002D02*
X014226Y004002D01*
X014226Y003903D02*
X014975Y003903D01*
X014963Y003895D02*
X014929Y003861D01*
X014902Y003820D01*
X014883Y003775D01*
X014874Y003728D01*
X014874Y003703D01*
X014874Y003679D01*
X014883Y003631D01*
X014902Y003586D01*
X014929Y003546D01*
X014963Y003512D01*
X015004Y003485D01*
X015049Y003466D01*
X015096Y003456D01*
X015121Y003456D01*
X015145Y003456D01*
X015193Y003466D01*
X015238Y003485D01*
X015278Y003512D01*
X015312Y003546D01*
X015339Y003586D01*
X015358Y003631D01*
X015367Y003679D01*
X015367Y003703D01*
X015121Y003703D01*
X015121Y003703D01*
X015121Y003456D01*
X015121Y003703D01*
X015121Y003703D01*
X015367Y003703D01*
X015367Y003728D01*
X015358Y003775D01*
X015339Y003820D01*
X015312Y003861D01*
X015278Y003895D01*
X015238Y003922D01*
X015193Y003941D01*
X015145Y003950D01*
X015121Y003950D01*
X015121Y003703D01*
X015121Y003703D01*
X014874Y003703D01*
X015121Y003703D01*
X015121Y003703D01*
X015121Y003950D01*
X015096Y003950D01*
X015049Y003941D01*
X015004Y003922D01*
X014963Y003895D01*
X014895Y003805D02*
X014226Y003805D01*
X014226Y003706D02*
X014874Y003706D01*
X014893Y003608D02*
X014226Y003608D01*
X014226Y003509D02*
X014967Y003509D01*
X015121Y003509D02*
X015121Y003509D01*
X015121Y003608D02*
X015121Y003608D01*
X015121Y003706D02*
X015121Y003706D01*
X015121Y003805D02*
X015121Y003805D01*
X015121Y003903D02*
X015121Y003903D01*
X015266Y003903D02*
X015582Y003903D01*
X015582Y003805D02*
X015346Y003805D01*
X015367Y003706D02*
X015582Y003706D01*
X015582Y003608D02*
X015348Y003608D01*
X015274Y003509D02*
X015582Y003509D01*
X015582Y003411D02*
X014226Y003411D01*
X014226Y003312D02*
X014975Y003312D01*
X014963Y003304D02*
X014929Y003270D01*
X014902Y003230D01*
X014883Y003185D01*
X014874Y003137D01*
X014874Y003113D01*
X015121Y003113D01*
X015367Y003113D01*
X015367Y003137D01*
X015358Y003185D01*
X015339Y003230D01*
X015312Y003270D01*
X015278Y003304D01*
X015238Y003332D01*
X015193Y003350D01*
X015145Y003360D01*
X015121Y003360D01*
X015121Y003113D01*
X015121Y003113D01*
X015121Y003113D01*
X015367Y003113D01*
X015367Y003088D01*
X015358Y003041D01*
X015339Y002996D01*
X015312Y002955D01*
X015278Y002921D01*
X015238Y002894D01*
X015193Y002875D01*
X015145Y002866D01*
X015121Y002866D01*
X015121Y003113D01*
X015121Y003360D01*
X015096Y003360D01*
X015049Y003350D01*
X015004Y003332D01*
X014963Y003304D01*
X014895Y003214D02*
X014088Y003214D01*
X014088Y003115D02*
X014874Y003115D01*
X014874Y003113D02*
X014874Y003088D01*
X014883Y003041D01*
X014902Y002996D01*
X014929Y002955D01*
X014963Y002921D01*
X015004Y002894D01*
X015049Y002875D01*
X015096Y002866D01*
X015121Y002866D01*
X015121Y003113D01*
X015121Y003113D01*
X015121Y003113D01*
X014874Y003113D01*
X014893Y003017D02*
X014030Y003017D01*
X014216Y002741D02*
X014176Y002714D01*
X014141Y002680D01*
X014114Y002639D01*
X014096Y002594D01*
X014086Y002547D01*
X014086Y002522D01*
X014086Y002498D01*
X014096Y002450D01*
X014114Y002405D01*
X014141Y002365D01*
X014176Y002330D01*
X014216Y002303D01*
X014261Y002285D01*
X014309Y002275D01*
X014333Y002275D01*
X014333Y002522D01*
X014333Y002522D01*
X014086Y002522D01*
X014333Y002522D01*
X014333Y002522D01*
X014333Y002275D01*
X014358Y002275D01*
X014405Y002285D01*
X014450Y002303D01*
X014491Y002330D01*
X014525Y002365D01*
X014552Y002405D01*
X014571Y002450D01*
X014580Y002498D01*
X014580Y002522D01*
X014333Y002522D01*
X014333Y002769D01*
X014309Y002769D01*
X014261Y002760D01*
X014216Y002741D01*
X014186Y002721D02*
X013190Y002721D01*
X013190Y002623D02*
X014108Y002623D01*
X014086Y002524D02*
X013186Y002524D01*
X013176Y002375D02*
X013152Y002375D01*
X013128Y002375D01*
X013080Y002366D01*
X013035Y002347D01*
X012995Y002320D01*
X012960Y002286D01*
X012933Y002245D01*
X012915Y002201D01*
X012905Y002153D01*
X012905Y002129D01*
X013152Y002129D01*
X013152Y002375D01*
X013152Y002129D01*
X013152Y002129D01*
X013152Y002128D01*
X013152Y002128D01*
X013152Y001882D01*
X013128Y001882D01*
X013080Y001891D01*
X013035Y001910D01*
X012995Y001937D01*
X012960Y001971D01*
X012933Y002012D01*
X012915Y002056D01*
X012905Y002104D01*
X012905Y002128D01*
X013152Y002128D01*
X013152Y001882D01*
X013176Y001882D01*
X013224Y001891D01*
X013269Y001910D01*
X013309Y001937D01*
X013344Y001971D01*
X013371Y002012D01*
X013389Y002056D01*
X013399Y002104D01*
X013399Y002128D01*
X013152Y002128D01*
X013152Y002129D01*
X013399Y002129D01*
X013399Y002153D01*
X013389Y002201D01*
X013371Y002245D01*
X013344Y002286D01*
X013309Y002320D01*
X013269Y002347D01*
X013224Y002366D01*
X013176Y002375D01*
X013152Y002327D02*
X013152Y002327D01*
X013152Y002229D02*
X013152Y002229D01*
X013152Y002130D02*
X013152Y002130D01*
X013152Y002032D02*
X013152Y002032D01*
X013152Y001933D02*
X013152Y001933D01*
X013000Y001933D02*
X012257Y001933D01*
X012257Y001835D02*
X013516Y001835D01*
X013524Y001815D02*
X013551Y001774D01*
X013585Y001740D01*
X013626Y001713D01*
X013671Y001694D01*
X013718Y001685D01*
X013743Y001685D01*
X013767Y001685D01*
X013815Y001694D01*
X013860Y001713D01*
X013900Y001740D01*
X013934Y001774D01*
X013961Y001815D01*
X013980Y001860D01*
X013990Y001907D01*
X013990Y001932D01*
X013990Y001956D01*
X013980Y002004D01*
X013961Y002049D01*
X013934Y002089D01*
X013900Y002123D01*
X013860Y002150D01*
X013815Y002169D01*
X013767Y002179D01*
X013743Y002179D01*
X013743Y001932D01*
X013743Y001932D01*
X013990Y001932D01*
X013743Y001932D01*
X013743Y001932D01*
X013743Y002179D01*
X013718Y002179D01*
X013671Y002169D01*
X013626Y002150D01*
X013585Y002123D01*
X013551Y002089D01*
X013524Y002049D01*
X013505Y002004D01*
X013496Y001956D01*
X013496Y001932D01*
X013743Y001932D01*
X013743Y001932D01*
X013743Y001685D01*
X013743Y001932D01*
X013743Y001932D01*
X013496Y001932D01*
X013496Y001907D01*
X013505Y001860D01*
X013524Y001815D01*
X013591Y001736D02*
X013071Y001736D01*
X013133Y001638D02*
X014037Y001638D01*
X014094Y001736D02*
X013894Y001736D01*
X013970Y001835D02*
X014179Y001835D01*
X014278Y001933D02*
X013990Y001933D01*
X013969Y002032D02*
X014431Y002032D01*
X014683Y002130D02*
X013890Y002130D01*
X013743Y002130D02*
X013743Y002130D01*
X013743Y002032D02*
X013743Y002032D01*
X013743Y001933D02*
X013743Y001933D01*
X013743Y001835D02*
X013743Y001835D01*
X013743Y001736D02*
X013743Y001736D01*
X013980Y001539D02*
X013133Y001539D01*
X013133Y001441D02*
X013953Y001441D01*
X013926Y001342D02*
X013133Y001342D01*
X013133Y001244D02*
X013909Y001244D01*
X013909Y001145D02*
X013133Y001145D01*
X013133Y001047D02*
X013909Y001047D01*
X013926Y000948D02*
X013133Y000948D01*
X013133Y000850D02*
X013952Y000850D01*
X013979Y000751D02*
X013133Y000751D01*
X012543Y000653D02*
X014036Y000653D01*
X014093Y000554D02*
X012503Y000554D01*
X012443Y001145D02*
X012356Y001145D01*
X012443Y001244D02*
X012257Y001244D01*
X012257Y001342D02*
X012443Y001342D01*
X012443Y001441D02*
X012257Y001441D01*
X012257Y001539D02*
X012443Y001539D01*
X012443Y001638D02*
X012257Y001638D01*
X012257Y001736D02*
X012505Y001736D01*
X012925Y002032D02*
X011873Y002032D01*
X011873Y002130D02*
X012905Y002130D01*
X012926Y002229D02*
X011873Y002229D01*
X011873Y002327D02*
X013005Y002327D01*
X012983Y002524D02*
X012983Y002524D01*
X012983Y002623D02*
X012983Y002623D01*
X012983Y002652D02*
X012983Y002652D01*
X012983Y002721D02*
X012983Y002721D01*
X012983Y002820D02*
X012983Y002820D01*
X012828Y002918D02*
X014968Y002918D01*
X014948Y002769D02*
X014924Y002769D01*
X014924Y002522D01*
X014924Y002522D01*
X015171Y002522D01*
X015171Y002498D01*
X015161Y002450D01*
X015143Y002405D01*
X015116Y002365D01*
X015081Y002330D01*
X015041Y002303D01*
X014996Y002285D01*
X014948Y002275D01*
X014924Y002275D01*
X014924Y002522D01*
X014924Y002522D01*
X015171Y002522D01*
X015171Y002547D01*
X015161Y002594D01*
X015143Y002639D01*
X015116Y002680D01*
X015081Y002714D01*
X015041Y002741D01*
X014996Y002760D01*
X014948Y002769D01*
X014924Y002769D02*
X014924Y002522D01*
X014924Y002275D01*
X014899Y002275D01*
X014852Y002285D01*
X014807Y002303D01*
X014766Y002330D01*
X014732Y002365D01*
X014705Y002405D01*
X014686Y002450D01*
X014677Y002498D01*
X014677Y002522D01*
X014924Y002522D01*
X014924Y002522D01*
X014924Y002522D01*
X014677Y002522D01*
X014677Y002547D01*
X014686Y002594D01*
X014705Y002639D01*
X014732Y002680D01*
X014766Y002714D01*
X014807Y002741D01*
X014852Y002760D01*
X014899Y002769D01*
X014924Y002769D01*
X014924Y002721D02*
X014924Y002721D01*
X014924Y002623D02*
X014924Y002623D01*
X014924Y002524D02*
X014924Y002524D01*
X014924Y002426D02*
X014924Y002426D01*
X014924Y002327D02*
X014924Y002327D01*
X015076Y002327D02*
X015582Y002327D01*
X015582Y002229D02*
X013378Y002229D01*
X013399Y002130D02*
X013595Y002130D01*
X013517Y002032D02*
X013379Y002032D01*
X013304Y001933D02*
X013496Y001933D01*
X013299Y002327D02*
X014181Y002327D01*
X014106Y002426D02*
X011873Y002426D01*
X011873Y002524D02*
X012382Y002524D01*
X012382Y002623D02*
X011873Y002623D01*
X011873Y002721D02*
X012382Y002721D01*
X012403Y002820D02*
X012032Y002820D01*
X012202Y002918D02*
X012295Y002918D01*
X012562Y003113D02*
X012562Y002680D01*
X012589Y002652D01*
X012773Y002820D02*
X012799Y002820D01*
X012828Y003017D02*
X013061Y003017D01*
X013004Y003115D02*
X012828Y003115D01*
X012828Y003214D02*
X013004Y003214D01*
X012866Y003312D02*
X012828Y003312D01*
X012866Y003411D02*
X012531Y003411D01*
X012356Y003509D02*
X012866Y003509D01*
X012680Y003608D02*
X012300Y003608D01*
X012248Y003706D02*
X012630Y003706D01*
X012418Y003805D02*
X012250Y003805D01*
X012248Y003903D02*
X012320Y003903D01*
X012221Y004002D02*
X012177Y004002D01*
X012196Y004100D02*
X012110Y004100D01*
X012028Y004199D02*
X012196Y004199D01*
X012122Y004297D02*
X011900Y004297D01*
X011844Y004396D02*
X012024Y004396D01*
X011925Y004494D02*
X011844Y004494D01*
X012108Y004790D02*
X013072Y004790D01*
X013004Y004691D02*
X012207Y004691D01*
X012305Y004593D02*
X013004Y004593D01*
X012866Y004494D02*
X012404Y004494D01*
X012502Y004396D02*
X012866Y004396D01*
X012866Y004297D02*
X012534Y004297D01*
X012534Y004199D02*
X012686Y004199D01*
X012630Y004100D02*
X012601Y004100D01*
X012210Y004888D02*
X011844Y004888D01*
X011844Y004987D02*
X012137Y004987D01*
X012118Y005085D02*
X011823Y005085D01*
X011844Y005184D02*
X012140Y005184D01*
X012221Y005282D02*
X011844Y005282D01*
X011302Y005209D02*
X011302Y005209D01*
X011302Y005184D02*
X011302Y005184D01*
X011302Y005085D02*
X011302Y005085D01*
X011302Y004987D02*
X011302Y004987D01*
X011302Y004442D02*
X011302Y004441D01*
X010760Y004100D02*
X009245Y004100D01*
X009245Y004002D02*
X010760Y004002D01*
X010760Y003903D02*
X009245Y003903D01*
X009224Y003805D02*
X010781Y003805D01*
X010776Y003509D02*
X011193Y003509D01*
X010863Y003411D02*
X010832Y003411D01*
X011017Y003115D02*
X011193Y003115D01*
X011244Y003017D02*
X010919Y003017D01*
X010832Y002918D02*
X011547Y002918D01*
X011675Y003017D02*
X011736Y003017D01*
X010888Y002524D02*
X009617Y002524D01*
X009583Y002426D02*
X010888Y002426D01*
X010023Y003214D02*
X009832Y003214D01*
X009832Y003312D02*
X010023Y003312D01*
X010023Y003411D02*
X009832Y003411D01*
X009776Y003509D02*
X010079Y003509D01*
X009381Y004396D02*
X009245Y004396D01*
X009245Y004494D02*
X009362Y004494D01*
X009384Y004593D02*
X009245Y004593D01*
X009245Y004691D02*
X009464Y004691D01*
X009245Y004790D02*
X010760Y004790D01*
X010241Y004888D02*
X009764Y004888D01*
X009837Y004987D02*
X010168Y004987D01*
X010149Y005085D02*
X009856Y005085D01*
X009834Y005184D02*
X010171Y005184D01*
X010252Y005282D02*
X009753Y005282D01*
X009465Y005282D02*
X009245Y005282D01*
X009245Y005184D02*
X009384Y005184D01*
X009725Y006563D02*
X008006Y006563D01*
X008006Y006661D02*
X009697Y006661D01*
X009697Y006760D02*
X008006Y006760D01*
X005779Y006858D02*
X005042Y006858D01*
X005076Y006892D01*
X005103Y006933D01*
X005122Y006978D01*
X005131Y007025D01*
X005131Y007050D01*
X004884Y007050D01*
X004884Y007050D01*
X004884Y007050D01*
X004884Y006803D01*
X004909Y006803D01*
X004956Y006812D01*
X005001Y006831D01*
X005042Y006858D01*
X005113Y006957D02*
X005779Y006957D01*
X005779Y007055D02*
X005131Y007055D01*
X005109Y007154D02*
X005779Y007154D01*
X005779Y007252D02*
X005026Y007252D01*
X004884Y007154D02*
X004884Y007154D01*
X004884Y007055D02*
X004884Y007055D01*
X004884Y006957D02*
X004884Y006957D01*
X004884Y006858D02*
X004884Y006858D01*
X004742Y006464D02*
X004491Y006464D01*
X004491Y006366D02*
X004660Y006366D01*
X004638Y006267D02*
X004491Y006267D01*
X004491Y006169D02*
X004656Y006169D01*
X005424Y009349D02*
X005420Y009353D01*
X005424Y009349D02*
X006546Y009349D01*
X006853Y009656D01*
X006853Y011774D01*
X006971Y011892D01*
X007463Y011892D01*
X007463Y012404D02*
X008073Y012404D01*
X008231Y012562D01*
X008231Y013723D01*
X008231Y013723D01*
X007463Y012916D02*
X006656Y012916D01*
X006538Y013034D01*
X006538Y013427D01*
X006538Y013428D01*
X006538Y013920D01*
X006341Y014117D01*
X006144Y013428D02*
X005662Y013428D01*
X005514Y013280D01*
X006144Y013427D02*
X006144Y013034D01*
X006144Y013427D02*
X006144Y013428D01*
X006144Y012562D02*
X006144Y012188D01*
X005603Y012188D01*
X005514Y012276D01*
X006144Y012188D02*
X006144Y012188D01*
X006538Y012188D02*
X006538Y012188D01*
X006538Y012562D01*
X006636Y012660D01*
X007463Y012660D01*
X006538Y011991D02*
X006538Y011794D01*
X006440Y011499D01*
X005672Y010593D02*
X005278Y010593D01*
X005672Y010593D02*
X005731Y010534D01*
X005731Y010140D01*
X008526Y010475D02*
X008526Y010475D01*
X008526Y010711D01*
X008684Y010869D01*
X008684Y011125D01*
X010061Y011892D02*
X010656Y011900D01*
X010748Y011738D01*
X010865Y012152D02*
X010061Y012148D01*
X010061Y012660D02*
X010522Y012660D01*
X010699Y012483D01*
X010927Y012483D01*
X010928Y012483D01*
X011203Y012483D01*
X011270Y012416D01*
X011624Y012416D01*
X011627Y012414D01*
X011210Y011971D02*
X010865Y012152D01*
X011551Y011774D02*
X011884Y011774D01*
X012003Y011656D01*
X012145Y011441D01*
X011275Y010939D02*
X011240Y010904D01*
X011117Y011101D01*
X010945Y011397D01*
X010491Y012916D02*
X010061Y012916D01*
X010491Y012916D02*
X010656Y013081D01*
X010896Y013081D01*
X010928Y013113D01*
X010956Y013113D01*
X011262Y013420D01*
X011624Y013420D01*
X011627Y013418D01*
X011718Y008237D02*
X012543Y008237D01*
X012504Y008139D02*
X011801Y008139D01*
X011824Y008040D02*
X012504Y008040D01*
X012504Y007942D02*
X011806Y007942D01*
X011774Y007449D02*
X011774Y007449D01*
X011774Y007351D02*
X011774Y007351D01*
X011774Y007252D02*
X011774Y007252D01*
X011774Y007247D02*
X011774Y007247D01*
X011527Y007247D01*
X011527Y007222D01*
X011537Y007175D01*
X011555Y007130D01*
X011582Y007089D01*
X011617Y007055D01*
X011657Y007028D01*
X011702Y007009D01*
X011750Y007000D01*
X011774Y007000D01*
X011774Y007247D01*
X011774Y007247D01*
X012021Y007247D01*
X012021Y007222D01*
X012012Y007175D01*
X011993Y007130D01*
X011966Y007089D01*
X011932Y007055D01*
X014716Y007055D01*
X014716Y006957D02*
X010885Y006957D01*
X010899Y007055D02*
X011617Y007055D01*
X011546Y007154D02*
X010899Y007154D01*
X010899Y007252D02*
X011527Y007252D01*
X011550Y007351D02*
X010899Y007351D01*
X010633Y007449D02*
X011633Y007449D01*
X011774Y007247D02*
X011774Y007000D01*
X011798Y007000D01*
X011846Y007009D01*
X011891Y007028D01*
X011932Y007055D01*
X012003Y007154D02*
X014716Y007154D01*
X014716Y007163D02*
X014716Y006901D01*
X015072Y006901D01*
X015072Y006804D01*
X015169Y006804D01*
X015169Y006449D01*
X015430Y006449D01*
X015458Y006456D01*
X015483Y006470D01*
X015503Y006491D01*
X015518Y006516D01*
X015525Y006543D01*
X015525Y006804D01*
X015169Y006804D01*
X015169Y006901D01*
X015525Y006901D01*
X015525Y007163D01*
X015518Y007190D01*
X015503Y007215D01*
X015483Y007235D01*
X015458Y007250D01*
X015430Y007257D01*
X015169Y007257D01*
X015169Y006901D01*
X015072Y006901D01*
X015072Y007257D01*
X014811Y007257D01*
X014783Y007250D01*
X014758Y007235D01*
X014738Y007215D01*
X014724Y007190D01*
X014716Y007163D01*
X014791Y007252D02*
X012021Y007252D01*
X011774Y007154D02*
X011774Y007154D01*
X011774Y007055D02*
X011774Y007055D01*
X012051Y006678D02*
X012011Y006651D01*
X012051Y006678D02*
X012096Y006697D01*
X012144Y006706D01*
X012168Y006706D01*
X012192Y006706D01*
X012240Y006697D01*
X012285Y006678D01*
X012325Y006651D01*
X012360Y006617D01*
X012387Y006576D01*
X012405Y006531D01*
X012415Y006484D01*
X012415Y006459D01*
X012168Y006459D01*
X012168Y006212D01*
X012192Y006212D01*
X012240Y006222D01*
X012285Y006240D01*
X012325Y006267D01*
X012866Y006267D01*
X012866Y006366D02*
X012396Y006366D01*
X012405Y006387D02*
X012415Y006435D01*
X012415Y006459D01*
X012168Y006459D01*
X012168Y006459D01*
X012168Y006459D01*
X012168Y006212D01*
X012144Y006212D01*
X012096Y006222D01*
X012051Y006240D01*
X012011Y006267D01*
X011939Y006366D02*
X011815Y006366D01*
X011921Y006459D02*
X012168Y006459D01*
X012168Y006459D01*
X012168Y006459D01*
X012168Y006706D01*
X012168Y006459D01*
X011921Y006459D01*
X011921Y006464D02*
X010237Y006464D01*
X010280Y006563D02*
X011943Y006563D01*
X012168Y006563D02*
X012168Y006563D01*
X012168Y006661D02*
X012168Y006661D01*
X012310Y006661D02*
X013004Y006661D01*
X013004Y006563D02*
X012392Y006563D01*
X012415Y006464D02*
X012866Y006464D01*
X012405Y006387D02*
X012387Y006342D01*
X012360Y006302D01*
X012325Y006267D01*
X012168Y006267D02*
X012168Y006267D01*
X012168Y006366D02*
X012168Y006366D01*
X012168Y006464D02*
X012168Y006464D01*
X011302Y005972D02*
X011302Y005972D01*
X011302Y005873D02*
X011302Y005873D01*
X011302Y005775D02*
X011302Y005775D01*
X011302Y005721D02*
X011302Y005721D01*
X012509Y005282D02*
X012866Y005282D01*
X013004Y005184D02*
X012590Y005184D01*
X012612Y005085D02*
X013004Y005085D01*
X013059Y004987D02*
X012593Y004987D01*
X013496Y004987D02*
X013596Y004987D01*
X013596Y005085D02*
X013496Y005085D01*
X013496Y005184D02*
X013596Y005184D01*
X013596Y004790D02*
X013496Y004790D01*
X013496Y004691D02*
X013596Y004691D01*
X013596Y004593D02*
X013496Y004593D01*
X014033Y004987D02*
X014502Y004987D01*
X014583Y005085D02*
X014088Y005085D01*
X014088Y005184D02*
X014882Y005184D01*
X014897Y005174D02*
X014942Y005155D01*
X014990Y005145D01*
X015014Y005145D01*
X015014Y005392D01*
X014767Y005392D01*
X014767Y005368D01*
X014777Y005320D01*
X014796Y005275D01*
X014823Y005235D01*
X014857Y005201D01*
X014897Y005174D01*
X015014Y005184D02*
X015014Y005184D01*
X015014Y005145D02*
X015039Y005145D01*
X015086Y005155D01*
X015131Y005174D01*
X015172Y005201D01*
X015206Y005235D01*
X015233Y005275D01*
X015252Y005320D01*
X015261Y005368D01*
X015261Y005392D01*
X015014Y005392D01*
X015014Y005392D01*
X015014Y005392D01*
X014767Y005392D01*
X014767Y005417D01*
X014777Y005464D01*
X014796Y005509D01*
X014823Y005550D01*
X014857Y005584D01*
X014897Y005611D01*
X014942Y005630D01*
X014990Y005639D01*
X015014Y005639D01*
X015014Y005392D01*
X015014Y005145D01*
X015014Y005282D02*
X015014Y005282D01*
X015014Y005381D02*
X015014Y005381D01*
X015014Y005392D02*
X015014Y005392D01*
X015014Y005392D01*
X015014Y005639D01*
X015039Y005639D01*
X015086Y005630D01*
X015131Y005611D01*
X015172Y005584D01*
X015206Y005550D01*
X015233Y005509D01*
X015252Y005464D01*
X015261Y005417D01*
X015261Y005392D01*
X015014Y005392D01*
X015014Y005479D02*
X015014Y005479D01*
X015014Y005578D02*
X015014Y005578D01*
X014850Y005578D02*
X014226Y005578D01*
X014226Y005676D02*
X015582Y005676D01*
X015582Y005578D02*
X015178Y005578D01*
X015246Y005479D02*
X015582Y005479D01*
X015582Y005381D02*
X015261Y005381D01*
X015236Y005282D02*
X015582Y005282D01*
X015582Y005184D02*
X015146Y005184D01*
X014793Y005282D02*
X014226Y005282D01*
X014226Y005381D02*
X014767Y005381D01*
X014783Y005479D02*
X014226Y005479D01*
X014226Y005775D02*
X015582Y005775D01*
X015582Y005873D02*
X014226Y005873D01*
X014226Y005972D02*
X015582Y005972D01*
X015582Y006070D02*
X014226Y006070D01*
X014226Y006169D02*
X015582Y006169D01*
X015582Y006267D02*
X014226Y006267D01*
X014226Y006366D02*
X015582Y006366D01*
X015582Y006464D02*
X015472Y006464D01*
X015525Y006563D02*
X015582Y006563D01*
X015582Y006661D02*
X015525Y006661D01*
X015525Y006760D02*
X015582Y006760D01*
X015582Y006858D02*
X015169Y006858D01*
X015072Y006858D02*
X010682Y006858D01*
X012878Y007942D02*
X012978Y007942D01*
X012978Y008040D02*
X012878Y008040D01*
X012878Y008139D02*
X012978Y008139D01*
X012978Y008237D02*
X012878Y008237D01*
X013312Y008237D02*
X013803Y008237D01*
X014572Y008237D02*
X014776Y008237D01*
X014716Y008139D02*
X014612Y008139D01*
X014612Y007548D02*
X014716Y007548D01*
X014764Y007449D02*
X014584Y007449D01*
X015072Y007252D02*
X015169Y007252D01*
X015169Y007154D02*
X015072Y007154D01*
X015072Y007055D02*
X015169Y007055D01*
X015169Y006957D02*
X015072Y006957D01*
X015072Y006804D02*
X014716Y006804D01*
X014716Y006543D01*
X014724Y006516D01*
X014738Y006491D01*
X014758Y006470D01*
X014783Y006456D01*
X014811Y006449D01*
X015072Y006449D01*
X015072Y006804D01*
X015072Y006760D02*
X015169Y006760D01*
X015169Y006661D02*
X015072Y006661D01*
X015072Y006563D02*
X015169Y006563D01*
X015169Y006464D02*
X015072Y006464D01*
X014769Y006464D02*
X014226Y006464D01*
X014088Y006563D02*
X014716Y006563D01*
X014716Y006661D02*
X014088Y006661D01*
X014014Y006760D02*
X014716Y006760D01*
X015525Y006957D02*
X015582Y006957D01*
X015582Y007055D02*
X015525Y007055D01*
X015525Y007154D02*
X015582Y007154D01*
X015582Y007252D02*
X015450Y007252D01*
X015582Y003312D02*
X015267Y003312D01*
X015346Y003214D02*
X015582Y003214D01*
X015582Y003115D02*
X015367Y003115D01*
X015348Y003017D02*
X015582Y003017D01*
X015582Y002918D02*
X015273Y002918D01*
X015121Y002918D02*
X015121Y002918D01*
X015121Y003017D02*
X015121Y003017D01*
X015121Y003115D02*
X015121Y003115D01*
X015121Y003214D02*
X015121Y003214D01*
X015121Y003312D02*
X015121Y003312D01*
X015582Y002820D02*
X013167Y002820D01*
X013496Y003017D02*
X013596Y003017D01*
X013596Y003115D02*
X013496Y003115D01*
X013496Y003214D02*
X013596Y003214D01*
X014333Y002769D02*
X014333Y002522D01*
X014333Y002522D01*
X014333Y002522D01*
X014580Y002522D01*
X014580Y002547D01*
X014571Y002594D01*
X014552Y002639D01*
X014525Y002680D01*
X014491Y002714D01*
X014450Y002741D01*
X014405Y002760D01*
X014358Y002769D01*
X014333Y002769D01*
X014333Y002721D02*
X014333Y002721D01*
X014333Y002623D02*
X014333Y002623D01*
X014333Y002524D02*
X014333Y002524D01*
X014333Y002426D02*
X014333Y002426D01*
X014333Y002327D02*
X014333Y002327D01*
X014485Y002327D02*
X014772Y002327D01*
X014697Y002426D02*
X014560Y002426D01*
X014580Y002524D02*
X014677Y002524D01*
X014698Y002623D02*
X014559Y002623D01*
X014480Y002721D02*
X014777Y002721D01*
X015071Y002721D02*
X015582Y002721D01*
X015582Y002623D02*
X015149Y002623D01*
X015171Y002524D02*
X015582Y002524D01*
X015582Y002426D02*
X015151Y002426D01*
X015165Y002130D02*
X015582Y002130D01*
X015582Y002032D02*
X015416Y002032D01*
X015570Y001933D02*
X015582Y001933D01*
X008476Y002721D02*
X008379Y002721D01*
X008379Y002820D02*
X008476Y002820D01*
X008476Y002918D02*
X008379Y002918D01*
X008175Y001736D02*
X007966Y001736D01*
X007966Y001638D02*
X008175Y001638D01*
X008175Y001539D02*
X007966Y001539D01*
X007966Y001441D02*
X008175Y001441D01*
X008175Y001342D02*
X007966Y001342D01*
X007966Y001244D02*
X008175Y001244D01*
X008175Y001145D02*
X008075Y001145D01*
X008173Y001047D02*
X008175Y001047D01*
X005485Y000554D02*
X004491Y000554D01*
D34*
X004022Y013278D02*
X004008Y013280D01*
D35*
X008428Y003113D03*
X009428Y003113D03*
X010428Y003113D03*
X015121Y006853D03*
X015121Y007837D03*
D36*
X014188Y007837D01*
M02*
