G75*
G70*
%OFA0B0*%
%FSLAX24Y24*%
%IPPOS*%
%LPD*%
%AMOC8*
5,1,8,0,0,1.08239X$1,22.5*
%
%ADD10C,0.1000*%
%ADD11R,0.0886X0.0886*%
%ADD12C,0.0276*%
%ADD13C,0.0591*%
%ADD14C,0.0100*%
%ADD15R,0.0591X0.0591*%
%ADD16R,0.0315X0.0315*%
D10*
X002046Y011424D03*
D11*
X003046Y012424D03*
X001046Y012424D03*
X001046Y010424D03*
X003046Y010424D03*
D12*
X003014Y009412D03*
X004097Y010810D03*
X004097Y011597D03*
X005743Y011081D03*
X005731Y010140D03*
X006302Y010219D03*
X007483Y010416D03*
X007483Y009825D03*
X007877Y009432D03*
X007837Y007837D03*
X008231Y007247D03*
X008625Y007837D03*
X007247Y006066D03*
X006262Y003900D03*
X005672Y003900D03*
X005081Y004097D03*
X004884Y003506D03*
X004884Y002916D03*
X004884Y002325D03*
X005475Y002522D03*
X005475Y003113D03*
X003703Y002995D03*
X003703Y002207D03*
X003703Y001420D03*
X004884Y004884D03*
X004884Y005475D03*
X004884Y006262D03*
X004884Y007050D03*
X004884Y007640D03*
X005278Y008034D03*
X003703Y006735D03*
X003703Y005947D03*
X002817Y007109D03*
X003566Y007719D03*
X007680Y011026D03*
X008684Y011125D03*
X011026Y009235D03*
X011577Y008034D03*
X011774Y007247D03*
X012168Y006459D03*
X012365Y005081D03*
X010396Y005081D03*
X010396Y004491D03*
X009609Y004491D03*
X009609Y005081D03*
X009609Y005672D03*
X010396Y005672D03*
X012601Y009235D03*
X013743Y009195D03*
X013743Y009983D03*
X014294Y010593D03*
X014747Y009806D03*
X015081Y010534D03*
X013034Y011066D03*
X010849Y014117D03*
X010042Y014117D03*
X009314Y014215D03*
X008329Y015022D03*
X007345Y014825D03*
X007345Y014038D03*
X005377Y014825D03*
X004589Y014825D03*
X003802Y014629D03*
X003014Y014629D03*
X002522Y013979D03*
X013152Y002129D03*
X013743Y001932D03*
X014333Y002522D03*
X014924Y002522D03*
X014924Y002522D03*
X015121Y003113D03*
X015121Y003703D03*
X015121Y004294D03*
X014727Y004884D03*
X015014Y005392D03*
X009215Y001735D03*
X009215Y000947D03*
D13*
X002837Y003408D03*
D14*
X000486Y003302D02*
X000486Y001920D01*
X000521Y001956D01*
X000753Y002090D01*
X001011Y002159D01*
X001278Y002159D01*
X001536Y002090D01*
X001767Y001956D01*
X001956Y001767D01*
X002090Y001536D01*
X002159Y001278D01*
X002159Y001011D01*
X002090Y000753D01*
X001956Y000521D01*
X001920Y000486D01*
X004097Y000486D01*
X004097Y008821D01*
X015582Y008821D01*
X015582Y014148D01*
X015547Y014112D01*
X015315Y013978D01*
X015057Y013909D01*
X014790Y013909D01*
X014532Y013978D01*
X014301Y014112D01*
X014112Y014301D01*
X013978Y014532D01*
X013909Y014790D01*
X013909Y015057D01*
X013978Y015315D01*
X014112Y015547D01*
X014148Y015582D01*
X001920Y015582D01*
X001956Y015547D01*
X002090Y015315D01*
X002159Y015057D01*
X002159Y014790D01*
X002090Y014532D01*
X001956Y014301D01*
X001767Y014112D01*
X001536Y013978D01*
X001278Y013909D01*
X001011Y013909D01*
X000753Y013978D01*
X000521Y014112D01*
X000486Y014148D01*
X000486Y009038D01*
X000631Y009098D01*
X000831Y009098D01*
X001016Y009021D01*
X001157Y008880D01*
X001234Y008695D01*
X001234Y008495D01*
X001157Y008310D01*
X001016Y008169D01*
X000831Y008092D01*
X000631Y008092D01*
X000486Y008152D01*
X000486Y007719D01*
X000631Y007779D01*
X000831Y007779D01*
X001016Y007702D01*
X001157Y007561D01*
X001234Y007376D01*
X001234Y007176D01*
X001157Y006991D01*
X001016Y006850D01*
X000831Y006773D01*
X000631Y006773D01*
X000486Y006834D01*
X000486Y005522D01*
X000611Y005574D01*
X000811Y005574D01*
X000996Y005498D01*
X001137Y005356D01*
X001214Y005171D01*
X001214Y004971D01*
X001137Y004787D01*
X000996Y004645D01*
X000811Y004569D01*
X000611Y004569D01*
X000486Y004621D01*
X000486Y004203D01*
X000611Y004255D01*
X000811Y004255D01*
X000996Y004179D01*
X001137Y004037D01*
X001214Y003853D01*
X001214Y003653D01*
X001137Y003468D01*
X000996Y003326D01*
X000811Y003250D01*
X000611Y003250D01*
X000486Y003302D01*
X000486Y003214D02*
X002480Y003214D01*
X002494Y003179D02*
X002433Y003328D01*
X002433Y003488D01*
X002494Y003637D01*
X002608Y003751D01*
X002757Y003812D01*
X002918Y003812D01*
X003066Y003751D01*
X003180Y003637D01*
X003241Y003488D01*
X003241Y003328D01*
X003180Y003179D01*
X003066Y003065D01*
X002918Y003004D01*
X002757Y003004D01*
X002608Y003065D01*
X002494Y003179D01*
X002558Y003115D02*
X000486Y003115D01*
X000486Y003017D02*
X002726Y003017D01*
X002949Y003017D02*
X003456Y003017D01*
X003456Y003019D02*
X003456Y002995D01*
X003703Y002995D01*
X003703Y003241D01*
X003679Y003241D01*
X003631Y003232D01*
X003586Y003213D01*
X003546Y003186D01*
X003512Y003152D01*
X003485Y003112D01*
X003466Y003067D01*
X003456Y003019D01*
X003456Y002995D02*
X003456Y002970D01*
X003466Y002923D01*
X003485Y002878D01*
X003512Y002837D01*
X003546Y002803D01*
X003586Y002776D01*
X003631Y002757D01*
X003679Y002748D01*
X003703Y002748D01*
X003703Y002995D01*
X003703Y002995D01*
X003703Y002995D01*
X003703Y003241D01*
X003728Y003241D01*
X003775Y003232D01*
X003820Y003213D01*
X003861Y003186D01*
X003895Y003152D01*
X003922Y003112D01*
X003941Y003067D01*
X003950Y003019D01*
X003950Y002995D01*
X003703Y002995D01*
X003456Y002995D01*
X003468Y002918D02*
X000486Y002918D01*
X000486Y002820D02*
X003529Y002820D01*
X003703Y002820D02*
X003703Y002820D01*
X003703Y002748D02*
X003728Y002748D01*
X003775Y002757D01*
X003820Y002776D01*
X003861Y002803D01*
X003895Y002837D01*
X003922Y002878D01*
X003941Y002923D01*
X003950Y002970D01*
X003950Y002995D01*
X003703Y002995D01*
X003703Y002995D01*
X003703Y002995D01*
X003703Y002748D01*
X003703Y002918D02*
X003703Y002918D01*
X003703Y003017D02*
X003703Y003017D01*
X003703Y003115D02*
X003703Y003115D01*
X003703Y003214D02*
X003703Y003214D01*
X003587Y003214D02*
X003194Y003214D01*
X003235Y003312D02*
X004097Y003312D01*
X004097Y003214D02*
X003820Y003214D01*
X003920Y003115D02*
X004097Y003115D01*
X004097Y003017D02*
X003950Y003017D01*
X003939Y002918D02*
X004097Y002918D01*
X004097Y002820D02*
X003877Y002820D01*
X004097Y002721D02*
X000486Y002721D01*
X000486Y002623D02*
X004097Y002623D01*
X004097Y002524D02*
X000486Y002524D01*
X000486Y002426D02*
X003586Y002426D01*
X003546Y002399D01*
X003512Y002365D01*
X003485Y002324D01*
X003466Y002279D01*
X003456Y002232D01*
X003456Y002207D01*
X003456Y002183D01*
X003466Y002135D01*
X003485Y002090D01*
X003512Y002050D01*
X003546Y002016D01*
X003586Y001988D01*
X003631Y001970D01*
X003679Y001960D01*
X003703Y001960D01*
X003703Y002207D01*
X003456Y002207D01*
X003703Y002207D01*
X003703Y002207D01*
X003703Y002207D01*
X003703Y001960D01*
X003728Y001960D01*
X003775Y001970D01*
X003820Y001988D01*
X003861Y002016D01*
X003895Y002050D01*
X003922Y002090D01*
X003941Y002135D01*
X003950Y002183D01*
X003950Y002207D01*
X003703Y002207D01*
X003703Y002454D01*
X003679Y002454D01*
X003631Y002445D01*
X003586Y002426D01*
X003703Y002426D02*
X003703Y002426D01*
X003703Y002454D02*
X003728Y002454D01*
X003775Y002445D01*
X003820Y002426D01*
X003861Y002399D01*
X003895Y002365D01*
X003922Y002324D01*
X003941Y002279D01*
X003950Y002232D01*
X003950Y002207D01*
X003703Y002207D01*
X003703Y002207D01*
X003703Y002207D01*
X003703Y002454D01*
X003821Y002426D02*
X004097Y002426D01*
X004097Y002327D02*
X003920Y002327D01*
X003950Y002229D02*
X004097Y002229D01*
X004097Y002130D02*
X003939Y002130D01*
X003877Y002032D02*
X004097Y002032D01*
X004097Y001933D02*
X001790Y001933D01*
X001889Y001835D02*
X004097Y001835D01*
X004097Y001736D02*
X001974Y001736D01*
X002031Y001638D02*
X003585Y001638D01*
X003586Y001639D02*
X003546Y001612D01*
X003512Y001577D01*
X003485Y001537D01*
X003466Y001492D01*
X003456Y001444D01*
X003456Y001420D01*
X003703Y001420D01*
X003703Y001420D01*
X003703Y001667D01*
X003679Y001667D01*
X003631Y001657D01*
X003586Y001639D01*
X003703Y001638D02*
X003703Y001638D01*
X003703Y001667D02*
X003728Y001667D01*
X003775Y001657D01*
X003820Y001639D01*
X003861Y001612D01*
X003895Y001577D01*
X003922Y001537D01*
X003941Y001492D01*
X003950Y001444D01*
X003950Y001420D01*
X003703Y001420D01*
X003703Y001420D01*
X003456Y001420D01*
X003456Y001396D01*
X003466Y001348D01*
X003485Y001303D01*
X003512Y001262D01*
X003546Y001228D01*
X003586Y001201D01*
X003631Y001182D01*
X003679Y001173D01*
X003703Y001173D01*
X003703Y001420D01*
X003703Y001420D01*
X003703Y001667D01*
X003822Y001638D02*
X004097Y001638D01*
X004097Y001539D02*
X003921Y001539D01*
X003950Y001441D02*
X004097Y001441D01*
X004097Y001342D02*
X003938Y001342D01*
X003941Y001348D02*
X003950Y001396D01*
X003950Y001420D01*
X003703Y001420D01*
X003703Y001420D01*
X003703Y001173D01*
X003728Y001173D01*
X003775Y001182D01*
X003820Y001201D01*
X003861Y001228D01*
X003895Y001262D01*
X003922Y001303D01*
X003941Y001348D01*
X003876Y001244D02*
X004097Y001244D01*
X004097Y001145D02*
X002159Y001145D01*
X002159Y001047D02*
X004097Y001047D01*
X004097Y000948D02*
X002142Y000948D01*
X002116Y000850D02*
X004097Y000850D01*
X004097Y000751D02*
X002089Y000751D01*
X002032Y000653D02*
X004097Y000653D01*
X004097Y000554D02*
X001975Y000554D01*
X002159Y001244D02*
X003531Y001244D01*
X003468Y001342D02*
X002142Y001342D01*
X002115Y001441D02*
X003456Y001441D01*
X003486Y001539D02*
X002088Y001539D01*
X001637Y002032D02*
X003530Y002032D01*
X003468Y002130D02*
X001385Y002130D01*
X000903Y002130D02*
X000486Y002130D01*
X000486Y002032D02*
X000652Y002032D01*
X000498Y001933D02*
X000486Y001933D01*
X000486Y002229D02*
X003456Y002229D01*
X003486Y002327D02*
X000486Y002327D01*
X000961Y003312D02*
X002439Y003312D01*
X002433Y003411D02*
X001080Y003411D01*
X001154Y003509D02*
X002441Y003509D01*
X002482Y003608D02*
X001195Y003608D01*
X001214Y003706D02*
X002563Y003706D01*
X002738Y003805D02*
X001214Y003805D01*
X001193Y003903D02*
X004097Y003903D01*
X004097Y003805D02*
X002937Y003805D01*
X003111Y003706D02*
X004097Y003706D01*
X004097Y003608D02*
X003192Y003608D01*
X003233Y003509D02*
X004097Y003509D01*
X004097Y003411D02*
X003241Y003411D01*
X003116Y003115D02*
X003487Y003115D01*
X003703Y002327D02*
X003703Y002327D01*
X003703Y002229D02*
X003703Y002229D01*
X003703Y002130D02*
X003703Y002130D01*
X003703Y002032D02*
X003703Y002032D01*
X003703Y001539D02*
X003703Y001539D01*
X003703Y001441D02*
X003703Y001441D01*
X003703Y001342D02*
X003703Y001342D01*
X003703Y001244D02*
X003703Y001244D01*
X004491Y001244D02*
X005824Y001244D01*
X005847Y001253D02*
X005663Y001177D01*
X005521Y001035D01*
X005445Y000851D01*
X005445Y000651D01*
X005513Y000486D01*
X004491Y000486D01*
X004491Y008428D01*
X015582Y008428D01*
X015582Y001920D01*
X015547Y001956D01*
X015315Y002090D01*
X015057Y002159D01*
X014790Y002159D01*
X014532Y002090D01*
X014301Y001956D01*
X014112Y001767D01*
X013978Y001536D01*
X013909Y001278D01*
X013909Y001011D01*
X013978Y000753D01*
X014112Y000521D01*
X014148Y000486D01*
X012474Y000486D01*
X012543Y000651D01*
X012543Y000851D01*
X012466Y001035D01*
X012325Y001177D01*
X012140Y001253D01*
X011940Y001253D01*
X011755Y001177D01*
X011614Y001035D01*
X011537Y000851D01*
X011537Y000651D01*
X011605Y000486D01*
X011155Y000486D01*
X011224Y000651D01*
X011224Y000851D01*
X011147Y001035D01*
X011006Y001177D01*
X010821Y001253D01*
X010621Y001253D01*
X010436Y001177D01*
X010295Y001035D01*
X010218Y000851D01*
X010218Y000651D01*
X010287Y000486D01*
X008193Y000486D01*
X008261Y000651D01*
X008261Y000851D01*
X008185Y001035D01*
X008043Y001177D01*
X007858Y001253D01*
X007658Y001253D01*
X007474Y001177D01*
X007332Y001035D01*
X007256Y000851D01*
X007256Y000651D01*
X007324Y000486D01*
X006382Y000486D01*
X006450Y000651D01*
X006450Y000851D01*
X006374Y001035D01*
X006232Y001177D01*
X006047Y001253D01*
X005847Y001253D01*
X006071Y001244D02*
X007635Y001244D01*
X007442Y001145D02*
X006264Y001145D01*
X006362Y001047D02*
X007343Y001047D01*
X007296Y000948D02*
X006410Y000948D01*
X006450Y000850D02*
X007256Y000850D01*
X007256Y000751D02*
X006450Y000751D01*
X006450Y000653D02*
X007256Y000653D01*
X007296Y000554D02*
X006410Y000554D01*
X005631Y001145D02*
X004491Y001145D01*
X004491Y001047D02*
X005532Y001047D01*
X005485Y000948D02*
X004491Y000948D01*
X004491Y000850D02*
X005445Y000850D01*
X005445Y000751D02*
X004491Y000751D01*
X004491Y000653D02*
X005445Y000653D01*
X005485Y000554D02*
X004491Y000554D01*
X004491Y001342D02*
X013926Y001342D01*
X013909Y001244D02*
X012164Y001244D01*
X012356Y001145D02*
X013909Y001145D01*
X013909Y001047D02*
X012455Y001047D01*
X012502Y000948D02*
X013926Y000948D01*
X013952Y000850D02*
X012543Y000850D01*
X012543Y000751D02*
X013979Y000751D01*
X014036Y000653D02*
X012543Y000653D01*
X012503Y000554D02*
X014093Y000554D01*
X013953Y001441D02*
X004491Y001441D01*
X004491Y001539D02*
X009064Y001539D01*
X009058Y001543D02*
X009098Y001516D01*
X009143Y001497D01*
X009191Y001488D01*
X009215Y001488D01*
X009215Y001735D01*
X009215Y001982D01*
X009191Y001982D01*
X009143Y001972D01*
X009098Y001954D01*
X009058Y001927D01*
X009023Y001892D01*
X008996Y001852D01*
X008978Y001807D01*
X008968Y001759D01*
X008968Y001735D01*
X009215Y001735D01*
X009215Y001735D01*
X009215Y001735D01*
X009215Y001982D01*
X009239Y001982D01*
X009287Y001972D01*
X009332Y001954D01*
X009372Y001927D01*
X009407Y001892D01*
X009434Y001852D01*
X009452Y001807D01*
X009462Y001759D01*
X009462Y001735D01*
X009215Y001735D01*
X008968Y001735D01*
X008968Y001710D01*
X008978Y001663D01*
X008996Y001618D01*
X009023Y001577D01*
X009058Y001543D01*
X008988Y001638D02*
X004491Y001638D01*
X004491Y001736D02*
X008968Y001736D01*
X008989Y001835D02*
X004491Y001835D01*
X004491Y001933D02*
X009067Y001933D01*
X009215Y001933D02*
X009215Y001933D01*
X009215Y001835D02*
X009215Y001835D01*
X009215Y001736D02*
X009215Y001736D01*
X009215Y001735D02*
X009215Y001735D01*
X009215Y001735D01*
X009462Y001735D01*
X009462Y001710D01*
X009452Y001663D01*
X009434Y001618D01*
X009407Y001577D01*
X009372Y001543D01*
X009332Y001516D01*
X009287Y001497D01*
X009239Y001488D01*
X009215Y001488D01*
X009215Y001735D01*
X009215Y001638D02*
X009215Y001638D01*
X009215Y001539D02*
X009215Y001539D01*
X009366Y001539D02*
X013980Y001539D01*
X014037Y001638D02*
X009442Y001638D01*
X009462Y001736D02*
X013591Y001736D01*
X013585Y001740D02*
X013626Y001713D01*
X013671Y001694D01*
X013718Y001685D01*
X013743Y001685D01*
X013767Y001685D01*
X013815Y001694D01*
X013860Y001713D01*
X013900Y001740D01*
X013934Y001774D01*
X013961Y001815D01*
X013980Y001860D01*
X013990Y001907D01*
X013990Y001932D01*
X013990Y001956D01*
X013980Y002004D01*
X013961Y002049D01*
X013934Y002089D01*
X013900Y002123D01*
X013860Y002150D01*
X013815Y002169D01*
X013767Y002179D01*
X013743Y002179D01*
X013743Y001932D01*
X013743Y001932D01*
X013990Y001932D01*
X013743Y001932D01*
X013743Y001932D01*
X013743Y002179D01*
X013718Y002179D01*
X013671Y002169D01*
X013626Y002150D01*
X013585Y002123D01*
X013551Y002089D01*
X013524Y002049D01*
X013505Y002004D01*
X013496Y001956D01*
X013496Y001932D01*
X013743Y001932D01*
X013743Y001932D01*
X013743Y001685D01*
X013743Y001932D01*
X013743Y001932D01*
X013496Y001932D01*
X013496Y001907D01*
X013505Y001860D01*
X013524Y001815D01*
X013551Y001774D01*
X013585Y001740D01*
X013516Y001835D02*
X009441Y001835D01*
X009363Y001933D02*
X013000Y001933D01*
X012995Y001937D02*
X013035Y001910D01*
X013080Y001891D01*
X013128Y001882D01*
X013152Y001882D01*
X013152Y002128D01*
X013152Y002128D01*
X013152Y001882D01*
X013176Y001882D01*
X013224Y001891D01*
X013269Y001910D01*
X013309Y001937D01*
X013344Y001971D01*
X013371Y002012D01*
X013389Y002056D01*
X013399Y002104D01*
X013399Y002128D01*
X013152Y002128D01*
X012905Y002128D01*
X012905Y002104D01*
X012915Y002056D01*
X012933Y002012D01*
X012960Y001971D01*
X012995Y001937D01*
X012925Y002032D02*
X004491Y002032D01*
X004491Y002130D02*
X004732Y002130D01*
X004727Y002134D02*
X004767Y002107D01*
X004812Y002088D01*
X004860Y002079D01*
X004884Y002079D01*
X004884Y002325D01*
X004884Y002325D01*
X004638Y002325D01*
X004638Y002301D01*
X004647Y002253D01*
X004666Y002208D01*
X004693Y002168D01*
X004727Y002134D01*
X004657Y002229D02*
X004491Y002229D01*
X004491Y002327D02*
X004638Y002327D01*
X004638Y002325D02*
X004884Y002325D01*
X004884Y002325D01*
X004884Y002079D01*
X004909Y002079D01*
X004956Y002088D01*
X005001Y002107D01*
X005042Y002134D01*
X005076Y002168D01*
X005103Y002208D01*
X005122Y002253D01*
X005131Y002301D01*
X005131Y002325D01*
X004884Y002325D01*
X004884Y002572D01*
X004860Y002572D01*
X004812Y002563D01*
X004767Y002544D01*
X004727Y002517D01*
X004693Y002483D01*
X004666Y002442D01*
X004647Y002397D01*
X004638Y002350D01*
X004638Y002325D01*
X004659Y002426D02*
X004491Y002426D01*
X004491Y002524D02*
X004737Y002524D01*
X004884Y002524D02*
X004884Y002524D01*
X004884Y002572D02*
X004884Y002325D01*
X004884Y002325D01*
X004884Y002325D01*
X005131Y002325D01*
X005131Y002350D01*
X005122Y002397D01*
X005103Y002442D01*
X005076Y002483D01*
X005042Y002517D01*
X005001Y002544D01*
X004956Y002563D01*
X004909Y002572D01*
X004884Y002572D01*
X004884Y002669D02*
X004909Y002669D01*
X004956Y002679D01*
X005001Y002697D01*
X005042Y002724D01*
X005076Y002759D01*
X005103Y002799D01*
X005122Y002844D01*
X005131Y002892D01*
X005131Y002916D01*
X005131Y002940D01*
X005122Y002988D01*
X005103Y003033D01*
X005076Y003073D01*
X005042Y003108D01*
X005001Y003135D01*
X004956Y003153D01*
X004909Y003163D01*
X004884Y003163D01*
X004860Y003163D01*
X004812Y003153D01*
X004767Y003135D01*
X004727Y003108D01*
X004693Y003073D01*
X004666Y003033D01*
X004647Y002988D01*
X004638Y002940D01*
X004638Y002916D01*
X004884Y002916D01*
X004884Y002916D01*
X004638Y002916D01*
X004638Y002892D01*
X004647Y002844D01*
X004666Y002799D01*
X004693Y002759D01*
X004727Y002724D01*
X004767Y002697D01*
X004812Y002679D01*
X004860Y002669D01*
X004884Y002669D01*
X004884Y002916D01*
X004884Y003163D01*
X004884Y002916D01*
X004884Y002916D01*
X004884Y002916D01*
X004884Y002669D01*
X004884Y002721D02*
X004884Y002721D01*
X004884Y002820D02*
X004884Y002820D01*
X004884Y002916D02*
X004884Y002916D01*
X005131Y002916D01*
X004884Y002916D01*
X004884Y002918D02*
X004884Y002918D01*
X004884Y003017D02*
X004884Y003017D01*
X004884Y003115D02*
X004884Y003115D01*
X004884Y003260D02*
X004909Y003260D01*
X004956Y003269D01*
X005001Y003288D01*
X005042Y003315D01*
X005076Y003349D01*
X005103Y003390D01*
X005122Y003434D01*
X005131Y003482D01*
X005131Y003506D01*
X004884Y003506D01*
X004884Y003506D01*
X004884Y003260D01*
X004860Y003260D01*
X004812Y003269D01*
X004767Y003288D01*
X004727Y003315D01*
X004693Y003349D01*
X004666Y003390D01*
X004647Y003434D01*
X004638Y003482D01*
X004638Y003506D01*
X004884Y003506D01*
X004884Y003506D01*
X004884Y003260D01*
X004884Y003312D02*
X004884Y003312D01*
X004884Y003411D02*
X004884Y003411D01*
X004884Y003506D02*
X004884Y003506D01*
X004638Y003506D01*
X004638Y003531D01*
X004647Y003578D01*
X004666Y003623D01*
X004693Y003664D01*
X004727Y003698D01*
X004767Y003725D01*
X004812Y003744D01*
X004860Y003753D01*
X004884Y003753D01*
X004884Y003506D01*
X004884Y003506D01*
X005131Y003506D01*
X005131Y003531D01*
X005122Y003578D01*
X005103Y003623D01*
X005076Y003664D01*
X005042Y003698D01*
X005001Y003725D01*
X004956Y003744D01*
X004909Y003753D01*
X004884Y003753D01*
X004884Y003506D01*
X004884Y003509D02*
X004884Y003509D01*
X004884Y003608D02*
X004884Y003608D01*
X004884Y003706D02*
X004884Y003706D01*
X004739Y003706D02*
X004491Y003706D01*
X004491Y003608D02*
X004659Y003608D01*
X004638Y003509D02*
X004491Y003509D01*
X004491Y003411D02*
X004657Y003411D01*
X004731Y003312D02*
X004491Y003312D01*
X004491Y003214D02*
X005250Y003214D01*
X005256Y003230D02*
X005238Y003185D01*
X005228Y003137D01*
X005228Y003113D01*
X005475Y003113D01*
X005475Y003113D01*
X005475Y003360D01*
X005499Y003360D01*
X005547Y003350D01*
X005592Y003332D01*
X005632Y003304D01*
X005667Y003270D01*
X005694Y003230D01*
X005712Y003185D01*
X005722Y003137D01*
X005722Y003113D01*
X005475Y003113D01*
X005475Y003360D01*
X005451Y003360D01*
X005403Y003350D01*
X005358Y003332D01*
X005318Y003304D01*
X005283Y003270D01*
X005256Y003230D01*
X005329Y003312D02*
X005038Y003312D01*
X005112Y003411D02*
X008023Y003411D01*
X008023Y003422D02*
X008023Y003161D01*
X008379Y003161D01*
X008379Y003064D01*
X008476Y003064D01*
X008476Y002708D01*
X008737Y002708D01*
X008765Y002716D01*
X008790Y002730D01*
X008810Y002751D01*
X008825Y002775D01*
X008832Y002803D01*
X008832Y003064D01*
X008476Y003064D01*
X008476Y003161D01*
X008832Y003161D01*
X008832Y003422D01*
X008825Y003450D01*
X008810Y003475D01*
X008790Y003495D01*
X008765Y003510D01*
X008737Y003517D01*
X008476Y003517D01*
X008476Y003161D01*
X008379Y003161D01*
X008379Y003517D01*
X008118Y003517D01*
X008090Y003510D01*
X008065Y003495D01*
X008045Y003475D01*
X008031Y003450D01*
X008023Y003422D01*
X008089Y003509D02*
X005131Y003509D01*
X005110Y003608D02*
X014893Y003608D01*
X014902Y003586D02*
X014929Y003546D01*
X014963Y003512D01*
X015004Y003485D01*
X015049Y003466D01*
X015096Y003456D01*
X015121Y003456D01*
X015145Y003456D01*
X015193Y003466D01*
X015238Y003485D01*
X015278Y003512D01*
X015312Y003546D01*
X015339Y003586D01*
X015358Y003631D01*
X015367Y003679D01*
X015367Y003703D01*
X015121Y003703D01*
X015121Y003703D01*
X015121Y003456D01*
X015121Y003703D01*
X015121Y003703D01*
X015367Y003703D01*
X015367Y003728D01*
X015358Y003775D01*
X015339Y003820D01*
X015312Y003861D01*
X015278Y003895D01*
X015238Y003922D01*
X015193Y003941D01*
X015145Y003950D01*
X015121Y003950D01*
X015121Y003703D01*
X015121Y003703D01*
X014874Y003703D01*
X014874Y003679D01*
X014883Y003631D01*
X014902Y003586D01*
X014967Y003509D02*
X010776Y003509D01*
X010768Y003517D02*
X010087Y003517D01*
X010023Y003453D01*
X010023Y002772D01*
X010087Y002708D01*
X010768Y002708D01*
X010832Y002772D01*
X010832Y003453D01*
X010768Y003517D01*
X010832Y003411D02*
X015582Y003411D01*
X015582Y003509D02*
X015274Y003509D01*
X015348Y003608D02*
X015582Y003608D01*
X015582Y003706D02*
X015367Y003706D01*
X015346Y003805D02*
X015582Y003805D01*
X015582Y003903D02*
X015266Y003903D01*
X015121Y003903D02*
X015121Y003903D01*
X015121Y003950D02*
X015096Y003950D01*
X015049Y003941D01*
X015004Y003922D01*
X014963Y003895D01*
X014929Y003861D01*
X014902Y003820D01*
X014883Y003775D01*
X014874Y003728D01*
X014874Y003703D01*
X015121Y003703D01*
X015121Y003703D01*
X015121Y003950D01*
X015121Y004047D02*
X015096Y004047D01*
X015049Y004056D01*
X015004Y004075D01*
X014963Y004102D01*
X014929Y004136D01*
X014902Y004177D01*
X014883Y004222D01*
X014874Y004270D01*
X014874Y004294D01*
X015121Y004294D01*
X015367Y004294D01*
X015367Y004318D01*
X015358Y004366D01*
X015339Y004411D01*
X015312Y004451D01*
X015278Y004486D01*
X015238Y004513D01*
X015193Y004531D01*
X015145Y004541D01*
X015121Y004541D01*
X015121Y004294D01*
X015121Y004294D01*
X015367Y004294D01*
X015367Y004270D01*
X015358Y004222D01*
X015339Y004177D01*
X015312Y004136D01*
X015278Y004102D01*
X015238Y004075D01*
X015193Y004056D01*
X015145Y004047D01*
X015121Y004047D01*
X015121Y004294D01*
X015121Y004294D01*
X015121Y004294D01*
X015121Y004541D01*
X015096Y004541D01*
X015049Y004531D01*
X015004Y004513D01*
X014963Y004486D01*
X014929Y004451D01*
X014902Y004411D01*
X014883Y004366D01*
X014874Y004318D01*
X014874Y004294D01*
X015121Y004294D01*
X015121Y004047D01*
X015121Y004100D02*
X015121Y004100D01*
X015121Y004199D02*
X015121Y004199D01*
X015121Y004294D02*
X015121Y004294D01*
X015121Y004297D02*
X015121Y004297D01*
X015121Y004396D02*
X015121Y004396D01*
X015121Y004494D02*
X015121Y004494D01*
X015265Y004494D02*
X015582Y004494D01*
X015582Y004396D02*
X015346Y004396D01*
X015367Y004297D02*
X015582Y004297D01*
X015582Y004199D02*
X015348Y004199D01*
X015275Y004100D02*
X015582Y004100D01*
X015582Y004002D02*
X006488Y004002D01*
X006481Y004017D02*
X006500Y003972D01*
X006509Y003924D01*
X006509Y003900D01*
X006262Y003900D01*
X006016Y003900D01*
X006016Y003876D01*
X006025Y003828D01*
X006044Y003783D01*
X006071Y003743D01*
X006105Y003708D01*
X006145Y003681D01*
X006190Y003663D01*
X006238Y003653D01*
X006262Y003653D01*
X006262Y003900D01*
X006262Y003900D01*
X006262Y003900D01*
X006016Y003900D01*
X006016Y003924D01*
X006025Y003972D01*
X006044Y004017D01*
X006071Y004058D01*
X006105Y004092D01*
X006145Y004119D01*
X006190Y004138D01*
X006238Y004147D01*
X006262Y004147D01*
X006262Y003900D01*
X006262Y003900D01*
X006262Y003653D01*
X006287Y003653D01*
X006334Y003663D01*
X006379Y003681D01*
X006420Y003708D01*
X006454Y003743D01*
X006481Y003783D01*
X006500Y003828D01*
X006509Y003876D01*
X006509Y003900D01*
X006262Y003900D01*
X006262Y003900D01*
X006262Y004147D01*
X006287Y004147D01*
X006334Y004138D01*
X006379Y004119D01*
X006420Y004092D01*
X006454Y004058D01*
X006481Y004017D01*
X006408Y004100D02*
X014966Y004100D01*
X014893Y004199D02*
X005306Y004199D01*
X005300Y004214D02*
X005319Y004169D01*
X005328Y004121D01*
X005328Y004097D01*
X005081Y004097D01*
X004834Y004097D01*
X004834Y004073D01*
X004844Y004025D01*
X004863Y003980D01*
X004890Y003940D01*
X004924Y003905D01*
X004964Y003878D01*
X005009Y003860D01*
X005057Y003850D01*
X005081Y003850D01*
X005081Y004097D01*
X005081Y004097D01*
X004834Y004097D01*
X004834Y004121D01*
X004844Y004169D01*
X004863Y004214D01*
X004890Y004254D01*
X004924Y004289D01*
X004964Y004316D01*
X005009Y004334D01*
X005057Y004344D01*
X005081Y004344D01*
X005081Y004097D01*
X005081Y004097D01*
X005081Y004097D01*
X005081Y003850D01*
X005106Y003850D01*
X005153Y003860D01*
X005198Y003878D01*
X005239Y003905D01*
X005273Y003940D01*
X005300Y003980D01*
X005319Y004025D01*
X005328Y004073D01*
X005328Y004097D01*
X005081Y004097D01*
X005081Y004344D01*
X005106Y004344D01*
X005153Y004334D01*
X005198Y004316D01*
X005239Y004289D01*
X005273Y004254D01*
X005300Y004214D01*
X005226Y004297D02*
X009454Y004297D01*
X009451Y004299D02*
X009492Y004272D01*
X009537Y004253D01*
X009585Y004244D01*
X009609Y004244D01*
X009633Y004244D01*
X009681Y004253D01*
X009726Y004272D01*
X009766Y004299D01*
X009801Y004333D01*
X009828Y004374D01*
X009846Y004419D01*
X009856Y004466D01*
X009856Y004491D01*
X009856Y004515D01*
X009846Y004563D01*
X009828Y004608D01*
X009801Y004648D01*
X009766Y004682D01*
X009726Y004709D01*
X009681Y004728D01*
X009633Y004738D01*
X009609Y004738D01*
X009609Y004491D01*
X009609Y004491D01*
X009856Y004491D01*
X009609Y004491D01*
X009609Y004491D01*
X009609Y004738D01*
X009585Y004738D01*
X009537Y004728D01*
X009492Y004709D01*
X009451Y004682D01*
X009417Y004648D01*
X009390Y004608D01*
X009371Y004563D01*
X009362Y004515D01*
X009362Y004491D01*
X009609Y004491D01*
X009609Y004491D01*
X009609Y004244D01*
X009609Y004491D01*
X009609Y004491D01*
X009362Y004491D01*
X009362Y004466D01*
X009371Y004419D01*
X009390Y004374D01*
X009417Y004333D01*
X009451Y004299D01*
X009381Y004396D02*
X004491Y004396D01*
X004491Y004494D02*
X009362Y004494D01*
X009384Y004593D02*
X004491Y004593D01*
X004491Y004691D02*
X004730Y004691D01*
X004727Y004693D02*
X004767Y004666D01*
X004812Y004647D01*
X004860Y004638D01*
X004884Y004638D01*
X004884Y004884D01*
X004884Y004884D01*
X004638Y004884D01*
X004638Y004860D01*
X004647Y004812D01*
X004666Y004767D01*
X004693Y004727D01*
X004727Y004693D01*
X004657Y004790D02*
X004491Y004790D01*
X004491Y004888D02*
X004638Y004888D01*
X004638Y004884D02*
X004884Y004884D01*
X004884Y004884D01*
X004884Y004638D01*
X004909Y004638D01*
X004956Y004647D01*
X005001Y004666D01*
X005042Y004693D01*
X005076Y004727D01*
X005103Y004767D01*
X005122Y004812D01*
X005131Y004860D01*
X005131Y004884D01*
X004884Y004884D01*
X004884Y004884D01*
X004884Y005131D01*
X004860Y005131D01*
X004812Y005122D01*
X004767Y005103D01*
X004727Y005076D01*
X004693Y005042D01*
X004666Y005001D01*
X004647Y004956D01*
X004638Y004909D01*
X004638Y004884D01*
X004660Y004987D02*
X004491Y004987D01*
X004491Y005085D02*
X004740Y005085D01*
X004884Y005085D02*
X004884Y005085D01*
X004884Y005131D02*
X004909Y005131D01*
X004956Y005122D01*
X005001Y005103D01*
X005042Y005076D01*
X005076Y005042D01*
X005103Y005001D01*
X005122Y004956D01*
X005131Y004909D01*
X005131Y004884D01*
X004884Y004884D01*
X004884Y004884D01*
X004884Y005131D01*
X004884Y005228D02*
X004909Y005228D01*
X004956Y005238D01*
X005001Y005256D01*
X005042Y005283D01*
X005076Y005318D01*
X005103Y005358D01*
X005122Y005403D01*
X005131Y005451D01*
X005131Y005475D01*
X005131Y005499D01*
X005122Y005547D01*
X005103Y005592D01*
X005076Y005632D01*
X005042Y005667D01*
X005001Y005694D01*
X004956Y005712D01*
X004909Y005722D01*
X004884Y005722D01*
X004860Y005722D01*
X004812Y005712D01*
X004767Y005694D01*
X004727Y005667D01*
X004693Y005632D01*
X004666Y005592D01*
X004647Y005547D01*
X004638Y005499D01*
X004638Y005475D01*
X004884Y005475D01*
X004884Y005475D01*
X004638Y005475D01*
X004638Y005451D01*
X004647Y005403D01*
X004666Y005358D01*
X004693Y005318D01*
X004727Y005283D01*
X004767Y005256D01*
X004812Y005238D01*
X004860Y005228D01*
X004884Y005228D01*
X004884Y005475D01*
X004884Y005722D01*
X004884Y005475D01*
X004884Y005475D01*
X004884Y005475D01*
X004884Y005228D01*
X004884Y005282D02*
X004884Y005282D01*
X004884Y005381D02*
X004884Y005381D01*
X004884Y005475D02*
X004884Y005475D01*
X005131Y005475D01*
X004884Y005475D01*
X004884Y005479D02*
X004884Y005479D01*
X004884Y005578D02*
X004884Y005578D01*
X004884Y005676D02*
X004884Y005676D01*
X004741Y005676D02*
X004491Y005676D01*
X004491Y005578D02*
X004660Y005578D01*
X004638Y005479D02*
X004491Y005479D01*
X004491Y005381D02*
X004656Y005381D01*
X004729Y005282D02*
X004491Y005282D01*
X004491Y005184D02*
X009384Y005184D01*
X009390Y005198D02*
X009371Y005153D01*
X009362Y005106D01*
X009362Y005081D01*
X009362Y005057D01*
X009371Y005009D01*
X009390Y004964D01*
X009417Y004924D01*
X009451Y004890D01*
X009492Y004863D01*
X009537Y004844D01*
X009585Y004834D01*
X009609Y004834D01*
X009633Y004834D01*
X009681Y004844D01*
X009726Y004863D01*
X009766Y004890D01*
X009801Y004924D01*
X009828Y004964D01*
X009846Y005009D01*
X009856Y005057D01*
X009856Y005081D01*
X009609Y005081D01*
X009609Y004834D01*
X009609Y005081D01*
X009609Y005081D01*
X009609Y005081D01*
X009856Y005081D01*
X009856Y005106D01*
X009846Y005153D01*
X009828Y005198D01*
X009801Y005239D01*
X009766Y005273D01*
X009726Y005300D01*
X009681Y005319D01*
X009633Y005328D01*
X009609Y005328D01*
X009609Y005081D01*
X009362Y005081D01*
X009609Y005081D01*
X009609Y005081D01*
X009609Y005081D01*
X009609Y005328D01*
X009585Y005328D01*
X009537Y005319D01*
X009492Y005300D01*
X009451Y005273D01*
X009417Y005239D01*
X009390Y005198D01*
X009465Y005282D02*
X005040Y005282D01*
X005112Y005381D02*
X014767Y005381D01*
X014767Y005392D02*
X014767Y005368D01*
X014777Y005320D01*
X014796Y005275D01*
X014823Y005235D01*
X014857Y005201D01*
X014897Y005174D01*
X014942Y005155D01*
X014990Y005145D01*
X015014Y005145D01*
X015014Y005392D01*
X014767Y005392D01*
X015014Y005392D01*
X015014Y005392D01*
X015014Y005392D01*
X015014Y005145D01*
X015039Y005145D01*
X015086Y005155D01*
X015131Y005174D01*
X015172Y005201D01*
X015206Y005235D01*
X015233Y005275D01*
X015252Y005320D01*
X015261Y005368D01*
X015261Y005392D01*
X015014Y005392D01*
X015014Y005639D01*
X014990Y005639D01*
X014942Y005630D01*
X014897Y005611D01*
X014857Y005584D01*
X014823Y005550D01*
X014796Y005509D01*
X014777Y005464D01*
X014767Y005417D01*
X014767Y005392D01*
X014783Y005479D02*
X010552Y005479D01*
X010554Y005480D02*
X010588Y005514D01*
X010615Y005555D01*
X010634Y005600D01*
X010643Y005647D01*
X010643Y005672D01*
X010643Y005696D01*
X010634Y005744D01*
X010615Y005789D01*
X010588Y005829D01*
X010554Y005864D01*
X010513Y005891D01*
X010468Y005909D01*
X010421Y005919D01*
X010396Y005919D01*
X010372Y005919D01*
X010324Y005909D01*
X010279Y005891D01*
X010239Y005864D01*
X010204Y005829D01*
X010177Y005789D01*
X010159Y005744D01*
X010149Y005696D01*
X010149Y005672D01*
X010396Y005672D01*
X010396Y005672D01*
X010396Y005919D01*
X010396Y005672D01*
X010396Y005672D01*
X010149Y005672D01*
X010149Y005647D01*
X010159Y005600D01*
X010177Y005555D01*
X010204Y005514D01*
X010239Y005480D01*
X010279Y005453D01*
X010324Y005434D01*
X010372Y005425D01*
X010396Y005425D01*
X010396Y005672D01*
X010396Y005672D01*
X010643Y005672D01*
X010396Y005672D01*
X010396Y005672D01*
X010396Y005425D01*
X010421Y005425D01*
X010468Y005434D01*
X010513Y005453D01*
X010554Y005480D01*
X010624Y005578D02*
X014850Y005578D01*
X015014Y005578D02*
X015014Y005578D01*
X015014Y005639D02*
X015014Y005392D01*
X015014Y005392D01*
X015014Y005392D01*
X015261Y005392D01*
X015261Y005417D01*
X015252Y005464D01*
X015233Y005509D01*
X015206Y005550D01*
X015172Y005584D01*
X015131Y005611D01*
X015086Y005630D01*
X015039Y005639D01*
X015014Y005639D01*
X015014Y005479D02*
X015014Y005479D01*
X015014Y005381D02*
X015014Y005381D01*
X015014Y005282D02*
X015014Y005282D01*
X015014Y005184D02*
X015014Y005184D01*
X014882Y005184D02*
X012590Y005184D01*
X012583Y005198D02*
X012556Y005239D01*
X012522Y005273D01*
X012482Y005300D01*
X012437Y005319D01*
X012389Y005328D01*
X012365Y005328D01*
X012365Y005081D01*
X012365Y005081D01*
X012612Y005081D01*
X012612Y005057D01*
X012602Y005009D01*
X012583Y004964D01*
X012556Y004924D01*
X012522Y004890D01*
X012482Y004863D01*
X012437Y004844D01*
X012389Y004834D01*
X012365Y004834D01*
X012365Y005081D01*
X012365Y005081D01*
X012612Y005081D01*
X012612Y005106D01*
X012602Y005153D01*
X012583Y005198D01*
X012509Y005282D02*
X014793Y005282D01*
X014751Y005131D02*
X014727Y005131D01*
X014727Y004884D01*
X014727Y004638D01*
X014751Y004638D01*
X014799Y004647D01*
X014844Y004666D01*
X014884Y004693D01*
X014919Y004727D01*
X014946Y004767D01*
X014964Y004812D01*
X014974Y004860D01*
X014974Y004884D01*
X014727Y004884D01*
X014727Y004884D01*
X014727Y004638D01*
X014703Y004638D01*
X014655Y004647D01*
X014610Y004666D01*
X014570Y004693D01*
X014535Y004727D01*
X014508Y004767D01*
X014490Y004812D01*
X014480Y004860D01*
X014480Y004884D01*
X014727Y004884D01*
X014727Y004884D01*
X014727Y004884D01*
X014974Y004884D01*
X014974Y004909D01*
X014964Y004956D01*
X014946Y005001D01*
X014919Y005042D01*
X014884Y005076D01*
X014844Y005103D01*
X014799Y005122D01*
X014751Y005131D01*
X014727Y005131D02*
X014703Y005131D01*
X014655Y005122D01*
X014610Y005103D01*
X014570Y005076D01*
X014535Y005042D01*
X014508Y005001D01*
X014490Y004956D01*
X014480Y004909D01*
X014480Y004884D01*
X014727Y004884D01*
X014727Y004884D01*
X014727Y005131D01*
X014727Y005085D02*
X014727Y005085D01*
X014727Y004987D02*
X014727Y004987D01*
X014727Y004888D02*
X014727Y004888D01*
X014727Y004790D02*
X014727Y004790D01*
X014727Y004691D02*
X014727Y004691D01*
X014882Y004691D02*
X015582Y004691D01*
X015582Y004593D02*
X010621Y004593D01*
X010615Y004608D02*
X010588Y004648D01*
X010554Y004682D01*
X010513Y004709D01*
X010468Y004728D01*
X010421Y004738D01*
X010396Y004738D01*
X010372Y004738D01*
X010324Y004728D01*
X010279Y004709D01*
X010239Y004682D01*
X010204Y004648D01*
X010177Y004608D01*
X010159Y004563D01*
X010149Y004515D01*
X010149Y004491D01*
X010396Y004491D01*
X010396Y004738D01*
X010396Y004491D01*
X010396Y004491D01*
X010396Y004491D01*
X010149Y004491D01*
X010149Y004466D01*
X010159Y004419D01*
X010177Y004374D01*
X010204Y004333D01*
X010239Y004299D01*
X010279Y004272D01*
X010324Y004253D01*
X010372Y004244D01*
X010396Y004244D01*
X010396Y004491D01*
X010643Y004491D01*
X010643Y004515D01*
X010634Y004563D01*
X010615Y004608D01*
X010541Y004691D02*
X014572Y004691D01*
X014499Y004790D02*
X005112Y004790D01*
X005131Y004888D02*
X009454Y004888D01*
X009381Y004987D02*
X005109Y004987D01*
X005029Y005085D02*
X009362Y005085D01*
X009609Y005085D02*
X009609Y005085D01*
X009609Y004987D02*
X009609Y004987D01*
X009609Y004888D02*
X009609Y004888D01*
X009764Y004888D02*
X010241Y004888D01*
X010239Y004890D02*
X010279Y004863D01*
X010324Y004844D01*
X010372Y004834D01*
X010396Y004834D01*
X010396Y005081D01*
X010396Y005081D01*
X010149Y005081D01*
X010149Y005057D01*
X010159Y005009D01*
X010177Y004964D01*
X010204Y004924D01*
X010239Y004890D01*
X010168Y004987D02*
X009837Y004987D01*
X009856Y005085D02*
X010149Y005085D01*
X010149Y005081D02*
X010396Y005081D01*
X010396Y005081D01*
X010396Y004834D01*
X010421Y004834D01*
X010468Y004844D01*
X010513Y004863D01*
X010554Y004890D01*
X010588Y004924D01*
X010615Y004964D01*
X010634Y005009D01*
X010643Y005057D01*
X010643Y005081D01*
X010396Y005081D01*
X010396Y005081D01*
X010396Y005328D01*
X010372Y005328D01*
X010324Y005319D01*
X010279Y005300D01*
X010239Y005273D01*
X010204Y005239D01*
X010177Y005198D01*
X010159Y005153D01*
X010149Y005106D01*
X010149Y005081D01*
X010171Y005184D02*
X009834Y005184D01*
X009753Y005282D02*
X010252Y005282D01*
X010396Y005282D02*
X010396Y005282D01*
X010396Y005328D02*
X010396Y005081D01*
X010396Y005081D01*
X010643Y005081D01*
X010643Y005106D01*
X010634Y005153D01*
X010615Y005198D01*
X010588Y005239D01*
X010554Y005273D01*
X010513Y005300D01*
X010468Y005319D01*
X010421Y005328D01*
X010396Y005328D01*
X010396Y005184D02*
X010396Y005184D01*
X010396Y005085D02*
X010396Y005085D01*
X010396Y004987D02*
X010396Y004987D01*
X010396Y004888D02*
X010396Y004888D01*
X010551Y004888D02*
X012210Y004888D01*
X012207Y004890D02*
X012248Y004863D01*
X012293Y004844D01*
X012340Y004834D01*
X012365Y004834D01*
X012365Y005081D01*
X012118Y005081D01*
X012118Y005057D01*
X012127Y005009D01*
X012146Y004964D01*
X012173Y004924D01*
X012207Y004890D01*
X012137Y004987D02*
X010624Y004987D01*
X010643Y005085D02*
X012118Y005085D01*
X012118Y005081D02*
X012365Y005081D01*
X012365Y005081D01*
X012365Y005081D01*
X012365Y005328D01*
X012340Y005328D01*
X012293Y005319D01*
X012248Y005300D01*
X012207Y005273D01*
X012173Y005239D01*
X012146Y005198D01*
X012127Y005153D01*
X012118Y005106D01*
X012118Y005081D01*
X012140Y005184D02*
X010621Y005184D01*
X010540Y005282D02*
X012221Y005282D01*
X012365Y005282D02*
X012365Y005282D01*
X012365Y005184D02*
X012365Y005184D01*
X012365Y005085D02*
X012365Y005085D01*
X012365Y004987D02*
X012365Y004987D01*
X012365Y004888D02*
X012365Y004888D01*
X012520Y004888D02*
X014480Y004888D01*
X014502Y004987D02*
X012593Y004987D01*
X012612Y005085D02*
X014583Y005085D01*
X014871Y005085D02*
X015582Y005085D01*
X015582Y004987D02*
X014952Y004987D01*
X014974Y004888D02*
X015582Y004888D01*
X015582Y004790D02*
X014955Y004790D01*
X014976Y004494D02*
X010643Y004494D01*
X010643Y004491D02*
X010396Y004491D01*
X010396Y004491D01*
X010396Y004491D01*
X010396Y004244D01*
X010421Y004244D01*
X010468Y004253D01*
X010513Y004272D01*
X010554Y004299D01*
X010588Y004333D01*
X010615Y004374D01*
X010634Y004419D01*
X010643Y004466D01*
X010643Y004491D01*
X010624Y004396D02*
X014896Y004396D01*
X014874Y004297D02*
X010551Y004297D01*
X010396Y004297D02*
X010396Y004297D01*
X010396Y004396D02*
X010396Y004396D01*
X010396Y004494D02*
X010396Y004494D01*
X010396Y004593D02*
X010396Y004593D01*
X010396Y004691D02*
X010396Y004691D01*
X010252Y004691D02*
X009753Y004691D01*
X009834Y004593D02*
X010171Y004593D01*
X010149Y004494D02*
X009856Y004494D01*
X009837Y004396D02*
X010168Y004396D01*
X010242Y004297D02*
X009763Y004297D01*
X009609Y004297D02*
X009609Y004297D01*
X009609Y004396D02*
X009609Y004396D01*
X009609Y004494D02*
X009609Y004494D01*
X009609Y004593D02*
X009609Y004593D01*
X009609Y004691D02*
X009609Y004691D01*
X009464Y004691D02*
X005039Y004691D01*
X004884Y004691D02*
X004884Y004691D01*
X004884Y004790D02*
X004884Y004790D01*
X004884Y004888D02*
X004884Y004888D01*
X004884Y004987D02*
X004884Y004987D01*
X005131Y005479D02*
X009453Y005479D01*
X009451Y005480D02*
X009492Y005453D01*
X009537Y005434D01*
X009585Y005425D01*
X009609Y005425D01*
X009633Y005425D01*
X009681Y005434D01*
X009726Y005453D01*
X009766Y005480D01*
X009801Y005514D01*
X009828Y005555D01*
X009846Y005600D01*
X009856Y005647D01*
X009856Y005672D01*
X009856Y005696D01*
X009846Y005744D01*
X009828Y005789D01*
X009801Y005829D01*
X009766Y005864D01*
X009726Y005891D01*
X009681Y005909D01*
X009633Y005919D01*
X009609Y005919D01*
X009609Y005672D01*
X009609Y005672D01*
X009856Y005672D01*
X009609Y005672D01*
X009609Y005672D01*
X009609Y005919D01*
X009585Y005919D01*
X009537Y005909D01*
X009492Y005891D01*
X009451Y005864D01*
X009417Y005829D01*
X009390Y005789D01*
X009371Y005744D01*
X009362Y005696D01*
X009362Y005672D01*
X009609Y005672D01*
X009609Y005672D01*
X009609Y005425D01*
X009609Y005672D01*
X009609Y005672D01*
X009362Y005672D01*
X009362Y005647D01*
X009371Y005600D01*
X009390Y005555D01*
X009417Y005514D01*
X009451Y005480D01*
X009381Y005578D02*
X005109Y005578D01*
X005028Y005676D02*
X009362Y005676D01*
X009384Y005775D02*
X004491Y005775D01*
X004491Y005873D02*
X007090Y005873D01*
X007089Y005874D02*
X007130Y005847D01*
X007175Y005828D01*
X007222Y005819D01*
X007247Y005819D01*
X007271Y005819D01*
X007319Y005828D01*
X007364Y005847D01*
X007404Y005874D01*
X007438Y005908D01*
X007465Y005949D01*
X007484Y005994D01*
X007493Y006041D01*
X007493Y006066D01*
X007493Y006090D01*
X007484Y006138D01*
X007465Y006182D01*
X007438Y006223D01*
X007404Y006257D01*
X007364Y006284D01*
X007319Y006303D01*
X007271Y006312D01*
X007247Y006312D01*
X007247Y006066D01*
X007247Y006066D01*
X007493Y006066D01*
X007247Y006066D01*
X007247Y006066D01*
X007247Y006312D01*
X007222Y006312D01*
X007175Y006303D01*
X007130Y006284D01*
X007089Y006257D01*
X007055Y006223D01*
X007028Y006182D01*
X007009Y006138D01*
X007000Y006090D01*
X007000Y006066D01*
X007247Y006066D01*
X007247Y006066D01*
X007247Y006065D02*
X007247Y005819D01*
X007247Y006065D01*
X007247Y006065D01*
X007247Y006066D02*
X007000Y006066D01*
X007000Y006041D01*
X007009Y005994D01*
X007028Y005949D01*
X007055Y005908D01*
X007089Y005874D01*
X007018Y005972D02*
X004491Y005972D01*
X004491Y006070D02*
X004728Y006070D01*
X004727Y006071D02*
X004767Y006044D01*
X004812Y006025D01*
X004860Y006016D01*
X004884Y006016D01*
X004884Y006262D01*
X004884Y006262D01*
X004638Y006262D01*
X004638Y006238D01*
X004647Y006190D01*
X004666Y006145D01*
X004693Y006105D01*
X004727Y006071D01*
X004656Y006169D02*
X004491Y006169D01*
X004491Y006267D02*
X004638Y006267D01*
X004638Y006262D02*
X004638Y006287D01*
X004647Y006334D01*
X004666Y006379D01*
X004693Y006420D01*
X004727Y006454D01*
X004767Y006481D01*
X004812Y006500D01*
X004860Y006509D01*
X004884Y006509D01*
X004884Y006262D01*
X004884Y006262D01*
X004638Y006262D01*
X004660Y006366D02*
X004491Y006366D01*
X004491Y006464D02*
X004742Y006464D01*
X004884Y006464D02*
X004884Y006464D01*
X004884Y006509D02*
X004909Y006509D01*
X004956Y006500D01*
X005001Y006481D01*
X005042Y006454D01*
X005076Y006420D01*
X005103Y006379D01*
X005122Y006334D01*
X005131Y006287D01*
X005131Y006262D01*
X004884Y006262D01*
X004884Y006016D01*
X004909Y006016D01*
X004956Y006025D01*
X005001Y006044D01*
X005042Y006071D01*
X005076Y006105D01*
X005103Y006145D01*
X005122Y006190D01*
X005131Y006238D01*
X005131Y006262D01*
X004884Y006262D01*
X004884Y006262D01*
X004884Y006262D01*
X004884Y006509D01*
X004884Y006366D02*
X004884Y006366D01*
X004884Y006267D02*
X004884Y006267D01*
X004884Y006169D02*
X004884Y006169D01*
X004884Y006070D02*
X004884Y006070D01*
X005041Y006070D02*
X007000Y006070D01*
X007022Y006169D02*
X005113Y006169D01*
X005131Y006267D02*
X007104Y006267D01*
X007247Y006267D02*
X007247Y006267D01*
X007247Y006169D02*
X007247Y006169D01*
X007247Y006070D02*
X007247Y006070D01*
X007247Y005972D02*
X007247Y005972D01*
X007247Y005873D02*
X007247Y005873D01*
X007403Y005873D02*
X009466Y005873D01*
X009609Y005873D02*
X009609Y005873D01*
X009609Y005775D02*
X009609Y005775D01*
X009609Y005676D02*
X009609Y005676D01*
X009609Y005578D02*
X009609Y005578D01*
X009609Y005479D02*
X009609Y005479D01*
X009765Y005479D02*
X010240Y005479D01*
X010168Y005578D02*
X009837Y005578D01*
X009856Y005676D02*
X010149Y005676D01*
X010172Y005775D02*
X009833Y005775D01*
X009752Y005873D02*
X010253Y005873D01*
X010396Y005873D02*
X010396Y005873D01*
X010396Y005775D02*
X010396Y005775D01*
X010396Y005676D02*
X010396Y005676D01*
X010396Y005578D02*
X010396Y005578D01*
X010396Y005479D02*
X010396Y005479D01*
X010643Y005676D02*
X015582Y005676D01*
X015582Y005578D02*
X015178Y005578D01*
X015246Y005479D02*
X015582Y005479D01*
X015582Y005381D02*
X015261Y005381D01*
X015236Y005282D02*
X015582Y005282D01*
X015582Y005184D02*
X015146Y005184D01*
X015582Y005775D02*
X010621Y005775D01*
X010539Y005873D02*
X015582Y005873D01*
X015582Y005972D02*
X007475Y005972D01*
X007493Y006070D02*
X015582Y006070D01*
X015582Y006169D02*
X007471Y006169D01*
X007389Y006267D02*
X012011Y006267D01*
X012051Y006240D01*
X012096Y006222D01*
X012144Y006212D01*
X012168Y006212D01*
X012192Y006212D01*
X012240Y006222D01*
X012285Y006240D01*
X012325Y006267D01*
X015582Y006267D01*
X015582Y006366D02*
X012396Y006366D01*
X012405Y006387D02*
X012415Y006435D01*
X012415Y006459D01*
X012168Y006459D01*
X012168Y006212D01*
X012168Y006459D01*
X012168Y006459D01*
X012168Y006459D01*
X012415Y006459D01*
X012415Y006484D01*
X012405Y006531D01*
X012387Y006576D01*
X012360Y006617D01*
X012325Y006651D01*
X012285Y006678D01*
X012240Y006697D01*
X012192Y006706D01*
X012168Y006706D01*
X012168Y006459D01*
X011921Y006459D01*
X011921Y006435D01*
X011931Y006387D01*
X011949Y006342D01*
X011976Y006302D01*
X012011Y006267D01*
X011939Y006366D02*
X005109Y006366D01*
X005027Y006464D02*
X011921Y006464D01*
X011921Y006459D02*
X012168Y006459D01*
X012168Y006459D01*
X012168Y006459D01*
X012168Y006706D01*
X012144Y006706D01*
X012096Y006697D01*
X012051Y006678D01*
X012011Y006651D01*
X011976Y006617D01*
X011949Y006576D01*
X011931Y006531D01*
X011921Y006484D01*
X011921Y006459D01*
X011943Y006563D02*
X004491Y006563D01*
X004491Y006661D02*
X012026Y006661D01*
X012168Y006661D02*
X012168Y006661D01*
X012168Y006563D02*
X012168Y006563D01*
X012168Y006464D02*
X012168Y006464D01*
X012168Y006366D02*
X012168Y006366D01*
X012168Y006267D02*
X012168Y006267D01*
X012325Y006267D02*
X012360Y006302D01*
X012387Y006342D01*
X012405Y006387D01*
X012415Y006464D02*
X014769Y006464D01*
X014758Y006470D02*
X014783Y006456D01*
X014811Y006449D01*
X015072Y006449D01*
X015072Y006804D01*
X015169Y006804D01*
X015169Y006449D01*
X015430Y006449D01*
X015458Y006456D01*
X015483Y006470D01*
X015503Y006491D01*
X015518Y006516D01*
X015525Y006543D01*
X015525Y006804D01*
X015169Y006804D01*
X015169Y006901D01*
X015525Y006901D01*
X015525Y007163D01*
X015518Y007190D01*
X015503Y007215D01*
X015483Y007235D01*
X015458Y007250D01*
X015430Y007257D01*
X015169Y007257D01*
X015169Y006901D01*
X015072Y006901D01*
X015072Y006804D01*
X014716Y006804D01*
X014716Y006543D01*
X014724Y006516D01*
X014738Y006491D01*
X014758Y006470D01*
X014716Y006563D02*
X012392Y006563D01*
X012310Y006661D02*
X014716Y006661D01*
X014716Y006760D02*
X004491Y006760D01*
X004491Y006858D02*
X004727Y006858D01*
X004767Y006831D01*
X004812Y006812D01*
X004860Y006803D01*
X004884Y006803D01*
X004884Y007050D01*
X004884Y007050D01*
X004638Y007050D01*
X004638Y007074D01*
X004647Y007122D01*
X004666Y007167D01*
X004693Y007207D01*
X004727Y007242D01*
X004767Y007269D01*
X004812Y007287D01*
X004860Y007297D01*
X004884Y007297D01*
X004884Y007050D01*
X004884Y007050D01*
X004638Y007050D01*
X004638Y007025D01*
X004647Y006978D01*
X004666Y006933D01*
X004693Y006892D01*
X004727Y006858D01*
X004656Y006957D02*
X004491Y006957D01*
X004491Y007055D02*
X004638Y007055D01*
X004660Y007154D02*
X004491Y007154D01*
X004491Y007252D02*
X004743Y007252D01*
X004884Y007252D02*
X004884Y007252D01*
X004884Y007297D02*
X004909Y007297D01*
X004956Y007287D01*
X005001Y007269D01*
X005042Y007242D01*
X005076Y007207D01*
X005103Y007167D01*
X005122Y007122D01*
X005131Y007074D01*
X005131Y007050D01*
X004884Y007050D01*
X004884Y007297D01*
X004884Y007393D02*
X004909Y007393D01*
X004956Y007403D01*
X005001Y007422D01*
X005042Y007449D01*
X008089Y007449D01*
X008074Y007438D02*
X008039Y007404D01*
X008012Y007364D01*
X007994Y007319D01*
X007984Y007271D01*
X007984Y007247D01*
X008231Y007247D01*
X008231Y007247D01*
X008231Y007493D01*
X008255Y007493D01*
X008303Y007484D01*
X008348Y007465D01*
X008388Y007438D01*
X008423Y007404D01*
X008450Y007364D01*
X008468Y007319D01*
X008478Y007271D01*
X008478Y007247D01*
X008231Y007247D01*
X008231Y007247D01*
X008231Y007493D01*
X008207Y007493D01*
X008159Y007484D01*
X008114Y007465D01*
X008074Y007438D01*
X008007Y007351D02*
X004491Y007351D01*
X004491Y007449D02*
X004727Y007449D01*
X004767Y007422D01*
X004812Y007403D01*
X004860Y007393D01*
X004884Y007393D01*
X004884Y007640D01*
X004638Y007640D01*
X004638Y007616D01*
X004647Y007568D01*
X004666Y007523D01*
X004693Y007483D01*
X004727Y007449D01*
X004656Y007548D02*
X004491Y007548D01*
X004491Y007646D02*
X004638Y007646D01*
X004638Y007640D02*
X004884Y007640D01*
X004884Y007640D01*
X004884Y007640D01*
X004884Y007393D01*
X004884Y007449D02*
X004884Y007449D01*
X004884Y007548D02*
X004884Y007548D01*
X004884Y007640D02*
X004884Y007640D01*
X004884Y007887D01*
X004860Y007887D01*
X004812Y007878D01*
X004767Y007859D01*
X004727Y007832D01*
X004693Y007798D01*
X004666Y007757D01*
X004647Y007712D01*
X004638Y007665D01*
X004638Y007640D01*
X004660Y007745D02*
X004491Y007745D01*
X004491Y007843D02*
X004743Y007843D01*
X004884Y007843D02*
X004884Y007843D01*
X004884Y007887D02*
X004884Y007640D01*
X004884Y007640D01*
X005131Y007640D01*
X005131Y007616D01*
X005122Y007568D01*
X005103Y007523D01*
X005076Y007483D01*
X005042Y007449D01*
X005113Y007548D02*
X014716Y007548D01*
X014716Y007497D02*
X014780Y007433D01*
X015461Y007433D01*
X015525Y007497D01*
X015525Y008178D01*
X015461Y008241D01*
X014780Y008241D01*
X014716Y008178D01*
X014716Y007497D01*
X014764Y007449D02*
X011916Y007449D01*
X011932Y007438D02*
X011891Y007465D01*
X011846Y007484D01*
X011798Y007493D01*
X011774Y007493D01*
X011750Y007493D01*
X011702Y007484D01*
X011657Y007465D01*
X011617Y007438D01*
X011582Y007404D01*
X011555Y007364D01*
X011537Y007319D01*
X011527Y007271D01*
X011527Y007247D01*
X011774Y007247D01*
X011774Y007493D01*
X011774Y007247D01*
X011774Y007247D01*
X011774Y007247D01*
X012021Y007247D01*
X012021Y007271D01*
X012012Y007319D01*
X011993Y007364D01*
X011966Y007404D01*
X011932Y007438D01*
X011998Y007351D02*
X015582Y007351D01*
X015582Y007449D02*
X015477Y007449D01*
X015525Y007548D02*
X015582Y007548D01*
X015582Y007646D02*
X015525Y007646D01*
X015525Y007745D02*
X015582Y007745D01*
X015582Y007843D02*
X015525Y007843D01*
X015525Y007942D02*
X015582Y007942D01*
X015582Y008040D02*
X015525Y008040D01*
X015525Y008139D02*
X015582Y008139D01*
X015582Y008237D02*
X015466Y008237D01*
X015582Y008336D02*
X004491Y008336D01*
X004491Y008237D02*
X005138Y008237D01*
X005121Y008226D02*
X005086Y008191D01*
X005059Y008151D01*
X005041Y008106D01*
X005031Y008058D01*
X005031Y008034D01*
X005031Y008010D01*
X005041Y007962D01*
X005059Y007917D01*
X005086Y007877D01*
X005121Y007842D01*
X005161Y007815D01*
X005206Y007797D01*
X005254Y007787D01*
X005278Y007787D01*
X005278Y008034D01*
X005031Y008034D01*
X005278Y008034D01*
X005278Y008034D01*
X005278Y008034D01*
X005278Y008281D01*
X005254Y008281D01*
X005206Y008271D01*
X005161Y008253D01*
X005121Y008226D01*
X005054Y008139D02*
X004491Y008139D01*
X004491Y008040D02*
X005031Y008040D01*
X005049Y007942D02*
X004491Y007942D01*
X004097Y007942D02*
X003673Y007942D01*
X003682Y007938D02*
X003638Y007956D01*
X003590Y007966D01*
X003566Y007966D01*
X003566Y007719D01*
X003566Y007719D01*
X003812Y007719D01*
X003812Y007695D01*
X003803Y007647D01*
X003784Y007602D01*
X003757Y007562D01*
X003723Y007527D01*
X003682Y007500D01*
X003638Y007482D01*
X003590Y007472D01*
X003566Y007472D01*
X003566Y007719D01*
X003812Y007719D01*
X003812Y007743D01*
X003803Y007791D01*
X003784Y007836D01*
X003757Y007876D01*
X003723Y007911D01*
X003682Y007938D01*
X003566Y007942D02*
X003566Y007942D01*
X003566Y007966D02*
X003541Y007966D01*
X003494Y007956D01*
X003449Y007938D01*
X003408Y007911D01*
X003374Y007876D01*
X003347Y007836D01*
X003328Y007791D01*
X003319Y007743D01*
X003319Y007719D01*
X003319Y007695D01*
X003328Y007647D01*
X003347Y007602D01*
X003374Y007562D01*
X003408Y007527D01*
X003449Y007500D01*
X003494Y007482D01*
X003541Y007472D01*
X003566Y007472D01*
X003566Y007719D01*
X003566Y007719D01*
X003566Y007719D01*
X003566Y007966D01*
X003458Y007942D02*
X000486Y007942D01*
X000486Y008040D02*
X004097Y008040D01*
X004097Y008139D02*
X000942Y008139D01*
X001084Y008237D02*
X004097Y008237D01*
X004097Y008336D02*
X001168Y008336D01*
X001208Y008434D02*
X004097Y008434D01*
X004097Y008533D02*
X001234Y008533D01*
X001234Y008631D02*
X004097Y008631D01*
X004097Y008730D02*
X001219Y008730D01*
X001179Y008828D02*
X015582Y008828D01*
X015582Y008927D02*
X001110Y008927D01*
X001007Y009025D02*
X010896Y009025D01*
X010909Y009016D02*
X010954Y008997D01*
X011002Y008988D01*
X011026Y008988D01*
X011026Y009235D01*
X011026Y009482D01*
X011002Y009482D01*
X010954Y009472D01*
X010909Y009454D01*
X010869Y009427D01*
X010834Y009392D01*
X010807Y009352D01*
X010789Y009307D01*
X010779Y009259D01*
X010779Y009235D01*
X011026Y009235D01*
X011026Y009235D01*
X011026Y009235D01*
X011026Y009482D01*
X011050Y009482D01*
X011098Y009472D01*
X011143Y009454D01*
X011183Y009427D01*
X011218Y009392D01*
X011245Y009352D01*
X011264Y009307D01*
X011273Y009259D01*
X011273Y009235D01*
X011026Y009235D01*
X010779Y009235D01*
X010779Y009210D01*
X010789Y009163D01*
X010807Y009118D01*
X010834Y009077D01*
X010869Y009043D01*
X010909Y009016D01*
X011026Y009025D02*
X011026Y009025D01*
X011026Y008988D02*
X011050Y008988D01*
X011098Y008997D01*
X011143Y009016D01*
X011183Y009043D01*
X011218Y009077D01*
X011245Y009118D01*
X011264Y009163D01*
X011273Y009210D01*
X011273Y009235D01*
X011026Y009235D01*
X011026Y009235D01*
X011026Y009235D01*
X011026Y008988D01*
X011026Y009124D02*
X011026Y009124D01*
X011026Y009222D02*
X011026Y009222D01*
X011026Y009321D02*
X011026Y009321D01*
X011026Y009419D02*
X011026Y009419D01*
X010861Y009419D02*
X008123Y009419D01*
X008123Y009407D02*
X008123Y009432D01*
X008123Y009456D01*
X008114Y009504D01*
X008095Y009549D01*
X008068Y009589D01*
X008034Y009623D01*
X007993Y009650D01*
X007949Y009669D01*
X007901Y009679D01*
X007877Y009679D01*
X007877Y009432D01*
X008123Y009432D01*
X007877Y009432D01*
X007877Y009432D01*
X007877Y009432D01*
X007877Y009679D01*
X007852Y009679D01*
X007805Y009669D01*
X007760Y009650D01*
X007719Y009623D01*
X007685Y009589D01*
X007658Y009549D01*
X007639Y009504D01*
X007630Y009456D01*
X007630Y009432D01*
X007877Y009432D01*
X007877Y009185D01*
X007901Y009185D01*
X007949Y009194D01*
X007993Y009213D01*
X008034Y009240D01*
X008068Y009274D01*
X008095Y009315D01*
X008114Y009360D01*
X008123Y009407D01*
X008098Y009321D02*
X010794Y009321D01*
X010779Y009222D02*
X008007Y009222D01*
X007877Y009222D02*
X007877Y009222D01*
X007877Y009185D02*
X007877Y009432D01*
X007877Y009432D01*
X007877Y009432D01*
X007630Y009432D01*
X007630Y009407D01*
X007639Y009360D01*
X007658Y009315D01*
X007685Y009274D01*
X007719Y009240D01*
X007760Y009213D01*
X007805Y009194D01*
X007852Y009185D01*
X007877Y009185D01*
X007877Y009321D02*
X007877Y009321D01*
X007877Y009419D02*
X007877Y009419D01*
X007877Y009518D02*
X007877Y009518D01*
X007877Y009616D02*
X007877Y009616D01*
X008041Y009616D02*
X014587Y009616D01*
X014589Y009614D02*
X014630Y009587D01*
X014675Y009568D01*
X014722Y009559D01*
X014747Y009559D01*
X014771Y009559D01*
X014819Y009568D01*
X014864Y009587D01*
X014904Y009614D01*
X014938Y009648D01*
X014965Y009689D01*
X014984Y009734D01*
X014993Y009781D01*
X014993Y009806D01*
X014993Y009830D01*
X014984Y009878D01*
X014965Y009923D01*
X014938Y009963D01*
X014904Y009997D01*
X014864Y010024D01*
X014819Y010043D01*
X014771Y010053D01*
X014747Y010053D01*
X014747Y009806D01*
X014993Y009806D01*
X014747Y009806D01*
X014747Y009806D01*
X014747Y009806D01*
X014747Y010053D01*
X014722Y010053D01*
X014675Y010043D01*
X014630Y010024D01*
X014589Y009997D01*
X014555Y009963D01*
X014528Y009923D01*
X014509Y009878D01*
X014500Y009830D01*
X014500Y009806D01*
X014747Y009806D01*
X014747Y009559D01*
X014747Y009806D01*
X014747Y009806D01*
X014747Y009806D01*
X014500Y009806D01*
X014500Y009781D01*
X014509Y009734D01*
X014528Y009689D01*
X014555Y009648D01*
X014589Y009614D01*
X014517Y009715D02*
X007704Y009715D01*
X007702Y009708D02*
X007720Y009753D01*
X007730Y009801D01*
X007730Y009825D01*
X007483Y009825D01*
X007483Y009579D01*
X007507Y009579D01*
X007555Y009588D01*
X007600Y009607D01*
X007640Y009634D01*
X007675Y009668D01*
X007702Y009708D01*
X007712Y009616D02*
X007614Y009616D01*
X007645Y009518D02*
X003238Y009518D01*
X003233Y009529D02*
X003206Y009569D01*
X003172Y009604D01*
X003131Y009631D01*
X003086Y009649D01*
X003039Y009659D01*
X003014Y009659D01*
X002990Y009659D01*
X002942Y009649D01*
X002897Y009631D01*
X002857Y009604D01*
X002823Y009569D01*
X002796Y009529D01*
X002777Y009484D01*
X002767Y009436D01*
X002767Y009412D01*
X003014Y009412D01*
X003014Y009412D01*
X002767Y009412D01*
X002767Y009388D01*
X002777Y009340D01*
X002796Y009295D01*
X002823Y009255D01*
X002857Y009220D01*
X002897Y009193D01*
X002942Y009175D01*
X002990Y009165D01*
X003014Y009165D01*
X003014Y009412D01*
X003014Y009659D01*
X003014Y009412D01*
X003014Y009412D01*
X003014Y009412D01*
X003014Y009165D01*
X003039Y009165D01*
X003086Y009175D01*
X003131Y009193D01*
X003172Y009220D01*
X003206Y009255D01*
X003233Y009295D01*
X003252Y009340D01*
X003261Y009388D01*
X003261Y009412D01*
X003261Y009436D01*
X003252Y009484D01*
X003233Y009529D01*
X003261Y009419D02*
X007630Y009419D01*
X007655Y009321D02*
X003244Y009321D01*
X003261Y009412D02*
X003014Y009412D01*
X003261Y009412D01*
X003173Y009222D02*
X007746Y009222D01*
X007483Y009579D02*
X007483Y009825D01*
X007483Y009825D01*
X007483Y009825D01*
X007730Y009825D01*
X007730Y009850D01*
X007720Y009897D01*
X007702Y009942D01*
X007675Y009983D01*
X007640Y010017D01*
X007600Y010044D01*
X007555Y010063D01*
X007507Y010072D01*
X007483Y010072D01*
X007483Y009825D01*
X007236Y009825D01*
X007236Y009801D01*
X007245Y009753D01*
X007264Y009708D01*
X007291Y009668D01*
X007325Y009634D01*
X007366Y009607D01*
X007411Y009588D01*
X007459Y009579D01*
X007483Y009579D01*
X007483Y009616D02*
X007483Y009616D01*
X007483Y009715D02*
X007483Y009715D01*
X007483Y009813D02*
X007483Y009813D01*
X007483Y009825D02*
X007483Y009825D01*
X007483Y009825D01*
X007236Y009825D01*
X007236Y009850D01*
X007245Y009897D01*
X007264Y009942D01*
X007291Y009983D01*
X007325Y010017D01*
X007366Y010044D01*
X007411Y010063D01*
X007459Y010072D01*
X007483Y010072D01*
X007483Y009825D01*
X007483Y009912D02*
X007483Y009912D01*
X007483Y010010D02*
X007483Y010010D01*
X007483Y010169D02*
X007507Y010169D01*
X007555Y010179D01*
X007600Y010197D01*
X007640Y010224D01*
X007675Y010259D01*
X007702Y010299D01*
X007720Y010344D01*
X007730Y010392D01*
X007730Y010416D01*
X007730Y010440D01*
X007720Y010488D01*
X007702Y010533D01*
X007675Y010573D01*
X007640Y010608D01*
X007600Y010635D01*
X007555Y010653D01*
X007507Y010663D01*
X007483Y010663D01*
X007483Y010416D01*
X007730Y010416D01*
X007483Y010416D01*
X007483Y010416D01*
X007483Y010416D01*
X007483Y010663D01*
X007459Y010663D01*
X007411Y010653D01*
X007366Y010635D01*
X007325Y010608D01*
X007291Y010573D01*
X007264Y010533D01*
X007245Y010488D01*
X007236Y010440D01*
X007236Y010416D01*
X007483Y010416D01*
X007483Y010169D01*
X007483Y010416D01*
X007483Y010416D01*
X007483Y010416D01*
X007236Y010416D01*
X007236Y010392D01*
X007245Y010344D01*
X007264Y010299D01*
X007291Y010259D01*
X007325Y010224D01*
X007366Y010197D01*
X007411Y010179D01*
X007459Y010169D01*
X007483Y010169D01*
X007483Y010207D02*
X007483Y010207D01*
X007483Y010306D02*
X007483Y010306D01*
X007483Y010404D02*
X007483Y010404D01*
X007483Y010503D02*
X007483Y010503D01*
X007483Y010601D02*
X007483Y010601D01*
X007647Y010601D02*
X014047Y010601D01*
X014047Y010593D02*
X014294Y010593D01*
X014294Y010593D01*
X014541Y010593D01*
X014541Y010569D01*
X014531Y010521D01*
X014513Y010476D01*
X014486Y010436D01*
X014451Y010401D01*
X014411Y010374D01*
X014366Y010356D01*
X014318Y010346D01*
X014294Y010346D01*
X014294Y010593D01*
X014294Y010593D01*
X014541Y010593D01*
X014541Y010617D01*
X014531Y010665D01*
X014513Y010710D01*
X014486Y010750D01*
X014451Y010785D01*
X014411Y010812D01*
X014366Y010830D01*
X014318Y010840D01*
X014294Y010840D01*
X014294Y010593D01*
X014294Y010346D01*
X014270Y010346D01*
X014222Y010356D01*
X014177Y010374D01*
X014136Y010401D01*
X014102Y010436D01*
X014075Y010476D01*
X014056Y010521D01*
X014047Y010569D01*
X014047Y010593D01*
X014294Y010593D01*
X014294Y010593D01*
X014294Y010593D01*
X014294Y010840D01*
X014270Y010840D01*
X014222Y010830D01*
X014177Y010812D01*
X014136Y010785D01*
X014102Y010750D01*
X014075Y010710D01*
X014056Y010665D01*
X014047Y010617D01*
X014047Y010593D01*
X014064Y010503D02*
X007714Y010503D01*
X007730Y010404D02*
X014134Y010404D01*
X014294Y010404D02*
X014294Y010404D01*
X014294Y010503D02*
X014294Y010503D01*
X014294Y010601D02*
X014294Y010601D01*
X014294Y010700D02*
X014294Y010700D01*
X014294Y010798D02*
X014294Y010798D01*
X014431Y010798D02*
X015582Y010798D01*
X015582Y010700D02*
X015265Y010700D01*
X015273Y010691D02*
X015239Y010726D01*
X015198Y010753D01*
X015153Y010771D01*
X015106Y010781D01*
X015081Y010781D01*
X015057Y010781D01*
X015009Y010771D01*
X014964Y010753D01*
X014924Y010726D01*
X014890Y010691D01*
X014863Y010651D01*
X014844Y010606D01*
X014834Y010558D01*
X014834Y010534D01*
X014834Y010510D01*
X014844Y010462D01*
X014863Y010417D01*
X014890Y010377D01*
X014924Y010342D01*
X014964Y010315D01*
X015009Y010297D01*
X015057Y010287D01*
X015081Y010287D01*
X015081Y010534D01*
X014834Y010534D01*
X015081Y010534D01*
X015081Y010534D01*
X015081Y010534D01*
X015081Y010781D01*
X015081Y010534D01*
X015081Y010534D01*
X015081Y010287D01*
X015106Y010287D01*
X015153Y010297D01*
X015198Y010315D01*
X015239Y010342D01*
X015273Y010377D01*
X015300Y010417D01*
X015319Y010462D01*
X015328Y010510D01*
X015328Y010534D01*
X015081Y010534D01*
X015328Y010534D01*
X015328Y010558D01*
X015319Y010606D01*
X015300Y010651D01*
X015273Y010691D01*
X015320Y010601D02*
X015582Y010601D01*
X015582Y010503D02*
X015327Y010503D01*
X015291Y010404D02*
X015582Y010404D01*
X015582Y010306D02*
X015175Y010306D01*
X015081Y010306D02*
X015081Y010306D01*
X014988Y010306D02*
X007704Y010306D01*
X007615Y010207D02*
X013639Y010207D01*
X013626Y010202D02*
X013585Y010175D01*
X013551Y010140D01*
X013524Y010100D01*
X013505Y010055D01*
X013496Y010007D01*
X013496Y009983D01*
X013743Y009983D01*
X013990Y009983D01*
X013990Y010007D01*
X013980Y010055D01*
X013961Y010100D01*
X013934Y010140D01*
X013900Y010175D01*
X013860Y010202D01*
X013815Y010220D01*
X013767Y010230D01*
X013743Y010230D01*
X013743Y009983D01*
X013743Y009983D01*
X013743Y009983D01*
X013990Y009983D01*
X013990Y009959D01*
X013980Y009911D01*
X013961Y009866D01*
X013934Y009825D01*
X013900Y009791D01*
X013860Y009764D01*
X013815Y009745D01*
X013767Y009736D01*
X013743Y009736D01*
X013743Y009983D01*
X013743Y009983D01*
X013743Y010230D01*
X013718Y010230D01*
X013671Y010220D01*
X013626Y010202D01*
X013743Y010207D02*
X013743Y010207D01*
X013743Y010109D02*
X013743Y010109D01*
X013743Y010010D02*
X013743Y010010D01*
X013743Y009983D02*
X013743Y009983D01*
X013743Y009736D01*
X013718Y009736D01*
X013671Y009745D01*
X013626Y009764D01*
X013585Y009791D01*
X013551Y009825D01*
X013524Y009866D01*
X013505Y009911D01*
X013496Y009959D01*
X013496Y009983D01*
X013743Y009983D01*
X013743Y009912D02*
X013743Y009912D01*
X013743Y009813D02*
X013743Y009813D01*
X013922Y009813D02*
X014500Y009813D01*
X014523Y009912D02*
X013980Y009912D01*
X013989Y010010D02*
X014608Y010010D01*
X014747Y010010D02*
X014747Y010010D01*
X014747Y009912D02*
X014747Y009912D01*
X014747Y009813D02*
X014747Y009813D01*
X014747Y009715D02*
X014747Y009715D01*
X014747Y009616D02*
X014747Y009616D01*
X014906Y009616D02*
X015582Y009616D01*
X015582Y009518D02*
X008108Y009518D01*
X007730Y009813D02*
X013563Y009813D01*
X013505Y009912D02*
X007714Y009912D01*
X007647Y010010D02*
X013496Y010010D01*
X013530Y010109D02*
X006523Y010109D01*
X006520Y010102D02*
X006539Y010147D01*
X006549Y010195D01*
X006549Y010219D01*
X006302Y010219D01*
X006302Y010219D01*
X006549Y010219D01*
X006549Y010243D01*
X006539Y010291D01*
X006520Y010336D01*
X006493Y010376D01*
X006459Y010411D01*
X006419Y010438D01*
X006374Y010456D01*
X006326Y010466D01*
X006302Y010466D01*
X006302Y010219D01*
X006302Y009972D01*
X006326Y009972D01*
X006374Y009982D01*
X006419Y010000D01*
X006459Y010027D01*
X006493Y010062D01*
X006520Y010102D01*
X006549Y010207D02*
X007351Y010207D01*
X007261Y010306D02*
X006533Y010306D01*
X006466Y010404D02*
X007236Y010404D01*
X007252Y010503D02*
X003598Y010503D01*
X003598Y010474D02*
X003598Y010881D01*
X003590Y010909D01*
X003576Y010934D01*
X003556Y010954D01*
X003531Y010968D01*
X003503Y010976D01*
X003096Y010976D01*
X003096Y010474D01*
X002996Y010474D01*
X002996Y010976D01*
X002589Y010976D01*
X002561Y010968D01*
X002536Y010954D01*
X002516Y010934D01*
X002501Y010909D01*
X002494Y010881D01*
X002494Y010474D01*
X002996Y010474D01*
X002996Y010374D01*
X002494Y010374D01*
X002494Y009967D01*
X002501Y009939D01*
X002516Y009914D01*
X002536Y009894D01*
X002561Y009879D01*
X002589Y009872D01*
X002996Y009872D01*
X002996Y010374D01*
X003096Y010374D01*
X003096Y010474D01*
X003598Y010474D01*
X003598Y010374D02*
X003096Y010374D01*
X003096Y009872D01*
X003503Y009872D01*
X003531Y009879D01*
X003556Y009894D01*
X003576Y009914D01*
X003590Y009939D01*
X003598Y009967D01*
X003598Y010374D01*
X003598Y010306D02*
X005547Y010306D01*
X005522Y010280D02*
X005591Y010350D01*
X005682Y010387D01*
X005780Y010387D01*
X005871Y010350D01*
X005940Y010280D01*
X005978Y010189D01*
X005978Y010091D01*
X005940Y010000D01*
X005871Y009931D01*
X005780Y009893D01*
X005682Y009893D01*
X005591Y009931D01*
X005522Y010000D01*
X005484Y010091D01*
X005484Y010189D01*
X005522Y010280D01*
X005491Y010207D02*
X003598Y010207D01*
X003598Y010109D02*
X005484Y010109D01*
X005518Y010010D02*
X003598Y010010D01*
X003574Y009912D02*
X005638Y009912D01*
X005824Y009912D02*
X007251Y009912D01*
X007236Y009813D02*
X000486Y009813D01*
X000536Y009894D02*
X000561Y009879D01*
X000589Y009872D01*
X000996Y009872D01*
X000996Y010374D01*
X000494Y010374D01*
X000494Y009967D01*
X000501Y009939D01*
X000516Y009914D01*
X000536Y009894D01*
X000518Y009912D02*
X000486Y009912D01*
X000486Y010010D02*
X000494Y010010D01*
X000486Y010109D02*
X000494Y010109D01*
X000486Y010207D02*
X000494Y010207D01*
X000486Y010306D02*
X000494Y010306D01*
X000486Y010404D02*
X000996Y010404D01*
X000996Y010374D02*
X000996Y010474D01*
X000996Y010976D01*
X000589Y010976D01*
X000561Y010968D01*
X000536Y010954D01*
X000516Y010934D01*
X000501Y010909D01*
X000494Y010881D01*
X000494Y010474D01*
X000996Y010474D01*
X001096Y010474D01*
X001096Y010976D01*
X001503Y010976D01*
X001531Y010968D01*
X001556Y010954D01*
X001576Y010934D01*
X001590Y010909D01*
X001598Y010881D01*
X001598Y010474D01*
X001096Y010474D01*
X001096Y010374D01*
X001598Y010374D01*
X001598Y009967D01*
X001590Y009939D01*
X001576Y009914D01*
X001556Y009894D01*
X001531Y009879D01*
X001503Y009872D01*
X001096Y009872D01*
X001096Y010374D01*
X000996Y010374D01*
X000996Y010306D02*
X001096Y010306D01*
X001096Y010404D02*
X002996Y010404D01*
X002996Y010306D02*
X003096Y010306D01*
X003096Y010404D02*
X006138Y010404D01*
X006144Y010411D02*
X006110Y010376D01*
X006083Y010336D01*
X006064Y010291D01*
X006055Y010243D01*
X006055Y010219D01*
X006055Y010195D01*
X006064Y010147D01*
X006083Y010102D01*
X006110Y010062D01*
X006144Y010027D01*
X006185Y010000D01*
X006230Y009982D01*
X006277Y009972D01*
X006302Y009972D01*
X006302Y010219D01*
X006302Y010219D01*
X006302Y010219D01*
X006302Y010466D01*
X006277Y010466D01*
X006230Y010456D01*
X006185Y010438D01*
X006144Y010411D01*
X006070Y010306D02*
X005915Y010306D01*
X005970Y010207D02*
X006055Y010207D01*
X006055Y010219D02*
X006302Y010219D01*
X006302Y010219D01*
X006055Y010219D01*
X006080Y010109D02*
X005978Y010109D01*
X005944Y010010D02*
X006170Y010010D01*
X006302Y010010D02*
X006302Y010010D01*
X006302Y010109D02*
X006302Y010109D01*
X006302Y010207D02*
X006302Y010207D01*
X006302Y010306D02*
X006302Y010306D01*
X006302Y010404D02*
X006302Y010404D01*
X006433Y010010D02*
X007318Y010010D01*
X007262Y009715D02*
X000486Y009715D01*
X000486Y009616D02*
X002875Y009616D01*
X002791Y009518D02*
X000486Y009518D01*
X000486Y009419D02*
X002767Y009419D01*
X002785Y009321D02*
X000486Y009321D01*
X000486Y009222D02*
X002855Y009222D01*
X003014Y009222D02*
X003014Y009222D01*
X003014Y009321D02*
X003014Y009321D01*
X003014Y009412D02*
X003014Y009412D01*
X003014Y009419D02*
X003014Y009419D01*
X003014Y009518D02*
X003014Y009518D01*
X003014Y009616D02*
X003014Y009616D01*
X003153Y009616D02*
X007352Y009616D01*
X007319Y010601D02*
X004229Y010601D01*
X004214Y010591D02*
X004254Y010618D01*
X004289Y010652D01*
X004316Y010693D01*
X004334Y010738D01*
X004344Y010785D01*
X004344Y010810D01*
X004344Y010834D01*
X004334Y010882D01*
X004316Y010927D01*
X004289Y010967D01*
X004254Y011001D01*
X004214Y011028D01*
X004169Y011047D01*
X004121Y011056D01*
X004097Y011056D01*
X004073Y011056D01*
X004025Y011047D01*
X003980Y011028D01*
X003940Y011001D01*
X003905Y010967D01*
X003878Y010927D01*
X003860Y010882D01*
X003850Y010834D01*
X003850Y010810D01*
X004097Y010810D01*
X004097Y011056D01*
X004097Y010810D01*
X004097Y010810D01*
X004344Y010810D01*
X004097Y010810D01*
X004097Y010810D01*
X004097Y010810D01*
X003850Y010810D01*
X003850Y010785D01*
X003860Y010738D01*
X003878Y010693D01*
X003905Y010652D01*
X003940Y010618D01*
X003980Y010591D01*
X004025Y010572D01*
X004073Y010563D01*
X004097Y010563D01*
X004121Y010563D01*
X004169Y010572D01*
X004214Y010591D01*
X004097Y010601D02*
X004097Y010601D01*
X004097Y010563D02*
X004097Y010810D01*
X004097Y010810D01*
X004097Y010563D01*
X004097Y010700D02*
X004097Y010700D01*
X004097Y010798D02*
X004097Y010798D01*
X004097Y010897D02*
X004097Y010897D01*
X004097Y010995D02*
X004097Y010995D01*
X003933Y010995D02*
X002478Y010995D01*
X002498Y010897D02*
X002364Y010897D01*
X002391Y010907D02*
X002562Y011079D01*
X002655Y011303D01*
X002655Y011545D01*
X002562Y011769D01*
X002391Y011940D01*
X002167Y012033D01*
X001925Y012033D01*
X001701Y011940D01*
X001529Y011769D01*
X001437Y011545D01*
X001437Y011303D01*
X001529Y011079D01*
X001701Y010907D01*
X001925Y010815D01*
X002167Y010815D01*
X002391Y010907D01*
X002494Y010798D02*
X001598Y010798D01*
X001598Y010700D02*
X002494Y010700D01*
X002494Y010601D02*
X001598Y010601D01*
X001598Y010503D02*
X002494Y010503D01*
X002494Y010306D02*
X001598Y010306D01*
X001598Y010207D02*
X002494Y010207D01*
X002494Y010109D02*
X001598Y010109D01*
X001598Y010010D02*
X002494Y010010D01*
X002518Y009912D02*
X001574Y009912D01*
X001096Y009912D02*
X000996Y009912D01*
X000996Y010010D02*
X001096Y010010D01*
X001096Y010109D02*
X000996Y010109D01*
X000996Y010207D02*
X001096Y010207D01*
X001096Y010503D02*
X000996Y010503D01*
X000996Y010601D02*
X001096Y010601D01*
X001096Y010700D02*
X000996Y010700D01*
X000996Y010798D02*
X001096Y010798D01*
X001096Y010897D02*
X000996Y010897D01*
X000498Y010897D02*
X000486Y010897D01*
X000486Y010995D02*
X001613Y010995D01*
X001594Y010897D02*
X001727Y010897D01*
X001523Y011094D02*
X000486Y011094D01*
X000486Y011192D02*
X001483Y011192D01*
X001442Y011291D02*
X000486Y011291D01*
X000486Y011389D02*
X001437Y011389D01*
X001437Y011488D02*
X000486Y011488D01*
X000486Y011586D02*
X001454Y011586D01*
X001495Y011685D02*
X000486Y011685D01*
X000486Y011783D02*
X001544Y011783D01*
X001531Y011879D02*
X001556Y011894D01*
X001576Y011914D01*
X001590Y011939D01*
X001598Y011967D01*
X001598Y012374D01*
X001096Y012374D01*
X002996Y012374D01*
X002494Y012374D01*
X002494Y011967D01*
X002501Y011939D01*
X002516Y011914D01*
X002536Y011894D01*
X002561Y011879D01*
X002589Y011872D01*
X002996Y011872D01*
X002996Y012374D01*
X002996Y012474D01*
X002996Y012976D01*
X002589Y012976D01*
X002561Y012968D01*
X002536Y012954D01*
X002516Y012934D01*
X002501Y012909D01*
X002494Y012881D01*
X002494Y012474D01*
X002996Y012474D01*
X003096Y012474D01*
X003096Y012976D01*
X003503Y012976D01*
X003531Y012968D01*
X003556Y012954D01*
X003576Y012934D01*
X003590Y012909D01*
X003598Y012881D01*
X003598Y012474D01*
X003096Y012474D01*
X003096Y012374D01*
X015582Y012374D01*
X015582Y012276D02*
X003598Y012276D01*
X003598Y012374D02*
X003096Y012374D01*
X003096Y011872D01*
X003503Y011872D01*
X003531Y011879D01*
X003556Y011894D01*
X003576Y011914D01*
X003590Y011939D01*
X003598Y011967D01*
X003598Y012374D01*
X003598Y012571D02*
X015582Y012571D01*
X015582Y012473D02*
X003096Y012473D01*
X003096Y012571D02*
X002996Y012571D01*
X002996Y012473D02*
X001096Y012473D01*
X001096Y012474D02*
X001598Y012474D01*
X001598Y012881D01*
X001590Y012909D01*
X001576Y012934D01*
X001556Y012954D01*
X001531Y012968D01*
X001503Y012976D01*
X001096Y012976D01*
X001096Y012474D01*
X000996Y012474D01*
X000996Y012976D01*
X000589Y012976D01*
X000561Y012968D01*
X000536Y012954D01*
X000516Y012934D01*
X000501Y012909D01*
X000494Y012881D01*
X000494Y012474D01*
X000996Y012474D01*
X000996Y012374D01*
X000486Y012374D01*
X000494Y012374D02*
X000494Y011967D01*
X000501Y011939D01*
X000516Y011914D01*
X000536Y011894D01*
X000561Y011879D01*
X000589Y011872D01*
X000996Y011872D01*
X000996Y012374D01*
X000494Y012374D01*
X000486Y012276D02*
X000494Y012276D01*
X000486Y012177D02*
X000494Y012177D01*
X000486Y012079D02*
X000494Y012079D01*
X000486Y011980D02*
X000494Y011980D01*
X000486Y011882D02*
X000557Y011882D01*
X000996Y011882D02*
X001096Y011882D01*
X001096Y011872D02*
X001503Y011872D01*
X001531Y011879D01*
X001535Y011882D02*
X001642Y011882D01*
X001598Y011980D02*
X001797Y011980D01*
X001598Y012079D02*
X002494Y012079D01*
X002494Y012177D02*
X001598Y012177D01*
X001598Y012276D02*
X002494Y012276D01*
X002494Y012571D02*
X001598Y012571D01*
X001598Y012670D02*
X002494Y012670D01*
X002494Y012768D02*
X001598Y012768D01*
X001598Y012867D02*
X002494Y012867D01*
X002555Y012965D02*
X001537Y012965D01*
X001096Y012965D02*
X000996Y012965D01*
X000996Y012867D02*
X001096Y012867D01*
X001096Y012768D02*
X000996Y012768D01*
X000996Y012670D02*
X001096Y012670D01*
X001096Y012571D02*
X000996Y012571D01*
X000996Y012473D02*
X000486Y012473D01*
X000486Y012571D02*
X000494Y012571D01*
X000486Y012670D02*
X000494Y012670D01*
X000486Y012768D02*
X000494Y012768D01*
X000486Y012867D02*
X000494Y012867D01*
X000486Y012965D02*
X000555Y012965D01*
X000486Y013064D02*
X015582Y013064D01*
X015582Y013162D02*
X000486Y013162D01*
X000486Y013261D02*
X015582Y013261D01*
X015582Y013359D02*
X000486Y013359D01*
X000486Y013458D02*
X015582Y013458D01*
X015582Y013556D02*
X000486Y013556D01*
X000486Y013655D02*
X015582Y013655D01*
X015582Y013753D02*
X002622Y013753D01*
X002639Y013760D02*
X002680Y013787D01*
X002714Y013822D01*
X002741Y013862D01*
X002760Y013907D01*
X002769Y013955D01*
X002769Y013979D01*
X002769Y014003D01*
X002760Y014051D01*
X002741Y014096D01*
X002714Y014136D01*
X002680Y014171D01*
X002639Y014198D01*
X002594Y014216D01*
X002547Y014226D01*
X002522Y014226D01*
X002498Y014226D01*
X002450Y014216D01*
X002405Y014198D01*
X002365Y014171D01*
X002330Y014136D01*
X002303Y014096D01*
X002285Y014051D01*
X002275Y014003D01*
X002275Y013979D01*
X002522Y013979D01*
X002522Y013979D01*
X002522Y014226D01*
X002522Y013979D01*
X002522Y013979D01*
X002275Y013979D01*
X002275Y013955D01*
X002285Y013907D01*
X002303Y013862D01*
X002330Y013822D01*
X002365Y013787D01*
X002405Y013760D01*
X002450Y013742D01*
X002498Y013732D01*
X002522Y013732D01*
X002522Y013979D01*
X002522Y013979D01*
X002769Y013979D01*
X002522Y013979D01*
X002522Y013979D01*
X002522Y013732D01*
X002547Y013732D01*
X002594Y013742D01*
X002639Y013760D01*
X002522Y013753D02*
X002522Y013753D01*
X002522Y013852D02*
X002522Y013852D01*
X002522Y013950D02*
X002522Y013950D01*
X002522Y014049D02*
X002522Y014049D01*
X002522Y014147D02*
X002522Y014147D01*
X002341Y014147D02*
X001802Y014147D01*
X001901Y014246D02*
X007211Y014246D01*
X007228Y014257D02*
X007188Y014230D01*
X007153Y014195D01*
X007126Y014155D01*
X007108Y014110D01*
X007098Y014062D01*
X007098Y014038D01*
X007345Y014038D01*
X007345Y014285D01*
X007321Y014285D01*
X007273Y014275D01*
X007228Y014257D01*
X007345Y014246D02*
X007345Y014246D01*
X007345Y014285D02*
X007369Y014285D01*
X007417Y014275D01*
X007462Y014257D01*
X007502Y014230D01*
X007537Y014195D01*
X007564Y014155D01*
X007582Y014110D01*
X007592Y014062D01*
X007592Y014038D01*
X007345Y014038D01*
X007345Y014038D01*
X007345Y014038D01*
X007345Y014285D01*
X007345Y014147D02*
X007345Y014147D01*
X007345Y014049D02*
X007345Y014049D01*
X007345Y014038D02*
X007345Y014038D01*
X007098Y014038D01*
X007098Y014014D01*
X007108Y013966D01*
X007126Y013921D01*
X007153Y013881D01*
X007188Y013846D01*
X007228Y013819D01*
X007273Y013801D01*
X007321Y013791D01*
X007345Y013791D01*
X007345Y014038D01*
X007345Y014038D01*
X007592Y014038D01*
X007592Y014014D01*
X007582Y013966D01*
X007564Y013921D01*
X007537Y013881D01*
X007502Y013846D01*
X007462Y013819D01*
X007417Y013801D01*
X007369Y013791D01*
X007345Y013791D01*
X007345Y014038D01*
X007345Y013950D02*
X007345Y013950D01*
X007345Y013852D02*
X007345Y013852D01*
X007182Y013852D02*
X002734Y013852D01*
X002768Y013950D02*
X007114Y013950D01*
X007098Y014049D02*
X002760Y014049D01*
X002703Y014147D02*
X007123Y014147D01*
X007479Y014246D02*
X009068Y014246D01*
X009067Y014239D02*
X009067Y014215D01*
X009067Y014191D01*
X009076Y014143D01*
X009095Y014098D01*
X009122Y014058D01*
X009156Y014023D01*
X009197Y013996D01*
X009242Y013978D01*
X009289Y013968D01*
X009314Y013968D01*
X009338Y013968D01*
X009386Y013978D01*
X009430Y013996D01*
X009471Y014023D01*
X009505Y014058D01*
X009532Y014098D01*
X009551Y014143D01*
X009560Y014191D01*
X009560Y014215D01*
X009314Y014215D01*
X009314Y014215D01*
X009560Y014215D01*
X009560Y014239D01*
X009551Y014287D01*
X009532Y014332D01*
X009505Y014372D01*
X009471Y014407D01*
X009430Y014434D01*
X009386Y014452D01*
X009338Y014462D01*
X009314Y014462D01*
X009314Y014215D01*
X009314Y013968D01*
X009314Y014215D01*
X009314Y014215D01*
X009314Y014215D01*
X009314Y014462D01*
X009289Y014462D01*
X009242Y014452D01*
X009197Y014434D01*
X009156Y014407D01*
X009122Y014372D01*
X009095Y014332D01*
X009076Y014287D01*
X009067Y014239D01*
X009067Y014215D02*
X009314Y014215D01*
X009067Y014215D01*
X009075Y014147D02*
X007567Y014147D01*
X007592Y014049D02*
X009131Y014049D01*
X009314Y014049D02*
X009314Y014049D01*
X009314Y014147D02*
X009314Y014147D01*
X009314Y014215D02*
X009314Y014215D01*
X009314Y014246D02*
X009314Y014246D01*
X009314Y014344D02*
X009314Y014344D01*
X009314Y014443D02*
X009314Y014443D01*
X009410Y014443D02*
X014030Y014443D01*
X013976Y014541D02*
X004033Y014541D01*
X004039Y014556D02*
X004049Y014604D01*
X004049Y014628D01*
X003802Y014628D01*
X003802Y014382D01*
X003826Y014382D01*
X003874Y014391D01*
X003919Y014410D01*
X003959Y014437D01*
X003993Y014471D01*
X004020Y014512D01*
X004039Y014556D01*
X004049Y014629D02*
X004049Y014653D01*
X004039Y014701D01*
X004020Y014745D01*
X003993Y014786D01*
X003959Y014820D01*
X003919Y014847D01*
X003874Y014866D01*
X003826Y014875D01*
X003802Y014875D01*
X003802Y014629D01*
X003802Y014629D01*
X004049Y014629D01*
X004049Y014640D02*
X004426Y014640D01*
X004432Y014634D02*
X004472Y014607D01*
X004517Y014588D01*
X004565Y014579D01*
X004589Y014579D01*
X004589Y014825D01*
X004589Y014825D01*
X004342Y014825D01*
X004342Y014801D01*
X004352Y014753D01*
X004370Y014708D01*
X004397Y014668D01*
X004432Y014634D01*
X004358Y014738D02*
X004024Y014738D01*
X003935Y014837D02*
X004342Y014837D01*
X004342Y014825D02*
X004589Y014825D01*
X004589Y014825D01*
X004589Y014579D01*
X004613Y014579D01*
X004661Y014588D01*
X004706Y014607D01*
X004746Y014634D01*
X004781Y014668D01*
X004808Y014708D01*
X004826Y014753D01*
X004836Y014801D01*
X004836Y014825D01*
X004589Y014825D01*
X004589Y014825D01*
X004836Y014825D01*
X004836Y014850D01*
X004826Y014897D01*
X004808Y014942D01*
X004781Y014983D01*
X004746Y015017D01*
X004706Y015044D01*
X004661Y015063D01*
X004613Y015072D01*
X004589Y015072D01*
X004565Y015072D01*
X004517Y015063D01*
X004472Y015044D01*
X004432Y015017D01*
X004397Y014983D01*
X004370Y014942D01*
X004352Y014897D01*
X004342Y014850D01*
X004342Y014825D01*
X004367Y014935D02*
X002159Y014935D01*
X002159Y014837D02*
X002881Y014837D01*
X002897Y014847D02*
X002857Y014820D01*
X002823Y014786D01*
X002796Y014745D01*
X002777Y014701D01*
X002767Y014653D01*
X002767Y014629D01*
X003014Y014629D01*
X003014Y014875D01*
X002990Y014875D01*
X002942Y014866D01*
X002897Y014847D01*
X003014Y014837D02*
X003014Y014837D01*
X003014Y014875D02*
X003039Y014875D01*
X003086Y014866D01*
X003131Y014847D01*
X003172Y014820D01*
X003206Y014786D01*
X003233Y014745D01*
X003252Y014701D01*
X003261Y014653D01*
X003261Y014629D01*
X003014Y014629D01*
X003014Y014629D01*
X003014Y014628D01*
X003014Y014628D01*
X003014Y014382D01*
X002990Y014382D01*
X002942Y014391D01*
X002897Y014410D01*
X002857Y014437D01*
X002823Y014471D01*
X002796Y014512D01*
X002777Y014556D01*
X002767Y014604D01*
X002767Y014628D01*
X003014Y014628D01*
X003014Y014382D01*
X003039Y014382D01*
X003086Y014391D01*
X003131Y014410D01*
X003172Y014437D01*
X003206Y014471D01*
X003233Y014512D01*
X003252Y014556D01*
X003261Y014604D01*
X003261Y014628D01*
X003014Y014628D01*
X003014Y014629D01*
X003014Y014875D01*
X003014Y014738D02*
X003014Y014738D01*
X003014Y014640D02*
X003014Y014640D01*
X003014Y014541D02*
X003014Y014541D01*
X003014Y014443D02*
X003014Y014443D01*
X002851Y014443D02*
X002038Y014443D01*
X002092Y014541D02*
X002783Y014541D01*
X002767Y014640D02*
X002118Y014640D01*
X002145Y014738D02*
X002793Y014738D01*
X003147Y014837D02*
X003669Y014837D01*
X003685Y014847D02*
X003644Y014820D01*
X003610Y014786D01*
X003583Y014745D01*
X003564Y014701D01*
X003555Y014653D01*
X003555Y014629D01*
X003802Y014629D01*
X003802Y014628D01*
X003802Y014628D01*
X003802Y014382D01*
X003777Y014382D01*
X003730Y014391D01*
X003685Y014410D01*
X003644Y014437D01*
X003610Y014471D01*
X003583Y014512D01*
X003564Y014556D01*
X003555Y014604D01*
X003555Y014628D01*
X003802Y014628D01*
X003802Y014629D01*
X003802Y014875D01*
X003777Y014875D01*
X003730Y014866D01*
X003685Y014847D01*
X003802Y014837D02*
X003802Y014837D01*
X003802Y014738D02*
X003802Y014738D01*
X003802Y014640D02*
X003802Y014640D01*
X003802Y014541D02*
X003802Y014541D01*
X003802Y014443D02*
X003802Y014443D01*
X003965Y014443D02*
X009218Y014443D01*
X009103Y014344D02*
X001981Y014344D01*
X002284Y014049D02*
X001657Y014049D01*
X001430Y013950D02*
X002276Y013950D01*
X002310Y013852D02*
X000486Y013852D01*
X000486Y013950D02*
X000858Y013950D01*
X000631Y014049D02*
X000486Y014049D01*
X000486Y014147D02*
X000486Y014147D01*
X000486Y013753D02*
X002422Y013753D01*
X003177Y014443D02*
X003639Y014443D01*
X003571Y014541D02*
X003245Y014541D01*
X003261Y014640D02*
X003555Y014640D01*
X003580Y014738D02*
X003236Y014738D01*
X002159Y015034D02*
X004456Y015034D01*
X004589Y015034D02*
X004589Y015034D01*
X004589Y015072D02*
X004589Y014825D01*
X004589Y014825D01*
X004589Y015072D01*
X004589Y014935D02*
X004589Y014935D01*
X004589Y014837D02*
X004589Y014837D01*
X004589Y014738D02*
X004589Y014738D01*
X004589Y014640D02*
X004589Y014640D01*
X004752Y014640D02*
X005213Y014640D01*
X005219Y014634D02*
X005260Y014607D01*
X005305Y014588D01*
X005352Y014579D01*
X005377Y014579D01*
X005401Y014579D01*
X005449Y014588D01*
X005493Y014607D01*
X005534Y014634D01*
X005568Y014668D01*
X005595Y014708D01*
X005614Y014753D01*
X005623Y014801D01*
X005623Y014825D01*
X005377Y014825D01*
X005377Y014825D01*
X005377Y014579D01*
X005377Y014825D01*
X005377Y014825D01*
X005623Y014825D01*
X005623Y014850D01*
X005614Y014897D01*
X005595Y014942D01*
X005568Y014983D01*
X005534Y015017D01*
X005493Y015044D01*
X005449Y015063D01*
X005401Y015072D01*
X005377Y015072D01*
X005377Y014825D01*
X005377Y014825D01*
X005130Y014825D01*
X005130Y014801D01*
X005139Y014753D01*
X005158Y014708D01*
X005185Y014668D01*
X005219Y014634D01*
X005146Y014738D02*
X004820Y014738D01*
X004836Y014837D02*
X005130Y014837D01*
X005130Y014825D02*
X005377Y014825D01*
X005377Y014825D01*
X005377Y015072D01*
X005352Y015072D01*
X005305Y015063D01*
X005260Y015044D01*
X005219Y015017D01*
X005185Y014983D01*
X005158Y014942D01*
X005139Y014897D01*
X005130Y014850D01*
X005130Y014825D01*
X005155Y014935D02*
X004811Y014935D01*
X004722Y015034D02*
X005244Y015034D01*
X005377Y015034D02*
X005377Y015034D01*
X005377Y014935D02*
X005377Y014935D01*
X005377Y014837D02*
X005377Y014837D01*
X005377Y014738D02*
X005377Y014738D01*
X005377Y014640D02*
X005377Y014640D01*
X005540Y014640D02*
X007182Y014640D01*
X007188Y014634D02*
X007228Y014607D01*
X007273Y014588D01*
X007321Y014579D01*
X007345Y014579D01*
X007345Y014825D01*
X007345Y014825D01*
X007345Y014579D01*
X007369Y014579D01*
X007417Y014588D01*
X007462Y014607D01*
X007502Y014634D01*
X007537Y014668D01*
X007564Y014708D01*
X007582Y014753D01*
X007592Y014801D01*
X007592Y014825D01*
X007345Y014825D01*
X007098Y014825D01*
X007098Y014801D01*
X007108Y014753D01*
X007126Y014708D01*
X007153Y014668D01*
X007188Y014634D01*
X007114Y014738D02*
X005608Y014738D01*
X005623Y014837D02*
X007098Y014837D01*
X007098Y014825D02*
X007345Y014825D01*
X007345Y014825D01*
X007345Y014825D01*
X007592Y014825D01*
X007592Y014850D01*
X007582Y014897D01*
X007564Y014942D01*
X007537Y014983D01*
X007502Y015017D01*
X007462Y015044D01*
X007417Y015063D01*
X007369Y015072D01*
X007345Y015072D01*
X007321Y015072D01*
X007273Y015063D01*
X007228Y015044D01*
X007188Y015017D01*
X007153Y014983D01*
X007126Y014942D01*
X007108Y014897D01*
X007098Y014850D01*
X007098Y014825D01*
X007123Y014935D02*
X005598Y014935D01*
X005509Y015034D02*
X007212Y015034D01*
X007345Y015034D02*
X007345Y015034D01*
X007345Y015072D02*
X007345Y014825D01*
X007345Y014825D01*
X007345Y015072D01*
X007345Y014935D02*
X007345Y014935D01*
X007345Y014837D02*
X007345Y014837D01*
X007345Y014738D02*
X007345Y014738D01*
X007345Y014640D02*
X007345Y014640D01*
X007508Y014640D02*
X013950Y014640D01*
X013923Y014738D02*
X007576Y014738D01*
X007592Y014837D02*
X008166Y014837D01*
X008172Y014830D02*
X008212Y014803D01*
X008257Y014785D01*
X008305Y014775D01*
X008329Y014775D01*
X008329Y015022D01*
X008082Y015022D01*
X008082Y014998D01*
X008092Y014950D01*
X008111Y014905D01*
X008138Y014865D01*
X008172Y014830D01*
X008098Y014935D02*
X007567Y014935D01*
X007478Y015034D02*
X008082Y015034D01*
X008082Y015022D02*
X008329Y015022D01*
X008329Y015022D01*
X008329Y015022D01*
X008329Y014775D01*
X008354Y014775D01*
X008401Y014785D01*
X008446Y014803D01*
X008487Y014830D01*
X008521Y014865D01*
X008548Y014905D01*
X008567Y014950D01*
X008576Y014998D01*
X008576Y015022D01*
X008329Y015022D01*
X008329Y015269D01*
X008305Y015269D01*
X008257Y015260D01*
X008212Y015241D01*
X008172Y015214D01*
X008138Y015180D01*
X008111Y015139D01*
X008092Y015094D01*
X008082Y015047D01*
X008082Y015022D01*
X008108Y015132D02*
X002139Y015132D01*
X002112Y015231D02*
X008197Y015231D01*
X008329Y015231D02*
X008329Y015231D01*
X008329Y015269D02*
X008329Y015022D01*
X008329Y015022D01*
X008329Y015022D01*
X008576Y015022D01*
X008576Y015047D01*
X008567Y015094D01*
X008548Y015139D01*
X008521Y015180D01*
X008487Y015214D01*
X008446Y015241D01*
X008401Y015260D01*
X008354Y015269D01*
X008329Y015269D01*
X008329Y015132D02*
X008329Y015132D01*
X008329Y015034D02*
X008329Y015034D01*
X008329Y014935D02*
X008329Y014935D01*
X008329Y014837D02*
X008329Y014837D01*
X008493Y014837D02*
X013909Y014837D01*
X013909Y014935D02*
X008560Y014935D01*
X008576Y015034D02*
X013909Y015034D01*
X013929Y015132D02*
X008551Y015132D01*
X008462Y015231D02*
X013956Y015231D01*
X013986Y015329D02*
X002082Y015329D01*
X002025Y015428D02*
X014043Y015428D01*
X014100Y015526D02*
X001968Y015526D01*
X002996Y012965D02*
X003096Y012965D01*
X003096Y012867D02*
X002996Y012867D01*
X002996Y012768D02*
X003096Y012768D01*
X003096Y012670D02*
X002996Y012670D01*
X002996Y012374D02*
X003096Y012374D01*
X003096Y012276D02*
X002996Y012276D01*
X002996Y012177D02*
X003096Y012177D01*
X003096Y012079D02*
X002996Y012079D01*
X002996Y011980D02*
X003096Y011980D01*
X003096Y011882D02*
X002996Y011882D01*
X002597Y011685D02*
X003866Y011685D01*
X003860Y011669D02*
X003850Y011621D01*
X003850Y011597D01*
X003850Y011573D01*
X003860Y011525D01*
X003878Y011480D01*
X003905Y011440D01*
X003940Y011405D01*
X003980Y011378D01*
X004025Y011360D01*
X004073Y011350D01*
X004097Y011350D01*
X004121Y011350D01*
X004169Y011360D01*
X004214Y011378D01*
X004254Y011405D01*
X004289Y011440D01*
X004316Y011480D01*
X004334Y011525D01*
X004344Y011573D01*
X004344Y011597D01*
X004344Y011621D01*
X004334Y011669D01*
X004316Y011714D01*
X004289Y011754D01*
X004254Y011789D01*
X004214Y011816D01*
X004169Y011834D01*
X004121Y011844D01*
X004097Y011844D01*
X004073Y011844D01*
X004025Y011834D01*
X003980Y011816D01*
X003940Y011789D01*
X003905Y011754D01*
X003878Y011714D01*
X003860Y011669D01*
X003850Y011597D02*
X004097Y011597D01*
X004097Y011597D01*
X004097Y011350D01*
X004097Y011597D01*
X003850Y011597D01*
X003850Y011586D02*
X002638Y011586D01*
X002655Y011488D02*
X003875Y011488D01*
X003964Y011389D02*
X002655Y011389D01*
X002650Y011291D02*
X005612Y011291D01*
X005626Y011300D02*
X005585Y011273D01*
X005551Y011239D01*
X005524Y011198D01*
X005505Y011153D01*
X005496Y011106D01*
X005496Y011081D01*
X005496Y011057D01*
X005505Y011009D01*
X005524Y010964D01*
X005551Y010924D01*
X005585Y010890D01*
X005626Y010863D01*
X005671Y010844D01*
X005718Y010834D01*
X005743Y010834D01*
X005767Y010834D01*
X005815Y010844D01*
X005860Y010863D01*
X005900Y010890D01*
X005934Y010924D01*
X005961Y010964D01*
X005980Y011009D01*
X005990Y011057D01*
X005990Y011081D01*
X005743Y011081D01*
X005743Y011081D01*
X005743Y010834D01*
X005743Y011081D01*
X005743Y011081D01*
X005990Y011081D01*
X005990Y011106D01*
X005980Y011153D01*
X005961Y011198D01*
X005934Y011239D01*
X005900Y011273D01*
X005860Y011300D01*
X005815Y011319D01*
X005767Y011328D01*
X005743Y011328D01*
X005743Y011081D01*
X005743Y011081D01*
X005496Y011081D01*
X005743Y011081D01*
X005743Y011081D01*
X005743Y011328D01*
X005718Y011328D01*
X005671Y011319D01*
X005626Y011300D01*
X005743Y011291D02*
X005743Y011291D01*
X005743Y011192D02*
X005743Y011192D01*
X005743Y011094D02*
X005743Y011094D01*
X005743Y010995D02*
X005743Y010995D01*
X005743Y010897D02*
X005743Y010897D01*
X005907Y010897D02*
X007469Y010897D01*
X007461Y010909D02*
X007488Y010869D01*
X007522Y010834D01*
X007563Y010807D01*
X007608Y010789D01*
X007655Y010779D01*
X007680Y010779D01*
X007704Y010779D01*
X007752Y010789D01*
X007797Y010807D01*
X007837Y010834D01*
X007871Y010869D01*
X007898Y010909D01*
X007917Y010954D01*
X007927Y011002D01*
X007927Y011026D01*
X007680Y011026D01*
X007680Y011026D01*
X007680Y010779D01*
X007680Y011026D01*
X007680Y011026D01*
X007927Y011026D01*
X007927Y011050D01*
X007917Y011098D01*
X007898Y011143D01*
X007871Y011183D01*
X007837Y011218D01*
X007797Y011245D01*
X007752Y011264D01*
X007704Y011273D01*
X007680Y011273D01*
X007680Y011026D01*
X007680Y011026D01*
X007433Y011026D01*
X007433Y011002D01*
X007442Y010954D01*
X007461Y010909D01*
X007434Y010995D02*
X005974Y010995D01*
X005990Y011094D02*
X007441Y011094D01*
X007442Y011098D02*
X007433Y011050D01*
X007433Y011026D01*
X007680Y011026D01*
X007680Y011026D01*
X007680Y011273D01*
X007655Y011273D01*
X007608Y011264D01*
X007563Y011245D01*
X007522Y011218D01*
X007488Y011183D01*
X007461Y011143D01*
X007442Y011098D01*
X007496Y011192D02*
X005964Y011192D01*
X005874Y011291D02*
X008500Y011291D01*
X008474Y011264D02*
X008437Y011174D01*
X008437Y011075D01*
X008474Y010985D01*
X008544Y010915D01*
X008635Y010878D01*
X008733Y010878D01*
X008823Y010915D01*
X008893Y010985D01*
X008930Y011075D01*
X008930Y011174D01*
X008893Y011264D01*
X008823Y011334D01*
X008733Y011371D01*
X008635Y011371D01*
X008544Y011334D01*
X008474Y011264D01*
X008444Y011192D02*
X007863Y011192D01*
X007918Y011094D02*
X008437Y011094D01*
X008470Y010995D02*
X007925Y010995D01*
X007890Y010897D02*
X008589Y010897D01*
X008778Y010897D02*
X012854Y010897D01*
X012842Y010908D02*
X012877Y010874D01*
X012917Y010847D01*
X012962Y010828D01*
X013010Y010819D01*
X013034Y010819D01*
X013058Y010819D01*
X013106Y010828D01*
X013151Y010847D01*
X013191Y010874D01*
X013226Y010908D01*
X013253Y010949D01*
X013271Y010994D01*
X013281Y011041D01*
X013281Y011066D01*
X013281Y011090D01*
X013271Y011138D01*
X013253Y011182D01*
X013226Y011223D01*
X013191Y011257D01*
X013151Y011284D01*
X013106Y011303D01*
X013058Y011312D01*
X013034Y011312D01*
X013010Y011312D01*
X012962Y011303D01*
X012917Y011284D01*
X012877Y011257D01*
X012842Y011223D01*
X012815Y011182D01*
X012797Y011138D01*
X012787Y011090D01*
X012787Y011066D01*
X013034Y011066D01*
X013034Y011312D01*
X013034Y011066D01*
X013034Y011066D01*
X013281Y011066D01*
X013034Y011066D01*
X013034Y011066D01*
X013034Y011066D01*
X012787Y011066D01*
X012787Y011041D01*
X012797Y010994D01*
X012815Y010949D01*
X012842Y010908D01*
X012796Y010995D02*
X008897Y010995D01*
X008930Y011094D02*
X012788Y011094D01*
X012822Y011192D02*
X008923Y011192D01*
X008867Y011291D02*
X012932Y011291D01*
X013034Y011291D02*
X013034Y011291D01*
X013034Y011192D02*
X013034Y011192D01*
X013034Y011094D02*
X013034Y011094D01*
X013034Y011065D02*
X013034Y010819D01*
X013034Y011065D01*
X013034Y011065D01*
X013034Y010995D02*
X013034Y010995D01*
X013034Y010897D02*
X013034Y010897D01*
X013214Y010897D02*
X015582Y010897D01*
X015582Y010995D02*
X013272Y010995D01*
X013280Y011094D02*
X015582Y011094D01*
X015582Y011192D02*
X013246Y011192D01*
X013136Y011291D02*
X015582Y011291D01*
X015582Y011389D02*
X004230Y011389D01*
X004319Y011488D02*
X015582Y011488D01*
X015582Y011586D02*
X004344Y011586D01*
X004344Y011597D02*
X004097Y011597D01*
X004097Y011597D01*
X004097Y011597D01*
X004097Y011844D01*
X004097Y011597D01*
X004097Y011597D01*
X004344Y011597D01*
X004328Y011685D02*
X015582Y011685D01*
X015582Y011783D02*
X004260Y011783D01*
X004097Y011783D02*
X004097Y011783D01*
X004097Y011685D02*
X004097Y011685D01*
X004097Y011586D02*
X004097Y011586D01*
X004097Y011488D02*
X004097Y011488D01*
X004097Y011389D02*
X004097Y011389D01*
X004261Y010995D02*
X005511Y010995D01*
X005496Y011094D02*
X002568Y011094D01*
X002609Y011192D02*
X005521Y011192D01*
X005578Y010897D02*
X004328Y010897D01*
X004344Y010798D02*
X007585Y010798D01*
X007680Y010798D02*
X007680Y010798D01*
X007774Y010798D02*
X014156Y010798D01*
X014071Y010700D02*
X004319Y010700D01*
X003965Y010601D02*
X003598Y010601D01*
X003598Y010700D02*
X003875Y010700D01*
X003850Y010798D02*
X003598Y010798D01*
X003594Y010897D02*
X003866Y010897D01*
X003096Y010897D02*
X002996Y010897D01*
X002996Y010798D02*
X003096Y010798D01*
X003096Y010700D02*
X002996Y010700D01*
X002996Y010601D02*
X003096Y010601D01*
X003096Y010503D02*
X002996Y010503D01*
X002996Y010207D02*
X003096Y010207D01*
X003096Y010109D02*
X002996Y010109D01*
X002996Y010010D02*
X003096Y010010D01*
X003096Y009912D02*
X002996Y009912D01*
X002548Y011783D02*
X003934Y011783D01*
X003598Y011980D02*
X015582Y011980D01*
X015582Y011882D02*
X003535Y011882D01*
X003598Y012079D02*
X015582Y012079D01*
X015582Y012177D02*
X003598Y012177D01*
X003598Y012670D02*
X015582Y012670D01*
X015582Y012768D02*
X003598Y012768D01*
X003598Y012867D02*
X015582Y012867D01*
X015582Y012965D02*
X003537Y012965D01*
X002494Y011980D02*
X002294Y011980D01*
X002449Y011882D02*
X002557Y011882D01*
X001096Y011872D02*
X001096Y012374D01*
X001096Y012474D01*
X001096Y012374D02*
X000996Y012374D01*
X000996Y012276D02*
X001096Y012276D01*
X001096Y012177D02*
X000996Y012177D01*
X000996Y012079D02*
X001096Y012079D01*
X001096Y011980D02*
X000996Y011980D01*
X000494Y010798D02*
X000486Y010798D01*
X000486Y010700D02*
X000494Y010700D01*
X000486Y010601D02*
X000494Y010601D01*
X000486Y010503D02*
X000494Y010503D01*
X000486Y009124D02*
X010805Y009124D01*
X011156Y009025D02*
X012471Y009025D01*
X012484Y009016D02*
X012529Y008997D01*
X012577Y008988D01*
X012601Y008988D01*
X012625Y008988D01*
X012673Y008997D01*
X012718Y009016D01*
X012758Y009043D01*
X012793Y009077D01*
X012820Y009118D01*
X012838Y009163D01*
X012848Y009210D01*
X012848Y009235D01*
X012848Y009259D01*
X012838Y009307D01*
X012820Y009352D01*
X012793Y009392D01*
X012758Y009427D01*
X012718Y009454D01*
X012673Y009472D01*
X012625Y009482D01*
X012601Y009482D01*
X012601Y009235D01*
X012601Y009235D01*
X012601Y009482D01*
X012577Y009482D01*
X012529Y009472D01*
X012484Y009454D01*
X012444Y009427D01*
X012409Y009392D01*
X012382Y009352D01*
X012364Y009307D01*
X012354Y009259D01*
X012354Y009235D01*
X012601Y009235D01*
X012848Y009235D01*
X012601Y009235D01*
X012601Y009235D01*
X012601Y009235D01*
X012601Y008988D01*
X012601Y009235D01*
X012601Y009235D01*
X012354Y009235D01*
X012354Y009210D01*
X012364Y009163D01*
X012382Y009118D01*
X012409Y009077D01*
X012444Y009043D01*
X012484Y009016D01*
X012601Y009025D02*
X012601Y009025D01*
X012601Y009124D02*
X012601Y009124D01*
X012601Y009222D02*
X012601Y009222D01*
X012601Y009321D02*
X012601Y009321D01*
X012601Y009419D02*
X012601Y009419D01*
X012766Y009419D02*
X013637Y009419D01*
X013626Y009414D02*
X013585Y009387D01*
X013551Y009353D01*
X013524Y009312D01*
X013505Y009267D01*
X013496Y009220D01*
X013496Y009195D01*
X013496Y009171D01*
X013505Y009123D01*
X013524Y009079D01*
X013551Y009038D01*
X013585Y009004D01*
X013626Y008977D01*
X013671Y008958D01*
X013718Y008949D01*
X013743Y008949D01*
X013767Y008949D01*
X013815Y008958D01*
X013860Y008977D01*
X013900Y009004D01*
X013934Y009038D01*
X013961Y009079D01*
X013980Y009123D01*
X013990Y009171D01*
X013990Y009195D01*
X013743Y009195D01*
X013743Y008949D01*
X013743Y009195D01*
X013743Y009195D01*
X013743Y009195D01*
X013990Y009195D01*
X013990Y009220D01*
X013980Y009267D01*
X013961Y009312D01*
X013934Y009353D01*
X013900Y009387D01*
X013860Y009414D01*
X013815Y009433D01*
X013767Y009442D01*
X013743Y009442D01*
X013743Y009195D01*
X013496Y009195D01*
X013743Y009195D01*
X013743Y009195D01*
X013743Y009195D01*
X013743Y009442D01*
X013718Y009442D01*
X013671Y009433D01*
X013626Y009414D01*
X013743Y009419D02*
X013743Y009419D01*
X013743Y009321D02*
X013743Y009321D01*
X013743Y009222D02*
X013743Y009222D01*
X013743Y009124D02*
X013743Y009124D01*
X013743Y009025D02*
X013743Y009025D01*
X013921Y009025D02*
X015582Y009025D01*
X015582Y009124D02*
X013980Y009124D01*
X013989Y009222D02*
X015582Y009222D01*
X015582Y009321D02*
X013956Y009321D01*
X013848Y009419D02*
X015582Y009419D01*
X015582Y009715D02*
X014976Y009715D01*
X014993Y009813D02*
X015582Y009813D01*
X015582Y009912D02*
X014970Y009912D01*
X014885Y010010D02*
X015582Y010010D01*
X015582Y010109D02*
X013956Y010109D01*
X013846Y010207D02*
X015582Y010207D01*
X015081Y010404D02*
X015081Y010404D01*
X015081Y010503D02*
X015081Y010503D01*
X015081Y010534D02*
X015081Y010534D01*
X015081Y010601D02*
X015081Y010601D01*
X015081Y010700D02*
X015081Y010700D01*
X014898Y010700D02*
X014517Y010700D01*
X014541Y010601D02*
X014843Y010601D01*
X014836Y010503D02*
X014524Y010503D01*
X014454Y010404D02*
X014871Y010404D01*
X013529Y009321D02*
X012833Y009321D01*
X012848Y009222D02*
X013496Y009222D01*
X013505Y009124D02*
X012822Y009124D01*
X012731Y009025D02*
X013564Y009025D01*
X012380Y009124D02*
X011247Y009124D01*
X011273Y009222D02*
X012354Y009222D01*
X012369Y009321D02*
X011258Y009321D01*
X011191Y009419D02*
X012436Y009419D01*
X011694Y008253D02*
X011649Y008271D01*
X011602Y008281D01*
X011577Y008281D01*
X011553Y008281D01*
X011505Y008271D01*
X011460Y008253D01*
X011420Y008226D01*
X011386Y008191D01*
X011359Y008151D01*
X011340Y008106D01*
X011330Y008058D01*
X011330Y008034D01*
X011330Y008010D01*
X011340Y007962D01*
X011359Y007917D01*
X011386Y007877D01*
X011420Y007842D01*
X011460Y007815D01*
X011505Y007797D01*
X011553Y007787D01*
X011577Y007787D01*
X011577Y008034D01*
X011330Y008034D01*
X011577Y008034D01*
X011577Y008034D01*
X011577Y008034D01*
X011577Y008281D01*
X011577Y008034D01*
X011577Y008034D01*
X011577Y007787D01*
X011602Y007787D01*
X011649Y007797D01*
X011694Y007815D01*
X011735Y007842D01*
X011769Y007877D01*
X011796Y007917D01*
X011815Y007962D01*
X011824Y008010D01*
X011824Y008034D01*
X011577Y008034D01*
X011824Y008034D01*
X011824Y008058D01*
X011815Y008106D01*
X011796Y008151D01*
X011769Y008191D01*
X011735Y008226D01*
X011694Y008253D01*
X011718Y008237D02*
X014776Y008237D01*
X014716Y008139D02*
X011801Y008139D01*
X011824Y008040D02*
X014716Y008040D01*
X014716Y007942D02*
X011806Y007942D01*
X011735Y007843D02*
X014716Y007843D01*
X014716Y007745D02*
X008853Y007745D01*
X008862Y007765D02*
X008871Y007813D01*
X008871Y007837D01*
X008625Y007837D01*
X008625Y007837D01*
X008871Y007837D01*
X008871Y007861D01*
X008862Y007909D01*
X008843Y007954D01*
X008816Y007995D01*
X008782Y008029D01*
X008741Y008056D01*
X008697Y008075D01*
X008649Y008084D01*
X008625Y008084D01*
X008625Y007837D01*
X008625Y007590D01*
X008649Y007590D01*
X008697Y007600D01*
X008741Y007618D01*
X008782Y007645D01*
X008816Y007680D01*
X008843Y007720D01*
X008862Y007765D01*
X008871Y007843D02*
X011419Y007843D01*
X011348Y007942D02*
X008849Y007942D01*
X008765Y008040D02*
X011330Y008040D01*
X011353Y008139D02*
X005502Y008139D01*
X005497Y008151D02*
X005470Y008191D01*
X005435Y008226D01*
X005395Y008253D01*
X005350Y008271D01*
X005302Y008281D01*
X005278Y008281D01*
X005278Y008034D01*
X005278Y008034D01*
X005278Y007787D01*
X005302Y007787D01*
X005350Y007797D01*
X005395Y007815D01*
X005435Y007842D01*
X005470Y007877D01*
X005497Y007917D01*
X005515Y007962D01*
X005525Y008010D01*
X005525Y008034D01*
X005278Y008034D01*
X005278Y008034D01*
X005525Y008034D01*
X005525Y008058D01*
X005515Y008106D01*
X005497Y008151D01*
X005525Y008040D02*
X007696Y008040D01*
X007680Y008029D02*
X007645Y007995D01*
X007618Y007954D01*
X007600Y007909D01*
X007590Y007861D01*
X007590Y007837D01*
X007590Y007813D01*
X007600Y007765D01*
X007618Y007720D01*
X007645Y007680D01*
X007680Y007645D01*
X007720Y007618D01*
X007765Y007600D01*
X007813Y007590D01*
X007837Y007590D01*
X007837Y007837D01*
X007837Y007837D01*
X007590Y007837D01*
X007837Y007837D01*
X007837Y007837D01*
X007837Y007590D01*
X007861Y007590D01*
X007909Y007600D01*
X007954Y007618D01*
X007995Y007645D01*
X008029Y007680D01*
X008056Y007720D01*
X008075Y007765D01*
X008084Y007813D01*
X008084Y007837D01*
X007837Y007837D01*
X007837Y007837D01*
X007837Y008084D01*
X007813Y008084D01*
X007765Y008075D01*
X007720Y008056D01*
X007680Y008029D01*
X007613Y007942D02*
X005507Y007942D01*
X005436Y007843D02*
X007590Y007843D01*
X007608Y007745D02*
X005108Y007745D01*
X005103Y007757D02*
X005076Y007798D01*
X005042Y007832D01*
X005001Y007859D01*
X004956Y007878D01*
X004909Y007887D01*
X004884Y007887D01*
X004884Y007745D02*
X004884Y007745D01*
X004884Y007646D02*
X004884Y007646D01*
X004884Y007640D02*
X005131Y007640D01*
X005131Y007665D01*
X005122Y007712D01*
X005103Y007757D01*
X005120Y007843D02*
X005025Y007843D01*
X005131Y007646D02*
X007679Y007646D01*
X007837Y007646D02*
X007837Y007646D01*
X007837Y007745D02*
X007837Y007745D01*
X007837Y007837D02*
X008084Y007837D01*
X008084Y007861D01*
X008075Y007909D01*
X008056Y007954D01*
X008029Y007995D01*
X007995Y008029D01*
X007954Y008056D01*
X007909Y008075D01*
X007861Y008084D01*
X007837Y008084D01*
X007837Y007837D01*
X007837Y007837D01*
X007837Y007843D02*
X007837Y007843D01*
X007837Y007942D02*
X007837Y007942D01*
X007837Y008040D02*
X007837Y008040D01*
X007978Y008040D02*
X008484Y008040D01*
X008467Y008029D02*
X008508Y008056D01*
X008553Y008075D01*
X008600Y008084D01*
X008625Y008084D01*
X008625Y007837D01*
X008625Y007837D01*
X008625Y007837D01*
X008625Y007590D01*
X008600Y007590D01*
X008553Y007600D01*
X008508Y007618D01*
X008467Y007645D01*
X008433Y007680D01*
X008406Y007720D01*
X008387Y007765D01*
X008378Y007813D01*
X008378Y007837D01*
X008625Y007837D01*
X008625Y007837D01*
X008378Y007837D01*
X008378Y007861D01*
X008387Y007909D01*
X008406Y007954D01*
X008433Y007995D01*
X008467Y008029D01*
X008401Y007942D02*
X008061Y007942D01*
X008084Y007843D02*
X008378Y007843D01*
X008396Y007745D02*
X008066Y007745D01*
X007995Y007646D02*
X008467Y007646D01*
X008625Y007646D02*
X008625Y007646D01*
X008625Y007745D02*
X008625Y007745D01*
X008625Y007843D02*
X008625Y007843D01*
X008625Y007942D02*
X008625Y007942D01*
X008625Y008040D02*
X008625Y008040D01*
X008783Y007646D02*
X014716Y007646D01*
X014811Y007257D02*
X014783Y007250D01*
X014758Y007235D01*
X014738Y007215D01*
X014724Y007190D01*
X014716Y007163D01*
X014716Y006901D01*
X015072Y006901D01*
X015072Y007257D01*
X014811Y007257D01*
X014791Y007252D02*
X012021Y007252D01*
X012021Y007247D02*
X011774Y007247D01*
X011774Y007247D01*
X011527Y007247D01*
X011527Y007222D01*
X011537Y007175D01*
X011555Y007130D01*
X011582Y007089D01*
X011617Y007055D01*
X011657Y007028D01*
X011702Y007009D01*
X011750Y007000D01*
X011774Y007000D01*
X011774Y007247D01*
X011774Y007247D01*
X011774Y007000D01*
X011798Y007000D01*
X011846Y007009D01*
X011891Y007028D01*
X011932Y007055D01*
X014716Y007055D01*
X014716Y006957D02*
X005113Y006957D01*
X005122Y006978D02*
X005131Y007025D01*
X005131Y007050D01*
X004884Y007050D01*
X004884Y007050D01*
X004884Y007050D01*
X004884Y006803D01*
X004909Y006803D01*
X004956Y006812D01*
X005001Y006831D01*
X005042Y006858D01*
X005076Y006892D01*
X005103Y006933D01*
X005122Y006978D01*
X005131Y007055D02*
X008073Y007055D01*
X008074Y007055D02*
X008114Y007028D01*
X008159Y007009D01*
X008207Y007000D01*
X008231Y007000D01*
X008255Y007000D01*
X008303Y007009D01*
X008348Y007028D01*
X008388Y007055D01*
X008423Y007089D01*
X008450Y007130D01*
X008468Y007175D01*
X008478Y007222D01*
X008478Y007247D01*
X008231Y007247D01*
X008231Y007247D01*
X008231Y007000D01*
X008231Y007247D01*
X008231Y007247D01*
X007984Y007247D01*
X007984Y007222D01*
X007994Y007175D01*
X008012Y007130D01*
X008039Y007089D01*
X008074Y007055D01*
X008002Y007154D02*
X005109Y007154D01*
X005026Y007252D02*
X007984Y007252D01*
X008231Y007252D02*
X008231Y007252D01*
X008231Y007154D02*
X008231Y007154D01*
X008231Y007055D02*
X008231Y007055D01*
X008388Y007055D02*
X011617Y007055D01*
X011546Y007154D02*
X008459Y007154D01*
X008478Y007252D02*
X011527Y007252D01*
X011550Y007351D02*
X008455Y007351D01*
X008372Y007449D02*
X011633Y007449D01*
X011774Y007449D02*
X011774Y007449D01*
X011774Y007351D02*
X011774Y007351D01*
X011774Y007252D02*
X011774Y007252D01*
X011774Y007154D02*
X011774Y007154D01*
X011774Y007055D02*
X011774Y007055D01*
X011932Y007055D02*
X011966Y007089D01*
X011993Y007130D01*
X012012Y007175D01*
X012021Y007222D01*
X012021Y007247D01*
X012003Y007154D02*
X014716Y007154D01*
X015072Y007154D02*
X015169Y007154D01*
X015169Y007252D02*
X015072Y007252D01*
X015072Y007055D02*
X015169Y007055D01*
X015169Y006957D02*
X015072Y006957D01*
X015072Y006858D02*
X005042Y006858D01*
X004884Y006858D02*
X004884Y006858D01*
X004884Y006957D02*
X004884Y006957D01*
X004884Y007055D02*
X004884Y007055D01*
X004884Y007154D02*
X004884Y007154D01*
X005278Y007843D02*
X005278Y007843D01*
X005278Y007942D02*
X005278Y007942D01*
X005278Y008040D02*
X005278Y008040D01*
X005278Y008139D02*
X005278Y008139D01*
X005278Y008237D02*
X005278Y008237D01*
X005419Y008237D02*
X011437Y008237D01*
X011577Y008237D02*
X011577Y008237D01*
X011577Y008139D02*
X011577Y008139D01*
X011577Y008040D02*
X011577Y008040D01*
X011577Y008034D02*
X011577Y008034D01*
X011577Y007942D02*
X011577Y007942D01*
X011577Y007843D02*
X011577Y007843D01*
X009609Y005282D02*
X009609Y005282D01*
X009609Y005184D02*
X009609Y005184D01*
X009768Y003517D02*
X009087Y003517D01*
X009023Y003453D01*
X009023Y002772D01*
X009087Y002708D01*
X009768Y002708D01*
X009832Y002772D01*
X009832Y003453D01*
X009768Y003517D01*
X009776Y003509D02*
X010079Y003509D01*
X010023Y003411D02*
X009832Y003411D01*
X009832Y003312D02*
X010023Y003312D01*
X010023Y003214D02*
X009832Y003214D01*
X009832Y003115D02*
X010023Y003115D01*
X010023Y003017D02*
X009832Y003017D01*
X009832Y002918D02*
X010023Y002918D01*
X010023Y002820D02*
X009832Y002820D01*
X009781Y002721D02*
X010075Y002721D01*
X010781Y002721D02*
X014186Y002721D01*
X014176Y002714D02*
X014141Y002680D01*
X014114Y002639D01*
X014096Y002594D01*
X014086Y002547D01*
X014086Y002522D01*
X014086Y002498D01*
X014096Y002450D01*
X014114Y002405D01*
X014141Y002365D01*
X014176Y002330D01*
X014216Y002303D01*
X014261Y002285D01*
X014309Y002275D01*
X014333Y002275D01*
X014333Y002522D01*
X014333Y002522D01*
X014086Y002522D01*
X014333Y002522D01*
X014333Y002522D01*
X014333Y002275D01*
X014358Y002275D01*
X014405Y002285D01*
X014450Y002303D01*
X014491Y002330D01*
X014525Y002365D01*
X014552Y002405D01*
X014571Y002450D01*
X014580Y002498D01*
X014580Y002522D01*
X014333Y002522D01*
X014333Y002769D01*
X014309Y002769D01*
X014261Y002760D01*
X014216Y002741D01*
X014176Y002714D01*
X014108Y002623D02*
X005701Y002623D01*
X005694Y002639D02*
X005667Y002680D01*
X005632Y002714D01*
X005592Y002741D01*
X005547Y002760D01*
X005499Y002769D01*
X005475Y002769D01*
X005475Y002522D01*
X005475Y002275D01*
X005499Y002275D01*
X005547Y002285D01*
X005592Y002303D01*
X005632Y002330D01*
X005667Y002365D01*
X005694Y002405D01*
X005712Y002450D01*
X005722Y002498D01*
X005722Y002522D01*
X005475Y002522D01*
X005475Y002522D01*
X005475Y002275D01*
X005451Y002275D01*
X005403Y002285D01*
X005358Y002303D01*
X005318Y002330D01*
X005283Y002365D01*
X005256Y002405D01*
X005238Y002450D01*
X005228Y002498D01*
X005228Y002522D01*
X005475Y002522D01*
X005475Y002522D01*
X005475Y002522D01*
X005722Y002522D01*
X005722Y002547D01*
X005712Y002594D01*
X005694Y002639D01*
X005622Y002721D02*
X008081Y002721D01*
X008090Y002716D02*
X008118Y002708D01*
X008379Y002708D01*
X008379Y003064D01*
X008023Y003064D01*
X008023Y002803D01*
X008031Y002775D01*
X008045Y002751D01*
X008065Y002730D01*
X008090Y002716D01*
X008023Y002820D02*
X005112Y002820D01*
X005131Y002918D02*
X005322Y002918D01*
X005318Y002921D02*
X005358Y002894D01*
X005403Y002875D01*
X005451Y002866D01*
X005475Y002866D01*
X005499Y002866D01*
X005547Y002875D01*
X005592Y002894D01*
X005632Y002921D01*
X005667Y002955D01*
X005694Y002996D01*
X005712Y003041D01*
X005722Y003088D01*
X005722Y003113D01*
X005475Y003113D01*
X005475Y003113D01*
X005475Y003113D01*
X005228Y003113D01*
X005228Y003088D01*
X005238Y003041D01*
X005256Y002996D01*
X005283Y002955D01*
X005318Y002921D01*
X005248Y003017D02*
X005110Y003017D01*
X005031Y003115D02*
X005228Y003115D01*
X005475Y003115D02*
X005475Y003115D01*
X005475Y003113D02*
X005475Y002866D01*
X005475Y003113D01*
X005475Y003113D01*
X005475Y003017D02*
X005475Y003017D01*
X005475Y002918D02*
X005475Y002918D01*
X005475Y002769D02*
X005451Y002769D01*
X005403Y002760D01*
X005358Y002741D01*
X005318Y002714D01*
X005283Y002680D01*
X005256Y002639D01*
X005238Y002594D01*
X005228Y002547D01*
X005228Y002522D01*
X005475Y002522D01*
X005475Y002522D01*
X005475Y002769D01*
X005475Y002721D02*
X005475Y002721D01*
X005475Y002623D02*
X005475Y002623D01*
X005475Y002524D02*
X005475Y002524D01*
X005475Y002426D02*
X005475Y002426D01*
X005475Y002327D02*
X005475Y002327D01*
X005627Y002327D02*
X013005Y002327D01*
X012995Y002320D02*
X012960Y002286D01*
X012933Y002245D01*
X012915Y002201D01*
X012905Y002153D01*
X012905Y002129D01*
X013152Y002129D01*
X013152Y002375D01*
X013128Y002375D01*
X013080Y002366D01*
X013035Y002347D01*
X012995Y002320D01*
X012926Y002229D02*
X005111Y002229D01*
X005131Y002327D02*
X005323Y002327D01*
X005248Y002426D02*
X005110Y002426D01*
X005031Y002524D02*
X005228Y002524D01*
X005249Y002623D02*
X004491Y002623D01*
X004491Y002721D02*
X004732Y002721D01*
X004657Y002820D02*
X004491Y002820D01*
X004491Y002918D02*
X004638Y002918D01*
X004659Y003017D02*
X004491Y003017D01*
X004491Y003115D02*
X004738Y003115D01*
X005037Y002721D02*
X005328Y002721D01*
X005628Y002918D02*
X008023Y002918D01*
X008023Y003017D02*
X005702Y003017D01*
X005722Y003115D02*
X008379Y003115D01*
X008476Y003115D02*
X009023Y003115D01*
X009023Y003017D02*
X008832Y003017D01*
X008832Y002918D02*
X009023Y002918D01*
X009023Y002820D02*
X008832Y002820D01*
X008774Y002721D02*
X009075Y002721D01*
X009023Y003214D02*
X008832Y003214D01*
X008832Y003312D02*
X009023Y003312D01*
X009023Y003411D02*
X008832Y003411D01*
X008766Y003509D02*
X009079Y003509D01*
X008476Y003509D02*
X008379Y003509D01*
X008379Y003411D02*
X008476Y003411D01*
X008476Y003312D02*
X008379Y003312D01*
X008379Y003214D02*
X008476Y003214D01*
X008476Y003017D02*
X008379Y003017D01*
X008379Y002918D02*
X008476Y002918D01*
X008476Y002820D02*
X008379Y002820D01*
X008379Y002721D02*
X008476Y002721D01*
X008023Y003214D02*
X005700Y003214D01*
X005621Y003312D02*
X008023Y003312D01*
X006490Y003805D02*
X014895Y003805D01*
X014874Y003706D02*
X006416Y003706D01*
X006262Y003706D02*
X006262Y003706D01*
X006262Y003805D02*
X006262Y003805D01*
X006262Y003903D02*
X006262Y003903D01*
X006262Y004002D02*
X006262Y004002D01*
X006262Y004100D02*
X006262Y004100D01*
X006117Y004100D02*
X005817Y004100D01*
X005829Y004092D02*
X005789Y004119D01*
X005744Y004138D01*
X005696Y004147D01*
X005672Y004147D01*
X005672Y003900D01*
X005672Y003900D01*
X005919Y003900D01*
X005919Y003876D01*
X005909Y003828D01*
X005891Y003783D01*
X005864Y003743D01*
X005829Y003708D01*
X005789Y003681D01*
X005744Y003663D01*
X005696Y003653D01*
X005672Y003653D01*
X005672Y003900D01*
X005672Y003900D01*
X005919Y003900D01*
X005919Y003924D01*
X005909Y003972D01*
X005891Y004017D01*
X005864Y004058D01*
X005829Y004092D01*
X005897Y004002D02*
X006037Y004002D01*
X006016Y003903D02*
X005919Y003903D01*
X005899Y003805D02*
X006035Y003805D01*
X006109Y003706D02*
X005826Y003706D01*
X005672Y003706D02*
X005672Y003706D01*
X005672Y003653D02*
X005672Y003900D01*
X005672Y003900D01*
X005425Y003900D01*
X005425Y003876D01*
X005434Y003828D01*
X005453Y003783D01*
X005480Y003743D01*
X005514Y003708D01*
X005555Y003681D01*
X005600Y003663D01*
X005647Y003653D01*
X005672Y003653D01*
X005672Y003805D02*
X005672Y003805D01*
X005672Y003900D02*
X005672Y003900D01*
X005425Y003900D01*
X005425Y003924D01*
X005434Y003972D01*
X005453Y004017D01*
X005480Y004058D01*
X005514Y004092D01*
X005555Y004119D01*
X005600Y004138D01*
X005647Y004147D01*
X005672Y004147D01*
X005672Y003900D01*
X005672Y003903D02*
X005672Y003903D01*
X005672Y004002D02*
X005672Y004002D01*
X005672Y004100D02*
X005672Y004100D01*
X005527Y004100D02*
X005328Y004100D01*
X005309Y004002D02*
X005447Y004002D01*
X005425Y003903D02*
X005235Y003903D01*
X005081Y003903D02*
X005081Y003903D01*
X005081Y004002D02*
X005081Y004002D01*
X005081Y004097D02*
X005081Y004097D01*
X005081Y004100D02*
X005081Y004100D01*
X005081Y004199D02*
X005081Y004199D01*
X005081Y004297D02*
X005081Y004297D01*
X004936Y004297D02*
X004491Y004297D01*
X004491Y004199D02*
X004856Y004199D01*
X004834Y004100D02*
X004491Y004100D01*
X004491Y004002D02*
X004854Y004002D01*
X004927Y003903D02*
X004491Y003903D01*
X004491Y003805D02*
X005444Y003805D01*
X005518Y003706D02*
X005030Y003706D01*
X005475Y003312D02*
X005475Y003312D01*
X005475Y003214D02*
X005475Y003214D01*
X005722Y002524D02*
X014086Y002524D01*
X014106Y002426D02*
X005702Y002426D01*
X005036Y002130D02*
X012905Y002130D01*
X013152Y002129D02*
X013152Y002128D01*
X013152Y002129D01*
X013152Y002129D01*
X013152Y002375D01*
X013176Y002375D01*
X013224Y002366D01*
X013269Y002347D01*
X013309Y002320D01*
X013344Y002286D01*
X013371Y002245D01*
X013389Y002201D01*
X013399Y002153D01*
X013399Y002129D01*
X013152Y002129D01*
X013152Y002130D02*
X013152Y002130D01*
X013152Y002032D02*
X013152Y002032D01*
X013152Y001933D02*
X013152Y001933D01*
X013304Y001933D02*
X013496Y001933D01*
X013517Y002032D02*
X013379Y002032D01*
X013399Y002130D02*
X013595Y002130D01*
X013743Y002130D02*
X013743Y002130D01*
X013743Y002032D02*
X013743Y002032D01*
X013743Y001933D02*
X013743Y001933D01*
X013743Y001835D02*
X013743Y001835D01*
X013743Y001736D02*
X013743Y001736D01*
X013894Y001736D02*
X014094Y001736D01*
X014179Y001835D02*
X013970Y001835D01*
X013990Y001933D02*
X014278Y001933D01*
X014431Y002032D02*
X013969Y002032D01*
X013890Y002130D02*
X014683Y002130D01*
X014807Y002303D02*
X014766Y002330D01*
X014732Y002365D01*
X014705Y002405D01*
X014686Y002450D01*
X014677Y002498D01*
X014677Y002522D01*
X014924Y002522D01*
X014924Y002522D01*
X015171Y002522D01*
X015171Y002498D01*
X015161Y002450D01*
X015143Y002405D01*
X015116Y002365D01*
X015081Y002330D01*
X015041Y002303D01*
X014996Y002285D01*
X014948Y002275D01*
X014924Y002275D01*
X014924Y002522D01*
X014924Y002522D01*
X015171Y002522D01*
X015171Y002547D01*
X015161Y002594D01*
X015143Y002639D01*
X015116Y002680D01*
X015081Y002714D01*
X015041Y002741D01*
X014996Y002760D01*
X014948Y002769D01*
X014924Y002769D01*
X014924Y002522D01*
X014924Y002275D01*
X014899Y002275D01*
X014852Y002285D01*
X014807Y002303D01*
X014772Y002327D02*
X014485Y002327D01*
X014560Y002426D02*
X014697Y002426D01*
X014677Y002522D02*
X014924Y002522D01*
X014924Y002522D01*
X014924Y002522D01*
X014924Y002769D01*
X014899Y002769D01*
X014852Y002760D01*
X014807Y002741D01*
X014766Y002714D01*
X014732Y002680D01*
X014705Y002639D01*
X014686Y002594D01*
X014677Y002547D01*
X014677Y002522D01*
X014677Y002524D02*
X014580Y002524D01*
X014580Y002522D02*
X014580Y002547D01*
X014571Y002594D01*
X014552Y002639D01*
X014525Y002680D01*
X014491Y002714D01*
X014450Y002741D01*
X014405Y002760D01*
X014358Y002769D01*
X014333Y002769D01*
X014333Y002522D01*
X014333Y002522D01*
X014333Y002522D01*
X014580Y002522D01*
X014559Y002623D02*
X014698Y002623D01*
X014777Y002721D02*
X014480Y002721D01*
X014333Y002721D02*
X014333Y002721D01*
X014333Y002623D02*
X014333Y002623D01*
X014333Y002524D02*
X014333Y002524D01*
X014333Y002426D02*
X014333Y002426D01*
X014333Y002327D02*
X014333Y002327D01*
X014181Y002327D02*
X013299Y002327D01*
X013378Y002229D02*
X015582Y002229D01*
X015582Y002327D02*
X015076Y002327D01*
X015151Y002426D02*
X015582Y002426D01*
X015582Y002524D02*
X015171Y002524D01*
X015149Y002623D02*
X015582Y002623D01*
X015582Y002721D02*
X015071Y002721D01*
X015096Y002866D02*
X015121Y002866D01*
X015145Y002866D01*
X015193Y002875D01*
X015238Y002894D01*
X015278Y002921D01*
X015312Y002955D01*
X015339Y002996D01*
X015358Y003041D01*
X015367Y003088D01*
X015367Y003113D01*
X015367Y003137D01*
X015358Y003185D01*
X015339Y003230D01*
X015312Y003270D01*
X015278Y003304D01*
X015238Y003332D01*
X015193Y003350D01*
X015145Y003360D01*
X015121Y003360D01*
X015121Y003113D01*
X015367Y003113D01*
X015121Y003113D01*
X015121Y003113D01*
X015121Y003113D01*
X015121Y003360D01*
X015096Y003360D01*
X015049Y003350D01*
X015004Y003332D01*
X014963Y003304D01*
X014929Y003270D01*
X014902Y003230D01*
X014883Y003185D01*
X014874Y003137D01*
X014874Y003113D01*
X015121Y003113D01*
X015121Y002866D01*
X015121Y003113D01*
X015121Y003113D01*
X015121Y003113D01*
X014874Y003113D01*
X014874Y003088D01*
X014883Y003041D01*
X014902Y002996D01*
X014929Y002955D01*
X014963Y002921D01*
X015004Y002894D01*
X015049Y002875D01*
X015096Y002866D01*
X015121Y002918D02*
X015121Y002918D01*
X015121Y003017D02*
X015121Y003017D01*
X015121Y003115D02*
X015121Y003115D01*
X015121Y003214D02*
X015121Y003214D01*
X015121Y003312D02*
X015121Y003312D01*
X015267Y003312D02*
X015582Y003312D01*
X015582Y003214D02*
X015346Y003214D01*
X015367Y003115D02*
X015582Y003115D01*
X015582Y003017D02*
X015348Y003017D01*
X015273Y002918D02*
X015582Y002918D01*
X015582Y002820D02*
X010832Y002820D01*
X010832Y002918D02*
X012295Y002918D01*
X012295Y002910D02*
X012359Y002846D01*
X012764Y002846D01*
X012828Y002910D01*
X012828Y003315D01*
X012764Y003379D01*
X012359Y003379D01*
X012295Y003315D01*
X012295Y002910D01*
X012295Y003017D02*
X010832Y003017D01*
X010832Y003115D02*
X012295Y003115D01*
X012295Y003214D02*
X010832Y003214D01*
X010832Y003312D02*
X012295Y003312D01*
X012828Y003312D02*
X014975Y003312D01*
X014895Y003214D02*
X012828Y003214D01*
X012828Y003115D02*
X014874Y003115D01*
X014893Y003017D02*
X012828Y003017D01*
X012828Y002918D02*
X014968Y002918D01*
X014924Y002721D02*
X014924Y002721D01*
X014924Y002623D02*
X014924Y002623D01*
X014924Y002524D02*
X014924Y002524D01*
X014924Y002426D02*
X014924Y002426D01*
X014924Y002327D02*
X014924Y002327D01*
X015165Y002130D02*
X015582Y002130D01*
X015582Y002032D02*
X015416Y002032D01*
X015570Y001933D02*
X015582Y001933D01*
X015121Y003509D02*
X015121Y003509D01*
X015121Y003608D02*
X015121Y003608D01*
X015121Y003706D02*
X015121Y003706D01*
X015121Y003805D02*
X015121Y003805D01*
X014975Y003903D02*
X006509Y003903D01*
X004884Y002426D02*
X004884Y002426D01*
X004884Y002327D02*
X004884Y002327D01*
X004884Y002229D02*
X004884Y002229D01*
X004884Y002130D02*
X004884Y002130D01*
X004097Y004002D02*
X001152Y004002D01*
X001075Y004100D02*
X004097Y004100D01*
X004097Y004199D02*
X000948Y004199D01*
X000869Y004593D02*
X004097Y004593D01*
X004097Y004691D02*
X001042Y004691D01*
X001139Y004790D02*
X004097Y004790D01*
X004097Y004888D02*
X001179Y004888D01*
X001214Y004987D02*
X004097Y004987D01*
X004097Y005085D02*
X001214Y005085D01*
X001209Y005184D02*
X004097Y005184D01*
X004097Y005282D02*
X001168Y005282D01*
X001113Y005381D02*
X004097Y005381D01*
X004097Y005479D02*
X001015Y005479D01*
X000486Y005578D02*
X004097Y005578D01*
X004097Y005676D02*
X000486Y005676D01*
X000486Y005775D02*
X003527Y005775D01*
X003512Y005790D02*
X003546Y005756D01*
X003586Y005729D01*
X003631Y005710D01*
X003679Y005701D01*
X003703Y005701D01*
X003703Y005947D01*
X003703Y005947D01*
X003456Y005947D01*
X003456Y005923D01*
X003466Y005875D01*
X003485Y005830D01*
X003512Y005790D01*
X003467Y005873D02*
X000486Y005873D01*
X000486Y005972D02*
X003456Y005972D01*
X003456Y005947D01*
X003703Y005947D01*
X003703Y005947D01*
X003703Y005701D01*
X003728Y005701D01*
X003775Y005710D01*
X003820Y005729D01*
X003861Y005756D01*
X003895Y005790D01*
X003922Y005830D01*
X003941Y005875D01*
X003950Y005923D01*
X003950Y005947D01*
X003703Y005947D01*
X003703Y005947D01*
X003703Y006194D01*
X003679Y006194D01*
X003631Y006185D01*
X003586Y006166D01*
X003546Y006139D01*
X003512Y006105D01*
X003485Y006064D01*
X003466Y006019D01*
X003456Y005972D01*
X003488Y006070D02*
X000486Y006070D01*
X000486Y006169D02*
X003592Y006169D01*
X003703Y006169D02*
X003703Y006169D01*
X003703Y006194D02*
X003728Y006194D01*
X003775Y006185D01*
X003820Y006166D01*
X003861Y006139D01*
X003895Y006105D01*
X003922Y006064D01*
X003941Y006019D01*
X003950Y005972D01*
X003950Y005947D01*
X003703Y005947D01*
X003703Y005947D01*
X003703Y006194D01*
X003815Y006169D02*
X004097Y006169D01*
X004097Y006267D02*
X000486Y006267D01*
X000486Y006366D02*
X004097Y006366D01*
X004097Y006464D02*
X000486Y006464D01*
X000486Y006563D02*
X003526Y006563D01*
X003512Y006577D02*
X003546Y006543D01*
X003586Y006516D01*
X003631Y006497D01*
X003679Y006488D01*
X003703Y006488D01*
X003703Y006735D01*
X003703Y006735D01*
X003456Y006735D01*
X003456Y006759D01*
X003466Y006807D01*
X003485Y006852D01*
X003512Y006892D01*
X003546Y006927D01*
X003586Y006954D01*
X003631Y006972D01*
X003679Y006982D01*
X003703Y006982D01*
X003703Y006735D01*
X003703Y006735D01*
X003456Y006735D01*
X003456Y006710D01*
X003466Y006663D01*
X003485Y006618D01*
X003512Y006577D01*
X003467Y006661D02*
X000486Y006661D01*
X000486Y006760D02*
X003457Y006760D01*
X003489Y006858D02*
X001024Y006858D01*
X001122Y006957D02*
X002622Y006957D01*
X002626Y006951D02*
X002660Y006917D01*
X002701Y006890D01*
X002745Y006871D01*
X002793Y006862D01*
X002817Y006862D01*
X002817Y007109D01*
X002817Y007109D01*
X002571Y007109D01*
X002571Y007133D01*
X002580Y007181D01*
X002599Y007226D01*
X002626Y007266D01*
X002660Y007301D01*
X002701Y007328D01*
X002745Y007346D01*
X002793Y007356D01*
X002817Y007356D01*
X002817Y007109D01*
X002817Y007109D01*
X002571Y007109D01*
X002571Y007085D01*
X002580Y007037D01*
X002599Y006992D01*
X002626Y006951D01*
X002576Y007055D02*
X001183Y007055D01*
X001224Y007154D02*
X002575Y007154D01*
X002616Y007252D02*
X001234Y007252D01*
X001234Y007351D02*
X002767Y007351D01*
X002817Y007351D02*
X002817Y007351D01*
X002817Y007356D02*
X002842Y007356D01*
X002889Y007346D01*
X002934Y007328D01*
X002975Y007301D01*
X003009Y007266D01*
X003036Y007226D01*
X003055Y007181D01*
X003064Y007133D01*
X003064Y007109D01*
X002817Y007109D01*
X002817Y007109D01*
X002817Y007356D01*
X002868Y007351D02*
X004097Y007351D01*
X004097Y007449D02*
X001203Y007449D01*
X001163Y007548D02*
X003388Y007548D01*
X003329Y007646D02*
X001072Y007646D01*
X000914Y007745D02*
X003319Y007745D01*
X003319Y007719D02*
X003565Y007719D01*
X003319Y007719D01*
X003351Y007843D02*
X000486Y007843D01*
X000486Y007745D02*
X000548Y007745D01*
X000519Y008139D02*
X000486Y008139D01*
X002817Y007252D02*
X002817Y007252D01*
X002817Y007154D02*
X002817Y007154D01*
X002817Y007109D02*
X002817Y007109D01*
X002817Y006862D01*
X002842Y006862D01*
X002889Y006871D01*
X002934Y006890D01*
X002975Y006917D01*
X003009Y006951D01*
X003036Y006992D01*
X003055Y007037D01*
X003064Y007085D01*
X003064Y007109D01*
X002817Y007109D01*
X002817Y007055D02*
X002817Y007055D01*
X002817Y006957D02*
X002817Y006957D01*
X003013Y006957D02*
X003594Y006957D01*
X003703Y006957D02*
X003703Y006957D01*
X003703Y006982D02*
X003728Y006982D01*
X003775Y006972D01*
X003820Y006954D01*
X003861Y006927D01*
X003895Y006892D01*
X003922Y006852D01*
X003941Y006807D01*
X003950Y006759D01*
X003950Y006735D01*
X003703Y006735D01*
X003703Y006982D01*
X003813Y006957D02*
X004097Y006957D01*
X004097Y007055D02*
X003058Y007055D01*
X003060Y007154D02*
X004097Y007154D01*
X004097Y007252D02*
X003019Y007252D01*
X003566Y007548D02*
X003566Y007548D01*
X003566Y007646D02*
X003566Y007646D01*
X003565Y007719D02*
X003565Y007719D01*
X003566Y007745D02*
X003566Y007745D01*
X003566Y007843D02*
X003566Y007843D01*
X003780Y007843D02*
X004097Y007843D01*
X004097Y007745D02*
X003812Y007745D01*
X003802Y007646D02*
X004097Y007646D01*
X004097Y007548D02*
X003743Y007548D01*
X003703Y006858D02*
X003703Y006858D01*
X003703Y006760D02*
X003703Y006760D01*
X003703Y006735D02*
X003703Y006735D01*
X003703Y006735D01*
X003703Y006488D01*
X003728Y006488D01*
X003775Y006497D01*
X003820Y006516D01*
X003861Y006543D01*
X003895Y006577D01*
X003922Y006618D01*
X003941Y006663D01*
X003950Y006710D01*
X003950Y006735D01*
X003703Y006735D01*
X003703Y006661D02*
X003703Y006661D01*
X003703Y006563D02*
X003703Y006563D01*
X003880Y006563D02*
X004097Y006563D01*
X004097Y006661D02*
X003940Y006661D01*
X003950Y006760D02*
X004097Y006760D01*
X004097Y006858D02*
X003918Y006858D01*
X003918Y006070D02*
X004097Y006070D01*
X004097Y005972D02*
X003950Y005972D01*
X003940Y005873D02*
X004097Y005873D01*
X004097Y005775D02*
X003880Y005775D01*
X003703Y005775D02*
X003703Y005775D01*
X003703Y005873D02*
X003703Y005873D01*
X003703Y005972D02*
X003703Y005972D01*
X003703Y006070D02*
X003703Y006070D01*
X004097Y004494D02*
X000486Y004494D01*
X000486Y004396D02*
X004097Y004396D01*
X004097Y004297D02*
X000486Y004297D01*
X000486Y004593D02*
X000554Y004593D01*
X007680Y010897D02*
X007680Y010897D01*
X007680Y010995D02*
X007680Y010995D01*
X007680Y011094D02*
X007680Y011094D01*
X007680Y011192D02*
X007680Y011192D01*
X007508Y013852D02*
X015582Y013852D01*
X015582Y013950D02*
X015210Y013950D01*
X015437Y014049D02*
X015582Y014049D01*
X015582Y014147D02*
X015582Y014147D01*
X014638Y013950D02*
X011031Y013950D01*
X011058Y013977D02*
X011096Y014068D01*
X011096Y014166D01*
X011058Y014257D01*
X010989Y014326D01*
X010898Y014364D01*
X010800Y014364D01*
X010709Y014326D01*
X010640Y014257D01*
X010602Y014166D01*
X010602Y014068D01*
X010640Y013977D01*
X010709Y013907D01*
X010800Y013870D01*
X010898Y013870D01*
X010989Y013907D01*
X011058Y013977D01*
X011088Y014049D02*
X014411Y014049D01*
X014266Y014147D02*
X011096Y014147D01*
X011063Y014246D02*
X014167Y014246D01*
X014087Y014344D02*
X010945Y014344D01*
X010753Y014344D02*
X010138Y014344D01*
X010159Y014335D02*
X010114Y014354D01*
X010066Y014364D01*
X010042Y014364D01*
X010042Y014117D01*
X010042Y014117D01*
X010289Y014117D01*
X010289Y014141D01*
X010279Y014189D01*
X010261Y014234D01*
X010234Y014274D01*
X010199Y014308D01*
X010159Y014335D01*
X010042Y014344D02*
X010042Y014344D01*
X010042Y014364D02*
X010018Y014364D01*
X009970Y014354D01*
X009925Y014335D01*
X009885Y014308D01*
X009850Y014274D01*
X009823Y014234D01*
X009805Y014189D01*
X009795Y014141D01*
X009795Y014117D01*
X010042Y014117D01*
X010042Y014117D01*
X010042Y014364D01*
X009946Y014344D02*
X009524Y014344D01*
X009559Y014246D02*
X009831Y014246D01*
X009796Y014147D02*
X009552Y014147D01*
X009496Y014049D02*
X009804Y014049D01*
X009805Y014045D02*
X009823Y014000D01*
X009850Y013959D01*
X009885Y013925D01*
X009925Y013898D01*
X009970Y013879D01*
X010018Y013870D01*
X010042Y013870D01*
X010066Y013870D01*
X010114Y013879D01*
X010159Y013898D01*
X010199Y013925D01*
X010234Y013959D01*
X010261Y014000D01*
X010279Y014045D01*
X010289Y014092D01*
X010289Y014117D01*
X010042Y014117D01*
X010042Y014117D01*
X010042Y013870D01*
X010042Y014117D01*
X010042Y014117D01*
X009795Y014117D01*
X009795Y014092D01*
X009805Y014045D01*
X009859Y013950D02*
X007576Y013950D01*
X010042Y013950D02*
X010042Y013950D01*
X010042Y014049D02*
X010042Y014049D01*
X010042Y014147D02*
X010042Y014147D01*
X010042Y014246D02*
X010042Y014246D01*
X010253Y014246D02*
X010635Y014246D01*
X010602Y014147D02*
X010288Y014147D01*
X010280Y014049D02*
X010610Y014049D01*
X010667Y013950D02*
X010224Y013950D01*
X008231Y007449D02*
X008231Y007449D01*
X008231Y007351D02*
X008231Y007351D01*
X013152Y002327D02*
X013152Y002327D01*
X013152Y002229D02*
X013152Y002229D01*
X011916Y001244D02*
X010845Y001244D01*
X011038Y001145D02*
X011723Y001145D01*
X011625Y001047D02*
X011136Y001047D01*
X011183Y000948D02*
X011578Y000948D01*
X011537Y000850D02*
X011224Y000850D01*
X011224Y000751D02*
X011537Y000751D01*
X011537Y000653D02*
X011224Y000653D01*
X011184Y000554D02*
X011577Y000554D01*
X010597Y001244D02*
X007882Y001244D01*
X008075Y001145D02*
X009067Y001145D01*
X009058Y001139D02*
X009023Y001105D01*
X008996Y001064D01*
X008978Y001019D01*
X008968Y000972D01*
X008968Y000947D01*
X008968Y000923D01*
X008978Y000875D01*
X008996Y000830D01*
X009023Y000790D01*
X009058Y000756D01*
X009098Y000729D01*
X009143Y000710D01*
X009191Y000701D01*
X009215Y000701D01*
X009215Y000947D01*
X009215Y000947D01*
X009215Y000701D01*
X009239Y000701D01*
X009287Y000710D01*
X009332Y000729D01*
X009372Y000756D01*
X009407Y000790D01*
X009434Y000830D01*
X009452Y000875D01*
X009462Y000923D01*
X009462Y000947D01*
X009215Y000947D01*
X008968Y000947D01*
X009215Y000947D01*
X009215Y000947D01*
X009215Y000947D01*
X009462Y000947D01*
X009462Y000972D01*
X009452Y001019D01*
X009434Y001064D01*
X009407Y001105D01*
X009372Y001139D01*
X009332Y001166D01*
X009287Y001185D01*
X009239Y001194D01*
X009215Y001194D01*
X009191Y001194D01*
X009143Y001185D01*
X009098Y001166D01*
X009058Y001139D01*
X008989Y001047D02*
X008173Y001047D01*
X008221Y000948D02*
X008968Y000948D01*
X008988Y000850D02*
X008261Y000850D01*
X008261Y000751D02*
X009065Y000751D01*
X009215Y000751D02*
X009215Y000751D01*
X009215Y000850D02*
X009215Y000850D01*
X009215Y000947D02*
X009215Y001194D01*
X009215Y000947D01*
X009215Y000947D01*
X009215Y000948D02*
X009215Y000948D01*
X009215Y001047D02*
X009215Y001047D01*
X009215Y001145D02*
X009215Y001145D01*
X009364Y001145D02*
X010404Y001145D01*
X010306Y001047D02*
X009441Y001047D01*
X009462Y000948D02*
X010259Y000948D01*
X010218Y000850D02*
X009442Y000850D01*
X009366Y000751D02*
X010218Y000751D01*
X010218Y000653D02*
X008261Y000653D01*
X008221Y000554D02*
X010258Y000554D01*
X015072Y006464D02*
X015169Y006464D01*
X015169Y006563D02*
X015072Y006563D01*
X015072Y006661D02*
X015169Y006661D01*
X015169Y006760D02*
X015072Y006760D01*
X015169Y006858D02*
X015582Y006858D01*
X015582Y006760D02*
X015525Y006760D01*
X015525Y006661D02*
X015582Y006661D01*
X015582Y006563D02*
X015525Y006563D01*
X015472Y006464D02*
X015582Y006464D01*
X015582Y006957D02*
X015525Y006957D01*
X015525Y007055D02*
X015582Y007055D01*
X015582Y007154D02*
X015525Y007154D01*
X015582Y007252D02*
X015450Y007252D01*
D15*
X015121Y006853D03*
X015121Y007837D03*
X010428Y003113D03*
X009428Y003113D03*
X008428Y003113D03*
D16*
X012562Y003113D03*
M02*
