G75*
G70*
%OFA0B0*%
%FSLAX24Y24*%
%IPPOS*%
%LPD*%
%AMOC8*
5,1,8,0,0,1.08239X$1,22.5*
%
%ADD10C,0.0480*%
%ADD11R,0.0472X0.0866*%
%ADD12R,0.0276X0.0709*%
%ADD13C,0.1000*%
%ADD14R,0.0886X0.0886*%
%ADD15R,0.0394X0.0413*%
%ADD16R,0.0413X0.0866*%
%ADD17C,0.0320*%
%ADD18R,0.0591X0.0591*%
%ADD19R,0.0315X0.0315*%
%ADD20C,0.0100*%
D10*
X001363Y004040D02*
X001843Y004040D01*
X001843Y005040D02*
X001363Y005040D01*
X001363Y006040D02*
X001843Y006040D01*
X001843Y007040D02*
X001363Y007040D01*
X001363Y008040D02*
X001843Y008040D01*
X001843Y009040D02*
X001363Y009040D01*
X001363Y010040D02*
X001843Y010040D01*
X004363Y010040D02*
X004843Y010040D01*
X004843Y009040D02*
X004363Y009040D01*
X004363Y008040D02*
X004843Y008040D01*
X004843Y007040D02*
X004363Y007040D01*
X004363Y006040D02*
X004843Y006040D01*
X004843Y005040D02*
X004363Y005040D01*
X004363Y004040D02*
X004843Y004040D01*
X007780Y006284D02*
X007780Y006764D01*
X008780Y006764D02*
X008780Y006284D01*
X009780Y006284D02*
X009780Y006764D01*
X010780Y006764D02*
X010780Y006284D01*
X011780Y006284D02*
X011780Y006764D01*
X012780Y006764D02*
X012780Y006284D01*
X013780Y006284D02*
X013780Y006764D01*
X013780Y009284D02*
X013780Y009764D01*
X012780Y009764D02*
X012780Y009284D01*
X011780Y009284D02*
X011780Y009764D01*
X010780Y009764D02*
X010780Y009284D01*
X009780Y009284D02*
X009780Y009764D01*
X008780Y009764D02*
X008780Y009284D01*
X007780Y009284D02*
X007780Y009764D01*
D11*
X004707Y012894D03*
X001892Y012894D03*
D12*
X003054Y011764D03*
X003546Y011764D03*
D13*
X008024Y012945D03*
X013733Y011961D03*
X013536Y004087D03*
X007827Y003693D03*
D14*
X006827Y004693D03*
X006827Y002693D03*
X008827Y002693D03*
X008827Y004693D03*
X012536Y005087D03*
X014536Y005087D03*
X014536Y003087D03*
X012536Y003087D03*
X012733Y010961D03*
X014733Y010961D03*
X014733Y012961D03*
X012733Y012961D03*
X009024Y013945D03*
X009024Y011945D03*
X007024Y011945D03*
X007024Y013945D03*
D15*
X010977Y013920D03*
X010583Y003113D03*
X004481Y002522D03*
D16*
X005061Y001922D03*
X003900Y001922D03*
X010002Y002512D03*
X011164Y002512D03*
X011557Y014520D03*
X010396Y014520D03*
D17*
X010977Y013930D02*
X010977Y013142D01*
X011174Y012906D01*
X011174Y010583D01*
X011764Y009993D01*
X011764Y009520D01*
X010780Y009559D02*
X010780Y008418D01*
X008772Y008418D01*
X008772Y009717D01*
X007788Y009520D02*
X006646Y009520D01*
X005937Y009520D01*
X005465Y009993D01*
X004638Y009993D01*
X004599Y010032D01*
X003654Y010032D01*
X003024Y010583D01*
X003024Y011764D01*
X003575Y011764D02*
X003575Y011292D01*
X003693Y011174D01*
X005465Y011174D01*
X006646Y009520D02*
X006646Y008811D01*
X005859Y008811D01*
X007748Y007394D02*
X007985Y007630D01*
X009638Y007630D01*
X009796Y007473D01*
X009796Y006489D01*
X009796Y007473D02*
X009953Y007630D01*
X011174Y007630D01*
X011764Y007433D01*
X011764Y006528D01*
X010780Y006528D02*
X010780Y004874D01*
X010583Y004678D01*
X010583Y003103D01*
X007748Y006528D02*
X007748Y007394D01*
X010583Y008418D02*
X010780Y008418D01*
X012158Y008418D01*
X012788Y008654D01*
X012788Y009559D01*
X010780Y008615D02*
X010780Y008418D01*
X004599Y003851D02*
X004481Y003260D01*
X004481Y002591D01*
D18*
X005465Y011174D03*
D19*
X007040Y010583D03*
X006646Y008811D03*
X005859Y008811D03*
X005859Y007630D03*
X006646Y007630D03*
X005268Y003103D03*
X002709Y002119D03*
X010780Y001331D03*
X012552Y001134D03*
X013339Y001725D03*
X014914Y006449D03*
X014914Y009205D03*
X010189Y012158D03*
X009008Y014914D03*
X007827Y015111D03*
X005465Y013536D03*
X005268Y015111D03*
X003496Y014914D03*
X001134Y013142D03*
X001331Y010977D03*
D20*
X000476Y014138D02*
X000476Y001910D01*
X000511Y001946D01*
X000743Y002080D01*
X001001Y002149D01*
X001268Y002149D01*
X001526Y002080D01*
X001757Y001946D01*
X001946Y001757D01*
X002080Y001526D01*
X002149Y001268D01*
X002149Y001001D01*
X002080Y000743D01*
X001946Y000511D01*
X001910Y000476D01*
X014138Y000476D01*
X014102Y000511D01*
X013968Y000743D01*
X013899Y001001D01*
X013899Y001268D01*
X013968Y001526D01*
X014102Y001757D01*
X014291Y001946D01*
X014522Y002080D01*
X014780Y002149D01*
X015047Y002149D01*
X015305Y002080D01*
X015537Y001946D01*
X015572Y001910D01*
X015572Y014138D01*
X015537Y014102D01*
X015305Y013968D01*
X015047Y013899D01*
X014780Y013899D01*
X014522Y013968D01*
X014291Y014102D01*
X014102Y014291D01*
X013968Y014522D01*
X013899Y014780D01*
X013899Y015047D01*
X013968Y015305D01*
X014102Y015537D01*
X014138Y015572D01*
X001910Y015572D01*
X001946Y015537D01*
X002080Y015305D01*
X002149Y015047D01*
X002149Y014780D01*
X002080Y014522D01*
X001946Y014291D01*
X001757Y014102D01*
X001526Y013968D01*
X001268Y013899D01*
X001001Y013899D01*
X000743Y013968D01*
X000511Y014102D01*
X000476Y014138D01*
X000476Y014137D02*
X000476Y014137D01*
X000476Y014039D02*
X000621Y014039D01*
X000476Y013940D02*
X000848Y013940D01*
X000476Y013842D02*
X002540Y013842D01*
X002355Y013765D01*
X002214Y013624D01*
X002137Y013439D01*
X002137Y013436D01*
X001611Y013436D01*
X001547Y013372D01*
X001547Y012416D01*
X001611Y012352D01*
X002174Y012352D01*
X002237Y012416D01*
X002237Y013031D01*
X002355Y012913D01*
X002423Y012885D01*
X002423Y012137D01*
X002452Y012108D01*
X002807Y012108D01*
X002807Y011927D01*
X002796Y011917D01*
X002755Y011818D01*
X002755Y010627D01*
X002752Y010619D01*
X002755Y010574D01*
X002755Y010530D01*
X002759Y010521D01*
X002759Y010512D01*
X002779Y010472D01*
X002796Y010431D01*
X002802Y010424D01*
X002807Y010416D01*
X002840Y010386D01*
X002872Y010355D01*
X002880Y010351D01*
X003470Y009835D01*
X003502Y009804D01*
X003510Y009800D01*
X003517Y009794D01*
X003559Y009780D01*
X003600Y009763D01*
X003610Y009763D01*
X003618Y009760D01*
X003663Y009763D01*
X004146Y009763D01*
X004165Y009744D01*
X004293Y009691D01*
X004912Y009691D01*
X004991Y009723D01*
X005354Y009723D01*
X005709Y009368D01*
X005785Y009292D01*
X005884Y009251D01*
X006377Y009251D01*
X006377Y009080D01*
X005805Y009080D01*
X005799Y009078D01*
X005656Y009078D01*
X005592Y009014D01*
X005592Y008871D01*
X005590Y008865D01*
X005590Y008758D01*
X005592Y008752D01*
X005592Y008609D01*
X005656Y008545D01*
X005799Y008545D01*
X005805Y008542D01*
X006700Y008542D01*
X006706Y008545D01*
X006849Y008545D01*
X006913Y008609D01*
X006913Y008752D01*
X006915Y008758D01*
X006915Y009251D01*
X007431Y009251D01*
X007431Y009215D01*
X007484Y009086D01*
X007582Y008988D01*
X007710Y008935D01*
X007849Y008935D01*
X007978Y008988D01*
X008076Y009086D01*
X008129Y009215D01*
X008129Y009833D01*
X008076Y009962D01*
X007978Y010060D01*
X007849Y010113D01*
X007710Y010113D01*
X007582Y010060D01*
X007484Y009962D01*
X007431Y009833D01*
X007431Y009789D01*
X006049Y009789D01*
X005693Y010145D01*
X005617Y010221D01*
X005518Y010262D01*
X005115Y010262D01*
X005040Y010336D01*
X004912Y010389D01*
X004293Y010389D01*
X004165Y010336D01*
X004130Y010301D01*
X003755Y010301D01*
X003293Y010705D01*
X003293Y011357D01*
X003300Y011365D01*
X003300Y011390D01*
X003306Y011368D01*
X003321Y011343D01*
X003341Y011323D01*
X003366Y011308D01*
X003394Y011301D01*
X003527Y011301D01*
X003527Y011745D01*
X003565Y011745D01*
X003565Y011783D01*
X003793Y011783D01*
X003793Y012108D01*
X004147Y012108D01*
X004176Y012137D01*
X004176Y012885D01*
X004244Y012913D01*
X004362Y013031D01*
X004362Y012416D01*
X004426Y012352D01*
X004988Y012352D01*
X005052Y012416D01*
X005052Y013372D01*
X004988Y013436D01*
X004462Y013436D01*
X004462Y013439D01*
X004385Y013624D01*
X004244Y013765D01*
X004059Y013842D01*
X003859Y013842D01*
X003674Y013765D01*
X003533Y013624D01*
X003456Y013439D01*
X003456Y013239D01*
X003476Y013192D01*
X003124Y013192D01*
X003143Y013239D01*
X003143Y013439D01*
X003066Y013624D01*
X002925Y013765D01*
X002740Y013842D01*
X002540Y013842D01*
X002333Y013743D02*
X000476Y013743D01*
X000476Y013645D02*
X002235Y013645D01*
X002182Y013546D02*
X000476Y013546D01*
X000476Y013448D02*
X002141Y013448D01*
X002237Y012955D02*
X002313Y012955D01*
X002237Y012857D02*
X002423Y012857D01*
X002423Y012758D02*
X002237Y012758D01*
X002237Y012660D02*
X002423Y012660D01*
X002423Y012561D02*
X002237Y012561D01*
X002237Y012463D02*
X002423Y012463D01*
X002423Y012364D02*
X002186Y012364D01*
X002423Y012266D02*
X000476Y012266D01*
X000476Y012364D02*
X001599Y012364D01*
X001547Y012463D02*
X000476Y012463D01*
X000476Y012561D02*
X001547Y012561D01*
X001547Y012660D02*
X000476Y012660D01*
X000476Y012758D02*
X001547Y012758D01*
X001547Y012857D02*
X000476Y012857D01*
X000476Y012955D02*
X001547Y012955D01*
X001547Y013054D02*
X000476Y013054D01*
X000476Y013152D02*
X001547Y013152D01*
X001547Y013251D02*
X000476Y013251D01*
X000476Y013349D02*
X001547Y013349D01*
X001420Y013940D02*
X006974Y013940D01*
X006974Y013895D02*
X006472Y013895D01*
X006472Y013488D01*
X006479Y013460D01*
X006494Y013435D01*
X006514Y013415D01*
X006539Y013401D01*
X006567Y013393D01*
X006974Y013393D01*
X006974Y013895D01*
X007074Y013895D01*
X007074Y013393D01*
X007481Y013393D01*
X007509Y013401D01*
X007534Y013415D01*
X007554Y013435D01*
X007569Y013460D01*
X007576Y013488D01*
X007576Y013895D01*
X007074Y013895D01*
X007074Y013995D01*
X007576Y013995D01*
X007576Y014403D01*
X007569Y014430D01*
X007554Y014455D01*
X007534Y014475D01*
X007509Y014490D01*
X007481Y014497D01*
X007074Y014497D01*
X007074Y013995D01*
X006974Y013995D01*
X006974Y013895D01*
X006974Y013842D02*
X007074Y013842D01*
X007074Y013940D02*
X008974Y013940D01*
X008974Y013895D02*
X008472Y013895D01*
X008472Y013488D01*
X008479Y013460D01*
X008494Y013435D01*
X008514Y013415D01*
X008539Y013401D01*
X008567Y013393D01*
X008974Y013393D01*
X008974Y013895D01*
X009074Y013895D01*
X009074Y013393D01*
X009481Y013393D01*
X009509Y013401D01*
X009534Y013415D01*
X009554Y013435D01*
X009569Y013460D01*
X009576Y013488D01*
X009576Y013895D01*
X009074Y013895D01*
X009074Y013995D01*
X009576Y013995D01*
X009576Y014403D01*
X009569Y014430D01*
X009554Y014455D01*
X009534Y014475D01*
X009509Y014490D01*
X009481Y014497D01*
X009074Y014497D01*
X009074Y013995D01*
X008974Y013995D01*
X008974Y013895D01*
X008974Y013842D02*
X009074Y013842D01*
X009074Y013940D02*
X010297Y013940D01*
X010297Y013978D02*
X010297Y013869D01*
X010326Y013840D01*
X010623Y013840D01*
X010671Y013840D01*
X010671Y013668D01*
X010708Y013631D01*
X010708Y013154D01*
X010704Y013113D01*
X010708Y013101D01*
X010708Y013089D01*
X010724Y013050D01*
X010736Y013011D01*
X010744Y013001D01*
X010749Y012990D01*
X010778Y012961D01*
X010905Y012808D01*
X010905Y010530D01*
X010946Y010431D01*
X011021Y010355D01*
X011464Y009913D01*
X011431Y009833D01*
X011431Y009215D01*
X011484Y009086D01*
X011582Y008988D01*
X011710Y008935D01*
X011849Y008935D01*
X011978Y008988D01*
X012076Y009086D01*
X012129Y009215D01*
X012129Y009833D01*
X012076Y009962D01*
X012033Y010004D01*
X012033Y010046D01*
X011992Y010145D01*
X011443Y010695D01*
X011443Y012894D01*
X011446Y012935D01*
X011443Y012947D01*
X011443Y012959D01*
X011427Y012998D01*
X011415Y013037D01*
X011407Y013047D01*
X011402Y013058D01*
X011373Y013088D01*
X011246Y013240D01*
X011246Y013631D01*
X011283Y013668D01*
X011283Y013840D01*
X011627Y013840D01*
X011657Y013869D01*
X011657Y013978D01*
X011779Y013978D01*
X011806Y013985D01*
X011831Y014000D01*
X011851Y014020D01*
X011866Y014045D01*
X011873Y014073D01*
X011873Y014470D01*
X011607Y014470D01*
X011607Y014570D01*
X011873Y014570D01*
X011873Y014968D01*
X011866Y014995D01*
X011851Y015020D01*
X011831Y015040D01*
X011806Y015055D01*
X011779Y015062D01*
X011657Y015062D01*
X011657Y015171D01*
X011627Y015200D01*
X010326Y015200D01*
X010297Y015171D01*
X010297Y015062D01*
X010175Y015062D01*
X010147Y015055D01*
X010122Y015040D01*
X010102Y015020D01*
X010088Y014995D01*
X010080Y014968D01*
X010080Y014570D01*
X010346Y014570D01*
X010346Y014470D01*
X010080Y014470D01*
X010080Y014073D01*
X010088Y014045D01*
X010102Y014020D01*
X010122Y014000D01*
X010147Y013985D01*
X010175Y013978D01*
X010297Y013978D01*
X010325Y013842D02*
X009576Y013842D01*
X009576Y013743D02*
X010671Y013743D01*
X010694Y013645D02*
X009576Y013645D01*
X009576Y013546D02*
X010708Y013546D01*
X010708Y013448D02*
X009561Y013448D01*
X009074Y013448D02*
X008974Y013448D01*
X008974Y013546D02*
X009074Y013546D01*
X009074Y013645D02*
X008974Y013645D01*
X008974Y013743D02*
X009074Y013743D01*
X008974Y013995D02*
X008472Y013995D01*
X008472Y014403D01*
X008479Y014430D01*
X008494Y014455D01*
X008514Y014475D01*
X008539Y014490D01*
X008567Y014497D01*
X008974Y014497D01*
X008974Y013995D01*
X008974Y014039D02*
X009074Y014039D01*
X009074Y014137D02*
X008974Y014137D01*
X008974Y014236D02*
X009074Y014236D01*
X009074Y014334D02*
X008974Y014334D01*
X008974Y014433D02*
X009074Y014433D01*
X009567Y014433D02*
X010080Y014433D01*
X010080Y014334D02*
X009576Y014334D01*
X009576Y014236D02*
X010080Y014236D01*
X010080Y014137D02*
X009576Y014137D01*
X009576Y014039D02*
X010091Y014039D01*
X010346Y014531D02*
X002082Y014531D01*
X002108Y014630D02*
X010080Y014630D01*
X010080Y014728D02*
X002135Y014728D01*
X002149Y014827D02*
X010080Y014827D01*
X010080Y014925D02*
X002149Y014925D01*
X002149Y015024D02*
X010106Y015024D01*
X010297Y015122D02*
X002129Y015122D01*
X002102Y015221D02*
X013946Y015221D01*
X013919Y015122D02*
X011657Y015122D01*
X011848Y015024D02*
X013899Y015024D01*
X013899Y014925D02*
X011873Y014925D01*
X011873Y014827D02*
X013899Y014827D01*
X013913Y014728D02*
X011873Y014728D01*
X011873Y014630D02*
X013940Y014630D01*
X013966Y014531D02*
X011607Y014531D01*
X011873Y014433D02*
X014020Y014433D01*
X014077Y014334D02*
X011873Y014334D01*
X011873Y014236D02*
X014157Y014236D01*
X014256Y014137D02*
X011873Y014137D01*
X011862Y014039D02*
X014401Y014039D01*
X014628Y013940D02*
X011657Y013940D01*
X011629Y013842D02*
X015572Y013842D01*
X015572Y013940D02*
X015200Y013940D01*
X015427Y014039D02*
X015572Y014039D01*
X015572Y014137D02*
X015572Y014137D01*
X015572Y013743D02*
X011283Y013743D01*
X011259Y013645D02*
X015572Y013645D01*
X015572Y013546D02*
X011246Y013546D01*
X011246Y013448D02*
X012189Y013448D01*
X012188Y013446D02*
X012181Y013418D01*
X012181Y013011D01*
X012683Y013011D01*
X012683Y013513D01*
X012275Y013513D01*
X012248Y013506D01*
X012223Y013491D01*
X012202Y013471D01*
X012188Y013446D01*
X012181Y013349D02*
X011246Y013349D01*
X011246Y013251D02*
X012181Y013251D01*
X012181Y013152D02*
X011319Y013152D01*
X011404Y013054D02*
X012181Y013054D01*
X012181Y012911D02*
X012181Y012504D01*
X012188Y012476D01*
X012202Y012451D01*
X012223Y012431D01*
X012248Y012416D01*
X012275Y012409D01*
X012683Y012409D01*
X012683Y012911D01*
X012783Y012911D01*
X012783Y013011D01*
X013285Y013011D01*
X013285Y013418D01*
X013277Y013446D01*
X013263Y013471D01*
X013243Y013491D01*
X013218Y013506D01*
X013190Y013513D01*
X012783Y013513D01*
X012783Y013011D01*
X012683Y013011D01*
X012683Y012911D01*
X012181Y012911D01*
X012181Y012857D02*
X011443Y012857D01*
X011443Y012955D02*
X012683Y012955D01*
X012683Y012857D02*
X012783Y012857D01*
X012783Y012911D02*
X012783Y012409D01*
X013190Y012409D01*
X013218Y012416D01*
X013243Y012431D01*
X013263Y012451D01*
X013277Y012476D01*
X013285Y012504D01*
X013285Y012911D01*
X012783Y012911D01*
X012783Y012955D02*
X014683Y012955D01*
X014683Y012911D02*
X014181Y012911D01*
X014181Y012504D01*
X014188Y012476D01*
X014202Y012451D01*
X014223Y012431D01*
X014248Y012416D01*
X014275Y012409D01*
X014683Y012409D01*
X014683Y012911D01*
X014783Y012911D01*
X014783Y013011D01*
X015285Y013011D01*
X015285Y013418D01*
X015277Y013446D01*
X015263Y013471D01*
X015243Y013491D01*
X015218Y013506D01*
X015190Y013513D01*
X014783Y013513D01*
X014783Y013011D01*
X014683Y013011D01*
X014683Y013513D01*
X014275Y013513D01*
X014248Y013506D01*
X014223Y013491D01*
X014202Y013471D01*
X014188Y013446D01*
X014181Y013418D01*
X014181Y013011D01*
X014683Y013011D01*
X014683Y012911D01*
X014683Y012857D02*
X014783Y012857D01*
X014783Y012911D02*
X014783Y012409D01*
X015190Y012409D01*
X015218Y012416D01*
X015243Y012431D01*
X015263Y012451D01*
X015277Y012476D01*
X015285Y012504D01*
X015285Y012911D01*
X014783Y012911D01*
X014783Y012955D02*
X015572Y012955D01*
X015572Y012857D02*
X015285Y012857D01*
X015285Y012758D02*
X015572Y012758D01*
X015572Y012660D02*
X015285Y012660D01*
X015285Y012561D02*
X015572Y012561D01*
X015572Y012463D02*
X015269Y012463D01*
X015572Y012364D02*
X014191Y012364D01*
X014249Y012306D02*
X014078Y012477D01*
X013854Y012570D01*
X013612Y012570D01*
X013388Y012477D01*
X013216Y012306D01*
X013124Y012082D01*
X013124Y011840D01*
X013216Y011616D01*
X013388Y011445D01*
X013612Y011352D01*
X013854Y011352D01*
X014078Y011445D01*
X014249Y011616D01*
X014342Y011840D01*
X014342Y012082D01*
X014249Y012306D01*
X014266Y012266D02*
X015572Y012266D01*
X015572Y012167D02*
X014307Y012167D01*
X014342Y012069D02*
X015572Y012069D01*
X015572Y011970D02*
X014342Y011970D01*
X014342Y011872D02*
X015572Y011872D01*
X015572Y011773D02*
X014314Y011773D01*
X014273Y011675D02*
X015572Y011675D01*
X015572Y011576D02*
X014209Y011576D01*
X014248Y011506D02*
X014223Y011491D01*
X014202Y011471D01*
X014188Y011446D01*
X014181Y011418D01*
X014181Y011011D01*
X014683Y011011D01*
X014683Y011513D01*
X014275Y011513D01*
X014248Y011506D01*
X014209Y011478D02*
X014111Y011478D01*
X014181Y011379D02*
X013919Y011379D01*
X014181Y011281D02*
X013285Y011281D01*
X013285Y011379D02*
X013546Y011379D01*
X013355Y011478D02*
X013256Y011478D01*
X013263Y011471D02*
X013243Y011491D01*
X013218Y011506D01*
X013190Y011513D01*
X012783Y011513D01*
X012783Y011011D01*
X013285Y011011D01*
X013285Y011418D01*
X013277Y011446D01*
X013263Y011471D01*
X013256Y011576D02*
X011443Y011576D01*
X011443Y011478D02*
X012209Y011478D01*
X012202Y011471D02*
X012188Y011446D01*
X012181Y011418D01*
X012181Y011011D01*
X012683Y011011D01*
X012683Y011513D01*
X012275Y011513D01*
X012248Y011506D01*
X012223Y011491D01*
X012202Y011471D01*
X012181Y011379D02*
X011443Y011379D01*
X011443Y011281D02*
X012181Y011281D01*
X012181Y011182D02*
X011443Y011182D01*
X011443Y011084D02*
X012181Y011084D01*
X012181Y010911D02*
X012181Y010504D01*
X012188Y010476D01*
X012202Y010451D01*
X012223Y010431D01*
X012248Y010416D01*
X012275Y010409D01*
X012683Y010409D01*
X012683Y010911D01*
X012783Y010911D01*
X012783Y011011D01*
X012683Y011011D01*
X012683Y010911D01*
X012181Y010911D01*
X012181Y010887D02*
X011443Y010887D01*
X011443Y010985D02*
X012683Y010985D01*
X012683Y010887D02*
X012783Y010887D01*
X012783Y010911D02*
X012783Y010409D01*
X013190Y010409D01*
X013218Y010416D01*
X013243Y010431D01*
X013263Y010451D01*
X013277Y010476D01*
X013285Y010504D01*
X013285Y010911D01*
X012783Y010911D01*
X012783Y010985D02*
X014683Y010985D01*
X014683Y011011D02*
X014683Y010911D01*
X014783Y010911D01*
X014783Y011011D01*
X015285Y011011D01*
X015285Y011418D01*
X015277Y011446D01*
X015263Y011471D01*
X015243Y011491D01*
X015218Y011506D01*
X015190Y011513D01*
X014783Y011513D01*
X014783Y011011D01*
X014683Y011011D01*
X014683Y011084D02*
X014783Y011084D01*
X014783Y011182D02*
X014683Y011182D01*
X014683Y011281D02*
X014783Y011281D01*
X014783Y011379D02*
X014683Y011379D01*
X014683Y011478D02*
X014783Y011478D01*
X015256Y011478D02*
X015572Y011478D01*
X015572Y011379D02*
X015285Y011379D01*
X015285Y011281D02*
X015572Y011281D01*
X015572Y011182D02*
X015285Y011182D01*
X015285Y011084D02*
X015572Y011084D01*
X015572Y010985D02*
X014783Y010985D01*
X014783Y010911D02*
X015285Y010911D01*
X015285Y010504D01*
X015277Y010476D01*
X015263Y010451D01*
X015243Y010431D01*
X015218Y010416D01*
X015190Y010409D01*
X014783Y010409D01*
X014783Y010911D01*
X014783Y010887D02*
X014683Y010887D01*
X014683Y010911D02*
X014683Y010409D01*
X014275Y010409D01*
X014248Y010416D01*
X014223Y010431D01*
X014202Y010451D01*
X014188Y010476D01*
X014181Y010504D01*
X014181Y010911D01*
X014683Y010911D01*
X014683Y010788D02*
X014783Y010788D01*
X014783Y010690D02*
X014683Y010690D01*
X014683Y010591D02*
X014783Y010591D01*
X014783Y010493D02*
X014683Y010493D01*
X014184Y010493D02*
X013282Y010493D01*
X013285Y010591D02*
X014181Y010591D01*
X014181Y010690D02*
X013285Y010690D01*
X013285Y010788D02*
X014181Y010788D01*
X014181Y010887D02*
X013285Y010887D01*
X013285Y011084D02*
X014181Y011084D01*
X014181Y011182D02*
X013285Y011182D01*
X013192Y011675D02*
X011443Y011675D01*
X011443Y011773D02*
X013151Y011773D01*
X013124Y011872D02*
X011443Y011872D01*
X011443Y011970D02*
X013124Y011970D01*
X013124Y012069D02*
X011443Y012069D01*
X011443Y012167D02*
X013159Y012167D01*
X013200Y012266D02*
X011443Y012266D01*
X011443Y012364D02*
X013274Y012364D01*
X013269Y012463D02*
X013373Y012463D01*
X013285Y012561D02*
X013590Y012561D01*
X013876Y012561D02*
X014181Y012561D01*
X014181Y012660D02*
X013285Y012660D01*
X013285Y012758D02*
X014181Y012758D01*
X014181Y012857D02*
X013285Y012857D01*
X013285Y013054D02*
X014181Y013054D01*
X014181Y013152D02*
X013285Y013152D01*
X013285Y013251D02*
X014181Y013251D01*
X014181Y013349D02*
X013285Y013349D01*
X013276Y013448D02*
X014189Y013448D01*
X014683Y013448D02*
X014783Y013448D01*
X014783Y013349D02*
X014683Y013349D01*
X014683Y013251D02*
X014783Y013251D01*
X014783Y013152D02*
X014683Y013152D01*
X014683Y013054D02*
X014783Y013054D01*
X014783Y012758D02*
X014683Y012758D01*
X014683Y012660D02*
X014783Y012660D01*
X014783Y012561D02*
X014683Y012561D01*
X014683Y012463D02*
X014783Y012463D01*
X014196Y012463D02*
X014093Y012463D01*
X012783Y012463D02*
X012683Y012463D01*
X012683Y012561D02*
X012783Y012561D01*
X012783Y012660D02*
X012683Y012660D01*
X012683Y012758D02*
X012783Y012758D01*
X012783Y013054D02*
X012683Y013054D01*
X012683Y013152D02*
X012783Y013152D01*
X012783Y013251D02*
X012683Y013251D01*
X012683Y013349D02*
X012783Y013349D01*
X012783Y013448D02*
X012683Y013448D01*
X012181Y012758D02*
X011443Y012758D01*
X011443Y012660D02*
X012181Y012660D01*
X012181Y012561D02*
X011443Y012561D01*
X011443Y012463D02*
X012196Y012463D01*
X012683Y011478D02*
X012783Y011478D01*
X012783Y011379D02*
X012683Y011379D01*
X012683Y011281D02*
X012783Y011281D01*
X012783Y011182D02*
X012683Y011182D01*
X012683Y011084D02*
X012783Y011084D01*
X012783Y010788D02*
X012683Y010788D01*
X012683Y010690D02*
X012783Y010690D01*
X012783Y010591D02*
X012683Y010591D01*
X012683Y010493D02*
X012783Y010493D01*
X012849Y010113D02*
X012710Y010113D01*
X012582Y010060D01*
X012484Y009962D01*
X012431Y009833D01*
X012431Y009215D01*
X012484Y009086D01*
X012519Y009052D01*
X012519Y008840D01*
X012109Y008687D01*
X011049Y008687D01*
X011049Y009059D01*
X011076Y009086D01*
X011129Y009215D01*
X011129Y009833D01*
X011076Y009962D01*
X010978Y010060D01*
X010849Y010113D01*
X010710Y010113D01*
X010582Y010060D01*
X010484Y009962D01*
X010431Y009833D01*
X010431Y009215D01*
X010484Y009086D01*
X010511Y009059D01*
X010511Y008687D01*
X009041Y008687D01*
X009041Y009052D01*
X009076Y009086D01*
X009129Y009215D01*
X009129Y009833D01*
X009076Y009962D01*
X008978Y010060D01*
X008849Y010113D01*
X008710Y010113D01*
X008582Y010060D01*
X008484Y009962D01*
X008431Y009833D01*
X008431Y009215D01*
X008484Y009086D01*
X008503Y009067D01*
X008503Y008364D01*
X008544Y008265D01*
X008620Y008190D01*
X008719Y008149D01*
X012153Y008149D01*
X012202Y008147D01*
X012207Y008149D01*
X012211Y008149D01*
X012257Y008167D01*
X012837Y008385D01*
X012841Y008385D01*
X012887Y008404D01*
X012932Y008421D01*
X012936Y008424D01*
X012940Y008426D01*
X012975Y008460D01*
X013011Y008494D01*
X013013Y008498D01*
X013016Y008502D01*
X013035Y008547D01*
X013055Y008591D01*
X013055Y008596D01*
X013057Y008600D01*
X013057Y008649D01*
X013059Y008698D01*
X013057Y008703D01*
X013057Y009067D01*
X013076Y009086D01*
X013129Y009215D01*
X013129Y009833D01*
X013076Y009962D01*
X012978Y010060D01*
X012849Y010113D01*
X012884Y010099D02*
X013675Y010099D01*
X013710Y010113D02*
X013582Y010060D01*
X013484Y009962D01*
X013431Y009833D01*
X013431Y009215D01*
X013484Y009086D01*
X013582Y008988D01*
X013710Y008935D01*
X013849Y008935D01*
X013978Y008988D01*
X014076Y009086D01*
X014129Y009215D01*
X014129Y009833D01*
X014076Y009962D01*
X013978Y010060D01*
X013849Y010113D01*
X013710Y010113D01*
X013884Y010099D02*
X015572Y010099D01*
X015572Y010197D02*
X011940Y010197D01*
X012011Y010099D02*
X012675Y010099D01*
X012522Y010000D02*
X012038Y010000D01*
X012101Y009902D02*
X012459Y009902D01*
X012431Y009803D02*
X012129Y009803D01*
X012129Y009705D02*
X012431Y009705D01*
X012431Y009606D02*
X012129Y009606D01*
X012129Y009508D02*
X012431Y009508D01*
X012431Y009409D02*
X012129Y009409D01*
X012129Y009311D02*
X012431Y009311D01*
X012432Y009212D02*
X012128Y009212D01*
X012087Y009114D02*
X012473Y009114D01*
X012519Y009015D02*
X012005Y009015D01*
X012196Y008720D02*
X011049Y008720D01*
X011049Y008818D02*
X012459Y008818D01*
X012519Y008917D02*
X011049Y008917D01*
X011049Y009015D02*
X011555Y009015D01*
X011473Y009114D02*
X011087Y009114D01*
X011128Y009212D02*
X011432Y009212D01*
X011431Y009311D02*
X011129Y009311D01*
X011129Y009409D02*
X011431Y009409D01*
X011431Y009508D02*
X011129Y009508D01*
X011129Y009606D02*
X011431Y009606D01*
X011431Y009705D02*
X011129Y009705D01*
X011129Y009803D02*
X011431Y009803D01*
X011459Y009902D02*
X011101Y009902D01*
X011038Y010000D02*
X011376Y010000D01*
X011278Y010099D02*
X010884Y010099D01*
X010675Y010099D02*
X009884Y010099D01*
X009849Y010113D02*
X009710Y010113D01*
X009582Y010060D01*
X009484Y009962D01*
X009431Y009833D01*
X009431Y009215D01*
X009484Y009086D01*
X009582Y008988D01*
X009710Y008935D01*
X009849Y008935D01*
X009978Y008988D01*
X010076Y009086D01*
X010129Y009215D01*
X010129Y009833D01*
X010076Y009962D01*
X009978Y010060D01*
X009849Y010113D01*
X009675Y010099D02*
X008884Y010099D01*
X009038Y010000D02*
X009522Y010000D01*
X009459Y009902D02*
X009101Y009902D01*
X009129Y009803D02*
X009431Y009803D01*
X009431Y009705D02*
X009129Y009705D01*
X009129Y009606D02*
X009431Y009606D01*
X009431Y009508D02*
X009129Y009508D01*
X009129Y009409D02*
X009431Y009409D01*
X009431Y009311D02*
X009129Y009311D01*
X009128Y009212D02*
X009432Y009212D01*
X009473Y009114D02*
X009087Y009114D01*
X009041Y009015D02*
X009555Y009015D01*
X010005Y009015D02*
X010511Y009015D01*
X010511Y008917D02*
X009041Y008917D01*
X009041Y008818D02*
X010511Y008818D01*
X010511Y008720D02*
X009041Y008720D01*
X008519Y008326D02*
X005051Y008326D01*
X005040Y008336D02*
X004912Y008389D01*
X004293Y008389D01*
X004165Y008336D01*
X004067Y008237D01*
X004014Y008109D01*
X004014Y007970D01*
X004067Y007842D01*
X004165Y007744D01*
X004293Y007691D01*
X004912Y007691D01*
X005040Y007744D01*
X005139Y007842D01*
X005192Y007970D01*
X005192Y008109D01*
X005139Y008237D01*
X005040Y008336D01*
X005143Y008227D02*
X008582Y008227D01*
X008503Y008424D02*
X000476Y008424D01*
X000476Y008326D02*
X001155Y008326D01*
X001165Y008336D02*
X001067Y008237D01*
X001014Y008109D01*
X001014Y007970D01*
X001067Y007842D01*
X001165Y007744D01*
X001293Y007691D01*
X001912Y007691D01*
X002040Y007744D01*
X002139Y007842D01*
X002192Y007970D01*
X002192Y008109D01*
X002139Y008237D01*
X002040Y008336D01*
X001912Y008389D01*
X001293Y008389D01*
X001165Y008336D01*
X001063Y008227D02*
X000476Y008227D01*
X000476Y008129D02*
X001022Y008129D01*
X001014Y008030D02*
X000476Y008030D01*
X000476Y007932D02*
X001030Y007932D01*
X001076Y007833D02*
X000476Y007833D01*
X000476Y007735D02*
X001188Y007735D01*
X001293Y007389D02*
X001165Y007336D01*
X001067Y007237D01*
X001014Y007109D01*
X001014Y006970D01*
X001067Y006842D01*
X001165Y006744D01*
X001293Y006691D01*
X001912Y006691D01*
X002040Y006744D01*
X002139Y006842D01*
X002192Y006970D01*
X002192Y007109D01*
X002139Y007237D01*
X002040Y007336D01*
X001912Y007389D01*
X001293Y007389D01*
X001177Y007341D02*
X000476Y007341D01*
X000476Y007439D02*
X007479Y007439D01*
X007479Y007448D02*
X007479Y006951D01*
X007431Y006833D01*
X007431Y006215D01*
X007484Y006086D01*
X007582Y005988D01*
X007710Y005935D01*
X007849Y005935D01*
X007978Y005988D01*
X008076Y006086D01*
X008129Y006215D01*
X008129Y006833D01*
X008076Y006962D01*
X008017Y007020D01*
X008017Y007283D01*
X008096Y007361D01*
X009527Y007361D01*
X009527Y007004D01*
X009484Y006962D01*
X009431Y006833D01*
X009431Y006215D01*
X009484Y006086D01*
X009582Y005988D01*
X009710Y005935D01*
X009849Y005935D01*
X009978Y005988D01*
X010076Y006086D01*
X010129Y006215D01*
X010129Y006833D01*
X010076Y006962D01*
X010065Y006973D01*
X010065Y007361D01*
X011130Y007361D01*
X011495Y007240D01*
X011495Y006973D01*
X011484Y006962D01*
X011431Y006833D01*
X011431Y006215D01*
X011484Y006086D01*
X011582Y005988D01*
X011710Y005935D01*
X011849Y005935D01*
X011978Y005988D01*
X012076Y006086D01*
X012129Y006215D01*
X012129Y006833D01*
X012076Y006962D01*
X012033Y007004D01*
X012033Y007390D01*
X012036Y007399D01*
X012033Y007443D01*
X012033Y007487D01*
X012029Y007496D01*
X012029Y007506D01*
X012009Y007545D01*
X011992Y007586D01*
X011985Y007593D01*
X011981Y007602D01*
X011948Y007630D01*
X011917Y007662D01*
X011907Y007665D01*
X011900Y007672D01*
X011858Y007686D01*
X011818Y007703D01*
X011808Y007703D01*
X011268Y007883D01*
X011227Y007899D01*
X011217Y007899D01*
X011208Y007902D01*
X011164Y007899D01*
X009900Y007899D01*
X009801Y007858D01*
X009796Y007853D01*
X009791Y007858D01*
X009692Y007899D01*
X007931Y007899D01*
X007832Y007858D01*
X007757Y007783D01*
X007520Y007547D01*
X007479Y007448D01*
X007517Y007538D02*
X000476Y007538D01*
X000476Y007636D02*
X007610Y007636D01*
X007708Y007735D02*
X005018Y007735D01*
X005130Y007833D02*
X007807Y007833D01*
X008075Y007341D02*
X009527Y007341D01*
X009527Y007242D02*
X008017Y007242D01*
X008017Y007144D02*
X009527Y007144D01*
X009527Y007045D02*
X008993Y007045D01*
X008978Y007060D02*
X009076Y006962D01*
X009129Y006833D01*
X009129Y006215D01*
X009076Y006086D01*
X008978Y005988D01*
X008849Y005935D01*
X008710Y005935D01*
X008582Y005988D01*
X008484Y006086D01*
X008431Y006215D01*
X008431Y006833D01*
X008484Y006962D01*
X008582Y007060D01*
X008710Y007113D01*
X008849Y007113D01*
X008978Y007060D01*
X009082Y006947D02*
X009478Y006947D01*
X009437Y006848D02*
X009123Y006848D01*
X009129Y006750D02*
X009431Y006750D01*
X009431Y006651D02*
X009129Y006651D01*
X009129Y006553D02*
X009431Y006553D01*
X009431Y006454D02*
X009129Y006454D01*
X009129Y006356D02*
X009431Y006356D01*
X009431Y006257D02*
X009129Y006257D01*
X009106Y006159D02*
X009454Y006159D01*
X009510Y006060D02*
X009050Y006060D01*
X008913Y005962D02*
X009646Y005962D01*
X009913Y005962D02*
X010511Y005962D01*
X010511Y006059D02*
X010511Y004986D01*
X010431Y004906D01*
X010355Y004830D01*
X010314Y004731D01*
X010314Y003401D01*
X010277Y003364D01*
X010277Y003192D01*
X009932Y003192D01*
X009903Y003163D01*
X009903Y003054D01*
X009781Y003054D01*
X009754Y003047D01*
X009729Y003033D01*
X009708Y003012D01*
X009694Y002987D01*
X009687Y002960D01*
X009687Y002562D01*
X009952Y002562D01*
X009952Y002462D01*
X009687Y002462D01*
X009687Y002065D01*
X009694Y002037D01*
X009708Y002012D01*
X009729Y001992D01*
X009754Y001978D01*
X009781Y001970D01*
X009903Y001970D01*
X009903Y001862D01*
X009932Y001832D01*
X011234Y001832D01*
X011263Y001862D01*
X011263Y001970D01*
X011385Y001970D01*
X011413Y001978D01*
X011437Y001992D01*
X011458Y002012D01*
X011472Y002037D01*
X011480Y002065D01*
X011480Y002462D01*
X011214Y002462D01*
X011214Y002562D01*
X011480Y002562D01*
X011480Y002960D01*
X011472Y002987D01*
X011458Y003012D01*
X011437Y003033D01*
X011413Y003047D01*
X011385Y003054D01*
X011263Y003054D01*
X011263Y003163D01*
X011234Y003192D01*
X010889Y003192D01*
X010889Y003364D01*
X010852Y003401D01*
X010852Y004566D01*
X011008Y004722D01*
X011049Y004821D01*
X011049Y006059D01*
X011076Y006086D01*
X011129Y006215D01*
X011129Y006833D01*
X011076Y006962D01*
X010978Y007060D01*
X010849Y007113D01*
X010710Y007113D01*
X010582Y007060D01*
X010484Y006962D01*
X010431Y006833D01*
X010431Y006215D01*
X010484Y006086D01*
X010511Y006059D01*
X010510Y006060D02*
X010050Y006060D01*
X010106Y006159D02*
X010454Y006159D01*
X010431Y006257D02*
X010129Y006257D01*
X010129Y006356D02*
X010431Y006356D01*
X010431Y006454D02*
X010129Y006454D01*
X010129Y006553D02*
X010431Y006553D01*
X010431Y006651D02*
X010129Y006651D01*
X010129Y006750D02*
X010431Y006750D01*
X010437Y006848D02*
X010123Y006848D01*
X010082Y006947D02*
X010478Y006947D01*
X010567Y007045D02*
X010065Y007045D01*
X010065Y007144D02*
X011495Y007144D01*
X011488Y007242D02*
X010065Y007242D01*
X010065Y007341D02*
X011192Y007341D01*
X010993Y007045D02*
X011495Y007045D01*
X011478Y006947D02*
X011082Y006947D01*
X011123Y006848D02*
X011437Y006848D01*
X011431Y006750D02*
X011129Y006750D01*
X011129Y006651D02*
X011431Y006651D01*
X011431Y006553D02*
X011129Y006553D01*
X011129Y006454D02*
X011431Y006454D01*
X011431Y006356D02*
X011129Y006356D01*
X011129Y006257D02*
X011431Y006257D01*
X011454Y006159D02*
X011106Y006159D01*
X011050Y006060D02*
X011510Y006060D01*
X011646Y005962D02*
X011049Y005962D01*
X011049Y005863D02*
X015572Y005863D01*
X015572Y005765D02*
X011049Y005765D01*
X011049Y005666D02*
X015572Y005666D01*
X015572Y005568D02*
X015082Y005568D01*
X015080Y005572D02*
X015066Y005597D01*
X015046Y005617D01*
X015021Y005632D01*
X014993Y005639D01*
X014586Y005639D01*
X014586Y005137D01*
X015088Y005137D01*
X015088Y005544D01*
X015080Y005572D01*
X015088Y005469D02*
X015572Y005469D01*
X015572Y005371D02*
X015088Y005371D01*
X015088Y005272D02*
X015572Y005272D01*
X015572Y005174D02*
X015088Y005174D01*
X015088Y005037D02*
X014586Y005037D01*
X014586Y005137D01*
X014486Y005137D01*
X014486Y005639D01*
X014079Y005639D01*
X014051Y005632D01*
X014026Y005617D01*
X014006Y005597D01*
X013991Y005572D01*
X013984Y005544D01*
X013984Y005137D01*
X014486Y005137D01*
X014486Y005037D01*
X014586Y005037D01*
X014586Y004535D01*
X014993Y004535D01*
X015021Y004542D01*
X015046Y004557D01*
X015066Y004577D01*
X015080Y004602D01*
X015088Y004630D01*
X015088Y005037D01*
X015088Y004977D02*
X015572Y004977D01*
X015572Y005075D02*
X014586Y005075D01*
X014586Y004977D02*
X014486Y004977D01*
X014486Y005037D02*
X014486Y004535D01*
X014079Y004535D01*
X014051Y004542D01*
X014026Y004557D01*
X014006Y004577D01*
X013991Y004602D01*
X013984Y004630D01*
X013984Y005037D01*
X014486Y005037D01*
X014486Y005075D02*
X012586Y005075D01*
X012586Y005037D02*
X012586Y005137D01*
X013088Y005137D01*
X013088Y005544D01*
X013080Y005572D01*
X013066Y005597D01*
X013046Y005617D01*
X013021Y005632D01*
X012993Y005639D01*
X012586Y005639D01*
X012586Y005137D01*
X012486Y005137D01*
X012486Y005639D01*
X012079Y005639D01*
X012051Y005632D01*
X012026Y005617D01*
X012006Y005597D01*
X011991Y005572D01*
X011984Y005544D01*
X011984Y005137D01*
X012486Y005137D01*
X012486Y005037D01*
X012586Y005037D01*
X013088Y005037D01*
X013088Y004630D01*
X013080Y004602D01*
X013066Y004577D01*
X013046Y004557D01*
X013021Y004542D01*
X012993Y004535D01*
X012586Y004535D01*
X012586Y005037D01*
X012586Y004977D02*
X012486Y004977D01*
X012486Y005037D02*
X012486Y004535D01*
X012079Y004535D01*
X012051Y004542D01*
X012026Y004557D01*
X012006Y004577D01*
X011991Y004602D01*
X011984Y004630D01*
X011984Y005037D01*
X012486Y005037D01*
X012486Y005075D02*
X011049Y005075D01*
X011049Y004977D02*
X011984Y004977D01*
X011984Y004878D02*
X011049Y004878D01*
X011032Y004780D02*
X011984Y004780D01*
X011984Y004681D02*
X010967Y004681D01*
X010869Y004583D02*
X012003Y004583D01*
X012486Y004583D02*
X012586Y004583D01*
X012586Y004681D02*
X012486Y004681D01*
X012486Y004780D02*
X012586Y004780D01*
X012586Y004878D02*
X012486Y004878D01*
X012486Y005174D02*
X012586Y005174D01*
X012586Y005272D02*
X012486Y005272D01*
X012486Y005371D02*
X012586Y005371D01*
X012586Y005469D02*
X012486Y005469D01*
X012486Y005568D02*
X012586Y005568D01*
X012710Y005935D02*
X012849Y005935D01*
X012978Y005988D01*
X013076Y006086D01*
X013129Y006215D01*
X013129Y006833D01*
X013076Y006962D01*
X012978Y007060D01*
X012849Y007113D01*
X012710Y007113D01*
X012582Y007060D01*
X012484Y006962D01*
X012431Y006833D01*
X012431Y006215D01*
X012484Y006086D01*
X012582Y005988D01*
X012710Y005935D01*
X012646Y005962D02*
X011913Y005962D01*
X012050Y006060D02*
X012510Y006060D01*
X012454Y006159D02*
X012106Y006159D01*
X012129Y006257D02*
X012431Y006257D01*
X012431Y006356D02*
X012129Y006356D01*
X012129Y006454D02*
X012431Y006454D01*
X012431Y006553D02*
X012129Y006553D01*
X012129Y006651D02*
X012431Y006651D01*
X012431Y006750D02*
X012129Y006750D01*
X012123Y006848D02*
X012437Y006848D01*
X012478Y006947D02*
X012082Y006947D01*
X012033Y007045D02*
X012567Y007045D01*
X012993Y007045D02*
X013572Y007045D01*
X013557Y007035D02*
X013509Y006987D01*
X013471Y006929D01*
X013444Y006866D01*
X013431Y006798D01*
X013431Y006554D01*
X013750Y006554D01*
X013750Y007113D01*
X013746Y007113D01*
X013678Y007100D01*
X013615Y007073D01*
X013557Y007035D01*
X013482Y006947D02*
X013082Y006947D01*
X013123Y006848D02*
X013441Y006848D01*
X013431Y006750D02*
X013129Y006750D01*
X013129Y006651D02*
X013431Y006651D01*
X013431Y006494D02*
X013431Y006250D01*
X013444Y006182D01*
X013471Y006119D01*
X013509Y006062D01*
X013557Y006013D01*
X013615Y005975D01*
X013678Y005948D01*
X013746Y005935D01*
X013750Y005935D01*
X013750Y006494D01*
X013810Y006494D01*
X013810Y006554D01*
X014129Y006554D01*
X014129Y006798D01*
X014116Y006866D01*
X014089Y006929D01*
X014051Y006987D01*
X014002Y007035D01*
X013945Y007073D01*
X013882Y007100D01*
X013814Y007113D01*
X013810Y007113D01*
X013810Y006554D01*
X013750Y006554D01*
X013750Y006494D01*
X013431Y006494D01*
X013431Y006454D02*
X013129Y006454D01*
X013129Y006356D02*
X013431Y006356D01*
X013431Y006257D02*
X013129Y006257D01*
X013106Y006159D02*
X013454Y006159D01*
X013510Y006060D02*
X013050Y006060D01*
X012913Y005962D02*
X013646Y005962D01*
X013750Y005962D02*
X013810Y005962D01*
X013810Y005935D02*
X013814Y005935D01*
X013882Y005948D01*
X013945Y005975D01*
X014002Y006013D01*
X014051Y006062D01*
X014089Y006119D01*
X014116Y006182D01*
X014129Y006250D01*
X014129Y006494D01*
X013810Y006494D01*
X013810Y005935D01*
X013913Y005962D02*
X015572Y005962D01*
X015572Y006060D02*
X014050Y006060D01*
X014106Y006159D02*
X015572Y006159D01*
X015572Y006257D02*
X014129Y006257D01*
X014129Y006356D02*
X015572Y006356D01*
X015572Y006454D02*
X014129Y006454D01*
X014129Y006651D02*
X015572Y006651D01*
X015572Y006553D02*
X013810Y006553D01*
X013750Y006553D02*
X013129Y006553D01*
X013750Y006651D02*
X013810Y006651D01*
X013810Y006750D02*
X013750Y006750D01*
X013750Y006848D02*
X013810Y006848D01*
X013810Y006947D02*
X013750Y006947D01*
X013750Y007045D02*
X013810Y007045D01*
X013988Y007045D02*
X015572Y007045D01*
X015572Y006947D02*
X014078Y006947D01*
X014119Y006848D02*
X015572Y006848D01*
X015572Y006750D02*
X014129Y006750D01*
X013810Y006454D02*
X013750Y006454D01*
X013750Y006356D02*
X013810Y006356D01*
X013810Y006257D02*
X013750Y006257D01*
X013750Y006159D02*
X013810Y006159D01*
X013810Y006060D02*
X013750Y006060D01*
X013990Y005568D02*
X013082Y005568D01*
X013088Y005469D02*
X013984Y005469D01*
X013984Y005371D02*
X013088Y005371D01*
X013088Y005272D02*
X013984Y005272D01*
X013984Y005174D02*
X013088Y005174D01*
X013088Y004977D02*
X013984Y004977D01*
X013984Y004878D02*
X013088Y004878D01*
X013088Y004780D02*
X013984Y004780D01*
X013984Y004681D02*
X013693Y004681D01*
X013657Y004696D02*
X013415Y004696D01*
X013191Y004603D01*
X013019Y004432D01*
X012927Y004208D01*
X012927Y003966D01*
X013019Y003742D01*
X013191Y003571D01*
X013415Y003478D01*
X013657Y003478D01*
X013881Y003571D01*
X014052Y003742D01*
X014145Y003966D01*
X014145Y004208D01*
X014052Y004432D01*
X013881Y004603D01*
X013657Y004696D01*
X013902Y004583D02*
X014003Y004583D01*
X014000Y004484D02*
X015572Y004484D01*
X015572Y004386D02*
X014071Y004386D01*
X014112Y004287D02*
X015572Y004287D01*
X015572Y004189D02*
X014145Y004189D01*
X014145Y004090D02*
X015572Y004090D01*
X015572Y003992D02*
X014145Y003992D01*
X014115Y003893D02*
X015572Y003893D01*
X015572Y003795D02*
X014074Y003795D01*
X014006Y003696D02*
X015572Y003696D01*
X015572Y003598D02*
X015065Y003598D01*
X015066Y003597D02*
X015046Y003617D01*
X015021Y003632D01*
X014993Y003639D01*
X014586Y003639D01*
X014586Y003137D01*
X015088Y003137D01*
X015088Y003544D01*
X015080Y003572D01*
X015066Y003597D01*
X015088Y003499D02*
X015572Y003499D01*
X015572Y003401D02*
X015088Y003401D01*
X015088Y003302D02*
X015572Y003302D01*
X015572Y003204D02*
X015088Y003204D01*
X015088Y003037D02*
X014586Y003037D01*
X014586Y003137D01*
X014486Y003137D01*
X014486Y003639D01*
X014079Y003639D01*
X014051Y003632D01*
X014026Y003617D01*
X014006Y003597D01*
X013991Y003572D01*
X013984Y003544D01*
X013984Y003137D01*
X014486Y003137D01*
X014486Y003037D01*
X014586Y003037D01*
X014586Y002535D01*
X014993Y002535D01*
X015021Y002542D01*
X015046Y002557D01*
X015066Y002577D01*
X015080Y002602D01*
X015088Y002630D01*
X015088Y003037D01*
X015088Y003007D02*
X015572Y003007D01*
X015572Y003105D02*
X014586Y003105D01*
X014586Y003007D02*
X014486Y003007D01*
X014486Y003037D02*
X014486Y002535D01*
X014079Y002535D01*
X014051Y002542D01*
X014026Y002557D01*
X014006Y002577D01*
X013991Y002602D01*
X013984Y002630D01*
X013984Y003037D01*
X014486Y003037D01*
X014486Y003105D02*
X012586Y003105D01*
X012586Y003137D02*
X013088Y003137D01*
X013088Y003544D01*
X013080Y003572D01*
X013066Y003597D01*
X013046Y003617D01*
X013021Y003632D01*
X012993Y003639D01*
X012586Y003639D01*
X012586Y003137D01*
X012586Y003037D01*
X013088Y003037D01*
X013088Y002630D01*
X013080Y002602D01*
X013066Y002577D01*
X013046Y002557D01*
X013021Y002542D01*
X012993Y002535D01*
X012586Y002535D01*
X012586Y003037D01*
X012486Y003037D01*
X012486Y002535D01*
X012079Y002535D01*
X012051Y002542D01*
X012026Y002557D01*
X012006Y002577D01*
X011991Y002602D01*
X011984Y002630D01*
X011984Y003037D01*
X012486Y003037D01*
X012486Y003137D01*
X012486Y003639D01*
X012079Y003639D01*
X012051Y003632D01*
X012026Y003617D01*
X012006Y003597D01*
X011991Y003572D01*
X011984Y003544D01*
X011984Y003137D01*
X012486Y003137D01*
X012586Y003137D01*
X012586Y003204D02*
X012486Y003204D01*
X012486Y003302D02*
X012586Y003302D01*
X012586Y003401D02*
X012486Y003401D01*
X012486Y003499D02*
X012586Y003499D01*
X012586Y003598D02*
X012486Y003598D01*
X012006Y003598D02*
X010852Y003598D01*
X010852Y003696D02*
X013065Y003696D01*
X013065Y003598D02*
X013164Y003598D01*
X013088Y003499D02*
X013364Y003499D01*
X013088Y003401D02*
X013984Y003401D01*
X013984Y003499D02*
X013708Y003499D01*
X013908Y003598D02*
X014006Y003598D01*
X013984Y003302D02*
X013088Y003302D01*
X013088Y003204D02*
X013984Y003204D01*
X013984Y003007D02*
X013088Y003007D01*
X013088Y002908D02*
X013984Y002908D01*
X013984Y002810D02*
X013088Y002810D01*
X013088Y002711D02*
X013984Y002711D01*
X013988Y002613D02*
X013083Y002613D01*
X012586Y002613D02*
X012486Y002613D01*
X012486Y002711D02*
X012586Y002711D01*
X012586Y002810D02*
X012486Y002810D01*
X012486Y002908D02*
X012586Y002908D01*
X012586Y003007D02*
X012486Y003007D01*
X012486Y003105D02*
X011263Y003105D01*
X011461Y003007D02*
X011984Y003007D01*
X011984Y002908D02*
X011480Y002908D01*
X011480Y002810D02*
X011984Y002810D01*
X011984Y002711D02*
X011480Y002711D01*
X011480Y002613D02*
X011988Y002613D01*
X011480Y002416D02*
X015572Y002416D01*
X015572Y002514D02*
X011214Y002514D01*
X011480Y002317D02*
X015572Y002317D01*
X015572Y002219D02*
X011480Y002219D01*
X011480Y002120D02*
X014673Y002120D01*
X014421Y002022D02*
X011463Y002022D01*
X011263Y001923D02*
X014268Y001923D01*
X014169Y001825D02*
X005377Y001825D01*
X005377Y001872D02*
X005111Y001872D01*
X005111Y001972D01*
X005377Y001972D01*
X005377Y002369D01*
X005370Y002397D01*
X005355Y002422D01*
X005335Y002442D01*
X005310Y002456D01*
X005282Y002464D01*
X005161Y002464D01*
X005161Y002572D01*
X005131Y002602D01*
X004787Y002602D01*
X004787Y002774D01*
X004750Y002811D01*
X004750Y003234D01*
X004841Y003691D01*
X004912Y003691D01*
X005040Y003744D01*
X005139Y003842D01*
X005192Y003970D01*
X005192Y004109D01*
X005139Y004237D01*
X005040Y004336D01*
X004912Y004389D01*
X004293Y004389D01*
X004165Y004336D01*
X004067Y004237D01*
X004014Y004109D01*
X004014Y003970D01*
X004067Y003842D01*
X004165Y003744D01*
X004292Y003691D01*
X004222Y003339D01*
X004212Y003314D01*
X004212Y003287D01*
X004206Y003261D01*
X004212Y003234D01*
X004212Y002811D01*
X004175Y002774D01*
X004175Y002602D01*
X003830Y002602D01*
X003801Y002572D01*
X003801Y002464D01*
X003679Y002464D01*
X003651Y002456D01*
X003626Y002442D01*
X003606Y002422D01*
X003592Y002397D01*
X003584Y002369D01*
X003584Y001972D01*
X003850Y001972D01*
X003850Y001872D01*
X003584Y001872D01*
X003584Y001474D01*
X003592Y001446D01*
X003606Y001422D01*
X003626Y001401D01*
X003651Y001387D01*
X003679Y001380D01*
X003801Y001380D01*
X003801Y001271D01*
X003830Y001242D01*
X005131Y001242D01*
X005161Y001271D01*
X005161Y001380D01*
X005282Y001380D01*
X005310Y001387D01*
X005335Y001401D01*
X005355Y001422D01*
X005370Y001446D01*
X005377Y001474D01*
X005377Y001872D01*
X005377Y001726D02*
X014084Y001726D01*
X014027Y001628D02*
X005377Y001628D01*
X005377Y001529D02*
X013970Y001529D01*
X013943Y001431D02*
X005361Y001431D01*
X005161Y001332D02*
X013916Y001332D01*
X013899Y001234D02*
X002149Y001234D01*
X002149Y001135D02*
X013899Y001135D01*
X013899Y001037D02*
X002149Y001037D01*
X002132Y000938D02*
X013916Y000938D01*
X013942Y000840D02*
X002106Y000840D01*
X002079Y000741D02*
X013969Y000741D01*
X014026Y000643D02*
X002022Y000643D01*
X001965Y000544D02*
X014083Y000544D01*
X015406Y002022D02*
X015572Y002022D01*
X015572Y002120D02*
X015155Y002120D01*
X015560Y001923D02*
X015572Y001923D01*
X015572Y002613D02*
X015083Y002613D01*
X015088Y002711D02*
X015572Y002711D01*
X015572Y002810D02*
X015088Y002810D01*
X015088Y002908D02*
X015572Y002908D01*
X014586Y002908D02*
X014486Y002908D01*
X014486Y002810D02*
X014586Y002810D01*
X014586Y002711D02*
X014486Y002711D01*
X014486Y002613D02*
X014586Y002613D01*
X014586Y003204D02*
X014486Y003204D01*
X014486Y003302D02*
X014586Y003302D01*
X014586Y003401D02*
X014486Y003401D01*
X014486Y003499D02*
X014586Y003499D01*
X014586Y003598D02*
X014486Y003598D01*
X014486Y004583D02*
X014586Y004583D01*
X014586Y004681D02*
X014486Y004681D01*
X014486Y004780D02*
X014586Y004780D01*
X014586Y004878D02*
X014486Y004878D01*
X014486Y005174D02*
X014586Y005174D01*
X014586Y005272D02*
X014486Y005272D01*
X014486Y005371D02*
X014586Y005371D01*
X014586Y005469D02*
X014486Y005469D01*
X014486Y005568D02*
X014586Y005568D01*
X015088Y004878D02*
X015572Y004878D01*
X015572Y004780D02*
X015088Y004780D01*
X015088Y004681D02*
X015572Y004681D01*
X015572Y004583D02*
X015069Y004583D01*
X013378Y004681D02*
X013088Y004681D01*
X013069Y004583D02*
X013170Y004583D01*
X013071Y004484D02*
X010852Y004484D01*
X010852Y004386D02*
X013000Y004386D01*
X012959Y004287D02*
X010852Y004287D01*
X010852Y004189D02*
X012927Y004189D01*
X012927Y004090D02*
X010852Y004090D01*
X010852Y003992D02*
X012927Y003992D01*
X012957Y003893D02*
X010852Y003893D01*
X010852Y003795D02*
X012998Y003795D01*
X011984Y003499D02*
X010852Y003499D01*
X010853Y003401D02*
X011984Y003401D01*
X011984Y003302D02*
X010889Y003302D01*
X010889Y003204D02*
X011984Y003204D01*
X010313Y003401D02*
X008365Y003401D01*
X008343Y003348D02*
X008436Y003572D01*
X008436Y003814D01*
X008343Y004038D01*
X008172Y004210D01*
X007948Y004302D01*
X007706Y004302D01*
X007482Y004210D01*
X007311Y004038D01*
X007218Y003814D01*
X007218Y003572D01*
X007311Y003348D01*
X007482Y003177D01*
X007706Y003084D01*
X007948Y003084D01*
X008172Y003177D01*
X008343Y003348D01*
X008297Y003302D02*
X010277Y003302D01*
X010277Y003204D02*
X009357Y003204D01*
X009357Y003203D02*
X009337Y003223D01*
X009312Y003238D01*
X009284Y003245D01*
X008877Y003245D01*
X008877Y002743D01*
X009379Y002743D01*
X009379Y003151D01*
X009372Y003178D01*
X009357Y003203D01*
X009379Y003105D02*
X009903Y003105D01*
X009705Y003007D02*
X009379Y003007D01*
X009379Y002908D02*
X009687Y002908D01*
X009687Y002810D02*
X009379Y002810D01*
X009379Y002643D02*
X008877Y002643D01*
X008877Y002141D01*
X009284Y002141D01*
X009312Y002149D01*
X009337Y002163D01*
X009357Y002183D01*
X009372Y002208D01*
X009379Y002236D01*
X009379Y002643D01*
X009379Y002613D02*
X009687Y002613D01*
X009687Y002711D02*
X008877Y002711D01*
X008877Y002743D02*
X008877Y002643D01*
X008777Y002643D01*
X008777Y002141D01*
X008370Y002141D01*
X008342Y002149D01*
X008317Y002163D01*
X008297Y002183D01*
X008283Y002208D01*
X008275Y002236D01*
X008275Y002643D01*
X008777Y002643D01*
X008777Y002743D01*
X008275Y002743D01*
X008275Y003151D01*
X008283Y003178D01*
X008297Y003203D01*
X008317Y003223D01*
X008342Y003238D01*
X008370Y003245D01*
X008777Y003245D01*
X008777Y002743D01*
X008877Y002743D01*
X008877Y002810D02*
X008777Y002810D01*
X008777Y002908D02*
X008877Y002908D01*
X008877Y003007D02*
X008777Y003007D01*
X008777Y003105D02*
X008877Y003105D01*
X008877Y003204D02*
X008777Y003204D01*
X008406Y003499D02*
X010314Y003499D01*
X010314Y003598D02*
X008436Y003598D01*
X008436Y003696D02*
X010314Y003696D01*
X010314Y003795D02*
X008436Y003795D01*
X008404Y003893D02*
X010314Y003893D01*
X010314Y003992D02*
X008363Y003992D01*
X008292Y004090D02*
X010314Y004090D01*
X010314Y004189D02*
X009360Y004189D01*
X009357Y004183D02*
X009372Y004208D01*
X009379Y004236D01*
X009379Y004643D01*
X008877Y004643D01*
X008877Y004141D01*
X009284Y004141D01*
X009312Y004149D01*
X009337Y004163D01*
X009357Y004183D01*
X009379Y004287D02*
X010314Y004287D01*
X010314Y004386D02*
X009379Y004386D01*
X009379Y004484D02*
X010314Y004484D01*
X010314Y004583D02*
X009379Y004583D01*
X009379Y004743D02*
X009379Y005151D01*
X009372Y005178D01*
X009357Y005203D01*
X009337Y005223D01*
X009312Y005238D01*
X009284Y005245D01*
X008877Y005245D01*
X008877Y004743D01*
X009379Y004743D01*
X009379Y004780D02*
X010334Y004780D01*
X010314Y004681D02*
X008877Y004681D01*
X008877Y004643D02*
X008877Y004743D01*
X008777Y004743D01*
X008777Y004643D01*
X008877Y004643D01*
X008877Y004583D02*
X008777Y004583D01*
X008777Y004643D02*
X008777Y004141D01*
X008370Y004141D01*
X008342Y004149D01*
X008317Y004163D01*
X008297Y004183D01*
X008283Y004208D01*
X008275Y004236D01*
X008275Y004643D01*
X008777Y004643D01*
X008777Y004681D02*
X006877Y004681D01*
X006877Y004643D02*
X006877Y004743D01*
X007379Y004743D01*
X007379Y005151D01*
X007372Y005178D01*
X007357Y005203D01*
X007337Y005223D01*
X007312Y005238D01*
X007284Y005245D01*
X006877Y005245D01*
X006877Y004743D01*
X006777Y004743D01*
X006777Y004643D01*
X006877Y004643D01*
X006877Y004141D01*
X007284Y004141D01*
X007312Y004149D01*
X007337Y004163D01*
X007357Y004183D01*
X007372Y004208D01*
X007379Y004236D01*
X007379Y004643D01*
X006877Y004643D01*
X006877Y004583D02*
X006777Y004583D01*
X006777Y004643D02*
X006777Y004141D01*
X006370Y004141D01*
X006342Y004149D01*
X006317Y004163D01*
X006297Y004183D01*
X006283Y004208D01*
X006275Y004236D01*
X006275Y004643D01*
X006777Y004643D01*
X006777Y004681D02*
X000476Y004681D01*
X000476Y004583D02*
X006275Y004583D01*
X006275Y004484D02*
X000476Y004484D01*
X000476Y004386D02*
X001312Y004386D01*
X001328Y004389D02*
X001261Y004375D01*
X001197Y004349D01*
X001140Y004311D01*
X001092Y004262D01*
X001053Y004205D01*
X001027Y004142D01*
X001014Y004074D01*
X001014Y004070D01*
X001573Y004070D01*
X001573Y004389D01*
X001328Y004389D01*
X001573Y004386D02*
X001633Y004386D01*
X001633Y004389D02*
X001633Y004070D01*
X001573Y004070D01*
X001573Y004010D01*
X001633Y004010D01*
X001633Y004070D01*
X002192Y004070D01*
X002192Y004074D01*
X002178Y004142D01*
X002152Y004205D01*
X002114Y004262D01*
X002065Y004311D01*
X002008Y004349D01*
X001945Y004375D01*
X001877Y004389D01*
X001633Y004389D01*
X001633Y004287D02*
X001573Y004287D01*
X001573Y004189D02*
X001633Y004189D01*
X001633Y004090D02*
X001573Y004090D01*
X001573Y004010D02*
X001014Y004010D01*
X001014Y004005D01*
X001027Y003938D01*
X001053Y003874D01*
X001092Y003817D01*
X001140Y003769D01*
X001197Y003730D01*
X001261Y003704D01*
X001328Y003691D01*
X001573Y003691D01*
X001573Y004010D01*
X001573Y003992D02*
X001633Y003992D01*
X001633Y004010D02*
X001633Y003691D01*
X001877Y003691D01*
X001945Y003704D01*
X002008Y003730D01*
X002065Y003769D01*
X002114Y003817D01*
X002152Y003874D01*
X002178Y003938D01*
X002192Y004005D01*
X002192Y004010D01*
X001633Y004010D01*
X001633Y003893D02*
X001573Y003893D01*
X001573Y003795D02*
X001633Y003795D01*
X001633Y003696D02*
X001573Y003696D01*
X001302Y003696D02*
X000476Y003696D01*
X000476Y003598D02*
X004274Y003598D01*
X004281Y003696D02*
X001904Y003696D01*
X002091Y003795D02*
X004114Y003795D01*
X004046Y003893D02*
X002160Y003893D01*
X002189Y003992D02*
X004014Y003992D01*
X004014Y004090D02*
X002189Y004090D01*
X002159Y004189D02*
X004047Y004189D01*
X004116Y004287D02*
X002089Y004287D01*
X001894Y004386D02*
X004285Y004386D01*
X004293Y004691D02*
X004165Y004744D01*
X004067Y004842D01*
X004014Y004970D01*
X004014Y005109D01*
X004067Y005237D01*
X004165Y005336D01*
X004293Y005389D01*
X004912Y005389D01*
X005040Y005336D01*
X005139Y005237D01*
X005192Y005109D01*
X005192Y004970D01*
X005139Y004842D01*
X005040Y004744D01*
X004912Y004691D01*
X004293Y004691D01*
X004129Y004780D02*
X002076Y004780D01*
X002040Y004744D02*
X002139Y004842D01*
X002192Y004970D01*
X002192Y005109D01*
X002139Y005237D01*
X002040Y005336D01*
X001912Y005389D01*
X001293Y005389D01*
X001165Y005336D01*
X001067Y005237D01*
X001014Y005109D01*
X001014Y004970D01*
X001067Y004842D01*
X001165Y004744D01*
X001293Y004691D01*
X001912Y004691D01*
X002040Y004744D01*
X002154Y004878D02*
X004052Y004878D01*
X004014Y004977D02*
X002192Y004977D01*
X002192Y005075D02*
X004014Y005075D01*
X004040Y005174D02*
X002165Y005174D01*
X002104Y005272D02*
X004101Y005272D01*
X004249Y005371D02*
X001956Y005371D01*
X001912Y005691D02*
X002040Y005744D01*
X002139Y005842D01*
X002192Y005970D01*
X002192Y006109D01*
X002139Y006237D01*
X002040Y006336D01*
X001912Y006389D01*
X001293Y006389D01*
X001165Y006336D01*
X001067Y006237D01*
X001014Y006109D01*
X001014Y005970D01*
X001067Y005842D01*
X001165Y005744D01*
X001293Y005691D01*
X001912Y005691D01*
X002061Y005765D02*
X004144Y005765D01*
X004165Y005744D02*
X004293Y005691D01*
X004912Y005691D01*
X005040Y005744D01*
X005139Y005842D01*
X005192Y005970D01*
X005192Y006109D01*
X005139Y006237D01*
X005040Y006336D01*
X004912Y006389D01*
X004293Y006389D01*
X004165Y006336D01*
X004067Y006237D01*
X004014Y006109D01*
X004014Y005970D01*
X004067Y005842D01*
X004165Y005744D01*
X004058Y005863D02*
X002147Y005863D01*
X002188Y005962D02*
X004017Y005962D01*
X004014Y006060D02*
X002192Y006060D01*
X002171Y006159D02*
X004034Y006159D01*
X004086Y006257D02*
X002119Y006257D01*
X001993Y006356D02*
X004213Y006356D01*
X004293Y006691D02*
X004912Y006691D01*
X005040Y006744D01*
X005139Y006842D01*
X005192Y006970D01*
X005192Y007109D01*
X005139Y007237D01*
X005040Y007336D01*
X004912Y007389D01*
X004293Y007389D01*
X004165Y007336D01*
X004067Y007237D01*
X004014Y007109D01*
X004014Y006970D01*
X004067Y006842D01*
X004165Y006744D01*
X004293Y006691D01*
X004159Y006750D02*
X002046Y006750D01*
X002141Y006848D02*
X004064Y006848D01*
X004024Y006947D02*
X002182Y006947D01*
X002192Y007045D02*
X004014Y007045D01*
X004028Y007144D02*
X002178Y007144D01*
X002134Y007242D02*
X004071Y007242D01*
X004177Y007341D02*
X002029Y007341D01*
X002018Y007735D02*
X004188Y007735D01*
X004076Y007833D02*
X002130Y007833D01*
X002176Y007932D02*
X004030Y007932D01*
X004014Y008030D02*
X002192Y008030D01*
X002184Y008129D02*
X004022Y008129D01*
X004063Y008227D02*
X002143Y008227D01*
X002051Y008326D02*
X004155Y008326D01*
X004293Y008691D02*
X004165Y008744D01*
X004067Y008842D01*
X004014Y008970D01*
X004014Y009109D01*
X004067Y009237D01*
X004165Y009336D01*
X004293Y009389D01*
X004912Y009389D01*
X005040Y009336D01*
X005139Y009237D01*
X005192Y009109D01*
X005192Y008970D01*
X005139Y008842D01*
X005040Y008744D01*
X004912Y008691D01*
X004293Y008691D01*
X004224Y008720D02*
X001982Y008720D01*
X002040Y008744D02*
X002139Y008842D01*
X002192Y008970D01*
X002192Y009109D01*
X002139Y009237D01*
X002040Y009336D01*
X001912Y009389D01*
X001293Y009389D01*
X001165Y009336D01*
X001067Y009237D01*
X001014Y009109D01*
X001014Y008970D01*
X001067Y008842D01*
X001165Y008744D01*
X001293Y008691D01*
X001912Y008691D01*
X002040Y008744D01*
X002115Y008818D02*
X004091Y008818D01*
X004036Y008917D02*
X002170Y008917D01*
X002192Y009015D02*
X004014Y009015D01*
X004015Y009114D02*
X002190Y009114D01*
X002149Y009212D02*
X004056Y009212D01*
X004140Y009311D02*
X002066Y009311D01*
X001912Y009691D02*
X002040Y009744D01*
X002139Y009842D01*
X002192Y009970D01*
X002192Y010109D01*
X002139Y010237D01*
X002040Y010336D01*
X001912Y010389D01*
X001293Y010389D01*
X001165Y010336D01*
X001067Y010237D01*
X001014Y010109D01*
X001014Y009970D01*
X001067Y009842D01*
X001165Y009744D01*
X001293Y009691D01*
X001912Y009691D01*
X001946Y009705D02*
X004260Y009705D01*
X004946Y009705D02*
X005372Y009705D01*
X005471Y009606D02*
X000476Y009606D01*
X000476Y009508D02*
X005569Y009508D01*
X005668Y009409D02*
X000476Y009409D01*
X000476Y009311D02*
X001140Y009311D01*
X001056Y009212D02*
X000476Y009212D01*
X000476Y009114D02*
X001015Y009114D01*
X001014Y009015D02*
X000476Y009015D01*
X000476Y008917D02*
X001036Y008917D01*
X001091Y008818D02*
X000476Y008818D01*
X000476Y008720D02*
X001224Y008720D01*
X000476Y008621D02*
X005592Y008621D01*
X005592Y008720D02*
X004982Y008720D01*
X005115Y008818D02*
X005590Y008818D01*
X005592Y008917D02*
X005170Y008917D01*
X005192Y009015D02*
X005593Y009015D01*
X005766Y009311D02*
X005066Y009311D01*
X005149Y009212D02*
X006377Y009212D01*
X006377Y009114D02*
X005190Y009114D01*
X005709Y009368D02*
X005709Y009368D01*
X006035Y009803D02*
X007431Y009803D01*
X007459Y009902D02*
X005936Y009902D01*
X005838Y010000D02*
X007522Y010000D01*
X007675Y010099D02*
X005739Y010099D01*
X005693Y010145D02*
X005693Y010145D01*
X005641Y010197D02*
X011179Y010197D01*
X011081Y010296D02*
X005081Y010296D01*
X003771Y011343D02*
X003785Y011368D01*
X003793Y011395D01*
X003793Y011745D01*
X003565Y011745D01*
X003565Y011301D01*
X003698Y011301D01*
X003726Y011308D01*
X003750Y011323D01*
X003771Y011343D01*
X003788Y011379D02*
X010905Y011379D01*
X010905Y011281D02*
X003293Y011281D01*
X003300Y011379D02*
X003303Y011379D01*
X003293Y011182D02*
X010905Y011182D01*
X010905Y011084D02*
X003293Y011084D01*
X003293Y010985D02*
X010905Y010985D01*
X010905Y010887D02*
X003293Y010887D01*
X003293Y010788D02*
X010905Y010788D01*
X010905Y010690D02*
X003311Y010690D01*
X003424Y010591D02*
X010905Y010591D01*
X010920Y010493D02*
X003536Y010493D01*
X003649Y010394D02*
X010982Y010394D01*
X011448Y010690D02*
X012181Y010690D01*
X012181Y010788D02*
X011443Y010788D01*
X011546Y010591D02*
X012181Y010591D01*
X012184Y010493D02*
X011645Y010493D01*
X011743Y010394D02*
X015572Y010394D01*
X015572Y010296D02*
X011842Y010296D01*
X010905Y011478D02*
X009573Y011478D01*
X009576Y011488D02*
X009576Y011895D01*
X009074Y011895D01*
X009074Y011393D01*
X009481Y011393D01*
X009509Y011401D01*
X009534Y011415D01*
X009554Y011435D01*
X009569Y011460D01*
X009576Y011488D01*
X009576Y011576D02*
X010905Y011576D01*
X010905Y011675D02*
X009576Y011675D01*
X009576Y011773D02*
X010905Y011773D01*
X010905Y011872D02*
X009576Y011872D01*
X009576Y011995D02*
X009576Y012403D01*
X009569Y012430D01*
X009554Y012455D01*
X009534Y012475D01*
X009509Y012490D01*
X009481Y012497D01*
X009074Y012497D01*
X009074Y011995D01*
X009576Y011995D01*
X009576Y012069D02*
X010905Y012069D01*
X010905Y012167D02*
X009576Y012167D01*
X009576Y012266D02*
X010905Y012266D01*
X010905Y012364D02*
X009576Y012364D01*
X009547Y012463D02*
X010905Y012463D01*
X010905Y012561D02*
X008501Y012561D01*
X008540Y012600D02*
X008369Y012429D01*
X008145Y012336D01*
X007903Y012336D01*
X007679Y012429D01*
X007508Y012600D01*
X007415Y012824D01*
X007415Y013066D01*
X007508Y013290D01*
X007679Y013462D01*
X007903Y013554D01*
X008145Y013554D01*
X008369Y013462D01*
X008540Y013290D01*
X008633Y013066D01*
X008633Y012824D01*
X008540Y012600D01*
X008565Y012660D02*
X010905Y012660D01*
X010905Y012758D02*
X008606Y012758D01*
X008633Y012857D02*
X010865Y012857D01*
X010782Y012955D02*
X008633Y012955D01*
X008633Y013054D02*
X010722Y013054D01*
X010708Y013152D02*
X008598Y013152D01*
X008557Y013251D02*
X010708Y013251D01*
X010708Y013349D02*
X008482Y013349D01*
X008487Y013448D02*
X008383Y013448D01*
X008472Y013546D02*
X008165Y013546D01*
X007883Y013546D02*
X007576Y013546D01*
X007576Y013645D02*
X008472Y013645D01*
X008472Y013743D02*
X007576Y013743D01*
X007576Y013842D02*
X008472Y013842D01*
X008472Y014039D02*
X007576Y014039D01*
X007576Y014137D02*
X008472Y014137D01*
X008472Y014236D02*
X007576Y014236D01*
X007576Y014334D02*
X008472Y014334D01*
X008481Y014433D02*
X007567Y014433D01*
X007074Y014433D02*
X006974Y014433D01*
X006974Y014497D02*
X006567Y014497D01*
X006539Y014490D01*
X006514Y014475D01*
X006494Y014455D01*
X006479Y014430D01*
X006472Y014403D01*
X006472Y013995D01*
X006974Y013995D01*
X006974Y014497D01*
X006974Y014334D02*
X007074Y014334D01*
X007074Y014236D02*
X006974Y014236D01*
X006974Y014137D02*
X007074Y014137D01*
X007074Y014039D02*
X006974Y014039D01*
X006974Y013743D02*
X007074Y013743D01*
X007074Y013645D02*
X006974Y013645D01*
X006974Y013546D02*
X007074Y013546D01*
X007074Y013448D02*
X006974Y013448D01*
X006487Y013448D02*
X004458Y013448D01*
X004417Y013546D02*
X006472Y013546D01*
X006472Y013645D02*
X004364Y013645D01*
X004266Y013743D02*
X006472Y013743D01*
X006472Y013842D02*
X004060Y013842D01*
X003859Y013842D02*
X002741Y013842D01*
X002947Y013743D02*
X003652Y013743D01*
X003554Y013645D02*
X003046Y013645D01*
X003099Y013546D02*
X003501Y013546D01*
X003460Y013448D02*
X003139Y013448D01*
X003143Y013349D02*
X003456Y013349D01*
X003456Y013251D02*
X003143Y013251D01*
X004176Y012857D02*
X004362Y012857D01*
X004362Y012955D02*
X004286Y012955D01*
X004362Y012758D02*
X004176Y012758D01*
X004176Y012660D02*
X004362Y012660D01*
X004362Y012561D02*
X004176Y012561D01*
X004176Y012463D02*
X004362Y012463D01*
X004414Y012364D02*
X004176Y012364D01*
X004176Y012266D02*
X006472Y012266D01*
X006472Y012364D02*
X005001Y012364D01*
X005052Y012463D02*
X006501Y012463D01*
X006494Y012455D02*
X006479Y012430D01*
X006472Y012403D01*
X006472Y011995D01*
X006974Y011995D01*
X006974Y011895D01*
X007074Y011895D01*
X007074Y011393D01*
X007481Y011393D01*
X007509Y011401D01*
X007534Y011415D01*
X007554Y011435D01*
X007569Y011460D01*
X007576Y011488D01*
X007576Y011895D01*
X007074Y011895D01*
X007074Y011995D01*
X007576Y011995D01*
X007576Y012403D01*
X007569Y012430D01*
X007554Y012455D01*
X007534Y012475D01*
X007509Y012490D01*
X007481Y012497D01*
X007074Y012497D01*
X007074Y011995D01*
X006974Y011995D01*
X006974Y012497D01*
X006567Y012497D01*
X006539Y012490D01*
X006514Y012475D01*
X006494Y012455D01*
X006472Y012167D02*
X004176Y012167D01*
X003793Y012069D02*
X006472Y012069D01*
X006472Y011895D02*
X006472Y011488D01*
X006479Y011460D01*
X006494Y011435D01*
X006514Y011415D01*
X006539Y011401D01*
X006567Y011393D01*
X006974Y011393D01*
X006974Y011895D01*
X006472Y011895D01*
X006472Y011872D02*
X003793Y011872D01*
X003793Y011970D02*
X006974Y011970D01*
X006974Y011872D02*
X007074Y011872D01*
X007074Y011970D02*
X008974Y011970D01*
X008974Y011995D02*
X008974Y011895D01*
X009074Y011895D01*
X009074Y011995D01*
X008974Y011995D01*
X008472Y011995D01*
X008472Y012403D01*
X008479Y012430D01*
X008494Y012455D01*
X008514Y012475D01*
X008539Y012490D01*
X008567Y012497D01*
X008974Y012497D01*
X008974Y011995D01*
X008974Y012069D02*
X009074Y012069D01*
X009074Y012167D02*
X008974Y012167D01*
X008974Y012266D02*
X009074Y012266D01*
X009074Y012364D02*
X008974Y012364D01*
X008974Y012463D02*
X009074Y012463D01*
X009074Y011970D02*
X010905Y011970D01*
X009074Y011872D02*
X008974Y011872D01*
X008974Y011895D02*
X008974Y011393D01*
X008567Y011393D01*
X008539Y011401D01*
X008514Y011415D01*
X008494Y011435D01*
X008479Y011460D01*
X008472Y011488D01*
X008472Y011895D01*
X008974Y011895D01*
X008974Y011773D02*
X009074Y011773D01*
X009074Y011675D02*
X008974Y011675D01*
X008974Y011576D02*
X009074Y011576D01*
X009074Y011478D02*
X008974Y011478D01*
X008475Y011478D02*
X007573Y011478D01*
X007576Y011576D02*
X008472Y011576D01*
X008472Y011675D02*
X007576Y011675D01*
X007576Y011773D02*
X008472Y011773D01*
X008472Y011872D02*
X007576Y011872D01*
X007576Y012069D02*
X008472Y012069D01*
X008472Y012167D02*
X007576Y012167D01*
X007576Y012266D02*
X008472Y012266D01*
X008472Y012364D02*
X008212Y012364D01*
X008403Y012463D02*
X008501Y012463D01*
X007836Y012364D02*
X007576Y012364D01*
X007547Y012463D02*
X007645Y012463D01*
X007547Y012561D02*
X005052Y012561D01*
X005052Y012660D02*
X007483Y012660D01*
X007442Y012758D02*
X005052Y012758D01*
X005052Y012857D02*
X007415Y012857D01*
X007415Y012955D02*
X005052Y012955D01*
X005052Y013054D02*
X007415Y013054D01*
X007450Y013152D02*
X005052Y013152D01*
X005052Y013251D02*
X007491Y013251D01*
X007566Y013349D02*
X005052Y013349D01*
X006472Y014039D02*
X001647Y014039D01*
X001792Y014137D02*
X006472Y014137D01*
X006472Y014236D02*
X001891Y014236D01*
X001971Y014334D02*
X006472Y014334D01*
X006481Y014433D02*
X002028Y014433D01*
X002072Y015319D02*
X013976Y015319D01*
X014033Y015418D02*
X002015Y015418D01*
X001958Y015516D02*
X014090Y015516D01*
X015276Y013448D02*
X015572Y013448D01*
X015572Y013349D02*
X015285Y013349D01*
X015285Y013251D02*
X015572Y013251D01*
X015572Y013152D02*
X015285Y013152D01*
X015285Y013054D02*
X015572Y013054D01*
X015572Y010887D02*
X015285Y010887D01*
X015285Y010788D02*
X015572Y010788D01*
X015572Y010690D02*
X015285Y010690D01*
X015285Y010591D02*
X015572Y010591D01*
X015572Y010493D02*
X015282Y010493D01*
X015572Y010000D02*
X014038Y010000D01*
X014101Y009902D02*
X015572Y009902D01*
X015572Y009803D02*
X014129Y009803D01*
X014129Y009705D02*
X015572Y009705D01*
X015572Y009606D02*
X014129Y009606D01*
X014129Y009508D02*
X015572Y009508D01*
X015572Y009409D02*
X014129Y009409D01*
X014129Y009311D02*
X015572Y009311D01*
X015572Y009212D02*
X014128Y009212D01*
X014087Y009114D02*
X015572Y009114D01*
X015572Y009015D02*
X014005Y009015D01*
X013555Y009015D02*
X013057Y009015D01*
X013057Y008917D02*
X015572Y008917D01*
X015572Y008818D02*
X013057Y008818D01*
X013057Y008720D02*
X015572Y008720D01*
X015572Y008621D02*
X013057Y008621D01*
X013025Y008523D02*
X015572Y008523D01*
X015572Y008424D02*
X012936Y008424D01*
X012678Y008326D02*
X015572Y008326D01*
X015572Y008227D02*
X012416Y008227D01*
X011942Y007636D02*
X015572Y007636D01*
X015572Y007538D02*
X012013Y007538D01*
X012034Y007439D02*
X015572Y007439D01*
X015572Y007341D02*
X012033Y007341D01*
X012033Y007242D02*
X015572Y007242D01*
X015572Y007144D02*
X012033Y007144D01*
X011712Y007735D02*
X015572Y007735D01*
X015572Y007833D02*
X011416Y007833D01*
X010473Y009114D02*
X010087Y009114D01*
X010128Y009212D02*
X010432Y009212D01*
X010431Y009311D02*
X010129Y009311D01*
X010129Y009409D02*
X010431Y009409D01*
X010431Y009508D02*
X010129Y009508D01*
X010129Y009606D02*
X010431Y009606D01*
X010431Y009705D02*
X010129Y009705D01*
X010129Y009803D02*
X010431Y009803D01*
X010459Y009902D02*
X010101Y009902D01*
X010038Y010000D02*
X010522Y010000D01*
X008675Y010099D02*
X007884Y010099D01*
X008038Y010000D02*
X008522Y010000D01*
X008459Y009902D02*
X008101Y009902D01*
X008129Y009803D02*
X008431Y009803D01*
X008431Y009705D02*
X008129Y009705D01*
X008129Y009606D02*
X008431Y009606D01*
X008431Y009508D02*
X008129Y009508D01*
X008129Y009409D02*
X008431Y009409D01*
X008431Y009311D02*
X008129Y009311D01*
X008128Y009212D02*
X008432Y009212D01*
X008473Y009114D02*
X008087Y009114D01*
X008005Y009015D02*
X008503Y009015D01*
X008503Y008917D02*
X006915Y008917D01*
X006915Y009015D02*
X007555Y009015D01*
X007473Y009114D02*
X006915Y009114D01*
X006915Y009212D02*
X007432Y009212D01*
X006915Y008818D02*
X008503Y008818D01*
X008503Y008720D02*
X006913Y008720D01*
X006913Y008621D02*
X008503Y008621D01*
X008503Y008523D02*
X000476Y008523D01*
X000476Y009705D02*
X001260Y009705D01*
X001106Y009803D02*
X000476Y009803D01*
X000476Y009902D02*
X001042Y009902D01*
X001014Y010000D02*
X000476Y010000D01*
X000476Y010099D02*
X001014Y010099D01*
X001050Y010197D02*
X000476Y010197D01*
X000476Y010296D02*
X001125Y010296D01*
X000476Y010394D02*
X002831Y010394D01*
X002769Y010493D02*
X000476Y010493D01*
X000476Y010591D02*
X002754Y010591D01*
X002755Y010690D02*
X000476Y010690D01*
X000476Y010788D02*
X002755Y010788D01*
X002755Y010887D02*
X000476Y010887D01*
X000476Y010985D02*
X002755Y010985D01*
X002755Y011084D02*
X000476Y011084D01*
X000476Y011182D02*
X002755Y011182D01*
X002755Y011281D02*
X000476Y011281D01*
X000476Y011379D02*
X002755Y011379D01*
X002755Y011478D02*
X000476Y011478D01*
X000476Y011576D02*
X002755Y011576D01*
X002755Y011675D02*
X000476Y011675D01*
X000476Y011773D02*
X002755Y011773D01*
X002777Y011872D02*
X000476Y011872D01*
X000476Y011970D02*
X002807Y011970D01*
X002807Y012069D02*
X000476Y012069D01*
X000476Y012167D02*
X002423Y012167D01*
X003527Y011675D02*
X003565Y011675D01*
X003565Y011773D02*
X006472Y011773D01*
X006472Y011675D02*
X003793Y011675D01*
X003793Y011576D02*
X006472Y011576D01*
X006475Y011478D02*
X003793Y011478D01*
X003565Y011478D02*
X003527Y011478D01*
X003527Y011576D02*
X003565Y011576D01*
X003565Y011379D02*
X003527Y011379D01*
X002944Y010296D02*
X002081Y010296D01*
X002155Y010197D02*
X003057Y010197D01*
X003169Y010099D02*
X002192Y010099D01*
X002192Y010000D02*
X003282Y010000D01*
X003394Y009902D02*
X002163Y009902D01*
X002100Y009803D02*
X003503Y009803D01*
X005184Y008129D02*
X015572Y008129D01*
X015572Y008030D02*
X005192Y008030D01*
X005176Y007932D02*
X015572Y007932D01*
X013522Y010000D02*
X013038Y010000D01*
X013101Y009902D02*
X013459Y009902D01*
X013431Y009803D02*
X013129Y009803D01*
X013129Y009705D02*
X013431Y009705D01*
X013431Y009606D02*
X013129Y009606D01*
X013129Y009508D02*
X013431Y009508D01*
X013431Y009409D02*
X013129Y009409D01*
X013129Y009311D02*
X013431Y009311D01*
X013432Y009212D02*
X013128Y009212D01*
X013087Y009114D02*
X013473Y009114D01*
X010511Y005863D02*
X005147Y005863D01*
X005188Y005962D02*
X007646Y005962D01*
X007510Y006060D02*
X005192Y006060D01*
X005171Y006159D02*
X007454Y006159D01*
X007431Y006257D02*
X005119Y006257D01*
X004993Y006356D02*
X007431Y006356D01*
X007431Y006454D02*
X000476Y006454D01*
X000476Y006356D02*
X001213Y006356D01*
X001086Y006257D02*
X000476Y006257D01*
X000476Y006159D02*
X001034Y006159D01*
X001014Y006060D02*
X000476Y006060D01*
X000476Y005962D02*
X001017Y005962D01*
X001058Y005863D02*
X000476Y005863D01*
X000476Y005765D02*
X001144Y005765D01*
X001249Y005371D02*
X000476Y005371D01*
X000476Y005469D02*
X010511Y005469D01*
X010511Y005371D02*
X004956Y005371D01*
X005104Y005272D02*
X010511Y005272D01*
X010511Y005174D02*
X009373Y005174D01*
X009379Y005075D02*
X010511Y005075D01*
X010502Y004977D02*
X009379Y004977D01*
X009379Y004878D02*
X010403Y004878D01*
X010511Y005568D02*
X000476Y005568D01*
X000476Y005666D02*
X010511Y005666D01*
X010511Y005765D02*
X005061Y005765D01*
X005165Y005174D02*
X006281Y005174D01*
X006283Y005178D02*
X006275Y005151D01*
X006275Y004743D01*
X006777Y004743D01*
X006777Y005245D01*
X006370Y005245D01*
X006342Y005238D01*
X006317Y005223D01*
X006297Y005203D01*
X006283Y005178D01*
X006275Y005075D02*
X005192Y005075D01*
X005192Y004977D02*
X006275Y004977D01*
X006275Y004878D02*
X005154Y004878D01*
X005076Y004780D02*
X006275Y004780D01*
X006275Y004386D02*
X004920Y004386D01*
X005089Y004287D02*
X006275Y004287D01*
X006294Y004189D02*
X005159Y004189D01*
X005192Y004090D02*
X007363Y004090D01*
X007360Y004189D02*
X007461Y004189D01*
X007379Y004287D02*
X007669Y004287D01*
X007379Y004386D02*
X008275Y004386D01*
X008275Y004484D02*
X007379Y004484D01*
X007379Y004583D02*
X008275Y004583D01*
X008275Y004743D02*
X008777Y004743D01*
X008777Y005245D01*
X008370Y005245D01*
X008342Y005238D01*
X008317Y005223D01*
X008297Y005203D01*
X008283Y005178D01*
X008275Y005151D01*
X008275Y004743D01*
X008275Y004780D02*
X007379Y004780D01*
X007379Y004878D02*
X008275Y004878D01*
X008275Y004977D02*
X007379Y004977D01*
X007379Y005075D02*
X008275Y005075D01*
X008281Y005174D02*
X007373Y005174D01*
X006877Y005174D02*
X006777Y005174D01*
X006777Y005075D02*
X006877Y005075D01*
X006877Y004977D02*
X006777Y004977D01*
X006777Y004878D02*
X006877Y004878D01*
X006877Y004780D02*
X006777Y004780D01*
X006777Y004484D02*
X006877Y004484D01*
X006877Y004386D02*
X006777Y004386D01*
X006777Y004287D02*
X006877Y004287D01*
X006877Y004189D02*
X006777Y004189D01*
X007291Y003992D02*
X005192Y003992D01*
X005160Y003893D02*
X007251Y003893D01*
X007218Y003795D02*
X005091Y003795D01*
X004925Y003696D02*
X007218Y003696D01*
X007218Y003598D02*
X004823Y003598D01*
X004803Y003499D02*
X007248Y003499D01*
X007289Y003401D02*
X004783Y003401D01*
X004763Y003302D02*
X007357Y003302D01*
X007312Y003238D02*
X007284Y003245D01*
X006877Y003245D01*
X006877Y002743D01*
X007379Y002743D01*
X007379Y003151D01*
X007372Y003178D01*
X007357Y003203D01*
X007337Y003223D01*
X007312Y003238D01*
X007357Y003204D02*
X007456Y003204D01*
X007379Y003105D02*
X007656Y003105D01*
X007379Y003007D02*
X008275Y003007D01*
X008275Y003105D02*
X007998Y003105D01*
X008199Y003204D02*
X008297Y003204D01*
X008275Y002908D02*
X007379Y002908D01*
X007379Y002810D02*
X008275Y002810D01*
X008275Y002613D02*
X007379Y002613D01*
X007379Y002643D02*
X006877Y002643D01*
X006877Y002141D01*
X007284Y002141D01*
X007312Y002149D01*
X007337Y002163D01*
X007357Y002183D01*
X007372Y002208D01*
X007379Y002236D01*
X007379Y002643D01*
X007379Y002514D02*
X008275Y002514D01*
X008275Y002416D02*
X007379Y002416D01*
X007379Y002317D02*
X008275Y002317D01*
X008280Y002219D02*
X007374Y002219D01*
X006877Y002219D02*
X006777Y002219D01*
X006777Y002141D02*
X006777Y002643D01*
X006877Y002643D01*
X006877Y002743D01*
X006777Y002743D01*
X006777Y002643D01*
X006275Y002643D01*
X006275Y002236D01*
X006283Y002208D01*
X006297Y002183D01*
X006317Y002163D01*
X006342Y002149D01*
X006370Y002141D01*
X006777Y002141D01*
X006777Y002317D02*
X006877Y002317D01*
X006877Y002416D02*
X006777Y002416D01*
X006777Y002514D02*
X006877Y002514D01*
X006877Y002613D02*
X006777Y002613D01*
X006777Y002711D02*
X004787Y002711D01*
X004787Y002613D02*
X006275Y002613D01*
X006275Y002514D02*
X005161Y002514D01*
X005359Y002416D02*
X006275Y002416D01*
X006275Y002317D02*
X005377Y002317D01*
X005377Y002219D02*
X006280Y002219D01*
X006877Y002711D02*
X008777Y002711D01*
X008777Y002613D02*
X008877Y002613D01*
X008877Y002514D02*
X008777Y002514D01*
X008777Y002416D02*
X008877Y002416D01*
X008877Y002317D02*
X008777Y002317D01*
X008777Y002219D02*
X008877Y002219D01*
X009374Y002219D02*
X009687Y002219D01*
X009687Y002317D02*
X009379Y002317D01*
X009379Y002416D02*
X009687Y002416D01*
X009952Y002514D02*
X009379Y002514D01*
X009687Y002120D02*
X005377Y002120D01*
X005377Y002022D02*
X009703Y002022D01*
X009903Y001923D02*
X005111Y001923D01*
X004175Y002613D02*
X000476Y002613D01*
X000476Y002711D02*
X004175Y002711D01*
X004210Y002810D02*
X000476Y002810D01*
X000476Y002908D02*
X004212Y002908D01*
X004212Y003007D02*
X000476Y003007D01*
X000476Y003105D02*
X004212Y003105D01*
X004212Y003204D02*
X000476Y003204D01*
X000476Y003302D02*
X004212Y003302D01*
X004234Y003401D02*
X000476Y003401D01*
X000476Y003499D02*
X004254Y003499D01*
X004750Y003204D02*
X006297Y003204D01*
X006297Y003203D02*
X006283Y003178D01*
X006275Y003151D01*
X006275Y002743D01*
X006777Y002743D01*
X006777Y003245D01*
X006370Y003245D01*
X006342Y003238D01*
X006317Y003223D01*
X006297Y003203D01*
X006275Y003105D02*
X004750Y003105D01*
X004750Y003007D02*
X006275Y003007D01*
X006275Y002908D02*
X004750Y002908D01*
X004751Y002810D02*
X006275Y002810D01*
X006777Y002810D02*
X006877Y002810D01*
X006877Y002908D02*
X006777Y002908D01*
X006777Y003007D02*
X006877Y003007D01*
X006877Y003105D02*
X006777Y003105D01*
X006777Y003204D02*
X006877Y003204D01*
X007985Y004287D02*
X008275Y004287D01*
X008294Y004189D02*
X008193Y004189D01*
X008777Y004189D02*
X008877Y004189D01*
X008877Y004287D02*
X008777Y004287D01*
X008777Y004386D02*
X008877Y004386D01*
X008877Y004484D02*
X008777Y004484D01*
X008777Y004780D02*
X008877Y004780D01*
X008877Y004878D02*
X008777Y004878D01*
X008777Y004977D02*
X008877Y004977D01*
X008877Y005075D02*
X008777Y005075D01*
X008777Y005174D02*
X008877Y005174D01*
X008646Y005962D02*
X007913Y005962D01*
X008050Y006060D02*
X008510Y006060D01*
X008454Y006159D02*
X008106Y006159D01*
X008129Y006257D02*
X008431Y006257D01*
X008431Y006356D02*
X008129Y006356D01*
X008129Y006454D02*
X008431Y006454D01*
X008431Y006553D02*
X008129Y006553D01*
X008129Y006651D02*
X008431Y006651D01*
X008431Y006750D02*
X008129Y006750D01*
X008123Y006848D02*
X008437Y006848D01*
X008478Y006947D02*
X008082Y006947D01*
X008017Y007045D02*
X008567Y007045D01*
X007479Y007045D02*
X005192Y007045D01*
X005182Y006947D02*
X007478Y006947D01*
X007437Y006848D02*
X005141Y006848D01*
X005046Y006750D02*
X007431Y006750D01*
X007431Y006651D02*
X000476Y006651D01*
X000476Y006553D02*
X007431Y006553D01*
X007479Y007144D02*
X005178Y007144D01*
X005134Y007242D02*
X007479Y007242D01*
X007479Y007341D02*
X005029Y007341D01*
X001159Y006750D02*
X000476Y006750D01*
X000476Y006848D02*
X001064Y006848D01*
X001024Y006947D02*
X000476Y006947D01*
X000476Y007045D02*
X001014Y007045D01*
X001028Y007144D02*
X000476Y007144D01*
X000476Y007242D02*
X001071Y007242D01*
X001101Y005272D02*
X000476Y005272D01*
X000476Y005174D02*
X001040Y005174D01*
X001014Y005075D02*
X000476Y005075D01*
X000476Y004977D02*
X001014Y004977D01*
X001052Y004878D02*
X000476Y004878D01*
X000476Y004780D02*
X001129Y004780D01*
X001116Y004287D02*
X000476Y004287D01*
X000476Y004189D02*
X001047Y004189D01*
X001017Y004090D02*
X000476Y004090D01*
X000476Y003992D02*
X001016Y003992D01*
X001046Y003893D02*
X000476Y003893D01*
X000476Y003795D02*
X001114Y003795D01*
X000476Y002514D02*
X003801Y002514D01*
X003602Y002416D02*
X000476Y002416D01*
X000476Y002317D02*
X003584Y002317D01*
X003584Y002219D02*
X000476Y002219D01*
X000476Y002120D02*
X000893Y002120D01*
X000642Y002022D02*
X000476Y002022D01*
X000476Y001923D02*
X000488Y001923D01*
X001375Y002120D02*
X003584Y002120D01*
X003584Y002022D02*
X001627Y002022D01*
X001780Y001923D02*
X003850Y001923D01*
X003584Y001825D02*
X001879Y001825D01*
X001964Y001726D02*
X003584Y001726D01*
X003584Y001628D02*
X002021Y001628D01*
X002078Y001529D02*
X003584Y001529D01*
X003601Y001431D02*
X002105Y001431D01*
X002132Y001332D02*
X003801Y001332D01*
X011049Y005174D02*
X011984Y005174D01*
X011984Y005272D02*
X011049Y005272D01*
X011049Y005371D02*
X011984Y005371D01*
X011984Y005469D02*
X011049Y005469D01*
X011049Y005568D02*
X011990Y005568D01*
X007074Y011478D02*
X006974Y011478D01*
X006974Y011576D02*
X007074Y011576D01*
X007074Y011675D02*
X006974Y011675D01*
X006974Y011773D02*
X007074Y011773D01*
X007074Y012069D02*
X006974Y012069D01*
X006974Y012167D02*
X007074Y012167D01*
X007074Y012266D02*
X006974Y012266D01*
X006974Y012364D02*
X007074Y012364D01*
X007074Y012463D02*
X006974Y012463D01*
X007561Y013448D02*
X007665Y013448D01*
M02*
