G75*
G70*
%OFA0B0*%
%FSLAX24Y24*%
%IPPOS*%
%LPD*%
%AMOC8*
5,1,8,0,0,1.08239X$1,22.5*
%
%ADD10C,0.1458*%
%ADD11C,0.0480*%
%ADD12C,0.0560*%
%ADD13C,0.0434*%
%ADD14C,0.1000*%
%ADD15C,0.1080*%
%ADD16R,0.0886X0.0886*%
%ADD17R,0.0966X0.0966*%
%ADD18R,0.0591X0.0591*%
%ADD19R,0.0671X0.0671*%
%ADD20R,0.0315X0.0315*%
%ADD21R,0.0395X0.0395*%
D10*
X001134Y001134D03*
X001134Y014914D03*
X014914Y014914D03*
X014914Y001134D03*
D11*
X013780Y006284D02*
X013780Y006764D01*
X012780Y006764D02*
X012780Y006284D01*
X011780Y006284D02*
X011780Y006764D01*
X010780Y006764D02*
X010780Y006284D01*
X009780Y006284D02*
X009780Y006764D01*
X008780Y006764D02*
X008780Y006284D01*
X007780Y006284D02*
X007780Y006764D01*
X007780Y009284D02*
X007780Y009764D01*
X008780Y009764D02*
X008780Y009284D01*
X009780Y009284D02*
X009780Y009764D01*
X010780Y009764D02*
X010780Y009284D01*
X011780Y009284D02*
X011780Y009764D01*
X012780Y009764D02*
X012780Y009284D01*
X013780Y009284D02*
X013780Y009764D01*
X004843Y010040D02*
X004363Y010040D01*
X004363Y009040D02*
X004843Y009040D01*
X004843Y008040D02*
X004363Y008040D01*
X004363Y007040D02*
X004843Y007040D01*
X004843Y006040D02*
X004363Y006040D01*
X004363Y005040D02*
X004843Y005040D01*
X004843Y004040D02*
X004363Y004040D01*
X001843Y004040D02*
X001363Y004040D01*
X001363Y005040D02*
X001843Y005040D01*
X001843Y006040D02*
X001363Y006040D01*
X001363Y007040D02*
X001843Y007040D01*
X001843Y008040D02*
X001363Y008040D01*
X001363Y009040D02*
X001843Y009040D01*
X001843Y010040D02*
X001363Y010040D01*
D12*
X001843Y010040D01*
X001843Y009040D02*
X001363Y009040D01*
X001363Y008040D02*
X001843Y008040D01*
X001843Y007040D02*
X001363Y007040D01*
X001363Y006040D02*
X001843Y006040D01*
X001843Y005040D02*
X001363Y005040D01*
X001363Y004040D02*
X001843Y004040D01*
X004363Y004040D02*
X004843Y004040D01*
X004843Y005040D02*
X004363Y005040D01*
X004363Y006040D02*
X004843Y006040D01*
X004843Y007040D02*
X004363Y007040D01*
X004363Y008040D02*
X004843Y008040D01*
X004843Y009040D02*
X004363Y009040D01*
X004363Y010040D02*
X004843Y010040D01*
X007780Y009764D02*
X007780Y009284D01*
X008780Y009284D02*
X008780Y009764D01*
X009780Y009764D02*
X009780Y009284D01*
X010780Y009284D02*
X010780Y009764D01*
X011780Y009764D02*
X011780Y009284D01*
X012780Y009284D02*
X012780Y009764D01*
X013780Y009764D02*
X013780Y009284D01*
X013780Y006764D02*
X013780Y006284D01*
X012780Y006284D02*
X012780Y006764D01*
X011780Y006764D02*
X011780Y006284D01*
X010780Y006284D02*
X010780Y006764D01*
X009780Y006764D02*
X009780Y006284D01*
X008780Y006284D02*
X008780Y006764D01*
X007780Y006764D02*
X007780Y006284D01*
D13*
X003959Y013339D03*
X002640Y013339D03*
D14*
X008024Y012945D03*
X013733Y011961D03*
X013536Y004087D03*
X007827Y003693D03*
D15*
X007827Y003693D03*
X013536Y004087D03*
X013733Y011961D03*
X008024Y012945D03*
D16*
X009024Y011945D03*
X009024Y013945D03*
X007024Y013945D03*
X007024Y011945D03*
X012733Y010961D03*
X014733Y010961D03*
X014733Y012961D03*
X012733Y012961D03*
X012536Y005087D03*
X014536Y005087D03*
X014536Y003087D03*
X012536Y003087D03*
X008827Y002693D03*
X006827Y002693D03*
X006827Y004693D03*
X008827Y004693D03*
D17*
X008827Y004693D03*
X008827Y002693D03*
X006827Y002693D03*
X006827Y004693D03*
X012536Y005087D03*
X014536Y005087D03*
X014536Y003087D03*
X012536Y003087D03*
X012733Y010961D03*
X014733Y010961D03*
X014733Y012961D03*
X012733Y012961D03*
X009024Y013945D03*
X009024Y011945D03*
X007024Y011945D03*
X007024Y013945D03*
D18*
X005465Y011174D03*
D19*
X005465Y011174D03*
D20*
X007040Y010583D03*
X006646Y008811D03*
X005859Y008811D03*
X005859Y007630D03*
X006646Y007630D03*
X005268Y003103D03*
X002709Y002119D03*
X010780Y001331D03*
X012552Y001134D03*
X013339Y001725D03*
X014914Y006449D03*
X014914Y009205D03*
X010189Y012158D03*
X009008Y014914D03*
X007827Y015111D03*
X005465Y013536D03*
X005268Y015111D03*
X003496Y014914D03*
X001134Y013142D03*
X001331Y010977D03*
D21*
X001331Y010977D03*
X001134Y013142D03*
X003496Y014914D03*
X005268Y015111D03*
X005465Y013536D03*
X007827Y015111D03*
X009008Y014914D03*
X010189Y012158D03*
X007040Y010583D03*
X006646Y008811D03*
X005859Y008811D03*
X005859Y007630D03*
X006646Y007630D03*
X005268Y003103D03*
X002709Y002119D03*
X010780Y001331D03*
X012552Y001134D03*
X013339Y001725D03*
X014914Y006449D03*
X014914Y009205D03*
M02*
