%
M48
M72
T01C0.0197
T02C0.0320
T03C0.0354
T04C0.0394
T05C0.0591
T06C0.1378
%
T01
X2709Y2119
X5268Y3103
X5859Y7630
X6646Y7630
X6646Y8811
X5859Y8811
X7040Y10583
X5465Y13536
X5268Y15111
X3496Y14914
X1134Y13142
X1331Y10977
X7827Y15111
X9008Y14914
X10189Y12158
X14914Y9205
X14914Y6449
X13339Y1725
X12552Y1134
X10780Y1331
T02
X10780Y6524
X11780Y6524
X12780Y6524
X13780Y6524
X13780Y9524
X12780Y9524
X11780Y9524
X10780Y9524
X9780Y9524
X8780Y9524
X7780Y9524
X7780Y6524
X8780Y6524
X9780Y6524
X4603Y6040
X4603Y7040
X4603Y8040
X4603Y9040
X4603Y10040
X1603Y10040
X1603Y9040
X1603Y8040
X1603Y7040
X1603Y6040
X1603Y5040
X1603Y4040
X4603Y4040
X4603Y5040
T03
X3959Y13339
X2640Y13339
T04
X5465Y11174
T05
X7024Y11945
X8024Y12945
X9024Y11945
X9024Y13945
X7024Y13945
X12733Y12961
X13733Y11961
X14733Y10961
X14733Y12961
X12733Y10961
X12536Y5087
X13536Y4087
X14536Y3087
X14536Y5087
X12536Y3087
X8827Y2693
X7827Y3693
X6827Y4693
X6827Y2693
X8827Y4693
T06
X1134Y1134
X1134Y14914
X14914Y14914
X14914Y1134
M30
