G75*
G70*
%OFA0B0*%
%FSLAX24Y24*%
%IPPOS*%
%LPD*%
%AMOC8*
5,1,8,0,0,1.08239X$1,22.5*
%
%ADD10C,0.0000*%
D10*
X001955Y000413D02*
X001955Y016161D01*
X017703Y016161D01*
X017703Y000413D01*
X001955Y000413D01*
X002251Y001397D02*
X002254Y001460D01*
X002262Y001522D01*
X002277Y001583D01*
X002296Y001642D01*
X002321Y001700D01*
X002351Y001755D01*
X002386Y001807D01*
X002426Y001856D01*
X002470Y001901D01*
X002517Y001941D01*
X002569Y001977D01*
X002623Y002009D01*
X002680Y002035D01*
X002739Y002056D01*
X002800Y002072D01*
X002862Y002082D01*
X002924Y002086D01*
X002987Y002084D01*
X003049Y002077D01*
X003111Y002065D01*
X003171Y002046D01*
X003229Y002023D01*
X003284Y001994D01*
X003337Y001960D01*
X003387Y001921D01*
X003433Y001879D01*
X003474Y001832D01*
X003512Y001781D01*
X003544Y001728D01*
X003572Y001671D01*
X003594Y001613D01*
X003611Y001553D01*
X003623Y001491D01*
X003628Y001428D01*
X003628Y001366D01*
X003623Y001303D01*
X003611Y001241D01*
X003594Y001181D01*
X003572Y001123D01*
X003544Y001066D01*
X003512Y001013D01*
X003474Y000962D01*
X003433Y000915D01*
X003387Y000873D01*
X003337Y000834D01*
X003285Y000800D01*
X003229Y000771D01*
X003171Y000748D01*
X003111Y000729D01*
X003049Y000717D01*
X002987Y000710D01*
X002924Y000708D01*
X002862Y000712D01*
X002800Y000722D01*
X002739Y000738D01*
X002680Y000759D01*
X002623Y000785D01*
X002569Y000817D01*
X002517Y000853D01*
X002470Y000893D01*
X002426Y000938D01*
X002386Y000987D01*
X002351Y001039D01*
X002321Y001094D01*
X002296Y001152D01*
X002277Y001211D01*
X002262Y001272D01*
X002254Y001334D01*
X002251Y001397D01*
X016030Y001397D02*
X016033Y001460D01*
X016041Y001522D01*
X016056Y001583D01*
X016075Y001642D01*
X016100Y001700D01*
X016130Y001755D01*
X016165Y001807D01*
X016205Y001856D01*
X016249Y001901D01*
X016296Y001941D01*
X016348Y001977D01*
X016402Y002009D01*
X016459Y002035D01*
X016518Y002056D01*
X016579Y002072D01*
X016641Y002082D01*
X016703Y002086D01*
X016766Y002084D01*
X016828Y002077D01*
X016890Y002065D01*
X016950Y002046D01*
X017008Y002023D01*
X017063Y001994D01*
X017116Y001960D01*
X017166Y001921D01*
X017212Y001879D01*
X017253Y001832D01*
X017291Y001781D01*
X017323Y001728D01*
X017351Y001671D01*
X017373Y001613D01*
X017390Y001553D01*
X017402Y001491D01*
X017407Y001428D01*
X017407Y001366D01*
X017402Y001303D01*
X017390Y001241D01*
X017373Y001181D01*
X017351Y001123D01*
X017323Y001066D01*
X017291Y001013D01*
X017253Y000962D01*
X017212Y000915D01*
X017166Y000873D01*
X017116Y000834D01*
X017064Y000800D01*
X017008Y000771D01*
X016950Y000748D01*
X016890Y000729D01*
X016828Y000717D01*
X016766Y000710D01*
X016703Y000708D01*
X016641Y000712D01*
X016579Y000722D01*
X016518Y000738D01*
X016459Y000759D01*
X016402Y000785D01*
X016348Y000817D01*
X016296Y000853D01*
X016249Y000893D01*
X016205Y000938D01*
X016165Y000987D01*
X016130Y001039D01*
X016100Y001094D01*
X016075Y001152D01*
X016056Y001211D01*
X016041Y001272D01*
X016033Y001334D01*
X016030Y001397D01*
X016030Y015177D02*
X016033Y015240D01*
X016041Y015302D01*
X016056Y015363D01*
X016075Y015422D01*
X016100Y015480D01*
X016130Y015535D01*
X016165Y015587D01*
X016205Y015636D01*
X016249Y015681D01*
X016296Y015721D01*
X016348Y015757D01*
X016402Y015789D01*
X016459Y015815D01*
X016518Y015836D01*
X016579Y015852D01*
X016641Y015862D01*
X016703Y015866D01*
X016766Y015864D01*
X016828Y015857D01*
X016890Y015845D01*
X016950Y015826D01*
X017008Y015803D01*
X017063Y015774D01*
X017116Y015740D01*
X017166Y015701D01*
X017212Y015659D01*
X017253Y015612D01*
X017291Y015561D01*
X017323Y015508D01*
X017351Y015451D01*
X017373Y015393D01*
X017390Y015333D01*
X017402Y015271D01*
X017407Y015208D01*
X017407Y015146D01*
X017402Y015083D01*
X017390Y015021D01*
X017373Y014961D01*
X017351Y014903D01*
X017323Y014846D01*
X017291Y014793D01*
X017253Y014742D01*
X017212Y014695D01*
X017166Y014653D01*
X017116Y014614D01*
X017064Y014580D01*
X017008Y014551D01*
X016950Y014528D01*
X016890Y014509D01*
X016828Y014497D01*
X016766Y014490D01*
X016703Y014488D01*
X016641Y014492D01*
X016579Y014502D01*
X016518Y014518D01*
X016459Y014539D01*
X016402Y014565D01*
X016348Y014597D01*
X016296Y014633D01*
X016249Y014673D01*
X016205Y014718D01*
X016165Y014767D01*
X016130Y014819D01*
X016100Y014874D01*
X016075Y014932D01*
X016056Y014991D01*
X016041Y015052D01*
X016033Y015114D01*
X016030Y015177D01*
X002251Y015177D02*
X002254Y015240D01*
X002262Y015302D01*
X002277Y015363D01*
X002296Y015422D01*
X002321Y015480D01*
X002351Y015535D01*
X002386Y015587D01*
X002426Y015636D01*
X002470Y015681D01*
X002517Y015721D01*
X002569Y015757D01*
X002623Y015789D01*
X002680Y015815D01*
X002739Y015836D01*
X002800Y015852D01*
X002862Y015862D01*
X002924Y015866D01*
X002987Y015864D01*
X003049Y015857D01*
X003111Y015845D01*
X003171Y015826D01*
X003229Y015803D01*
X003284Y015774D01*
X003337Y015740D01*
X003387Y015701D01*
X003433Y015659D01*
X003474Y015612D01*
X003512Y015561D01*
X003544Y015508D01*
X003572Y015451D01*
X003594Y015393D01*
X003611Y015333D01*
X003623Y015271D01*
X003628Y015208D01*
X003628Y015146D01*
X003623Y015083D01*
X003611Y015021D01*
X003594Y014961D01*
X003572Y014903D01*
X003544Y014846D01*
X003512Y014793D01*
X003474Y014742D01*
X003433Y014695D01*
X003387Y014653D01*
X003337Y014614D01*
X003285Y014580D01*
X003229Y014551D01*
X003171Y014528D01*
X003111Y014509D01*
X003049Y014497D01*
X002987Y014490D01*
X002924Y014488D01*
X002862Y014492D01*
X002800Y014502D01*
X002739Y014518D01*
X002680Y014539D01*
X002623Y014565D01*
X002569Y014597D01*
X002517Y014633D01*
X002470Y014673D01*
X002426Y014718D01*
X002386Y014767D01*
X002351Y014819D01*
X002321Y014874D01*
X002296Y014932D01*
X002277Y014991D01*
X002262Y015052D01*
X002254Y015114D01*
X002251Y015177D01*
M02*
