G75*
G70*
%OFA0B0*%
%FSLAX24Y24*%
%IPPOS*%
%LPD*%
%AMOC8*
5,1,8,0,0,1.08239X$1,22.5*
%
%ADD10C,0.0060*%
%ADD11C,0.0050*%
%ADD12C,0.0020*%
%ADD13C,0.0100*%
D10*
X006416Y006081D02*
X006416Y006509D01*
X006203Y006295D02*
X006630Y006295D01*
D11*
X006034Y006224D02*
X006034Y006933D01*
X005798Y006933D01*
X005510Y007394D02*
X005274Y007394D01*
X005274Y008102D01*
X005510Y008102D01*
X005652Y009354D02*
X005849Y009354D01*
X005849Y009827D01*
X005652Y009827D01*
X005632Y010122D02*
X005436Y010122D01*
X005632Y010122D02*
X005632Y010594D01*
X005436Y010594D01*
X004806Y010594D02*
X004609Y010594D01*
X004609Y010122D01*
X004806Y010122D01*
X004825Y009827D02*
X005022Y009827D01*
X004825Y009827D02*
X004825Y009354D01*
X005022Y009354D01*
X007006Y008102D02*
X007243Y008102D01*
X007243Y007394D01*
X007006Y007394D01*
X006034Y006224D02*
X005798Y006224D01*
X005715Y005472D02*
X005912Y005472D01*
X005912Y005000D01*
X005715Y005000D01*
X006188Y005000D02*
X006188Y005472D01*
X006384Y005472D01*
X006384Y005000D02*
X006188Y005000D01*
X007014Y005000D02*
X007211Y005000D01*
X007211Y005472D01*
X007014Y005472D01*
X005085Y005472D02*
X004888Y005472D01*
X004888Y005000D01*
X005085Y005000D01*
X004302Y006224D02*
X004066Y006224D01*
X004066Y006933D01*
X004302Y006933D01*
X004672Y011649D02*
X005144Y011649D01*
X005144Y011846D01*
X004672Y011846D02*
X004672Y011649D01*
X004672Y012476D02*
X004672Y012673D01*
X005144Y012673D01*
X005144Y012476D01*
X005144Y013134D02*
X004672Y013134D01*
X004672Y013331D01*
X005144Y013331D02*
X005144Y013134D01*
X005144Y013960D02*
X005144Y014157D01*
X004672Y014157D01*
X004672Y013960D01*
X010534Y008740D02*
X011243Y008740D01*
X011243Y008504D01*
X010534Y008504D02*
X010534Y008740D01*
X010534Y007008D02*
X010534Y006771D01*
X011243Y006771D01*
X011243Y007008D01*
D12*
X010460Y007867D02*
X010313Y007867D01*
X010276Y007904D01*
X010276Y007977D01*
X010313Y008014D01*
X010313Y008088D02*
X010276Y008125D01*
X010276Y008198D01*
X010313Y008235D01*
X010350Y008235D01*
X010387Y008198D01*
X010387Y008161D01*
X010387Y008198D02*
X010423Y008235D01*
X010460Y008235D01*
X010497Y008198D01*
X010497Y008125D01*
X010460Y008088D01*
X010460Y008014D02*
X010497Y007977D01*
X010497Y007904D01*
X010460Y007867D01*
X006580Y007277D02*
X006580Y007057D01*
X006580Y007167D02*
X006507Y007167D01*
X006580Y007277D02*
X006433Y007277D01*
X006359Y007277D02*
X006359Y007057D01*
X006249Y007057D01*
X006212Y007094D01*
X006212Y007131D01*
X006249Y007167D01*
X006359Y007167D01*
X006249Y007167D02*
X006212Y007204D01*
X006212Y007241D01*
X006249Y007277D01*
X006359Y007277D01*
X004938Y006150D02*
X004938Y006003D01*
X004902Y005967D01*
X004828Y005967D01*
X004792Y006003D01*
X004717Y006003D02*
X004717Y005967D01*
X004717Y006003D02*
X004571Y006150D01*
X004571Y006187D01*
X004717Y006187D01*
X004792Y006150D02*
X004828Y006187D01*
X004902Y006187D01*
X004938Y006150D01*
X005566Y005769D02*
X005712Y005769D01*
X005712Y005659D01*
X005639Y005696D01*
X005602Y005696D01*
X005566Y005659D01*
X005566Y005586D01*
X005602Y005549D01*
X005676Y005549D01*
X005712Y005586D01*
X005787Y005586D02*
X005823Y005549D01*
X005897Y005549D01*
X005933Y005586D01*
X005933Y005733D01*
X005897Y005769D01*
X005823Y005769D01*
X005787Y005733D01*
X006220Y004923D02*
X006294Y004886D01*
X006367Y004813D01*
X006257Y004813D01*
X006220Y004776D01*
X006220Y004740D01*
X006257Y004703D01*
X006330Y004703D01*
X006367Y004740D01*
X006367Y004813D01*
X006441Y004886D02*
X006478Y004923D01*
X006551Y004923D01*
X006588Y004886D01*
X006588Y004740D01*
X006551Y004703D01*
X006478Y004703D01*
X006441Y004740D01*
X004734Y009136D02*
X004734Y009356D01*
X004624Y009356D01*
X004587Y009319D01*
X004587Y009246D01*
X004624Y009209D01*
X004734Y009209D01*
X004660Y009209D02*
X004587Y009136D01*
X004513Y009136D02*
X004366Y009136D01*
X004439Y009136D02*
X004439Y009356D01*
X004513Y009283D01*
X005252Y010711D02*
X005399Y010711D01*
X005252Y010858D01*
X005252Y010894D01*
X005288Y010931D01*
X005362Y010931D01*
X005399Y010894D01*
X005473Y010894D02*
X005473Y010821D01*
X005509Y010784D01*
X005620Y010784D01*
X005620Y010711D02*
X005620Y010931D01*
X005509Y010931D01*
X005473Y010894D01*
X005546Y010784D02*
X005473Y010711D01*
X004595Y012273D02*
X004375Y012273D01*
X004448Y012273D02*
X004448Y012383D01*
X004485Y012419D01*
X004558Y012419D01*
X004595Y012383D01*
X004595Y012273D01*
X004448Y012346D02*
X004375Y012419D01*
X004412Y012494D02*
X004375Y012530D01*
X004375Y012604D01*
X004412Y012640D01*
X004485Y012640D01*
X004522Y012604D01*
X004522Y012567D01*
X004485Y012494D01*
X004595Y012494D01*
X004595Y012640D01*
X005221Y013112D02*
X005441Y013112D01*
X005441Y013222D01*
X005405Y013259D01*
X005331Y013259D01*
X005295Y013222D01*
X005295Y013112D01*
X005295Y013186D02*
X005221Y013259D01*
X005258Y013333D02*
X005221Y013370D01*
X005221Y013443D01*
X005258Y013480D01*
X005295Y013480D01*
X005331Y013443D01*
X005331Y013333D01*
X005258Y013333D01*
X005331Y013333D02*
X005405Y013407D01*
X005441Y013480D01*
D13*
X004625Y003882D02*
X004625Y002307D01*
X007380Y002307D01*
X007380Y003882D01*
X004625Y003882D01*
X005506Y012901D02*
X006691Y012901D01*
X006691Y014634D01*
X005506Y014634D01*
X005506Y012901D01*
X006377Y013122D02*
X006379Y013143D01*
X006385Y013162D01*
X006395Y013180D01*
X006409Y013196D01*
X006425Y013209D01*
X006444Y013218D01*
X006464Y013223D01*
X006484Y013224D01*
X006505Y013221D01*
X006524Y013214D01*
X006541Y013203D01*
X006556Y013188D01*
X006568Y013172D01*
X006576Y013153D01*
X006580Y013132D01*
X006580Y013112D01*
X006576Y013091D01*
X006568Y013072D01*
X006556Y013056D01*
X006541Y013041D01*
X006524Y013030D01*
X006505Y013023D01*
X006484Y013020D01*
X006464Y013021D01*
X006444Y013026D01*
X006425Y013035D01*
X006409Y013048D01*
X006395Y013064D01*
X006385Y013082D01*
X006379Y013101D01*
X006377Y013122D01*
M02*
