G75*
G70*
%OFA0B0*%
%FSLAX24Y24*%
%IPPOS*%
%LPD*%
%AMOC8*
5,1,8,0,0,1.08239X$1,22.5*
%
%ADD10C,0.1458*%
%ADD11R,0.0867X0.0178*%
%ADD12R,0.0178X0.0867*%
%ADD13R,0.2245X0.0867*%
%ADD14C,0.1386*%
%ADD15C,0.0671*%
%ADD16R,0.0395X0.0474*%
%ADD17R,0.0631X0.0198*%
%ADD18R,0.0946X0.0710*%
%ADD19C,0.0395*%
D10*
X002940Y001397D03*
X016719Y001397D03*
X016719Y015177D03*
X002940Y015177D03*
D11*
X009042Y009370D03*
X009042Y009173D03*
X009042Y008976D03*
X009042Y008779D03*
X009042Y008583D03*
X009042Y008386D03*
X009042Y008189D03*
X009042Y007992D03*
X009042Y007795D03*
X009042Y007598D03*
X009042Y007401D03*
X009042Y007205D03*
X012585Y007205D03*
X012585Y007401D03*
X012585Y007598D03*
X012585Y007795D03*
X012585Y007992D03*
X012585Y008189D03*
X012585Y008386D03*
X012585Y008583D03*
X012585Y008779D03*
X012585Y008976D03*
X012585Y009173D03*
X012585Y009370D03*
D12*
X011896Y010059D03*
X011699Y010059D03*
X011503Y010059D03*
X011306Y010059D03*
X011109Y010059D03*
X010912Y010059D03*
X010715Y010059D03*
X010518Y010059D03*
X010321Y010059D03*
X010125Y010059D03*
X009928Y010059D03*
X009731Y010059D03*
X009731Y006516D03*
X009928Y006516D03*
X010125Y006516D03*
X010321Y006516D03*
X010518Y006516D03*
X010715Y006516D03*
X010912Y006516D03*
X011109Y006516D03*
X011306Y006516D03*
X011503Y006516D03*
X011699Y006516D03*
X011896Y006516D03*
D13*
X012487Y013602D03*
X008747Y013602D03*
D14*
X003014Y010610D03*
X003014Y005870D03*
D15*
X004081Y007748D03*
X004869Y007748D03*
X004869Y008732D03*
X004081Y008732D03*
D16*
X006758Y008996D03*
X007388Y008996D03*
X009136Y011027D03*
X009766Y011027D03*
X009136Y011697D03*
X008506Y011697D03*
X008754Y015079D03*
X009384Y015079D03*
X011861Y015079D03*
X012491Y015079D03*
D17*
X015066Y010059D03*
X015066Y009862D03*
X015066Y009665D03*
X015066Y009468D03*
X015066Y009271D03*
X015066Y009075D03*
X015066Y008878D03*
X015066Y008681D03*
X015066Y008484D03*
X015066Y008287D03*
X015066Y008090D03*
X015066Y007894D03*
X015066Y007697D03*
X015066Y007500D03*
X015066Y007303D03*
X015066Y007106D03*
X015066Y006909D03*
X015066Y006712D03*
X015066Y006516D03*
X015066Y006319D03*
X015066Y006122D03*
X015066Y005925D03*
X015066Y005728D03*
X015066Y005531D03*
X015066Y005334D03*
X015066Y005138D03*
X015066Y004941D03*
X015066Y004744D03*
X015066Y004547D03*
X015066Y004350D03*
D18*
X016306Y003307D03*
X016306Y011181D03*
D19*
X014593Y010689D03*
X014632Y013307D03*
X013845Y015374D03*
X010715Y015472D03*
X007802Y015472D03*
X008156Y012244D03*
X007408Y011457D03*
X006581Y011437D03*
X005794Y011397D03*
X006581Y009941D03*
X007664Y009705D03*
X006089Y008720D03*
X009888Y008386D03*
X009928Y007244D03*
X011719Y008976D03*
X013865Y007205D03*
X014554Y003661D03*
X012388Y001909D03*
X011384Y001929D03*
X010341Y001929D03*
X007644Y001397D03*
X004672Y001299D03*
X003373Y003583D03*
X003373Y004390D03*
X011227Y011338D03*
X003097Y012244D03*
X003097Y013209D03*
M02*
