%
M48
M72
T01C0.0197
T02C0.0394
T03C0.0906
T04C0.1378
%
T01
X3373Y3583
X3373Y4390
X4672Y1299
X7644Y1397
X10341Y1929
X11384Y1929
X12388Y1909
X14554Y3661
X13865Y7205
X11719Y8976
X9888Y8386
X9928Y7244
X7664Y9705
X6581Y9941
X6089Y8720
X5794Y11397
X6581Y11437
X7408Y11457
X8156Y12244
X11227Y11338
X14593Y10689
X14632Y13307
X13845Y15374
X10715Y15472
X7802Y15472
X3097Y13209
X3097Y12244
T02
X4081Y8732
X4869Y8732
X4869Y7748
X4081Y7748
T03
X3014Y5870
X3014Y10610
T04
X2940Y1397
X16719Y1397
X16719Y15177
X2940Y15177
M30
