G75*
G70*
%OFA0B0*%
%FSLAX24Y24*%
%IPPOS*%
%LPD*%
%AMOC8*
5,1,8,0,0,1.08239X$1,22.5*
%
%ADD10C,0.1306*%
%ADD11C,0.0591*%
%ADD12R,0.0315X0.0394*%
%ADD13R,0.0630X0.0630*%
%ADD14R,0.0098X0.0787*%
%ADD15R,0.0394X0.0315*%
%ADD16R,0.0394X0.0591*%
%ADD17R,0.1299X0.0591*%
%ADD18C,0.0315*%
%ADD19C,0.0160*%
%ADD20C,0.0100*%
D10*
X003014Y005870D03*
X003014Y010610D03*
D11*
X004081Y008732D03*
X004869Y008732D03*
X004869Y007748D03*
X004081Y007748D03*
D12*
X005022Y009590D03*
X005652Y009590D03*
X005436Y010358D03*
X004806Y010358D03*
X005085Y005236D03*
X005715Y005236D03*
X006384Y005236D03*
X007014Y005236D03*
D13*
X005680Y006579D03*
X005629Y007748D03*
X006888Y007748D03*
X004420Y006579D03*
X010888Y007126D03*
X010888Y008386D03*
D14*
X006483Y012488D03*
X006227Y012488D03*
X005971Y012488D03*
X005715Y012488D03*
X005715Y015008D03*
X005971Y015008D03*
X006227Y015008D03*
X006483Y015008D03*
D15*
X004908Y013960D03*
X004908Y013331D03*
X004908Y012476D03*
X004908Y011846D03*
D16*
X005097Y004275D03*
X006003Y004275D03*
X006908Y004275D03*
D17*
X006003Y001795D03*
D18*
X004672Y001299D03*
X003373Y003583D03*
X003373Y004390D03*
X007644Y001397D03*
X010341Y001929D03*
X011384Y001929D03*
X012388Y001909D03*
X014554Y003661D03*
X013865Y007205D03*
X011719Y008976D03*
X009888Y008386D03*
X009928Y007244D03*
X007664Y009705D03*
X006581Y009941D03*
X006089Y008720D03*
X005794Y011397D03*
X006581Y011437D03*
X007408Y011457D03*
X008156Y012244D03*
X011227Y011338D03*
X014593Y010689D03*
X014632Y013307D03*
X013845Y015374D03*
X010715Y015472D03*
X007802Y015472D03*
X003097Y013209D03*
X003097Y012244D03*
D19*
X004908Y012476D02*
X004920Y012488D01*
X004920Y013307D01*
X004908Y013319D01*
X004908Y013960D02*
X006270Y013960D01*
X006483Y014173D01*
X006483Y015008D01*
X006550Y014941D01*
X007152Y014941D01*
X007329Y014764D01*
X007329Y012913D01*
X008156Y012382D01*
X010932Y012382D01*
X011227Y012205D01*
X011227Y011338D01*
X009593Y009705D01*
X007664Y009705D01*
X007664Y008386D01*
X007097Y007740D01*
X006888Y007748D01*
X006892Y007047D01*
X006266Y006598D01*
X005680Y006579D01*
X005558Y006583D01*
X005558Y006142D01*
X005085Y005787D01*
X005085Y005236D01*
X005085Y004287D01*
X005097Y004275D01*
X006877Y004252D02*
X007073Y004449D01*
X007073Y005236D01*
X009003Y005236D01*
X009928Y006102D01*
X009928Y007244D01*
X005629Y007748D02*
X004869Y007748D01*
X005105Y011397D02*
X004908Y011594D01*
X004908Y011846D01*
X005105Y011397D02*
X005794Y011397D01*
X005794Y011771D01*
X005971Y011949D01*
X005971Y012488D01*
X005715Y012488D02*
X004920Y012488D01*
X006227Y012488D02*
X006227Y011712D01*
X006581Y011437D01*
X006581Y011949D02*
X006778Y011949D01*
X007408Y011457D01*
X006581Y011949D02*
X006483Y012047D01*
X006483Y012488D01*
D20*
X002281Y005386D02*
X002281Y002174D01*
X002365Y002258D01*
X002738Y002412D01*
X003141Y002412D01*
X003514Y002258D01*
X003800Y001972D01*
X003954Y001599D01*
X003954Y001196D01*
X003800Y000823D01*
X003716Y000739D01*
X015943Y000739D01*
X015859Y000823D01*
X015704Y001196D01*
X015704Y001599D01*
X015859Y001972D01*
X016144Y002258D01*
X016517Y002412D01*
X016921Y002412D01*
X017294Y002258D01*
X017378Y002174D01*
X017378Y014401D01*
X017294Y014317D01*
X016921Y014162D01*
X016517Y014162D01*
X016144Y014317D01*
X015859Y014602D01*
X015704Y014975D01*
X015704Y015379D01*
X015859Y015752D01*
X015943Y015836D01*
X003716Y015836D01*
X003800Y015752D01*
X003954Y015379D01*
X003954Y014975D01*
X003800Y014602D01*
X003514Y014317D01*
X003141Y014162D01*
X002738Y014162D01*
X002365Y014317D01*
X002281Y014401D01*
X002281Y011094D01*
X002283Y011099D01*
X002526Y011341D01*
X002843Y011473D01*
X003186Y011473D01*
X003503Y011341D01*
X003746Y011099D01*
X003877Y010782D01*
X003877Y010438D01*
X003746Y010121D01*
X003503Y009879D01*
X003186Y009747D01*
X002843Y009747D01*
X002526Y009879D01*
X002283Y010121D01*
X002281Y010126D01*
X002281Y006353D01*
X002283Y006359D01*
X002526Y006601D01*
X002843Y006733D01*
X003186Y006733D01*
X003503Y006601D01*
X003746Y006359D01*
X003877Y006042D01*
X003877Y005698D01*
X003746Y005381D01*
X003503Y005139D01*
X003186Y005007D01*
X002843Y005007D01*
X002526Y005139D01*
X002283Y005381D01*
X002281Y005386D01*
X002281Y005340D02*
X002324Y005340D01*
X002281Y005242D02*
X002422Y005242D01*
X002521Y005143D02*
X002281Y005143D01*
X002281Y005045D02*
X002752Y005045D01*
X002281Y004946D02*
X004724Y004946D01*
X004718Y004952D02*
X004795Y004875D01*
X004795Y004763D01*
X004690Y004658D01*
X004690Y004170D01*
X004538Y004170D01*
X004415Y004047D01*
X004415Y002023D01*
X004538Y001900D01*
X005244Y001900D01*
X005244Y001845D01*
X005952Y001845D01*
X005952Y001745D01*
X005244Y001745D01*
X005244Y001455D01*
X005308Y001391D01*
X005953Y001391D01*
X005953Y001745D01*
X006052Y001745D01*
X006052Y001391D01*
X006697Y001391D01*
X006761Y001455D01*
X006761Y001745D01*
X006053Y001745D01*
X006053Y001845D01*
X006761Y001845D01*
X006761Y001900D01*
X007467Y001900D01*
X007590Y002023D01*
X007590Y004047D01*
X007467Y004170D01*
X007315Y004170D01*
X007315Y004280D01*
X007363Y004329D01*
X007363Y004569D01*
X007363Y004934D01*
X007376Y004946D01*
X008882Y004946D01*
X009117Y004946D01*
X009123Y004946D01*
X017378Y004946D01*
X017378Y004848D02*
X007363Y004848D01*
X007363Y004749D02*
X017378Y004749D01*
X017378Y004651D02*
X007363Y004651D01*
X007363Y004552D02*
X017378Y004552D01*
X017378Y004454D02*
X007363Y004454D01*
X007363Y004355D02*
X017378Y004355D01*
X017378Y004256D02*
X007315Y004256D01*
X007480Y004158D02*
X017378Y004158D01*
X017378Y004059D02*
X007579Y004059D01*
X007590Y003961D02*
X017378Y003961D01*
X017378Y003862D02*
X014730Y003862D01*
X014705Y003887D02*
X014607Y003928D01*
X014554Y003928D01*
X014554Y003662D01*
X014553Y003662D01*
X014553Y003928D01*
X014501Y003928D01*
X014403Y003887D01*
X014328Y003812D01*
X014287Y003714D01*
X014287Y003661D01*
X014287Y003608D01*
X014328Y003510D01*
X014403Y003435D01*
X014501Y003395D01*
X014553Y003395D01*
X014553Y003661D01*
X014287Y003661D01*
X014553Y003661D01*
X014553Y003661D01*
X014554Y003661D01*
X014554Y003661D01*
X014820Y003661D01*
X014820Y003608D01*
X014780Y003510D01*
X014705Y003435D01*
X014607Y003395D01*
X014554Y003395D01*
X014554Y003661D01*
X014820Y003661D01*
X014820Y003714D01*
X014780Y003812D01*
X014705Y003887D01*
X014554Y003862D02*
X014553Y003862D01*
X014553Y003764D02*
X014554Y003764D01*
X014553Y003665D02*
X014554Y003665D01*
X014553Y003567D02*
X014554Y003567D01*
X014553Y003468D02*
X014554Y003468D01*
X014737Y003468D02*
X017378Y003468D01*
X017378Y003370D02*
X007590Y003370D01*
X007590Y003468D02*
X014370Y003468D01*
X014304Y003567D02*
X007590Y003567D01*
X007590Y003665D02*
X014287Y003665D01*
X014308Y003764D02*
X007590Y003764D01*
X007590Y003862D02*
X014378Y003862D01*
X014800Y003764D02*
X017378Y003764D01*
X017378Y003665D02*
X014820Y003665D01*
X014803Y003567D02*
X017378Y003567D01*
X017378Y003271D02*
X007590Y003271D01*
X007590Y003172D02*
X017378Y003172D01*
X017378Y003074D02*
X007590Y003074D01*
X007590Y002975D02*
X017378Y002975D01*
X017378Y002877D02*
X007590Y002877D01*
X007590Y002778D02*
X017378Y002778D01*
X017378Y002680D02*
X007590Y002680D01*
X007590Y002581D02*
X017378Y002581D01*
X017378Y002483D02*
X007590Y002483D01*
X007590Y002384D02*
X016450Y002384D01*
X016212Y002286D02*
X007590Y002286D01*
X007590Y002187D02*
X010268Y002187D01*
X010288Y002195D02*
X010190Y002155D01*
X010115Y002080D01*
X010075Y001982D01*
X010075Y001929D01*
X010341Y001929D01*
X010341Y001929D01*
X010341Y002195D01*
X010288Y002195D01*
X010341Y002195D02*
X010341Y001929D01*
X010341Y001929D01*
X010075Y001929D01*
X010075Y001876D01*
X010115Y001778D01*
X010190Y001703D01*
X010288Y001662D01*
X010341Y001662D01*
X010341Y001929D01*
X010341Y001929D01*
X010608Y001929D01*
X010608Y001982D01*
X010567Y002080D01*
X010492Y002155D01*
X010394Y002195D01*
X010341Y002195D01*
X010341Y002187D02*
X010341Y002187D01*
X010415Y002187D02*
X011311Y002187D01*
X011331Y002195D02*
X011233Y002155D01*
X011158Y002080D01*
X011118Y001982D01*
X011118Y001929D01*
X011384Y001929D01*
X011384Y001929D01*
X011118Y001929D01*
X011118Y001876D01*
X011158Y001778D01*
X011233Y001703D01*
X011331Y001662D01*
X011384Y001662D01*
X011384Y001929D01*
X011384Y002195D01*
X011331Y002195D01*
X011385Y002195D02*
X011385Y001929D01*
X011651Y001929D01*
X011651Y001982D01*
X011610Y002080D01*
X011535Y002155D01*
X011437Y002195D01*
X011385Y002195D01*
X011384Y002187D02*
X011385Y002187D01*
X011458Y002187D02*
X016074Y002187D01*
X015975Y002088D02*
X012586Y002088D01*
X012614Y002060D02*
X012539Y002135D01*
X012441Y002176D01*
X012389Y002176D01*
X012389Y001910D01*
X012388Y001910D01*
X012388Y002176D01*
X012335Y002176D01*
X012237Y002135D01*
X012162Y002060D01*
X012122Y001962D01*
X012122Y001909D01*
X012122Y001856D01*
X012162Y001758D01*
X012237Y001683D01*
X012335Y001643D01*
X012388Y001643D01*
X012388Y001909D01*
X012122Y001909D01*
X012388Y001909D01*
X012388Y001909D01*
X012389Y001909D01*
X012389Y001909D01*
X012655Y001909D01*
X012655Y001856D01*
X012614Y001758D01*
X012539Y001683D01*
X012441Y001643D01*
X012389Y001643D01*
X012389Y001909D01*
X012655Y001909D01*
X012655Y001962D01*
X012614Y002060D01*
X012643Y001990D02*
X015877Y001990D01*
X015826Y001891D02*
X012655Y001891D01*
X012629Y001793D02*
X015785Y001793D01*
X015744Y001694D02*
X012550Y001694D01*
X012389Y001694D02*
X012388Y001694D01*
X012388Y001793D02*
X012389Y001793D01*
X012388Y001891D02*
X012389Y001891D01*
X012388Y001990D02*
X012389Y001990D01*
X012388Y002088D02*
X012389Y002088D01*
X012191Y002088D02*
X011602Y002088D01*
X011648Y001990D02*
X012133Y001990D01*
X012122Y001891D02*
X011651Y001891D01*
X011651Y001876D02*
X011651Y001929D01*
X011385Y001929D01*
X011385Y001929D01*
X011384Y001929D01*
X011385Y001929D01*
X011385Y001662D01*
X011437Y001662D01*
X011535Y001703D01*
X011610Y001778D01*
X011651Y001876D01*
X011616Y001793D02*
X012148Y001793D01*
X012226Y001694D02*
X011514Y001694D01*
X011385Y001694D02*
X011384Y001694D01*
X011384Y001793D02*
X011385Y001793D01*
X011384Y001891D02*
X011385Y001891D01*
X011384Y001990D02*
X011385Y001990D01*
X011384Y002088D02*
X011385Y002088D01*
X011167Y002088D02*
X010558Y002088D01*
X010604Y001990D02*
X011121Y001990D01*
X011118Y001891D02*
X010608Y001891D01*
X010608Y001876D02*
X010608Y001929D01*
X010341Y001929D01*
X010341Y001929D01*
X010341Y001662D01*
X010394Y001662D01*
X010492Y001703D01*
X010567Y001778D01*
X010608Y001876D01*
X010573Y001793D02*
X011152Y001793D01*
X011254Y001694D02*
X010471Y001694D01*
X010341Y001694D02*
X010341Y001694D01*
X010341Y001793D02*
X010341Y001793D01*
X010341Y001891D02*
X010341Y001891D01*
X010341Y001990D02*
X010341Y001990D01*
X010341Y002088D02*
X010341Y002088D01*
X010124Y002088D02*
X007590Y002088D01*
X007557Y001990D02*
X010078Y001990D01*
X010075Y001891D02*
X006761Y001891D01*
X006761Y001694D02*
X010211Y001694D01*
X010109Y001793D02*
X006053Y001793D01*
X006052Y001694D02*
X005953Y001694D01*
X005953Y001596D02*
X006052Y001596D01*
X006052Y001497D02*
X005953Y001497D01*
X005953Y001399D02*
X006052Y001399D01*
X005952Y001793D02*
X003874Y001793D01*
X003833Y001891D02*
X005244Y001891D01*
X005244Y001694D02*
X003915Y001694D01*
X003954Y001596D02*
X005244Y001596D01*
X005244Y001497D02*
X004851Y001497D01*
X004823Y001525D02*
X004898Y001450D01*
X004938Y001352D01*
X004938Y001299D01*
X004672Y001299D01*
X004672Y001299D01*
X004938Y001299D01*
X004938Y001246D01*
X004898Y001148D01*
X004823Y001073D01*
X004725Y001033D01*
X004672Y001033D01*
X004672Y001299D01*
X004672Y001299D01*
X004672Y001299D01*
X004672Y001566D01*
X004725Y001566D01*
X004823Y001525D01*
X004672Y001497D02*
X004672Y001497D01*
X004672Y001566D02*
X004619Y001566D01*
X004521Y001525D01*
X004446Y001450D01*
X004405Y001352D01*
X004405Y001299D01*
X004405Y001246D01*
X004446Y001148D01*
X004521Y001073D01*
X004619Y001033D01*
X004672Y001033D01*
X004672Y001299D01*
X004672Y001566D01*
X004672Y001399D02*
X004672Y001399D01*
X004672Y001300D02*
X004672Y001300D01*
X004671Y001299D02*
X004671Y001299D01*
X004405Y001299D01*
X004671Y001299D01*
X004672Y001202D02*
X004672Y001202D01*
X004672Y001103D02*
X004672Y001103D01*
X004853Y001103D02*
X015743Y001103D01*
X015704Y001202D02*
X007825Y001202D01*
X007795Y001172D02*
X007870Y001246D01*
X007911Y001344D01*
X007911Y001397D01*
X007645Y001397D01*
X007645Y001398D01*
X007911Y001398D01*
X007911Y001450D01*
X007870Y001548D01*
X007795Y001623D01*
X007697Y001664D01*
X007644Y001664D01*
X007591Y001664D01*
X007493Y001623D01*
X007418Y001548D01*
X007378Y001450D01*
X007378Y001398D01*
X007644Y001398D01*
X007644Y001664D01*
X007644Y001398D01*
X007644Y001398D01*
X007644Y001397D01*
X007644Y001397D01*
X007644Y001131D01*
X007591Y001131D01*
X007493Y001172D01*
X007418Y001246D01*
X007378Y001344D01*
X007378Y001397D01*
X007644Y001397D01*
X007644Y001131D01*
X007697Y001131D01*
X007795Y001172D01*
X007644Y001202D02*
X007644Y001202D01*
X007644Y001300D02*
X007644Y001300D01*
X007644Y001399D02*
X007644Y001399D01*
X007644Y001497D02*
X007644Y001497D01*
X007644Y001596D02*
X007644Y001596D01*
X007466Y001596D02*
X006761Y001596D01*
X006761Y001497D02*
X007397Y001497D01*
X007378Y001399D02*
X006705Y001399D01*
X007396Y001300D02*
X004938Y001300D01*
X004920Y001202D02*
X007463Y001202D01*
X007823Y001596D02*
X015704Y001596D01*
X015704Y001497D02*
X007891Y001497D01*
X007911Y001399D02*
X015704Y001399D01*
X015704Y001300D02*
X007892Y001300D01*
X005300Y001399D02*
X004919Y001399D01*
X004493Y001497D02*
X003954Y001497D01*
X003954Y001399D02*
X004425Y001399D01*
X004405Y001300D02*
X003954Y001300D01*
X003954Y001202D02*
X004424Y001202D01*
X004491Y001103D02*
X003916Y001103D01*
X003875Y001004D02*
X015784Y001004D01*
X015824Y000906D02*
X003834Y000906D01*
X003784Y000807D02*
X015874Y000807D01*
X017226Y002286D02*
X017378Y002286D01*
X017378Y002384D02*
X016988Y002384D01*
X017364Y002187D02*
X017378Y002187D01*
X017378Y005045D02*
X009222Y005045D01*
X009204Y005027D02*
X010042Y005812D01*
X010048Y005812D01*
X010129Y005894D01*
X010171Y005935D01*
X010218Y005982D01*
X010218Y007014D01*
X010239Y007036D01*
X010295Y007171D01*
X010295Y007317D01*
X010239Y007452D01*
X010136Y007555D01*
X010001Y007611D01*
X009855Y007611D01*
X009720Y007555D01*
X009616Y007452D01*
X009560Y007317D01*
X009560Y007171D01*
X009616Y007036D01*
X009638Y007014D01*
X009638Y006228D01*
X008888Y005526D01*
X007376Y005526D01*
X007259Y005643D01*
X006944Y005643D01*
X006455Y005643D01*
X006354Y005542D01*
X006182Y005542D01*
X006118Y005478D01*
X006118Y005265D01*
X006332Y005265D01*
X006332Y005207D01*
X006118Y005207D01*
X006118Y004994D01*
X006182Y004930D01*
X006354Y004930D01*
X006455Y004829D01*
X006783Y004829D01*
X006783Y004781D01*
X006624Y004781D01*
X006501Y004658D01*
X006501Y004170D01*
X006308Y004170D01*
X006308Y004227D01*
X006051Y004227D01*
X006051Y004324D01*
X005954Y004324D01*
X005954Y004680D01*
X005760Y004680D01*
X005697Y004616D01*
X005697Y004324D01*
X005954Y004324D01*
X005954Y004227D01*
X005697Y004227D01*
X005697Y004170D01*
X005504Y004170D01*
X005504Y004658D01*
X005381Y004781D01*
X005375Y004781D01*
X005375Y004829D01*
X005645Y004829D01*
X005746Y004930D01*
X005918Y004930D01*
X005982Y004994D01*
X005982Y005207D01*
X005768Y005207D01*
X005768Y005265D01*
X005982Y005265D01*
X005982Y005478D01*
X005918Y005542D01*
X005746Y005542D01*
X005645Y005643D01*
X005376Y005643D01*
X005654Y005852D01*
X005678Y005852D01*
X005848Y006021D01*
X005848Y006054D01*
X006082Y006054D01*
X006205Y006177D01*
X006205Y006306D01*
X006271Y006308D01*
X006359Y006308D01*
X006364Y006311D01*
X006390Y006312D01*
X006454Y006376D01*
X006985Y006757D01*
X007012Y006757D01*
X007080Y006825D01*
X007081Y006825D01*
X007182Y006927D01*
X007182Y007167D01*
X007182Y007168D01*
X007181Y007223D01*
X007290Y007223D01*
X007413Y007346D01*
X007413Y007661D01*
X007876Y008187D01*
X007954Y008266D01*
X007954Y008276D01*
X007954Y008506D01*
X007954Y009415D01*
X009473Y009415D01*
X009713Y009415D01*
X011270Y010971D01*
X011300Y010971D01*
X011435Y011027D01*
X011538Y011130D01*
X011594Y011265D01*
X011594Y011411D01*
X011538Y011547D01*
X011517Y011568D01*
X011517Y012084D01*
X011517Y012325D01*
X011407Y012435D01*
X011347Y012495D01*
X011307Y012495D01*
X011111Y012612D01*
X011052Y012672D01*
X011012Y012672D01*
X011005Y012672D01*
X008241Y012672D01*
X007619Y013071D01*
X007619Y014644D01*
X007619Y014884D01*
X007442Y015061D01*
X007272Y015231D01*
X006742Y015231D01*
X006742Y015488D01*
X006619Y015611D01*
X006347Y015611D01*
X006091Y015611D01*
X005835Y015611D01*
X005734Y015510D01*
X005715Y015510D01*
X005621Y015510D01*
X005557Y015447D01*
X005557Y015008D01*
X005712Y015008D01*
X005712Y015007D01*
X005557Y015007D01*
X005557Y014569D01*
X005621Y014505D01*
X005715Y014505D01*
X005715Y014524D01*
X005715Y014524D01*
X005715Y014505D01*
X005734Y014505D01*
X003702Y014505D01*
X003800Y014603D02*
X005557Y014603D01*
X005557Y014702D02*
X003841Y014702D01*
X003882Y014801D02*
X005557Y014801D01*
X005557Y014899D02*
X003923Y014899D01*
X003954Y014998D02*
X005557Y014998D01*
X005557Y015096D02*
X003954Y015096D01*
X003954Y015195D02*
X005557Y015195D01*
X005557Y015293D02*
X003954Y015293D01*
X003949Y015392D02*
X005557Y015392D01*
X005601Y015490D02*
X003908Y015490D01*
X003867Y015589D02*
X005812Y015589D01*
X005715Y015510D02*
X005715Y015492D01*
X005715Y015491D01*
X005715Y015510D01*
X006641Y015589D02*
X007562Y015589D01*
X007576Y015623D02*
X007535Y015525D01*
X007535Y015472D01*
X007535Y015419D01*
X007576Y015321D01*
X007651Y015246D01*
X007749Y015206D01*
X007801Y015206D01*
X007801Y015472D01*
X007535Y015472D01*
X007801Y015472D01*
X007801Y015472D01*
X007802Y015472D01*
X007802Y015472D01*
X008068Y015472D01*
X008068Y015419D01*
X008028Y015321D01*
X007953Y015246D01*
X007855Y015206D01*
X007802Y015206D01*
X007802Y015472D01*
X008068Y015472D01*
X008068Y015525D01*
X008028Y015623D01*
X007953Y015698D01*
X007855Y015739D01*
X007802Y015739D01*
X007802Y015473D01*
X007801Y015473D01*
X007801Y015739D01*
X007749Y015739D01*
X007651Y015698D01*
X007576Y015623D01*
X007640Y015687D02*
X003826Y015687D01*
X003765Y015786D02*
X015893Y015786D01*
X015832Y015687D02*
X010877Y015687D01*
X010866Y015698D02*
X010768Y015739D01*
X010715Y015739D01*
X010715Y015473D01*
X010715Y015473D01*
X010715Y015739D01*
X010662Y015739D01*
X010564Y015698D01*
X010489Y015623D01*
X010449Y015525D01*
X010449Y015472D01*
X010449Y015419D01*
X010489Y015321D01*
X010564Y015246D01*
X010662Y015206D01*
X010715Y015206D01*
X010715Y015472D01*
X010715Y015472D01*
X010715Y015206D01*
X010768Y015206D01*
X010866Y015246D01*
X010941Y015321D01*
X010982Y015419D01*
X010982Y015472D01*
X010716Y015472D01*
X010716Y015472D01*
X010982Y015472D01*
X010982Y015525D01*
X010941Y015623D01*
X010866Y015698D01*
X010955Y015589D02*
X013683Y015589D01*
X013694Y015600D02*
X013619Y015525D01*
X013579Y015427D01*
X013579Y015374D01*
X013845Y015374D01*
X013845Y015640D01*
X013792Y015640D01*
X013694Y015600D01*
X013605Y015490D02*
X010982Y015490D01*
X010970Y015392D02*
X013579Y015392D01*
X013579Y015374D02*
X013579Y015321D01*
X013619Y015223D01*
X013694Y015148D01*
X013792Y015107D01*
X013845Y015107D01*
X013898Y015107D01*
X013996Y015148D01*
X014071Y015223D01*
X014112Y015321D01*
X014112Y015374D01*
X014112Y015427D01*
X014071Y015525D01*
X013996Y015600D01*
X013898Y015640D01*
X013845Y015640D01*
X013845Y015374D01*
X013845Y015374D01*
X013845Y015374D01*
X014112Y015374D01*
X013845Y015374D01*
X013845Y015374D01*
X013579Y015374D01*
X013590Y015293D02*
X010913Y015293D01*
X010715Y015293D02*
X010715Y015293D01*
X010715Y015392D02*
X010715Y015392D01*
X010715Y015472D02*
X010449Y015472D01*
X010715Y015472D01*
X010715Y015472D01*
X010715Y015490D02*
X010715Y015490D01*
X010715Y015589D02*
X010715Y015589D01*
X010715Y015687D02*
X010715Y015687D01*
X010553Y015687D02*
X007963Y015687D01*
X008042Y015589D02*
X010475Y015589D01*
X010449Y015490D02*
X008068Y015490D01*
X008057Y015392D02*
X010460Y015392D01*
X010517Y015293D02*
X008000Y015293D01*
X007802Y015293D02*
X007801Y015293D01*
X007801Y015392D02*
X007802Y015392D01*
X007801Y015490D02*
X007802Y015490D01*
X007801Y015589D02*
X007802Y015589D01*
X007801Y015687D02*
X007802Y015687D01*
X007535Y015490D02*
X006740Y015490D01*
X006742Y015392D02*
X007547Y015392D01*
X007604Y015293D02*
X006742Y015293D01*
X007308Y015195D02*
X013647Y015195D01*
X013845Y015195D02*
X013845Y015195D01*
X013845Y015107D02*
X013845Y015373D01*
X013845Y015373D01*
X013845Y015107D01*
X013845Y015293D02*
X013845Y015293D01*
X013845Y015392D02*
X013845Y015392D01*
X013845Y015490D02*
X013845Y015490D01*
X013845Y015589D02*
X013845Y015589D01*
X014007Y015589D02*
X015792Y015589D01*
X015751Y015490D02*
X014085Y015490D01*
X014112Y015392D02*
X015710Y015392D01*
X015704Y015293D02*
X014100Y015293D01*
X014043Y015195D02*
X015704Y015195D01*
X015704Y015096D02*
X007407Y015096D01*
X007505Y014998D02*
X015704Y014998D01*
X015736Y014899D02*
X007604Y014899D01*
X007619Y014801D02*
X015777Y014801D01*
X015818Y014702D02*
X007619Y014702D01*
X007619Y014603D02*
X015858Y014603D01*
X015956Y014505D02*
X007619Y014505D01*
X007619Y014406D02*
X016055Y014406D01*
X016166Y014308D02*
X007619Y014308D01*
X007619Y014209D02*
X016404Y014209D01*
X017034Y014209D02*
X017378Y014209D01*
X017378Y014111D02*
X007619Y014111D01*
X007619Y014012D02*
X017378Y014012D01*
X017378Y013914D02*
X007619Y013914D01*
X007619Y013815D02*
X017378Y013815D01*
X017378Y013717D02*
X007619Y013717D01*
X007619Y013618D02*
X017378Y013618D01*
X017378Y013519D02*
X014797Y013519D01*
X014783Y013533D02*
X014685Y013573D01*
X014633Y013573D01*
X014633Y013307D01*
X014899Y013307D01*
X014899Y013360D01*
X014858Y013458D01*
X014783Y013533D01*
X014874Y013421D02*
X017378Y013421D01*
X017378Y013322D02*
X014899Y013322D01*
X014899Y013307D02*
X014633Y013307D01*
X014633Y013307D01*
X014632Y013307D01*
X014632Y013307D01*
X014366Y013307D01*
X014366Y013360D01*
X014406Y013458D01*
X014481Y013533D01*
X014579Y013573D01*
X014632Y013573D01*
X014632Y013307D01*
X014366Y013307D01*
X014366Y013254D01*
X014406Y013156D01*
X014481Y013081D01*
X014579Y013040D01*
X014632Y013040D01*
X014632Y013306D01*
X014633Y013306D01*
X014633Y013040D01*
X014685Y013040D01*
X014783Y013081D01*
X014858Y013156D01*
X014899Y013254D01*
X014899Y013307D01*
X014886Y013224D02*
X017378Y013224D01*
X017378Y013125D02*
X014828Y013125D01*
X014633Y013125D02*
X014632Y013125D01*
X014632Y013224D02*
X014633Y013224D01*
X014632Y013322D02*
X014633Y013322D01*
X014632Y013421D02*
X014633Y013421D01*
X014632Y013519D02*
X014633Y013519D01*
X014468Y013519D02*
X007619Y013519D01*
X007619Y013421D02*
X014391Y013421D01*
X014366Y013322D02*
X007619Y013322D01*
X007619Y013224D02*
X014378Y013224D01*
X014437Y013125D02*
X007619Y013125D01*
X007689Y013027D02*
X017378Y013027D01*
X017378Y012928D02*
X007842Y012928D01*
X007995Y012830D02*
X017378Y012830D01*
X017378Y012731D02*
X008149Y012731D01*
X008156Y012382D02*
X008156Y012244D01*
X007789Y012238D02*
X006898Y012238D01*
X006898Y012239D02*
X006878Y012239D01*
X006773Y012239D01*
X006773Y012608D01*
X006742Y012639D01*
X006742Y012969D01*
X006619Y013092D01*
X006363Y013092D01*
X006107Y013092D01*
X005851Y013092D01*
X005579Y013092D01*
X005456Y012969D01*
X005456Y012778D01*
X005258Y012778D01*
X005210Y012826D01*
X005210Y012981D01*
X005315Y013086D01*
X005315Y013401D01*
X005315Y013670D01*
X006150Y013670D01*
X006390Y013670D01*
X006603Y013883D01*
X006773Y014053D01*
X006773Y014651D01*
X007032Y014651D01*
X007039Y014644D01*
X007039Y012793D01*
X007093Y012739D01*
X007146Y012686D01*
X007209Y012623D01*
X007244Y012623D01*
X007789Y012273D01*
X007789Y012171D01*
X007845Y012036D01*
X007948Y011932D01*
X008083Y011876D01*
X008229Y011876D01*
X008364Y011932D01*
X008468Y012036D01*
X008491Y012092D01*
X010851Y012092D01*
X010937Y012040D01*
X010937Y011568D01*
X010915Y011547D01*
X010859Y011411D01*
X010859Y011381D01*
X009473Y009995D01*
X007894Y009995D01*
X007872Y010016D01*
X007737Y010072D01*
X007591Y010072D01*
X007456Y010016D01*
X007352Y009913D01*
X007296Y009778D01*
X007296Y009631D01*
X007352Y009496D01*
X007374Y009475D01*
X007374Y008495D01*
X007179Y008273D01*
X006660Y008273D01*
X005856Y008273D01*
X005227Y008273D01*
X005137Y008183D01*
X005001Y008240D01*
X005155Y008304D01*
X005297Y008446D01*
X005374Y008632D01*
X005374Y008833D01*
X005297Y009018D01*
X005262Y009053D01*
X005262Y009059D01*
X005267Y009184D01*
X005582Y009184D01*
X005827Y009184D01*
X005828Y008979D01*
X005778Y008928D01*
X005722Y008793D01*
X005722Y008647D01*
X005778Y008512D01*
X005881Y008409D01*
X006016Y008353D01*
X006162Y008353D01*
X006297Y008409D01*
X006401Y008512D01*
X006457Y008647D01*
X006457Y008793D01*
X006401Y008928D01*
X006348Y008981D01*
X006347Y009244D01*
X006347Y009253D01*
X006347Y009254D01*
X006346Y009355D01*
X006341Y009360D01*
X006334Y009495D01*
X006334Y009596D01*
X006328Y009601D01*
X006182Y009748D01*
X006179Y009748D01*
X006149Y009776D01*
X006075Y009850D01*
X006071Y009850D01*
X006020Y009850D01*
X006020Y009874D01*
X005897Y009997D01*
X005726Y009997D01*
X005803Y010074D01*
X005803Y010114D01*
X005838Y010114D01*
X005873Y010114D01*
X005980Y010114D01*
X005981Y010114D01*
X006087Y010115D01*
X006214Y009968D01*
X006214Y009868D01*
X006270Y009733D01*
X006373Y009629D01*
X006508Y009573D01*
X006654Y009573D01*
X006789Y009629D01*
X006893Y009733D01*
X006949Y009868D01*
X006949Y010014D01*
X006893Y010149D01*
X006789Y010252D01*
X006654Y010308D01*
X006607Y010308D01*
X006465Y010472D01*
X006465Y010483D01*
X006396Y010553D01*
X006373Y010576D01*
X006313Y010636D01*
X006205Y010636D01*
X006205Y010636D01*
X006098Y010636D01*
X006097Y010635D01*
X005873Y010634D01*
X005803Y010634D01*
X005803Y010642D01*
X005680Y010765D01*
X005365Y010765D01*
X004876Y010765D01*
X004561Y010765D01*
X004438Y010642D01*
X004438Y010303D01*
X003885Y009569D01*
X003821Y009505D01*
X003821Y009171D01*
X003795Y009160D01*
X003653Y009018D01*
X003576Y008833D01*
X003576Y008632D01*
X003653Y008446D01*
X003795Y008304D01*
X003981Y008227D01*
X004182Y008227D01*
X004367Y008304D01*
X004475Y008411D01*
X004582Y008304D01*
X004736Y008240D01*
X004582Y008176D01*
X004440Y008034D01*
X004419Y007982D01*
X004310Y008091D01*
X004162Y008152D01*
X004130Y008152D01*
X004130Y007797D01*
X004033Y007797D01*
X004033Y008152D01*
X004001Y008152D01*
X003852Y008091D01*
X003738Y007977D01*
X003677Y007828D01*
X003677Y007796D01*
X004033Y007796D01*
X004033Y007699D01*
X004130Y007699D01*
X004130Y007344D01*
X004162Y007344D01*
X004310Y007405D01*
X004419Y007514D01*
X004440Y007462D01*
X004582Y007320D01*
X004768Y007243D01*
X004969Y007243D01*
X005137Y007312D01*
X005227Y007223D01*
X005856Y007223D01*
X006601Y007223D01*
X006601Y007195D01*
X006205Y006911D01*
X006205Y006981D01*
X006082Y007104D01*
X005452Y007104D01*
X004648Y007104D01*
X004547Y007003D01*
X004470Y007003D01*
X004470Y006629D01*
X004370Y006629D01*
X004370Y007003D01*
X004060Y007003D01*
X003996Y006939D01*
X003996Y006628D01*
X004370Y006628D01*
X004370Y006529D01*
X003996Y006529D01*
X003996Y006218D01*
X004060Y006155D01*
X004370Y006155D01*
X004370Y006528D01*
X004470Y006528D01*
X004470Y006155D01*
X004547Y006155D01*
X004648Y006054D01*
X004942Y006054D01*
X004795Y005907D01*
X004795Y005597D01*
X004718Y005520D01*
X004718Y004952D01*
X004718Y005045D02*
X003277Y005045D01*
X003508Y005143D02*
X004718Y005143D01*
X004718Y005242D02*
X003606Y005242D01*
X003705Y005340D02*
X004718Y005340D01*
X004718Y005439D02*
X003770Y005439D01*
X003810Y005537D02*
X004735Y005537D01*
X004795Y005636D02*
X003851Y005636D01*
X003877Y005735D02*
X004795Y005735D01*
X004795Y005833D02*
X003877Y005833D01*
X003877Y005932D02*
X004820Y005932D01*
X004918Y006030D02*
X003877Y006030D01*
X003841Y006129D02*
X004573Y006129D01*
X004470Y006227D02*
X004370Y006227D01*
X004370Y006326D02*
X004470Y006326D01*
X004470Y006424D02*
X004370Y006424D01*
X004370Y006523D02*
X004470Y006523D01*
X004370Y006621D02*
X003454Y006621D01*
X003581Y006523D02*
X003996Y006523D01*
X003996Y006424D02*
X003680Y006424D01*
X003759Y006326D02*
X003996Y006326D01*
X003996Y006227D02*
X003800Y006227D01*
X003996Y006720D02*
X003216Y006720D01*
X002812Y006720D02*
X002281Y006720D01*
X002281Y006819D02*
X003996Y006819D01*
X003996Y006917D02*
X002281Y006917D01*
X002281Y007016D02*
X004560Y007016D01*
X004470Y006917D02*
X004370Y006917D01*
X004370Y006819D02*
X004470Y006819D01*
X004470Y006720D02*
X004370Y006720D01*
X004602Y007311D02*
X002281Y007311D01*
X002281Y007213D02*
X006601Y007213D01*
X006488Y007114D02*
X002281Y007114D01*
X002281Y007410D02*
X003847Y007410D01*
X003852Y007405D02*
X004001Y007344D01*
X004033Y007344D01*
X004033Y007699D01*
X003677Y007699D01*
X003677Y007667D01*
X003738Y007519D01*
X003852Y007405D01*
X003749Y007508D02*
X002281Y007508D01*
X002281Y007607D02*
X003702Y007607D01*
X003677Y007804D02*
X002281Y007804D01*
X002281Y007903D02*
X003708Y007903D01*
X003763Y008001D02*
X002281Y008001D01*
X002281Y008100D02*
X003874Y008100D01*
X004033Y008100D02*
X004130Y008100D01*
X004130Y008001D02*
X004033Y008001D01*
X004033Y007903D02*
X004130Y007903D01*
X004130Y007804D02*
X004033Y007804D01*
X004033Y007705D02*
X002281Y007705D01*
X002281Y008198D02*
X004636Y008198D01*
X004600Y008297D02*
X004350Y008297D01*
X004459Y008395D02*
X004491Y008395D01*
X004506Y008100D02*
X004289Y008100D01*
X004400Y008001D02*
X004427Y008001D01*
X004130Y007607D02*
X004033Y007607D01*
X004033Y007508D02*
X004130Y007508D01*
X004130Y007410D02*
X004033Y007410D01*
X004315Y007410D02*
X004492Y007410D01*
X004421Y007508D02*
X004414Y007508D01*
X005135Y007311D02*
X005138Y007311D01*
X005102Y008198D02*
X005152Y008198D01*
X005138Y008297D02*
X007200Y008297D01*
X007286Y008395D02*
X006265Y008395D01*
X006382Y008494D02*
X007373Y008494D01*
X007374Y008592D02*
X006434Y008592D01*
X006457Y008691D02*
X007374Y008691D01*
X007374Y008789D02*
X006457Y008789D01*
X006417Y008888D02*
X007374Y008888D01*
X007374Y008986D02*
X006348Y008986D01*
X006348Y009085D02*
X007374Y009085D01*
X007374Y009184D02*
X006347Y009184D01*
X006347Y009282D02*
X007374Y009282D01*
X007374Y009381D02*
X006340Y009381D01*
X006335Y009479D02*
X007370Y009479D01*
X007319Y009578D02*
X006665Y009578D01*
X006497Y009578D02*
X006334Y009578D01*
X006326Y009676D02*
X006253Y009676D01*
X006252Y009775D02*
X006150Y009775D01*
X006214Y009873D02*
X006020Y009873D01*
X005922Y009972D02*
X006211Y009972D01*
X006126Y010070D02*
X005799Y010070D01*
X005786Y010374D02*
X005436Y010358D01*
X005786Y010374D02*
X005873Y010374D01*
X006205Y010376D01*
X006581Y009941D01*
X006836Y009676D02*
X007296Y009676D01*
X007296Y009775D02*
X006910Y009775D01*
X006949Y009873D02*
X007336Y009873D01*
X007412Y009972D02*
X006949Y009972D01*
X006925Y010070D02*
X007587Y010070D01*
X007741Y010070D02*
X009549Y010070D01*
X009647Y010169D02*
X006873Y010169D01*
X006753Y010268D02*
X009746Y010268D01*
X009845Y010366D02*
X006557Y010366D01*
X006472Y010465D02*
X009943Y010465D01*
X010042Y010563D02*
X006386Y010563D01*
X005783Y010662D02*
X010140Y010662D01*
X010239Y010760D02*
X005685Y010760D01*
X005721Y011030D02*
X005867Y011030D01*
X006002Y011086D01*
X006105Y011189D01*
X006161Y011324D01*
X006161Y011396D01*
X006219Y011351D01*
X006270Y011229D01*
X006373Y011125D01*
X006508Y011069D01*
X006654Y011069D01*
X006789Y011125D01*
X006893Y011229D01*
X006949Y011364D01*
X006949Y011447D01*
X007045Y011372D01*
X007096Y011248D01*
X007200Y011145D01*
X007335Y011089D01*
X007481Y011089D01*
X007616Y011145D01*
X007720Y011248D01*
X007775Y011383D01*
X007775Y011530D01*
X007720Y011665D01*
X007616Y011768D01*
X007481Y011824D01*
X007409Y011824D01*
X006971Y012166D01*
X006898Y012239D01*
X007004Y012140D02*
X007801Y012140D01*
X007842Y012041D02*
X007130Y012041D01*
X007257Y011943D02*
X007937Y011943D01*
X007639Y011746D02*
X010937Y011746D01*
X010937Y011844D02*
X007383Y011844D01*
X007727Y011647D02*
X010937Y011647D01*
X010917Y011549D02*
X007768Y011549D01*
X007775Y011450D02*
X010875Y011450D01*
X010830Y011352D02*
X007762Y011352D01*
X007721Y011253D02*
X010731Y011253D01*
X010633Y011154D02*
X007626Y011154D01*
X007190Y011154D02*
X006819Y011154D01*
X006903Y011253D02*
X007095Y011253D01*
X007054Y011352D02*
X006944Y011352D01*
X006344Y011154D02*
X006071Y011154D01*
X006132Y011253D02*
X006260Y011253D01*
X006219Y011352D02*
X006161Y011352D01*
X005929Y011056D02*
X010534Y011056D01*
X010436Y010957D02*
X003804Y010957D01*
X003845Y010859D02*
X010337Y010859D01*
X010763Y010465D02*
X014440Y010465D01*
X014442Y010463D02*
X014540Y010422D01*
X014593Y010422D01*
X014593Y010688D01*
X014593Y010688D01*
X014593Y010422D01*
X014646Y010422D01*
X014744Y010463D01*
X014819Y010538D01*
X014860Y010636D01*
X014860Y010689D01*
X014860Y010742D01*
X014819Y010840D01*
X014744Y010915D01*
X014646Y010955D01*
X014593Y010955D01*
X014540Y010955D01*
X014442Y010915D01*
X014367Y010840D01*
X014327Y010742D01*
X014327Y010689D01*
X014593Y010689D01*
X014593Y010955D01*
X014593Y010689D01*
X014593Y010689D01*
X014593Y010689D01*
X014860Y010689D01*
X014593Y010689D01*
X014593Y010689D01*
X014327Y010689D01*
X014327Y010636D01*
X014367Y010538D01*
X014442Y010463D01*
X014357Y010563D02*
X010862Y010563D01*
X010960Y010662D02*
X014327Y010662D01*
X014334Y010760D02*
X011059Y010760D01*
X011157Y010859D02*
X014386Y010859D01*
X014593Y010859D02*
X014593Y010859D01*
X014593Y010760D02*
X014593Y010760D01*
X014593Y010662D02*
X014593Y010662D01*
X014593Y010563D02*
X014593Y010563D01*
X014593Y010465D02*
X014593Y010465D01*
X014746Y010465D02*
X017378Y010465D01*
X017378Y010563D02*
X014829Y010563D01*
X014860Y010662D02*
X017378Y010662D01*
X017378Y010760D02*
X014852Y010760D01*
X014800Y010859D02*
X017378Y010859D01*
X017378Y010957D02*
X011256Y010957D01*
X011464Y011056D02*
X017378Y011056D01*
X017378Y011154D02*
X011548Y011154D01*
X011589Y011253D02*
X017378Y011253D01*
X017378Y011352D02*
X011594Y011352D01*
X011578Y011450D02*
X017378Y011450D01*
X017378Y011549D02*
X011536Y011549D01*
X011517Y011647D02*
X017378Y011647D01*
X017378Y011746D02*
X011517Y011746D01*
X011517Y011844D02*
X017378Y011844D01*
X017378Y011943D02*
X011517Y011943D01*
X011517Y012041D02*
X017378Y012041D01*
X017378Y012140D02*
X011517Y012140D01*
X011517Y012238D02*
X017378Y012238D01*
X017378Y012337D02*
X011505Y012337D01*
X011406Y012436D02*
X017378Y012436D01*
X017378Y012534D02*
X011241Y012534D01*
X011091Y012633D02*
X017378Y012633D01*
X017378Y014308D02*
X017272Y014308D01*
X017378Y010366D02*
X010665Y010366D01*
X010566Y010268D02*
X017378Y010268D01*
X017378Y010169D02*
X010468Y010169D01*
X010369Y010070D02*
X017378Y010070D01*
X017378Y009972D02*
X010271Y009972D01*
X010172Y009873D02*
X017378Y009873D01*
X017378Y009775D02*
X010073Y009775D01*
X009975Y009676D02*
X017378Y009676D01*
X017378Y009578D02*
X009876Y009578D01*
X009778Y009479D02*
X017378Y009479D01*
X017378Y009381D02*
X007954Y009381D01*
X007954Y009282D02*
X017378Y009282D01*
X017378Y009184D02*
X011889Y009184D01*
X011870Y009202D02*
X011772Y009243D01*
X011719Y009243D01*
X011666Y009243D01*
X011568Y009202D01*
X011493Y009127D01*
X011453Y009029D01*
X011453Y008976D01*
X011453Y008923D01*
X011493Y008825D01*
X011568Y008750D01*
X011666Y008710D01*
X011719Y008710D01*
X011772Y008710D01*
X011870Y008750D01*
X011945Y008825D01*
X011986Y008923D01*
X011986Y008976D01*
X011719Y008976D01*
X011719Y008710D01*
X011719Y008976D01*
X011719Y008976D01*
X011453Y008976D01*
X011719Y008976D01*
X011719Y008976D01*
X011719Y008976D01*
X011986Y008976D01*
X011986Y009029D01*
X011945Y009127D01*
X011870Y009202D01*
X011962Y009085D02*
X017378Y009085D01*
X017378Y008986D02*
X011986Y008986D01*
X011971Y008888D02*
X017378Y008888D01*
X017378Y008789D02*
X011909Y008789D01*
X011719Y008789D02*
X011719Y008789D01*
X011719Y008888D02*
X011719Y008888D01*
X011719Y008977D02*
X011719Y009243D01*
X011719Y008977D01*
X011719Y008977D01*
X011719Y008986D02*
X011719Y008986D01*
X011719Y009085D02*
X011719Y009085D01*
X011719Y009184D02*
X011719Y009184D01*
X011550Y009184D02*
X007954Y009184D01*
X007954Y009085D02*
X011476Y009085D01*
X011453Y008986D02*
X007954Y008986D01*
X007954Y008888D02*
X010464Y008888D01*
X010486Y008911D02*
X010363Y008788D01*
X010363Y008646D01*
X010148Y008646D01*
X010096Y008697D01*
X009961Y008753D01*
X009815Y008753D01*
X009680Y008697D01*
X009577Y008594D01*
X009521Y008459D01*
X009521Y008313D01*
X009577Y008177D01*
X009680Y008074D01*
X009815Y008018D01*
X009961Y008018D01*
X010096Y008074D01*
X010148Y008126D01*
X010363Y008126D01*
X010363Y007354D01*
X010464Y007253D01*
X010464Y007176D01*
X010838Y007176D01*
X010838Y007076D01*
X010464Y007076D01*
X010464Y006766D01*
X010528Y006702D01*
X010838Y006702D01*
X010838Y007076D01*
X010938Y007076D01*
X010938Y006702D01*
X011248Y006702D01*
X011312Y006766D01*
X011312Y007076D01*
X010938Y007076D01*
X010938Y007176D01*
X011312Y007176D01*
X011312Y007253D01*
X011413Y007354D01*
X011413Y008158D01*
X011413Y008788D01*
X011290Y008911D01*
X010486Y008911D01*
X010365Y008789D02*
X007954Y008789D01*
X007954Y008691D02*
X009674Y008691D01*
X009576Y008592D02*
X007954Y008592D01*
X007954Y008494D02*
X009535Y008494D01*
X009521Y008395D02*
X007954Y008395D01*
X007954Y008297D02*
X009527Y008297D01*
X009568Y008198D02*
X007886Y008198D01*
X007799Y008100D02*
X009655Y008100D01*
X009888Y008386D02*
X010888Y008386D01*
X011010Y008390D01*
X011413Y008395D02*
X017378Y008395D01*
X017378Y008297D02*
X011413Y008297D01*
X011413Y008198D02*
X017378Y008198D01*
X017378Y008100D02*
X011413Y008100D01*
X011413Y008001D02*
X017378Y008001D01*
X017378Y007903D02*
X011413Y007903D01*
X011413Y007804D02*
X017378Y007804D01*
X017378Y007705D02*
X011413Y007705D01*
X011413Y007607D02*
X017378Y007607D01*
X017378Y007508D02*
X011413Y007508D01*
X011413Y007410D02*
X013693Y007410D01*
X013714Y007430D02*
X013639Y007356D01*
X013598Y007258D01*
X013598Y007205D01*
X013864Y007205D01*
X013864Y007204D01*
X013598Y007204D01*
X013598Y007152D01*
X013639Y007054D01*
X013714Y006979D01*
X013812Y006938D01*
X013864Y006938D01*
X013864Y007204D01*
X013865Y007204D01*
X013865Y006938D01*
X013918Y006938D01*
X014016Y006979D01*
X014091Y007054D01*
X014131Y007152D01*
X014131Y007204D01*
X013865Y007204D01*
X013865Y007205D01*
X013864Y007205D01*
X013864Y007471D01*
X013812Y007471D01*
X013714Y007430D01*
X013620Y007311D02*
X011371Y007311D01*
X011312Y007213D02*
X013598Y007213D01*
X013614Y007114D02*
X010938Y007114D01*
X010938Y007016D02*
X010838Y007016D01*
X010838Y007114D02*
X010272Y007114D01*
X010295Y007213D02*
X010464Y007213D01*
X010406Y007311D02*
X010295Y007311D01*
X010257Y007410D02*
X010363Y007410D01*
X010363Y007508D02*
X010183Y007508D01*
X010012Y007607D02*
X010363Y007607D01*
X010363Y007705D02*
X007453Y007705D01*
X007413Y007607D02*
X009844Y007607D01*
X009672Y007508D02*
X007413Y007508D01*
X007413Y007410D02*
X009599Y007410D01*
X009560Y007311D02*
X007379Y007311D01*
X007181Y007213D02*
X009560Y007213D01*
X009584Y007114D02*
X007182Y007114D01*
X007182Y007016D02*
X009636Y007016D01*
X009638Y006917D02*
X007172Y006917D01*
X007074Y006819D02*
X009638Y006819D01*
X009638Y006720D02*
X006934Y006720D01*
X006796Y006621D02*
X009638Y006621D01*
X009638Y006523D02*
X006659Y006523D01*
X006521Y006424D02*
X009638Y006424D01*
X009638Y006326D02*
X006404Y006326D01*
X006205Y006227D02*
X009637Y006227D01*
X009532Y006129D02*
X006157Y006129D01*
X005848Y006030D02*
X009427Y006030D01*
X009321Y005932D02*
X005758Y005932D01*
X005630Y005833D02*
X009216Y005833D01*
X009111Y005735D02*
X005498Y005735D01*
X005651Y005636D02*
X006448Y005636D01*
X006177Y005537D02*
X005922Y005537D01*
X005982Y005439D02*
X006118Y005439D01*
X006118Y005340D02*
X005982Y005340D01*
X005982Y005143D02*
X006118Y005143D01*
X006118Y005045D02*
X005982Y005045D01*
X005934Y004946D02*
X006166Y004946D01*
X006245Y004680D02*
X006051Y004680D01*
X006051Y004324D01*
X006308Y004324D01*
X006308Y004616D01*
X006245Y004680D01*
X006274Y004651D02*
X006501Y004651D01*
X006501Y004552D02*
X006308Y004552D01*
X006308Y004454D02*
X006501Y004454D01*
X006501Y004355D02*
X006308Y004355D01*
X006501Y004256D02*
X006051Y004256D01*
X005954Y004256D02*
X005504Y004256D01*
X005504Y004355D02*
X005697Y004355D01*
X005697Y004454D02*
X005504Y004454D01*
X005504Y004552D02*
X005697Y004552D01*
X005731Y004651D02*
X005504Y004651D01*
X005412Y004749D02*
X006593Y004749D01*
X006436Y004848D02*
X005663Y004848D01*
X005954Y004651D02*
X006051Y004651D01*
X006051Y004552D02*
X005954Y004552D01*
X005954Y004454D02*
X006051Y004454D01*
X006051Y004355D02*
X005954Y004355D01*
X005768Y005242D02*
X006332Y005242D01*
X007266Y005636D02*
X009006Y005636D01*
X008900Y005537D02*
X007364Y005537D01*
X006351Y007016D02*
X006169Y007016D01*
X006205Y006917D02*
X006213Y006917D01*
X007539Y007804D02*
X010363Y007804D01*
X010363Y007903D02*
X007626Y007903D01*
X007712Y008001D02*
X010363Y008001D01*
X010363Y008100D02*
X010122Y008100D01*
X010103Y008691D02*
X010363Y008691D01*
X011313Y008888D02*
X011467Y008888D01*
X011411Y008789D02*
X011529Y008789D01*
X011413Y008691D02*
X017378Y008691D01*
X017378Y008592D02*
X011413Y008592D01*
X011413Y008494D02*
X017378Y008494D01*
X017378Y007410D02*
X014036Y007410D01*
X014016Y007430D02*
X013918Y007471D01*
X013865Y007471D01*
X013865Y007205D01*
X014131Y007205D01*
X014131Y007258D01*
X014091Y007356D01*
X014016Y007430D01*
X014109Y007311D02*
X017378Y007311D01*
X017378Y007213D02*
X014131Y007213D01*
X014116Y007114D02*
X017378Y007114D01*
X017378Y007016D02*
X014053Y007016D01*
X013865Y007016D02*
X013864Y007016D01*
X013864Y007114D02*
X013865Y007114D01*
X013864Y007213D02*
X013865Y007213D01*
X013864Y007311D02*
X013865Y007311D01*
X013864Y007410D02*
X013865Y007410D01*
X013677Y007016D02*
X011312Y007016D01*
X011312Y006917D02*
X017378Y006917D01*
X017378Y006819D02*
X011312Y006819D01*
X011267Y006720D02*
X017378Y006720D01*
X017378Y006621D02*
X010218Y006621D01*
X010218Y006523D02*
X017378Y006523D01*
X017378Y006424D02*
X010218Y006424D01*
X010218Y006326D02*
X017378Y006326D01*
X017378Y006227D02*
X010218Y006227D01*
X010218Y006129D02*
X017378Y006129D01*
X017378Y006030D02*
X010218Y006030D01*
X010167Y005932D02*
X017378Y005932D01*
X017378Y005833D02*
X010069Y005833D01*
X010129Y005894D02*
X010129Y005894D01*
X009959Y005735D02*
X017378Y005735D01*
X017378Y005636D02*
X009854Y005636D01*
X009749Y005537D02*
X017378Y005537D01*
X017378Y005439D02*
X009644Y005439D01*
X009538Y005340D02*
X017378Y005340D01*
X017378Y005242D02*
X009433Y005242D01*
X009328Y005143D02*
X017378Y005143D01*
X010938Y006720D02*
X010838Y006720D01*
X010838Y006819D02*
X010938Y006819D01*
X010938Y006917D02*
X010838Y006917D01*
X010464Y006917D02*
X010218Y006917D01*
X010218Y006819D02*
X010464Y006819D01*
X010510Y006720D02*
X010218Y006720D01*
X010219Y007016D02*
X010464Y007016D01*
X009204Y005027D02*
X009123Y004946D01*
X005914Y008395D02*
X005246Y008395D01*
X005317Y008494D02*
X005796Y008494D01*
X005744Y008592D02*
X005358Y008592D01*
X005374Y008691D02*
X005722Y008691D01*
X005722Y008789D02*
X005374Y008789D01*
X005351Y008888D02*
X005761Y008888D01*
X005828Y008986D02*
X005310Y008986D01*
X005263Y009085D02*
X005828Y009085D01*
X006087Y009246D02*
X006089Y008720D01*
X006087Y009246D02*
X006074Y009488D01*
X005967Y009590D01*
X005652Y009590D01*
X005022Y009590D02*
X005003Y009063D01*
X004869Y008732D01*
X004081Y008732D02*
X004081Y009397D01*
X004806Y010358D01*
X004438Y010366D02*
X003847Y010366D01*
X003877Y010465D02*
X004438Y010465D01*
X004438Y010563D02*
X003877Y010563D01*
X003877Y010662D02*
X004458Y010662D01*
X004557Y010760D02*
X003877Y010760D01*
X003764Y011056D02*
X005658Y011056D01*
X005721Y011030D02*
X005586Y011086D01*
X005564Y011107D01*
X005225Y011107D01*
X004985Y011107D01*
X004788Y011304D01*
X004618Y011474D01*
X004618Y011485D01*
X004501Y011602D01*
X004501Y011917D01*
X004501Y012406D01*
X004501Y012721D01*
X004624Y012844D01*
X004630Y012844D01*
X004630Y012963D01*
X004624Y012963D01*
X004501Y013086D01*
X004501Y013401D01*
X004501Y013890D01*
X004501Y014205D01*
X004624Y014328D01*
X005192Y014328D01*
X005269Y014250D01*
X006150Y014250D01*
X006193Y014293D01*
X006193Y014404D01*
X006091Y014404D01*
X005835Y014404D01*
X005734Y014505D01*
X005832Y014406D02*
X003604Y014406D01*
X003492Y014308D02*
X004604Y014308D01*
X004506Y014209D02*
X003254Y014209D01*
X002625Y014209D02*
X002281Y014209D01*
X002281Y014111D02*
X004501Y014111D01*
X004501Y014012D02*
X002281Y014012D01*
X002281Y013914D02*
X004501Y013914D01*
X004501Y013815D02*
X002281Y013815D01*
X002281Y013717D02*
X004501Y013717D01*
X004501Y013618D02*
X002281Y013618D01*
X002281Y013519D02*
X004501Y013519D01*
X004501Y013421D02*
X003261Y013421D01*
X003248Y013434D02*
X003150Y013475D01*
X003097Y013475D01*
X003097Y013209D01*
X003097Y013209D01*
X003097Y013475D01*
X003044Y013475D01*
X002946Y013434D01*
X002871Y013359D01*
X002830Y013261D01*
X002830Y013209D01*
X003097Y013209D01*
X003364Y013209D01*
X003364Y013261D01*
X003323Y013359D01*
X003248Y013434D01*
X003338Y013322D02*
X004501Y013322D01*
X004501Y013224D02*
X003364Y013224D01*
X003364Y013208D02*
X003097Y013208D01*
X003097Y012942D01*
X003150Y012942D01*
X003248Y012983D01*
X003323Y013058D01*
X003364Y013155D01*
X003364Y013208D01*
X003351Y013125D02*
X004501Y013125D01*
X004560Y013027D02*
X003292Y013027D01*
X003097Y013027D02*
X003097Y013027D01*
X003097Y012942D02*
X003044Y012942D01*
X002946Y012983D01*
X002871Y013058D01*
X002830Y013155D01*
X002830Y013208D01*
X003097Y013208D01*
X003097Y013208D01*
X003097Y012942D01*
X003097Y013125D02*
X003097Y013125D01*
X003097Y013208D02*
X003097Y013209D01*
X003097Y013208D01*
X003097Y013224D02*
X003097Y013224D01*
X003097Y013322D02*
X003097Y013322D01*
X003097Y013421D02*
X003097Y013421D01*
X002933Y013421D02*
X002281Y013421D01*
X002281Y013322D02*
X002856Y013322D01*
X002830Y013224D02*
X002281Y013224D01*
X002281Y013125D02*
X002843Y013125D01*
X002902Y013027D02*
X002281Y013027D01*
X002281Y012928D02*
X004630Y012928D01*
X004610Y012830D02*
X002281Y012830D01*
X002281Y012731D02*
X004512Y012731D01*
X004501Y012633D02*
X002281Y012633D01*
X002281Y012534D02*
X004501Y012534D01*
X004501Y012436D02*
X003282Y012436D01*
X003248Y012470D02*
X003150Y012510D01*
X003097Y012510D01*
X003097Y012244D01*
X003097Y012244D01*
X003097Y012510D01*
X003044Y012510D01*
X002946Y012470D01*
X002871Y012395D01*
X002830Y012297D01*
X002830Y012244D01*
X003097Y012244D01*
X003364Y012244D01*
X003364Y012297D01*
X003323Y012395D01*
X003248Y012470D01*
X003097Y012436D02*
X003097Y012436D01*
X003097Y012337D02*
X003097Y012337D01*
X003097Y012244D02*
X003097Y012244D01*
X003097Y012244D01*
X003364Y012244D01*
X003364Y012191D01*
X003323Y012093D01*
X003248Y012018D01*
X003150Y011977D01*
X003097Y011977D01*
X003097Y012244D01*
X002830Y012244D01*
X002830Y012191D01*
X002871Y012093D01*
X002946Y012018D01*
X003044Y011977D01*
X003097Y011977D01*
X003097Y012244D01*
X003097Y012244D01*
X003097Y012238D02*
X003097Y012238D01*
X003097Y012140D02*
X003097Y012140D01*
X003097Y012041D02*
X003097Y012041D01*
X003271Y012041D02*
X004501Y012041D01*
X004501Y011943D02*
X002281Y011943D01*
X002281Y012041D02*
X002923Y012041D01*
X002852Y012140D02*
X002281Y012140D01*
X002281Y012238D02*
X002830Y012238D01*
X002847Y012337D02*
X002281Y012337D01*
X002281Y012436D02*
X002912Y012436D01*
X003347Y012337D02*
X004501Y012337D01*
X004501Y012238D02*
X003364Y012238D01*
X003342Y012140D02*
X004501Y012140D01*
X004501Y011844D02*
X002281Y011844D01*
X002281Y011746D02*
X004501Y011746D01*
X004501Y011647D02*
X002281Y011647D01*
X002281Y011549D02*
X004554Y011549D01*
X004642Y011450D02*
X003241Y011450D01*
X003479Y011352D02*
X004741Y011352D01*
X004839Y011253D02*
X003591Y011253D01*
X003690Y011154D02*
X004938Y011154D01*
X004412Y010268D02*
X003806Y010268D01*
X003765Y010169D02*
X004337Y010169D01*
X004263Y010070D02*
X003695Y010070D01*
X003596Y009972D02*
X004189Y009972D01*
X004115Y009873D02*
X003490Y009873D01*
X003252Y009775D02*
X004040Y009775D01*
X003966Y009676D02*
X002281Y009676D01*
X002281Y009578D02*
X003892Y009578D01*
X003821Y009479D02*
X002281Y009479D01*
X002281Y009381D02*
X003821Y009381D01*
X003821Y009282D02*
X002281Y009282D01*
X002281Y009184D02*
X003821Y009184D01*
X003720Y009085D02*
X002281Y009085D01*
X002281Y008986D02*
X003640Y008986D01*
X003599Y008888D02*
X002281Y008888D01*
X002281Y008789D02*
X003576Y008789D01*
X003576Y008691D02*
X002281Y008691D01*
X002281Y008592D02*
X003592Y008592D01*
X003633Y008494D02*
X002281Y008494D01*
X002281Y008395D02*
X003704Y008395D01*
X003812Y008297D02*
X002281Y008297D01*
X002281Y009775D02*
X002776Y009775D01*
X002538Y009873D02*
X002281Y009873D01*
X002281Y009972D02*
X002432Y009972D01*
X002334Y010070D02*
X002281Y010070D01*
X002281Y011154D02*
X002339Y011154D01*
X002281Y011253D02*
X002437Y011253D01*
X002550Y011352D02*
X002281Y011352D01*
X002281Y011450D02*
X002788Y011450D01*
X005210Y012830D02*
X005456Y012830D01*
X005456Y012928D02*
X005210Y012928D01*
X005256Y013027D02*
X005514Y013027D01*
X005315Y013125D02*
X007039Y013125D01*
X007039Y013027D02*
X006684Y013027D01*
X006742Y012928D02*
X007039Y012928D01*
X007039Y012830D02*
X006742Y012830D01*
X006742Y012731D02*
X007101Y012731D01*
X007200Y012633D02*
X006748Y012633D01*
X006773Y012534D02*
X007383Y012534D01*
X007536Y012436D02*
X006773Y012436D01*
X006773Y012337D02*
X007689Y012337D01*
X008375Y011943D02*
X010937Y011943D01*
X010935Y012041D02*
X008470Y012041D01*
X007039Y013224D02*
X005315Y013224D01*
X005315Y013322D02*
X007039Y013322D01*
X007039Y013421D02*
X005315Y013421D01*
X005315Y013519D02*
X007039Y013519D01*
X007039Y013618D02*
X005315Y013618D01*
X005212Y014308D02*
X006193Y014308D01*
X006773Y014308D02*
X007039Y014308D01*
X007039Y014406D02*
X006773Y014406D01*
X006773Y014505D02*
X007039Y014505D01*
X007039Y014603D02*
X006773Y014603D01*
X006773Y014209D02*
X007039Y014209D01*
X007039Y014111D02*
X006773Y014111D01*
X006732Y014012D02*
X007039Y014012D01*
X007039Y013914D02*
X006634Y013914D01*
X006535Y013815D02*
X007039Y013815D01*
X007039Y013717D02*
X006436Y013717D01*
X002387Y014308D02*
X002281Y014308D01*
X002281Y006621D02*
X002574Y006621D01*
X002447Y006523D02*
X002281Y006523D01*
X002281Y006424D02*
X002349Y006424D01*
X002281Y004848D02*
X004795Y004848D01*
X004782Y004749D02*
X002281Y004749D01*
X002281Y004651D02*
X003306Y004651D01*
X003320Y004656D02*
X003222Y004616D01*
X003147Y004541D01*
X003106Y004443D01*
X003106Y004390D01*
X003372Y004390D01*
X003372Y004389D01*
X003106Y004389D01*
X003106Y004337D01*
X003147Y004239D01*
X003222Y004164D01*
X003320Y004123D01*
X003372Y004123D01*
X003372Y004389D01*
X003373Y004389D01*
X003373Y004123D01*
X003426Y004123D01*
X003524Y004164D01*
X003599Y004239D01*
X003639Y004337D01*
X003639Y004389D01*
X003373Y004389D01*
X003373Y004390D01*
X003372Y004390D01*
X003372Y004656D01*
X003320Y004656D01*
X003372Y004651D02*
X003373Y004651D01*
X003373Y004656D02*
X003373Y004390D01*
X003639Y004390D01*
X003639Y004443D01*
X003599Y004541D01*
X003524Y004616D01*
X003426Y004656D01*
X003373Y004656D01*
X003439Y004651D02*
X004690Y004651D01*
X004690Y004552D02*
X003587Y004552D01*
X003635Y004454D02*
X004690Y004454D01*
X004690Y004355D02*
X003639Y004355D01*
X003606Y004256D02*
X004690Y004256D01*
X004525Y004158D02*
X003510Y004158D01*
X003373Y004158D02*
X003372Y004158D01*
X003372Y004256D02*
X003373Y004256D01*
X003372Y004355D02*
X003373Y004355D01*
X003372Y004454D02*
X003373Y004454D01*
X003372Y004552D02*
X003373Y004552D01*
X003158Y004552D02*
X002281Y004552D01*
X002281Y004454D02*
X003111Y004454D01*
X003106Y004355D02*
X002281Y004355D01*
X002281Y004256D02*
X003139Y004256D01*
X003236Y004158D02*
X002281Y004158D01*
X002281Y004059D02*
X004426Y004059D01*
X004415Y003961D02*
X002281Y003961D01*
X002281Y003862D02*
X004415Y003862D01*
X004415Y003764D02*
X003568Y003764D01*
X003599Y003733D02*
X003524Y003808D01*
X003426Y003849D01*
X003373Y003849D01*
X003373Y003583D01*
X003372Y003583D01*
X003372Y003582D01*
X003106Y003582D01*
X003106Y003529D01*
X003147Y003432D01*
X003222Y003357D01*
X003320Y003316D01*
X003372Y003316D01*
X003372Y003582D01*
X003373Y003582D01*
X003373Y003316D01*
X003426Y003316D01*
X003524Y003357D01*
X003599Y003432D01*
X003639Y003529D01*
X003639Y003582D01*
X003373Y003582D01*
X003373Y003583D01*
X003639Y003583D01*
X003639Y003636D01*
X003599Y003733D01*
X003627Y003665D02*
X004415Y003665D01*
X004415Y003567D02*
X003639Y003567D01*
X003614Y003468D02*
X004415Y003468D01*
X004415Y003370D02*
X003536Y003370D01*
X003373Y003370D02*
X003372Y003370D01*
X003372Y003468D02*
X003373Y003468D01*
X003372Y003567D02*
X003373Y003567D01*
X003372Y003583D02*
X003106Y003583D01*
X003106Y003636D01*
X003147Y003733D01*
X003222Y003808D01*
X003320Y003849D01*
X003372Y003849D01*
X003372Y003583D01*
X003372Y003665D02*
X003373Y003665D01*
X003372Y003764D02*
X003373Y003764D01*
X003177Y003764D02*
X002281Y003764D01*
X002281Y003665D02*
X003118Y003665D01*
X003106Y003567D02*
X002281Y003567D01*
X002281Y003468D02*
X003131Y003468D01*
X003209Y003370D02*
X002281Y003370D01*
X002281Y003271D02*
X004415Y003271D01*
X004415Y003172D02*
X002281Y003172D01*
X002281Y003074D02*
X004415Y003074D01*
X004415Y002975D02*
X002281Y002975D01*
X002281Y002877D02*
X004415Y002877D01*
X004415Y002778D02*
X002281Y002778D01*
X002281Y002680D02*
X004415Y002680D01*
X004415Y002581D02*
X002281Y002581D01*
X002281Y002483D02*
X004415Y002483D01*
X004415Y002384D02*
X003209Y002384D01*
X003447Y002286D02*
X004415Y002286D01*
X004415Y002187D02*
X003585Y002187D01*
X003683Y002088D02*
X004415Y002088D01*
X004448Y001990D02*
X003782Y001990D01*
X002670Y002384D02*
X002281Y002384D01*
X002281Y002286D02*
X002432Y002286D01*
X002294Y002187D02*
X002281Y002187D01*
M02*
