G75*
G70*
%OFA0B0*%
%FSLAX24Y24*%
%IPPOS*%
%LPD*%
%AMOC8*
5,1,8,0,0,1.08239X$1,22.5*
%
%ADD10R,0.0787X0.0098*%
%ADD11R,0.0098X0.0787*%
%ADD12R,0.2165X0.0787*%
%ADD13C,0.1306*%
%ADD14C,0.0591*%
%ADD15R,0.0315X0.0394*%
%ADD16R,0.0551X0.0118*%
%ADD17R,0.0866X0.0630*%
%ADD18C,0.0100*%
%ADD19C,0.0160*%
%ADD20C,0.0315*%
D10*
X009042Y007205D03*
X009042Y007401D03*
X009042Y007598D03*
X009042Y007795D03*
X009042Y007992D03*
X009042Y008189D03*
X009042Y008386D03*
X009042Y008583D03*
X009042Y008779D03*
X009042Y008976D03*
X009042Y009173D03*
X009042Y009370D03*
X012585Y009370D03*
X012585Y009173D03*
X012585Y008976D03*
X012585Y008779D03*
X012585Y008583D03*
X012585Y008386D03*
X012585Y008189D03*
X012585Y007992D03*
X012585Y007795D03*
X012585Y007598D03*
X012585Y007401D03*
X012585Y007205D03*
D11*
X011896Y006516D03*
X011699Y006516D03*
X011503Y006516D03*
X011306Y006516D03*
X011109Y006516D03*
X010912Y006516D03*
X010715Y006516D03*
X010518Y006516D03*
X010321Y006516D03*
X010125Y006516D03*
X009928Y006516D03*
X009731Y006516D03*
X009731Y010059D03*
X009928Y010059D03*
X010125Y010059D03*
X010321Y010059D03*
X010518Y010059D03*
X010715Y010059D03*
X010912Y010059D03*
X011109Y010059D03*
X011306Y010059D03*
X011503Y010059D03*
X011699Y010059D03*
X011896Y010059D03*
D12*
X012487Y013602D03*
X008747Y013602D03*
D13*
X003014Y010610D03*
X003014Y005870D03*
D14*
X004081Y007748D03*
X004869Y007748D03*
X004869Y008732D03*
X004081Y008732D03*
D15*
X006758Y008996D03*
X007388Y008996D03*
X009136Y011027D03*
X009766Y011027D03*
X009136Y011697D03*
X008506Y011697D03*
X008754Y015079D03*
X009384Y015079D03*
X011861Y015079D03*
X012491Y015079D03*
D16*
X015066Y010059D03*
X015066Y009862D03*
X015066Y009665D03*
X015066Y009468D03*
X015066Y009271D03*
X015066Y009075D03*
X015066Y008878D03*
X015066Y008681D03*
X015066Y008484D03*
X015066Y008287D03*
X015066Y008090D03*
X015066Y007894D03*
X015066Y007697D03*
X015066Y007500D03*
X015066Y007303D03*
X015066Y007106D03*
X015066Y006909D03*
X015066Y006712D03*
X015066Y006516D03*
X015066Y006319D03*
X015066Y006122D03*
X015066Y005925D03*
X015066Y005728D03*
X015066Y005531D03*
X015066Y005334D03*
X015066Y005138D03*
X015066Y004941D03*
X015066Y004744D03*
X015066Y004547D03*
X015066Y004350D03*
D17*
X016306Y003307D03*
X016306Y011181D03*
D18*
X002281Y005386D02*
X002281Y002174D01*
X002365Y002258D01*
X002738Y002412D01*
X003141Y002412D01*
X003514Y002258D01*
X003800Y001972D01*
X003954Y001599D01*
X003954Y001196D01*
X003800Y000823D01*
X003716Y000739D01*
X015943Y000739D01*
X015859Y000823D01*
X015704Y001196D01*
X015704Y001599D01*
X015859Y001972D01*
X016144Y002258D01*
X016517Y002412D01*
X016921Y002412D01*
X017294Y002258D01*
X017378Y002174D01*
X017378Y014401D01*
X017294Y014317D01*
X016921Y014162D01*
X016517Y014162D01*
X016144Y014317D01*
X015859Y014602D01*
X015704Y014975D01*
X015704Y015379D01*
X015859Y015752D01*
X015943Y015836D01*
X003716Y015836D01*
X003800Y015752D01*
X003954Y015379D01*
X003954Y014975D01*
X003800Y014602D01*
X003514Y014317D01*
X003141Y014162D01*
X002738Y014162D01*
X002365Y014317D01*
X002281Y014401D01*
X002281Y011094D01*
X002283Y011099D01*
X002526Y011341D01*
X002843Y011473D01*
X003186Y011473D01*
X003503Y011341D01*
X003746Y011099D01*
X003877Y010782D01*
X003877Y010438D01*
X003746Y010121D01*
X003503Y009879D01*
X003186Y009747D01*
X002843Y009747D01*
X002526Y009879D01*
X002283Y010121D01*
X002281Y010126D01*
X002281Y006354D01*
X002283Y006359D01*
X002526Y006601D01*
X002843Y006733D01*
X003186Y006733D01*
X003503Y006601D01*
X003746Y006359D01*
X003877Y006042D01*
X003877Y005698D01*
X003746Y005381D01*
X003503Y005139D01*
X003186Y005007D01*
X002843Y005007D01*
X002526Y005139D01*
X002283Y005381D01*
X002281Y005386D01*
X002281Y005340D02*
X002324Y005340D01*
X002281Y005242D02*
X002422Y005242D01*
X002521Y005143D02*
X002281Y005143D01*
X002281Y005045D02*
X002752Y005045D01*
X002281Y004946D02*
X009161Y004946D01*
X009259Y004848D02*
X002281Y004848D01*
X002281Y004749D02*
X009358Y004749D01*
X009456Y004651D02*
X003439Y004651D01*
X003426Y004656D02*
X003373Y004656D01*
X003373Y004390D01*
X003372Y004390D01*
X003372Y004389D01*
X003106Y004389D01*
X003106Y004337D01*
X003147Y004239D01*
X003222Y004164D01*
X003320Y004123D01*
X003372Y004123D01*
X003372Y004389D01*
X003373Y004389D01*
X003373Y004123D01*
X003426Y004123D01*
X003524Y004164D01*
X003599Y004239D01*
X003639Y004337D01*
X003639Y004389D01*
X003373Y004389D01*
X003373Y004390D01*
X003639Y004390D01*
X003639Y004443D01*
X003599Y004541D01*
X003524Y004616D01*
X003426Y004656D01*
X003373Y004651D02*
X003372Y004651D01*
X003372Y004656D02*
X003320Y004656D01*
X003222Y004616D01*
X003147Y004541D01*
X003106Y004443D01*
X003106Y004390D01*
X003372Y004390D01*
X003372Y004656D01*
X003306Y004651D02*
X002281Y004651D01*
X002281Y004552D02*
X003158Y004552D01*
X003111Y004454D02*
X002281Y004454D01*
X002281Y004355D02*
X003106Y004355D01*
X003139Y004256D02*
X002281Y004256D01*
X002281Y004158D02*
X003236Y004158D01*
X003372Y004158D02*
X003373Y004158D01*
X003372Y004256D02*
X003373Y004256D01*
X003372Y004355D02*
X003373Y004355D01*
X003372Y004454D02*
X003373Y004454D01*
X003372Y004552D02*
X003373Y004552D01*
X003587Y004552D02*
X009555Y004552D01*
X009654Y004454D02*
X003635Y004454D01*
X003639Y004355D02*
X009752Y004355D01*
X009851Y004256D02*
X003606Y004256D01*
X003510Y004158D02*
X009949Y004158D01*
X010048Y004059D02*
X002281Y004059D01*
X002281Y003961D02*
X010146Y003961D01*
X010245Y003862D02*
X002281Y003862D01*
X002281Y003764D02*
X003177Y003764D01*
X003147Y003733D02*
X003106Y003636D01*
X003106Y003583D01*
X003372Y003583D01*
X003372Y003582D01*
X003106Y003582D01*
X003106Y003529D01*
X003147Y003432D01*
X003222Y003357D01*
X003320Y003316D01*
X003372Y003316D01*
X003372Y003582D01*
X003373Y003582D01*
X003373Y003316D01*
X003426Y003316D01*
X003524Y003357D01*
X003599Y003432D01*
X003639Y003529D01*
X003639Y003582D01*
X003373Y003582D01*
X003373Y003583D01*
X003372Y003583D01*
X003372Y003849D01*
X003320Y003849D01*
X003222Y003808D01*
X003147Y003733D01*
X003118Y003665D02*
X002281Y003665D01*
X002281Y003567D02*
X003106Y003567D01*
X003131Y003468D02*
X002281Y003468D01*
X002281Y003370D02*
X003209Y003370D01*
X003372Y003370D02*
X003373Y003370D01*
X003372Y003468D02*
X003373Y003468D01*
X003372Y003567D02*
X003373Y003567D01*
X003373Y003583D02*
X003639Y003583D01*
X003639Y003636D01*
X003599Y003733D01*
X003524Y003808D01*
X003426Y003849D01*
X003373Y003849D01*
X003373Y003583D01*
X003372Y003665D02*
X003373Y003665D01*
X003372Y003764D02*
X003373Y003764D01*
X003568Y003764D02*
X010343Y003764D01*
X010411Y003697D02*
X010626Y003697D01*
X013283Y003697D01*
X013436Y003849D01*
X013874Y004287D01*
X014681Y004287D01*
X014681Y004246D01*
X014745Y004182D01*
X015065Y004182D01*
X015065Y004278D01*
X015066Y004278D01*
X015066Y004182D01*
X015131Y004182D01*
X015131Y003535D01*
X015254Y003412D01*
X015663Y003412D01*
X015663Y002905D01*
X015786Y002782D01*
X016826Y002782D01*
X016949Y002905D01*
X016949Y003412D01*
X017101Y003412D01*
X017224Y003535D01*
X017224Y010953D01*
X017101Y011076D01*
X016949Y011076D01*
X016949Y011583D01*
X016826Y011706D01*
X015786Y011706D01*
X015663Y011583D01*
X015663Y011076D01*
X015254Y011076D01*
X015131Y010953D01*
X015131Y010227D01*
X015066Y010227D01*
X015066Y010131D01*
X015065Y010131D01*
X015065Y010227D01*
X014745Y010227D01*
X014681Y010163D01*
X014681Y010122D01*
X014169Y010122D01*
X013140Y011151D01*
X012988Y011303D01*
X011709Y011303D01*
X011594Y011303D01*
X011594Y011411D01*
X011538Y011547D01*
X011435Y011650D01*
X011300Y011706D01*
X011154Y011706D01*
X011019Y011650D01*
X010975Y011606D01*
X010975Y012171D01*
X012526Y012653D01*
X012594Y012653D01*
X012747Y012806D01*
X012747Y012999D01*
X013656Y012999D01*
X013779Y013121D01*
X013779Y014083D01*
X013656Y014206D01*
X012747Y014206D01*
X012747Y014683D01*
X012858Y014795D01*
X012858Y015362D01*
X012735Y015485D01*
X012420Y015485D01*
X011931Y015485D01*
X011830Y015384D01*
X011658Y015384D01*
X011594Y015321D01*
X011594Y015107D01*
X011808Y015107D01*
X011808Y015050D01*
X011594Y015050D01*
X011594Y014837D01*
X011658Y014773D01*
X011830Y014773D01*
X011931Y014672D01*
X012227Y014672D01*
X012227Y014206D01*
X011614Y014206D01*
X011614Y014418D01*
X011491Y014541D01*
X009742Y014541D01*
X009619Y014418D01*
X009619Y014206D01*
X009007Y014206D01*
X009007Y014672D01*
X009314Y014672D01*
X009415Y014773D01*
X009587Y014773D01*
X009651Y014837D01*
X009651Y015050D01*
X009437Y015050D01*
X009437Y015107D01*
X009651Y015107D01*
X009651Y015321D01*
X009587Y015384D01*
X009415Y015384D01*
X009314Y015485D01*
X008825Y015485D01*
X008510Y015485D01*
X008387Y015362D01*
X008387Y014795D01*
X008487Y014695D01*
X008487Y014206D01*
X007577Y014206D01*
X007454Y014083D01*
X007454Y013121D01*
X007577Y012999D01*
X008487Y012999D01*
X008487Y012806D01*
X008639Y012653D01*
X008707Y012653D01*
X010258Y012171D01*
X010258Y011809D01*
X010247Y011820D01*
X010094Y011972D01*
X009504Y011972D01*
X009504Y011981D01*
X009381Y012104D01*
X009066Y012104D01*
X008577Y012104D01*
X008496Y012104D01*
X008524Y012171D01*
X008524Y012317D01*
X008468Y012452D01*
X008364Y012555D01*
X008229Y012611D01*
X008083Y012611D01*
X007948Y012555D01*
X007845Y012452D01*
X007789Y012317D01*
X007789Y012171D01*
X007845Y012036D01*
X007894Y011986D01*
X007893Y011805D01*
X007892Y011804D01*
X007892Y011698D01*
X007892Y011698D01*
X007892Y011589D01*
X008044Y011437D01*
X008139Y011437D01*
X008139Y011413D01*
X008262Y011290D01*
X008577Y011290D01*
X008769Y011290D01*
X008769Y010744D01*
X008778Y010735D01*
X007773Y011537D01*
X007720Y011665D01*
X007616Y011768D01*
X007481Y011824D01*
X007335Y011824D01*
X007200Y011768D01*
X007096Y011665D01*
X007041Y011530D01*
X007041Y011470D01*
X006934Y011544D01*
X006893Y011645D01*
X006789Y011748D01*
X006654Y011804D01*
X006508Y011804D01*
X006373Y011748D01*
X006270Y011645D01*
X006214Y011510D01*
X006214Y011480D01*
X006138Y011527D01*
X006105Y011606D01*
X006002Y011709D01*
X005867Y011765D01*
X005721Y011765D01*
X005586Y011709D01*
X005482Y011606D01*
X005426Y011471D01*
X005426Y011324D01*
X005482Y011189D01*
X005586Y011086D01*
X005721Y011030D01*
X005839Y011030D01*
X007479Y010026D01*
X007456Y010016D01*
X007352Y009913D01*
X007296Y009778D01*
X007296Y009631D01*
X007352Y009496D01*
X007446Y009403D01*
X007144Y009403D01*
X007003Y009403D01*
X006841Y009403D01*
X006841Y009681D01*
X006893Y009733D01*
X006949Y009868D01*
X006949Y010014D01*
X006893Y010149D01*
X006789Y010252D01*
X006654Y010308D01*
X006508Y010308D01*
X006373Y010252D01*
X006270Y010149D01*
X006214Y010014D01*
X006214Y009868D01*
X006270Y009733D01*
X006321Y009681D01*
X006321Y009104D01*
X006321Y009008D01*
X006297Y009032D01*
X006162Y009088D01*
X006016Y009088D01*
X005881Y009032D01*
X005778Y008928D01*
X005722Y008793D01*
X005722Y008647D01*
X005778Y008512D01*
X005829Y008461D01*
X005829Y008180D01*
X005981Y008027D01*
X006277Y007732D01*
X006492Y007732D01*
X008438Y007732D01*
X008438Y007657D01*
X008290Y007509D01*
X008191Y007411D01*
X008191Y007195D01*
X008191Y005916D01*
X008344Y005763D01*
X010411Y003697D01*
X010518Y003957D02*
X008451Y006023D01*
X008451Y007303D01*
X008550Y007401D01*
X009042Y007401D01*
X009042Y007598D02*
X009731Y007598D01*
X009928Y007244D01*
X010282Y007401D01*
X011798Y007401D01*
X011798Y008287D01*
X011896Y008386D01*
X012585Y008386D01*
X012585Y008583D02*
X013176Y008583D01*
X013274Y008484D01*
X015066Y008484D01*
X015066Y008287D02*
X013373Y008287D01*
X013274Y008189D01*
X012585Y008189D01*
X012585Y007992D02*
X013373Y007992D01*
X013471Y008090D01*
X015066Y008090D01*
X015066Y007894D02*
X013569Y007894D01*
X013471Y007795D01*
X012585Y007795D01*
X012585Y007598D02*
X013569Y007598D01*
X013668Y007697D01*
X015066Y007697D01*
X015066Y007500D02*
X015066Y007303D01*
X015066Y007106D01*
X015066Y006909D01*
X015066Y006712D02*
X012684Y006712D01*
X012487Y006516D01*
X011896Y006516D01*
X011699Y006516D02*
X011699Y006023D01*
X011798Y005925D01*
X012191Y005925D01*
X012782Y006516D01*
X015066Y006516D01*
X015066Y006319D02*
X012880Y006319D01*
X012290Y005728D01*
X011699Y005728D01*
X011503Y005925D01*
X011503Y006516D01*
X011306Y006516D02*
X011306Y005827D01*
X011601Y005531D01*
X012388Y005531D01*
X012979Y006122D01*
X015066Y006122D01*
X015066Y005925D02*
X013077Y005925D01*
X012487Y005334D01*
X011503Y005334D01*
X011109Y005728D01*
X011109Y006516D01*
X010912Y006516D02*
X010912Y005630D01*
X011404Y005138D01*
X012585Y005138D01*
X013176Y005728D01*
X015066Y005728D01*
X015066Y005531D02*
X013274Y005531D01*
X012684Y004941D01*
X011109Y004941D01*
X010518Y005531D01*
X010518Y006516D01*
X010321Y006516D02*
X010321Y005433D01*
X011010Y004744D01*
X012782Y004744D01*
X013373Y005334D01*
X015066Y005334D01*
X015066Y005138D02*
X013471Y005138D01*
X012880Y004547D01*
X010912Y004547D01*
X010125Y005334D01*
X010125Y006516D01*
X009928Y006516D02*
X009928Y007244D01*
X010060Y007587D02*
X010027Y007601D01*
X009991Y007666D01*
X009991Y007706D01*
X009940Y007756D01*
X009940Y007756D01*
X009839Y007858D01*
X009646Y007858D01*
X009646Y008109D01*
X009680Y008074D01*
X009815Y008018D01*
X009961Y008018D01*
X010096Y008074D01*
X010200Y008177D01*
X010256Y008313D01*
X010256Y008459D01*
X010200Y008594D01*
X010096Y008697D01*
X009961Y008753D01*
X009815Y008753D01*
X009680Y008697D01*
X009646Y008663D01*
X009646Y008719D01*
X009646Y008916D01*
X009646Y009112D01*
X009646Y009309D01*
X009646Y009455D01*
X009867Y009455D01*
X009928Y009516D01*
X009988Y009455D01*
X010261Y009455D01*
X010321Y009516D01*
X010382Y009455D01*
X010654Y009455D01*
X010851Y009455D01*
X011048Y009455D01*
X011245Y009455D01*
X011442Y009455D01*
X011639Y009455D01*
X011836Y009455D01*
X011981Y009455D01*
X011981Y009234D01*
X011981Y009039D01*
X011945Y009127D01*
X011870Y009202D01*
X011772Y009243D01*
X011719Y009243D01*
X011666Y009243D01*
X011568Y009202D01*
X011493Y009127D01*
X011453Y009029D01*
X011453Y008976D01*
X011453Y008923D01*
X011493Y008825D01*
X011568Y008750D01*
X011666Y008710D01*
X011719Y008710D01*
X011772Y008710D01*
X011870Y008750D01*
X011945Y008825D01*
X011981Y008913D01*
X011981Y008646D01*
X011789Y008646D01*
X011690Y008547D01*
X011538Y008395D01*
X011538Y007661D01*
X010311Y007661D01*
X010227Y007661D01*
X010174Y007661D01*
X010132Y007619D01*
X010060Y007587D01*
X010023Y007607D02*
X010104Y007607D01*
X009991Y007705D02*
X011538Y007705D01*
X011538Y007804D02*
X009893Y007804D01*
X009646Y007903D02*
X011538Y007903D01*
X011538Y008001D02*
X009646Y008001D01*
X009646Y008100D02*
X009655Y008100D01*
X009888Y008386D02*
X009042Y008386D01*
X009042Y008583D02*
X008058Y008583D01*
X007861Y008779D01*
X007684Y008996D01*
X007388Y008996D01*
X007370Y009479D02*
X006841Y009479D01*
X006841Y009578D02*
X007319Y009578D01*
X007296Y009676D02*
X006841Y009676D01*
X006910Y009775D02*
X007296Y009775D01*
X007336Y009873D02*
X006949Y009873D01*
X006949Y009972D02*
X007412Y009972D01*
X007405Y010070D02*
X006925Y010070D01*
X006873Y010169D02*
X007245Y010169D01*
X007084Y010268D02*
X006753Y010268D01*
X006923Y010366D02*
X003847Y010366D01*
X003877Y010465D02*
X006762Y010465D01*
X006601Y010563D02*
X003877Y010563D01*
X003877Y010662D02*
X006440Y010662D01*
X006279Y010760D02*
X003877Y010760D01*
X003845Y010859D02*
X006118Y010859D01*
X005957Y010957D02*
X003804Y010957D01*
X003764Y011056D02*
X005658Y011056D01*
X005517Y011154D02*
X003690Y011154D01*
X003591Y011253D02*
X005456Y011253D01*
X005426Y011352D02*
X003479Y011352D01*
X003241Y011450D02*
X005426Y011450D01*
X005459Y011549D02*
X002281Y011549D01*
X002281Y011647D02*
X005524Y011647D01*
X005674Y011746D02*
X002281Y011746D01*
X002281Y011844D02*
X007893Y011844D01*
X007892Y011746D02*
X007639Y011746D01*
X007727Y011647D02*
X007892Y011647D01*
X007932Y011549D02*
X007768Y011549D01*
X007881Y011450D02*
X008031Y011450D01*
X008005Y011352D02*
X008200Y011352D01*
X008128Y011253D02*
X008769Y011253D01*
X008769Y011154D02*
X008252Y011154D01*
X008375Y011056D02*
X008769Y011056D01*
X008769Y010957D02*
X008499Y010957D01*
X008622Y010859D02*
X008769Y010859D01*
X008769Y010760D02*
X008746Y010760D01*
X009140Y011023D02*
X009140Y011693D01*
X009160Y011712D01*
X009987Y011712D01*
X010125Y011575D01*
X010125Y010059D01*
X010321Y010059D02*
X010321Y008976D01*
X010125Y008976D01*
X009928Y009173D01*
X009928Y010059D01*
X009928Y010551D01*
X009770Y010709D01*
X009770Y011023D01*
X009766Y011027D01*
X010223Y011844D02*
X010258Y011844D01*
X010258Y011943D02*
X010124Y011943D01*
X010258Y012041D02*
X009443Y012041D01*
X009724Y012337D02*
X008515Y012337D01*
X008524Y012238D02*
X010040Y012238D01*
X010258Y012140D02*
X008511Y012140D01*
X008474Y012436D02*
X009407Y012436D01*
X009090Y012534D02*
X008386Y012534D01*
X008561Y012731D02*
X002281Y012731D01*
X002281Y012633D02*
X008773Y012633D01*
X008747Y012913D02*
X008747Y013602D01*
X008747Y015071D01*
X008754Y015079D01*
X008416Y015392D02*
X008057Y015392D01*
X008068Y015419D02*
X008068Y015472D01*
X007802Y015472D01*
X007802Y015472D01*
X007802Y015206D01*
X007855Y015206D01*
X007953Y015246D01*
X008028Y015321D01*
X008068Y015419D01*
X008068Y015472D02*
X008068Y015525D01*
X008028Y015623D01*
X007953Y015698D01*
X007855Y015739D01*
X007802Y015739D01*
X007802Y015473D01*
X007801Y015473D01*
X007801Y015739D01*
X007749Y015739D01*
X007651Y015698D01*
X007576Y015623D01*
X007535Y015525D01*
X007535Y015472D01*
X007535Y015419D01*
X007576Y015321D01*
X007651Y015246D01*
X007749Y015206D01*
X007801Y015206D01*
X007801Y015472D01*
X007535Y015472D01*
X007801Y015472D01*
X007801Y015472D01*
X007802Y015472D01*
X008068Y015472D01*
X008068Y015490D02*
X010449Y015490D01*
X010449Y015472D02*
X010715Y015472D01*
X010715Y015472D01*
X010715Y015206D01*
X010662Y015206D01*
X010564Y015246D01*
X010489Y015321D01*
X010449Y015419D01*
X010449Y015472D01*
X010715Y015472D01*
X010715Y015206D01*
X010768Y015206D01*
X010866Y015246D01*
X010941Y015321D01*
X010982Y015419D01*
X010982Y015472D01*
X010716Y015472D01*
X010716Y015472D01*
X010982Y015472D01*
X010982Y015525D01*
X010941Y015623D01*
X010866Y015698D01*
X010768Y015739D01*
X010715Y015739D01*
X010715Y015473D01*
X010715Y015473D01*
X010715Y015739D01*
X010662Y015739D01*
X010564Y015698D01*
X010489Y015623D01*
X010449Y015525D01*
X010449Y015472D01*
X010460Y015392D02*
X009407Y015392D01*
X009437Y015096D02*
X011808Y015096D01*
X011838Y015392D02*
X010970Y015392D01*
X010982Y015490D02*
X013605Y015490D01*
X013619Y015525D02*
X013579Y015427D01*
X013579Y015374D01*
X013845Y015374D01*
X013845Y015640D01*
X013792Y015640D01*
X013694Y015600D01*
X013619Y015525D01*
X013683Y015589D02*
X010955Y015589D01*
X010877Y015687D02*
X015832Y015687D01*
X015792Y015589D02*
X014007Y015589D01*
X013996Y015600D02*
X014071Y015525D01*
X014112Y015427D01*
X014112Y015374D01*
X013845Y015374D01*
X013845Y015374D01*
X013845Y015640D01*
X013898Y015640D01*
X013996Y015600D01*
X014085Y015490D02*
X015751Y015490D01*
X015710Y015392D02*
X014112Y015392D01*
X014112Y015374D02*
X013845Y015374D01*
X013845Y015374D01*
X013845Y015374D01*
X013579Y015374D01*
X013579Y015321D01*
X013619Y015223D01*
X013694Y015148D01*
X013792Y015107D01*
X013845Y015107D01*
X013898Y015107D01*
X013996Y015148D01*
X014071Y015223D01*
X014112Y015321D01*
X014112Y015374D01*
X014100Y015293D02*
X015704Y015293D01*
X015704Y015195D02*
X014043Y015195D01*
X013845Y015195D02*
X013845Y015195D01*
X013845Y015107D02*
X013845Y015373D01*
X013845Y015373D01*
X013845Y015107D01*
X013845Y015293D02*
X013845Y015293D01*
X013845Y015392D02*
X013845Y015392D01*
X013845Y015490D02*
X013845Y015490D01*
X013845Y015589D02*
X013845Y015589D01*
X013579Y015392D02*
X012829Y015392D01*
X012858Y015293D02*
X013590Y015293D01*
X013647Y015195D02*
X012858Y015195D01*
X012858Y015096D02*
X015704Y015096D01*
X015704Y014998D02*
X012858Y014998D01*
X012858Y014899D02*
X015736Y014899D01*
X015777Y014801D02*
X012858Y014801D01*
X012765Y014702D02*
X015818Y014702D01*
X015858Y014603D02*
X012747Y014603D01*
X012747Y014505D02*
X015956Y014505D01*
X016055Y014406D02*
X012747Y014406D01*
X012747Y014308D02*
X016166Y014308D01*
X016404Y014209D02*
X012747Y014209D01*
X012227Y014209D02*
X011614Y014209D01*
X011614Y014308D02*
X012227Y014308D01*
X012227Y014406D02*
X011614Y014406D01*
X011527Y014505D02*
X012227Y014505D01*
X012227Y014603D02*
X009007Y014603D01*
X009007Y014505D02*
X009707Y014505D01*
X009619Y014406D02*
X009007Y014406D01*
X009007Y014308D02*
X009619Y014308D01*
X009619Y014209D02*
X009007Y014209D01*
X008487Y014209D02*
X003254Y014209D01*
X003492Y014308D02*
X008487Y014308D01*
X008487Y014406D02*
X003604Y014406D01*
X003702Y014505D02*
X008487Y014505D01*
X008487Y014603D02*
X003800Y014603D01*
X003841Y014702D02*
X008480Y014702D01*
X008387Y014801D02*
X003882Y014801D01*
X003923Y014899D02*
X008387Y014899D01*
X008387Y014998D02*
X003954Y014998D01*
X003954Y015096D02*
X008387Y015096D01*
X008387Y015195D02*
X003954Y015195D01*
X003954Y015293D02*
X007604Y015293D01*
X007547Y015392D02*
X003949Y015392D01*
X003908Y015490D02*
X007535Y015490D01*
X007562Y015589D02*
X003867Y015589D01*
X003826Y015687D02*
X007640Y015687D01*
X007801Y015687D02*
X007802Y015687D01*
X007801Y015589D02*
X007802Y015589D01*
X007801Y015490D02*
X007802Y015490D01*
X007801Y015392D02*
X007802Y015392D01*
X007801Y015293D02*
X007802Y015293D01*
X008000Y015293D02*
X008387Y015293D01*
X008042Y015589D02*
X010475Y015589D01*
X010553Y015687D02*
X007963Y015687D01*
X009344Y014702D02*
X011901Y014702D01*
X011630Y014801D02*
X009615Y014801D01*
X009651Y014899D02*
X011594Y014899D01*
X011594Y014998D02*
X009651Y014998D01*
X009651Y015195D02*
X011594Y015195D01*
X011594Y015293D02*
X010913Y015293D01*
X010715Y015293D02*
X010715Y015293D01*
X010715Y015392D02*
X010715Y015392D01*
X010715Y015472D02*
X010715Y015472D01*
X010715Y015490D02*
X010715Y015490D01*
X010715Y015589D02*
X010715Y015589D01*
X010715Y015687D02*
X010715Y015687D01*
X010517Y015293D02*
X009651Y015293D01*
X007482Y014111D02*
X002281Y014111D01*
X002281Y014209D02*
X002625Y014209D01*
X002387Y014308D02*
X002281Y014308D01*
X002281Y014012D02*
X007454Y014012D01*
X007454Y013914D02*
X002281Y013914D01*
X002281Y013815D02*
X007454Y013815D01*
X007454Y013717D02*
X002281Y013717D01*
X002281Y013618D02*
X007454Y013618D01*
X007454Y013519D02*
X002281Y013519D01*
X002281Y013421D02*
X002933Y013421D01*
X002946Y013434D02*
X002871Y013359D01*
X002830Y013261D01*
X002830Y013209D01*
X003097Y013209D01*
X003097Y013209D01*
X003097Y013475D01*
X003150Y013475D01*
X003248Y013434D01*
X003323Y013359D01*
X003364Y013261D01*
X003364Y013209D01*
X003097Y013209D01*
X003097Y013475D01*
X003044Y013475D01*
X002946Y013434D01*
X002856Y013322D02*
X002281Y013322D01*
X002281Y013224D02*
X002830Y013224D01*
X002830Y013208D02*
X002830Y013155D01*
X002871Y013058D01*
X002946Y012983D01*
X003044Y012942D01*
X003097Y012942D01*
X003150Y012942D01*
X003248Y012983D01*
X003323Y013058D01*
X003364Y013155D01*
X003364Y013208D01*
X003097Y013208D01*
X003097Y012942D01*
X003097Y013208D01*
X003097Y013208D01*
X003097Y013209D01*
X003097Y013208D01*
X002830Y013208D01*
X002843Y013125D02*
X002281Y013125D01*
X002281Y013027D02*
X002902Y013027D01*
X003097Y013027D02*
X003097Y013027D01*
X003097Y013125D02*
X003097Y013125D01*
X003097Y013224D02*
X003097Y013224D01*
X003097Y013322D02*
X003097Y013322D01*
X003097Y013421D02*
X003097Y013421D01*
X003261Y013421D02*
X007454Y013421D01*
X007454Y013322D02*
X003338Y013322D01*
X003364Y013224D02*
X007454Y013224D01*
X007454Y013125D02*
X003351Y013125D01*
X003292Y013027D02*
X007549Y013027D01*
X007926Y012534D02*
X002281Y012534D01*
X002281Y012436D02*
X002912Y012436D01*
X002946Y012470D02*
X002871Y012395D01*
X002830Y012297D01*
X002830Y012244D01*
X003097Y012244D01*
X003097Y012244D01*
X003097Y012510D01*
X003150Y012510D01*
X003248Y012470D01*
X003323Y012395D01*
X003364Y012297D01*
X003364Y012244D01*
X003097Y012244D01*
X003097Y012510D01*
X003044Y012510D01*
X002946Y012470D01*
X003097Y012436D02*
X003097Y012436D01*
X003097Y012337D02*
X003097Y012337D01*
X003097Y012244D02*
X003097Y012244D01*
X003097Y012244D01*
X003364Y012244D01*
X003364Y012191D01*
X003323Y012093D01*
X003248Y012018D01*
X003150Y011977D01*
X003097Y011977D01*
X003097Y012244D01*
X002830Y012244D01*
X002830Y012191D01*
X002871Y012093D01*
X002946Y012018D01*
X003044Y011977D01*
X003097Y011977D01*
X003097Y012244D01*
X003097Y012244D01*
X003097Y012238D02*
X003097Y012238D01*
X003097Y012140D02*
X003097Y012140D01*
X003097Y012041D02*
X003097Y012041D01*
X003271Y012041D02*
X007842Y012041D01*
X007801Y012140D02*
X003342Y012140D01*
X003364Y012238D02*
X007789Y012238D01*
X007797Y012337D02*
X003347Y012337D01*
X003282Y012436D02*
X007838Y012436D01*
X008156Y012244D02*
X008152Y011697D01*
X008506Y011697D01*
X007894Y011943D02*
X002281Y011943D01*
X002281Y012041D02*
X002923Y012041D01*
X002852Y012140D02*
X002281Y012140D01*
X002281Y012238D02*
X002830Y012238D01*
X002847Y012337D02*
X002281Y012337D01*
X002281Y012830D02*
X008487Y012830D01*
X008487Y012928D02*
X002281Y012928D01*
X002281Y011450D02*
X002788Y011450D01*
X002550Y011352D02*
X002281Y011352D01*
X002281Y011253D02*
X002437Y011253D01*
X002339Y011154D02*
X002281Y011154D01*
X002281Y010070D02*
X002334Y010070D01*
X002281Y009972D02*
X002432Y009972D01*
X002538Y009873D02*
X002281Y009873D01*
X002281Y009775D02*
X002776Y009775D01*
X003252Y009775D02*
X006252Y009775D01*
X006214Y009873D02*
X003490Y009873D01*
X003596Y009972D02*
X006214Y009972D01*
X006237Y010070D02*
X003695Y010070D01*
X003765Y010169D02*
X006290Y010169D01*
X006410Y010268D02*
X003806Y010268D01*
X003981Y009237D02*
X003795Y009160D01*
X003653Y009018D01*
X003576Y008833D01*
X003576Y008632D01*
X003653Y008446D01*
X003795Y008304D01*
X003981Y008227D01*
X004182Y008227D01*
X004367Y008304D01*
X004475Y008411D01*
X004582Y008304D01*
X004736Y008240D01*
X004582Y008176D01*
X004440Y008034D01*
X004419Y007982D01*
X004310Y008091D01*
X004162Y008152D01*
X004130Y008152D01*
X004130Y007797D01*
X004033Y007797D01*
X004033Y008152D01*
X004001Y008152D01*
X003852Y008091D01*
X003738Y007977D01*
X003677Y007828D01*
X003677Y007796D01*
X004033Y007796D01*
X004033Y007699D01*
X004130Y007699D01*
X004130Y007344D01*
X004162Y007344D01*
X004310Y007405D01*
X004419Y007514D01*
X004440Y007462D01*
X004582Y007320D01*
X004768Y007243D01*
X004969Y007243D01*
X005155Y007320D01*
X005297Y007462D01*
X005374Y007647D01*
X005374Y007848D01*
X005297Y008034D01*
X005155Y008176D01*
X005001Y008240D01*
X005155Y008304D01*
X005297Y008446D01*
X005374Y008632D01*
X005374Y008833D01*
X005297Y009018D01*
X005155Y009160D01*
X004969Y009237D01*
X004768Y009237D01*
X004582Y009160D01*
X004475Y009053D01*
X004367Y009160D01*
X004182Y009237D01*
X003981Y009237D01*
X003851Y009184D02*
X002281Y009184D01*
X002281Y009282D02*
X006321Y009282D01*
X006321Y009184D02*
X005099Y009184D01*
X005230Y009085D02*
X006009Y009085D01*
X006169Y009085D02*
X006321Y009085D01*
X006581Y008996D02*
X006758Y008996D01*
X006581Y008996D02*
X006581Y009941D01*
X006321Y009676D02*
X002281Y009676D01*
X002281Y009578D02*
X006321Y009578D01*
X006321Y009479D02*
X002281Y009479D01*
X002281Y009381D02*
X006321Y009381D01*
X006581Y008996D02*
X006581Y008386D01*
X006778Y008189D01*
X009042Y008189D01*
X009042Y007992D02*
X006384Y007992D01*
X006089Y008287D01*
X006089Y008720D01*
X005744Y008592D02*
X005358Y008592D01*
X005374Y008691D02*
X005722Y008691D01*
X005722Y008789D02*
X005374Y008789D01*
X005351Y008888D02*
X005761Y008888D01*
X005836Y008986D02*
X005310Y008986D01*
X005317Y008494D02*
X005796Y008494D01*
X005829Y008395D02*
X005246Y008395D01*
X005138Y008297D02*
X005829Y008297D01*
X005829Y008198D02*
X005102Y008198D01*
X005231Y008100D02*
X005909Y008100D01*
X006008Y008001D02*
X005311Y008001D01*
X005351Y007903D02*
X006106Y007903D01*
X006205Y007804D02*
X005374Y007804D01*
X005374Y007705D02*
X008438Y007705D01*
X008388Y007607D02*
X005357Y007607D01*
X005316Y007508D02*
X008289Y007508D01*
X008191Y007410D02*
X005245Y007410D01*
X005135Y007311D02*
X008191Y007311D01*
X008191Y007213D02*
X002281Y007213D01*
X002281Y007311D02*
X004602Y007311D01*
X004492Y007410D02*
X004315Y007410D01*
X004414Y007508D02*
X004421Y007508D01*
X004130Y007508D02*
X004033Y007508D01*
X004033Y007410D02*
X004130Y007410D01*
X004033Y007344D02*
X004033Y007699D01*
X003677Y007699D01*
X003677Y007667D01*
X003738Y007519D01*
X003852Y007405D01*
X004001Y007344D01*
X004033Y007344D01*
X003847Y007410D02*
X002281Y007410D01*
X002281Y007508D02*
X003749Y007508D01*
X003702Y007607D02*
X002281Y007607D01*
X002281Y007705D02*
X004033Y007705D01*
X004033Y007607D02*
X004130Y007607D01*
X004130Y007804D02*
X004033Y007804D01*
X004033Y007903D02*
X004130Y007903D01*
X004130Y008001D02*
X004033Y008001D01*
X004033Y008100D02*
X004130Y008100D01*
X004289Y008100D02*
X004506Y008100D01*
X004427Y008001D02*
X004400Y008001D01*
X004636Y008198D02*
X002281Y008198D01*
X002281Y008100D02*
X003874Y008100D01*
X003763Y008001D02*
X002281Y008001D01*
X002281Y007903D02*
X003708Y007903D01*
X003677Y007804D02*
X002281Y007804D01*
X002281Y008297D02*
X003812Y008297D01*
X003704Y008395D02*
X002281Y008395D01*
X002281Y008494D02*
X003633Y008494D01*
X003592Y008592D02*
X002281Y008592D01*
X002281Y008691D02*
X003576Y008691D01*
X003576Y008789D02*
X002281Y008789D01*
X002281Y008888D02*
X003599Y008888D01*
X003640Y008986D02*
X002281Y008986D01*
X002281Y009085D02*
X003720Y009085D01*
X004312Y009184D02*
X004638Y009184D01*
X004507Y009085D02*
X004443Y009085D01*
X004459Y008395D02*
X004491Y008395D01*
X004600Y008297D02*
X004350Y008297D01*
X003216Y006720D02*
X008191Y006720D01*
X008191Y006819D02*
X002281Y006819D01*
X002281Y006917D02*
X008191Y006917D01*
X008191Y007016D02*
X002281Y007016D01*
X002281Y007114D02*
X008191Y007114D01*
X008191Y006621D02*
X003454Y006621D01*
X003581Y006523D02*
X008191Y006523D01*
X008191Y006424D02*
X003680Y006424D01*
X003759Y006326D02*
X008191Y006326D01*
X008191Y006227D02*
X003800Y006227D01*
X003841Y006129D02*
X008191Y006129D01*
X008191Y006030D02*
X003877Y006030D01*
X003877Y005932D02*
X008191Y005932D01*
X008274Y005833D02*
X003877Y005833D01*
X003877Y005735D02*
X008373Y005735D01*
X008471Y005636D02*
X003851Y005636D01*
X003810Y005537D02*
X008570Y005537D01*
X008668Y005439D02*
X003770Y005439D01*
X003705Y005340D02*
X008767Y005340D01*
X008865Y005242D02*
X003606Y005242D01*
X003508Y005143D02*
X008964Y005143D01*
X009062Y005045D02*
X003277Y005045D01*
X002349Y006424D02*
X002281Y006424D01*
X002281Y006523D02*
X002447Y006523D01*
X002574Y006621D02*
X002281Y006621D01*
X002281Y006720D02*
X002812Y006720D01*
X003627Y003665D02*
X014287Y003665D01*
X014287Y003661D02*
X014553Y003661D01*
X014287Y003661D01*
X014287Y003608D01*
X014328Y003510D01*
X014403Y003435D01*
X014501Y003395D01*
X014553Y003395D01*
X014553Y003661D01*
X014553Y003661D01*
X014554Y003661D01*
X014554Y003661D01*
X014820Y003661D01*
X014820Y003608D01*
X014780Y003510D01*
X014705Y003435D01*
X014607Y003395D01*
X014554Y003395D01*
X014554Y003661D01*
X014573Y003681D01*
X014573Y004252D01*
X014672Y004350D01*
X015066Y004350D01*
X015065Y004256D02*
X015066Y004256D01*
X015131Y004158D02*
X013745Y004158D01*
X013843Y004256D02*
X014681Y004256D01*
X014607Y003928D02*
X014554Y003928D01*
X014554Y003662D01*
X014553Y003662D01*
X014553Y003928D01*
X014501Y003928D01*
X014403Y003887D01*
X014328Y003812D01*
X014287Y003714D01*
X014287Y003661D01*
X014304Y003567D02*
X003639Y003567D01*
X003614Y003468D02*
X014370Y003468D01*
X014553Y003468D02*
X014554Y003468D01*
X014553Y003567D02*
X014554Y003567D01*
X014554Y003661D02*
X014820Y003661D01*
X014820Y003714D01*
X014780Y003812D01*
X014705Y003887D01*
X014607Y003928D01*
X014554Y003862D02*
X014553Y003862D01*
X014553Y003764D02*
X014554Y003764D01*
X014553Y003665D02*
X014554Y003665D01*
X014800Y003764D02*
X015131Y003764D01*
X015131Y003862D02*
X014730Y003862D01*
X014820Y003665D02*
X015131Y003665D01*
X015131Y003567D02*
X014803Y003567D01*
X014737Y003468D02*
X015198Y003468D01*
X015663Y003370D02*
X003536Y003370D01*
X003209Y002384D02*
X016450Y002384D01*
X016212Y002286D02*
X003447Y002286D01*
X003585Y002187D02*
X010268Y002187D01*
X010288Y002195D02*
X010190Y002155D01*
X010115Y002080D01*
X010075Y001982D01*
X010075Y001929D01*
X010341Y001929D01*
X010341Y001929D01*
X010341Y002195D01*
X010288Y002195D01*
X010341Y002195D02*
X010341Y001929D01*
X010341Y001929D01*
X010075Y001929D01*
X010075Y001876D01*
X010115Y001778D01*
X010190Y001703D01*
X010288Y001662D01*
X010341Y001662D01*
X010341Y001929D01*
X010341Y001929D01*
X010608Y001929D01*
X010608Y001982D01*
X010567Y002080D01*
X010492Y002155D01*
X010394Y002195D01*
X010341Y002195D01*
X010341Y002187D02*
X010341Y002187D01*
X010415Y002187D02*
X011311Y002187D01*
X011331Y002195D02*
X011233Y002155D01*
X011158Y002080D01*
X011118Y001982D01*
X011118Y001929D01*
X011384Y001929D01*
X011384Y001929D01*
X011118Y001929D01*
X011118Y001876D01*
X011158Y001778D01*
X011233Y001703D01*
X011331Y001662D01*
X011384Y001662D01*
X011384Y001929D01*
X011384Y002195D01*
X011331Y002195D01*
X011385Y002195D02*
X011385Y001929D01*
X011651Y001929D01*
X011651Y001982D01*
X011610Y002080D01*
X011535Y002155D01*
X011437Y002195D01*
X011385Y002195D01*
X011384Y002187D02*
X011385Y002187D01*
X011458Y002187D02*
X016074Y002187D01*
X015975Y002088D02*
X012586Y002088D01*
X012614Y002060D02*
X012539Y002135D01*
X012441Y002176D01*
X012389Y002176D01*
X012389Y001910D01*
X012388Y001910D01*
X012388Y002176D01*
X012335Y002176D01*
X012237Y002135D01*
X012162Y002060D01*
X012122Y001962D01*
X012122Y001909D01*
X012122Y001856D01*
X012162Y001758D01*
X012237Y001683D01*
X012335Y001643D01*
X012388Y001643D01*
X012388Y001909D01*
X012122Y001909D01*
X012388Y001909D01*
X012388Y001909D01*
X012389Y001909D01*
X012389Y001909D01*
X012655Y001909D01*
X012655Y001856D01*
X012614Y001758D01*
X012539Y001683D01*
X012441Y001643D01*
X012389Y001643D01*
X012389Y001909D01*
X012655Y001909D01*
X012655Y001962D01*
X012614Y002060D01*
X012643Y001990D02*
X015877Y001990D01*
X015826Y001891D02*
X012655Y001891D01*
X012629Y001793D02*
X015785Y001793D01*
X015744Y001694D02*
X012550Y001694D01*
X012389Y001694D02*
X012388Y001694D01*
X012388Y001793D02*
X012389Y001793D01*
X012388Y001891D02*
X012389Y001891D01*
X012388Y001990D02*
X012389Y001990D01*
X012388Y002088D02*
X012389Y002088D01*
X012191Y002088D02*
X011602Y002088D01*
X011648Y001990D02*
X012133Y001990D01*
X012122Y001891D02*
X011651Y001891D01*
X011651Y001876D02*
X011651Y001929D01*
X011385Y001929D01*
X011385Y001929D01*
X011384Y001929D01*
X011385Y001929D01*
X011385Y001662D01*
X011437Y001662D01*
X011535Y001703D01*
X011610Y001778D01*
X011651Y001876D01*
X011616Y001793D02*
X012148Y001793D01*
X012226Y001694D02*
X011514Y001694D01*
X011385Y001694D02*
X011384Y001694D01*
X011384Y001793D02*
X011385Y001793D01*
X011384Y001891D02*
X011385Y001891D01*
X011384Y001990D02*
X011385Y001990D01*
X011384Y002088D02*
X011385Y002088D01*
X011167Y002088D02*
X010558Y002088D01*
X010604Y001990D02*
X011121Y001990D01*
X011118Y001891D02*
X010608Y001891D01*
X010608Y001876D02*
X010608Y001929D01*
X010341Y001929D01*
X010341Y001929D01*
X010341Y001662D01*
X010394Y001662D01*
X010492Y001703D01*
X010567Y001778D01*
X010608Y001876D01*
X010573Y001793D02*
X011152Y001793D01*
X011254Y001694D02*
X010471Y001694D01*
X010341Y001694D02*
X010341Y001694D01*
X010341Y001793D02*
X010341Y001793D01*
X010341Y001891D02*
X010341Y001891D01*
X010341Y001990D02*
X010341Y001990D01*
X010341Y002088D02*
X010341Y002088D01*
X010124Y002088D02*
X003683Y002088D01*
X003782Y001990D02*
X010078Y001990D01*
X010075Y001891D02*
X003833Y001891D01*
X003874Y001793D02*
X010109Y001793D01*
X010211Y001694D02*
X003915Y001694D01*
X003954Y001596D02*
X007466Y001596D01*
X007493Y001623D02*
X007418Y001548D01*
X007378Y001450D01*
X007378Y001398D01*
X007644Y001398D01*
X007644Y001664D01*
X007591Y001664D01*
X007493Y001623D01*
X007644Y001596D02*
X007644Y001596D01*
X007644Y001664D02*
X007644Y001398D01*
X007644Y001398D01*
X007644Y001397D01*
X007644Y001397D01*
X007644Y001131D01*
X007591Y001131D01*
X007493Y001172D01*
X007418Y001246D01*
X007378Y001344D01*
X007378Y001397D01*
X007644Y001397D01*
X007644Y001131D01*
X007697Y001131D01*
X007795Y001172D01*
X007870Y001246D01*
X007911Y001344D01*
X007911Y001397D01*
X007645Y001397D01*
X007645Y001398D01*
X007911Y001398D01*
X007911Y001450D01*
X007870Y001548D01*
X007795Y001623D01*
X007697Y001664D01*
X007644Y001664D01*
X007644Y001497D02*
X007644Y001497D01*
X007644Y001399D02*
X007644Y001399D01*
X007644Y001300D02*
X007644Y001300D01*
X007644Y001202D02*
X007644Y001202D01*
X007463Y001202D02*
X004920Y001202D01*
X004938Y001246D02*
X004938Y001299D01*
X004938Y001352D01*
X004898Y001450D01*
X004823Y001525D01*
X004725Y001566D01*
X004672Y001566D01*
X004672Y001299D01*
X004938Y001299D01*
X004672Y001299D01*
X004672Y001299D01*
X004672Y001033D01*
X004725Y001033D01*
X004823Y001073D01*
X004898Y001148D01*
X004938Y001246D01*
X004938Y001300D02*
X007396Y001300D01*
X007378Y001399D02*
X004919Y001399D01*
X004851Y001497D02*
X007397Y001497D01*
X007823Y001596D02*
X015704Y001596D01*
X015704Y001497D02*
X007891Y001497D01*
X007911Y001399D02*
X015704Y001399D01*
X015704Y001300D02*
X007892Y001300D01*
X007825Y001202D02*
X015704Y001202D01*
X015743Y001103D02*
X004853Y001103D01*
X004672Y001103D02*
X004672Y001103D01*
X004672Y001033D02*
X004619Y001033D01*
X004521Y001073D01*
X004446Y001148D01*
X004405Y001246D01*
X004405Y001299D01*
X004671Y001299D01*
X004671Y001299D01*
X004405Y001299D01*
X004405Y001352D01*
X004446Y001450D01*
X004521Y001525D01*
X004619Y001566D01*
X004672Y001566D01*
X004672Y001299D01*
X004672Y001299D01*
X004672Y001299D01*
X004672Y001033D01*
X004672Y001202D02*
X004672Y001202D01*
X004672Y001300D02*
X004672Y001300D01*
X004672Y001399D02*
X004672Y001399D01*
X004672Y001497D02*
X004672Y001497D01*
X004493Y001497D02*
X003954Y001497D01*
X003954Y001399D02*
X004425Y001399D01*
X004405Y001300D02*
X003954Y001300D01*
X003954Y001202D02*
X004424Y001202D01*
X004491Y001103D02*
X003916Y001103D01*
X003875Y001004D02*
X015784Y001004D01*
X015824Y000906D02*
X003834Y000906D01*
X003784Y000807D02*
X015874Y000807D01*
X017226Y002286D02*
X017378Y002286D01*
X017378Y002384D02*
X016988Y002384D01*
X017378Y002483D02*
X002281Y002483D01*
X002281Y002581D02*
X017378Y002581D01*
X017378Y002680D02*
X002281Y002680D01*
X002281Y002778D02*
X017378Y002778D01*
X017378Y002877D02*
X016921Y002877D01*
X016949Y002975D02*
X017378Y002975D01*
X017378Y003074D02*
X016949Y003074D01*
X016949Y003172D02*
X017378Y003172D01*
X017378Y003271D02*
X016949Y003271D01*
X016949Y003370D02*
X017378Y003370D01*
X017378Y003468D02*
X017157Y003468D01*
X017224Y003567D02*
X017378Y003567D01*
X017378Y003665D02*
X017224Y003665D01*
X017224Y003764D02*
X017378Y003764D01*
X017378Y003862D02*
X017224Y003862D01*
X017224Y003961D02*
X017378Y003961D01*
X017378Y004059D02*
X017224Y004059D01*
X017224Y004158D02*
X017378Y004158D01*
X017378Y004256D02*
X017224Y004256D01*
X017224Y004355D02*
X017378Y004355D01*
X017378Y004454D02*
X017224Y004454D01*
X017224Y004552D02*
X017378Y004552D01*
X017378Y004651D02*
X017224Y004651D01*
X017224Y004749D02*
X017378Y004749D01*
X017378Y004848D02*
X017224Y004848D01*
X017224Y004946D02*
X017378Y004946D01*
X017378Y005045D02*
X017224Y005045D01*
X017224Y005143D02*
X017378Y005143D01*
X017378Y005242D02*
X017224Y005242D01*
X017224Y005340D02*
X017378Y005340D01*
X017378Y005439D02*
X017224Y005439D01*
X017224Y005537D02*
X017378Y005537D01*
X017378Y005636D02*
X017224Y005636D01*
X017224Y005735D02*
X017378Y005735D01*
X017378Y005833D02*
X017224Y005833D01*
X017224Y005932D02*
X017378Y005932D01*
X017378Y006030D02*
X017224Y006030D01*
X017224Y006129D02*
X017378Y006129D01*
X017378Y006227D02*
X017224Y006227D01*
X017224Y006326D02*
X017378Y006326D01*
X017378Y006424D02*
X017224Y006424D01*
X017224Y006523D02*
X017378Y006523D01*
X017378Y006621D02*
X017224Y006621D01*
X017224Y006720D02*
X017378Y006720D01*
X017378Y006819D02*
X017224Y006819D01*
X017224Y006917D02*
X017378Y006917D01*
X017378Y007016D02*
X017224Y007016D01*
X017224Y007114D02*
X017378Y007114D01*
X017378Y007213D02*
X017224Y007213D01*
X017224Y007311D02*
X017378Y007311D01*
X017378Y007410D02*
X017224Y007410D01*
X017224Y007508D02*
X017378Y007508D01*
X017378Y007607D02*
X017224Y007607D01*
X017224Y007705D02*
X017378Y007705D01*
X017378Y007804D02*
X017224Y007804D01*
X017224Y007903D02*
X017378Y007903D01*
X017378Y008001D02*
X017224Y008001D01*
X017224Y008100D02*
X017378Y008100D01*
X017378Y008198D02*
X017224Y008198D01*
X017224Y008297D02*
X017378Y008297D01*
X017378Y008395D02*
X017224Y008395D01*
X017224Y008494D02*
X017378Y008494D01*
X017378Y008592D02*
X017224Y008592D01*
X017224Y008691D02*
X017378Y008691D01*
X017378Y008789D02*
X017224Y008789D01*
X017224Y008888D02*
X017378Y008888D01*
X017378Y008986D02*
X017224Y008986D01*
X017224Y009085D02*
X017378Y009085D01*
X017378Y009184D02*
X017224Y009184D01*
X017224Y009282D02*
X017378Y009282D01*
X017378Y009381D02*
X017224Y009381D01*
X017224Y009479D02*
X017378Y009479D01*
X017378Y009578D02*
X017224Y009578D01*
X017224Y009676D02*
X017378Y009676D01*
X017378Y009775D02*
X017224Y009775D01*
X017224Y009873D02*
X017378Y009873D01*
X017378Y009972D02*
X017224Y009972D01*
X017224Y010070D02*
X017378Y010070D01*
X017378Y010169D02*
X017224Y010169D01*
X017224Y010268D02*
X017378Y010268D01*
X017378Y010366D02*
X017224Y010366D01*
X017224Y010465D02*
X017378Y010465D01*
X017378Y010563D02*
X017224Y010563D01*
X017224Y010662D02*
X017378Y010662D01*
X017378Y010760D02*
X017224Y010760D01*
X017224Y010859D02*
X017378Y010859D01*
X017378Y010957D02*
X017220Y010957D01*
X017121Y011056D02*
X017378Y011056D01*
X017378Y011154D02*
X016949Y011154D01*
X016949Y011253D02*
X017378Y011253D01*
X017378Y011352D02*
X016949Y011352D01*
X016949Y011450D02*
X017378Y011450D01*
X017378Y011549D02*
X016949Y011549D01*
X016884Y011647D02*
X017378Y011647D01*
X017378Y011746D02*
X010975Y011746D01*
X010975Y011844D02*
X017378Y011844D01*
X017378Y011943D02*
X010975Y011943D01*
X010975Y012041D02*
X017378Y012041D01*
X017378Y012140D02*
X010975Y012140D01*
X011193Y012238D02*
X017378Y012238D01*
X017378Y012337D02*
X011510Y012337D01*
X011826Y012436D02*
X017378Y012436D01*
X017378Y012534D02*
X012143Y012534D01*
X012460Y012633D02*
X017378Y012633D01*
X017378Y012731D02*
X012672Y012731D01*
X012747Y012830D02*
X017378Y012830D01*
X017378Y012928D02*
X012747Y012928D01*
X012487Y012913D02*
X012487Y013602D01*
X012487Y015075D01*
X012491Y015079D01*
X013752Y014111D02*
X017378Y014111D01*
X017378Y014209D02*
X017034Y014209D01*
X017272Y014308D02*
X017378Y014308D01*
X017378Y014012D02*
X013779Y014012D01*
X013779Y013914D02*
X017378Y013914D01*
X017378Y013815D02*
X013779Y013815D01*
X013779Y013717D02*
X017378Y013717D01*
X017378Y013618D02*
X013779Y013618D01*
X013779Y013519D02*
X014468Y013519D01*
X014481Y013533D02*
X014406Y013458D01*
X014366Y013360D01*
X014366Y013307D01*
X014632Y013307D01*
X014632Y013307D01*
X014366Y013307D01*
X014366Y013254D01*
X014406Y013156D01*
X014481Y013081D01*
X014579Y013040D01*
X014632Y013040D01*
X014632Y013306D01*
X014633Y013306D01*
X014633Y013040D01*
X014685Y013040D01*
X014783Y013081D01*
X014858Y013156D01*
X014899Y013254D01*
X014899Y013307D01*
X014899Y013360D01*
X014858Y013458D01*
X014783Y013533D01*
X014685Y013573D01*
X014633Y013573D01*
X014633Y013307D01*
X014899Y013307D01*
X014633Y013307D01*
X014633Y013307D01*
X014632Y013307D01*
X014632Y013573D01*
X014579Y013573D01*
X014481Y013533D01*
X014391Y013421D02*
X013779Y013421D01*
X013779Y013322D02*
X014366Y013322D01*
X014378Y013224D02*
X013779Y013224D01*
X013779Y013125D02*
X014437Y013125D01*
X014632Y013125D02*
X014633Y013125D01*
X014632Y013224D02*
X014633Y013224D01*
X014632Y013322D02*
X014633Y013322D01*
X014632Y013421D02*
X014633Y013421D01*
X014632Y013519D02*
X014633Y013519D01*
X014797Y013519D02*
X017378Y013519D01*
X017378Y013421D02*
X014874Y013421D01*
X014899Y013322D02*
X017378Y013322D01*
X017378Y013224D02*
X014886Y013224D01*
X014828Y013125D02*
X017378Y013125D01*
X017378Y013027D02*
X013685Y013027D01*
X012487Y012913D02*
X010715Y012362D01*
X010715Y010059D01*
X010912Y010059D02*
X010912Y011023D01*
X011227Y011338D01*
X011594Y011352D02*
X015663Y011352D01*
X015663Y011450D02*
X011578Y011450D01*
X011536Y011549D02*
X015663Y011549D01*
X015727Y011647D02*
X011438Y011647D01*
X011016Y011647D02*
X010975Y011647D01*
X010518Y012362D02*
X008747Y012913D01*
X007178Y011746D02*
X006792Y011746D01*
X006891Y011647D02*
X007089Y011647D01*
X007048Y011549D02*
X006933Y011549D01*
X006370Y011746D02*
X005913Y011746D01*
X006064Y011647D02*
X006272Y011647D01*
X006230Y011549D02*
X006129Y011549D01*
X008333Y009842D02*
X008333Y009331D01*
X008491Y009173D01*
X009042Y009173D01*
X009042Y008976D02*
X008117Y008976D01*
X009042Y008976D02*
X009042Y008779D01*
X009042Y009370D02*
X009042Y009724D01*
X009160Y010059D02*
X009731Y010059D01*
X009891Y009479D02*
X009964Y009479D01*
X009646Y009381D02*
X011981Y009381D01*
X011981Y009282D02*
X009646Y009282D01*
X009646Y009184D02*
X011550Y009184D01*
X011476Y009085D02*
X009646Y009085D01*
X009646Y008986D02*
X011453Y008986D01*
X011453Y008976D02*
X011719Y008976D01*
X012585Y008976D01*
X012585Y008779D02*
X013274Y008779D01*
X013373Y008681D01*
X015066Y008681D01*
X015066Y008878D02*
X013471Y008878D01*
X013176Y009173D01*
X012585Y009173D01*
X012585Y009370D02*
X013274Y009370D01*
X013569Y009075D01*
X015066Y009075D01*
X015066Y009271D02*
X013766Y009271D01*
X012979Y010059D01*
X011896Y010059D01*
X011699Y010059D02*
X011699Y010551D01*
X011798Y010649D01*
X012684Y010649D01*
X013865Y009468D01*
X015066Y009468D01*
X015066Y009665D02*
X013963Y009665D01*
X012782Y010846D01*
X011699Y010846D01*
X011503Y010649D01*
X011503Y010059D01*
X011306Y010059D02*
X011306Y010748D01*
X011601Y011043D01*
X012880Y011043D01*
X014062Y009862D01*
X015066Y009862D01*
X015066Y010059D02*
X014691Y010059D01*
X014593Y010157D01*
X014593Y010689D01*
X014593Y010955D01*
X014540Y010955D01*
X014442Y010915D01*
X014367Y010840D01*
X014327Y010742D01*
X014327Y010689D01*
X014593Y010689D01*
X014593Y010689D01*
X014593Y010955D01*
X014646Y010955D01*
X014744Y010915D01*
X014819Y010840D01*
X014860Y010742D01*
X014860Y010689D01*
X014593Y010689D01*
X014593Y010689D01*
X014593Y010689D01*
X014327Y010689D01*
X014327Y010636D01*
X014367Y010538D01*
X014442Y010463D01*
X014540Y010422D01*
X014593Y010422D01*
X014593Y010688D01*
X014593Y010688D01*
X014593Y010422D01*
X014646Y010422D01*
X014744Y010463D01*
X014819Y010538D01*
X014860Y010636D01*
X014860Y010689D01*
X014593Y010689D01*
X014593Y010662D02*
X014593Y010662D01*
X014593Y010760D02*
X014593Y010760D01*
X014593Y010859D02*
X014593Y010859D01*
X014386Y010859D02*
X013432Y010859D01*
X013334Y010957D02*
X015136Y010957D01*
X015131Y010859D02*
X014800Y010859D01*
X014852Y010760D02*
X015131Y010760D01*
X015131Y010662D02*
X014860Y010662D01*
X014829Y010563D02*
X015131Y010563D01*
X015131Y010465D02*
X014746Y010465D01*
X014593Y010465D02*
X014593Y010465D01*
X014593Y010563D02*
X014593Y010563D01*
X014440Y010465D02*
X013827Y010465D01*
X013925Y010366D02*
X015131Y010366D01*
X015131Y010268D02*
X014024Y010268D01*
X014122Y010169D02*
X014687Y010169D01*
X015065Y010169D02*
X015066Y010169D01*
X014357Y010563D02*
X013728Y010563D01*
X013630Y010662D02*
X014327Y010662D01*
X014334Y010760D02*
X013531Y010760D01*
X013235Y011056D02*
X015234Y011056D01*
X015663Y011154D02*
X013137Y011154D01*
X013038Y011253D02*
X015663Y011253D01*
X011981Y009184D02*
X011889Y009184D01*
X011962Y009085D02*
X011981Y009085D01*
X011971Y008888D02*
X011981Y008888D01*
X011981Y008789D02*
X011909Y008789D01*
X011981Y008691D02*
X010103Y008691D01*
X010200Y008592D02*
X011735Y008592D01*
X011719Y008710D02*
X011719Y008976D01*
X011719Y008976D01*
X011719Y008710D01*
X011719Y008789D02*
X011719Y008789D01*
X011719Y008888D02*
X011719Y008888D01*
X011719Y008976D02*
X011453Y008976D01*
X011467Y008888D02*
X009646Y008888D01*
X009646Y008789D02*
X011529Y008789D01*
X011719Y008976D02*
X011719Y008976D01*
X011719Y008977D02*
X011719Y009243D01*
X011719Y008977D01*
X011719Y008977D01*
X011719Y008986D02*
X011719Y008986D01*
X011719Y009085D02*
X011719Y009085D01*
X011719Y009184D02*
X011719Y009184D01*
X011637Y008494D02*
X010241Y008494D01*
X010256Y008395D02*
X011538Y008395D01*
X011538Y008297D02*
X010249Y008297D01*
X010208Y008198D02*
X011538Y008198D01*
X011538Y008100D02*
X010122Y008100D01*
X009674Y008691D02*
X009646Y008691D01*
X010285Y009479D02*
X010358Y009479D01*
X010518Y010059D02*
X010518Y012362D01*
X009042Y007795D02*
X008314Y007795D01*
X008195Y007677D01*
X009042Y007205D02*
X009042Y005728D01*
X010617Y004153D01*
X013077Y004153D01*
X013668Y004744D01*
X015066Y004744D01*
X015066Y004941D02*
X013569Y004941D01*
X012979Y004350D01*
X010715Y004350D01*
X009731Y005334D01*
X009731Y006516D01*
X010287Y007119D02*
X010337Y007141D01*
X011905Y007141D01*
X012082Y007141D01*
X012082Y007110D01*
X012146Y007046D01*
X012585Y007046D01*
X012585Y007141D01*
X012585Y007141D01*
X012585Y007046D01*
X013024Y007046D01*
X013088Y007110D01*
X013088Y007164D01*
X013189Y007265D01*
X013189Y007338D01*
X013632Y007338D01*
X013598Y007258D01*
X013598Y007205D01*
X013864Y007205D01*
X013864Y007204D01*
X013598Y007204D01*
X013598Y007152D01*
X013639Y007054D01*
X013714Y006979D01*
X013729Y006972D01*
X012791Y006972D01*
X012576Y006972D01*
X012379Y006776D01*
X012155Y006776D01*
X012155Y006996D01*
X012032Y007119D01*
X011760Y007119D01*
X011563Y007119D01*
X011442Y007119D01*
X011169Y007119D01*
X010973Y007119D01*
X010776Y007119D01*
X010715Y007059D01*
X010654Y007119D01*
X010382Y007119D01*
X010287Y007119D01*
X010660Y007114D02*
X010771Y007114D01*
X010715Y007106D02*
X010814Y007205D01*
X012585Y007205D01*
X013865Y007205D01*
X014131Y007205D01*
X014131Y007258D01*
X014091Y007356D01*
X014016Y007430D01*
X014001Y007437D01*
X014681Y007437D01*
X014681Y007407D01*
X014681Y007303D01*
X015065Y007303D01*
X015065Y007303D01*
X014681Y007303D01*
X014681Y007199D01*
X014681Y007106D01*
X014681Y007002D01*
X014681Y006972D01*
X014001Y006972D01*
X014016Y006979D01*
X014091Y007054D01*
X014131Y007152D01*
X014131Y007204D01*
X013865Y007204D01*
X013865Y007205D01*
X014357Y007205D01*
X014652Y007500D01*
X015066Y007500D01*
X015066Y007303D02*
X015066Y007135D01*
X015066Y007107D01*
X015065Y007107D01*
X015065Y007135D01*
X015065Y007303D01*
X015066Y007303D01*
X015065Y007213D02*
X015066Y007213D01*
X015065Y007114D02*
X015066Y007114D01*
X015065Y007106D02*
X015065Y007106D01*
X014681Y007106D01*
X015065Y007106D01*
X014681Y007114D02*
X014116Y007114D01*
X014131Y007213D02*
X014681Y007213D01*
X014681Y007311D02*
X014109Y007311D01*
X014036Y007410D02*
X014681Y007410D01*
X014681Y007016D02*
X014053Y007016D01*
X013677Y007016D02*
X012136Y007016D01*
X012155Y006917D02*
X012521Y006917D01*
X012422Y006819D02*
X012155Y006819D01*
X012082Y007114D02*
X012037Y007114D01*
X011798Y007401D02*
X012585Y007401D01*
X012585Y007114D02*
X012585Y007114D01*
X013088Y007114D02*
X013614Y007114D01*
X013598Y007213D02*
X013136Y007213D01*
X013189Y007311D02*
X013620Y007311D01*
X013766Y004547D02*
X013176Y003957D01*
X010518Y003957D01*
X010715Y006516D02*
X010715Y007106D01*
X013766Y004547D02*
X015066Y004547D01*
X015131Y004059D02*
X013646Y004059D01*
X013548Y003961D02*
X015131Y003961D01*
X014378Y003862D02*
X013449Y003862D01*
X013351Y003764D02*
X014308Y003764D01*
X015663Y003271D02*
X002281Y003271D01*
X002281Y003172D02*
X015663Y003172D01*
X015663Y003074D02*
X002281Y003074D01*
X002281Y002975D02*
X015663Y002975D01*
X015691Y002877D02*
X002281Y002877D01*
X002281Y002384D02*
X002670Y002384D01*
X002432Y002286D02*
X002281Y002286D01*
X002281Y002187D02*
X002294Y002187D01*
X003765Y015786D02*
X015893Y015786D01*
X017364Y002187D02*
X017378Y002187D01*
D19*
X009160Y010059D02*
X007408Y011457D01*
X006581Y011437D02*
X009042Y009724D01*
X008333Y009842D02*
X005794Y011397D01*
X007664Y009705D02*
X007979Y009370D01*
X007979Y009114D01*
X008117Y008976D01*
D20*
X007664Y009705D03*
X006581Y009941D03*
X006089Y008720D03*
X005794Y011397D03*
X006581Y011437D03*
X007408Y011457D03*
X008156Y012244D03*
X011227Y011338D03*
X011719Y008976D03*
X009888Y008386D03*
X009928Y007244D03*
X013865Y007205D03*
X014593Y010689D03*
X014632Y013307D03*
X013845Y015374D03*
X010715Y015472D03*
X007802Y015472D03*
X003097Y013209D03*
X003097Y012244D03*
X003373Y004390D03*
X003373Y003583D03*
X004672Y001299D03*
X007644Y001397D03*
X010341Y001929D03*
X011384Y001929D03*
X012388Y001909D03*
X014554Y003661D03*
M02*
