G75*
G70*
%OFA0B0*%
%FSLAX24Y24*%
%IPPOS*%
%LPD*%
%AMOC8*
5,1,8,0,0,1.08239X$1,22.5*
%
%ADD10C,0.1458*%
%ADD11C,0.1386*%
%ADD12C,0.0671*%
%ADD13R,0.0395X0.0474*%
%ADD14R,0.0710X0.0710*%
%ADD15R,0.0178X0.0867*%
%ADD16R,0.0474X0.0395*%
%ADD17R,0.0474X0.0671*%
%ADD18R,0.1379X0.0671*%
%ADD19C,0.0395*%
D10*
X002940Y001397D03*
X016719Y001397D03*
X016719Y015177D03*
X002940Y015177D03*
D11*
X003014Y010610D03*
X003014Y005870D03*
D12*
X004081Y007748D03*
X004869Y007748D03*
X004869Y008732D03*
X004081Y008732D03*
D13*
X005022Y009590D03*
X005652Y009590D03*
X005436Y010358D03*
X004806Y010358D03*
X005085Y005236D03*
X005715Y005236D03*
X006384Y005236D03*
X007014Y005236D03*
D14*
X005680Y006579D03*
X005629Y007748D03*
X006888Y007748D03*
X004420Y006579D03*
X010888Y007126D03*
X010888Y008386D03*
D15*
X006483Y012488D03*
X006227Y012488D03*
X005971Y012488D03*
X005715Y012488D03*
X005715Y015008D03*
X005971Y015008D03*
X006227Y015008D03*
X006483Y015008D03*
D16*
X004908Y013960D03*
X004908Y013331D03*
X004908Y012476D03*
X004908Y011846D03*
D17*
X005097Y004275D03*
X006003Y004275D03*
X006908Y004275D03*
D18*
X006003Y001795D03*
D19*
X004672Y001299D03*
X003373Y003583D03*
X003373Y004390D03*
X007644Y001397D03*
X010341Y001929D03*
X011384Y001929D03*
X012388Y001909D03*
X014554Y003661D03*
X013865Y007205D03*
X011719Y008976D03*
X009888Y008386D03*
X009928Y007244D03*
X007664Y009705D03*
X006581Y009941D03*
X006089Y008720D03*
X005794Y011397D03*
X006581Y011437D03*
X007408Y011457D03*
X008156Y012244D03*
X011227Y011338D03*
X014593Y010689D03*
X014632Y013307D03*
X013845Y015374D03*
X010715Y015472D03*
X007802Y015472D03*
X003097Y013209D03*
X003097Y012244D03*
M02*
