%
M48
M72
T01C0.0118
T02C0.0157
T03C0.0236
T04C0.0354
T05C0.0394
T06C0.0433
T07C0.0591
T08C0.1378
%
T01
X13183Y10813
X13891Y9356
X14521Y8963
X15151Y8963
X15781Y9160
X16057Y9553
X16431Y10104
X16628Y11049
X15446Y12191
X22100Y8018
X22435Y9396
X22710Y9671
X23124Y10026
X23616Y10026
X23320Y10872
X22257Y12093
X22415Y13411
X22809Y13786
X23143Y14100
X23616Y14100
X24600Y14002
X24954Y13628
X25702Y12270
X25112Y9789
X25112Y9455
X25781Y8471
X23320Y6719
X23537Y5911
X23143Y5813
X22730Y5380
X22297Y5223
X22139Y3864
X23242Y2604
X25860Y4612
X24954Y5301
X24954Y5636
X30880Y4041
X33773Y5774
X33950Y4435
X16214Y19573
X15840Y19376
X15250Y18963
X14147Y19022
X13694Y19396
X13202Y20911
X15466Y22171
X16588Y20931
X16470Y20183
X15151Y23845
X15781Y24297
X16175Y24415
X16431Y25104
X16588Y25833
X15348Y27427
X13222Y25833
X13891Y24317
X13891Y24002
X21962Y24376
X22257Y25754
X22612Y25911
X23045Y26404
X23517Y26384
X24561Y26286
X25033Y25715
X25781Y24317
X23222Y23057
X26037Y21778
T02
X26706Y21541
X26313Y24061
X26706Y26266
X26706Y28628
X30289Y28628
X30289Y26266
X32336Y24888
X30289Y23904
X30880Y22939
X30289Y21541
X31529Y19179
X30328Y13667
X30328Y11305
X32887Y10518
X30309Y8943
X32415Y7171
X30289Y6581
X30269Y4219
X30348Y2545
X32415Y1541
X33006Y3392
X33911Y3392
X34757Y3667
X26726Y4219
X26706Y6581
X26706Y8943
X26687Y11305
X26706Y13667
X33222Y13746
X13675Y21541
X12946Y23904
X12907Y26266
X12966Y28628
X9443Y28628
X7376Y29100
X9462Y26266
X9167Y23904
X7376Y22860
X9383Y21541
X4757Y19474
X9383Y13667
X9383Y11305
X9383Y8943
X9383Y6581
X8045Y5163
X9383Y4219
X6135Y3471
X12966Y4219
X12966Y6581
X12966Y8943
X12946Y11305
X12966Y13667
X6628Y13018
X4757Y13136
X6549Y9829
T03
X13242Y7880
X17415Y12565
X20013Y10852
X18675Y9081
X19935Y6719
X25742Y9750
X26529Y9986
X20643Y15183
X18517Y19396
X17257Y22211
X18478Y23805
X14954Y23333
X17257Y26955
X13596Y28254
X9324Y22821
X8202Y22821
X9954Y18215
X12730Y17782
X22159Y29947
X21135Y30242
X30860Y28333
X34108Y27073
X36116Y5006
T04
X26411Y6069
X26588Y2073
X19757Y5380
X19069Y8333
X19974Y9534
X19895Y13648
X33399Y17860
X33399Y19179
X38616Y17910
X38616Y16591
T05
X36608Y18569
X35624Y19061
X34777Y19455
X34777Y18569
X34738Y15971
X33931Y15971
X32572Y14750
X30446Y16010
X26588Y16010
X24521Y16325
X14757Y14711
X14305Y13372
X13025Y16010
X10131Y16325
X8006Y18490
X8340Y28569
X9206Y31030
X13084Y31030
X14954Y29691
X24817Y29671
X26549Y31030
X30427Y30971
X32139Y29711
T06
X28498Y30282
X28498Y19888
X28498Y15321
X28498Y2565
X11175Y2565
X11175Y15321
X11175Y19888
X11175Y30282
T07
X33226Y31262
X34226Y30262
X35226Y31262
X35226Y29262
X33226Y29262
T08
X1135Y1660
X19836Y1660
X19836Y16423
X19836Y31187
X38537Y31187
X38537Y1660
X1135Y31187
M30
