G75*
G70*
%OFA0B0*%
%FSLAX24Y24*%
%IPPOS*%
%LPD*%
%AMOC8*
5,1,8,0,0,1.08239X$1,22.5*
%
%ADD10C,0.0886*%
%ADD11C,0.0354*%
%ADD12C,0.0276*%
%ADD13C,0.0531*%
%ADD14C,0.0591*%
%ADD15C,0.0236*%
%ADD16C,0.0100*%
D10*
X033226Y029262D03*
X034226Y030262D03*
X033226Y031262D03*
X035226Y031262D03*
X035226Y029262D03*
D11*
X034108Y027073D03*
X030860Y028333D03*
X022159Y029947D03*
X021135Y030242D03*
X017257Y026955D03*
X018478Y023805D03*
X017257Y022211D03*
X014954Y023333D03*
X018517Y019396D03*
X020643Y015183D03*
X017415Y012565D03*
X020013Y010852D03*
X018675Y009081D03*
X019935Y006719D03*
X025742Y009750D03*
X026529Y009986D03*
X036116Y005006D03*
X013242Y007880D03*
X012730Y017782D03*
X009954Y018215D03*
X009324Y022821D03*
X008202Y022821D03*
X013596Y028254D03*
D12*
X012966Y028628D03*
X012907Y026266D03*
X012946Y023904D03*
X013675Y021541D03*
X009383Y021541D03*
X007376Y022860D03*
X009167Y023904D03*
X009462Y026266D03*
X009443Y028628D03*
X007376Y029100D03*
X004757Y019474D03*
X009383Y013667D03*
X009383Y011305D03*
X009383Y008943D03*
X009383Y006581D03*
X008045Y005163D03*
X009383Y004219D03*
X006135Y003471D03*
X012966Y004219D03*
X012966Y006581D03*
X012966Y008943D03*
X012946Y011305D03*
X012966Y013667D03*
X006628Y013018D03*
X004757Y013136D03*
X006549Y009829D03*
X026313Y024061D03*
X026706Y026266D03*
X026706Y028628D03*
X030289Y028628D03*
X030289Y026266D03*
X032336Y024888D03*
X030289Y023904D03*
X030880Y022939D03*
X030289Y021541D03*
X031529Y019179D03*
X026706Y021541D03*
X026706Y013667D03*
X026687Y011305D03*
X026706Y008943D03*
X026706Y006581D03*
X026726Y004219D03*
X030269Y004219D03*
X030348Y002545D03*
X032415Y001541D03*
X033006Y003392D03*
X033911Y003392D03*
X034757Y003667D03*
X032415Y007171D03*
X030289Y006581D03*
X030309Y008943D03*
X032887Y010518D03*
X030328Y011305D03*
X030328Y013667D03*
X033222Y013746D03*
D13*
X026411Y006069D03*
X026588Y002073D03*
X019757Y005380D03*
X019069Y008333D03*
X019974Y009534D03*
X019895Y013648D03*
D14*
X024521Y016325D03*
X026588Y016010D03*
X030446Y016010D03*
X032572Y014750D03*
X033931Y015971D03*
X034738Y015971D03*
X034777Y018569D03*
X035624Y019061D03*
X034777Y019455D03*
X036608Y018569D03*
X032139Y029711D03*
X030427Y030971D03*
X026549Y031030D03*
X024817Y029671D03*
X014954Y029691D03*
X013084Y031030D03*
X009206Y031030D03*
X008340Y028569D03*
X008006Y018490D03*
X010131Y016325D03*
X013025Y016010D03*
X014757Y014711D03*
X014305Y013372D03*
D15*
X015446Y012191D03*
X016628Y011049D03*
X016431Y010104D03*
X016057Y009553D03*
X015781Y009160D03*
X015151Y008963D03*
X014521Y008963D03*
X013891Y009356D03*
X013183Y010813D03*
X022100Y008018D03*
X022435Y009396D03*
X022710Y009671D03*
X023124Y010026D03*
X023616Y010026D03*
X023320Y010872D03*
X022257Y012093D03*
X022415Y013411D03*
X022809Y013786D03*
X023143Y014100D03*
X023616Y014100D03*
X024600Y014002D03*
X024954Y013628D03*
X025702Y012270D03*
X025112Y009789D03*
X025112Y009455D03*
X025781Y008471D03*
X023320Y006719D03*
X023537Y005911D03*
X023143Y005813D03*
X022730Y005380D03*
X022297Y005223D03*
X022139Y003864D03*
X023242Y002604D03*
X025860Y004612D03*
X024954Y005301D03*
X024954Y005636D03*
X030880Y004041D03*
X033773Y005774D03*
X033950Y004435D03*
X016214Y019573D03*
X015840Y019376D03*
X015250Y018963D03*
X014147Y019022D03*
X013694Y019396D03*
X013202Y020911D03*
X015466Y022171D03*
X016588Y020931D03*
X016470Y020183D03*
X015151Y023845D03*
X015781Y024297D03*
X016175Y024415D03*
X016431Y025104D03*
X016588Y025833D03*
X015348Y027427D03*
X013222Y025833D03*
X013891Y024317D03*
X013891Y024002D03*
X021962Y024376D03*
X022257Y025754D03*
X022612Y025911D03*
X023045Y026404D03*
X023517Y026384D03*
X024561Y026286D03*
X025033Y025715D03*
X025781Y024317D03*
X023222Y023057D03*
X026037Y021778D03*
D16*
X019060Y001001D02*
X001911Y001001D01*
X001996Y001085D01*
X002150Y001458D01*
X002150Y001861D01*
X001996Y002234D01*
X001710Y002520D01*
X001337Y002674D01*
X000934Y002674D01*
X000561Y002520D01*
X000477Y002436D01*
X000477Y030411D01*
X000561Y030327D01*
X000934Y030173D01*
X001337Y030173D01*
X001710Y030327D01*
X001996Y030612D01*
X002150Y030985D01*
X002150Y031389D01*
X001996Y031762D01*
X001911Y031846D01*
X019060Y031846D01*
X018976Y031762D01*
X018822Y031389D01*
X018822Y030985D01*
X018976Y030612D01*
X019261Y030327D01*
X019634Y030173D01*
X020038Y030173D01*
X020411Y030327D01*
X020696Y030612D01*
X020851Y030985D01*
X020851Y031389D01*
X020696Y031762D01*
X020612Y031846D01*
X037761Y031846D01*
X037677Y031762D01*
X037522Y031389D01*
X037522Y030985D01*
X037677Y030612D01*
X037962Y030327D01*
X038335Y030173D01*
X038739Y030173D01*
X039112Y030327D01*
X039196Y030411D01*
X039196Y002436D01*
X039112Y002520D01*
X038739Y002674D01*
X038335Y002674D01*
X037962Y002520D01*
X037677Y002234D01*
X037522Y001861D01*
X037522Y001458D01*
X037677Y001085D01*
X037761Y001001D01*
X020612Y001001D01*
X020696Y001085D01*
X020851Y001458D01*
X020851Y001861D01*
X020696Y002234D01*
X020411Y002520D01*
X020038Y002674D01*
X019634Y002674D01*
X019261Y002520D01*
X018976Y002234D01*
X018822Y001861D01*
X018822Y001458D01*
X018976Y001085D01*
X019060Y001001D01*
X018991Y001069D02*
X001980Y001069D01*
X002030Y001168D02*
X018942Y001168D01*
X018901Y001267D02*
X002071Y001267D01*
X002112Y001365D02*
X018860Y001365D01*
X018822Y001464D02*
X002150Y001464D01*
X002150Y001562D02*
X018822Y001562D01*
X018822Y001661D02*
X002150Y001661D01*
X002150Y001759D02*
X018822Y001759D01*
X018822Y001858D02*
X002150Y001858D01*
X002111Y001956D02*
X018861Y001956D01*
X018902Y002055D02*
X011360Y002055D01*
X011283Y002023D02*
X011482Y002105D01*
X011634Y002258D01*
X011717Y002457D01*
X011717Y002673D01*
X011634Y002872D01*
X011482Y003025D01*
X011283Y003107D01*
X011067Y003107D01*
X010868Y003025D01*
X010715Y002872D01*
X010633Y002673D01*
X010633Y002457D01*
X010715Y002258D01*
X010868Y002105D01*
X011067Y002023D01*
X011283Y002023D01*
X011530Y002153D02*
X018943Y002153D01*
X018994Y002252D02*
X011628Y002252D01*
X011673Y002351D02*
X019092Y002351D01*
X019191Y002449D02*
X011714Y002449D01*
X011717Y002548D02*
X019329Y002548D01*
X019567Y002646D02*
X011717Y002646D01*
X011687Y002745D02*
X023033Y002745D01*
X023032Y002744D02*
X022995Y002654D01*
X022995Y002555D01*
X023032Y002465D01*
X023102Y002395D01*
X023193Y002358D01*
X023291Y002358D01*
X023382Y002395D01*
X023451Y002465D01*
X023489Y002555D01*
X023489Y002654D01*
X023451Y002744D01*
X023382Y002814D01*
X023291Y002851D01*
X023193Y002851D01*
X023102Y002814D01*
X023032Y002744D01*
X022995Y002646D02*
X020105Y002646D01*
X020343Y002548D02*
X022998Y002548D01*
X023048Y002449D02*
X020481Y002449D01*
X020580Y002351D02*
X026308Y002351D01*
X026254Y002296D02*
X026194Y002151D01*
X026194Y001994D01*
X026254Y001849D01*
X026365Y001738D01*
X026510Y001678D01*
X026667Y001678D01*
X026812Y001738D01*
X026923Y001849D01*
X026983Y001994D01*
X026983Y002151D01*
X026923Y002296D01*
X026812Y002407D01*
X026667Y002467D01*
X026510Y002467D01*
X026365Y002407D01*
X026254Y002296D01*
X026235Y002252D02*
X020679Y002252D01*
X020730Y002153D02*
X026195Y002153D01*
X026194Y002055D02*
X020771Y002055D01*
X020811Y001956D02*
X026209Y001956D01*
X026250Y001858D02*
X020851Y001858D01*
X020851Y001759D02*
X026344Y001759D01*
X026832Y001759D02*
X032256Y001759D01*
X032264Y001767D02*
X032189Y001692D01*
X032148Y001594D01*
X032148Y001488D01*
X032189Y001390D01*
X032264Y001315D01*
X032362Y001275D01*
X032468Y001275D01*
X032566Y001315D01*
X032641Y001390D01*
X032681Y001488D01*
X032681Y001594D01*
X032641Y001692D01*
X032566Y001767D01*
X032468Y001808D01*
X032362Y001808D01*
X032264Y001767D01*
X032176Y001661D02*
X020851Y001661D01*
X020851Y001562D02*
X032148Y001562D01*
X032159Y001464D02*
X020851Y001464D01*
X020812Y001365D02*
X032214Y001365D01*
X032616Y001365D02*
X037561Y001365D01*
X037522Y001464D02*
X032671Y001464D01*
X032681Y001562D02*
X037522Y001562D01*
X037522Y001661D02*
X032654Y001661D01*
X032574Y001759D02*
X037522Y001759D01*
X037522Y001858D02*
X026926Y001858D01*
X026967Y001956D02*
X037562Y001956D01*
X037603Y002055D02*
X028683Y002055D01*
X028605Y002023D02*
X028805Y002105D01*
X028957Y002258D01*
X029040Y002457D01*
X029040Y002673D01*
X028957Y002872D01*
X028805Y003025D01*
X028605Y003107D01*
X028390Y003107D01*
X028191Y003025D01*
X028038Y002872D01*
X027956Y002673D01*
X027956Y002457D01*
X028038Y002258D01*
X028191Y002105D01*
X028390Y002023D01*
X028605Y002023D01*
X028853Y002153D02*
X037643Y002153D01*
X037695Y002252D02*
X028951Y002252D01*
X028996Y002351D02*
X030194Y002351D01*
X030208Y002336D02*
X030299Y002299D01*
X030348Y002299D01*
X030397Y002299D01*
X030488Y002336D01*
X030557Y002406D01*
X030595Y002496D01*
X030595Y002545D01*
X030348Y002545D01*
X030348Y002299D01*
X030348Y002545D01*
X030348Y002545D01*
X030101Y002545D01*
X030101Y002496D01*
X030139Y002406D01*
X030208Y002336D01*
X030348Y002351D02*
X030348Y002351D01*
X030348Y002449D02*
X030348Y002449D01*
X030348Y002545D02*
X030348Y002546D01*
X030348Y002792D01*
X030299Y002792D01*
X030208Y002755D01*
X030139Y002685D01*
X030101Y002594D01*
X030101Y002546D01*
X030348Y002546D01*
X030348Y002546D01*
X030348Y002792D01*
X030397Y002792D01*
X030488Y002755D01*
X030557Y002685D01*
X030595Y002594D01*
X030595Y002546D01*
X030348Y002546D01*
X030348Y002545D01*
X030348Y002548D02*
X030348Y002548D01*
X030348Y002646D02*
X030348Y002646D01*
X030348Y002745D02*
X030348Y002745D01*
X030198Y002745D02*
X029010Y002745D01*
X029040Y002646D02*
X030123Y002646D01*
X030101Y002548D02*
X029040Y002548D01*
X029036Y002449D02*
X030121Y002449D01*
X030502Y002351D02*
X037793Y002351D01*
X037892Y002449D02*
X030575Y002449D01*
X030595Y002548D02*
X038030Y002548D01*
X038268Y002646D02*
X030573Y002646D01*
X030498Y002745D02*
X039196Y002745D01*
X039196Y002843D02*
X028969Y002843D01*
X028888Y002942D02*
X039196Y002942D01*
X039196Y003040D02*
X028767Y003040D01*
X028228Y003040D02*
X011444Y003040D01*
X011565Y002942D02*
X028108Y002942D01*
X028026Y002843D02*
X023310Y002843D01*
X023173Y002843D02*
X011646Y002843D01*
X010906Y003040D02*
X000477Y003040D01*
X000477Y002942D02*
X010785Y002942D01*
X010703Y002843D02*
X000477Y002843D01*
X000477Y002745D02*
X010662Y002745D01*
X010633Y002646D02*
X001405Y002646D01*
X001643Y002548D02*
X010633Y002548D01*
X010636Y002449D02*
X001781Y002449D01*
X001879Y002351D02*
X010677Y002351D01*
X010721Y002252D02*
X001978Y002252D01*
X002029Y002153D02*
X010820Y002153D01*
X010990Y002055D02*
X002070Y002055D01*
X000866Y002646D02*
X000477Y002646D01*
X000477Y002548D02*
X000628Y002548D01*
X000490Y002449D02*
X000477Y002449D01*
X000477Y003139D02*
X032920Y003139D01*
X032952Y003125D02*
X033059Y003125D01*
X033156Y003166D01*
X033231Y003241D01*
X033272Y003339D01*
X033272Y003445D01*
X033231Y003543D01*
X033156Y003618D01*
X033059Y003658D01*
X032952Y003658D01*
X032855Y003618D01*
X032780Y003543D01*
X032739Y003445D01*
X032739Y003339D01*
X032780Y003241D01*
X032855Y003166D01*
X032952Y003125D01*
X033091Y003139D02*
X033825Y003139D01*
X033858Y003125D02*
X033964Y003125D01*
X034062Y003166D01*
X034137Y003241D01*
X034178Y003339D01*
X034178Y003445D01*
X034137Y003543D01*
X034062Y003618D01*
X033964Y003658D01*
X033858Y003658D01*
X033760Y003618D01*
X033685Y003543D01*
X033644Y003445D01*
X033644Y003339D01*
X033685Y003241D01*
X033760Y003166D01*
X033858Y003125D01*
X033997Y003139D02*
X039196Y003139D01*
X039196Y003237D02*
X034134Y003237D01*
X034176Y003336D02*
X039196Y003336D01*
X039196Y003434D02*
X034892Y003434D01*
X034908Y003441D02*
X034983Y003516D01*
X035024Y003614D01*
X035024Y003720D01*
X034983Y003818D01*
X034908Y003893D01*
X034810Y003934D01*
X034704Y003934D01*
X034606Y003893D01*
X034532Y003818D01*
X034491Y003720D01*
X034491Y003614D01*
X034532Y003516D01*
X034606Y003441D01*
X034704Y003401D01*
X034810Y003401D01*
X034908Y003441D01*
X034990Y003533D02*
X039196Y003533D01*
X039196Y003632D02*
X035024Y003632D01*
X035020Y003730D02*
X039196Y003730D01*
X039196Y003829D02*
X034973Y003829D01*
X034827Y003927D02*
X039196Y003927D01*
X039196Y004026D02*
X031126Y004026D01*
X031126Y003992D02*
X031126Y004091D01*
X031089Y004181D01*
X031019Y004251D01*
X030929Y004288D01*
X030830Y004288D01*
X030740Y004251D01*
X030670Y004181D01*
X030633Y004091D01*
X030633Y003992D01*
X030670Y003902D01*
X030740Y003832D01*
X030830Y003795D01*
X030929Y003795D01*
X031019Y003832D01*
X031089Y003902D01*
X031126Y003992D01*
X031099Y003927D02*
X034688Y003927D01*
X034542Y003829D02*
X031011Y003829D01*
X030748Y003829D02*
X022386Y003829D01*
X022386Y003815D02*
X022386Y003913D01*
X022349Y004004D01*
X022279Y004074D01*
X022188Y004111D01*
X022090Y004111D01*
X022000Y004074D01*
X021930Y004004D01*
X021893Y003913D01*
X021893Y003815D01*
X021930Y003724D01*
X022000Y003655D01*
X022090Y003617D01*
X022188Y003617D01*
X022279Y003655D01*
X022349Y003724D01*
X022386Y003815D01*
X022351Y003730D02*
X034495Y003730D01*
X034491Y003632D02*
X034029Y003632D01*
X034141Y003533D02*
X034525Y003533D01*
X034623Y003434D02*
X034178Y003434D01*
X033794Y003632D02*
X033123Y003632D01*
X033235Y003533D02*
X033681Y003533D01*
X033644Y003434D02*
X033272Y003434D01*
X033271Y003336D02*
X033646Y003336D01*
X033689Y003237D02*
X033228Y003237D01*
X032783Y003237D02*
X006269Y003237D01*
X006286Y003245D02*
X006361Y003320D01*
X006402Y003418D01*
X006402Y003524D01*
X006361Y003621D01*
X006286Y003696D01*
X006188Y003737D01*
X006082Y003737D01*
X005984Y003696D01*
X005909Y003621D01*
X005869Y003524D01*
X005869Y003418D01*
X005909Y003320D01*
X005984Y003245D01*
X006082Y003204D01*
X006188Y003204D01*
X006286Y003245D01*
X006368Y003336D02*
X032740Y003336D01*
X032739Y003434D02*
X006402Y003434D01*
X006398Y003533D02*
X032776Y003533D01*
X032888Y003632D02*
X022223Y003632D01*
X022056Y003632D02*
X006351Y003632D01*
X006205Y003730D02*
X021928Y003730D01*
X021893Y003829D02*
X000477Y003829D01*
X000477Y003927D02*
X021898Y003927D01*
X021952Y004026D02*
X013150Y004026D01*
X013117Y003993D02*
X013192Y004068D01*
X013233Y004166D01*
X013233Y004272D01*
X013192Y004370D01*
X013117Y004444D01*
X013019Y004485D01*
X012913Y004485D01*
X012815Y004444D01*
X012740Y004370D01*
X012700Y004272D01*
X012700Y004166D01*
X012740Y004068D01*
X012815Y003993D01*
X012913Y003952D01*
X013019Y003952D01*
X013117Y003993D01*
X013216Y004124D02*
X026477Y004124D01*
X026459Y004166D02*
X026500Y004068D01*
X026575Y003993D01*
X026673Y003952D01*
X026779Y003952D01*
X026877Y003993D01*
X026952Y004068D01*
X026992Y004166D01*
X026992Y004272D01*
X026952Y004370D01*
X026877Y004444D01*
X026779Y004485D01*
X026673Y004485D01*
X026575Y004444D01*
X026500Y004370D01*
X026459Y004272D01*
X026459Y004166D01*
X026459Y004223D02*
X013233Y004223D01*
X013212Y004321D02*
X026480Y004321D01*
X026550Y004420D02*
X026017Y004420D01*
X026000Y004403D02*
X026069Y004472D01*
X026107Y004563D01*
X026107Y004661D01*
X026069Y004752D01*
X026000Y004822D01*
X025909Y004859D01*
X025811Y004859D01*
X025720Y004822D01*
X025651Y004752D01*
X025613Y004661D01*
X025613Y004563D01*
X025651Y004472D01*
X025720Y004403D01*
X025811Y004365D01*
X025909Y004365D01*
X026000Y004403D01*
X026088Y004518D02*
X033739Y004518D01*
X033723Y004480D02*
X033723Y004435D01*
X033723Y004390D01*
X033758Y004306D01*
X033822Y004243D01*
X033905Y004208D01*
X033950Y004208D01*
X033950Y004435D01*
X033723Y004435D01*
X033950Y004435D01*
X033950Y004435D01*
X033951Y004435D01*
X033951Y004435D01*
X034178Y004435D01*
X034178Y004390D01*
X034143Y004306D01*
X034079Y004243D01*
X033996Y004208D01*
X033951Y004208D01*
X033951Y004435D01*
X034178Y004435D01*
X034178Y004480D01*
X034143Y004564D01*
X034079Y004628D01*
X033996Y004662D01*
X033951Y004662D01*
X033951Y004436D01*
X033950Y004436D01*
X033950Y004662D01*
X033905Y004662D01*
X033822Y004628D01*
X033758Y004564D01*
X033723Y004480D01*
X033723Y004420D02*
X030445Y004420D01*
X030420Y004444D02*
X030322Y004485D01*
X030216Y004485D01*
X030118Y004444D01*
X030043Y004370D01*
X030003Y004272D01*
X030003Y004166D01*
X030043Y004068D01*
X030118Y003993D01*
X030216Y003952D01*
X030322Y003952D01*
X030420Y003993D01*
X030495Y004068D01*
X030536Y004166D01*
X030536Y004272D01*
X030495Y004370D01*
X030420Y004444D01*
X030515Y004321D02*
X033752Y004321D01*
X033869Y004223D02*
X031047Y004223D01*
X031112Y004124D02*
X039196Y004124D01*
X039196Y004223D02*
X034031Y004223D01*
X033951Y004223D02*
X033950Y004223D01*
X033950Y004321D02*
X033951Y004321D01*
X033950Y004420D02*
X033951Y004420D01*
X033950Y004518D02*
X033951Y004518D01*
X033950Y004617D02*
X033951Y004617D01*
X034090Y004617D02*
X039196Y004617D01*
X039196Y004716D02*
X036214Y004716D01*
X036177Y004700D02*
X036289Y004747D01*
X036375Y004833D01*
X036422Y004945D01*
X036422Y005067D01*
X036375Y005179D01*
X036289Y005265D01*
X036177Y005312D01*
X036055Y005312D01*
X035942Y005265D01*
X035856Y005179D01*
X035810Y005067D01*
X035810Y004945D01*
X035856Y004833D01*
X035942Y004747D01*
X036055Y004700D01*
X036177Y004700D01*
X036018Y004716D02*
X026084Y004716D01*
X026107Y004617D02*
X033811Y004617D01*
X034162Y004518D02*
X039196Y004518D01*
X039196Y004420D02*
X034178Y004420D01*
X034149Y004321D02*
X039196Y004321D01*
X039196Y004814D02*
X036356Y004814D01*
X036408Y004913D02*
X039196Y004913D01*
X039196Y005011D02*
X036422Y005011D01*
X036404Y005110D02*
X039196Y005110D01*
X039196Y005208D02*
X036346Y005208D01*
X036189Y005307D02*
X039196Y005307D01*
X039196Y005405D02*
X025178Y005405D01*
X025164Y005441D02*
X025201Y005350D01*
X025201Y005252D01*
X025164Y005161D01*
X025094Y005092D01*
X025003Y005054D01*
X024905Y005054D01*
X024814Y005092D01*
X024745Y005161D01*
X024707Y005252D01*
X024707Y005350D01*
X024745Y005441D01*
X024773Y005469D01*
X024745Y005496D01*
X024707Y005587D01*
X024707Y005685D01*
X024745Y005776D01*
X024814Y005845D01*
X024905Y005883D01*
X025003Y005883D01*
X025094Y005845D01*
X025164Y005776D01*
X025201Y005685D01*
X025201Y005587D01*
X025164Y005496D01*
X025136Y005469D01*
X025164Y005441D01*
X025167Y005504D02*
X039196Y005504D01*
X039196Y005602D02*
X033923Y005602D01*
X033902Y005581D02*
X033966Y005645D01*
X034000Y005728D01*
X034000Y005773D01*
X033774Y005773D01*
X033774Y005774D01*
X034000Y005774D01*
X034000Y005819D01*
X033966Y005902D01*
X033902Y005966D01*
X033818Y006001D01*
X033773Y006001D01*
X033728Y006001D01*
X033645Y005966D01*
X033581Y005902D01*
X033546Y005819D01*
X033546Y005774D01*
X033773Y005774D01*
X033773Y006001D01*
X033773Y005774D01*
X033773Y005774D01*
X033773Y005773D01*
X033773Y005773D01*
X033773Y005547D01*
X033728Y005547D01*
X033645Y005581D01*
X033581Y005645D01*
X033546Y005728D01*
X033546Y005773D01*
X033773Y005773D01*
X033773Y005547D01*
X033818Y005547D01*
X033902Y005581D01*
X033773Y005602D02*
X033773Y005602D01*
X033773Y005701D02*
X033773Y005701D01*
X033773Y005800D02*
X033773Y005800D01*
X033773Y005898D02*
X033773Y005898D01*
X033773Y005997D02*
X033773Y005997D01*
X033718Y005997D02*
X026805Y005997D01*
X026805Y005990D02*
X026805Y006147D01*
X026745Y006292D01*
X026746Y006292D02*
X039196Y006292D01*
X039196Y006194D02*
X026786Y006194D01*
X026805Y006095D02*
X039196Y006095D01*
X039196Y005997D02*
X033829Y005997D01*
X033968Y005898D02*
X039196Y005898D01*
X039196Y005800D02*
X034000Y005800D01*
X033989Y005701D02*
X039196Y005701D01*
X039196Y006391D02*
X030476Y006391D01*
X030440Y006355D02*
X030515Y006430D01*
X030555Y006528D01*
X030555Y006634D01*
X030515Y006732D01*
X030440Y006807D01*
X030342Y006847D01*
X030236Y006847D01*
X030138Y006807D01*
X030063Y006732D01*
X030022Y006634D01*
X030022Y006528D01*
X030063Y006430D01*
X030138Y006355D01*
X030236Y006314D01*
X030342Y006314D01*
X030440Y006355D01*
X030540Y006489D02*
X039196Y006489D01*
X039196Y006588D02*
X030555Y006588D01*
X030534Y006686D02*
X039196Y006686D01*
X039196Y006785D02*
X030462Y006785D01*
X030116Y006785D02*
X026879Y006785D01*
X026857Y006807D02*
X026932Y006732D01*
X026973Y006634D01*
X026973Y006528D01*
X026932Y006430D01*
X026857Y006355D01*
X026759Y006314D01*
X026724Y006314D01*
X026745Y006292D01*
X026893Y006391D02*
X030102Y006391D01*
X030038Y006489D02*
X026957Y006489D01*
X026973Y006588D02*
X030022Y006588D01*
X030044Y006686D02*
X026951Y006686D01*
X026857Y006807D02*
X026759Y006847D01*
X026653Y006847D01*
X026555Y006807D01*
X026480Y006732D01*
X026440Y006634D01*
X026440Y006528D01*
X026466Y006463D01*
X026333Y006463D01*
X026188Y006403D01*
X026077Y006292D01*
X000477Y006292D01*
X000477Y006194D02*
X026036Y006194D01*
X026017Y006147D02*
X026077Y006292D01*
X026175Y006391D02*
X013153Y006391D01*
X013117Y006355D02*
X013192Y006430D01*
X013233Y006528D01*
X013233Y006634D01*
X013192Y006732D01*
X013117Y006807D01*
X013019Y006847D01*
X012913Y006847D01*
X012815Y006807D01*
X012740Y006732D01*
X012700Y006634D01*
X012700Y006528D01*
X012740Y006430D01*
X012815Y006355D01*
X012913Y006314D01*
X013019Y006314D01*
X013117Y006355D01*
X013217Y006489D02*
X019759Y006489D01*
X019772Y006476D02*
X019878Y006432D01*
X019926Y006432D01*
X019926Y006709D01*
X019944Y006709D01*
X019944Y006432D01*
X019992Y006432D01*
X020097Y006476D01*
X020177Y006556D01*
X020221Y006662D01*
X020221Y006709D01*
X019944Y006709D01*
X019944Y006728D01*
X019926Y006728D01*
X019926Y007005D01*
X019878Y007005D01*
X019772Y006961D01*
X019692Y006881D01*
X019648Y006776D01*
X019648Y006728D01*
X019925Y006728D01*
X019925Y006709D01*
X019648Y006709D01*
X019648Y006662D01*
X019692Y006556D01*
X019772Y006476D01*
X019679Y006588D02*
X013233Y006588D01*
X013211Y006686D02*
X019648Y006686D01*
X019652Y006785D02*
X013139Y006785D01*
X012793Y006785D02*
X009556Y006785D01*
X009534Y006807D02*
X009609Y006732D01*
X009650Y006634D01*
X009650Y006528D01*
X009609Y006430D01*
X009534Y006355D01*
X009436Y006314D01*
X009330Y006314D01*
X009232Y006355D01*
X009158Y006430D01*
X009117Y006528D01*
X009117Y006634D01*
X009158Y006732D01*
X009232Y006807D01*
X009330Y006847D01*
X009436Y006847D01*
X009534Y006807D01*
X009628Y006686D02*
X012721Y006686D01*
X012700Y006588D02*
X009650Y006588D01*
X009634Y006489D02*
X012716Y006489D01*
X012779Y006391D02*
X009570Y006391D01*
X009197Y006391D02*
X000477Y006391D01*
X000477Y006489D02*
X009133Y006489D01*
X009117Y006588D02*
X000477Y006588D01*
X000477Y006686D02*
X009139Y006686D01*
X009211Y006785D02*
X000477Y006785D01*
X000477Y006884D02*
X019695Y006884D01*
X019823Y006982D02*
X000477Y006982D01*
X000477Y007081D02*
X032164Y007081D01*
X032148Y007118D02*
X032189Y007020D01*
X032264Y006945D01*
X032362Y006905D01*
X032468Y006905D01*
X032566Y006945D01*
X032641Y007020D01*
X032681Y007118D01*
X032681Y007224D01*
X032641Y007322D01*
X032566Y007397D01*
X032468Y007438D01*
X032362Y007438D01*
X032264Y007397D01*
X032189Y007322D01*
X032148Y007224D01*
X032148Y007118D01*
X032148Y007179D02*
X000477Y007179D01*
X000477Y007278D02*
X032171Y007278D01*
X032243Y007376D02*
X000477Y007376D01*
X000477Y007475D02*
X039196Y007475D01*
X039196Y007573D02*
X000477Y007573D01*
X000477Y007672D02*
X013017Y007672D01*
X012982Y007707D02*
X013068Y007621D01*
X013181Y007574D01*
X013303Y007574D01*
X013415Y007621D01*
X013501Y007707D01*
X013548Y007819D01*
X013548Y007941D01*
X013501Y008053D01*
X013415Y008139D01*
X013303Y008186D01*
X013181Y008186D01*
X013068Y008139D01*
X012982Y008053D01*
X012936Y007941D01*
X012936Y007819D01*
X012982Y007707D01*
X012956Y007770D02*
X000477Y007770D01*
X000477Y007869D02*
X012936Y007869D01*
X012947Y007967D02*
X000477Y007967D01*
X000477Y008066D02*
X012995Y008066D01*
X013129Y008165D02*
X000477Y008165D01*
X000477Y008263D02*
X018674Y008263D01*
X018674Y008254D02*
X018734Y008109D01*
X018845Y007998D01*
X018990Y007938D01*
X019147Y007938D01*
X019292Y007998D01*
X019403Y008109D01*
X019463Y008254D01*
X019463Y008411D01*
X019403Y008556D01*
X019292Y008667D01*
X019147Y008727D01*
X018990Y008727D01*
X018845Y008667D01*
X018734Y008556D01*
X018674Y008411D01*
X018674Y008254D01*
X018711Y008165D02*
X013354Y008165D01*
X013488Y008066D02*
X018777Y008066D01*
X018919Y007967D02*
X013537Y007967D01*
X013548Y007869D02*
X021900Y007869D01*
X021891Y007878D02*
X021960Y007809D01*
X022051Y007771D01*
X022149Y007771D01*
X022240Y007809D01*
X022309Y007878D01*
X022347Y007969D01*
X022347Y008067D01*
X022309Y008158D01*
X022240Y008227D01*
X022149Y008265D01*
X022051Y008265D01*
X021960Y008227D01*
X021891Y008158D01*
X021853Y008067D01*
X021853Y007969D01*
X021891Y007878D01*
X021854Y007967D02*
X019217Y007967D01*
X019360Y008066D02*
X021853Y008066D01*
X021898Y008165D02*
X019426Y008165D01*
X019463Y008263D02*
X022047Y008263D01*
X022153Y008263D02*
X025639Y008263D01*
X025641Y008261D02*
X025732Y008224D01*
X025830Y008224D01*
X025921Y008261D01*
X025990Y008331D01*
X026028Y008421D01*
X026028Y008520D01*
X025990Y008610D01*
X025921Y008680D01*
X025830Y008717D01*
X025732Y008717D01*
X025641Y008680D01*
X025572Y008610D01*
X025534Y008520D01*
X025534Y008421D01*
X025572Y008331D01*
X025641Y008261D01*
X025559Y008362D02*
X019463Y008362D01*
X019443Y008460D02*
X025534Y008460D01*
X025550Y008559D02*
X019400Y008559D01*
X019302Y008657D02*
X025619Y008657D01*
X025943Y008657D02*
X039196Y008657D01*
X039196Y008559D02*
X026012Y008559D01*
X026028Y008460D02*
X039196Y008460D01*
X039196Y008362D02*
X026003Y008362D01*
X025923Y008263D02*
X039196Y008263D01*
X039196Y008165D02*
X022302Y008165D01*
X022347Y008066D02*
X039196Y008066D01*
X039196Y007967D02*
X022346Y007967D01*
X022300Y007869D02*
X039196Y007869D01*
X039196Y007770D02*
X013527Y007770D01*
X013466Y007672D02*
X039196Y007672D01*
X039196Y007376D02*
X032587Y007376D01*
X032659Y007278D02*
X039196Y007278D01*
X039196Y007179D02*
X032681Y007179D01*
X032666Y007081D02*
X039196Y007081D01*
X039196Y006982D02*
X032603Y006982D01*
X032227Y006982D02*
X020046Y006982D01*
X020097Y006961D02*
X019992Y007005D01*
X019944Y007005D01*
X019944Y006728D01*
X020221Y006728D01*
X020221Y006776D01*
X020177Y006881D01*
X020097Y006961D01*
X020174Y006884D02*
X023136Y006884D01*
X023111Y006858D02*
X023074Y006768D01*
X023074Y006669D01*
X023111Y006579D01*
X023181Y006509D01*
X023271Y006472D01*
X023370Y006472D01*
X023460Y006509D01*
X023530Y006579D01*
X023567Y006669D01*
X023567Y006768D01*
X023530Y006858D01*
X023460Y006928D01*
X023370Y006965D01*
X023271Y006965D01*
X023181Y006928D01*
X023111Y006858D01*
X023081Y006785D02*
X020217Y006785D01*
X020221Y006686D02*
X023074Y006686D01*
X023107Y006588D02*
X020190Y006588D01*
X020110Y006489D02*
X023229Y006489D01*
X023412Y006489D02*
X026456Y006489D01*
X026440Y006588D02*
X023534Y006588D01*
X023567Y006686D02*
X026462Y006686D01*
X026534Y006785D02*
X023560Y006785D01*
X023505Y006884D02*
X039196Y006884D01*
X039196Y008756D02*
X030498Y008756D01*
X030535Y008792D02*
X030575Y008890D01*
X030575Y008996D01*
X030535Y009094D01*
X030460Y009169D01*
X030362Y009209D01*
X030256Y009209D01*
X030158Y009169D01*
X030083Y009094D01*
X030042Y008996D01*
X030042Y008890D01*
X030083Y008792D01*
X030158Y008717D01*
X030256Y008676D01*
X030362Y008676D01*
X030460Y008717D01*
X030535Y008792D01*
X030560Y008854D02*
X039196Y008854D01*
X039196Y008953D02*
X030575Y008953D01*
X030552Y009051D02*
X039196Y009051D01*
X039196Y009150D02*
X030479Y009150D01*
X030139Y009150D02*
X026876Y009150D01*
X026857Y009169D02*
X026759Y009209D01*
X026653Y009209D01*
X026555Y009169D01*
X026480Y009094D01*
X026440Y008996D01*
X026440Y008890D01*
X026480Y008792D01*
X026555Y008717D01*
X026653Y008676D01*
X026759Y008676D01*
X026857Y008717D01*
X026932Y008792D01*
X026973Y008890D01*
X026973Y008996D01*
X026932Y009094D01*
X026857Y009169D01*
X026950Y009051D02*
X030065Y009051D01*
X030042Y008953D02*
X026973Y008953D01*
X026958Y008854D02*
X030057Y008854D01*
X030119Y008756D02*
X026896Y008756D01*
X026517Y008756D02*
X015293Y008756D01*
X015291Y008753D02*
X015360Y008823D01*
X015398Y008914D01*
X015398Y009012D01*
X015360Y009102D01*
X015291Y009172D01*
X015200Y009209D01*
X015102Y009209D01*
X015011Y009172D01*
X014942Y009102D01*
X014904Y009012D01*
X014904Y008914D01*
X014942Y008823D01*
X015011Y008753D01*
X015102Y008716D01*
X015200Y008716D01*
X015291Y008753D01*
X015373Y008854D02*
X018496Y008854D01*
X018513Y008838D02*
X018618Y008795D01*
X018666Y008795D01*
X018666Y009071D01*
X018684Y009071D01*
X018684Y008795D01*
X018732Y008795D01*
X018837Y008838D01*
X018917Y008919D01*
X018961Y009024D01*
X018961Y009072D01*
X018684Y009072D01*
X018684Y009090D01*
X018666Y009090D01*
X018666Y009367D01*
X018618Y009367D01*
X018513Y009323D01*
X018432Y009243D01*
X018389Y009138D01*
X018389Y009090D01*
X018665Y009090D01*
X018665Y009072D01*
X018389Y009072D01*
X018389Y009024D01*
X018432Y008919D01*
X018513Y008838D01*
X018418Y008953D02*
X015924Y008953D01*
X015921Y008950D02*
X015990Y009020D01*
X016028Y009110D01*
X016028Y009209D01*
X015990Y009299D01*
X015966Y009324D01*
X016008Y009306D01*
X016106Y009306D01*
X016196Y009344D01*
X016266Y009413D01*
X016304Y009504D01*
X016304Y009602D01*
X016266Y009693D01*
X016196Y009762D01*
X016106Y009800D01*
X016008Y009800D01*
X015917Y009762D01*
X015847Y009693D01*
X015810Y009602D01*
X015810Y009504D01*
X015847Y009413D01*
X015872Y009389D01*
X015830Y009406D01*
X015732Y009406D01*
X015641Y009369D01*
X015572Y009299D01*
X015534Y009209D01*
X015534Y009110D01*
X015572Y009020D01*
X015641Y008950D01*
X015732Y008913D01*
X015830Y008913D01*
X015921Y008950D01*
X016004Y009051D02*
X018389Y009051D01*
X018394Y009150D02*
X016028Y009150D01*
X016011Y009249D02*
X018438Y009249D01*
X018570Y009347D02*
X016200Y009347D01*
X016279Y009446D02*
X019583Y009446D01*
X019580Y009455D02*
X019640Y009310D01*
X019751Y009199D01*
X019896Y009139D01*
X020052Y009139D01*
X020197Y009199D01*
X020308Y009310D01*
X020368Y009455D01*
X020368Y009612D01*
X020308Y009757D01*
X020197Y009868D01*
X020052Y009928D01*
X019896Y009928D01*
X019751Y009868D01*
X019640Y009757D01*
X019580Y009612D01*
X019580Y009455D01*
X019580Y009544D02*
X016304Y009544D01*
X016287Y009643D02*
X019592Y009643D01*
X019633Y009741D02*
X016218Y009741D01*
X016291Y009895D02*
X016382Y009858D01*
X016480Y009858D01*
X016571Y009895D01*
X016640Y009965D01*
X016678Y010055D01*
X016678Y010154D01*
X016640Y010244D01*
X016571Y010314D01*
X016480Y010351D01*
X016382Y010351D01*
X016291Y010314D01*
X016221Y010244D01*
X016184Y010154D01*
X016184Y010055D01*
X016221Y009965D01*
X016291Y009895D01*
X016248Y009938D02*
X006792Y009938D01*
X006775Y009980D02*
X006700Y010055D01*
X006602Y010095D01*
X006496Y010095D01*
X006398Y010055D01*
X006323Y009980D01*
X006282Y009882D01*
X006282Y009776D01*
X006323Y009678D01*
X006398Y009603D01*
X006496Y009562D01*
X006602Y009562D01*
X006700Y009603D01*
X006775Y009678D01*
X006815Y009776D01*
X006815Y009882D01*
X006775Y009980D01*
X006718Y010037D02*
X016191Y010037D01*
X016184Y010135D02*
X000477Y010135D01*
X000477Y010037D02*
X006380Y010037D01*
X006306Y009938D02*
X000477Y009938D01*
X000477Y009840D02*
X006282Y009840D01*
X006297Y009741D02*
X000477Y009741D01*
X000477Y009643D02*
X006358Y009643D01*
X006740Y009643D02*
X015827Y009643D01*
X015810Y009544D02*
X014053Y009544D01*
X014031Y009566D02*
X013940Y009603D01*
X013842Y009603D01*
X013751Y009566D01*
X013682Y009496D01*
X013644Y009405D01*
X013644Y009307D01*
X013682Y009217D01*
X013751Y009147D01*
X013842Y009110D01*
X013940Y009110D01*
X014031Y009147D01*
X014101Y009217D01*
X014138Y009307D01*
X014138Y009405D01*
X014101Y009496D01*
X014031Y009566D01*
X014122Y009446D02*
X015834Y009446D01*
X015620Y009347D02*
X014138Y009347D01*
X014114Y009249D02*
X015551Y009249D01*
X015534Y009150D02*
X015313Y009150D01*
X015382Y009051D02*
X015559Y009051D01*
X015639Y008953D02*
X015398Y008953D01*
X015009Y008756D02*
X014664Y008756D01*
X014661Y008753D02*
X014731Y008823D01*
X014768Y008914D01*
X014768Y009012D01*
X014731Y009102D01*
X014661Y009172D01*
X014570Y009209D01*
X014472Y009209D01*
X014381Y009172D01*
X014312Y009102D01*
X014274Y009012D01*
X014274Y008914D01*
X014312Y008823D01*
X014381Y008753D01*
X014472Y008716D01*
X014570Y008716D01*
X014661Y008753D01*
X014744Y008854D02*
X014929Y008854D01*
X014904Y008953D02*
X014768Y008953D01*
X014752Y009051D02*
X014921Y009051D01*
X014989Y009150D02*
X014683Y009150D01*
X014359Y009150D02*
X014034Y009150D01*
X014291Y009051D02*
X013210Y009051D01*
X013192Y009094D02*
X013117Y009169D01*
X013019Y009209D01*
X012913Y009209D01*
X012815Y009169D01*
X012740Y009094D01*
X012700Y008996D01*
X012700Y008890D01*
X012740Y008792D01*
X012815Y008717D01*
X012913Y008676D01*
X013019Y008676D01*
X013117Y008717D01*
X013192Y008792D01*
X013233Y008890D01*
X013233Y008996D01*
X013192Y009094D01*
X013136Y009150D02*
X013749Y009150D01*
X013669Y009249D02*
X000477Y009249D01*
X000477Y009347D02*
X013644Y009347D01*
X013661Y009446D02*
X000477Y009446D01*
X000477Y009544D02*
X013730Y009544D01*
X013233Y008953D02*
X014274Y008953D01*
X014299Y008854D02*
X013218Y008854D01*
X013156Y008756D02*
X014379Y008756D01*
X012776Y008756D02*
X009573Y008756D01*
X009609Y008792D02*
X009650Y008890D01*
X009650Y008996D01*
X009609Y009094D01*
X009534Y009169D01*
X009436Y009209D01*
X009330Y009209D01*
X009232Y009169D01*
X009158Y009094D01*
X009117Y008996D01*
X009117Y008890D01*
X009158Y008792D01*
X009232Y008717D01*
X009330Y008676D01*
X009436Y008676D01*
X009534Y008717D01*
X009609Y008792D01*
X009635Y008854D02*
X012714Y008854D01*
X012700Y008953D02*
X009650Y008953D01*
X009627Y009051D02*
X012723Y009051D01*
X012796Y009150D02*
X009553Y009150D01*
X009214Y009150D02*
X000477Y009150D01*
X000477Y009051D02*
X009140Y009051D01*
X009117Y008953D02*
X000477Y008953D01*
X000477Y008854D02*
X009132Y008854D01*
X009194Y008756D02*
X000477Y008756D01*
X000477Y008657D02*
X018835Y008657D01*
X018737Y008559D02*
X000477Y008559D01*
X000477Y008460D02*
X018694Y008460D01*
X018674Y008362D02*
X000477Y008362D01*
X000477Y010234D02*
X016217Y010234D01*
X016336Y010333D02*
X000477Y010333D01*
X000477Y010431D02*
X032635Y010431D01*
X032621Y010465D02*
X032661Y010367D01*
X032736Y010292D01*
X032834Y010251D01*
X032940Y010251D01*
X033038Y010292D01*
X033113Y010367D01*
X033154Y010465D01*
X033154Y010571D01*
X033113Y010669D01*
X033038Y010744D01*
X032940Y010784D01*
X032834Y010784D01*
X032736Y010744D01*
X032661Y010669D01*
X032621Y010571D01*
X032621Y010465D01*
X032621Y010530D02*
X000477Y010530D01*
X000477Y010628D02*
X013018Y010628D01*
X013043Y010604D02*
X013134Y010566D01*
X013232Y010566D01*
X013322Y010604D01*
X013392Y010673D01*
X013429Y010764D01*
X013429Y010862D01*
X013392Y010953D01*
X013322Y011022D01*
X016381Y011022D01*
X016381Y011000D02*
X016418Y010909D01*
X016488Y010840D01*
X016578Y010802D01*
X016677Y010802D01*
X016767Y010840D01*
X016837Y010909D01*
X016874Y011000D01*
X016874Y011098D01*
X016837Y011189D01*
X016767Y011259D01*
X016677Y011296D01*
X016578Y011296D01*
X016488Y011259D01*
X016418Y011189D01*
X016381Y011098D01*
X016381Y011000D01*
X016412Y010924D02*
X013404Y010924D01*
X013429Y010825D02*
X016523Y010825D01*
X016732Y010825D02*
X019727Y010825D01*
X019727Y010843D02*
X019727Y010795D01*
X019771Y010690D01*
X019851Y010610D01*
X019956Y010566D01*
X020004Y010566D01*
X020004Y010843D01*
X020022Y010843D01*
X020022Y010566D01*
X020070Y010566D01*
X020176Y010610D01*
X020256Y010690D01*
X020300Y010795D01*
X020300Y010843D01*
X020023Y010843D01*
X020023Y010861D01*
X020300Y010861D01*
X020300Y010909D01*
X020256Y011015D01*
X020176Y011095D01*
X020070Y011139D01*
X020022Y011139D01*
X020022Y010862D01*
X020004Y010862D01*
X020004Y011139D01*
X019956Y011139D01*
X019851Y011095D01*
X019771Y011015D01*
X019727Y010909D01*
X019727Y010861D01*
X020004Y010861D01*
X020004Y010843D01*
X019727Y010843D01*
X019733Y010924D02*
X016843Y010924D01*
X016874Y011022D02*
X019779Y011022D01*
X019914Y011121D02*
X016865Y011121D01*
X016806Y011219D02*
X026434Y011219D01*
X026420Y011252D02*
X026461Y011154D01*
X026536Y011079D01*
X026634Y011039D01*
X026740Y011039D01*
X026838Y011079D01*
X026913Y011154D01*
X026953Y011252D01*
X026953Y011358D01*
X026913Y011456D01*
X026838Y011531D01*
X026740Y011572D01*
X026634Y011572D01*
X026536Y011531D01*
X026461Y011456D01*
X026420Y011358D01*
X026420Y011252D01*
X026420Y011318D02*
X013213Y011318D01*
X013213Y011358D02*
X013172Y011456D01*
X013097Y011531D01*
X012999Y011572D01*
X012893Y011572D01*
X012795Y011531D01*
X012721Y011456D01*
X012680Y011358D01*
X012680Y011252D01*
X012721Y011154D01*
X012795Y011079D01*
X012893Y011039D01*
X012999Y011039D01*
X013097Y011079D01*
X013172Y011154D01*
X013213Y011252D01*
X013213Y011358D01*
X013189Y011416D02*
X026444Y011416D01*
X026520Y011515D02*
X013113Y011515D01*
X013199Y011219D02*
X016449Y011219D01*
X016390Y011121D02*
X013139Y011121D01*
X013134Y011060D02*
X013043Y011022D01*
X000477Y011022D01*
X000477Y010924D02*
X012961Y010924D01*
X012973Y010953D02*
X012936Y010862D01*
X012936Y010764D01*
X012973Y010673D01*
X013043Y010604D01*
X012951Y010727D02*
X000477Y010727D01*
X000477Y010825D02*
X012936Y010825D01*
X012973Y010953D02*
X013043Y011022D01*
X013134Y011060D02*
X013232Y011060D01*
X013322Y011022D01*
X013414Y010727D02*
X019756Y010727D01*
X019833Y010628D02*
X013347Y010628D01*
X012754Y011121D02*
X009576Y011121D01*
X009609Y011154D02*
X009650Y011252D01*
X009650Y011358D01*
X009609Y011456D01*
X009534Y011531D01*
X009436Y011572D01*
X009330Y011572D01*
X009232Y011531D01*
X009158Y011456D01*
X009117Y011358D01*
X009117Y011252D01*
X009158Y011154D01*
X009232Y011079D01*
X009330Y011039D01*
X009436Y011039D01*
X009534Y011079D01*
X009609Y011154D01*
X009636Y011219D02*
X012693Y011219D01*
X012680Y011318D02*
X009650Y011318D01*
X009626Y011416D02*
X012704Y011416D01*
X012779Y011515D02*
X009550Y011515D01*
X009216Y011515D02*
X000477Y011515D01*
X000477Y011416D02*
X009141Y011416D01*
X009117Y011318D02*
X000477Y011318D01*
X000477Y011219D02*
X009130Y011219D01*
X009191Y011121D02*
X000477Y011121D01*
X000477Y011614D02*
X039196Y011614D01*
X039196Y011712D02*
X000477Y011712D01*
X000477Y011811D02*
X039196Y011811D01*
X039196Y011909D02*
X022423Y011909D01*
X022397Y011883D02*
X022467Y011953D01*
X022504Y012043D01*
X022504Y012142D01*
X022467Y012232D01*
X022397Y012302D01*
X022307Y012339D01*
X022208Y012339D01*
X022118Y012302D01*
X022048Y012232D01*
X022011Y012142D01*
X022011Y012043D01*
X022048Y011953D01*
X022118Y011883D01*
X022208Y011846D01*
X022307Y011846D01*
X022397Y011883D01*
X022489Y012008D02*
X039196Y012008D01*
X039196Y012106D02*
X025888Y012106D01*
X025912Y012130D02*
X025949Y012221D01*
X025949Y012319D01*
X025912Y012410D01*
X025842Y012479D01*
X025751Y012517D01*
X025653Y012517D01*
X025563Y012479D01*
X025493Y012410D01*
X025456Y012319D01*
X025456Y012221D01*
X025493Y012130D01*
X025563Y012060D01*
X025653Y012023D01*
X025751Y012023D01*
X025842Y012060D01*
X025912Y012130D01*
X025943Y012205D02*
X039196Y012205D01*
X039196Y012303D02*
X025949Y012303D01*
X025915Y012402D02*
X039196Y012402D01*
X039196Y012500D02*
X025790Y012500D01*
X025614Y012500D02*
X017719Y012500D01*
X017721Y012504D02*
X017721Y012626D01*
X017674Y012738D01*
X017588Y012824D01*
X017476Y012871D01*
X017354Y012871D01*
X017242Y012824D01*
X017156Y012738D01*
X017109Y012626D01*
X017109Y012504D01*
X017156Y012392D01*
X017242Y012306D01*
X017354Y012259D01*
X017476Y012259D01*
X017588Y012306D01*
X017674Y012392D01*
X017721Y012504D01*
X017721Y012599D02*
X039196Y012599D01*
X039196Y012698D02*
X017691Y012698D01*
X017616Y012796D02*
X039196Y012796D01*
X039196Y012895D02*
X006865Y012895D01*
X006853Y012867D02*
X006894Y012965D01*
X006894Y013071D01*
X006853Y013169D01*
X006779Y013244D01*
X006681Y013284D01*
X006575Y013284D01*
X006477Y013244D01*
X006402Y013169D01*
X006361Y013071D01*
X006361Y012965D01*
X006402Y012867D01*
X006477Y012792D01*
X006575Y012751D01*
X006681Y012751D01*
X006779Y012792D01*
X006853Y012867D01*
X006783Y012796D02*
X017213Y012796D01*
X017139Y012698D02*
X000477Y012698D01*
X000477Y012796D02*
X006472Y012796D01*
X006390Y012895D02*
X004871Y012895D01*
X004908Y012910D02*
X004983Y012985D01*
X005024Y013083D01*
X005024Y013189D01*
X004983Y013287D01*
X004908Y013362D01*
X004810Y013402D01*
X004704Y013402D01*
X004606Y013362D01*
X004532Y013287D01*
X004491Y013189D01*
X004491Y013083D01*
X004532Y012985D01*
X004606Y012910D01*
X004704Y012869D01*
X004810Y012869D01*
X004908Y012910D01*
X004987Y012993D02*
X006361Y012993D01*
X006370Y013092D02*
X005024Y013092D01*
X005023Y013190D02*
X006423Y013190D01*
X006832Y013190D02*
X013921Y013190D01*
X013945Y013132D02*
X014065Y013013D01*
X014220Y012948D01*
X014389Y012948D01*
X014545Y013013D01*
X014664Y013132D01*
X014729Y013288D01*
X014729Y013456D01*
X014664Y013612D01*
X014545Y013732D01*
X014389Y013796D01*
X014220Y013796D01*
X014065Y013732D01*
X013945Y013612D01*
X013881Y013456D01*
X013881Y013288D01*
X013945Y013132D01*
X013985Y013092D02*
X006885Y013092D01*
X006894Y012993D02*
X014111Y012993D01*
X013881Y013289D02*
X004981Y013289D01*
X004847Y013387D02*
X013881Y013387D01*
X013893Y013486D02*
X013162Y013486D01*
X013192Y013516D02*
X013233Y013614D01*
X013233Y013720D01*
X013192Y013818D01*
X013117Y013893D01*
X013019Y013934D01*
X012913Y013934D01*
X012815Y013893D01*
X012740Y013818D01*
X012700Y013720D01*
X012700Y013614D01*
X012740Y013516D01*
X012815Y013441D01*
X012913Y013401D01*
X013019Y013401D01*
X013117Y013441D01*
X013192Y013516D01*
X013220Y013584D02*
X013934Y013584D01*
X014016Y013683D02*
X013233Y013683D01*
X013207Y013782D02*
X014185Y013782D01*
X014424Y013782D02*
X019524Y013782D01*
X019501Y013726D02*
X019561Y013871D01*
X019672Y013982D01*
X019817Y014042D01*
X019974Y014042D01*
X020119Y013982D01*
X020230Y013871D01*
X020290Y013726D01*
X020290Y013569D01*
X020230Y013424D01*
X020119Y013313D01*
X019974Y013253D01*
X019817Y013253D01*
X019672Y013313D01*
X019561Y013424D01*
X019501Y013569D01*
X019501Y013726D01*
X019501Y013683D02*
X014593Y013683D01*
X014676Y013584D02*
X019501Y013584D01*
X019535Y013486D02*
X014717Y013486D01*
X014729Y013387D02*
X019598Y013387D01*
X019731Y013289D02*
X014729Y013289D01*
X014688Y013190D02*
X022304Y013190D01*
X022275Y013202D02*
X022366Y013165D01*
X022464Y013165D01*
X022555Y013202D01*
X022624Y013272D01*
X022662Y013362D01*
X022662Y013461D01*
X022624Y013551D01*
X022555Y013621D01*
X022464Y013658D01*
X022366Y013658D01*
X022275Y013621D01*
X022206Y013551D01*
X022168Y013461D01*
X022168Y013362D01*
X022206Y013272D01*
X022275Y013202D01*
X022199Y013289D02*
X020060Y013289D01*
X020193Y013387D02*
X022168Y013387D01*
X022179Y013486D02*
X020255Y013486D01*
X020290Y013584D02*
X022239Y013584D01*
X022591Y013584D02*
X022661Y013584D01*
X022669Y013576D02*
X022760Y013539D01*
X022858Y013539D01*
X022948Y013576D01*
X023018Y013646D01*
X023055Y013736D01*
X023055Y013835D01*
X023038Y013877D01*
X023094Y013854D01*
X023192Y013854D01*
X023283Y013891D01*
X023353Y013961D01*
X023379Y014026D01*
X023406Y013961D01*
X023476Y013891D01*
X023567Y013854D01*
X023665Y013854D01*
X023756Y013891D01*
X023825Y013961D01*
X023863Y014051D01*
X023863Y014150D01*
X023825Y014240D01*
X023756Y014310D01*
X023665Y014347D01*
X023567Y014347D01*
X023476Y014310D01*
X023406Y014240D01*
X023379Y014175D01*
X023353Y014240D01*
X023283Y014310D01*
X023192Y014347D01*
X023094Y014347D01*
X023003Y014310D01*
X022934Y014240D01*
X022896Y014150D01*
X022896Y014051D01*
X022914Y014009D01*
X022858Y014032D01*
X022760Y014032D01*
X022669Y013995D01*
X022599Y013925D01*
X022562Y013835D01*
X022562Y013736D01*
X022599Y013646D01*
X022669Y013576D01*
X022651Y013486D02*
X024747Y013486D01*
X024745Y013488D02*
X024814Y013419D01*
X024905Y013381D01*
X025003Y013381D01*
X025094Y013419D01*
X025164Y013488D01*
X025201Y013579D01*
X025201Y013677D01*
X025164Y013768D01*
X025094Y013837D01*
X025003Y013875D01*
X024905Y013875D01*
X024814Y013837D01*
X024745Y013768D01*
X024707Y013677D01*
X024707Y013579D01*
X024745Y013488D01*
X024707Y013584D02*
X022957Y013584D01*
X023033Y013683D02*
X024710Y013683D01*
X024649Y013755D02*
X024740Y013793D01*
X024809Y013862D01*
X024847Y013953D01*
X024847Y014051D01*
X024809Y014142D01*
X024740Y014211D01*
X024649Y014249D01*
X024551Y014249D01*
X024460Y014211D01*
X024391Y014142D01*
X024353Y014051D01*
X024353Y013953D01*
X024391Y013862D01*
X024460Y013793D01*
X024551Y013755D01*
X024649Y013755D01*
X024713Y013782D02*
X024759Y013782D01*
X024817Y013880D02*
X026542Y013880D01*
X026555Y013893D02*
X026480Y013818D01*
X026440Y013720D01*
X026440Y013614D01*
X026480Y013516D01*
X026555Y013441D01*
X026653Y013401D01*
X026759Y013401D01*
X026857Y013441D01*
X026932Y013516D01*
X026973Y013614D01*
X026973Y013720D01*
X026932Y013818D01*
X026857Y013893D01*
X026759Y013934D01*
X026653Y013934D01*
X026555Y013893D01*
X026465Y013782D02*
X025150Y013782D01*
X025199Y013683D02*
X026440Y013683D01*
X026452Y013584D02*
X025201Y013584D01*
X025161Y013486D02*
X026511Y013486D01*
X026902Y013486D02*
X030133Y013486D01*
X030102Y013516D02*
X030177Y013441D01*
X030275Y013401D01*
X030381Y013401D01*
X030479Y013441D01*
X030554Y013516D01*
X030595Y013614D01*
X030595Y013720D01*
X030554Y013818D01*
X030479Y013893D01*
X030381Y013934D01*
X030275Y013934D01*
X030177Y013893D01*
X030102Y013818D01*
X030062Y013720D01*
X030062Y013614D01*
X030102Y013516D01*
X030074Y013584D02*
X026960Y013584D01*
X026973Y013683D02*
X030062Y013683D01*
X030087Y013782D02*
X026947Y013782D01*
X026870Y013880D02*
X030164Y013880D01*
X030493Y013880D02*
X032989Y013880D01*
X032996Y013897D02*
X032956Y013799D01*
X032956Y013693D01*
X032996Y013595D01*
X033071Y013520D01*
X033169Y013480D01*
X033275Y013480D01*
X033373Y013520D01*
X033448Y013595D01*
X033489Y013693D01*
X033489Y013799D01*
X033448Y013897D01*
X033373Y013972D01*
X033275Y014013D01*
X033169Y014013D01*
X033071Y013972D01*
X032996Y013897D01*
X033087Y013979D02*
X024847Y013979D01*
X024836Y014077D02*
X039196Y014077D01*
X039196Y013979D02*
X033357Y013979D01*
X033455Y013880D02*
X039196Y013880D01*
X039196Y013782D02*
X033489Y013782D01*
X033484Y013683D02*
X039196Y013683D01*
X039196Y013584D02*
X033437Y013584D01*
X033290Y013486D02*
X039196Y013486D01*
X039196Y013387D02*
X025018Y013387D01*
X024890Y013387D02*
X022662Y013387D01*
X022631Y013289D02*
X039196Y013289D01*
X039196Y013190D02*
X022526Y013190D01*
X022584Y013683D02*
X020290Y013683D01*
X020267Y013782D02*
X022562Y013782D01*
X022581Y013880D02*
X020221Y013880D01*
X020122Y013979D02*
X022653Y013979D01*
X022896Y014077D02*
X000477Y014077D01*
X000477Y013979D02*
X019668Y013979D01*
X019570Y013880D02*
X013130Y013880D01*
X012802Y013880D02*
X009548Y013880D01*
X009534Y013893D02*
X009436Y013934D01*
X009330Y013934D01*
X009232Y013893D01*
X009158Y013818D01*
X009117Y013720D01*
X009117Y013614D01*
X009158Y013516D01*
X009232Y013441D01*
X009330Y013401D01*
X009436Y013401D01*
X009534Y013441D01*
X009609Y013516D01*
X009650Y013614D01*
X009650Y013720D01*
X009609Y013818D01*
X009534Y013893D01*
X009625Y013782D02*
X012725Y013782D01*
X012700Y013683D02*
X009650Y013683D01*
X009638Y013584D02*
X012712Y013584D01*
X012771Y013486D02*
X009579Y013486D01*
X009188Y013486D02*
X000477Y013486D01*
X000477Y013584D02*
X009129Y013584D01*
X009117Y013683D02*
X000477Y013683D01*
X000477Y013782D02*
X009142Y013782D01*
X009219Y013880D02*
X000477Y013880D01*
X000477Y014176D02*
X022907Y014176D01*
X022968Y014274D02*
X000477Y014274D01*
X000477Y014373D02*
X014496Y014373D01*
X014517Y014351D02*
X014398Y014471D01*
X000477Y014471D01*
X000477Y014570D02*
X014357Y014570D01*
X014333Y014626D02*
X014398Y014471D01*
X014333Y014626D02*
X014333Y014795D01*
X014398Y014951D01*
X014517Y015070D01*
X014673Y015135D01*
X014842Y015135D01*
X014998Y015070D01*
X015117Y014951D01*
X015181Y014795D01*
X015181Y014626D01*
X015117Y014471D01*
X032251Y014471D01*
X032213Y014510D02*
X032332Y014391D01*
X032488Y014326D01*
X032657Y014326D01*
X032813Y014391D01*
X032932Y014510D01*
X032996Y014666D01*
X032996Y014834D01*
X032932Y014990D01*
X032813Y015110D01*
X032657Y015174D01*
X032488Y015174D01*
X032332Y015110D01*
X032213Y014990D01*
X032148Y014834D01*
X032148Y014666D01*
X032213Y014510D01*
X032188Y014570D02*
X015158Y014570D01*
X015181Y014668D02*
X032148Y014668D01*
X032148Y014767D02*
X015181Y014767D01*
X015152Y014866D02*
X028186Y014866D01*
X028191Y014861D02*
X028390Y014779D01*
X028605Y014779D01*
X028805Y014861D01*
X028957Y015014D01*
X029040Y015213D01*
X029040Y015429D01*
X028957Y015628D01*
X028805Y015781D01*
X028605Y015863D01*
X028390Y015863D01*
X028191Y015781D01*
X028038Y015628D01*
X027956Y015429D01*
X027956Y015213D01*
X028038Y015014D01*
X028191Y014861D01*
X028088Y014964D02*
X020829Y014964D01*
X020805Y014941D02*
X020886Y015021D01*
X020929Y015126D01*
X020929Y015174D01*
X020653Y015174D01*
X020653Y015192D01*
X020929Y015192D01*
X020929Y015240D01*
X020886Y015345D01*
X020805Y015426D01*
X020700Y015469D01*
X020652Y015469D01*
X020652Y015192D01*
X020634Y015192D01*
X020634Y015174D01*
X020357Y015174D01*
X020357Y015126D01*
X020401Y015021D01*
X020481Y014941D01*
X020586Y014897D01*
X020634Y014897D01*
X020634Y015174D01*
X020652Y015174D01*
X020652Y014897D01*
X020700Y014897D01*
X020805Y014941D01*
X020652Y014964D02*
X020634Y014964D01*
X020634Y015063D02*
X020652Y015063D01*
X020652Y015161D02*
X020634Y015161D01*
X020634Y015192D02*
X020357Y015192D01*
X020357Y015240D01*
X020401Y015345D01*
X020481Y015426D01*
X020586Y015469D01*
X020634Y015469D01*
X020634Y015192D01*
X020634Y015260D02*
X020652Y015260D01*
X020652Y015358D02*
X020634Y015358D01*
X020634Y015457D02*
X020652Y015457D01*
X020731Y015457D02*
X027967Y015457D01*
X027956Y015358D02*
X020873Y015358D01*
X020921Y015260D02*
X027956Y015260D01*
X027977Y015161D02*
X020929Y015161D01*
X020903Y015063D02*
X028018Y015063D01*
X028008Y015555D02*
X020392Y015555D01*
X020411Y015563D02*
X020696Y015849D01*
X020851Y016221D01*
X020851Y016625D01*
X020696Y016998D01*
X020411Y017283D01*
X020038Y017438D01*
X019634Y017438D01*
X019261Y017283D01*
X018976Y016998D01*
X018822Y016625D01*
X018822Y016221D01*
X018976Y015849D01*
X019261Y015563D01*
X019634Y015409D01*
X020038Y015409D01*
X020411Y015563D01*
X020502Y015654D02*
X026345Y015654D01*
X026348Y015650D02*
X026504Y015586D01*
X026673Y015586D01*
X026828Y015650D01*
X026948Y015770D01*
X027012Y015926D01*
X027012Y016094D01*
X026948Y016250D01*
X026828Y016369D01*
X026673Y016434D01*
X026504Y016434D01*
X026348Y016369D01*
X026229Y016250D01*
X026164Y016094D01*
X026164Y015926D01*
X026229Y015770D01*
X026348Y015650D01*
X026246Y015752D02*
X020600Y015752D01*
X020697Y015851D02*
X026195Y015851D01*
X026164Y015949D02*
X024723Y015949D01*
X024761Y015965D02*
X024606Y015901D01*
X024437Y015901D01*
X024281Y015965D01*
X024162Y016085D01*
X024097Y016241D01*
X024097Y016409D01*
X024162Y016565D01*
X024281Y016684D01*
X024437Y016749D01*
X024606Y016749D01*
X024761Y016684D01*
X024881Y016565D01*
X024945Y016409D01*
X024945Y016241D01*
X024881Y016085D01*
X024761Y015965D01*
X024844Y016048D02*
X026164Y016048D01*
X026186Y016147D02*
X024906Y016147D01*
X024945Y016245D02*
X026227Y016245D01*
X026322Y016344D02*
X024945Y016344D01*
X024932Y016442D02*
X038133Y016442D01*
X038113Y016491D02*
X038190Y016306D01*
X038331Y016164D01*
X038516Y016088D01*
X038716Y016088D01*
X038901Y016164D01*
X039042Y016306D01*
X039118Y016491D01*
X039118Y016691D01*
X039042Y016875D01*
X038901Y017017D01*
X038716Y017093D01*
X038516Y017093D01*
X038331Y017017D01*
X038190Y016875D01*
X038113Y016691D01*
X038113Y016491D01*
X038113Y016541D02*
X024891Y016541D01*
X024806Y016639D02*
X038113Y016639D01*
X038133Y016738D02*
X024632Y016738D01*
X024410Y016738D02*
X020804Y016738D01*
X020763Y016836D02*
X038173Y016836D01*
X038249Y016935D02*
X020722Y016935D01*
X020661Y017033D02*
X038371Y017033D01*
X038516Y017407D02*
X038716Y017407D01*
X038901Y017483D01*
X039042Y017625D01*
X039196Y017625D01*
X039196Y017723D02*
X039083Y017723D01*
X039118Y017809D02*
X039042Y017625D01*
X038943Y017526D02*
X039196Y017526D01*
X039196Y017428D02*
X038766Y017428D01*
X038516Y017407D02*
X038331Y017483D01*
X038190Y017625D01*
X033846Y017625D01*
X033825Y017576D02*
X033902Y017760D01*
X033902Y017960D01*
X033825Y018145D01*
X033684Y018286D01*
X033499Y018363D01*
X033299Y018363D01*
X033114Y018286D01*
X032973Y018145D01*
X032896Y017960D01*
X032896Y017760D01*
X032973Y017576D01*
X033114Y017434D01*
X033299Y017358D01*
X033499Y017358D01*
X033684Y017434D01*
X033825Y017576D01*
X033776Y017526D02*
X038288Y017526D01*
X038190Y017625D02*
X038113Y017809D01*
X038113Y018010D01*
X038190Y018194D01*
X038331Y018336D01*
X038516Y018412D01*
X038716Y018412D01*
X038901Y018336D01*
X039042Y018194D01*
X039118Y018010D01*
X039118Y017809D01*
X039118Y017822D02*
X039196Y017822D01*
X039196Y017920D02*
X039118Y017920D01*
X039115Y018019D02*
X039196Y018019D01*
X039196Y018117D02*
X039074Y018117D01*
X039020Y018216D02*
X039196Y018216D01*
X039196Y018315D02*
X038922Y018315D01*
X039196Y018413D02*
X036981Y018413D01*
X036951Y018340D02*
X037012Y018489D01*
X037012Y018520D01*
X036657Y018520D01*
X036657Y018617D01*
X037012Y018617D01*
X037012Y018649D01*
X036951Y018798D01*
X036837Y018912D01*
X036688Y018973D01*
X036656Y018973D01*
X036656Y018618D01*
X036559Y018618D01*
X036559Y018973D01*
X036527Y018973D01*
X036379Y018912D01*
X036265Y018798D01*
X036204Y018649D01*
X036204Y018617D01*
X036559Y018617D01*
X036559Y018520D01*
X036656Y018520D01*
X036656Y018165D01*
X036688Y018165D01*
X036837Y018226D01*
X036951Y018340D01*
X036925Y018315D02*
X038310Y018315D01*
X038211Y018216D02*
X036812Y018216D01*
X036656Y018216D02*
X036559Y018216D01*
X036559Y018165D02*
X036527Y018165D01*
X036379Y018226D01*
X036265Y018340D01*
X036204Y018489D01*
X036204Y018520D01*
X036559Y018520D01*
X036559Y018165D01*
X036559Y018315D02*
X036656Y018315D01*
X036656Y018413D02*
X036559Y018413D01*
X036559Y018512D02*
X036656Y018512D01*
X036657Y018610D02*
X039196Y018610D01*
X039196Y018512D02*
X037012Y018512D01*
X036988Y018709D02*
X039196Y018709D01*
X039196Y018807D02*
X036941Y018807D01*
X036843Y018906D02*
X039196Y018906D01*
X039196Y019004D02*
X036028Y019004D01*
X036028Y019013D02*
X035672Y019013D01*
X035672Y019110D01*
X035575Y019110D01*
X035575Y019465D01*
X035543Y019465D01*
X035395Y019404D01*
X035281Y019290D01*
X035219Y019142D01*
X035219Y019110D01*
X035575Y019110D01*
X035575Y019013D01*
X035219Y019013D01*
X035219Y018981D01*
X035281Y018832D01*
X035395Y018718D01*
X035543Y018657D01*
X035575Y018657D01*
X035575Y019012D01*
X035672Y019012D01*
X035672Y018657D01*
X035704Y018657D01*
X035853Y018718D01*
X035966Y018832D01*
X036028Y018981D01*
X036028Y019013D01*
X036028Y019110D02*
X035672Y019110D01*
X035672Y019465D01*
X035704Y019465D01*
X035853Y019404D01*
X035966Y019290D01*
X036028Y019142D01*
X036028Y019110D01*
X036003Y019201D02*
X039196Y019201D01*
X039196Y019103D02*
X035672Y019103D01*
X035575Y019103D02*
X035025Y019103D01*
X035017Y019095D02*
X035137Y019215D01*
X035201Y019370D01*
X035201Y019539D01*
X035137Y019695D01*
X035017Y019814D01*
X034861Y019879D01*
X034693Y019879D01*
X034537Y019814D01*
X034418Y019695D01*
X034353Y019539D01*
X034353Y019370D01*
X034418Y019215D01*
X034537Y019095D01*
X034693Y019031D01*
X034861Y019031D01*
X035017Y019095D01*
X035123Y019201D02*
X035244Y019201D01*
X035291Y019300D02*
X035172Y019300D01*
X035201Y019399D02*
X035389Y019399D01*
X035575Y019399D02*
X035672Y019399D01*
X035672Y019300D02*
X035575Y019300D01*
X035575Y019201D02*
X035672Y019201D01*
X035672Y019004D02*
X035575Y019004D01*
X035575Y018906D02*
X035672Y018906D01*
X035672Y018807D02*
X035575Y018807D01*
X035575Y018709D02*
X035672Y018709D01*
X035829Y018709D02*
X036228Y018709D01*
X036274Y018807D02*
X035942Y018807D01*
X035997Y018906D02*
X036373Y018906D01*
X036559Y018906D02*
X036656Y018906D01*
X036656Y018807D02*
X036559Y018807D01*
X036559Y018709D02*
X036656Y018709D01*
X036559Y018610D02*
X035201Y018610D01*
X035201Y018653D02*
X035137Y018809D01*
X035017Y018928D01*
X034861Y018993D01*
X034693Y018993D01*
X034537Y018928D01*
X034418Y018809D01*
X034353Y018653D01*
X034353Y018485D01*
X034418Y018329D01*
X034537Y018209D01*
X034693Y018145D01*
X034861Y018145D01*
X035017Y018209D01*
X035137Y018329D01*
X035201Y018485D01*
X035201Y018653D01*
X035178Y018709D02*
X035418Y018709D01*
X035306Y018807D02*
X035137Y018807D01*
X035040Y018906D02*
X035250Y018906D01*
X035219Y019004D02*
X033871Y019004D01*
X033902Y019079D02*
X033825Y018894D01*
X033684Y018753D01*
X033499Y018676D01*
X033299Y018676D01*
X033114Y018753D01*
X032973Y018894D01*
X032896Y019079D01*
X032896Y019279D01*
X032973Y019464D01*
X033114Y019605D01*
X033299Y019682D01*
X033499Y019682D01*
X033684Y019605D01*
X033825Y019464D01*
X033902Y019279D01*
X033902Y019079D01*
X033902Y019103D02*
X034529Y019103D01*
X034431Y019201D02*
X033902Y019201D01*
X033893Y019300D02*
X034382Y019300D01*
X034353Y019399D02*
X033853Y019399D01*
X033792Y019497D02*
X034353Y019497D01*
X034377Y019596D02*
X033694Y019596D01*
X033105Y019596D02*
X028963Y019596D01*
X028957Y019581D02*
X029040Y019780D01*
X029040Y019996D01*
X028957Y020195D01*
X028805Y020347D01*
X028605Y020430D01*
X028390Y020430D01*
X028191Y020347D01*
X028038Y020195D01*
X027956Y019996D01*
X027956Y019780D01*
X028038Y019581D01*
X028191Y019428D01*
X028390Y019346D01*
X028605Y019346D01*
X028805Y019428D01*
X028957Y019581D01*
X028874Y019497D02*
X033006Y019497D01*
X032946Y019399D02*
X031687Y019399D01*
X031680Y019405D02*
X031582Y019446D01*
X031476Y019446D01*
X031378Y019405D01*
X031303Y019330D01*
X031263Y019232D01*
X031263Y019126D01*
X031303Y019028D01*
X031378Y018953D01*
X031476Y018913D01*
X031582Y018913D01*
X031680Y018953D01*
X031755Y019028D01*
X031796Y019126D01*
X031796Y019232D01*
X031755Y019330D01*
X031680Y019405D01*
X031768Y019300D02*
X032905Y019300D01*
X032896Y019201D02*
X031796Y019201D01*
X031786Y019103D02*
X032896Y019103D01*
X032927Y019004D02*
X031731Y019004D01*
X031327Y019004D02*
X015496Y019004D01*
X015496Y019012D02*
X015459Y019102D01*
X015389Y019172D01*
X015299Y019209D01*
X015200Y019209D01*
X015110Y019172D01*
X015040Y019102D01*
X015003Y019012D01*
X015003Y018914D01*
X015040Y018823D01*
X015110Y018753D01*
X015200Y018716D01*
X015299Y018716D01*
X015389Y018753D01*
X015459Y018823D01*
X015496Y018914D01*
X015496Y019012D01*
X015458Y019103D02*
X031272Y019103D01*
X031263Y019201D02*
X018728Y019201D01*
X018760Y019234D02*
X018804Y019339D01*
X018804Y019387D01*
X018527Y019387D01*
X018527Y019405D01*
X018804Y019405D01*
X018804Y019453D01*
X018760Y019558D01*
X018679Y019638D01*
X018574Y019682D01*
X018526Y019682D01*
X018526Y019405D01*
X018508Y019405D01*
X018508Y019387D01*
X018231Y019387D01*
X018231Y019339D01*
X018275Y019234D01*
X018355Y019153D01*
X018460Y019110D01*
X018508Y019110D01*
X018508Y019386D01*
X018526Y019386D01*
X018526Y019110D01*
X018574Y019110D01*
X018679Y019153D01*
X018760Y019234D01*
X018787Y019300D02*
X031291Y019300D01*
X031372Y019399D02*
X028733Y019399D01*
X029004Y019694D02*
X034417Y019694D01*
X034515Y019793D02*
X029040Y019793D01*
X029040Y019891D02*
X039196Y019891D01*
X039196Y019793D02*
X035039Y019793D01*
X035137Y019694D02*
X039196Y019694D01*
X039196Y019596D02*
X035178Y019596D01*
X035201Y019497D02*
X039196Y019497D01*
X039196Y019399D02*
X035858Y019399D01*
X035957Y019300D02*
X039196Y019300D01*
X039196Y019990D02*
X029040Y019990D01*
X029001Y020088D02*
X039196Y020088D01*
X039196Y020187D02*
X028961Y020187D01*
X028867Y020285D02*
X039196Y020285D01*
X039196Y020384D02*
X028717Y020384D01*
X028279Y020384D02*
X016618Y020384D01*
X016610Y020392D02*
X016519Y020430D01*
X016421Y020430D01*
X016330Y020392D01*
X016261Y020323D01*
X016223Y020232D01*
X016223Y020134D01*
X016261Y020043D01*
X016330Y019974D01*
X016421Y019936D01*
X016519Y019936D01*
X016610Y019974D01*
X016679Y020043D01*
X016717Y020134D01*
X016717Y020232D01*
X016679Y020323D01*
X016610Y020392D01*
X016695Y020285D02*
X028128Y020285D01*
X028035Y020187D02*
X016717Y020187D01*
X016698Y020088D02*
X027994Y020088D01*
X027956Y019990D02*
X016626Y019990D01*
X016314Y019990D02*
X011717Y019990D01*
X011717Y019996D02*
X011634Y020195D01*
X011482Y020347D01*
X011283Y020430D01*
X011067Y020430D01*
X010868Y020347D01*
X010715Y020195D01*
X010633Y019996D01*
X010633Y019780D01*
X010715Y019581D01*
X010868Y019428D01*
X011067Y019346D01*
X011283Y019346D01*
X011482Y019428D01*
X011634Y019581D01*
X011717Y019780D01*
X011717Y019996D01*
X011679Y020088D02*
X016242Y020088D01*
X016223Y020187D02*
X011638Y020187D01*
X011544Y020285D02*
X016245Y020285D01*
X016322Y020384D02*
X011394Y020384D01*
X010956Y020384D02*
X000477Y020384D01*
X000477Y020482D02*
X039196Y020482D01*
X039196Y020581D02*
X000477Y020581D01*
X000477Y020680D02*
X013117Y020680D01*
X013153Y020665D02*
X013251Y020665D01*
X013342Y020702D01*
X013412Y020772D01*
X013449Y020862D01*
X013449Y020961D01*
X013412Y021051D01*
X013342Y021121D01*
X013251Y021158D01*
X013153Y021158D01*
X013063Y021121D01*
X012993Y021051D01*
X012956Y020961D01*
X012956Y020862D01*
X012993Y020772D01*
X013063Y020702D01*
X013153Y020665D01*
X013287Y020680D02*
X039196Y020680D01*
X039196Y020778D02*
X016784Y020778D01*
X016797Y020791D02*
X016835Y020882D01*
X016835Y020980D01*
X016797Y021071D01*
X016728Y021140D01*
X016637Y021178D01*
X016539Y021178D01*
X016448Y021140D01*
X016379Y021071D01*
X016341Y020980D01*
X016341Y020882D01*
X016379Y020791D01*
X016448Y020722D01*
X016539Y020684D01*
X016637Y020684D01*
X016728Y020722D01*
X016797Y020791D01*
X016833Y020877D02*
X039196Y020877D01*
X039196Y020975D02*
X016835Y020975D01*
X016795Y021074D02*
X039196Y021074D01*
X039196Y021172D02*
X016651Y021172D01*
X016525Y021172D02*
X000477Y021172D01*
X000477Y021074D02*
X013016Y021074D01*
X012962Y020975D02*
X000477Y020975D01*
X000477Y020877D02*
X012956Y020877D01*
X012990Y020778D02*
X000477Y020778D01*
X000477Y021271D02*
X039196Y021271D01*
X039196Y021369D02*
X030494Y021369D01*
X030515Y021390D02*
X030555Y021488D01*
X030555Y021594D01*
X030515Y021692D01*
X030440Y021767D01*
X030342Y021808D01*
X030236Y021808D01*
X030138Y021767D01*
X030063Y021692D01*
X030022Y021594D01*
X030022Y021488D01*
X030063Y021390D01*
X030138Y021315D01*
X030236Y021275D01*
X030342Y021275D01*
X030440Y021315D01*
X030515Y021390D01*
X030547Y021468D02*
X039196Y021468D01*
X039196Y021566D02*
X030555Y021566D01*
X030526Y021665D02*
X039196Y021665D01*
X039196Y021764D02*
X030444Y021764D01*
X030134Y021764D02*
X026861Y021764D01*
X026857Y021767D02*
X026759Y021808D01*
X026653Y021808D01*
X026555Y021767D01*
X026480Y021692D01*
X026440Y021594D01*
X026440Y021488D01*
X026480Y021390D01*
X026555Y021315D01*
X026653Y021275D01*
X026759Y021275D01*
X026857Y021315D01*
X026932Y021390D01*
X026973Y021488D01*
X026973Y021594D01*
X026932Y021692D01*
X026857Y021767D01*
X026944Y021665D02*
X030052Y021665D01*
X030022Y021566D02*
X026973Y021566D01*
X026964Y021468D02*
X030031Y021468D01*
X030084Y021369D02*
X026911Y021369D01*
X026501Y021369D02*
X013880Y021369D01*
X013901Y021390D02*
X013941Y021488D01*
X013941Y021594D01*
X013901Y021692D01*
X013826Y021767D01*
X013728Y021808D01*
X013622Y021808D01*
X013524Y021767D01*
X013449Y021692D01*
X013408Y021594D01*
X013408Y021488D01*
X013449Y021390D01*
X013524Y021315D01*
X013622Y021275D01*
X013728Y021275D01*
X013826Y021315D01*
X013901Y021390D01*
X013933Y021468D02*
X026448Y021468D01*
X026440Y021566D02*
X026172Y021566D01*
X026177Y021568D02*
X026246Y021638D01*
X026284Y021729D01*
X026284Y021827D01*
X026246Y021917D01*
X026177Y021987D01*
X026086Y022024D01*
X025988Y022024D01*
X025897Y021987D01*
X025828Y021917D01*
X025790Y021827D01*
X025790Y021729D01*
X025828Y021638D01*
X025897Y021568D01*
X025988Y021531D01*
X026086Y021531D01*
X026177Y021568D01*
X026258Y021665D02*
X026469Y021665D01*
X026552Y021764D02*
X026284Y021764D01*
X026269Y021862D02*
X039196Y021862D01*
X039196Y021961D02*
X026203Y021961D01*
X025871Y021961D02*
X017440Y021961D01*
X017431Y021951D02*
X017517Y022037D01*
X017563Y022150D01*
X017563Y022272D01*
X017517Y022384D01*
X017431Y022470D01*
X017318Y022517D01*
X017197Y022517D01*
X017084Y022470D01*
X016998Y022384D01*
X016952Y022272D01*
X016952Y022150D01*
X016998Y022037D01*
X017084Y021951D01*
X017197Y021905D01*
X017318Y021905D01*
X017431Y021951D01*
X017526Y022059D02*
X039196Y022059D01*
X039196Y022158D02*
X017563Y022158D01*
X017563Y022256D02*
X039196Y022256D01*
X039196Y022355D02*
X017529Y022355D01*
X017447Y022453D02*
X039196Y022453D01*
X039196Y022552D02*
X009474Y022552D01*
X009498Y022562D02*
X009584Y022648D01*
X009630Y022760D01*
X009630Y022882D01*
X009584Y022994D01*
X009498Y023080D01*
X009385Y023127D01*
X009264Y023127D01*
X009151Y023080D01*
X009065Y022994D01*
X009019Y022882D01*
X009019Y022760D01*
X009065Y022648D01*
X009151Y022562D01*
X009264Y022515D01*
X009385Y022515D01*
X009498Y022562D01*
X009585Y022650D02*
X039196Y022650D01*
X039196Y022749D02*
X031066Y022749D01*
X031030Y022713D02*
X031105Y022788D01*
X031146Y022886D01*
X031146Y022992D01*
X031105Y023090D01*
X031030Y023165D01*
X030933Y023206D01*
X030826Y023206D01*
X030729Y023165D01*
X030654Y023090D01*
X030613Y022992D01*
X030613Y022886D01*
X030654Y022788D01*
X030729Y022713D01*
X030826Y022673D01*
X030933Y022673D01*
X031030Y022713D01*
X031130Y022848D02*
X039196Y022848D01*
X039196Y022946D02*
X031146Y022946D01*
X031124Y023045D02*
X039196Y023045D01*
X039196Y023143D02*
X031052Y023143D01*
X030707Y023143D02*
X023454Y023143D01*
X023469Y023106D02*
X023431Y023197D01*
X023362Y023266D01*
X023271Y023304D01*
X023173Y023304D01*
X023082Y023266D01*
X023013Y023197D01*
X022975Y023106D01*
X022975Y023008D01*
X023013Y022917D01*
X023082Y022848D01*
X023173Y022810D01*
X023271Y022810D01*
X023362Y022848D01*
X023431Y022917D01*
X023469Y023008D01*
X023469Y023106D01*
X023469Y023045D02*
X030635Y023045D01*
X030613Y022946D02*
X023443Y022946D01*
X023361Y022848D02*
X030629Y022848D01*
X030693Y022749D02*
X009626Y022749D01*
X009630Y022848D02*
X023083Y022848D01*
X023001Y022946D02*
X009604Y022946D01*
X009533Y023045D02*
X014851Y023045D01*
X014893Y023027D02*
X015015Y023027D01*
X015128Y023073D01*
X015214Y023159D01*
X015260Y023272D01*
X015260Y023394D01*
X015214Y023506D01*
X015128Y023592D01*
X015114Y023598D01*
X015200Y023598D01*
X015291Y023635D01*
X015360Y023705D01*
X015398Y023795D01*
X015398Y023894D01*
X015360Y023984D01*
X015291Y024054D01*
X015200Y024091D01*
X015102Y024091D01*
X015011Y024054D01*
X014942Y023984D01*
X014904Y023894D01*
X014904Y023795D01*
X014942Y023705D01*
X015008Y023639D01*
X014893Y023639D01*
X014781Y023592D01*
X014695Y023506D01*
X014648Y023394D01*
X014648Y023272D01*
X014695Y023159D01*
X014781Y023073D01*
X014893Y023027D01*
X015058Y023045D02*
X022975Y023045D01*
X022990Y023143D02*
X015197Y023143D01*
X015248Y023242D02*
X023057Y023242D01*
X023387Y023242D02*
X039196Y023242D01*
X039196Y023340D02*
X015260Y023340D01*
X015241Y023439D02*
X039196Y023439D01*
X039196Y023537D02*
X018579Y023537D01*
X018535Y023519D02*
X018640Y023563D01*
X018721Y023643D01*
X018764Y023748D01*
X018764Y023796D01*
X018487Y023796D01*
X018487Y023519D01*
X018535Y023519D01*
X018487Y023537D02*
X018469Y023537D01*
X018469Y023519D02*
X018421Y023519D01*
X018316Y023563D01*
X018235Y023643D01*
X018192Y023748D01*
X018192Y023796D01*
X018469Y023796D01*
X018487Y023796D01*
X018487Y023814D01*
X018764Y023814D01*
X018764Y023862D01*
X018721Y023967D01*
X018640Y024048D01*
X018535Y024091D01*
X018487Y024091D01*
X018487Y023814D01*
X018469Y023814D01*
X018469Y023796D01*
X018469Y023519D01*
X018377Y023537D02*
X015182Y023537D01*
X015292Y023636D02*
X018242Y023636D01*
X018197Y023734D02*
X015373Y023734D01*
X015398Y023833D02*
X018192Y023833D01*
X018192Y023814D02*
X018469Y023814D01*
X018469Y024091D01*
X018421Y024091D01*
X018316Y024048D01*
X018235Y023967D01*
X018192Y023862D01*
X018192Y023814D01*
X018220Y023931D02*
X015382Y023931D01*
X015315Y024030D02*
X018298Y024030D01*
X018469Y024030D02*
X018487Y024030D01*
X018487Y023931D02*
X018469Y023931D01*
X018469Y023833D02*
X018487Y023833D01*
X018487Y023734D02*
X018469Y023734D01*
X018469Y023636D02*
X018487Y023636D01*
X018713Y023636D02*
X039196Y023636D01*
X039196Y023734D02*
X030497Y023734D01*
X030515Y023753D02*
X030555Y023851D01*
X030555Y023957D01*
X030515Y024055D01*
X030440Y024130D01*
X030342Y024170D01*
X030236Y024170D01*
X030138Y024130D01*
X030063Y024055D01*
X030022Y023957D01*
X030022Y023851D01*
X030063Y023753D01*
X030138Y023678D01*
X030236Y023637D01*
X030342Y023637D01*
X030440Y023678D01*
X030515Y023753D01*
X030548Y023833D02*
X039196Y023833D01*
X039196Y023931D02*
X030555Y023931D01*
X030525Y024030D02*
X039196Y024030D01*
X039196Y024129D02*
X030441Y024129D01*
X030137Y024129D02*
X026573Y024129D01*
X026579Y024114D02*
X026539Y024212D01*
X026464Y024287D01*
X026366Y024328D01*
X026260Y024328D01*
X026162Y024287D01*
X026087Y024212D01*
X026046Y024114D01*
X026046Y024008D01*
X026087Y023910D01*
X026162Y023835D01*
X026260Y023795D01*
X026366Y023795D01*
X026464Y023835D01*
X026539Y023910D01*
X026579Y024008D01*
X026579Y024114D01*
X026579Y024030D02*
X030053Y024030D01*
X030022Y023931D02*
X026547Y023931D01*
X026458Y023833D02*
X030030Y023833D01*
X030081Y023734D02*
X018758Y023734D01*
X018764Y023833D02*
X026167Y023833D01*
X026078Y023931D02*
X018735Y023931D01*
X018658Y024030D02*
X026046Y024030D01*
X026052Y024129D02*
X025942Y024129D01*
X025921Y024108D02*
X025990Y024177D01*
X026028Y024268D01*
X026028Y024366D01*
X025990Y024457D01*
X025921Y024526D01*
X025830Y024564D01*
X025732Y024564D01*
X025641Y024526D01*
X025572Y024457D01*
X025534Y024366D01*
X025534Y024268D01*
X025572Y024177D01*
X025641Y024108D01*
X025732Y024070D01*
X025830Y024070D01*
X025921Y024108D01*
X026011Y024227D02*
X026102Y024227D01*
X026028Y024326D02*
X026255Y024326D01*
X026370Y024326D02*
X039196Y024326D01*
X039196Y024424D02*
X026004Y024424D01*
X025924Y024523D02*
X039196Y024523D01*
X039196Y024621D02*
X022015Y024621D01*
X022011Y024623D02*
X021913Y024623D01*
X021822Y024585D01*
X021753Y024516D01*
X021715Y024425D01*
X021715Y024327D01*
X021753Y024236D01*
X021822Y024167D01*
X021913Y024129D01*
X022011Y024129D01*
X022102Y024167D01*
X022171Y024236D01*
X022209Y024327D01*
X022209Y024425D01*
X022171Y024516D01*
X022102Y024585D01*
X022011Y024623D01*
X021909Y024621D02*
X016318Y024621D01*
X016315Y024625D02*
X016224Y024662D01*
X016126Y024662D01*
X016035Y024625D01*
X015966Y024555D01*
X015938Y024489D01*
X015921Y024507D01*
X015830Y024544D01*
X015732Y024544D01*
X015641Y024507D01*
X015572Y024437D01*
X015534Y024346D01*
X015534Y024248D01*
X015572Y024157D01*
X015641Y024088D01*
X015732Y024050D01*
X015830Y024050D01*
X015921Y024088D01*
X015990Y024157D01*
X016018Y024223D01*
X016035Y024206D01*
X016126Y024169D01*
X016224Y024169D01*
X016315Y024206D01*
X016384Y024276D01*
X016422Y024366D01*
X016422Y024465D01*
X016384Y024555D01*
X016315Y024625D01*
X016398Y024523D02*
X021760Y024523D01*
X021715Y024424D02*
X016422Y024424D01*
X016405Y024326D02*
X021716Y024326D01*
X021762Y024227D02*
X016336Y024227D01*
X015961Y024129D02*
X025620Y024129D01*
X025551Y024227D02*
X022162Y024227D01*
X022208Y024326D02*
X025534Y024326D01*
X025558Y024424D02*
X022209Y024424D01*
X022165Y024523D02*
X025638Y024523D01*
X026523Y024227D02*
X039196Y024227D01*
X039196Y024720D02*
X032545Y024720D01*
X032562Y024737D02*
X032603Y024835D01*
X032603Y024941D01*
X032562Y025039D01*
X032487Y025114D01*
X032389Y025154D01*
X032283Y025154D01*
X032185Y025114D01*
X032110Y025039D01*
X032070Y024941D01*
X032070Y024835D01*
X032110Y024737D01*
X032185Y024662D01*
X032283Y024621D01*
X032389Y024621D01*
X032487Y024662D01*
X032562Y024737D01*
X032596Y024818D02*
X039196Y024818D01*
X039196Y024917D02*
X032603Y024917D01*
X032572Y025015D02*
X039196Y025015D01*
X039196Y025114D02*
X032487Y025114D01*
X032186Y025114D02*
X016678Y025114D01*
X016678Y025154D02*
X016678Y025055D01*
X016640Y024965D01*
X016571Y024895D01*
X016480Y024858D01*
X016382Y024858D01*
X016291Y024895D01*
X016221Y024965D01*
X016184Y025055D01*
X016184Y025154D01*
X016221Y025244D01*
X016291Y025314D01*
X016382Y025351D01*
X016480Y025351D01*
X016571Y025314D01*
X016640Y025244D01*
X016678Y025154D01*
X016653Y025213D02*
X039196Y025213D01*
X039196Y025311D02*
X016573Y025311D01*
X016539Y025586D02*
X016448Y025623D01*
X016379Y025693D01*
X016341Y025784D01*
X016341Y025882D01*
X016379Y025973D01*
X016448Y026042D01*
X016539Y026080D01*
X016637Y026080D01*
X016728Y026042D01*
X016797Y025973D01*
X016835Y025882D01*
X016835Y025784D01*
X016797Y025693D01*
X016728Y025623D01*
X016637Y025586D01*
X016539Y025586D01*
X016489Y025607D02*
X013321Y025607D01*
X013362Y025623D02*
X013431Y025693D01*
X013469Y025784D01*
X013469Y025882D01*
X013431Y025973D01*
X013362Y026042D01*
X013271Y026080D01*
X013173Y026080D01*
X013082Y026042D01*
X013013Y025973D01*
X012975Y025882D01*
X012975Y025784D01*
X013013Y025693D01*
X013082Y025623D01*
X013173Y025586D01*
X013271Y025586D01*
X013362Y025623D01*
X013436Y025705D02*
X016374Y025705D01*
X016341Y025804D02*
X013469Y025804D01*
X013460Y025902D02*
X016350Y025902D01*
X016407Y026001D02*
X013403Y026001D01*
X013133Y026115D02*
X013174Y026213D01*
X013174Y026319D01*
X013133Y026417D01*
X013058Y026492D01*
X012960Y026532D01*
X012854Y026532D01*
X012756Y026492D01*
X012681Y026417D01*
X012641Y026319D01*
X012641Y026213D01*
X012681Y026115D01*
X012756Y026040D01*
X012854Y025999D01*
X012960Y025999D01*
X013058Y026040D01*
X013133Y026115D01*
X013118Y026099D02*
X022451Y026099D01*
X022472Y026121D02*
X022403Y026051D01*
X022371Y025974D01*
X022307Y026001D01*
X022208Y026001D01*
X022118Y025963D01*
X022048Y025894D01*
X022011Y025803D01*
X022011Y025705D01*
X022048Y025614D01*
X022118Y025545D01*
X022208Y025507D01*
X022307Y025507D01*
X022397Y025545D01*
X022467Y025614D01*
X022499Y025691D01*
X022563Y025665D01*
X022661Y025665D01*
X022752Y025702D01*
X022821Y025772D01*
X022859Y025862D01*
X022859Y025961D01*
X022821Y026051D01*
X022752Y026121D01*
X022661Y026158D01*
X022563Y026158D01*
X022472Y026121D01*
X022382Y026001D02*
X016769Y026001D01*
X016827Y025902D02*
X022057Y025902D01*
X022011Y025804D02*
X016835Y025804D01*
X016803Y025705D02*
X022011Y025705D01*
X022056Y025607D02*
X016688Y025607D01*
X016288Y025311D02*
X000477Y025311D01*
X000477Y025213D02*
X016208Y025213D01*
X016184Y025114D02*
X000477Y025114D01*
X000477Y025015D02*
X016200Y025015D01*
X016269Y024917D02*
X000477Y024917D01*
X000477Y024818D02*
X032076Y024818D01*
X032070Y024917D02*
X016592Y024917D01*
X016661Y025015D02*
X032101Y025015D01*
X032127Y024720D02*
X000477Y024720D01*
X000477Y024621D02*
X016032Y024621D01*
X015952Y024523D02*
X015882Y024523D01*
X015680Y024523D02*
X014035Y024523D01*
X014031Y024526D02*
X013940Y024564D01*
X013842Y024564D01*
X013751Y024526D01*
X013682Y024457D01*
X013644Y024366D01*
X013644Y024268D01*
X013682Y024177D01*
X013700Y024160D01*
X013682Y024142D01*
X013644Y024051D01*
X013644Y023953D01*
X013682Y023862D01*
X013751Y023793D01*
X013842Y023755D01*
X013940Y023755D01*
X014031Y023793D01*
X014101Y023862D01*
X014138Y023953D01*
X014138Y024051D01*
X014101Y024142D01*
X014083Y024160D01*
X014101Y024177D01*
X014138Y024268D01*
X014138Y024366D01*
X014101Y024457D01*
X014031Y024526D01*
X014114Y024424D02*
X015566Y024424D01*
X015534Y024326D02*
X014138Y024326D01*
X014121Y024227D02*
X015543Y024227D01*
X015601Y024129D02*
X014106Y024129D01*
X014138Y024030D02*
X014988Y024030D01*
X014920Y023931D02*
X014129Y023931D01*
X014071Y023833D02*
X014904Y023833D01*
X014930Y023734D02*
X013154Y023734D01*
X013172Y023753D02*
X013213Y023851D01*
X013213Y023957D01*
X013172Y024055D01*
X013097Y024130D01*
X012999Y024170D01*
X012893Y024170D01*
X012795Y024130D01*
X012721Y024055D01*
X012680Y023957D01*
X012680Y023851D01*
X012721Y023753D01*
X012795Y023678D01*
X012893Y023637D01*
X012999Y023637D01*
X013097Y023678D01*
X013172Y023753D01*
X013206Y023833D02*
X013711Y023833D01*
X013653Y023931D02*
X013213Y023931D01*
X013183Y024030D02*
X013644Y024030D01*
X013677Y024129D02*
X013098Y024129D01*
X012795Y024129D02*
X009319Y024129D01*
X009318Y024130D02*
X009220Y024170D01*
X009114Y024170D01*
X009016Y024130D01*
X008941Y024055D01*
X008900Y023957D01*
X008900Y023851D01*
X008941Y023753D01*
X009016Y023678D01*
X009114Y023637D01*
X009220Y023637D01*
X009318Y023678D01*
X009393Y023753D01*
X009433Y023851D01*
X009433Y023957D01*
X009393Y024055D01*
X009318Y024130D01*
X009403Y024030D02*
X012710Y024030D01*
X012680Y023931D02*
X009433Y023931D01*
X009426Y023833D02*
X012687Y023833D01*
X012739Y023734D02*
X009375Y023734D01*
X008959Y023734D02*
X000477Y023734D01*
X000477Y023636D02*
X014887Y023636D01*
X014726Y023537D02*
X000477Y023537D01*
X000477Y023439D02*
X014667Y023439D01*
X014648Y023340D02*
X000477Y023340D01*
X000477Y023242D02*
X014661Y023242D01*
X014711Y023143D02*
X000477Y023143D01*
X000477Y023045D02*
X007183Y023045D01*
X007150Y023011D02*
X007109Y022913D01*
X007109Y022807D01*
X007150Y022709D01*
X007225Y022634D01*
X007323Y022594D01*
X007429Y022594D01*
X007527Y022634D01*
X007601Y022709D01*
X007642Y022807D01*
X007642Y022913D01*
X007601Y023011D01*
X007527Y023086D01*
X007429Y023127D01*
X007323Y023127D01*
X007225Y023086D01*
X007150Y023011D01*
X007123Y022946D02*
X000477Y022946D01*
X000477Y022848D02*
X007109Y022848D01*
X007133Y022749D02*
X000477Y022749D01*
X000477Y022650D02*
X007209Y022650D01*
X007543Y022650D02*
X007942Y022650D01*
X007943Y022648D02*
X008029Y022562D01*
X008141Y022515D01*
X008263Y022515D01*
X008376Y022562D01*
X008462Y022648D01*
X008508Y022760D01*
X008508Y022882D01*
X008462Y022994D01*
X008376Y023080D01*
X008263Y023127D01*
X008141Y023127D01*
X008029Y023080D01*
X007943Y022994D01*
X007896Y022882D01*
X007896Y022760D01*
X007943Y022648D01*
X007901Y022749D02*
X007618Y022749D01*
X007642Y022848D02*
X007896Y022848D01*
X007923Y022946D02*
X007629Y022946D01*
X007568Y023045D02*
X007993Y023045D01*
X008411Y023045D02*
X009115Y023045D01*
X009045Y022946D02*
X008482Y022946D01*
X008508Y022848D02*
X009019Y022848D01*
X009023Y022749D02*
X008504Y022749D01*
X008463Y022650D02*
X009064Y022650D01*
X009175Y022552D02*
X008352Y022552D01*
X008053Y022552D02*
X000477Y022552D01*
X000477Y022453D02*
X017068Y022453D01*
X016986Y022355D02*
X015632Y022355D01*
X015606Y022381D02*
X015515Y022418D01*
X015417Y022418D01*
X015326Y022381D01*
X015257Y022311D01*
X015219Y022220D01*
X015219Y022122D01*
X015257Y022031D01*
X015326Y021962D01*
X015417Y021924D01*
X015515Y021924D01*
X015606Y021962D01*
X015675Y022031D01*
X015713Y022122D01*
X015713Y022220D01*
X015675Y022311D01*
X015606Y022381D01*
X015698Y022256D02*
X016952Y022256D01*
X016952Y022158D02*
X015713Y022158D01*
X015687Y022059D02*
X016989Y022059D01*
X017075Y021961D02*
X015603Y021961D01*
X015330Y021961D02*
X000477Y021961D01*
X000477Y022059D02*
X015245Y022059D01*
X015219Y022158D02*
X000477Y022158D01*
X000477Y022256D02*
X015234Y022256D01*
X015301Y022355D02*
X000477Y022355D01*
X000477Y021862D02*
X025805Y021862D01*
X025790Y021764D02*
X013830Y021764D01*
X013912Y021665D02*
X025816Y021665D01*
X025902Y021566D02*
X013941Y021566D01*
X013520Y021764D02*
X009538Y021764D01*
X009534Y021767D02*
X009436Y021808D01*
X009330Y021808D01*
X009232Y021767D01*
X009158Y021692D01*
X009117Y021594D01*
X009117Y021488D01*
X009158Y021390D01*
X009232Y021315D01*
X009330Y021275D01*
X009436Y021275D01*
X009534Y021315D01*
X009609Y021390D01*
X009650Y021488D01*
X009650Y021594D01*
X009609Y021692D01*
X009534Y021767D01*
X009621Y021665D02*
X013438Y021665D01*
X013408Y021566D02*
X009650Y021566D01*
X009641Y021468D02*
X013417Y021468D01*
X013470Y021369D02*
X009588Y021369D01*
X009179Y021369D02*
X000477Y021369D01*
X000477Y021468D02*
X009125Y021468D01*
X009117Y021566D02*
X000477Y021566D01*
X000477Y021665D02*
X009146Y021665D01*
X009229Y021764D02*
X000477Y021764D01*
X000477Y020285D02*
X010806Y020285D01*
X010712Y020187D02*
X000477Y020187D01*
X000477Y020088D02*
X010671Y020088D01*
X010633Y019990D02*
X000477Y019990D01*
X000477Y019891D02*
X010633Y019891D01*
X010633Y019793D02*
X000477Y019793D01*
X000477Y019694D02*
X004600Y019694D01*
X004606Y019700D02*
X004532Y019625D01*
X004491Y019527D01*
X004491Y019421D01*
X004532Y019324D01*
X004606Y019249D01*
X004704Y019208D01*
X004810Y019208D01*
X004908Y019249D01*
X004983Y019324D01*
X005024Y019421D01*
X005024Y019527D01*
X004983Y019625D01*
X004908Y019700D01*
X004810Y019741D01*
X004704Y019741D01*
X004606Y019700D01*
X004519Y019596D02*
X000477Y019596D01*
X000477Y019497D02*
X004491Y019497D01*
X004500Y019399D02*
X000477Y019399D01*
X000477Y019300D02*
X004555Y019300D01*
X004960Y019300D02*
X013467Y019300D01*
X013485Y019256D02*
X013555Y019186D01*
X013645Y019149D01*
X013744Y019149D01*
X013834Y019186D01*
X013904Y019256D01*
X013941Y019347D01*
X013941Y019445D01*
X013904Y019536D01*
X013834Y019605D01*
X013744Y019643D01*
X013645Y019643D01*
X013555Y019605D01*
X013485Y019536D01*
X013448Y019445D01*
X013448Y019347D01*
X013485Y019256D01*
X013540Y019201D02*
X000477Y019201D01*
X000477Y019103D02*
X013914Y019103D01*
X013900Y019071D02*
X013938Y019162D01*
X014007Y019231D01*
X014098Y019269D01*
X014196Y019269D01*
X014287Y019231D01*
X014356Y019162D01*
X014394Y019071D01*
X014394Y018973D01*
X014356Y018882D01*
X014287Y018812D01*
X014196Y018775D01*
X014098Y018775D01*
X014007Y018812D01*
X013938Y018882D01*
X013900Y018973D01*
X013900Y019071D01*
X013900Y019004D02*
X000477Y019004D01*
X000477Y018906D02*
X007901Y018906D01*
X007921Y018914D02*
X007765Y018850D01*
X007646Y018730D01*
X007581Y018575D01*
X007581Y018406D01*
X007646Y018250D01*
X007765Y018131D01*
X007921Y018066D01*
X008090Y018066D01*
X008246Y018131D01*
X008365Y018250D01*
X008429Y018406D01*
X008429Y018575D01*
X008365Y018730D01*
X008246Y018850D01*
X008090Y018914D01*
X007921Y018914D01*
X008110Y018906D02*
X013928Y018906D01*
X014020Y018807D02*
X008288Y018807D01*
X008374Y018709D02*
X033221Y018709D01*
X033060Y018807D02*
X015443Y018807D01*
X015493Y018906D02*
X032968Y018906D01*
X033182Y018315D02*
X010244Y018315D01*
X010260Y018275D02*
X010214Y018388D01*
X010128Y018474D01*
X010015Y018521D01*
X009893Y018521D01*
X009781Y018474D01*
X009695Y018388D01*
X009648Y018275D01*
X009648Y018154D01*
X009695Y018041D01*
X009781Y017955D01*
X009893Y017909D01*
X010015Y017909D01*
X010128Y017955D01*
X010214Y018041D01*
X010260Y018154D01*
X010260Y018275D01*
X010260Y018216D02*
X033044Y018216D01*
X032962Y018117D02*
X010245Y018117D01*
X010191Y018019D02*
X012535Y018019D01*
X012557Y018041D02*
X012471Y017955D01*
X012424Y017842D01*
X012424Y017721D01*
X012471Y017608D01*
X012557Y017522D01*
X012669Y017476D01*
X012791Y017476D01*
X012903Y017522D01*
X012989Y017608D01*
X013036Y017721D01*
X013036Y017842D01*
X012989Y017955D01*
X012903Y018041D01*
X012791Y018087D01*
X012669Y018087D01*
X012557Y018041D01*
X012456Y017920D02*
X010043Y017920D01*
X009865Y017920D02*
X000477Y017920D01*
X000477Y017822D02*
X012424Y017822D01*
X012424Y017723D02*
X000477Y017723D01*
X000477Y017625D02*
X012464Y017625D01*
X012553Y017526D02*
X000477Y017526D01*
X000477Y017428D02*
X019610Y017428D01*
X019372Y017329D02*
X000477Y017329D01*
X000477Y017231D02*
X019209Y017231D01*
X019110Y017132D02*
X000477Y017132D01*
X000477Y017033D02*
X019012Y017033D01*
X018950Y016935D02*
X000477Y016935D01*
X000477Y016836D02*
X018909Y016836D01*
X018868Y016738D02*
X010242Y016738D01*
X010216Y016749D02*
X010047Y016749D01*
X009891Y016684D01*
X009772Y016565D01*
X009707Y016409D01*
X009707Y016241D01*
X009772Y016085D01*
X009891Y015965D01*
X010047Y015901D01*
X010216Y015901D01*
X010372Y015965D01*
X010491Y016085D01*
X010555Y016241D01*
X010555Y016409D01*
X010491Y016565D01*
X010372Y016684D01*
X010216Y016749D01*
X010021Y016738D02*
X000477Y016738D01*
X000477Y016639D02*
X009846Y016639D01*
X009762Y016541D02*
X000477Y016541D01*
X000477Y016442D02*
X009721Y016442D01*
X009707Y016344D02*
X000477Y016344D01*
X000477Y016245D02*
X009707Y016245D01*
X009746Y016147D02*
X000477Y016147D01*
X000477Y016048D02*
X009809Y016048D01*
X009930Y015949D02*
X000477Y015949D01*
X000477Y015851D02*
X011038Y015851D01*
X011067Y015863D02*
X010868Y015781D01*
X010715Y015628D01*
X010633Y015429D01*
X010633Y015213D01*
X010715Y015014D01*
X010868Y014861D01*
X011067Y014779D01*
X011283Y014779D01*
X011482Y014861D01*
X011634Y015014D01*
X011717Y015213D01*
X011717Y015429D01*
X011634Y015628D01*
X011482Y015781D01*
X011283Y015863D01*
X011067Y015863D01*
X011312Y015851D02*
X012632Y015851D01*
X012601Y015926D02*
X012666Y015770D01*
X012785Y015650D01*
X012941Y015586D01*
X013110Y015586D01*
X013265Y015650D01*
X013385Y015770D01*
X013449Y015926D01*
X013449Y016094D01*
X013385Y016250D01*
X013265Y016369D01*
X013110Y016434D01*
X012941Y016434D01*
X012785Y016369D01*
X012666Y016250D01*
X012601Y016094D01*
X012601Y015926D01*
X012601Y015949D02*
X010333Y015949D01*
X010454Y016048D02*
X012601Y016048D01*
X012623Y016147D02*
X010517Y016147D01*
X010555Y016245D02*
X012664Y016245D01*
X012759Y016344D02*
X010555Y016344D01*
X010542Y016442D02*
X018822Y016442D01*
X018822Y016344D02*
X013291Y016344D01*
X013387Y016245D02*
X018822Y016245D01*
X018853Y016147D02*
X013428Y016147D01*
X013449Y016048D02*
X018893Y016048D01*
X018934Y015949D02*
X013449Y015949D01*
X013418Y015851D02*
X018975Y015851D01*
X019072Y015752D02*
X013367Y015752D01*
X013269Y015654D02*
X019171Y015654D01*
X019280Y015555D02*
X011664Y015555D01*
X011705Y015457D02*
X019518Y015457D01*
X020154Y015457D02*
X020556Y015457D01*
X020414Y015358D02*
X011717Y015358D01*
X011717Y015260D02*
X020365Y015260D01*
X020357Y015161D02*
X011695Y015161D01*
X011655Y015063D02*
X014510Y015063D01*
X014411Y014964D02*
X011585Y014964D01*
X011486Y014866D02*
X014363Y014866D01*
X014333Y014767D02*
X000477Y014767D01*
X000477Y014866D02*
X010864Y014866D01*
X010765Y014964D02*
X000477Y014964D01*
X000477Y015063D02*
X010695Y015063D01*
X010654Y015161D02*
X000477Y015161D01*
X000477Y015260D02*
X010633Y015260D01*
X010633Y015358D02*
X000477Y015358D01*
X000477Y015457D02*
X010644Y015457D01*
X010685Y015555D02*
X000477Y015555D01*
X000477Y015654D02*
X010741Y015654D01*
X010840Y015752D02*
X000477Y015752D01*
X000477Y014668D02*
X014333Y014668D01*
X014517Y014351D02*
X014673Y014287D01*
X014842Y014287D01*
X014998Y014351D01*
X015117Y014471D01*
X015019Y014373D02*
X032375Y014373D01*
X032770Y014373D02*
X039196Y014373D01*
X039196Y014471D02*
X032893Y014471D01*
X032957Y014570D02*
X039196Y014570D01*
X039196Y014668D02*
X032996Y014668D01*
X032996Y014767D02*
X039196Y014767D01*
X039196Y014866D02*
X032984Y014866D01*
X032943Y014964D02*
X039196Y014964D01*
X039196Y015063D02*
X032860Y015063D01*
X032688Y015161D02*
X039196Y015161D01*
X039196Y015260D02*
X029040Y015260D01*
X029040Y015358D02*
X039196Y015358D01*
X039196Y015457D02*
X029028Y015457D01*
X028987Y015555D02*
X033825Y015555D01*
X033846Y015547D02*
X034015Y015547D01*
X034171Y015611D01*
X034290Y015730D01*
X034334Y015837D01*
X034378Y015730D01*
X034498Y015611D01*
X034653Y015547D01*
X034822Y015547D01*
X034978Y015611D01*
X035097Y015730D01*
X035162Y015886D01*
X035162Y016055D01*
X035097Y016211D01*
X034978Y016330D01*
X034822Y016395D01*
X034653Y016395D01*
X034498Y016330D01*
X034378Y016211D01*
X034334Y016104D01*
X034290Y016211D01*
X034171Y016330D01*
X034015Y016395D01*
X033846Y016395D01*
X033691Y016330D01*
X033571Y016211D01*
X033507Y016055D01*
X033507Y015886D01*
X033571Y015730D01*
X033691Y015611D01*
X033846Y015547D01*
X034036Y015555D02*
X034632Y015555D01*
X034455Y015654D02*
X034214Y015654D01*
X034299Y015752D02*
X034369Y015752D01*
X034352Y016147D02*
X034317Y016147D01*
X034256Y016245D02*
X034413Y016245D01*
X034531Y016344D02*
X034138Y016344D01*
X033724Y016344D02*
X030712Y016344D01*
X030687Y016369D02*
X030531Y016434D01*
X030362Y016434D01*
X030206Y016369D01*
X030087Y016250D01*
X030022Y016094D01*
X030022Y015926D01*
X030087Y015770D01*
X030206Y015650D01*
X030362Y015586D01*
X030531Y015586D01*
X030687Y015650D01*
X030806Y015770D01*
X030870Y015926D01*
X030870Y016094D01*
X030806Y016250D01*
X030687Y016369D01*
X030808Y016245D02*
X033606Y016245D01*
X033545Y016147D02*
X030849Y016147D01*
X030870Y016048D02*
X033507Y016048D01*
X033507Y015949D02*
X030870Y015949D01*
X030840Y015851D02*
X033521Y015851D01*
X033562Y015752D02*
X030789Y015752D01*
X030690Y015654D02*
X033648Y015654D01*
X034843Y015555D02*
X039196Y015555D01*
X039196Y015654D02*
X035021Y015654D01*
X035106Y015752D02*
X039196Y015752D01*
X039196Y015851D02*
X035147Y015851D01*
X035162Y015949D02*
X039196Y015949D01*
X039196Y016048D02*
X035162Y016048D01*
X035124Y016147D02*
X038374Y016147D01*
X038250Y016245D02*
X035063Y016245D01*
X034945Y016344D02*
X038174Y016344D01*
X038857Y016147D02*
X039196Y016147D01*
X039196Y016245D02*
X038981Y016245D01*
X039058Y016344D02*
X039196Y016344D01*
X039196Y016442D02*
X039098Y016442D01*
X039118Y016541D02*
X039196Y016541D01*
X039196Y016639D02*
X039118Y016639D01*
X039099Y016738D02*
X039196Y016738D01*
X039196Y016836D02*
X039058Y016836D01*
X038982Y016935D02*
X039196Y016935D01*
X039196Y017033D02*
X038860Y017033D01*
X039196Y017132D02*
X020562Y017132D01*
X020464Y017231D02*
X039196Y017231D01*
X039196Y017329D02*
X020301Y017329D01*
X020063Y017428D02*
X033130Y017428D01*
X033022Y017526D02*
X012907Y017526D01*
X012996Y017625D02*
X032953Y017625D01*
X032912Y017723D02*
X013036Y017723D01*
X013036Y017822D02*
X032896Y017822D01*
X032896Y017920D02*
X013004Y017920D01*
X012925Y018019D02*
X032921Y018019D01*
X033616Y018315D02*
X034432Y018315D01*
X034383Y018413D02*
X010188Y018413D01*
X010037Y018512D02*
X034353Y018512D01*
X034353Y018610D02*
X008415Y018610D01*
X008429Y018512D02*
X009872Y018512D01*
X009720Y018413D02*
X008429Y018413D01*
X008392Y018315D02*
X009665Y018315D01*
X009648Y018216D02*
X008331Y018216D01*
X008214Y018117D02*
X009663Y018117D01*
X009717Y018019D02*
X000477Y018019D01*
X000477Y018117D02*
X007797Y018117D01*
X007680Y018216D02*
X000477Y018216D01*
X000477Y018315D02*
X007619Y018315D01*
X007581Y018413D02*
X000477Y018413D01*
X000477Y018512D02*
X007581Y018512D01*
X007596Y018610D02*
X000477Y018610D01*
X000477Y018709D02*
X007637Y018709D01*
X007723Y018807D02*
X000477Y018807D01*
X004915Y019694D02*
X010668Y019694D01*
X010709Y019596D02*
X004996Y019596D01*
X005024Y019497D02*
X010799Y019497D01*
X010940Y019399D02*
X005014Y019399D01*
X008908Y023833D02*
X000477Y023833D01*
X000477Y023931D02*
X008900Y023931D01*
X008931Y024030D02*
X000477Y024030D01*
X000477Y024129D02*
X009015Y024129D01*
X009409Y025999D02*
X009515Y025999D01*
X009613Y026040D01*
X009688Y026115D01*
X009729Y026213D01*
X009729Y026319D01*
X009688Y026417D01*
X009613Y026492D01*
X009515Y026532D01*
X009409Y026532D01*
X009311Y026492D01*
X009236Y026417D01*
X009196Y026319D01*
X009196Y026213D01*
X009236Y026115D01*
X009311Y026040D01*
X009409Y025999D01*
X009405Y026001D02*
X000477Y026001D01*
X000477Y026099D02*
X009252Y026099D01*
X009202Y026198D02*
X000477Y026198D01*
X000477Y026297D02*
X009196Y026297D01*
X009227Y026395D02*
X000477Y026395D01*
X000477Y026494D02*
X009316Y026494D01*
X009609Y026494D02*
X012761Y026494D01*
X012672Y026395D02*
X009697Y026395D01*
X009729Y026297D02*
X012641Y026297D01*
X012647Y026198D02*
X009723Y026198D01*
X009673Y026099D02*
X012697Y026099D01*
X012850Y026001D02*
X009519Y026001D01*
X008580Y028209D02*
X008424Y028145D01*
X008256Y028145D01*
X008100Y028209D01*
X007981Y028329D01*
X007916Y028485D01*
X007916Y028653D01*
X007981Y028809D01*
X008100Y028928D01*
X008256Y028993D01*
X008424Y028993D01*
X008580Y028928D01*
X008700Y028809D01*
X008764Y028653D01*
X008764Y028485D01*
X008700Y028329D01*
X008580Y028209D01*
X008638Y028267D02*
X013290Y028267D01*
X013290Y028315D02*
X013337Y028427D01*
X013423Y028513D01*
X013535Y028560D01*
X013657Y028560D01*
X013769Y028513D01*
X013855Y028427D01*
X013902Y028315D01*
X013902Y028193D01*
X013855Y028081D01*
X013769Y027995D01*
X013657Y027948D01*
X013535Y027948D01*
X013423Y027995D01*
X013337Y028081D01*
X013290Y028193D01*
X013290Y028315D01*
X013311Y028366D02*
X013030Y028366D01*
X013019Y028361D02*
X013117Y028402D01*
X013192Y028477D01*
X013233Y028575D01*
X013233Y028681D01*
X013192Y028779D01*
X013117Y028854D01*
X013019Y028895D01*
X012913Y028895D01*
X012815Y028854D01*
X012740Y028779D01*
X012700Y028681D01*
X012700Y028575D01*
X012740Y028477D01*
X012815Y028402D01*
X012913Y028361D01*
X013019Y028361D01*
X012902Y028366D02*
X009506Y028366D01*
X009496Y028361D02*
X009593Y028402D01*
X009668Y028477D01*
X009709Y028575D01*
X009709Y028681D01*
X009668Y028779D01*
X009593Y028854D01*
X009496Y028895D01*
X009389Y028895D01*
X009292Y028854D01*
X009217Y028779D01*
X009176Y028681D01*
X009176Y028575D01*
X009217Y028477D01*
X009292Y028402D01*
X009389Y028361D01*
X009496Y028361D01*
X009379Y028366D02*
X008715Y028366D01*
X008756Y028464D02*
X009229Y028464D01*
X009181Y028563D02*
X008764Y028563D01*
X008761Y028662D02*
X009176Y028662D01*
X009209Y028760D02*
X008720Y028760D01*
X008650Y028859D02*
X009303Y028859D01*
X009582Y028859D02*
X012827Y028859D01*
X012732Y028760D02*
X009676Y028760D01*
X009709Y028662D02*
X012700Y028662D01*
X012705Y028563D02*
X009704Y028563D01*
X009656Y028464D02*
X012753Y028464D01*
X013179Y028464D02*
X013374Y028464D01*
X013228Y028563D02*
X026445Y028563D01*
X026440Y028575D02*
X026480Y028477D01*
X026555Y028402D01*
X026653Y028361D01*
X026759Y028361D01*
X026857Y028402D01*
X026932Y028477D01*
X026973Y028575D01*
X026973Y028681D01*
X026932Y028779D01*
X026857Y028854D01*
X026759Y028895D01*
X026653Y028895D01*
X026555Y028854D01*
X026480Y028779D01*
X026440Y028681D01*
X026440Y028575D01*
X026440Y028662D02*
X013233Y028662D01*
X013200Y028760D02*
X026473Y028760D01*
X026567Y028859D02*
X013106Y028859D01*
X013300Y028169D02*
X008482Y028169D01*
X008198Y028169D02*
X000477Y028169D01*
X000477Y028267D02*
X008042Y028267D01*
X007965Y028366D02*
X000477Y028366D01*
X000477Y028464D02*
X007924Y028464D01*
X007916Y028563D02*
X000477Y028563D01*
X000477Y028662D02*
X007920Y028662D01*
X007960Y028760D02*
X000477Y028760D01*
X000477Y028859D02*
X007263Y028859D01*
X007225Y028875D02*
X007323Y028834D01*
X007429Y028834D01*
X007527Y028875D01*
X007601Y028949D01*
X007642Y029047D01*
X007642Y029153D01*
X007601Y029251D01*
X007527Y029326D01*
X007429Y029367D01*
X007323Y029367D01*
X007225Y029326D01*
X007150Y029251D01*
X007109Y029153D01*
X007109Y029047D01*
X007150Y028949D01*
X007225Y028875D01*
X007146Y028957D02*
X000477Y028957D01*
X000477Y029056D02*
X007109Y029056D01*
X007109Y029154D02*
X000477Y029154D01*
X000477Y029253D02*
X007151Y029253D01*
X007285Y029351D02*
X000477Y029351D01*
X000477Y029450D02*
X014596Y029450D01*
X014595Y029451D02*
X014714Y029332D01*
X014870Y029267D01*
X015039Y029267D01*
X015194Y029332D01*
X015314Y029451D01*
X015378Y029607D01*
X015378Y029775D01*
X015314Y029931D01*
X015194Y030050D01*
X015039Y030115D01*
X014870Y030115D01*
X014714Y030050D01*
X014595Y029931D01*
X014530Y029775D01*
X014530Y029607D01*
X014595Y029451D01*
X014554Y029548D02*
X000477Y029548D01*
X000477Y029647D02*
X014530Y029647D01*
X014530Y029746D02*
X011297Y029746D01*
X011283Y029739D02*
X011482Y029822D01*
X011634Y029974D01*
X011717Y030174D01*
X011717Y030389D01*
X011634Y030589D01*
X011482Y030741D01*
X011283Y030824D01*
X011067Y030824D01*
X010868Y030741D01*
X010715Y030589D01*
X010633Y030389D01*
X010633Y030174D01*
X010715Y029974D01*
X010868Y029822D01*
X011067Y029739D01*
X011283Y029739D01*
X011052Y029746D02*
X000477Y029746D01*
X000477Y029844D02*
X010846Y029844D01*
X010747Y029943D02*
X000477Y029943D01*
X000477Y030041D02*
X010688Y030041D01*
X010647Y030140D02*
X000477Y030140D01*
X000477Y030238D02*
X000775Y030238D01*
X000551Y030337D02*
X000477Y030337D01*
X001496Y030238D02*
X010633Y030238D01*
X010633Y030337D02*
X001720Y030337D01*
X001819Y030435D02*
X010652Y030435D01*
X010693Y030534D02*
X001917Y030534D01*
X002004Y030632D02*
X009057Y030632D01*
X009122Y030606D02*
X009291Y030606D01*
X009446Y030670D01*
X009566Y030789D01*
X009630Y030945D01*
X009630Y031114D01*
X009566Y031270D01*
X009446Y031389D01*
X009291Y031454D01*
X009122Y031454D01*
X008966Y031389D01*
X008847Y031270D01*
X008782Y031114D01*
X008782Y030945D01*
X008847Y030789D01*
X008966Y030670D01*
X009122Y030606D01*
X009355Y030632D02*
X010759Y030632D01*
X010858Y030731D02*
X009507Y030731D01*
X009582Y030830D02*
X012708Y030830D01*
X012725Y030789D02*
X012844Y030670D01*
X013000Y030606D01*
X013169Y030606D01*
X013324Y030670D01*
X013444Y030789D01*
X013508Y030945D01*
X013508Y031114D01*
X013444Y031270D01*
X013324Y031389D01*
X013169Y031454D01*
X013000Y031454D01*
X012844Y031389D01*
X012725Y031270D01*
X012660Y031114D01*
X012660Y030945D01*
X012725Y030789D01*
X012783Y030731D02*
X011492Y030731D01*
X011591Y030632D02*
X012935Y030632D01*
X013233Y030632D02*
X018968Y030632D01*
X018927Y030731D02*
X013385Y030731D01*
X013460Y030830D02*
X018886Y030830D01*
X018845Y030928D02*
X013501Y030928D01*
X013508Y031027D02*
X018822Y031027D01*
X018822Y031125D02*
X013504Y031125D01*
X013463Y031224D02*
X018822Y031224D01*
X018822Y031322D02*
X013391Y031322D01*
X013248Y031421D02*
X018835Y031421D01*
X018876Y031519D02*
X002096Y031519D01*
X002137Y031421D02*
X009043Y031421D01*
X008899Y031322D02*
X002150Y031322D01*
X002150Y031224D02*
X008828Y031224D01*
X008787Y031125D02*
X002150Y031125D01*
X002150Y031027D02*
X008782Y031027D01*
X008789Y030928D02*
X002126Y030928D01*
X002085Y030830D02*
X008830Y030830D01*
X008905Y030731D02*
X002045Y030731D01*
X002055Y031618D02*
X018917Y031618D01*
X018957Y031716D02*
X002014Y031716D01*
X001942Y031815D02*
X019029Y031815D01*
X019055Y030534D02*
X011657Y030534D01*
X011698Y030435D02*
X019153Y030435D01*
X019252Y030337D02*
X011717Y030337D01*
X011717Y030238D02*
X019476Y030238D01*
X020197Y030238D02*
X020830Y030238D01*
X020830Y030181D02*
X020830Y030303D01*
X020876Y030415D01*
X020962Y030501D01*
X021075Y030548D01*
X021196Y030548D01*
X021309Y030501D01*
X021395Y030415D01*
X021441Y030303D01*
X021441Y030181D01*
X021395Y030069D01*
X021309Y029983D01*
X021196Y029936D01*
X021075Y029936D01*
X020962Y029983D01*
X020876Y030069D01*
X020830Y030181D01*
X020847Y030140D02*
X011703Y030140D01*
X011662Y030041D02*
X014705Y030041D01*
X014606Y029943D02*
X011603Y029943D01*
X011504Y029844D02*
X014559Y029844D01*
X014694Y029351D02*
X007466Y029351D01*
X007600Y029253D02*
X024719Y029253D01*
X024732Y029247D02*
X024901Y029247D01*
X025057Y029312D01*
X025176Y029431D01*
X025241Y029587D01*
X025241Y029756D01*
X025176Y029911D01*
X025057Y030031D01*
X024901Y030095D01*
X024732Y030095D01*
X024576Y030031D01*
X024457Y029911D01*
X024393Y029756D01*
X024393Y029587D01*
X024457Y029431D01*
X024576Y029312D01*
X024732Y029247D01*
X024914Y029253D02*
X032654Y029253D01*
X032654Y029351D02*
X032380Y029351D01*
X032499Y029471D01*
X032563Y029626D01*
X032563Y029795D01*
X032499Y029951D01*
X032380Y030070D01*
X032224Y030135D01*
X032055Y030135D01*
X031899Y030070D01*
X031780Y029951D01*
X031715Y029795D01*
X031715Y029626D01*
X031780Y029471D01*
X031899Y029351D01*
X032055Y029287D01*
X032224Y029287D01*
X032380Y029351D01*
X032478Y029450D02*
X032685Y029450D01*
X032654Y029376D02*
X032654Y029148D01*
X032741Y028938D01*
X032902Y028777D01*
X033112Y028690D01*
X033340Y028690D01*
X033550Y028777D01*
X033711Y028938D01*
X033798Y029148D01*
X033798Y029376D01*
X033711Y029586D01*
X033550Y029746D01*
X033340Y029834D01*
X033112Y029834D01*
X032902Y029746D01*
X032741Y029586D01*
X032654Y029376D01*
X032726Y029548D02*
X032531Y029548D01*
X032563Y029647D02*
X032803Y029647D01*
X032901Y029746D02*
X032563Y029746D01*
X032543Y029844D02*
X033835Y029844D01*
X033902Y029777D02*
X033741Y029938D01*
X033654Y030148D01*
X033654Y030376D01*
X033741Y030586D01*
X033902Y030746D01*
X034112Y030834D01*
X034340Y030834D01*
X034550Y030746D01*
X034711Y030586D01*
X034798Y030376D01*
X034798Y030148D01*
X034711Y029938D01*
X034550Y029777D01*
X034340Y029690D01*
X034112Y029690D01*
X033902Y029777D01*
X033979Y029746D02*
X033551Y029746D01*
X033649Y029647D02*
X034803Y029647D01*
X034741Y029586D02*
X034654Y029376D01*
X034654Y029148D01*
X034741Y028938D01*
X034902Y028777D01*
X035112Y028690D01*
X035340Y028690D01*
X035550Y028777D01*
X035711Y028938D01*
X035798Y029148D01*
X035798Y029376D01*
X035711Y029586D01*
X035550Y029746D01*
X035340Y029834D01*
X035112Y029834D01*
X034902Y029746D01*
X034741Y029586D01*
X034726Y029548D02*
X033726Y029548D01*
X033767Y029450D02*
X034685Y029450D01*
X034654Y029351D02*
X033798Y029351D01*
X033798Y029253D02*
X034654Y029253D01*
X034654Y029154D02*
X033798Y029154D01*
X033759Y029056D02*
X034693Y029056D01*
X034733Y028957D02*
X033719Y028957D01*
X033631Y028859D02*
X034821Y028859D01*
X034944Y028760D02*
X033508Y028760D01*
X032944Y028760D02*
X030523Y028760D01*
X030515Y028779D02*
X030440Y028854D01*
X030342Y028895D01*
X030236Y028895D01*
X030138Y028854D01*
X030063Y028779D01*
X030022Y028681D01*
X030022Y028575D01*
X030063Y028477D01*
X030138Y028402D01*
X030236Y028361D01*
X030342Y028361D01*
X030440Y028402D01*
X030515Y028477D01*
X030555Y028575D01*
X030555Y028681D01*
X030515Y028779D01*
X030429Y028859D02*
X032821Y028859D01*
X032733Y028957D02*
X008511Y028957D01*
X008169Y028957D02*
X007605Y028957D01*
X007642Y029056D02*
X032693Y029056D01*
X032654Y029154D02*
X007642Y029154D01*
X007488Y028859D02*
X008030Y028859D01*
X009623Y030928D02*
X012667Y030928D01*
X012660Y031027D02*
X009630Y031027D01*
X009626Y031125D02*
X012665Y031125D01*
X012706Y031224D02*
X009585Y031224D01*
X009513Y031322D02*
X012777Y031322D01*
X012921Y031421D02*
X009370Y031421D01*
X013347Y028070D02*
X000477Y028070D01*
X000477Y027972D02*
X013478Y027972D01*
X013714Y027972D02*
X039196Y027972D01*
X039196Y028070D02*
X031026Y028070D01*
X031033Y028073D02*
X031119Y028159D01*
X031166Y028272D01*
X031166Y028394D01*
X031119Y028506D01*
X031033Y028592D01*
X030921Y028639D01*
X030799Y028639D01*
X030687Y028592D01*
X030601Y028506D01*
X030554Y028394D01*
X030554Y028272D01*
X030601Y028159D01*
X030687Y028073D01*
X030799Y028027D01*
X030921Y028027D01*
X031033Y028073D01*
X031123Y028169D02*
X039196Y028169D01*
X039196Y028267D02*
X031164Y028267D01*
X031166Y028366D02*
X039196Y028366D01*
X039196Y028464D02*
X031136Y028464D01*
X031062Y028563D02*
X039196Y028563D01*
X039196Y028662D02*
X030555Y028662D01*
X030551Y028563D02*
X030658Y028563D01*
X030583Y028464D02*
X030502Y028464D01*
X030554Y028366D02*
X030353Y028366D01*
X030225Y028366D02*
X026770Y028366D01*
X026643Y028366D02*
X013881Y028366D01*
X013902Y028267D02*
X030556Y028267D01*
X030597Y028169D02*
X013892Y028169D01*
X013845Y028070D02*
X030694Y028070D01*
X030076Y028464D02*
X026920Y028464D01*
X026968Y028563D02*
X030027Y028563D01*
X030022Y028662D02*
X026973Y028662D01*
X026940Y028760D02*
X030055Y028760D01*
X030149Y028859D02*
X026846Y028859D01*
X026493Y028464D02*
X013818Y028464D01*
X015139Y027567D02*
X015101Y027476D01*
X015101Y027378D01*
X015139Y027287D01*
X015208Y027218D01*
X015299Y027180D01*
X015397Y027180D01*
X015488Y027218D01*
X015557Y027287D01*
X015595Y027378D01*
X015595Y027476D01*
X015557Y027567D01*
X015488Y027636D01*
X015397Y027674D01*
X015299Y027674D01*
X015208Y027636D01*
X015139Y027567D01*
X015149Y027578D02*
X000477Y027578D01*
X000477Y027676D02*
X039196Y027676D01*
X039196Y027578D02*
X015547Y027578D01*
X015594Y027479D02*
X039196Y027479D01*
X039196Y027381D02*
X015595Y027381D01*
X015552Y027282D02*
X033884Y027282D01*
X033849Y027246D02*
X033935Y027332D01*
X034047Y027379D01*
X034169Y027379D01*
X034281Y027332D01*
X034367Y027246D01*
X034414Y027134D01*
X034414Y027012D01*
X034367Y026900D01*
X034281Y026814D01*
X034169Y026767D01*
X034047Y026767D01*
X033935Y026814D01*
X033849Y026900D01*
X033802Y027012D01*
X033802Y027134D01*
X033849Y027246D01*
X033823Y027183D02*
X017461Y027183D01*
X017431Y027214D02*
X017318Y027261D01*
X017197Y027261D01*
X017084Y027214D01*
X016998Y027128D01*
X016952Y027016D01*
X016952Y026894D01*
X016998Y026781D01*
X017084Y026695D01*
X017197Y026649D01*
X017318Y026649D01*
X017431Y026695D01*
X017517Y026781D01*
X017563Y026894D01*
X017563Y027016D01*
X017517Y027128D01*
X017431Y027214D01*
X017535Y027085D02*
X033802Y027085D01*
X033813Y026986D02*
X017563Y026986D01*
X017561Y026888D02*
X033860Y026888D01*
X033993Y026789D02*
X017520Y026789D01*
X017419Y026691D02*
X039196Y026691D01*
X039196Y026789D02*
X034222Y026789D01*
X034355Y026888D02*
X039196Y026888D01*
X039196Y026986D02*
X034403Y026986D01*
X034414Y027085D02*
X039196Y027085D01*
X039196Y027183D02*
X034393Y027183D01*
X034331Y027282D02*
X039196Y027282D01*
X039196Y027775D02*
X000477Y027775D01*
X000477Y027873D02*
X039196Y027873D01*
X039196Y028760D02*
X035508Y028760D01*
X035631Y028859D02*
X039196Y028859D01*
X039196Y028957D02*
X035719Y028957D01*
X035759Y029056D02*
X039196Y029056D01*
X039196Y029154D02*
X035798Y029154D01*
X035798Y029253D02*
X039196Y029253D01*
X039196Y029351D02*
X035798Y029351D01*
X035767Y029450D02*
X039196Y029450D01*
X039196Y029548D02*
X035726Y029548D01*
X035649Y029647D02*
X039196Y029647D01*
X039196Y029746D02*
X035551Y029746D01*
X034901Y029746D02*
X034473Y029746D01*
X034617Y029844D02*
X039196Y029844D01*
X039196Y029943D02*
X034712Y029943D01*
X034753Y030041D02*
X039196Y030041D01*
X039196Y030140D02*
X034794Y030140D01*
X034798Y030238D02*
X038176Y030238D01*
X037952Y030337D02*
X034798Y030337D01*
X034773Y030435D02*
X037854Y030435D01*
X037755Y030534D02*
X034732Y030534D01*
X034664Y030632D02*
X037669Y030632D01*
X037628Y030731D02*
X035438Y030731D01*
X035340Y030690D02*
X035550Y030777D01*
X035711Y030938D01*
X035798Y031148D01*
X035798Y031376D01*
X035711Y031586D01*
X035550Y031746D01*
X035340Y031834D01*
X035112Y031834D01*
X034902Y031746D01*
X034741Y031586D01*
X034654Y031376D01*
X034654Y031148D01*
X034741Y030938D01*
X034902Y030777D01*
X035112Y030690D01*
X035340Y030690D01*
X035602Y030830D02*
X037587Y030830D01*
X037546Y030928D02*
X035701Y030928D01*
X035747Y031027D02*
X037522Y031027D01*
X037522Y031125D02*
X035788Y031125D01*
X035798Y031224D02*
X037522Y031224D01*
X037522Y031322D02*
X035798Y031322D01*
X035779Y031421D02*
X037536Y031421D01*
X037576Y031519D02*
X035738Y031519D01*
X035678Y031618D02*
X037617Y031618D01*
X037658Y031716D02*
X035580Y031716D01*
X035384Y031815D02*
X037730Y031815D01*
X038898Y030238D02*
X039196Y030238D01*
X039196Y030337D02*
X039121Y030337D01*
X039196Y026592D02*
X023658Y026592D01*
X023657Y026593D02*
X023566Y026631D01*
X023468Y026631D01*
X023377Y026593D01*
X023308Y026524D01*
X023285Y026468D01*
X023254Y026543D01*
X023185Y026613D01*
X023094Y026650D01*
X022996Y026650D01*
X022905Y026613D01*
X022836Y026543D01*
X022798Y026453D01*
X022798Y026354D01*
X022836Y026264D01*
X022905Y026194D01*
X022996Y026157D01*
X023094Y026157D01*
X023185Y026194D01*
X023254Y026264D01*
X023277Y026319D01*
X023308Y026244D01*
X023377Y026175D01*
X023468Y026137D01*
X023566Y026137D01*
X023657Y026175D01*
X023727Y026244D01*
X023764Y026335D01*
X023764Y026433D01*
X023727Y026524D01*
X023657Y026593D01*
X023739Y026494D02*
X024420Y026494D01*
X024421Y026495D02*
X024351Y026425D01*
X024314Y026335D01*
X024314Y026236D01*
X024351Y026146D01*
X024421Y026076D01*
X024511Y026039D01*
X024610Y026039D01*
X024700Y026076D01*
X024770Y026146D01*
X024807Y026236D01*
X024807Y026335D01*
X024770Y026425D01*
X024700Y026495D01*
X024610Y026532D01*
X024511Y026532D01*
X024421Y026495D01*
X024339Y026395D02*
X023764Y026395D01*
X023748Y026297D02*
X024314Y026297D01*
X024330Y026198D02*
X023680Y026198D01*
X023354Y026198D02*
X023188Y026198D01*
X023268Y026297D02*
X023286Y026297D01*
X023275Y026494D02*
X023296Y026494D01*
X023376Y026592D02*
X023205Y026592D01*
X022884Y026592D02*
X000477Y026592D01*
X000477Y026691D02*
X017096Y026691D01*
X016995Y026789D02*
X000477Y026789D01*
X000477Y026888D02*
X016954Y026888D01*
X016952Y026986D02*
X000477Y026986D01*
X000477Y027085D02*
X016980Y027085D01*
X017054Y027183D02*
X015404Y027183D01*
X015292Y027183D02*
X000477Y027183D01*
X000477Y027282D02*
X015144Y027282D01*
X015101Y027381D02*
X000477Y027381D01*
X000477Y027479D02*
X015102Y027479D01*
X013142Y026395D02*
X022798Y026395D01*
X022815Y026494D02*
X013054Y026494D01*
X013174Y026297D02*
X022822Y026297D01*
X022901Y026198D02*
X013167Y026198D01*
X013041Y026001D02*
X012964Y026001D01*
X012984Y025902D02*
X000477Y025902D01*
X000477Y025804D02*
X012975Y025804D01*
X013008Y025705D02*
X000477Y025705D01*
X000477Y025607D02*
X013123Y025607D01*
X013748Y024523D02*
X000477Y024523D01*
X000477Y024424D02*
X013669Y024424D01*
X013644Y024326D02*
X000477Y024326D01*
X000477Y024227D02*
X013661Y024227D01*
X013389Y021074D02*
X016382Y021074D01*
X016341Y020975D02*
X013443Y020975D01*
X013449Y020877D02*
X016344Y020877D01*
X016392Y020778D02*
X013414Y020778D01*
X013545Y019596D02*
X011641Y019596D01*
X011681Y019694D02*
X015997Y019694D01*
X016005Y019713D02*
X015967Y019622D01*
X015967Y019591D01*
X015889Y019623D01*
X015791Y019623D01*
X015700Y019585D01*
X015631Y019516D01*
X015593Y019425D01*
X015593Y019327D01*
X015631Y019236D01*
X015700Y019167D01*
X015791Y019129D01*
X015889Y019129D01*
X015980Y019167D01*
X016049Y019236D01*
X016087Y019327D01*
X016087Y019358D01*
X016165Y019326D01*
X016263Y019326D01*
X016354Y019364D01*
X016423Y019433D01*
X016461Y019524D01*
X016461Y019622D01*
X016423Y019713D01*
X016354Y019782D01*
X016263Y019820D01*
X016165Y019820D01*
X016074Y019782D01*
X016005Y019713D01*
X015967Y019596D02*
X015955Y019596D01*
X015725Y019596D02*
X013844Y019596D01*
X013920Y019497D02*
X015623Y019497D01*
X015593Y019399D02*
X013941Y019399D01*
X013922Y019300D02*
X015604Y019300D01*
X015666Y019201D02*
X015318Y019201D01*
X015181Y019201D02*
X014317Y019201D01*
X014381Y019103D02*
X015041Y019103D01*
X015003Y019004D02*
X014394Y019004D01*
X014366Y018906D02*
X015006Y018906D01*
X015056Y018807D02*
X014274Y018807D01*
X013978Y019201D02*
X013849Y019201D01*
X013448Y019399D02*
X011410Y019399D01*
X011551Y019497D02*
X013469Y019497D01*
X011717Y019793D02*
X016100Y019793D01*
X016329Y019793D02*
X027956Y019793D01*
X027956Y019891D02*
X011717Y019891D01*
X010417Y016639D02*
X018828Y016639D01*
X018822Y016541D02*
X010501Y016541D01*
X011510Y015752D02*
X012683Y015752D01*
X012782Y015654D02*
X011609Y015654D01*
X014498Y012993D02*
X039196Y012993D01*
X039196Y013092D02*
X014624Y013092D01*
X015307Y012400D02*
X015237Y012331D01*
X015200Y012240D01*
X015200Y012142D01*
X015237Y012051D01*
X015307Y011982D01*
X015397Y011944D01*
X015496Y011944D01*
X015586Y011982D01*
X015656Y012051D01*
X015693Y012142D01*
X015693Y012240D01*
X015656Y012331D01*
X015586Y012400D01*
X015496Y012438D01*
X015397Y012438D01*
X015307Y012400D01*
X015311Y012402D02*
X000477Y012402D01*
X000477Y012500D02*
X017111Y012500D01*
X017109Y012599D02*
X000477Y012599D01*
X000477Y012895D02*
X004643Y012895D01*
X004528Y012993D02*
X000477Y012993D01*
X000477Y013092D02*
X004491Y013092D01*
X004492Y013190D02*
X000477Y013190D01*
X000477Y013289D02*
X004534Y013289D01*
X004668Y013387D02*
X000477Y013387D01*
X000477Y012303D02*
X015226Y012303D01*
X015200Y012205D02*
X000477Y012205D01*
X000477Y012106D02*
X015214Y012106D01*
X015281Y012008D02*
X000477Y012008D01*
X000477Y011909D02*
X022092Y011909D01*
X022025Y012008D02*
X015612Y012008D01*
X015679Y012106D02*
X022011Y012106D01*
X022037Y012205D02*
X015693Y012205D01*
X015667Y012303D02*
X017247Y012303D01*
X017151Y012402D02*
X015582Y012402D01*
X017583Y012303D02*
X022121Y012303D01*
X022394Y012303D02*
X025456Y012303D01*
X025462Y012205D02*
X022478Y012205D01*
X022504Y012106D02*
X025517Y012106D01*
X025490Y012402D02*
X017678Y012402D01*
X016525Y010333D02*
X032696Y010333D01*
X032645Y010628D02*
X023376Y010628D01*
X023370Y010625D02*
X023460Y010663D01*
X023530Y010732D01*
X023567Y010823D01*
X023567Y010921D01*
X023530Y011012D01*
X023460Y011081D01*
X023370Y011119D01*
X023271Y011119D01*
X023181Y011081D01*
X023111Y011012D01*
X023074Y010921D01*
X023074Y010823D01*
X023111Y010732D01*
X023181Y010663D01*
X023271Y010625D01*
X023370Y010625D01*
X023264Y010628D02*
X020194Y010628D01*
X020271Y010727D02*
X023117Y010727D01*
X023074Y010825D02*
X020300Y010825D01*
X020294Y010924D02*
X023075Y010924D01*
X023122Y011022D02*
X020248Y011022D01*
X020113Y011121D02*
X026494Y011121D01*
X026879Y011121D02*
X030136Y011121D01*
X030102Y011154D02*
X030177Y011079D01*
X030275Y011039D01*
X030381Y011039D01*
X030479Y011079D01*
X030554Y011154D01*
X030595Y011252D01*
X030595Y011358D01*
X030554Y011456D01*
X030479Y011531D01*
X030381Y011572D01*
X030275Y011572D01*
X030177Y011531D01*
X030102Y011456D01*
X030062Y011358D01*
X030062Y011252D01*
X030102Y011154D01*
X030075Y011219D02*
X026940Y011219D01*
X026953Y011318D02*
X030062Y011318D01*
X030086Y011416D02*
X026929Y011416D01*
X026854Y011515D02*
X030161Y011515D01*
X030495Y011515D02*
X039196Y011515D01*
X039196Y011416D02*
X030571Y011416D01*
X030595Y011318D02*
X039196Y011318D01*
X039196Y011219D02*
X030581Y011219D01*
X030521Y011121D02*
X039196Y011121D01*
X039196Y011022D02*
X023519Y011022D01*
X023566Y010924D02*
X039196Y010924D01*
X039196Y010825D02*
X023567Y010825D01*
X023524Y010727D02*
X032719Y010727D01*
X033055Y010727D02*
X039196Y010727D01*
X039196Y010628D02*
X033130Y010628D01*
X033154Y010530D02*
X039196Y010530D01*
X039196Y010431D02*
X033140Y010431D01*
X033079Y010333D02*
X039196Y010333D01*
X039196Y010234D02*
X026714Y010234D01*
X026702Y010246D02*
X026590Y010292D01*
X026468Y010292D01*
X026356Y010246D01*
X026270Y010160D01*
X026223Y010047D01*
X026223Y009925D01*
X026270Y009813D01*
X026356Y009727D01*
X026468Y009680D01*
X026590Y009680D01*
X026702Y009727D01*
X026788Y009813D01*
X026835Y009925D01*
X026835Y010047D01*
X026788Y010160D01*
X026702Y010246D01*
X026798Y010135D02*
X039196Y010135D01*
X039196Y010037D02*
X026835Y010037D01*
X026835Y009938D02*
X039196Y009938D01*
X039196Y009840D02*
X026800Y009840D01*
X026717Y009741D02*
X039196Y009741D01*
X039196Y009643D02*
X026028Y009643D01*
X026048Y009689D02*
X026048Y009811D01*
X026001Y009923D01*
X025915Y010009D01*
X025803Y010056D01*
X025681Y010056D01*
X025568Y010009D01*
X025482Y009923D01*
X025436Y009811D01*
X025436Y009689D01*
X025482Y009577D01*
X025568Y009491D01*
X025681Y009444D01*
X025803Y009444D01*
X025915Y009491D01*
X026001Y009577D01*
X026048Y009689D01*
X026048Y009741D02*
X026342Y009741D01*
X026259Y009840D02*
X026036Y009840D01*
X025986Y009938D02*
X026223Y009938D01*
X026223Y010037D02*
X025849Y010037D01*
X025635Y010037D02*
X023863Y010037D01*
X023863Y010075D02*
X023825Y010165D01*
X023756Y010235D01*
X023665Y010272D01*
X023567Y010272D01*
X023476Y010235D01*
X023406Y010165D01*
X023370Y010077D01*
X023333Y010165D01*
X023263Y010235D01*
X023173Y010272D01*
X023074Y010272D01*
X022984Y010235D01*
X022914Y010165D01*
X022877Y010075D01*
X022877Y009977D01*
X022914Y009886D01*
X022984Y009816D01*
X023074Y009779D01*
X023173Y009779D01*
X023263Y009816D01*
X023333Y009886D01*
X023370Y009975D01*
X023406Y009886D01*
X023476Y009816D01*
X023567Y009779D01*
X023665Y009779D01*
X023756Y009816D01*
X023825Y009886D01*
X023863Y009977D01*
X023863Y010075D01*
X023837Y010135D02*
X026260Y010135D01*
X026344Y010234D02*
X023756Y010234D01*
X023475Y010234D02*
X023264Y010234D01*
X023345Y010135D02*
X023394Y010135D01*
X023385Y009938D02*
X023355Y009938D01*
X023287Y009840D02*
X023452Y009840D01*
X023779Y009840D02*
X024866Y009840D01*
X024865Y009839D02*
X024903Y009929D01*
X024972Y009999D01*
X025063Y010036D01*
X025161Y010036D01*
X025252Y009999D01*
X025321Y009929D01*
X025359Y009839D01*
X025359Y009740D01*
X025321Y009650D01*
X025294Y009622D01*
X025321Y009595D01*
X025359Y009504D01*
X025359Y009406D01*
X025321Y009315D01*
X025252Y009246D01*
X025161Y009208D01*
X025063Y009208D01*
X024972Y009246D01*
X024903Y009315D01*
X024865Y009406D01*
X024865Y009504D01*
X024903Y009595D01*
X024930Y009622D01*
X024903Y009650D01*
X024865Y009740D01*
X024865Y009839D01*
X024865Y009741D02*
X022948Y009741D01*
X022957Y009720D02*
X022919Y009811D01*
X022850Y009881D01*
X022759Y009918D01*
X022661Y009918D01*
X022570Y009881D01*
X022501Y009811D01*
X022463Y009720D01*
X022463Y009643D01*
X020356Y009643D01*
X020368Y009544D02*
X022234Y009544D01*
X022225Y009536D02*
X022188Y009445D01*
X022188Y009347D01*
X020324Y009347D01*
X020365Y009446D02*
X022188Y009446D01*
X022225Y009536D02*
X022295Y009605D01*
X022386Y009643D01*
X022463Y009643D01*
X022472Y009741D02*
X020315Y009741D01*
X020226Y009840D02*
X022530Y009840D01*
X022891Y009840D02*
X022960Y009840D01*
X022893Y009938D02*
X016614Y009938D01*
X016670Y010037D02*
X022877Y010037D01*
X022902Y010135D02*
X016678Y010135D01*
X016644Y010234D02*
X022983Y010234D01*
X022957Y009720D02*
X022957Y009622D01*
X022919Y009531D01*
X022850Y009462D01*
X022759Y009424D01*
X022681Y009424D01*
X022681Y009347D01*
X024889Y009347D01*
X024865Y009446D02*
X022810Y009446D01*
X022925Y009544D02*
X024882Y009544D01*
X024909Y009643D02*
X022957Y009643D01*
X022681Y009347D02*
X022644Y009256D01*
X022574Y009186D01*
X022484Y009149D01*
X022386Y009149D01*
X022295Y009186D01*
X022225Y009256D01*
X022188Y009347D01*
X022233Y009249D02*
X020247Y009249D01*
X020079Y009150D02*
X022383Y009150D01*
X022486Y009150D02*
X026536Y009150D01*
X026463Y009051D02*
X018961Y009051D01*
X018961Y009090D02*
X018961Y009138D01*
X018917Y009243D01*
X018837Y009323D01*
X018732Y009367D01*
X018684Y009367D01*
X018684Y009090D01*
X018961Y009090D01*
X018956Y009150D02*
X019869Y009150D01*
X019701Y009249D02*
X018912Y009249D01*
X018780Y009347D02*
X019624Y009347D01*
X019722Y009840D02*
X006815Y009840D01*
X006801Y009741D02*
X015896Y009741D01*
X018666Y009347D02*
X018684Y009347D01*
X018684Y009249D02*
X018666Y009249D01*
X018666Y009150D02*
X018684Y009150D01*
X018684Y009051D02*
X018666Y009051D01*
X018666Y008953D02*
X018684Y008953D01*
X018684Y008854D02*
X018666Y008854D01*
X018853Y008854D02*
X026454Y008854D01*
X026440Y008953D02*
X018932Y008953D01*
X020004Y010628D02*
X020022Y010628D01*
X020022Y010727D02*
X020004Y010727D01*
X020004Y010825D02*
X020022Y010825D01*
X020022Y010924D02*
X020004Y010924D01*
X020004Y011022D02*
X020022Y011022D01*
X020022Y011121D02*
X020004Y011121D01*
X022637Y009249D02*
X024969Y009249D01*
X025255Y009249D02*
X039196Y009249D01*
X039196Y009347D02*
X025334Y009347D01*
X025359Y009446D02*
X025677Y009446D01*
X025806Y009446D02*
X039196Y009446D01*
X039196Y009544D02*
X025968Y009544D01*
X025515Y009544D02*
X025342Y009544D01*
X025314Y009643D02*
X025455Y009643D01*
X025436Y009741D02*
X025359Y009741D01*
X025358Y009840D02*
X025448Y009840D01*
X025497Y009938D02*
X025312Y009938D01*
X024912Y009938D02*
X023847Y009938D01*
X019944Y006982D02*
X019926Y006982D01*
X019926Y006884D02*
X019944Y006884D01*
X019944Y006785D02*
X019926Y006785D01*
X019926Y006686D02*
X019944Y006686D01*
X019944Y006588D02*
X019926Y006588D01*
X019926Y006489D02*
X019944Y006489D01*
X019836Y005774D02*
X019679Y005774D01*
X019534Y005714D01*
X019423Y005603D01*
X019363Y005458D01*
X019363Y005301D01*
X019423Y005157D01*
X019534Y005046D01*
X019679Y004986D01*
X019836Y004986D01*
X019981Y005046D01*
X020092Y005157D01*
X020152Y005301D01*
X020152Y005458D01*
X020092Y005603D01*
X019981Y005714D01*
X019836Y005774D01*
X019994Y005701D02*
X022923Y005701D01*
X022934Y005673D02*
X023003Y005604D01*
X023094Y005566D01*
X023192Y005566D01*
X023283Y005604D01*
X023353Y005673D01*
X023374Y005725D01*
X023397Y005702D01*
X023488Y005665D01*
X023586Y005665D01*
X023677Y005702D01*
X023746Y005772D01*
X023784Y005862D01*
X023784Y005961D01*
X023746Y006051D01*
X023677Y006121D01*
X023586Y006158D01*
X023488Y006158D01*
X023397Y006121D01*
X023328Y006051D01*
X023306Y005999D01*
X023283Y006022D01*
X023192Y006060D01*
X023094Y006060D01*
X023003Y006022D01*
X022934Y005953D01*
X022896Y005862D01*
X022896Y005764D01*
X022934Y005673D01*
X023007Y005602D02*
X022838Y005602D01*
X022870Y005589D02*
X022779Y005627D01*
X022681Y005627D01*
X022590Y005589D01*
X022521Y005520D01*
X022483Y005429D01*
X022483Y005385D01*
X022437Y005432D01*
X022346Y005469D01*
X022248Y005469D01*
X022157Y005432D01*
X022088Y005362D01*
X022050Y005272D01*
X022050Y005173D01*
X022088Y005083D01*
X022157Y005013D01*
X022248Y004976D01*
X022346Y004976D01*
X022437Y005013D01*
X022506Y005083D01*
X022544Y005173D01*
X022544Y005217D01*
X022590Y005171D01*
X022681Y005133D01*
X022779Y005133D01*
X022870Y005171D01*
X022939Y005240D01*
X022977Y005331D01*
X022977Y005429D01*
X022939Y005520D01*
X022870Y005589D01*
X022946Y005504D02*
X024742Y005504D01*
X024730Y005405D02*
X022977Y005405D01*
X022967Y005307D02*
X024707Y005307D01*
X024726Y005208D02*
X022907Y005208D01*
X022553Y005208D02*
X022544Y005208D01*
X022517Y005110D02*
X024797Y005110D01*
X025112Y005110D02*
X035828Y005110D01*
X035810Y005011D02*
X022432Y005011D01*
X022162Y005011D02*
X019898Y005011D01*
X020045Y005110D02*
X022076Y005110D01*
X022050Y005208D02*
X020113Y005208D01*
X020152Y005307D02*
X022065Y005307D01*
X022131Y005405D02*
X020152Y005405D01*
X020133Y005504D02*
X022514Y005504D01*
X022483Y005405D02*
X022463Y005405D01*
X022622Y005602D02*
X020092Y005602D01*
X019521Y005701D02*
X000477Y005701D01*
X000477Y005602D02*
X019423Y005602D01*
X019382Y005504D02*
X000477Y005504D01*
X000477Y005405D02*
X007932Y005405D01*
X007894Y005389D02*
X007819Y005314D01*
X007778Y005216D01*
X007778Y005110D01*
X007819Y005012D01*
X007894Y004938D01*
X007992Y004897D01*
X008098Y004897D01*
X008196Y004938D01*
X008271Y005012D01*
X008311Y005110D01*
X019470Y005110D01*
X019402Y005208D02*
X008311Y005208D01*
X008311Y005216D02*
X008271Y005314D01*
X008196Y005389D01*
X008098Y005430D01*
X007992Y005430D01*
X007894Y005389D01*
X007816Y005307D02*
X000477Y005307D01*
X000477Y005208D02*
X007778Y005208D01*
X007779Y005110D02*
X000477Y005110D01*
X000477Y005011D02*
X007820Y005011D01*
X007954Y004913D02*
X000477Y004913D01*
X000477Y004814D02*
X025713Y004814D01*
X025635Y004716D02*
X000477Y004716D01*
X000477Y004617D02*
X025613Y004617D01*
X025631Y004518D02*
X000477Y004518D01*
X000477Y004420D02*
X009208Y004420D01*
X009232Y004444D02*
X009158Y004370D01*
X009117Y004272D01*
X009117Y004166D01*
X009158Y004068D01*
X009232Y003993D01*
X009330Y003952D01*
X009436Y003952D01*
X009534Y003993D01*
X009609Y004068D01*
X009650Y004166D01*
X009650Y004272D01*
X009609Y004370D01*
X009534Y004444D01*
X009436Y004485D01*
X009330Y004485D01*
X009232Y004444D01*
X009138Y004321D02*
X000477Y004321D01*
X000477Y004223D02*
X009117Y004223D01*
X009134Y004124D02*
X000477Y004124D01*
X000477Y004026D02*
X009199Y004026D01*
X009568Y004026D02*
X012782Y004026D01*
X012717Y004124D02*
X009633Y004124D01*
X009650Y004223D02*
X012700Y004223D01*
X012720Y004321D02*
X009629Y004321D01*
X009559Y004420D02*
X012791Y004420D01*
X013142Y004420D02*
X025703Y004420D01*
X026007Y004814D02*
X035875Y004814D01*
X035823Y004913D02*
X008136Y004913D01*
X008269Y005011D02*
X019617Y005011D01*
X019363Y005307D02*
X008274Y005307D01*
X008311Y005216D02*
X008311Y005110D01*
X008157Y005405D02*
X019363Y005405D01*
X022327Y004026D02*
X026542Y004026D01*
X026910Y004026D02*
X030085Y004026D01*
X030020Y004124D02*
X026975Y004124D01*
X026992Y004223D02*
X030003Y004223D01*
X030023Y004321D02*
X026972Y004321D01*
X026901Y004420D02*
X030094Y004420D01*
X030536Y004223D02*
X030712Y004223D01*
X030647Y004124D02*
X030519Y004124D01*
X030453Y004026D02*
X030633Y004026D01*
X030660Y003927D02*
X022380Y003927D01*
X023451Y002745D02*
X027985Y002745D01*
X027956Y002646D02*
X023489Y002646D01*
X023485Y002548D02*
X027956Y002548D01*
X027959Y002449D02*
X026711Y002449D01*
X026868Y002351D02*
X028000Y002351D01*
X028044Y002252D02*
X026941Y002252D01*
X026982Y002153D02*
X028143Y002153D01*
X028313Y002055D02*
X026983Y002055D01*
X026466Y002449D02*
X023435Y002449D01*
X020772Y001267D02*
X037602Y001267D01*
X037642Y001168D02*
X020731Y001168D01*
X020681Y001069D02*
X037692Y001069D01*
X038806Y002646D02*
X039196Y002646D01*
X039196Y002548D02*
X039044Y002548D01*
X039182Y002449D02*
X039196Y002449D01*
X036043Y005307D02*
X025201Y005307D01*
X025183Y005208D02*
X035885Y005208D01*
X033623Y005602D02*
X025201Y005602D01*
X025195Y005701D02*
X026269Y005701D01*
X026333Y005674D02*
X026489Y005674D01*
X026634Y005735D01*
X026745Y005846D01*
X026805Y005990D01*
X026767Y005898D02*
X033579Y005898D01*
X033546Y005800D02*
X026699Y005800D01*
X026553Y005701D02*
X033557Y005701D01*
X026333Y005674D02*
X026188Y005735D01*
X026077Y005846D01*
X026017Y005990D01*
X026017Y006147D01*
X026017Y006095D02*
X023702Y006095D01*
X023769Y005997D02*
X026017Y005997D01*
X026055Y005898D02*
X023784Y005898D01*
X023758Y005800D02*
X024769Y005800D01*
X024714Y005701D02*
X023674Y005701D01*
X023400Y005701D02*
X023364Y005701D01*
X023280Y005602D02*
X024707Y005602D01*
X025140Y005800D02*
X026123Y005800D01*
X023372Y006095D02*
X000477Y006095D01*
X000477Y005997D02*
X022978Y005997D01*
X022911Y005898D02*
X000477Y005898D01*
X000477Y005800D02*
X022896Y005800D01*
X030524Y013486D02*
X033154Y013486D01*
X033007Y013584D02*
X030582Y013584D01*
X030595Y013683D02*
X032960Y013683D01*
X032956Y013782D02*
X030570Y013782D01*
X032161Y014866D02*
X028809Y014866D01*
X028907Y014964D02*
X032202Y014964D01*
X032285Y015063D02*
X028977Y015063D01*
X029018Y015161D02*
X032457Y015161D01*
X030203Y015654D02*
X028931Y015654D01*
X028833Y015752D02*
X030104Y015752D01*
X030053Y015851D02*
X028635Y015851D01*
X028361Y015851D02*
X026981Y015851D01*
X027012Y015949D02*
X030022Y015949D01*
X030022Y016048D02*
X027012Y016048D01*
X026991Y016147D02*
X030044Y016147D01*
X030085Y016245D02*
X026950Y016245D01*
X026854Y016344D02*
X030181Y016344D01*
X028162Y015752D02*
X026930Y015752D01*
X026832Y015654D02*
X028064Y015654D01*
X024775Y014176D02*
X039196Y014176D01*
X039196Y014274D02*
X023791Y014274D01*
X023852Y014176D02*
X024425Y014176D01*
X024364Y014077D02*
X023863Y014077D01*
X023832Y013979D02*
X024353Y013979D01*
X024383Y013880D02*
X023729Y013880D01*
X023503Y013880D02*
X023256Y013880D01*
X023360Y013979D02*
X023399Y013979D01*
X023380Y014176D02*
X023379Y014176D01*
X023319Y014274D02*
X023440Y014274D01*
X023055Y013782D02*
X024487Y013782D01*
X024319Y015949D02*
X020738Y015949D01*
X020779Y016048D02*
X024198Y016048D01*
X024136Y016147D02*
X020820Y016147D01*
X020851Y016245D02*
X024097Y016245D01*
X024097Y016344D02*
X020851Y016344D01*
X020851Y016442D02*
X024111Y016442D01*
X024152Y016541D02*
X020851Y016541D01*
X020845Y016639D02*
X024236Y016639D01*
X028032Y019596D02*
X018722Y019596D01*
X018785Y019497D02*
X028122Y019497D01*
X028262Y019399D02*
X018527Y019399D01*
X018508Y019399D02*
X016389Y019399D01*
X016450Y019497D02*
X018249Y019497D01*
X018231Y019453D02*
X018231Y019405D01*
X018508Y019405D01*
X018508Y019682D01*
X018460Y019682D01*
X018355Y019638D01*
X018275Y019558D01*
X018231Y019453D01*
X018247Y019300D02*
X016076Y019300D01*
X016015Y019201D02*
X018307Y019201D01*
X018508Y019201D02*
X018526Y019201D01*
X018526Y019300D02*
X018508Y019300D01*
X018508Y019497D02*
X018526Y019497D01*
X018526Y019596D02*
X018508Y019596D01*
X018312Y019596D02*
X016461Y019596D01*
X016431Y019694D02*
X027991Y019694D01*
X033577Y018709D02*
X034376Y018709D01*
X034417Y018807D02*
X033738Y018807D01*
X033830Y018906D02*
X034514Y018906D01*
X034530Y018216D02*
X033754Y018216D01*
X033837Y018117D02*
X038158Y018117D01*
X038117Y018019D02*
X033878Y018019D01*
X033902Y017920D02*
X038113Y017920D01*
X038113Y017822D02*
X033902Y017822D01*
X033887Y017723D02*
X038149Y017723D01*
X038465Y017428D02*
X033668Y017428D01*
X035024Y018216D02*
X036403Y018216D01*
X036290Y018315D02*
X035122Y018315D01*
X035171Y018413D02*
X036235Y018413D01*
X036204Y018512D02*
X035201Y018512D01*
X039196Y025410D02*
X000477Y025410D01*
X000477Y025508D02*
X022206Y025508D01*
X022309Y025508D02*
X024890Y025508D01*
X024893Y025505D02*
X024984Y025468D01*
X025082Y025468D01*
X025173Y025505D01*
X025242Y025575D01*
X025280Y025666D01*
X025280Y025764D01*
X025242Y025854D01*
X025173Y025924D01*
X025082Y025961D01*
X024984Y025961D01*
X024893Y025924D01*
X024824Y025854D01*
X024786Y025764D01*
X024786Y025666D01*
X024824Y025575D01*
X024893Y025505D01*
X024811Y025607D02*
X022459Y025607D01*
X022755Y025705D02*
X024786Y025705D01*
X024803Y025804D02*
X022834Y025804D01*
X022859Y025902D02*
X024872Y025902D01*
X024724Y026099D02*
X026496Y026099D01*
X026480Y026115D02*
X026555Y026040D01*
X026653Y025999D01*
X026759Y025999D01*
X026857Y026040D01*
X026932Y026115D01*
X026973Y026213D01*
X026973Y026319D01*
X026932Y026417D01*
X026857Y026492D01*
X026759Y026532D01*
X026653Y026532D01*
X026555Y026492D01*
X026480Y026417D01*
X026440Y026319D01*
X026440Y026213D01*
X026480Y026115D01*
X026446Y026198D02*
X024792Y026198D01*
X024807Y026297D02*
X026440Y026297D01*
X026471Y026395D02*
X024782Y026395D01*
X024702Y026494D02*
X026560Y026494D01*
X026853Y026494D02*
X030143Y026494D01*
X030138Y026492D02*
X030236Y026532D01*
X030342Y026532D01*
X030440Y026492D01*
X030515Y026417D01*
X030555Y026319D01*
X030555Y026213D01*
X030515Y026115D01*
X030440Y026040D01*
X030342Y025999D01*
X030236Y025999D01*
X030138Y026040D01*
X030063Y026115D01*
X030022Y026213D01*
X030022Y026319D01*
X030063Y026417D01*
X030138Y026492D01*
X030054Y026395D02*
X026941Y026395D01*
X026973Y026297D02*
X030022Y026297D01*
X030029Y026198D02*
X026967Y026198D01*
X026917Y026099D02*
X030078Y026099D01*
X030232Y026001D02*
X026763Y026001D01*
X026649Y026001D02*
X022842Y026001D01*
X022773Y026099D02*
X024398Y026099D01*
X025194Y025902D02*
X039196Y025902D01*
X039196Y025804D02*
X025263Y025804D01*
X025280Y025705D02*
X039196Y025705D01*
X039196Y025607D02*
X025256Y025607D01*
X025176Y025508D02*
X039196Y025508D01*
X039196Y026001D02*
X030346Y026001D01*
X030499Y026099D02*
X039196Y026099D01*
X039196Y026198D02*
X030549Y026198D01*
X030555Y026297D02*
X039196Y026297D01*
X039196Y026395D02*
X030524Y026395D01*
X030435Y026494D02*
X039196Y026494D01*
X035014Y030731D02*
X034565Y030731D01*
X034349Y030830D02*
X034850Y030830D01*
X034751Y030928D02*
X033701Y030928D01*
X033711Y030938D02*
X033798Y031148D01*
X033798Y031376D01*
X033711Y031586D01*
X033550Y031746D01*
X033340Y031834D01*
X033112Y031834D01*
X032902Y031746D01*
X032741Y031586D01*
X032654Y031376D01*
X032654Y031148D01*
X032741Y030938D01*
X032902Y030777D01*
X033112Y030690D01*
X033340Y030690D01*
X033550Y030777D01*
X033711Y030938D01*
X033747Y031027D02*
X034705Y031027D01*
X034664Y031125D02*
X033788Y031125D01*
X033798Y031224D02*
X034654Y031224D01*
X034654Y031322D02*
X033798Y031322D01*
X033779Y031421D02*
X034673Y031421D01*
X034714Y031519D02*
X033738Y031519D01*
X033678Y031618D02*
X034774Y031618D01*
X034872Y031716D02*
X033580Y031716D01*
X033384Y031815D02*
X035067Y031815D01*
X034103Y030830D02*
X033602Y030830D01*
X033438Y030731D02*
X033887Y030731D01*
X033788Y030632D02*
X030688Y030632D01*
X030667Y030611D02*
X030786Y030730D01*
X030851Y030886D01*
X030851Y031055D01*
X030786Y031211D01*
X030667Y031330D01*
X030511Y031395D01*
X030342Y031395D01*
X030187Y031330D01*
X030067Y031211D01*
X030003Y031055D01*
X030003Y030886D01*
X030067Y030730D01*
X030187Y030611D01*
X030342Y030547D01*
X030511Y030547D01*
X030667Y030611D01*
X030786Y030731D02*
X033014Y030731D01*
X032850Y030830D02*
X030827Y030830D01*
X030851Y030928D02*
X032751Y030928D01*
X032705Y031027D02*
X030851Y031027D01*
X030822Y031125D02*
X032664Y031125D01*
X032654Y031224D02*
X030773Y031224D01*
X030675Y031322D02*
X032654Y031322D01*
X032673Y031421D02*
X026712Y031421D01*
X026789Y031389D02*
X026633Y031454D01*
X026464Y031454D01*
X026309Y031389D01*
X026189Y031270D01*
X026125Y031114D01*
X026125Y030945D01*
X026189Y030789D01*
X026309Y030670D01*
X026464Y030606D01*
X026633Y030606D01*
X026789Y030670D01*
X026908Y030789D01*
X026973Y030945D01*
X026973Y031114D01*
X026908Y031270D01*
X026789Y031389D01*
X026856Y031322D02*
X030179Y031322D01*
X030080Y031224D02*
X026927Y031224D01*
X026968Y031125D02*
X030032Y031125D01*
X030003Y031027D02*
X026973Y031027D01*
X026966Y030928D02*
X030003Y030928D01*
X030026Y030830D02*
X026925Y030830D01*
X026850Y030731D02*
X028180Y030731D01*
X028191Y030741D02*
X028038Y030589D01*
X027956Y030389D01*
X027956Y030174D01*
X028038Y029974D01*
X028191Y029822D01*
X028390Y029739D01*
X028605Y029739D01*
X028805Y029822D01*
X028957Y029974D01*
X029040Y030174D01*
X029040Y030389D01*
X028957Y030589D01*
X028805Y030741D01*
X028605Y030824D01*
X028390Y030824D01*
X028191Y030741D01*
X028082Y030632D02*
X026698Y030632D01*
X026400Y030632D02*
X020705Y030632D01*
X020745Y030731D02*
X026248Y030731D01*
X026173Y030830D02*
X020786Y030830D01*
X020827Y030928D02*
X026132Y030928D01*
X026125Y031027D02*
X020851Y031027D01*
X020851Y031125D02*
X026129Y031125D01*
X026170Y031224D02*
X020851Y031224D01*
X020851Y031322D02*
X026242Y031322D01*
X026385Y031421D02*
X020838Y031421D01*
X020797Y031519D02*
X032714Y031519D01*
X032774Y031618D02*
X020756Y031618D01*
X020715Y031716D02*
X032872Y031716D01*
X033067Y031815D02*
X020643Y031815D01*
X020618Y030534D02*
X021040Y030534D01*
X020896Y030435D02*
X020519Y030435D01*
X020421Y030337D02*
X020844Y030337D01*
X020904Y030041D02*
X015204Y030041D01*
X015302Y029943D02*
X021059Y029943D01*
X021212Y029943D02*
X022150Y029943D01*
X022150Y029938D02*
X021873Y029938D01*
X021873Y029890D01*
X021916Y029785D01*
X021997Y029704D01*
X022102Y029661D01*
X022150Y029661D01*
X022150Y029938D01*
X022150Y029956D01*
X022150Y030233D01*
X022102Y030233D01*
X021997Y030190D01*
X021916Y030109D01*
X021873Y030004D01*
X021873Y029956D01*
X022150Y029956D01*
X022168Y029956D01*
X022168Y030233D01*
X022216Y030233D01*
X022321Y030190D01*
X022402Y030109D01*
X022445Y030004D01*
X022445Y029956D01*
X022168Y029956D01*
X022168Y029938D01*
X022445Y029938D01*
X022445Y029890D01*
X022402Y029785D01*
X022321Y029704D01*
X022216Y029661D01*
X022168Y029661D01*
X022168Y029938D01*
X022150Y029938D01*
X022168Y029943D02*
X024488Y029943D01*
X024429Y029844D02*
X022426Y029844D01*
X022362Y029746D02*
X024393Y029746D01*
X024393Y029647D02*
X015378Y029647D01*
X015378Y029746D02*
X021956Y029746D01*
X021892Y029844D02*
X015350Y029844D01*
X015354Y029548D02*
X024408Y029548D01*
X024449Y029450D02*
X015313Y029450D01*
X015214Y029351D02*
X024537Y029351D01*
X025096Y029351D02*
X031899Y029351D01*
X031800Y029450D02*
X025184Y029450D01*
X025225Y029548D02*
X031748Y029548D01*
X031715Y029647D02*
X025241Y029647D01*
X025241Y029746D02*
X028375Y029746D01*
X028168Y029844D02*
X025204Y029844D01*
X025145Y029943D02*
X028070Y029943D01*
X028010Y030041D02*
X025032Y030041D01*
X024601Y030041D02*
X022430Y030041D01*
X022371Y030140D02*
X027970Y030140D01*
X027956Y030238D02*
X021441Y030238D01*
X021424Y030140D02*
X021947Y030140D01*
X021888Y030041D02*
X021367Y030041D01*
X021427Y030337D02*
X027956Y030337D01*
X027975Y030435D02*
X021375Y030435D01*
X021231Y030534D02*
X028015Y030534D01*
X028815Y030731D02*
X030067Y030731D01*
X030165Y030632D02*
X028913Y030632D01*
X028980Y030534D02*
X033720Y030534D01*
X033679Y030435D02*
X029021Y030435D01*
X029040Y030337D02*
X033654Y030337D01*
X033654Y030238D02*
X029040Y030238D01*
X029026Y030140D02*
X033658Y030140D01*
X033699Y030041D02*
X032409Y030041D01*
X032502Y029943D02*
X033739Y029943D01*
X031870Y030041D02*
X028985Y030041D01*
X028925Y029943D02*
X031776Y029943D01*
X031736Y029844D02*
X028827Y029844D01*
X028620Y029746D02*
X031715Y029746D01*
X022168Y029746D02*
X022150Y029746D01*
X022150Y029844D02*
X022168Y029844D01*
X022150Y030041D02*
X022168Y030041D01*
X022168Y030140D02*
X022150Y030140D01*
X020383Y015063D02*
X015005Y015063D01*
X015104Y014964D02*
X020458Y014964D01*
X006066Y003730D02*
X000477Y003730D01*
X000477Y003632D02*
X005920Y003632D01*
X005873Y003533D02*
X000477Y003533D01*
X000477Y003434D02*
X005869Y003434D01*
X005903Y003336D02*
X000477Y003336D01*
X000477Y003237D02*
X006002Y003237D01*
M02*
