G75*
G70*
%OFA0B0*%
%FSLAX24Y24*%
%IPPOS*%
%LPD*%
%AMOC8*
5,1,8,0,0,1.08239X$1,22.5*
%
%ADD10C,0.0060*%
%ADD11C,0.0080*%
%ADD12C,0.0050*%
%ADD13C,0.0120*%
%ADD14C,0.0040*%
D10*
X014260Y012242D02*
X014317Y012186D01*
X014430Y012186D01*
X014487Y012242D01*
X014487Y012526D01*
X014628Y012469D02*
X014685Y012526D01*
X014798Y012526D01*
X014855Y012469D01*
X014855Y012412D01*
X014798Y012356D01*
X014855Y012299D01*
X014855Y012242D01*
X014798Y012186D01*
X014685Y012186D01*
X014628Y012242D01*
X014742Y012356D02*
X014798Y012356D01*
X014260Y012242D02*
X014260Y012526D01*
X011659Y016603D02*
X011659Y016943D01*
X011489Y016773D01*
X011716Y016773D01*
X011347Y016603D02*
X011347Y016943D01*
X011120Y016943D02*
X011120Y016603D01*
X010979Y016660D02*
X010922Y016603D01*
X010809Y016603D01*
X010752Y016660D01*
X010752Y016886D01*
X010809Y016943D01*
X010922Y016943D01*
X010979Y016886D01*
X011120Y016943D02*
X011347Y016603D01*
X014592Y022186D02*
X014706Y022186D01*
X014762Y022242D01*
X014762Y022526D01*
X014904Y022469D02*
X014961Y022526D01*
X015074Y022526D01*
X015131Y022469D01*
X015131Y022412D01*
X014904Y022186D01*
X015131Y022186D01*
X014592Y022186D02*
X014536Y022242D01*
X014536Y022526D01*
X014450Y027107D02*
X014506Y027164D01*
X014506Y027447D01*
X014648Y027334D02*
X014761Y027447D01*
X014761Y027107D01*
X014648Y027107D02*
X014875Y027107D01*
X014450Y027107D02*
X014336Y027107D01*
X014280Y027164D01*
X014280Y027447D01*
X011676Y031591D02*
X011449Y031591D01*
X011676Y031818D01*
X011676Y031875D01*
X011619Y031931D01*
X011506Y031931D01*
X011449Y031875D01*
X011308Y031931D02*
X011308Y031591D01*
X011081Y031931D01*
X011081Y031591D01*
X010940Y031648D02*
X010883Y031591D01*
X010769Y031591D01*
X010713Y031648D01*
X010713Y031875D01*
X010769Y031931D01*
X010883Y031931D01*
X010940Y031875D01*
X007591Y030775D02*
X007591Y030548D01*
X007591Y030718D02*
X007364Y030718D01*
X007364Y030775D02*
X007477Y030888D01*
X007591Y030775D01*
X007364Y030775D02*
X007364Y030548D01*
X007222Y030604D02*
X007222Y030831D01*
X007166Y030888D01*
X006995Y030888D01*
X006995Y030548D01*
X007166Y030548D01*
X007222Y030604D01*
X006854Y030548D02*
X006627Y030548D01*
X006627Y030888D01*
X006854Y030888D01*
X006741Y030718D02*
X006627Y030718D01*
X006486Y030888D02*
X006259Y030661D01*
X006316Y030718D02*
X006486Y030548D01*
X006259Y030548D02*
X006259Y030888D01*
X006117Y030775D02*
X006117Y030548D01*
X006117Y030718D02*
X005891Y030718D01*
X005891Y030775D02*
X006004Y030888D01*
X006117Y030775D01*
X005891Y030775D02*
X005891Y030548D01*
X005636Y030548D02*
X005636Y030888D01*
X005749Y030888D02*
X005522Y030888D01*
X005395Y030604D02*
X005395Y030548D01*
X005338Y030548D01*
X005338Y030604D01*
X005395Y030604D01*
X005197Y030548D02*
X005026Y030718D01*
X004970Y030661D02*
X005197Y030888D01*
X004970Y030888D02*
X004970Y030548D01*
X004828Y031099D02*
X004601Y031099D01*
X004828Y031326D01*
X004828Y031383D01*
X004772Y031439D01*
X004658Y031439D01*
X004601Y031383D01*
X004460Y031383D02*
X004233Y031156D01*
X004290Y031099D01*
X004403Y031099D01*
X004460Y031156D01*
X004460Y031383D01*
X004403Y031439D01*
X004290Y031439D01*
X004233Y031383D01*
X004233Y031156D01*
X004092Y031156D02*
X004035Y031099D01*
X003922Y031099D01*
X003865Y031156D01*
X004092Y031383D01*
X004092Y031156D01*
X004092Y031383D02*
X004035Y031439D01*
X003922Y031439D01*
X003865Y031383D01*
X003865Y031156D01*
X003723Y031269D02*
X003497Y031269D01*
X003355Y031212D02*
X003298Y031269D01*
X003128Y031269D01*
X003128Y031099D02*
X003128Y031439D01*
X003298Y031439D01*
X003355Y031383D01*
X003355Y031326D01*
X003298Y031269D01*
X003355Y031212D02*
X003355Y031156D01*
X003298Y031099D01*
X003128Y031099D01*
X002987Y031099D02*
X002987Y031439D01*
X002873Y031326D01*
X002760Y031439D01*
X002760Y031099D01*
X002817Y030888D02*
X002760Y030831D01*
X002817Y030888D02*
X002930Y030888D01*
X002987Y030831D01*
X002987Y030775D01*
X002760Y030548D01*
X002987Y030548D01*
X003128Y030604D02*
X003185Y030548D01*
X003298Y030548D01*
X003355Y030604D01*
X003355Y030831D01*
X003128Y030604D01*
X003128Y030831D01*
X003185Y030888D01*
X003298Y030888D01*
X003355Y030831D01*
X003497Y030831D02*
X003553Y030888D01*
X003667Y030888D01*
X003723Y030831D01*
X003497Y030604D01*
X003553Y030548D01*
X003667Y030548D01*
X003723Y030604D01*
X003723Y030831D01*
X003865Y030831D02*
X003865Y030775D01*
X003922Y030718D01*
X004035Y030718D01*
X004092Y030661D01*
X004092Y030604D01*
X004035Y030548D01*
X003922Y030548D01*
X003865Y030604D01*
X003865Y030661D01*
X003922Y030718D01*
X004035Y030718D02*
X004092Y030775D01*
X004092Y030831D01*
X004035Y030888D01*
X003922Y030888D01*
X003865Y030831D01*
X003497Y030831D02*
X003497Y030604D01*
X003477Y031630D02*
X003704Y031630D01*
X003845Y031630D02*
X003845Y031971D01*
X004072Y031630D01*
X004072Y031971D01*
X004213Y031914D02*
X004270Y031971D01*
X004384Y031971D01*
X004440Y031914D01*
X004582Y031914D02*
X004582Y031687D01*
X004638Y031630D01*
X004752Y031630D01*
X004809Y031687D01*
X004809Y031914D01*
X004752Y031971D01*
X004638Y031971D01*
X004582Y031914D01*
X004440Y031687D02*
X004384Y031630D01*
X004270Y031630D01*
X004213Y031687D01*
X004213Y031914D01*
X003704Y031971D02*
X003477Y031971D01*
X003477Y031630D01*
X003477Y031801D02*
X003590Y031801D01*
X003335Y031801D02*
X003279Y031744D01*
X003109Y031744D01*
X003109Y031630D02*
X003109Y031971D01*
X003279Y031971D01*
X003335Y031914D01*
X003335Y031801D01*
X002967Y031914D02*
X002910Y031971D01*
X002797Y031971D01*
X002740Y031914D01*
X002740Y031687D01*
X002797Y031630D01*
X002910Y031630D01*
X002967Y031687D01*
X002967Y031914D01*
X004950Y031971D02*
X004950Y031630D01*
X004950Y031744D02*
X005120Y031744D01*
X005177Y031801D01*
X005177Y031914D01*
X005120Y031971D01*
X004950Y031971D01*
X005064Y031744D02*
X005177Y031630D01*
X005318Y031630D02*
X005318Y031971D01*
X005545Y031971D01*
X005432Y031801D02*
X005318Y031801D01*
X005318Y031630D02*
X005545Y031630D01*
X006055Y031630D02*
X006055Y031971D01*
X006282Y031630D01*
X006282Y031971D01*
X006423Y031971D02*
X006537Y031857D01*
X006650Y031971D01*
X006650Y031630D01*
X006792Y031630D02*
X006792Y031971D01*
X006962Y031971D01*
X007018Y031914D01*
X007018Y031801D01*
X006962Y031744D01*
X006792Y031744D01*
X006905Y031744D02*
X007018Y031630D01*
X006423Y031630D02*
X006423Y031971D01*
X023732Y027157D02*
X023732Y026874D01*
X023789Y026817D01*
X023902Y026817D01*
X023959Y026874D01*
X023959Y027157D01*
X024100Y027101D02*
X024100Y027044D01*
X024157Y026987D01*
X024270Y026987D01*
X024327Y026931D01*
X024327Y026874D01*
X024270Y026817D01*
X024157Y026817D01*
X024100Y026874D01*
X024100Y026931D01*
X024157Y026987D01*
X024270Y026987D02*
X024327Y027044D01*
X024327Y027101D01*
X024270Y027157D01*
X024157Y027157D01*
X024100Y027101D01*
X028092Y031532D02*
X028206Y031532D01*
X028262Y031589D01*
X028404Y031532D02*
X028404Y031872D01*
X028631Y031532D01*
X028631Y031872D01*
X028772Y031759D02*
X028886Y031872D01*
X028886Y031532D01*
X028999Y031532D02*
X028772Y031532D01*
X028262Y031816D02*
X028206Y031872D01*
X028092Y031872D01*
X028036Y031816D01*
X028036Y031589D01*
X028092Y031532D01*
X035996Y030759D02*
X036053Y030816D01*
X036109Y030816D01*
X036166Y030759D01*
X036166Y030646D01*
X036109Y030589D01*
X036053Y030589D01*
X035996Y030646D01*
X035996Y030759D01*
X036166Y030759D02*
X036223Y030816D01*
X036279Y030816D01*
X036336Y030759D01*
X036336Y030646D01*
X036279Y030589D01*
X036223Y030589D01*
X036166Y030646D01*
X036336Y030447D02*
X036336Y030221D01*
X036336Y030334D02*
X035996Y030334D01*
X036109Y030221D01*
X035996Y030079D02*
X036336Y030079D01*
X035996Y029852D01*
X036336Y029852D01*
X036279Y029711D02*
X036336Y029654D01*
X036336Y029541D01*
X036279Y029484D01*
X036053Y029484D01*
X035996Y029541D01*
X035996Y029654D01*
X036053Y029711D01*
X036412Y028399D02*
X036356Y028343D01*
X036356Y028116D01*
X036412Y028059D01*
X036526Y028059D01*
X036582Y028116D01*
X036724Y028059D02*
X036724Y028399D01*
X036951Y028059D01*
X036951Y028399D01*
X037092Y028286D02*
X037206Y028399D01*
X037206Y028059D01*
X037319Y028059D02*
X037092Y028059D01*
X037461Y028059D02*
X037461Y028116D01*
X037687Y028343D01*
X037687Y028399D01*
X037461Y028399D01*
X036582Y028343D02*
X036526Y028399D01*
X036412Y028399D01*
X028883Y016983D02*
X028940Y016926D01*
X028940Y016869D01*
X028883Y016812D01*
X028940Y016756D01*
X028940Y016699D01*
X028883Y016642D01*
X028770Y016642D01*
X028713Y016699D01*
X028572Y016642D02*
X028572Y016983D01*
X028713Y016926D02*
X028770Y016983D01*
X028883Y016983D01*
X028883Y016812D02*
X028826Y016812D01*
X028572Y016642D02*
X028345Y016983D01*
X028345Y016642D01*
X028203Y016699D02*
X028147Y016642D01*
X028033Y016642D01*
X027976Y016699D01*
X027976Y016926D01*
X028033Y016983D01*
X028147Y016983D01*
X028203Y016926D01*
X023542Y014874D02*
X023542Y014534D01*
X023599Y014704D02*
X023372Y014704D01*
X023542Y014874D01*
X023230Y014874D02*
X023230Y014590D01*
X023174Y014534D01*
X023060Y014534D01*
X023004Y014590D01*
X023004Y014874D01*
X024185Y010405D02*
X024185Y010122D01*
X024241Y010065D01*
X024355Y010065D01*
X024412Y010122D01*
X024412Y010405D01*
X024553Y010405D02*
X024553Y010235D01*
X024666Y010292D01*
X024723Y010292D01*
X024780Y010235D01*
X024780Y010122D01*
X024723Y010065D01*
X024610Y010065D01*
X024553Y010122D01*
X024553Y010405D02*
X024780Y010405D01*
X024504Y006350D02*
X024391Y006294D01*
X024277Y006180D01*
X024448Y006180D01*
X024504Y006123D01*
X024504Y006067D01*
X024448Y006010D01*
X024334Y006010D01*
X024277Y006067D01*
X024277Y006180D01*
X024136Y006067D02*
X024136Y006350D01*
X023909Y006350D02*
X023909Y006067D01*
X023966Y006010D01*
X024079Y006010D01*
X024136Y006067D01*
X031925Y006327D02*
X031982Y006270D01*
X032095Y006270D01*
X032152Y006327D01*
X032152Y006610D01*
X032293Y006610D02*
X032520Y006610D01*
X032520Y006553D01*
X032293Y006327D01*
X032293Y006270D01*
X031925Y006327D02*
X031925Y006610D01*
X035667Y006915D02*
X035723Y006858D01*
X035837Y006858D01*
X035893Y006915D01*
X036035Y006858D02*
X036035Y007199D01*
X036262Y006858D01*
X036262Y007199D01*
X036403Y007085D02*
X036517Y007199D01*
X036517Y006858D01*
X036630Y006858D02*
X036403Y006858D01*
X036772Y006915D02*
X036828Y006858D01*
X036942Y006858D01*
X036998Y006915D01*
X036998Y006972D01*
X036942Y007029D01*
X036772Y007029D01*
X036772Y006915D01*
X036772Y007029D02*
X036885Y007142D01*
X036998Y007199D01*
X035893Y007142D02*
X035837Y007199D01*
X035723Y007199D01*
X035667Y007142D01*
X035667Y006915D01*
X036714Y016316D02*
X036658Y016372D01*
X036658Y016599D01*
X036714Y016656D01*
X036828Y016656D01*
X036884Y016599D01*
X036884Y016486D02*
X036771Y016486D01*
X036884Y016486D02*
X036884Y016372D01*
X036828Y016316D01*
X036714Y016316D01*
D11*
X004343Y001690D02*
X004273Y001760D01*
X004273Y002040D01*
X004343Y002110D01*
X004483Y002110D01*
X004553Y002040D01*
X004733Y002110D02*
X005013Y001690D01*
X005013Y002110D01*
X005193Y002110D02*
X005474Y002110D01*
X005474Y002040D01*
X005193Y001760D01*
X005193Y001690D01*
X004733Y001690D02*
X004733Y002110D01*
X004553Y001760D02*
X004483Y001690D01*
X004343Y001690D01*
X003907Y011394D02*
X003978Y011464D01*
X003978Y011535D01*
X003907Y011605D01*
X003697Y011605D01*
X003697Y011464D01*
X003767Y011394D01*
X003907Y011394D01*
X003697Y011605D02*
X003837Y011745D01*
X003978Y011815D01*
X003517Y011815D02*
X003517Y011394D01*
X003237Y011815D01*
X003237Y011394D01*
X003057Y011464D02*
X002987Y011394D01*
X002847Y011394D01*
X002777Y011464D01*
X002777Y011745D01*
X002847Y011815D01*
X002987Y011815D01*
X003057Y011745D01*
X007867Y016762D02*
X007867Y017042D01*
X007727Y016902D02*
X008007Y016902D01*
X006565Y020804D02*
X006425Y020804D01*
X006355Y020874D01*
X006355Y021014D02*
X006495Y021084D01*
X006565Y021084D01*
X006635Y021014D01*
X006635Y020874D01*
X006565Y020804D01*
X006355Y021014D02*
X006355Y021224D01*
X006635Y021224D01*
X006175Y021224D02*
X006175Y020804D01*
X005894Y021224D01*
X005894Y020804D01*
X005714Y020874D02*
X005644Y020804D01*
X005504Y020804D01*
X005434Y020874D01*
X005434Y021154D01*
X005504Y021224D01*
X005644Y021224D01*
X005714Y021154D01*
X013981Y014060D02*
X014262Y014060D01*
X014121Y013920D02*
X014121Y014200D01*
X025576Y014060D02*
X025856Y014060D01*
X025716Y013920D02*
X025716Y014200D01*
X031777Y014060D02*
X032057Y014060D01*
X031917Y013920D02*
X031917Y014200D01*
X036983Y014219D02*
X036983Y014640D01*
X037193Y014640D01*
X037263Y014569D01*
X037263Y014429D01*
X037193Y014359D01*
X036983Y014359D01*
X037443Y014289D02*
X037513Y014219D01*
X037653Y014219D01*
X037723Y014289D01*
X037723Y014569D01*
X037653Y014640D01*
X037513Y014640D01*
X037443Y014569D01*
X037443Y014289D01*
X037903Y014219D02*
X038043Y014359D01*
X038183Y014219D01*
X038183Y014640D01*
X038364Y014640D02*
X038364Y014219D01*
X038644Y014219D01*
X038824Y014219D02*
X038824Y014640D01*
X039034Y014640D01*
X039104Y014569D01*
X039104Y014429D01*
X039034Y014359D01*
X038824Y014359D01*
X038964Y014359D02*
X039104Y014219D01*
X038504Y014429D02*
X038364Y014429D01*
X038364Y014640D02*
X038644Y014640D01*
X037903Y014640D02*
X037903Y014219D01*
X037692Y014967D02*
X037762Y015037D01*
X037692Y014967D02*
X037552Y014967D01*
X037482Y015037D01*
X037482Y015318D01*
X037552Y015388D01*
X037692Y015388D01*
X037762Y015318D01*
X037302Y015318D02*
X037302Y015037D01*
X037232Y014967D01*
X037022Y014967D01*
X037022Y015388D01*
X037232Y015388D01*
X037302Y015318D01*
X037696Y019133D02*
X037836Y019133D01*
X037906Y019203D01*
X038087Y019133D02*
X038087Y019553D01*
X038367Y019133D01*
X038367Y019553D01*
X038547Y019483D02*
X038617Y019553D01*
X038757Y019553D01*
X038827Y019483D01*
X038827Y019413D01*
X038547Y019133D01*
X038827Y019133D01*
X039007Y019203D02*
X039288Y019483D01*
X039288Y019203D01*
X039217Y019133D01*
X039077Y019133D01*
X039007Y019203D01*
X039007Y019483D01*
X039077Y019553D01*
X039217Y019553D01*
X039288Y019483D01*
X037906Y019483D02*
X037836Y019553D01*
X037696Y019553D01*
X037626Y019483D01*
X037626Y019203D01*
X037696Y019133D01*
X033338Y020596D02*
X033338Y020877D01*
X033268Y020947D01*
X033128Y020947D01*
X033057Y020877D01*
X033057Y020807D01*
X033128Y020736D01*
X033338Y020736D01*
X033338Y020596D02*
X033268Y020526D01*
X033128Y020526D01*
X033057Y020596D01*
X032877Y020526D02*
X032597Y020526D01*
X032737Y020526D02*
X032737Y020947D01*
X032597Y020807D01*
X032417Y020947D02*
X032417Y020526D01*
X032137Y020947D01*
X032137Y020526D01*
X031957Y020596D02*
X031887Y020526D01*
X031746Y020526D01*
X031676Y020596D01*
X031676Y020877D01*
X031746Y020947D01*
X031887Y020947D01*
X031957Y020877D01*
X031523Y028881D02*
X031523Y029161D01*
X031383Y029021D02*
X031663Y029021D01*
X026053Y029021D02*
X025773Y029021D01*
X025913Y028881D02*
X025913Y029161D01*
X014478Y029021D02*
X014198Y029021D01*
X014338Y028881D02*
X014338Y029161D01*
X008730Y029021D02*
X008450Y029021D01*
X008590Y028881D02*
X008590Y029161D01*
X036116Y004147D02*
X036397Y004147D01*
X036256Y004147D02*
X036256Y003727D01*
X036577Y003727D02*
X036857Y004007D01*
X036857Y004077D01*
X036787Y004147D01*
X036647Y004147D01*
X036577Y004077D01*
X036577Y003727D02*
X036857Y003727D01*
D12*
X036883Y004297D02*
X037277Y004297D01*
X037277Y005715D01*
X036883Y005715D01*
X037572Y005833D02*
X037572Y006030D01*
X038832Y006030D01*
X038832Y005833D01*
X038513Y006207D02*
X038423Y006207D01*
X038378Y006252D01*
X038558Y006432D01*
X038558Y006252D01*
X038513Y006207D01*
X038378Y006252D02*
X038378Y006432D01*
X038423Y006477D01*
X038513Y006477D01*
X038558Y006432D01*
X038263Y006207D02*
X038083Y006207D01*
X038173Y006207D02*
X038173Y006477D01*
X038083Y006387D01*
X037968Y006477D02*
X037968Y006207D01*
X037788Y006477D01*
X037788Y006207D01*
X037674Y006252D02*
X037629Y006207D01*
X037539Y006207D01*
X037494Y006252D01*
X037494Y006432D01*
X037539Y006477D01*
X037629Y006477D01*
X037674Y006432D01*
X037808Y005400D02*
X037810Y005440D01*
X037816Y005479D01*
X037826Y005518D01*
X037840Y005555D01*
X037858Y005591D01*
X037879Y005625D01*
X037903Y005657D01*
X037931Y005686D01*
X037961Y005712D01*
X037994Y005734D01*
X038028Y005754D01*
X038065Y005769D01*
X038103Y005781D01*
X038142Y005789D01*
X038182Y005793D01*
X038222Y005793D01*
X038262Y005789D01*
X038301Y005781D01*
X038339Y005769D01*
X038376Y005754D01*
X038410Y005734D01*
X038443Y005712D01*
X038473Y005686D01*
X038501Y005657D01*
X038525Y005625D01*
X038546Y005591D01*
X038564Y005555D01*
X038578Y005518D01*
X038588Y005479D01*
X038594Y005440D01*
X038596Y005400D01*
X038594Y005360D01*
X038588Y005321D01*
X038578Y005282D01*
X038564Y005245D01*
X038546Y005209D01*
X038525Y005175D01*
X038501Y005143D01*
X038473Y005114D01*
X038443Y005088D01*
X038410Y005066D01*
X038376Y005046D01*
X038339Y005031D01*
X038301Y005019D01*
X038262Y005011D01*
X038222Y005007D01*
X038182Y005007D01*
X038142Y005011D01*
X038103Y005019D01*
X038065Y005031D01*
X038028Y005046D01*
X037994Y005066D01*
X037961Y005088D01*
X037931Y005114D01*
X037903Y005143D01*
X037879Y005175D01*
X037858Y005209D01*
X037840Y005245D01*
X037826Y005282D01*
X037816Y005321D01*
X037810Y005360D01*
X037808Y005400D01*
X037572Y004967D02*
X037572Y004770D01*
X037966Y004770D01*
X038439Y004770D02*
X038832Y004770D01*
X038832Y004967D01*
X035683Y004297D02*
X035289Y004297D01*
X035289Y005715D01*
X035683Y005715D01*
X035171Y005675D02*
X035171Y005400D01*
X035033Y005400D01*
X034777Y005341D02*
X034777Y005203D01*
X034777Y005341D02*
X034502Y005341D01*
X034502Y005203D01*
X034502Y005400D02*
X034502Y005675D01*
X034639Y005675D01*
X034669Y005833D02*
X034579Y005923D01*
X034624Y005923D02*
X034488Y005923D01*
X034488Y005833D02*
X034488Y006103D01*
X034624Y006103D01*
X034669Y006058D01*
X034669Y005968D01*
X034624Y005923D01*
X034783Y005878D02*
X034828Y005833D01*
X034918Y005833D01*
X034963Y005878D01*
X034963Y005923D01*
X034918Y005968D01*
X034873Y005968D01*
X034918Y005968D02*
X034963Y006013D01*
X034963Y006058D01*
X034918Y006103D01*
X034828Y006103D01*
X034783Y006058D01*
X035033Y005675D02*
X035171Y005675D01*
X034639Y005400D02*
X034502Y005400D01*
X034502Y004809D02*
X034502Y004671D01*
X034777Y004671D01*
X034777Y004809D01*
X034639Y004612D02*
X034502Y004612D01*
X034502Y004337D01*
X034639Y004337D01*
X034683Y004233D02*
X034548Y004233D01*
X034548Y003963D01*
X034548Y004053D02*
X034683Y004053D01*
X034728Y004098D01*
X034728Y004188D01*
X034683Y004233D01*
X034842Y004188D02*
X034887Y004233D01*
X034977Y004233D01*
X035022Y004188D01*
X035022Y004143D01*
X034842Y003963D01*
X035022Y003963D01*
X034728Y003963D02*
X034638Y004053D01*
X034443Y003904D02*
X034443Y003766D01*
X034443Y003904D02*
X034167Y003904D01*
X034167Y003766D01*
X034088Y003904D02*
X033950Y003904D01*
X034088Y003904D02*
X034088Y003628D01*
X033950Y003628D01*
X033694Y003530D02*
X033694Y003392D01*
X033694Y003530D02*
X033419Y003530D01*
X033419Y003392D01*
X033419Y003628D02*
X033557Y003628D01*
X033419Y003628D02*
X033419Y003904D01*
X033557Y003904D01*
X033301Y003923D02*
X033301Y004022D01*
X033301Y003923D02*
X033202Y003825D01*
X033104Y003825D01*
X034167Y003372D02*
X034167Y003234D01*
X034443Y003234D01*
X034443Y003372D01*
X033694Y002998D02*
X033694Y002860D01*
X033419Y002860D01*
X033419Y002998D01*
X032828Y002860D02*
X032828Y002723D01*
X032828Y002860D02*
X032553Y002860D01*
X032553Y002723D01*
X032553Y002329D02*
X032553Y002191D01*
X032828Y002191D01*
X032828Y002329D01*
X031254Y002388D02*
X031254Y002250D01*
X031254Y002388D02*
X030978Y002388D01*
X030978Y002250D01*
X030880Y002112D02*
X030880Y002388D01*
X030742Y002388D01*
X030742Y002112D02*
X030880Y002112D01*
X030686Y001969D02*
X030551Y001834D01*
X030731Y001834D01*
X030686Y001699D02*
X030686Y001969D01*
X030436Y001924D02*
X030436Y001834D01*
X030391Y001789D01*
X030256Y001789D01*
X030256Y001699D02*
X030256Y001969D01*
X030391Y001969D01*
X030436Y001924D01*
X030346Y001789D02*
X030436Y001699D01*
X030053Y001522D02*
X030053Y015852D01*
X029561Y016364D01*
X026943Y016364D01*
X026943Y001522D01*
X030053Y001522D01*
X030210Y002112D02*
X030210Y002388D01*
X030348Y002388D01*
X030348Y002112D02*
X030210Y002112D01*
X030978Y001856D02*
X030978Y001719D01*
X031254Y001719D01*
X031254Y001856D01*
X031220Y001595D02*
X031220Y001460D01*
X031310Y001505D01*
X031355Y001505D01*
X031400Y001460D01*
X031400Y001370D01*
X031355Y001325D01*
X031265Y001325D01*
X031220Y001370D01*
X031106Y001325D02*
X031016Y001415D01*
X031061Y001415D02*
X030925Y001415D01*
X030925Y001325D02*
X030925Y001595D01*
X031061Y001595D01*
X031106Y001550D01*
X031106Y001460D01*
X031061Y001415D01*
X031220Y001595D02*
X031400Y001595D01*
X031431Y003825D02*
X031529Y003825D01*
X031431Y003825D02*
X031332Y003923D01*
X031332Y004022D01*
X031332Y005597D02*
X031332Y005695D01*
X031431Y005793D01*
X031529Y005793D01*
X033104Y005793D02*
X033301Y005597D01*
X033754Y006679D02*
X034246Y006679D01*
X033754Y006679D02*
X033754Y014553D01*
X034246Y014553D01*
X035230Y014553D02*
X035427Y014553D01*
X035427Y013471D01*
X035427Y007762D01*
X035722Y007762D01*
X035722Y013471D01*
X035427Y013471D01*
X035604Y015774D02*
X035210Y015774D01*
X035210Y016797D01*
X035604Y016797D01*
X035604Y015774D01*
X035761Y015774D02*
X036155Y015774D01*
X036155Y016797D01*
X035761Y016797D01*
X035761Y015774D01*
X037041Y015872D02*
X037041Y016817D01*
X037041Y017171D02*
X037041Y017329D01*
X037041Y017683D02*
X037041Y018628D01*
X037710Y018628D01*
X038616Y018628D02*
X038852Y018628D01*
X038852Y015872D01*
X038616Y015872D01*
X037710Y015872D02*
X037041Y015872D01*
X036254Y017742D02*
X035860Y017742D01*
X035860Y018766D01*
X036254Y018766D01*
X036254Y017742D01*
X035604Y017742D02*
X035604Y018136D01*
X034580Y018136D01*
X034580Y017742D01*
X035604Y017742D01*
X033635Y017142D02*
X033635Y019898D01*
X033399Y019898D01*
X032494Y019898D02*
X031824Y019898D01*
X031824Y018953D01*
X031824Y018599D02*
X031824Y018441D01*
X031824Y018087D02*
X031824Y017142D01*
X032494Y017142D01*
X032080Y016345D02*
X032080Y016030D01*
X032080Y016345D02*
X031254Y016345D01*
X031254Y016010D01*
X030643Y015577D02*
X030643Y015380D01*
X030643Y015577D02*
X030250Y015577D01*
X030250Y015380D01*
X030250Y014750D02*
X030250Y014553D01*
X030643Y014553D01*
X030643Y014750D01*
X030744Y014337D02*
X030609Y014201D01*
X030789Y014201D01*
X030903Y014247D02*
X030993Y014337D01*
X030993Y014066D01*
X030903Y014066D02*
X031083Y014066D01*
X030744Y014066D02*
X030744Y014337D01*
X030494Y014292D02*
X030449Y014337D01*
X030359Y014337D01*
X030314Y014292D01*
X030314Y014111D01*
X030359Y014066D01*
X030449Y014066D01*
X030494Y014111D01*
X031254Y014415D02*
X031254Y014711D01*
X031254Y014415D02*
X032080Y014415D01*
X032080Y014711D01*
X032007Y013774D02*
X032053Y013729D01*
X032053Y013684D01*
X032007Y013639D01*
X032053Y013593D01*
X032053Y013548D01*
X032007Y013503D01*
X031917Y013503D01*
X031872Y013548D01*
X031758Y013548D02*
X031713Y013503D01*
X031623Y013503D01*
X031578Y013548D01*
X031578Y013729D01*
X031623Y013774D01*
X031713Y013774D01*
X031758Y013729D01*
X031872Y013729D02*
X031917Y013774D01*
X032007Y013774D01*
X032007Y013639D02*
X031962Y013639D01*
X032167Y013684D02*
X032212Y013639D01*
X032347Y013639D01*
X032347Y013729D02*
X032302Y013774D01*
X032212Y013774D01*
X032167Y013729D01*
X032167Y013684D01*
X032167Y013548D02*
X032212Y013503D01*
X032302Y013503D01*
X032347Y013548D01*
X032347Y013729D01*
X033399Y017142D02*
X033635Y017142D01*
X034817Y019967D02*
X035309Y019967D01*
X034817Y019967D02*
X034817Y027841D01*
X035309Y027841D01*
X036293Y027841D02*
X036490Y027841D01*
X036490Y026758D01*
X036490Y021049D01*
X036785Y021049D01*
X036785Y026758D01*
X036490Y026758D01*
X035706Y028782D02*
X032746Y028782D01*
X032746Y031742D01*
X035706Y031742D01*
X035706Y028782D01*
X034974Y030262D02*
X034972Y030207D01*
X034966Y030153D01*
X034956Y030099D01*
X034942Y030047D01*
X034925Y029995D01*
X034903Y029945D01*
X034878Y029896D01*
X034850Y029849D01*
X034818Y029805D01*
X034783Y029763D01*
X034745Y029724D01*
X034704Y029687D01*
X034661Y029654D01*
X034616Y029624D01*
X034568Y029597D01*
X034519Y029574D01*
X034468Y029554D01*
X034415Y029538D01*
X034362Y029526D01*
X034308Y029518D01*
X034253Y029514D01*
X034199Y029514D01*
X034144Y029518D01*
X034090Y029526D01*
X034037Y029538D01*
X033984Y029554D01*
X033933Y029574D01*
X033884Y029597D01*
X033836Y029624D01*
X033791Y029654D01*
X033748Y029687D01*
X033707Y029724D01*
X033669Y029763D01*
X033634Y029805D01*
X033602Y029849D01*
X033574Y029896D01*
X033549Y029945D01*
X033527Y029995D01*
X033510Y030047D01*
X033496Y030099D01*
X033486Y030153D01*
X033480Y030207D01*
X033478Y030262D01*
X033480Y030317D01*
X033486Y030371D01*
X033496Y030425D01*
X033510Y030477D01*
X033527Y030529D01*
X033549Y030579D01*
X033574Y030628D01*
X033602Y030675D01*
X033634Y030719D01*
X033669Y030761D01*
X033707Y030800D01*
X033748Y030837D01*
X033791Y030870D01*
X033836Y030900D01*
X033884Y030927D01*
X033933Y030950D01*
X033984Y030970D01*
X034037Y030986D01*
X034090Y030998D01*
X034144Y031006D01*
X034199Y031010D01*
X034253Y031010D01*
X034308Y031006D01*
X034362Y030998D01*
X034415Y030986D01*
X034468Y030970D01*
X034519Y030950D01*
X034568Y030927D01*
X034616Y030900D01*
X034661Y030870D01*
X034704Y030837D01*
X034745Y030800D01*
X034783Y030761D01*
X034818Y030719D01*
X034850Y030675D01*
X034878Y030628D01*
X034903Y030579D01*
X034925Y030529D01*
X034942Y030477D01*
X034956Y030425D01*
X034966Y030371D01*
X034972Y030317D01*
X034974Y030262D01*
X032126Y030474D02*
X032126Y030564D01*
X032081Y030609D01*
X032081Y030723D02*
X032126Y030768D01*
X032126Y030858D01*
X032081Y030903D01*
X032036Y030903D01*
X031991Y030858D01*
X031991Y030813D01*
X031991Y030858D02*
X031946Y030903D01*
X031901Y030903D01*
X031856Y030858D01*
X031856Y030768D01*
X031901Y030723D01*
X031901Y030609D02*
X031856Y030564D01*
X031856Y030474D01*
X031901Y030429D01*
X032081Y030429D01*
X032126Y030474D01*
X032126Y031018D02*
X032126Y031198D01*
X032126Y031108D02*
X031856Y031108D01*
X031946Y031018D01*
X031687Y030990D02*
X031687Y031305D01*
X030860Y031305D01*
X030860Y030971D01*
X030624Y030537D02*
X030230Y030537D01*
X030230Y030341D01*
X030624Y030341D02*
X030624Y030537D01*
X030053Y030833D02*
X029541Y031325D01*
X026943Y031325D01*
X026943Y018845D01*
X030053Y018845D01*
X030053Y030833D01*
X030230Y029711D02*
X030230Y029514D01*
X030624Y029514D01*
X030624Y029711D01*
X030860Y029671D02*
X030860Y029376D01*
X031687Y029376D01*
X031687Y029671D01*
X030987Y029168D02*
X030987Y029123D01*
X030942Y029078D01*
X030987Y029033D01*
X030987Y028988D01*
X030942Y028943D01*
X030852Y028943D01*
X030807Y028988D01*
X030692Y028988D02*
X030647Y028943D01*
X030557Y028943D01*
X030512Y028988D01*
X030398Y028988D02*
X030353Y028943D01*
X030262Y028943D01*
X030217Y028988D01*
X030217Y029168D01*
X030262Y029213D01*
X030353Y029213D01*
X030398Y029168D01*
X030512Y029168D02*
X030557Y029213D01*
X030647Y029213D01*
X030692Y029168D01*
X030692Y029123D01*
X030647Y029078D01*
X030692Y029033D01*
X030692Y028988D01*
X030647Y029078D02*
X030602Y029078D01*
X030807Y029168D02*
X030852Y029213D01*
X030942Y029213D01*
X030987Y029168D01*
X030942Y029078D02*
X030897Y029078D01*
X026746Y029514D02*
X026746Y029711D01*
X026746Y029514D02*
X026352Y029514D01*
X026352Y029711D01*
X026076Y029671D02*
X026076Y029376D01*
X025250Y029376D01*
X025250Y029671D01*
X024995Y030488D02*
X025040Y030533D01*
X025040Y030623D01*
X024995Y030668D01*
X024995Y030782D02*
X025040Y030827D01*
X025040Y030917D01*
X024995Y030962D01*
X024950Y030962D01*
X024904Y030917D01*
X024904Y030872D01*
X024904Y030917D02*
X024859Y030962D01*
X024814Y030962D01*
X024769Y030917D01*
X024769Y030827D01*
X024814Y030782D01*
X024814Y030668D02*
X024769Y030623D01*
X024769Y030533D01*
X024814Y030488D01*
X024995Y030488D01*
X025250Y030971D02*
X025250Y031305D01*
X026076Y031305D01*
X026076Y030990D01*
X026352Y030537D02*
X026352Y030341D01*
X026352Y030537D02*
X026746Y030537D01*
X026746Y030341D01*
X026445Y029422D02*
X026445Y029242D01*
X026265Y029422D01*
X026220Y029422D01*
X026175Y029377D01*
X026175Y029287D01*
X026220Y029242D01*
X026220Y029128D02*
X026175Y029083D01*
X026175Y028993D01*
X026220Y028948D01*
X026220Y028833D02*
X026175Y028788D01*
X026175Y028698D01*
X026220Y028653D01*
X026400Y028653D01*
X026445Y028698D01*
X026445Y028788D01*
X026400Y028833D01*
X026400Y028948D02*
X026445Y028993D01*
X026445Y029083D01*
X026400Y029128D01*
X026355Y029128D01*
X026310Y029083D01*
X026310Y029038D01*
X026310Y029083D02*
X026265Y029128D01*
X026220Y029128D01*
X024995Y031077D02*
X024814Y031257D01*
X024995Y031257D01*
X025040Y031212D01*
X025040Y031122D01*
X024995Y031077D01*
X024814Y031077D01*
X024769Y031122D01*
X024769Y031212D01*
X024814Y031257D01*
X019403Y027959D02*
X019403Y027762D01*
X019403Y027959D02*
X018143Y027959D01*
X018143Y027762D01*
X018331Y028181D02*
X018421Y028181D01*
X018467Y028226D01*
X018581Y028181D02*
X018581Y028451D01*
X018761Y028181D01*
X018761Y028451D01*
X018876Y028361D02*
X018966Y028451D01*
X018966Y028181D01*
X018876Y028181D02*
X019056Y028181D01*
X019170Y028181D02*
X019350Y028181D01*
X019260Y028181D02*
X019260Y028451D01*
X019170Y028361D01*
X018467Y028406D02*
X018421Y028451D01*
X018331Y028451D01*
X018286Y028406D01*
X018286Y028226D01*
X018331Y028181D01*
X018379Y027329D02*
X018381Y027369D01*
X018387Y027408D01*
X018397Y027447D01*
X018411Y027484D01*
X018429Y027520D01*
X018450Y027554D01*
X018474Y027586D01*
X018502Y027615D01*
X018532Y027641D01*
X018565Y027663D01*
X018599Y027683D01*
X018636Y027698D01*
X018674Y027710D01*
X018713Y027718D01*
X018753Y027722D01*
X018793Y027722D01*
X018833Y027718D01*
X018872Y027710D01*
X018910Y027698D01*
X018947Y027683D01*
X018981Y027663D01*
X019014Y027641D01*
X019044Y027615D01*
X019072Y027586D01*
X019096Y027554D01*
X019117Y027520D01*
X019135Y027484D01*
X019149Y027447D01*
X019159Y027408D01*
X019165Y027369D01*
X019167Y027329D01*
X019165Y027289D01*
X019159Y027250D01*
X019149Y027211D01*
X019135Y027174D01*
X019117Y027138D01*
X019096Y027104D01*
X019072Y027072D01*
X019044Y027043D01*
X019014Y027017D01*
X018981Y026995D01*
X018947Y026975D01*
X018910Y026960D01*
X018872Y026948D01*
X018833Y026940D01*
X018793Y026936D01*
X018753Y026936D01*
X018713Y026940D01*
X018674Y026948D01*
X018636Y026960D01*
X018599Y026975D01*
X018565Y026995D01*
X018532Y027017D01*
X018502Y027043D01*
X018474Y027072D01*
X018450Y027104D01*
X018429Y027138D01*
X018411Y027174D01*
X018397Y027211D01*
X018387Y027250D01*
X018381Y027289D01*
X018379Y027329D01*
X018143Y026896D02*
X018143Y026699D01*
X018537Y026699D01*
X018616Y026187D02*
X019009Y026187D01*
X019009Y024770D01*
X018616Y024770D01*
X018159Y024652D02*
X018159Y024381D01*
X018069Y024381D02*
X018249Y024381D01*
X018069Y024561D02*
X018159Y024652D01*
X017955Y024652D02*
X017775Y024652D01*
X017865Y024652D02*
X017865Y024381D01*
X017415Y024770D02*
X017021Y024770D01*
X017021Y026187D01*
X017415Y026187D01*
X016549Y026463D02*
X016549Y027132D01*
X016273Y027132D01*
X016273Y026463D01*
X016549Y026463D01*
X016096Y026738D02*
X016096Y026876D01*
X016096Y026738D02*
X015820Y026738D01*
X015820Y026876D01*
X015820Y027270D02*
X015820Y027408D01*
X016096Y027408D01*
X016096Y027270D01*
X016332Y027320D02*
X016377Y027275D01*
X016558Y027275D01*
X016603Y027320D01*
X016603Y027410D01*
X016558Y027455D01*
X016603Y027570D02*
X016603Y027750D01*
X016603Y027660D02*
X016332Y027660D01*
X016422Y027570D01*
X016377Y027455D02*
X016332Y027410D01*
X016332Y027320D01*
X016056Y027650D02*
X015786Y027650D01*
X015786Y027785D01*
X015831Y027830D01*
X015921Y027830D01*
X015966Y027785D01*
X015966Y027650D01*
X015966Y027740D02*
X016056Y027830D01*
X016056Y027945D02*
X016056Y028125D01*
X016056Y028035D02*
X015786Y028035D01*
X015876Y027945D01*
X016332Y027954D02*
X016603Y027954D01*
X016603Y027864D02*
X016603Y028044D01*
X016422Y027864D02*
X016332Y027954D01*
X015840Y026463D02*
X015624Y026463D01*
X015840Y026463D02*
X015840Y026266D01*
X015840Y024711D02*
X015840Y024494D01*
X015624Y024494D01*
X014088Y024494D02*
X013872Y024494D01*
X013872Y024711D01*
X013872Y026246D02*
X013872Y026286D01*
X014049Y026463D01*
X014088Y026463D01*
X013428Y028633D02*
X013247Y028633D01*
X013202Y028678D01*
X013202Y028768D01*
X013247Y028813D01*
X013247Y028928D02*
X013202Y028973D01*
X013202Y029063D01*
X013247Y029108D01*
X013293Y029108D01*
X013338Y029063D01*
X013383Y029108D01*
X013428Y029108D01*
X013473Y029063D01*
X013473Y028973D01*
X013428Y028928D01*
X013428Y028813D02*
X013473Y028768D01*
X013473Y028678D01*
X013428Y028633D01*
X013338Y029018D02*
X013338Y029063D01*
X013428Y029223D02*
X013247Y029403D01*
X013202Y029403D01*
X013202Y029223D01*
X013428Y029223D02*
X013473Y029223D01*
X013675Y029376D02*
X014502Y029376D01*
X014502Y029671D01*
X014755Y030409D02*
X014936Y030409D01*
X014981Y030454D01*
X014981Y030544D01*
X014936Y030589D01*
X014936Y030704D02*
X014981Y030749D01*
X014981Y030839D01*
X014936Y030884D01*
X014890Y030884D01*
X014845Y030839D01*
X014845Y030794D01*
X014845Y030839D02*
X014800Y030884D01*
X014755Y030884D01*
X014710Y030839D01*
X014710Y030749D01*
X014755Y030704D01*
X014755Y030589D02*
X014710Y030544D01*
X014710Y030454D01*
X014755Y030409D01*
X014710Y030998D02*
X014845Y030998D01*
X014800Y031088D01*
X014800Y031133D01*
X014845Y031178D01*
X014936Y031178D01*
X014981Y031133D01*
X014981Y031043D01*
X014936Y030998D01*
X014710Y030998D02*
X014710Y031178D01*
X014502Y031305D02*
X014502Y030990D01*
X014502Y031305D02*
X013675Y031305D01*
X013675Y030971D01*
X013281Y030537D02*
X012887Y030537D01*
X012887Y030341D01*
X013281Y030341D02*
X013281Y030537D01*
X012730Y030833D02*
X012218Y031325D01*
X009620Y031325D01*
X009620Y018845D01*
X012730Y018845D01*
X012730Y030833D01*
X012887Y029711D02*
X012887Y029514D01*
X013281Y029514D01*
X013281Y029711D01*
X013675Y029671D02*
X013675Y029376D01*
X009403Y029514D02*
X009403Y029711D01*
X009403Y029514D02*
X009009Y029514D01*
X009009Y029711D01*
X008754Y029671D02*
X008754Y029376D01*
X007927Y029376D01*
X007927Y029671D01*
X007816Y029640D02*
X007771Y029595D01*
X007816Y029640D02*
X007816Y029730D01*
X007771Y029775D01*
X007726Y029775D01*
X007681Y029730D01*
X007681Y029685D01*
X007681Y029730D02*
X007636Y029775D01*
X007591Y029775D01*
X007546Y029730D01*
X007546Y029640D01*
X007591Y029595D01*
X007591Y029481D02*
X007546Y029436D01*
X007546Y029346D01*
X007591Y029301D01*
X007771Y029301D01*
X007816Y029346D01*
X007816Y029436D01*
X007771Y029481D01*
X007681Y029890D02*
X007546Y030025D01*
X007816Y030025D01*
X007681Y030070D02*
X007681Y029890D01*
X007100Y029908D02*
X006608Y029908D01*
X007100Y029908D02*
X007100Y022034D01*
X006608Y022034D01*
X007572Y022191D02*
X007572Y022388D01*
X007966Y022388D01*
X008439Y022388D02*
X008832Y022388D01*
X008832Y022191D01*
X007808Y021758D02*
X007810Y021798D01*
X007816Y021837D01*
X007826Y021876D01*
X007840Y021913D01*
X007858Y021949D01*
X007879Y021983D01*
X007903Y022015D01*
X007931Y022044D01*
X007961Y022070D01*
X007994Y022092D01*
X008028Y022112D01*
X008065Y022127D01*
X008103Y022139D01*
X008142Y022147D01*
X008182Y022151D01*
X008222Y022151D01*
X008262Y022147D01*
X008301Y022139D01*
X008339Y022127D01*
X008376Y022112D01*
X008410Y022092D01*
X008443Y022070D01*
X008473Y022044D01*
X008501Y022015D01*
X008525Y021983D01*
X008546Y021949D01*
X008564Y021913D01*
X008578Y021876D01*
X008588Y021837D01*
X008594Y021798D01*
X008596Y021758D01*
X008594Y021718D01*
X008588Y021679D01*
X008578Y021640D01*
X008564Y021603D01*
X008546Y021567D01*
X008525Y021533D01*
X008501Y021501D01*
X008473Y021472D01*
X008443Y021446D01*
X008410Y021424D01*
X008376Y021404D01*
X008339Y021389D01*
X008301Y021377D01*
X008262Y021369D01*
X008222Y021365D01*
X008182Y021365D01*
X008142Y021369D01*
X008103Y021377D01*
X008065Y021389D01*
X008028Y021404D01*
X007994Y021424D01*
X007961Y021446D01*
X007931Y021472D01*
X007903Y021501D01*
X007879Y021533D01*
X007858Y021567D01*
X007840Y021603D01*
X007826Y021640D01*
X007816Y021679D01*
X007810Y021718D01*
X007808Y021758D01*
X007572Y021325D02*
X007572Y021128D01*
X008832Y021128D01*
X008832Y021325D01*
X008237Y020925D02*
X008237Y020880D01*
X008192Y020835D01*
X008102Y020835D01*
X008057Y020880D01*
X008057Y020925D01*
X008102Y020970D01*
X008192Y020970D01*
X008237Y020925D01*
X008192Y020835D02*
X008237Y020790D01*
X008237Y020745D01*
X008192Y020700D01*
X008102Y020700D01*
X008057Y020745D01*
X008057Y020790D01*
X008102Y020835D01*
X007942Y020700D02*
X007942Y020970D01*
X007762Y020970D02*
X007942Y020700D01*
X007762Y020700D02*
X007762Y020970D01*
X007648Y020925D02*
X007603Y020970D01*
X007513Y020970D01*
X007468Y020925D01*
X007468Y020745D01*
X007513Y020700D01*
X007603Y020700D01*
X007648Y020745D01*
X005624Y022034D02*
X005427Y022034D01*
X005427Y023116D01*
X005427Y028825D01*
X005131Y028825D01*
X005131Y023116D01*
X005427Y023116D01*
X004482Y020262D02*
X003990Y020262D01*
X004482Y020262D02*
X004482Y012388D01*
X003990Y012388D01*
X003006Y012388D02*
X002809Y012388D01*
X002809Y013471D01*
X002809Y019179D01*
X002513Y019179D01*
X002513Y013471D01*
X002809Y013471D01*
X004187Y010616D02*
X004383Y010616D01*
X004187Y010616D02*
X004187Y009534D01*
X004187Y003825D01*
X003891Y003825D01*
X003891Y009534D01*
X004187Y009534D01*
X005368Y010616D02*
X005860Y010616D01*
X005860Y002742D01*
X005368Y002742D01*
X004383Y002742D02*
X004187Y002742D01*
X004187Y003825D01*
X009620Y001522D02*
X012730Y001522D01*
X012730Y015852D01*
X012238Y016364D01*
X009620Y016364D01*
X009620Y001522D01*
X013872Y009534D02*
X014088Y009534D01*
X013872Y009534D02*
X013872Y009750D01*
X015624Y009534D02*
X015840Y009534D01*
X015840Y009750D01*
X016943Y009770D02*
X016943Y011187D01*
X017336Y011187D01*
X018065Y011522D02*
X018065Y011719D01*
X018065Y011522D02*
X018458Y011522D01*
X018537Y011187D02*
X018931Y011187D01*
X018931Y009770D01*
X018537Y009770D01*
X019223Y009933D02*
X019223Y010203D01*
X019133Y010203D02*
X019313Y010203D01*
X019428Y010068D02*
X019608Y010068D01*
X019563Y010203D02*
X019428Y010068D01*
X019563Y009933D02*
X019563Y010203D01*
X019324Y011522D02*
X018931Y011522D01*
X019324Y011522D02*
X019324Y011719D01*
X018300Y012152D02*
X018302Y012192D01*
X018308Y012231D01*
X018318Y012270D01*
X018332Y012307D01*
X018350Y012343D01*
X018371Y012377D01*
X018395Y012409D01*
X018423Y012438D01*
X018453Y012464D01*
X018486Y012486D01*
X018520Y012506D01*
X018557Y012521D01*
X018595Y012533D01*
X018634Y012541D01*
X018674Y012545D01*
X018714Y012545D01*
X018754Y012541D01*
X018793Y012533D01*
X018831Y012521D01*
X018868Y012506D01*
X018902Y012486D01*
X018935Y012464D01*
X018965Y012438D01*
X018993Y012409D01*
X019017Y012377D01*
X019038Y012343D01*
X019056Y012307D01*
X019070Y012270D01*
X019080Y012231D01*
X019086Y012192D01*
X019088Y012152D01*
X019086Y012112D01*
X019080Y012073D01*
X019070Y012034D01*
X019056Y011997D01*
X019038Y011961D01*
X019017Y011927D01*
X018993Y011895D01*
X018965Y011866D01*
X018935Y011840D01*
X018902Y011818D01*
X018868Y011798D01*
X018831Y011783D01*
X018793Y011771D01*
X018754Y011763D01*
X018714Y011759D01*
X018674Y011759D01*
X018634Y011763D01*
X018595Y011771D01*
X018557Y011783D01*
X018520Y011798D01*
X018486Y011818D01*
X018453Y011840D01*
X018423Y011866D01*
X018395Y011895D01*
X018371Y011927D01*
X018350Y011961D01*
X018332Y011997D01*
X018318Y012034D01*
X018308Y012073D01*
X018302Y012112D01*
X018300Y012152D01*
X018065Y012585D02*
X018065Y012782D01*
X019324Y012782D01*
X019324Y012585D01*
X019207Y013038D02*
X019027Y013038D01*
X019207Y013218D01*
X019207Y013263D01*
X019162Y013308D01*
X019072Y013308D01*
X019027Y013263D01*
X018823Y013308D02*
X018823Y013038D01*
X018733Y013038D02*
X018913Y013038D01*
X018733Y013218D02*
X018823Y013308D01*
X018618Y013308D02*
X018618Y013038D01*
X018438Y013308D01*
X018438Y013038D01*
X018323Y013083D02*
X018278Y013038D01*
X018188Y013038D01*
X018143Y013083D01*
X018143Y013263D01*
X018188Y013308D01*
X018278Y013308D01*
X018323Y013263D01*
X016504Y013236D02*
X016459Y013281D01*
X016414Y013281D01*
X016369Y013236D01*
X016369Y013101D01*
X016459Y013101D01*
X016504Y013146D01*
X016504Y013236D01*
X016369Y013101D02*
X016279Y013191D01*
X016234Y013281D01*
X016234Y012986D02*
X016234Y012806D01*
X016369Y012806D01*
X016324Y012896D01*
X016324Y012941D01*
X016369Y012986D01*
X016459Y012986D01*
X016504Y012941D01*
X016504Y012851D01*
X016459Y012806D01*
X016459Y012691D02*
X016504Y012646D01*
X016504Y012556D01*
X016459Y012511D01*
X016279Y012511D01*
X016234Y012556D01*
X016234Y012646D01*
X016279Y012691D01*
X016096Y012732D02*
X016006Y012642D01*
X016006Y012687D02*
X016006Y012552D01*
X016096Y012552D02*
X015826Y012552D01*
X015826Y012687D01*
X015871Y012732D01*
X015961Y012732D01*
X016006Y012687D01*
X016051Y012847D02*
X016096Y012847D01*
X016051Y012847D02*
X015871Y013027D01*
X015826Y013027D01*
X015826Y012847D01*
X015820Y012368D02*
X015820Y012230D01*
X015820Y012368D02*
X016096Y012368D01*
X016096Y012230D01*
X016234Y012368D02*
X016234Y011699D01*
X016509Y011699D01*
X016509Y012368D01*
X016234Y012368D01*
X016096Y011837D02*
X016096Y011699D01*
X015820Y011699D01*
X015820Y011837D01*
X015840Y011502D02*
X015624Y011502D01*
X015840Y011502D02*
X015840Y011305D01*
X014088Y011502D02*
X014049Y011502D01*
X013872Y011325D01*
X013872Y011286D01*
X013558Y014007D02*
X013468Y014007D01*
X013423Y014052D01*
X013423Y014142D02*
X013513Y014187D01*
X013558Y014187D01*
X013603Y014142D01*
X013603Y014052D01*
X013558Y014007D01*
X013423Y014142D02*
X013423Y014278D01*
X013603Y014278D01*
X013458Y014415D02*
X014285Y014415D01*
X014285Y014711D01*
X014460Y015409D02*
X014640Y015409D01*
X014685Y015454D01*
X014685Y015544D01*
X014640Y015589D01*
X014550Y015704D02*
X014415Y015839D01*
X014685Y015839D01*
X014550Y015884D02*
X014550Y015704D01*
X014460Y015589D02*
X014415Y015544D01*
X014415Y015454D01*
X014460Y015409D01*
X014460Y015998D02*
X014415Y016043D01*
X014415Y016133D01*
X014460Y016178D01*
X014505Y016178D01*
X014550Y016133D01*
X014595Y016178D01*
X014640Y016178D01*
X014685Y016133D01*
X014685Y016043D01*
X014640Y015998D01*
X014550Y016088D02*
X014550Y016133D01*
X014285Y016030D02*
X014285Y016345D01*
X013458Y016345D01*
X013458Y016010D01*
X013222Y015577D02*
X012828Y015577D01*
X012828Y015380D01*
X013222Y015380D02*
X013222Y015577D01*
X013222Y014750D02*
X013222Y014553D01*
X012828Y014553D01*
X012828Y014750D01*
X012879Y014278D02*
X012834Y014233D01*
X012834Y014052D01*
X012879Y014007D01*
X012969Y014007D01*
X013014Y014052D01*
X013128Y014142D02*
X013308Y014142D01*
X013263Y014007D02*
X013263Y014278D01*
X013128Y014142D01*
X013014Y014233D02*
X012969Y014278D01*
X012879Y014278D01*
X013458Y014415D02*
X013458Y014711D01*
X010151Y016738D02*
X010151Y017565D01*
X009817Y017565D01*
X009836Y016738D02*
X010151Y016738D01*
X009178Y016524D02*
X009133Y016569D01*
X009043Y016569D01*
X008998Y016524D01*
X008883Y016434D02*
X008703Y016434D01*
X008838Y016569D01*
X008838Y016299D01*
X008998Y016299D02*
X009178Y016479D01*
X009178Y016524D01*
X009178Y016299D02*
X008998Y016299D01*
X008589Y016344D02*
X008544Y016299D01*
X008453Y016299D01*
X008408Y016344D01*
X008408Y016524D01*
X008453Y016569D01*
X008544Y016569D01*
X008589Y016524D01*
X008517Y016738D02*
X008222Y016738D01*
X008222Y017565D01*
X008517Y017565D01*
X009128Y015577D02*
X009128Y015380D01*
X009128Y015577D02*
X009521Y015577D01*
X009521Y015380D01*
X009521Y014750D02*
X009521Y014553D01*
X009128Y014553D01*
X009128Y014750D01*
X009053Y014430D02*
X008918Y014295D01*
X009098Y014295D01*
X009212Y014295D02*
X009392Y014295D01*
X009347Y014430D02*
X009212Y014295D01*
X009347Y014160D02*
X009347Y014430D01*
X009053Y014430D02*
X009053Y014160D01*
X008803Y014205D02*
X008758Y014160D01*
X008668Y014160D01*
X008623Y014205D01*
X008623Y014385D01*
X008668Y014430D01*
X008758Y014430D01*
X008803Y014385D01*
X013872Y019573D02*
X014088Y019573D01*
X013872Y019573D02*
X013872Y019789D01*
X013872Y021325D02*
X013872Y021364D01*
X014049Y021541D01*
X014088Y021541D01*
X015624Y021541D02*
X015840Y021541D01*
X015840Y021345D01*
X015820Y021620D02*
X015820Y021758D01*
X015820Y021620D02*
X016096Y021620D01*
X016096Y021758D01*
X016273Y022014D02*
X016273Y021345D01*
X016549Y021345D01*
X016549Y022014D01*
X016273Y022014D01*
X016417Y022157D02*
X016597Y022157D01*
X016642Y022202D01*
X016642Y022292D01*
X016597Y022337D01*
X016642Y022452D02*
X016462Y022632D01*
X016417Y022632D01*
X016372Y022587D01*
X016372Y022497D01*
X016417Y022452D01*
X016417Y022337D02*
X016372Y022292D01*
X016372Y022202D01*
X016417Y022157D01*
X016096Y022152D02*
X016096Y022289D01*
X015820Y022289D01*
X015820Y022152D01*
X015781Y022433D02*
X015781Y022568D01*
X015826Y022613D01*
X015916Y022613D01*
X015961Y022568D01*
X015961Y022433D01*
X015961Y022523D02*
X016051Y022613D01*
X016006Y022727D02*
X016051Y022772D01*
X016051Y022862D01*
X016006Y022907D01*
X015961Y022907D01*
X015916Y022862D01*
X015916Y022727D01*
X016006Y022727D01*
X015916Y022727D02*
X015826Y022817D01*
X015781Y022907D01*
X015781Y022433D02*
X016051Y022433D01*
X016372Y022791D02*
X016417Y022746D01*
X016462Y022746D01*
X016507Y022791D01*
X016507Y022926D01*
X016597Y022926D02*
X016417Y022926D01*
X016372Y022881D01*
X016372Y022791D01*
X016597Y022746D02*
X016642Y022791D01*
X016642Y022881D01*
X016597Y022926D01*
X016642Y022632D02*
X016642Y022452D01*
X018143Y022132D02*
X018143Y021935D01*
X018537Y021935D01*
X019009Y021935D02*
X019403Y021935D01*
X019403Y022132D01*
X019763Y022235D02*
X019808Y022190D01*
X019988Y022190D01*
X020033Y022235D01*
X020033Y022325D01*
X019988Y022370D01*
X020033Y022485D02*
X019763Y022485D01*
X020033Y022665D01*
X019763Y022665D01*
X019808Y022780D02*
X019853Y022780D01*
X019898Y022825D01*
X019898Y022960D01*
X019988Y022960D02*
X019808Y022960D01*
X019763Y022915D01*
X019763Y022825D01*
X019808Y022780D01*
X019988Y022780D02*
X020033Y022825D01*
X020033Y022915D01*
X019988Y022960D01*
X019403Y022998D02*
X019403Y023195D01*
X018143Y023195D01*
X018143Y022998D01*
X018379Y022565D02*
X018381Y022605D01*
X018387Y022644D01*
X018397Y022683D01*
X018411Y022720D01*
X018429Y022756D01*
X018450Y022790D01*
X018474Y022822D01*
X018502Y022851D01*
X018532Y022877D01*
X018565Y022899D01*
X018599Y022919D01*
X018636Y022934D01*
X018674Y022946D01*
X018713Y022954D01*
X018753Y022958D01*
X018793Y022958D01*
X018833Y022954D01*
X018872Y022946D01*
X018910Y022934D01*
X018947Y022919D01*
X018981Y022899D01*
X019014Y022877D01*
X019044Y022851D01*
X019072Y022822D01*
X019096Y022790D01*
X019117Y022756D01*
X019135Y022720D01*
X019149Y022683D01*
X019159Y022644D01*
X019165Y022605D01*
X019167Y022565D01*
X019165Y022525D01*
X019159Y022486D01*
X019149Y022447D01*
X019135Y022410D01*
X019117Y022374D01*
X019096Y022340D01*
X019072Y022308D01*
X019044Y022279D01*
X019014Y022253D01*
X018981Y022231D01*
X018947Y022211D01*
X018910Y022196D01*
X018872Y022184D01*
X018833Y022176D01*
X018793Y022172D01*
X018753Y022172D01*
X018713Y022176D01*
X018674Y022184D01*
X018636Y022196D01*
X018599Y022211D01*
X018565Y022231D01*
X018532Y022253D01*
X018502Y022279D01*
X018474Y022308D01*
X018450Y022340D01*
X018429Y022374D01*
X018411Y022410D01*
X018397Y022447D01*
X018387Y022486D01*
X018381Y022525D01*
X018379Y022565D01*
X018616Y021266D02*
X019009Y021266D01*
X019009Y019849D01*
X018616Y019849D01*
X017415Y019849D02*
X017021Y019849D01*
X017021Y021266D01*
X017415Y021266D01*
X015840Y019789D02*
X015840Y019573D01*
X015624Y019573D01*
X016987Y019553D02*
X017167Y019553D01*
X017077Y019553D02*
X017077Y019283D01*
X017282Y019328D02*
X017327Y019283D01*
X017417Y019283D01*
X017462Y019328D01*
X017462Y019373D01*
X017417Y019418D01*
X017372Y019418D01*
X017417Y019418D02*
X017462Y019463D01*
X017462Y019508D01*
X017417Y019553D01*
X017327Y019553D01*
X017282Y019508D01*
X019763Y022235D02*
X019763Y022325D01*
X019808Y022370D01*
X019935Y024041D02*
X020131Y024041D01*
X019935Y024041D02*
X019935Y025301D01*
X020131Y025301D01*
X020103Y025543D02*
X020148Y025588D01*
X020103Y025543D02*
X020013Y025543D01*
X019968Y025588D01*
X019968Y025768D01*
X020013Y025813D01*
X020103Y025813D01*
X020148Y025768D01*
X020262Y025813D02*
X020442Y025543D01*
X020442Y025813D01*
X020557Y025768D02*
X020602Y025813D01*
X020692Y025813D01*
X020737Y025768D01*
X020737Y025723D01*
X020557Y025543D01*
X020737Y025543D01*
X020851Y025543D02*
X021032Y025543D01*
X020941Y025543D02*
X020941Y025813D01*
X020851Y025723D01*
X020998Y025301D02*
X021194Y025301D01*
X021194Y024908D01*
X021411Y024927D02*
X021411Y025065D01*
X021411Y024927D02*
X021687Y024927D01*
X021687Y025065D01*
X021785Y025065D02*
X021785Y024927D01*
X022061Y024927D01*
X022061Y025065D01*
X022061Y025459D02*
X022061Y025597D01*
X021785Y025597D01*
X021785Y025459D01*
X021687Y025459D02*
X021687Y025597D01*
X021411Y025597D01*
X021411Y025459D01*
X021493Y025799D02*
X021493Y025934D01*
X021448Y025979D01*
X021358Y025979D01*
X021313Y025934D01*
X021313Y025799D01*
X021583Y025799D01*
X021493Y025889D02*
X021583Y025979D01*
X021583Y026093D02*
X021583Y026273D01*
X021583Y026183D02*
X021313Y026183D01*
X021403Y026093D01*
X021403Y026388D02*
X021358Y026388D01*
X021313Y026433D01*
X021313Y026523D01*
X021358Y026568D01*
X021538Y026568D01*
X021583Y026523D01*
X021583Y026433D01*
X021538Y026388D01*
X021448Y026433D02*
X021448Y026568D01*
X021448Y026433D02*
X021403Y026388D01*
X021765Y026413D02*
X021765Y026503D01*
X021810Y026548D01*
X021856Y026548D01*
X021901Y026503D01*
X021901Y026413D01*
X021856Y026368D01*
X021810Y026368D01*
X021765Y026413D01*
X021901Y026413D02*
X021946Y026368D01*
X021991Y026368D01*
X022036Y026413D01*
X022036Y026503D01*
X021991Y026548D01*
X021946Y026548D01*
X021901Y026503D01*
X022036Y026254D02*
X022036Y026074D01*
X022036Y026164D02*
X021765Y026164D01*
X021856Y026074D01*
X021901Y025959D02*
X021946Y025914D01*
X021946Y025779D01*
X022036Y025779D02*
X021765Y025779D01*
X021765Y025914D01*
X021810Y025959D01*
X021901Y025959D01*
X021946Y025869D02*
X022036Y025959D01*
X022828Y025754D02*
X023045Y025754D01*
X022828Y025754D02*
X022828Y025537D01*
X024580Y025754D02*
X024797Y025754D01*
X024797Y025537D01*
X024797Y024002D02*
X024797Y023963D01*
X024620Y023786D01*
X024580Y023786D01*
X023045Y023786D02*
X022828Y023786D01*
X022828Y023982D01*
X022848Y023648D02*
X022572Y023648D01*
X022572Y023510D01*
X022848Y023510D02*
X022848Y023648D01*
X022356Y023825D02*
X022356Y023156D01*
X022080Y023156D01*
X022080Y023825D01*
X022356Y023825D01*
X022572Y023116D02*
X022572Y022978D01*
X022848Y022978D01*
X022848Y023116D01*
X022637Y022808D02*
X022817Y022628D01*
X022862Y022628D01*
X022862Y022514D02*
X022862Y022334D01*
X022862Y022424D02*
X022592Y022424D01*
X022682Y022334D01*
X022637Y022219D02*
X022727Y022219D01*
X022772Y022174D01*
X022772Y022039D01*
X022772Y022129D02*
X022862Y022219D01*
X022862Y022039D02*
X022592Y022039D01*
X022592Y022174D01*
X022637Y022219D01*
X022336Y022249D02*
X022066Y022249D01*
X022156Y022159D01*
X022111Y022044D02*
X022066Y021999D01*
X022066Y021909D01*
X022111Y021864D01*
X022291Y021864D01*
X022336Y021909D01*
X022336Y021999D01*
X022291Y022044D01*
X022336Y022159D02*
X022336Y022339D01*
X022291Y022454D02*
X022111Y022634D01*
X022291Y022634D01*
X022336Y022589D01*
X022336Y022499D01*
X022291Y022454D01*
X022111Y022454D01*
X022066Y022499D01*
X022066Y022589D01*
X022111Y022634D01*
X022111Y022748D02*
X022066Y022793D01*
X022066Y022883D01*
X022111Y022928D01*
X022291Y022748D01*
X022336Y022793D01*
X022336Y022883D01*
X022291Y022928D01*
X022111Y022928D01*
X022111Y022748D02*
X022291Y022748D01*
X022592Y022808D02*
X022637Y022808D01*
X022592Y022808D02*
X022592Y022628D01*
X021194Y024041D02*
X020998Y024041D01*
X021194Y024041D02*
X021194Y024435D01*
X020171Y024671D02*
X020173Y024711D01*
X020179Y024750D01*
X020189Y024789D01*
X020203Y024826D01*
X020221Y024862D01*
X020242Y024896D01*
X020266Y024928D01*
X020294Y024957D01*
X020324Y024983D01*
X020357Y025005D01*
X020391Y025025D01*
X020428Y025040D01*
X020466Y025052D01*
X020505Y025060D01*
X020545Y025064D01*
X020585Y025064D01*
X020625Y025060D01*
X020664Y025052D01*
X020702Y025040D01*
X020739Y025025D01*
X020773Y025005D01*
X020806Y024983D01*
X020836Y024957D01*
X020864Y024928D01*
X020888Y024896D01*
X020909Y024862D01*
X020927Y024826D01*
X020941Y024789D01*
X020951Y024750D01*
X020957Y024711D01*
X020959Y024671D01*
X020957Y024631D01*
X020951Y024592D01*
X020941Y024553D01*
X020927Y024516D01*
X020909Y024480D01*
X020888Y024446D01*
X020864Y024414D01*
X020836Y024385D01*
X020806Y024359D01*
X020773Y024337D01*
X020739Y024317D01*
X020702Y024302D01*
X020664Y024290D01*
X020625Y024282D01*
X020585Y024278D01*
X020545Y024278D01*
X020505Y024282D01*
X020466Y024290D01*
X020428Y024302D01*
X020391Y024317D01*
X020357Y024337D01*
X020324Y024359D01*
X020294Y024385D01*
X020266Y024414D01*
X020242Y024446D01*
X020221Y024480D01*
X020203Y024516D01*
X020189Y024553D01*
X020179Y024592D01*
X020173Y024631D01*
X020171Y024671D01*
X020262Y025543D02*
X020262Y025813D01*
X019403Y026699D02*
X019009Y026699D01*
X019403Y026699D02*
X019403Y026896D01*
X009403Y030341D02*
X009403Y030537D01*
X009009Y030537D01*
X009009Y030341D01*
X008754Y030990D02*
X008754Y031305D01*
X007927Y031305D01*
X007927Y030971D01*
X008975Y029424D02*
X009020Y029334D01*
X009110Y029244D01*
X009110Y029379D01*
X009155Y029424D01*
X009200Y029424D01*
X009245Y029379D01*
X009245Y029289D01*
X009200Y029244D01*
X009110Y029244D01*
X009065Y029130D02*
X009110Y029085D01*
X009155Y029130D01*
X009200Y029130D01*
X009245Y029085D01*
X009245Y028995D01*
X009200Y028950D01*
X009200Y028835D02*
X009245Y028790D01*
X009245Y028700D01*
X009200Y028655D01*
X009020Y028655D01*
X008975Y028700D01*
X008975Y028790D01*
X009020Y028835D01*
X009020Y028950D02*
X008975Y028995D01*
X008975Y029085D01*
X009020Y029130D01*
X009065Y029130D01*
X009110Y029085D02*
X009110Y029040D01*
X005624Y029908D02*
X005427Y029908D01*
X005427Y028825D01*
X003006Y020262D02*
X002809Y020262D01*
X002809Y019179D01*
X016943Y009770D02*
X017336Y009770D01*
X019797Y008794D02*
X019932Y008659D01*
X019932Y008839D01*
X020067Y008794D02*
X019797Y008794D01*
X019797Y008454D02*
X020067Y008454D01*
X020067Y008364D02*
X020067Y008544D01*
X019887Y008364D02*
X019797Y008454D01*
X019797Y008250D02*
X020067Y008250D01*
X019797Y008070D01*
X020067Y008070D01*
X020022Y007955D02*
X020067Y007910D01*
X020067Y007820D01*
X020022Y007775D01*
X019842Y007775D01*
X019797Y007820D01*
X019797Y007910D01*
X019842Y007955D01*
X020309Y007683D02*
X020506Y007683D01*
X020309Y007683D02*
X020309Y008943D01*
X020506Y008943D01*
X020545Y008313D02*
X020547Y008353D01*
X020553Y008392D01*
X020563Y008431D01*
X020577Y008468D01*
X020595Y008504D01*
X020616Y008538D01*
X020640Y008570D01*
X020668Y008599D01*
X020698Y008625D01*
X020731Y008647D01*
X020765Y008667D01*
X020802Y008682D01*
X020840Y008694D01*
X020879Y008702D01*
X020919Y008706D01*
X020959Y008706D01*
X020999Y008702D01*
X021038Y008694D01*
X021076Y008682D01*
X021113Y008667D01*
X021147Y008647D01*
X021180Y008625D01*
X021210Y008599D01*
X021238Y008570D01*
X021262Y008538D01*
X021283Y008504D01*
X021301Y008468D01*
X021315Y008431D01*
X021325Y008392D01*
X021331Y008353D01*
X021333Y008313D01*
X021331Y008273D01*
X021325Y008234D01*
X021315Y008195D01*
X021301Y008158D01*
X021283Y008122D01*
X021262Y008088D01*
X021238Y008056D01*
X021210Y008027D01*
X021180Y008001D01*
X021147Y007979D01*
X021113Y007959D01*
X021076Y007944D01*
X021038Y007932D01*
X020999Y007924D01*
X020959Y007920D01*
X020919Y007920D01*
X020879Y007924D01*
X020840Y007932D01*
X020802Y007944D01*
X020765Y007959D01*
X020731Y007979D01*
X020698Y008001D01*
X020668Y008027D01*
X020640Y008056D01*
X020616Y008088D01*
X020595Y008122D01*
X020577Y008158D01*
X020563Y008195D01*
X020553Y008234D01*
X020547Y008273D01*
X020545Y008313D01*
X021372Y007683D02*
X021569Y007683D01*
X021569Y008077D01*
X021569Y008549D02*
X021569Y008943D01*
X021372Y008943D01*
X021628Y008943D02*
X021628Y008805D01*
X021903Y008805D01*
X021903Y008943D01*
X021962Y008943D02*
X021962Y008805D01*
X022238Y008805D01*
X022238Y008943D01*
X022238Y009337D02*
X022238Y009474D01*
X021962Y009474D01*
X021962Y009337D01*
X021903Y009337D02*
X021903Y009474D01*
X021628Y009474D01*
X021628Y009337D01*
X021675Y009580D02*
X021675Y009715D01*
X021630Y009760D01*
X021540Y009760D01*
X021495Y009715D01*
X021495Y009580D01*
X021765Y009580D01*
X021675Y009670D02*
X021765Y009760D01*
X021765Y009875D02*
X021765Y010055D01*
X021765Y009965D02*
X021495Y009965D01*
X021585Y009875D01*
X021540Y010169D02*
X021495Y010214D01*
X021495Y010304D01*
X021540Y010350D01*
X021585Y010350D01*
X021630Y010304D01*
X021675Y010350D01*
X021720Y010350D01*
X021765Y010304D01*
X021765Y010214D01*
X021720Y010169D01*
X021630Y010259D02*
X021630Y010304D01*
X021967Y010304D02*
X021967Y010214D01*
X022012Y010169D01*
X021967Y010304D02*
X022012Y010350D01*
X022057Y010350D01*
X022238Y010169D01*
X022238Y010350D01*
X022238Y010055D02*
X022238Y009875D01*
X022238Y009965D02*
X021967Y009965D01*
X022057Y009875D01*
X022012Y009760D02*
X022102Y009760D01*
X022147Y009715D01*
X022147Y009580D01*
X022147Y009670D02*
X022238Y009760D01*
X022238Y009580D02*
X021967Y009580D01*
X021967Y009715D01*
X022012Y009760D01*
X022927Y009396D02*
X023143Y009396D01*
X022927Y009396D02*
X022927Y009179D01*
X021956Y010702D02*
X022001Y010747D01*
X022001Y010837D01*
X021956Y010882D01*
X021956Y010997D02*
X022001Y011042D01*
X022001Y011132D01*
X021956Y011177D01*
X021911Y011177D01*
X021866Y011132D01*
X021866Y010997D01*
X021956Y010997D01*
X021866Y010997D02*
X021776Y011087D01*
X021731Y011177D01*
X021731Y011291D02*
X021731Y011472D01*
X021776Y011472D01*
X021956Y011291D01*
X022001Y011291D01*
X022120Y011010D02*
X022395Y011010D01*
X022395Y011679D01*
X022120Y011679D01*
X022120Y011010D01*
X021956Y010702D02*
X021776Y010702D01*
X021731Y010747D01*
X021731Y010837D01*
X021776Y010882D01*
X022474Y010931D02*
X022750Y010931D01*
X022750Y011069D01*
X022474Y011069D02*
X022474Y010931D01*
X022474Y011463D02*
X022474Y011600D01*
X022750Y011600D01*
X022750Y011463D01*
X022927Y011502D02*
X023143Y011502D01*
X022927Y011502D02*
X022927Y011699D01*
X022764Y011744D02*
X022494Y011744D01*
X022494Y011879D01*
X022539Y011924D01*
X022629Y011924D01*
X022674Y011879D01*
X022674Y011744D01*
X022674Y011834D02*
X022764Y011924D01*
X022719Y012038D02*
X022674Y012038D01*
X022629Y012083D01*
X022629Y012173D01*
X022674Y012218D01*
X022719Y012218D01*
X022764Y012173D01*
X022764Y012083D01*
X022719Y012038D01*
X022629Y012083D02*
X022584Y012038D01*
X022539Y012038D01*
X022494Y012083D01*
X022494Y012173D01*
X022539Y012218D01*
X022584Y012218D01*
X022629Y012173D01*
X022238Y012723D02*
X021962Y012723D01*
X021962Y012860D01*
X021923Y012860D02*
X021923Y012723D01*
X021647Y012723D01*
X021647Y012860D01*
X021569Y013018D02*
X021569Y012624D01*
X021569Y013018D02*
X021372Y013018D01*
X021361Y013279D02*
X021270Y013279D01*
X021225Y013324D01*
X021111Y013279D02*
X020931Y013279D01*
X021021Y013279D02*
X021021Y013549D01*
X020931Y013459D01*
X020816Y013549D02*
X020816Y013279D01*
X020636Y013549D01*
X020636Y013279D01*
X020522Y013324D02*
X020477Y013279D01*
X020387Y013279D01*
X020342Y013324D01*
X020342Y013504D01*
X020387Y013549D01*
X020477Y013549D01*
X020522Y013504D01*
X020506Y013018D02*
X020309Y013018D01*
X020309Y011758D01*
X020506Y011758D01*
X020545Y012388D02*
X020547Y012428D01*
X020553Y012467D01*
X020563Y012506D01*
X020577Y012543D01*
X020595Y012579D01*
X020616Y012613D01*
X020640Y012645D01*
X020668Y012674D01*
X020698Y012700D01*
X020731Y012722D01*
X020765Y012742D01*
X020802Y012757D01*
X020840Y012769D01*
X020879Y012777D01*
X020919Y012781D01*
X020959Y012781D01*
X020999Y012777D01*
X021038Y012769D01*
X021076Y012757D01*
X021113Y012742D01*
X021147Y012722D01*
X021180Y012700D01*
X021210Y012674D01*
X021238Y012645D01*
X021262Y012613D01*
X021283Y012579D01*
X021301Y012543D01*
X021315Y012506D01*
X021325Y012467D01*
X021331Y012428D01*
X021333Y012388D01*
X021331Y012348D01*
X021325Y012309D01*
X021315Y012270D01*
X021301Y012233D01*
X021283Y012197D01*
X021262Y012163D01*
X021238Y012131D01*
X021210Y012102D01*
X021180Y012076D01*
X021147Y012054D01*
X021113Y012034D01*
X021076Y012019D01*
X021038Y012007D01*
X020999Y011999D01*
X020959Y011995D01*
X020919Y011995D01*
X020879Y011999D01*
X020840Y012007D01*
X020802Y012019D01*
X020765Y012034D01*
X020731Y012054D01*
X020698Y012076D01*
X020668Y012102D01*
X020640Y012131D01*
X020616Y012163D01*
X020595Y012197D01*
X020577Y012233D01*
X020563Y012270D01*
X020553Y012309D01*
X020547Y012348D01*
X020545Y012388D01*
X021372Y011758D02*
X021569Y011758D01*
X021569Y012152D01*
X022238Y012723D02*
X022238Y012860D01*
X022238Y013254D02*
X022238Y013392D01*
X021962Y013392D01*
X021962Y013254D01*
X021923Y013254D02*
X021923Y013392D01*
X021647Y013392D01*
X021647Y013254D01*
X021406Y013324D02*
X021361Y013279D01*
X021406Y013324D02*
X021406Y013369D01*
X021361Y013414D01*
X021316Y013414D01*
X021361Y013414D02*
X021406Y013459D01*
X021406Y013504D01*
X021361Y013549D01*
X021270Y013549D01*
X021225Y013504D01*
X021633Y013517D02*
X021633Y013652D01*
X021678Y013697D01*
X021768Y013697D01*
X021813Y013652D01*
X021813Y013517D01*
X021903Y013517D02*
X021633Y013517D01*
X021813Y013607D02*
X021903Y013697D01*
X021987Y013632D02*
X022032Y013677D01*
X022122Y013677D01*
X022167Y013632D01*
X022167Y013497D01*
X022167Y013587D02*
X022257Y013677D01*
X022212Y013791D02*
X022257Y013836D01*
X022257Y013927D01*
X022212Y013972D01*
X022032Y013972D01*
X021987Y013927D01*
X021987Y013836D01*
X022032Y013791D01*
X022077Y013791D01*
X022122Y013836D01*
X022122Y013972D01*
X021903Y013992D02*
X021903Y013812D01*
X021903Y013902D02*
X021633Y013902D01*
X021723Y013812D01*
X021678Y014106D02*
X021633Y014151D01*
X021633Y014241D01*
X021678Y014287D01*
X021858Y014106D01*
X021903Y014151D01*
X021903Y014241D01*
X021858Y014287D01*
X021678Y014287D01*
X021678Y014106D02*
X021858Y014106D01*
X021987Y013632D02*
X021987Y013497D01*
X022257Y013497D01*
X022927Y013471D02*
X023143Y013471D01*
X022927Y013471D02*
X022927Y013254D01*
X024679Y013471D02*
X024895Y013471D01*
X024895Y013254D01*
X025436Y013588D02*
X025481Y013543D01*
X025571Y013543D01*
X025616Y013588D01*
X025731Y013588D02*
X025776Y013543D01*
X025866Y013543D01*
X025911Y013588D01*
X025911Y013633D01*
X025866Y013678D01*
X025821Y013678D01*
X025866Y013678D02*
X025911Y013723D01*
X025911Y013768D01*
X025866Y013813D01*
X025776Y013813D01*
X025731Y013768D01*
X025616Y013768D02*
X025571Y013813D01*
X025481Y013813D01*
X025436Y013768D01*
X025436Y013588D01*
X026025Y013588D02*
X026070Y013543D01*
X026160Y013543D01*
X026205Y013588D01*
X026205Y013633D01*
X026160Y013678D01*
X026070Y013678D01*
X026025Y013723D01*
X026025Y013768D01*
X026070Y013813D01*
X026160Y013813D01*
X026205Y013768D01*
X026205Y013723D01*
X026160Y013678D01*
X026070Y013678D02*
X026025Y013633D01*
X026025Y013588D01*
X025880Y014415D02*
X025053Y014415D01*
X025053Y014711D01*
X025880Y014711D02*
X025880Y014415D01*
X026062Y014657D02*
X026243Y014657D01*
X026288Y014702D01*
X026288Y014792D01*
X026243Y014837D01*
X026153Y014952D02*
X026153Y015132D01*
X026288Y015087D02*
X026017Y015087D01*
X026153Y014952D01*
X026062Y014837D02*
X026017Y014792D01*
X026017Y014702D01*
X026062Y014657D01*
X026391Y014750D02*
X026391Y014553D01*
X026785Y014553D01*
X026785Y014750D01*
X026288Y015291D02*
X026243Y015246D01*
X026062Y015426D01*
X026243Y015426D01*
X026288Y015381D01*
X026288Y015291D01*
X026243Y015246D02*
X026062Y015246D01*
X026017Y015291D01*
X026017Y015381D01*
X026062Y015426D01*
X026391Y015380D02*
X026391Y015577D01*
X026785Y015577D01*
X026785Y015380D01*
X025880Y016030D02*
X025880Y016345D01*
X025053Y016345D01*
X025053Y016010D01*
X024895Y011719D02*
X024895Y011679D01*
X024718Y011502D01*
X024679Y011502D01*
X024679Y009396D02*
X024895Y009396D01*
X024895Y009179D01*
X024895Y007644D02*
X024895Y007604D01*
X024718Y007427D01*
X024679Y007427D01*
X023143Y007427D02*
X022927Y007427D01*
X022927Y007624D01*
X022946Y007309D02*
X022946Y007171D01*
X022946Y007309D02*
X022671Y007309D01*
X022671Y007171D01*
X022533Y007309D02*
X022257Y007309D01*
X022257Y006640D01*
X022533Y006640D01*
X022533Y007309D01*
X022139Y007321D02*
X022094Y007276D01*
X022049Y007276D01*
X022004Y007321D01*
X022004Y007411D01*
X022049Y007456D01*
X022094Y007456D01*
X022139Y007411D01*
X022139Y007321D01*
X022004Y007321D02*
X021959Y007276D01*
X021914Y007276D01*
X021869Y007321D01*
X021869Y007411D01*
X021914Y007456D01*
X021959Y007456D01*
X022004Y007411D01*
X021914Y007161D02*
X022094Y006981D01*
X022139Y006981D01*
X022094Y006867D02*
X022139Y006821D01*
X022139Y006731D01*
X022094Y006686D01*
X021914Y006686D01*
X021869Y006731D01*
X021869Y006821D01*
X021914Y006867D01*
X021869Y006981D02*
X021869Y007161D01*
X021914Y007161D01*
X022671Y006778D02*
X022671Y006640D01*
X022946Y006640D01*
X022946Y006778D01*
X022867Y006511D02*
X022867Y006331D01*
X022867Y006421D02*
X022597Y006421D01*
X022687Y006331D01*
X022867Y006216D02*
X022867Y006036D01*
X022867Y006126D02*
X022597Y006126D01*
X022687Y006036D01*
X022642Y005922D02*
X022732Y005922D01*
X022777Y005877D01*
X022777Y005742D01*
X022777Y005832D02*
X022867Y005922D01*
X022867Y005742D02*
X022597Y005742D01*
X022597Y005877D01*
X022642Y005922D01*
X021996Y005936D02*
X021996Y006116D01*
X021996Y006026D02*
X021726Y006026D01*
X021816Y005936D01*
X021771Y005821D02*
X021861Y005821D01*
X021906Y005776D01*
X021906Y005641D01*
X021906Y005731D02*
X021996Y005821D01*
X021996Y005641D02*
X021726Y005641D01*
X021726Y005776D01*
X021771Y005821D01*
X021563Y005802D02*
X021473Y005712D01*
X021473Y005757D02*
X021473Y005622D01*
X021563Y005622D02*
X021293Y005622D01*
X021293Y005757D01*
X021338Y005802D01*
X021428Y005802D01*
X021473Y005757D01*
X021383Y005916D02*
X021293Y006006D01*
X021563Y006006D01*
X021563Y005916D02*
X021563Y006096D01*
X021518Y006211D02*
X021563Y006256D01*
X021563Y006346D01*
X021518Y006391D01*
X021473Y006391D01*
X021428Y006346D01*
X021428Y006211D01*
X021518Y006211D01*
X021428Y006211D02*
X021338Y006301D01*
X021293Y006391D01*
X021726Y006411D02*
X021726Y006231D01*
X021861Y006231D01*
X021816Y006321D01*
X021816Y006366D01*
X021861Y006411D01*
X021951Y006411D01*
X021996Y006366D01*
X021996Y006276D01*
X021951Y006231D01*
X022021Y005498D02*
X021746Y005498D01*
X021746Y005360D01*
X021687Y005360D02*
X021687Y005498D01*
X021411Y005498D01*
X021411Y005360D01*
X021411Y004967D02*
X021411Y004829D01*
X021687Y004829D01*
X021687Y004967D01*
X021746Y004967D02*
X021746Y004829D01*
X022021Y004829D01*
X022021Y004967D01*
X022021Y005360D02*
X022021Y005498D01*
X022848Y005203D02*
X022848Y004986D01*
X022848Y005203D02*
X023065Y005203D01*
X024600Y005203D02*
X024817Y005203D01*
X024817Y004986D01*
X024817Y003451D02*
X024817Y003411D01*
X024639Y003234D01*
X024600Y003234D01*
X023065Y003234D02*
X022848Y003234D01*
X022848Y003431D01*
X022809Y003116D02*
X022533Y003116D01*
X022533Y002978D01*
X022809Y002978D02*
X022809Y003116D01*
X022395Y003254D02*
X022120Y003254D01*
X022120Y002585D01*
X022395Y002585D01*
X022395Y003254D01*
X022533Y002585D02*
X022533Y002447D01*
X022809Y002447D01*
X022809Y002585D01*
X022649Y002316D02*
X022649Y002136D01*
X022513Y002271D01*
X022784Y002271D01*
X022784Y002021D02*
X022784Y001841D01*
X022784Y001931D02*
X022513Y001931D01*
X022604Y001841D01*
X022649Y001727D02*
X022694Y001682D01*
X022694Y001547D01*
X022784Y001547D02*
X022513Y001547D01*
X022513Y001682D01*
X022559Y001727D01*
X022649Y001727D01*
X022694Y001637D02*
X022784Y001727D01*
X022395Y001751D02*
X022395Y001841D01*
X022350Y001886D01*
X022350Y002001D02*
X022305Y002001D01*
X022260Y002046D01*
X022260Y002136D01*
X022305Y002181D01*
X022350Y002181D01*
X022395Y002136D01*
X022395Y002046D01*
X022350Y002001D01*
X022260Y002046D02*
X022215Y002001D01*
X022170Y002001D01*
X022125Y002046D01*
X022125Y002136D01*
X022170Y002181D01*
X022215Y002181D01*
X022260Y002136D01*
X022215Y002295D02*
X022260Y002340D01*
X022260Y002476D01*
X022350Y002476D02*
X022170Y002476D01*
X022125Y002430D01*
X022125Y002340D01*
X022170Y002295D01*
X022215Y002295D01*
X022350Y002295D02*
X022395Y002340D01*
X022395Y002430D01*
X022350Y002476D01*
X022170Y001886D02*
X022125Y001841D01*
X022125Y001751D01*
X022170Y001706D01*
X022350Y001706D01*
X022395Y001751D01*
X021431Y003490D02*
X021234Y003490D01*
X021431Y003490D02*
X021431Y003884D01*
X021431Y004356D02*
X021431Y004750D01*
X021234Y004750D01*
X020407Y004120D02*
X020409Y004160D01*
X020415Y004199D01*
X020425Y004238D01*
X020439Y004275D01*
X020457Y004311D01*
X020478Y004345D01*
X020502Y004377D01*
X020530Y004406D01*
X020560Y004432D01*
X020593Y004454D01*
X020627Y004474D01*
X020664Y004489D01*
X020702Y004501D01*
X020741Y004509D01*
X020781Y004513D01*
X020821Y004513D01*
X020861Y004509D01*
X020900Y004501D01*
X020938Y004489D01*
X020975Y004474D01*
X021009Y004454D01*
X021042Y004432D01*
X021072Y004406D01*
X021100Y004377D01*
X021124Y004345D01*
X021145Y004311D01*
X021163Y004275D01*
X021177Y004238D01*
X021187Y004199D01*
X021193Y004160D01*
X021195Y004120D01*
X021193Y004080D01*
X021187Y004041D01*
X021177Y004002D01*
X021163Y003965D01*
X021145Y003929D01*
X021124Y003895D01*
X021100Y003863D01*
X021072Y003834D01*
X021042Y003808D01*
X021009Y003786D01*
X020975Y003766D01*
X020938Y003751D01*
X020900Y003739D01*
X020861Y003731D01*
X020821Y003727D01*
X020781Y003727D01*
X020741Y003731D01*
X020702Y003739D01*
X020664Y003751D01*
X020627Y003766D01*
X020593Y003786D01*
X020560Y003808D01*
X020530Y003834D01*
X020502Y003863D01*
X020478Y003895D01*
X020457Y003929D01*
X020439Y003965D01*
X020425Y004002D01*
X020415Y004041D01*
X020409Y004080D01*
X020407Y004120D01*
X019915Y004158D02*
X019915Y004338D01*
X019915Y004248D02*
X019644Y004248D01*
X019735Y004158D01*
X019644Y004044D02*
X019915Y004044D01*
X019644Y003864D01*
X019915Y003864D01*
X019870Y003749D02*
X019915Y003704D01*
X019915Y003614D01*
X019870Y003569D01*
X019690Y003569D01*
X019644Y003614D01*
X019644Y003704D01*
X019690Y003749D01*
X020171Y003490D02*
X020171Y004750D01*
X020368Y004750D01*
X019915Y004588D02*
X019915Y004498D01*
X019870Y004453D01*
X019780Y004453D02*
X019735Y004543D01*
X019735Y004588D01*
X019780Y004633D01*
X019870Y004633D01*
X019915Y004588D01*
X019780Y004453D02*
X019644Y004453D01*
X019644Y004633D01*
X020171Y003490D02*
X020368Y003490D01*
X035033Y004337D02*
X035171Y004337D01*
X035171Y004612D01*
X035033Y004612D01*
X035230Y006679D02*
X035427Y006679D01*
X035427Y007762D01*
X036293Y019967D02*
X036490Y019967D01*
X036490Y021049D01*
D13*
X024950Y011305D02*
X024952Y011329D01*
X024958Y011352D01*
X024968Y011374D01*
X024982Y011394D01*
X024998Y011412D01*
X025018Y011426D01*
X025039Y011437D01*
X025062Y011444D01*
X025086Y011447D01*
X025110Y011446D01*
X025134Y011441D01*
X025156Y011432D01*
X025176Y011419D01*
X025195Y011403D01*
X025210Y011385D01*
X025221Y011363D01*
X025229Y011341D01*
X025233Y011317D01*
X025233Y011293D01*
X025229Y011269D01*
X025221Y011247D01*
X025210Y011225D01*
X025195Y011207D01*
X025176Y011191D01*
X025156Y011178D01*
X025134Y011169D01*
X025110Y011164D01*
X025086Y011163D01*
X025062Y011166D01*
X025039Y011173D01*
X025018Y011184D01*
X024998Y011198D01*
X024982Y011216D01*
X024968Y011236D01*
X024958Y011258D01*
X024952Y011281D01*
X024950Y011305D01*
X024950Y007230D02*
X024952Y007254D01*
X024958Y007277D01*
X024968Y007299D01*
X024982Y007319D01*
X024998Y007337D01*
X025018Y007351D01*
X025039Y007362D01*
X025062Y007369D01*
X025086Y007372D01*
X025110Y007371D01*
X025134Y007366D01*
X025156Y007357D01*
X025176Y007344D01*
X025195Y007328D01*
X025210Y007310D01*
X025221Y007288D01*
X025229Y007266D01*
X025233Y007242D01*
X025233Y007218D01*
X025229Y007194D01*
X025221Y007172D01*
X025210Y007150D01*
X025195Y007132D01*
X025176Y007116D01*
X025156Y007103D01*
X025134Y007094D01*
X025110Y007089D01*
X025086Y007088D01*
X025062Y007091D01*
X025039Y007098D01*
X025018Y007109D01*
X024998Y007123D01*
X024982Y007141D01*
X024968Y007161D01*
X024958Y007183D01*
X024952Y007206D01*
X024950Y007230D01*
X024871Y003037D02*
X024873Y003061D01*
X024879Y003084D01*
X024889Y003106D01*
X024903Y003126D01*
X024919Y003144D01*
X024939Y003158D01*
X024960Y003169D01*
X024983Y003176D01*
X025007Y003179D01*
X025031Y003178D01*
X025055Y003173D01*
X025077Y003164D01*
X025097Y003151D01*
X025116Y003135D01*
X025131Y003117D01*
X025142Y003095D01*
X025150Y003073D01*
X025154Y003049D01*
X025154Y003025D01*
X025150Y003001D01*
X025142Y002979D01*
X025131Y002957D01*
X025116Y002939D01*
X025097Y002923D01*
X025077Y002910D01*
X025055Y002901D01*
X025031Y002896D01*
X025007Y002895D01*
X024983Y002898D01*
X024960Y002905D01*
X024939Y002916D01*
X024919Y002930D01*
X024903Y002948D01*
X024889Y002968D01*
X024879Y002990D01*
X024873Y003013D01*
X024871Y003037D01*
X033317Y005909D02*
X033319Y005929D01*
X033325Y005948D01*
X033335Y005966D01*
X033348Y005981D01*
X033364Y005994D01*
X033382Y006003D01*
X033402Y006008D01*
X033422Y006009D01*
X033442Y006006D01*
X033461Y005999D01*
X033478Y005988D01*
X033493Y005974D01*
X033504Y005958D01*
X033512Y005939D01*
X033516Y005919D01*
X033516Y005899D01*
X033512Y005879D01*
X033504Y005860D01*
X033493Y005844D01*
X033478Y005830D01*
X033461Y005819D01*
X033442Y005812D01*
X033422Y005809D01*
X033402Y005810D01*
X033382Y005815D01*
X033364Y005824D01*
X033348Y005837D01*
X033335Y005852D01*
X033325Y005870D01*
X033319Y005889D01*
X033317Y005909D01*
X013533Y011699D02*
X013535Y011723D01*
X013541Y011746D01*
X013551Y011768D01*
X013565Y011788D01*
X013581Y011806D01*
X013601Y011820D01*
X013622Y011831D01*
X013645Y011838D01*
X013669Y011841D01*
X013693Y011840D01*
X013717Y011835D01*
X013739Y011826D01*
X013759Y011813D01*
X013778Y011797D01*
X013793Y011779D01*
X013804Y011757D01*
X013812Y011735D01*
X013816Y011711D01*
X013816Y011687D01*
X013812Y011663D01*
X013804Y011641D01*
X013793Y011619D01*
X013778Y011601D01*
X013759Y011585D01*
X013739Y011572D01*
X013717Y011563D01*
X013693Y011558D01*
X013669Y011557D01*
X013645Y011560D01*
X013622Y011567D01*
X013601Y011578D01*
X013581Y011592D01*
X013565Y011610D01*
X013551Y011630D01*
X013541Y011652D01*
X013535Y011675D01*
X013533Y011699D01*
X013533Y021738D02*
X013535Y021762D01*
X013541Y021785D01*
X013551Y021807D01*
X013565Y021827D01*
X013581Y021845D01*
X013601Y021859D01*
X013622Y021870D01*
X013645Y021877D01*
X013669Y021880D01*
X013693Y021879D01*
X013717Y021874D01*
X013739Y021865D01*
X013759Y021852D01*
X013778Y021836D01*
X013793Y021818D01*
X013804Y021796D01*
X013812Y021774D01*
X013816Y021750D01*
X013816Y021726D01*
X013812Y021702D01*
X013804Y021680D01*
X013793Y021658D01*
X013778Y021640D01*
X013759Y021624D01*
X013739Y021611D01*
X013717Y021602D01*
X013693Y021597D01*
X013669Y021596D01*
X013645Y021599D01*
X013622Y021606D01*
X013601Y021617D01*
X013581Y021631D01*
X013565Y021649D01*
X013551Y021669D01*
X013541Y021691D01*
X013535Y021714D01*
X013533Y021738D01*
X013533Y026660D02*
X013535Y026684D01*
X013541Y026707D01*
X013551Y026729D01*
X013565Y026749D01*
X013581Y026767D01*
X013601Y026781D01*
X013622Y026792D01*
X013645Y026799D01*
X013669Y026802D01*
X013693Y026801D01*
X013717Y026796D01*
X013739Y026787D01*
X013759Y026774D01*
X013778Y026758D01*
X013793Y026740D01*
X013804Y026718D01*
X013812Y026696D01*
X013816Y026672D01*
X013816Y026648D01*
X013812Y026624D01*
X013804Y026602D01*
X013793Y026580D01*
X013778Y026562D01*
X013759Y026546D01*
X013739Y026533D01*
X013717Y026524D01*
X013693Y026519D01*
X013669Y026518D01*
X013645Y026521D01*
X013622Y026528D01*
X013601Y026539D01*
X013581Y026553D01*
X013565Y026571D01*
X013551Y026591D01*
X013541Y026613D01*
X013535Y026636D01*
X013533Y026660D01*
X024852Y023589D02*
X024854Y023613D01*
X024860Y023636D01*
X024870Y023658D01*
X024884Y023678D01*
X024900Y023696D01*
X024920Y023710D01*
X024941Y023721D01*
X024964Y023728D01*
X024988Y023731D01*
X025012Y023730D01*
X025036Y023725D01*
X025058Y023716D01*
X025078Y023703D01*
X025097Y023687D01*
X025112Y023669D01*
X025123Y023647D01*
X025131Y023625D01*
X025135Y023601D01*
X025135Y023577D01*
X025131Y023553D01*
X025123Y023531D01*
X025112Y023509D01*
X025097Y023491D01*
X025078Y023475D01*
X025058Y023462D01*
X025036Y023453D01*
X025012Y023448D01*
X024988Y023447D01*
X024964Y023450D01*
X024941Y023457D01*
X024920Y023468D01*
X024900Y023482D01*
X024884Y023500D01*
X024870Y023520D01*
X024860Y023542D01*
X024854Y023565D01*
X024852Y023589D01*
D14*
X034463Y017667D02*
X034463Y017467D01*
X034463Y017567D02*
X034529Y017567D01*
X034463Y017667D02*
X034596Y017667D01*
X034684Y017667D02*
X034684Y017467D01*
X034784Y017467D01*
X034817Y017500D01*
X034817Y017534D01*
X034784Y017567D01*
X034684Y017567D01*
X034784Y017567D02*
X034817Y017600D01*
X034817Y017634D01*
X034784Y017667D01*
X034684Y017667D01*
X034904Y017567D02*
X035005Y017667D01*
X035005Y017467D01*
X035038Y017567D02*
X034904Y017567D01*
X035125Y017634D02*
X035159Y017667D01*
X035226Y017667D01*
X035259Y017634D01*
X035125Y017500D01*
X035159Y017467D01*
X035226Y017467D01*
X035259Y017500D01*
X035259Y017634D01*
X035125Y017634D02*
X035125Y017500D01*
X035526Y017508D02*
X035592Y017508D01*
X035526Y017608D02*
X035659Y017608D01*
X035746Y017608D02*
X035847Y017608D01*
X035880Y017575D01*
X035880Y017541D01*
X035847Y017508D01*
X035746Y017508D01*
X035746Y017408D02*
X035746Y017608D01*
X035847Y017508D02*
X035880Y017475D01*
X035880Y017441D01*
X035847Y017408D01*
X035746Y017408D01*
X035526Y017408D02*
X035526Y017608D01*
X035967Y017575D02*
X036001Y017608D01*
X036068Y017608D01*
X036101Y017575D01*
X036101Y017541D01*
X036068Y017508D01*
X036101Y017475D01*
X036101Y017441D01*
X036068Y017408D01*
X036001Y017408D01*
X035967Y017441D01*
X036034Y017508D02*
X036068Y017508D01*
X036188Y017541D02*
X036222Y017508D01*
X036322Y017508D01*
X036322Y017575D02*
X036289Y017608D01*
X036222Y017608D01*
X036188Y017575D01*
X036188Y017541D01*
X036188Y017441D02*
X036222Y017408D01*
X036289Y017408D01*
X036322Y017441D01*
X036322Y017575D01*
X035377Y017063D02*
X035377Y017029D01*
X035344Y016996D01*
X035277Y016996D01*
X035244Y017029D01*
X035244Y017063D01*
X035277Y017096D01*
X035344Y017096D01*
X035377Y017063D01*
X035344Y016996D02*
X035377Y016963D01*
X035377Y016929D01*
X035344Y016896D01*
X035277Y016896D01*
X035244Y016929D01*
X035244Y016963D01*
X035277Y016996D01*
X035156Y016963D02*
X035123Y016996D01*
X035089Y016996D01*
X035123Y016996D02*
X035156Y017029D01*
X035156Y017063D01*
X035123Y017096D01*
X035056Y017096D01*
X035023Y017063D01*
X034935Y017063D02*
X034935Y017029D01*
X034902Y016996D01*
X034802Y016996D01*
X034902Y016996D02*
X034935Y016963D01*
X034935Y016929D01*
X034902Y016896D01*
X034802Y016896D01*
X034802Y017096D01*
X034902Y017096D01*
X034935Y017063D01*
X035023Y016929D02*
X035056Y016896D01*
X035123Y016896D01*
X035156Y016929D01*
X035156Y016963D01*
X034714Y017096D02*
X034581Y017096D01*
X034581Y016896D01*
X034581Y016996D02*
X034647Y016996D01*
X035644Y015620D02*
X035777Y015620D01*
X035865Y015620D02*
X035965Y015620D01*
X035998Y015586D01*
X035998Y015553D01*
X035965Y015520D01*
X035865Y015520D01*
X035965Y015520D02*
X035998Y015486D01*
X035998Y015453D01*
X035965Y015420D01*
X035865Y015420D01*
X035865Y015620D01*
X035710Y015520D02*
X035644Y015520D01*
X035644Y015420D02*
X035644Y015620D01*
X036086Y015586D02*
X036119Y015620D01*
X036186Y015620D01*
X036219Y015586D01*
X036219Y015553D01*
X036186Y015520D01*
X036219Y015486D01*
X036219Y015453D01*
X036186Y015420D01*
X036119Y015420D01*
X036086Y015453D01*
X036152Y015520D02*
X036186Y015520D01*
X036307Y015453D02*
X036307Y015420D01*
X036307Y015453D02*
X036440Y015586D01*
X036440Y015620D01*
X036307Y015620D01*
X034383Y005286D02*
X034383Y005153D01*
X034250Y005286D01*
X034216Y005286D01*
X034183Y005253D01*
X034183Y005186D01*
X034216Y005153D01*
X034183Y004999D02*
X034383Y004999D01*
X034383Y005065D02*
X034383Y004932D01*
X034350Y004844D02*
X034383Y004811D01*
X034383Y004744D01*
X034350Y004711D01*
X034216Y004711D01*
X034183Y004744D01*
X034183Y004811D01*
X034216Y004844D01*
X034250Y004932D02*
X034183Y004999D01*
X034073Y004183D02*
X034007Y004149D01*
X033940Y004083D01*
X034040Y004083D01*
X034073Y004049D01*
X034073Y004016D01*
X034040Y003983D01*
X033973Y003983D01*
X033940Y004016D01*
X033940Y004083D01*
X033852Y003983D02*
X033719Y003983D01*
X033786Y003983D02*
X033786Y004183D01*
X033719Y004116D01*
X033631Y004149D02*
X033598Y004183D01*
X033531Y004183D01*
X033498Y004149D01*
X033498Y004016D01*
X033531Y003983D01*
X033598Y003983D01*
X033631Y004016D01*
X034561Y003342D02*
X034561Y003209D01*
X034594Y003176D01*
X034661Y003176D01*
X034694Y003209D01*
X034782Y003176D02*
X034915Y003176D01*
X034849Y003176D02*
X034849Y003376D01*
X034782Y003309D01*
X034694Y003342D02*
X034661Y003376D01*
X034594Y003376D01*
X034561Y003342D01*
X035003Y003376D02*
X035136Y003376D01*
X035136Y003342D01*
X035003Y003209D01*
X035003Y003176D01*
X034113Y002732D02*
X034113Y002699D01*
X034079Y002665D01*
X034013Y002665D01*
X033979Y002699D01*
X033979Y002732D01*
X034013Y002766D01*
X034079Y002766D01*
X034113Y002732D01*
X034079Y002665D02*
X034113Y002632D01*
X034113Y002599D01*
X034079Y002565D01*
X034013Y002565D01*
X033979Y002599D01*
X033979Y002632D01*
X034013Y002665D01*
X033892Y002565D02*
X033758Y002565D01*
X033825Y002565D02*
X033825Y002766D01*
X033758Y002699D01*
X033671Y002732D02*
X033637Y002766D01*
X033571Y002766D01*
X033537Y002732D01*
X033537Y002599D01*
X033571Y002565D01*
X033637Y002565D01*
X033671Y002599D01*
X032420Y002528D02*
X032286Y002528D01*
X032386Y002628D01*
X032386Y002428D01*
X032199Y002428D02*
X032065Y002428D01*
X032132Y002428D02*
X032132Y002628D01*
X032065Y002561D01*
X031978Y002594D02*
X031944Y002628D01*
X031878Y002628D01*
X031844Y002594D01*
X031844Y002461D01*
X031878Y002428D01*
X031944Y002428D01*
X031978Y002461D01*
M02*
