G75*
G70*
%OFA0B0*%
%FSLAX24Y24*%
%IPPOS*%
%LPD*%
%AMOC8*
5,1,8,0,0,1.08239X$1,22.5*
%
%ADD10C,0.0000*%
D10*
X000151Y000675D02*
X000151Y032171D01*
X039521Y032171D01*
X039521Y000675D01*
X000151Y000675D01*
X000446Y001660D02*
X000449Y001723D01*
X000457Y001785D01*
X000472Y001846D01*
X000491Y001905D01*
X000516Y001963D01*
X000546Y002018D01*
X000581Y002070D01*
X000621Y002119D01*
X000665Y002164D01*
X000712Y002204D01*
X000764Y002240D01*
X000818Y002272D01*
X000875Y002298D01*
X000934Y002319D01*
X000995Y002335D01*
X001057Y002345D01*
X001119Y002349D01*
X001182Y002347D01*
X001244Y002340D01*
X001306Y002328D01*
X001366Y002309D01*
X001424Y002286D01*
X001479Y002257D01*
X001532Y002223D01*
X001582Y002184D01*
X001628Y002142D01*
X001669Y002095D01*
X001707Y002044D01*
X001739Y001991D01*
X001767Y001934D01*
X001789Y001876D01*
X001806Y001816D01*
X001818Y001754D01*
X001823Y001691D01*
X001823Y001629D01*
X001818Y001566D01*
X001806Y001504D01*
X001789Y001444D01*
X001767Y001386D01*
X001739Y001329D01*
X001707Y001276D01*
X001669Y001225D01*
X001628Y001178D01*
X001582Y001136D01*
X001532Y001097D01*
X001480Y001063D01*
X001424Y001034D01*
X001366Y001011D01*
X001306Y000992D01*
X001244Y000980D01*
X001182Y000973D01*
X001119Y000971D01*
X001057Y000975D01*
X000995Y000985D01*
X000934Y001001D01*
X000875Y001022D01*
X000818Y001048D01*
X000764Y001080D01*
X000712Y001116D01*
X000665Y001156D01*
X000621Y001201D01*
X000581Y001250D01*
X000546Y001302D01*
X000516Y001357D01*
X000491Y001415D01*
X000472Y001474D01*
X000457Y001535D01*
X000449Y001597D01*
X000446Y001660D01*
X010958Y002565D02*
X010960Y002595D01*
X010966Y002624D01*
X010976Y002651D01*
X010990Y002678D01*
X011007Y002702D01*
X011027Y002724D01*
X011050Y002742D01*
X011075Y002758D01*
X011102Y002769D01*
X011131Y002777D01*
X011160Y002781D01*
X011190Y002781D01*
X011219Y002777D01*
X011248Y002769D01*
X011275Y002758D01*
X011300Y002742D01*
X011323Y002724D01*
X011343Y002702D01*
X011360Y002678D01*
X011374Y002651D01*
X011384Y002624D01*
X011390Y002595D01*
X011392Y002565D01*
X011390Y002535D01*
X011384Y002506D01*
X011374Y002479D01*
X011360Y002452D01*
X011343Y002428D01*
X011323Y002406D01*
X011300Y002388D01*
X011275Y002372D01*
X011248Y002361D01*
X011219Y002353D01*
X011190Y002349D01*
X011160Y002349D01*
X011131Y002353D01*
X011102Y002361D01*
X011075Y002372D01*
X011050Y002388D01*
X011027Y002406D01*
X011007Y002428D01*
X010990Y002452D01*
X010976Y002479D01*
X010966Y002506D01*
X010960Y002535D01*
X010958Y002565D01*
X019147Y001660D02*
X019150Y001723D01*
X019158Y001785D01*
X019173Y001846D01*
X019192Y001905D01*
X019217Y001963D01*
X019247Y002018D01*
X019282Y002070D01*
X019322Y002119D01*
X019366Y002164D01*
X019413Y002204D01*
X019465Y002240D01*
X019519Y002272D01*
X019576Y002298D01*
X019635Y002319D01*
X019696Y002335D01*
X019758Y002345D01*
X019820Y002349D01*
X019883Y002347D01*
X019945Y002340D01*
X020007Y002328D01*
X020067Y002309D01*
X020125Y002286D01*
X020180Y002257D01*
X020233Y002223D01*
X020283Y002184D01*
X020329Y002142D01*
X020370Y002095D01*
X020408Y002044D01*
X020440Y001991D01*
X020468Y001934D01*
X020490Y001876D01*
X020507Y001816D01*
X020519Y001754D01*
X020524Y001691D01*
X020524Y001629D01*
X020519Y001566D01*
X020507Y001504D01*
X020490Y001444D01*
X020468Y001386D01*
X020440Y001329D01*
X020408Y001276D01*
X020370Y001225D01*
X020329Y001178D01*
X020283Y001136D01*
X020233Y001097D01*
X020181Y001063D01*
X020125Y001034D01*
X020067Y001011D01*
X020007Y000992D01*
X019945Y000980D01*
X019883Y000973D01*
X019820Y000971D01*
X019758Y000975D01*
X019696Y000985D01*
X019635Y001001D01*
X019576Y001022D01*
X019519Y001048D01*
X019465Y001080D01*
X019413Y001116D01*
X019366Y001156D01*
X019322Y001201D01*
X019282Y001250D01*
X019247Y001302D01*
X019217Y001357D01*
X019192Y001415D01*
X019173Y001474D01*
X019158Y001535D01*
X019150Y001597D01*
X019147Y001660D01*
X028281Y002565D02*
X028283Y002595D01*
X028289Y002624D01*
X028299Y002651D01*
X028313Y002678D01*
X028330Y002702D01*
X028350Y002724D01*
X028373Y002742D01*
X028398Y002758D01*
X028425Y002769D01*
X028454Y002777D01*
X028483Y002781D01*
X028513Y002781D01*
X028542Y002777D01*
X028571Y002769D01*
X028598Y002758D01*
X028623Y002742D01*
X028646Y002724D01*
X028666Y002702D01*
X028683Y002678D01*
X028697Y002651D01*
X028707Y002624D01*
X028713Y002595D01*
X028715Y002565D01*
X028713Y002535D01*
X028707Y002506D01*
X028697Y002479D01*
X028683Y002452D01*
X028666Y002428D01*
X028646Y002406D01*
X028623Y002388D01*
X028598Y002372D01*
X028571Y002361D01*
X028542Y002353D01*
X028513Y002349D01*
X028483Y002349D01*
X028454Y002353D01*
X028425Y002361D01*
X028398Y002372D01*
X028373Y002388D01*
X028350Y002406D01*
X028330Y002428D01*
X028313Y002452D01*
X028299Y002479D01*
X028289Y002506D01*
X028283Y002535D01*
X028281Y002565D01*
X037848Y001660D02*
X037851Y001723D01*
X037859Y001785D01*
X037874Y001846D01*
X037893Y001905D01*
X037918Y001963D01*
X037948Y002018D01*
X037983Y002070D01*
X038023Y002119D01*
X038067Y002164D01*
X038114Y002204D01*
X038166Y002240D01*
X038220Y002272D01*
X038277Y002298D01*
X038336Y002319D01*
X038397Y002335D01*
X038459Y002345D01*
X038521Y002349D01*
X038584Y002347D01*
X038646Y002340D01*
X038708Y002328D01*
X038768Y002309D01*
X038826Y002286D01*
X038881Y002257D01*
X038934Y002223D01*
X038984Y002184D01*
X039030Y002142D01*
X039071Y002095D01*
X039109Y002044D01*
X039141Y001991D01*
X039169Y001934D01*
X039191Y001876D01*
X039208Y001816D01*
X039220Y001754D01*
X039225Y001691D01*
X039225Y001629D01*
X039220Y001566D01*
X039208Y001504D01*
X039191Y001444D01*
X039169Y001386D01*
X039141Y001329D01*
X039109Y001276D01*
X039071Y001225D01*
X039030Y001178D01*
X038984Y001136D01*
X038934Y001097D01*
X038882Y001063D01*
X038826Y001034D01*
X038768Y001011D01*
X038708Y000992D01*
X038646Y000980D01*
X038584Y000973D01*
X038521Y000971D01*
X038459Y000975D01*
X038397Y000985D01*
X038336Y001001D01*
X038277Y001022D01*
X038220Y001048D01*
X038166Y001080D01*
X038114Y001116D01*
X038067Y001156D01*
X038023Y001201D01*
X037983Y001250D01*
X037948Y001302D01*
X037918Y001357D01*
X037893Y001415D01*
X037874Y001474D01*
X037859Y001535D01*
X037851Y001597D01*
X037848Y001660D01*
X028281Y015321D02*
X028283Y015351D01*
X028289Y015380D01*
X028299Y015407D01*
X028313Y015434D01*
X028330Y015458D01*
X028350Y015480D01*
X028373Y015498D01*
X028398Y015514D01*
X028425Y015525D01*
X028454Y015533D01*
X028483Y015537D01*
X028513Y015537D01*
X028542Y015533D01*
X028571Y015525D01*
X028598Y015514D01*
X028623Y015498D01*
X028646Y015480D01*
X028666Y015458D01*
X028683Y015434D01*
X028697Y015407D01*
X028707Y015380D01*
X028713Y015351D01*
X028715Y015321D01*
X028713Y015291D01*
X028707Y015262D01*
X028697Y015235D01*
X028683Y015208D01*
X028666Y015184D01*
X028646Y015162D01*
X028623Y015144D01*
X028598Y015128D01*
X028571Y015117D01*
X028542Y015109D01*
X028513Y015105D01*
X028483Y015105D01*
X028454Y015109D01*
X028425Y015117D01*
X028398Y015128D01*
X028373Y015144D01*
X028350Y015162D01*
X028330Y015184D01*
X028313Y015208D01*
X028299Y015235D01*
X028289Y015262D01*
X028283Y015291D01*
X028281Y015321D01*
X033222Y017860D02*
X033224Y017887D01*
X033230Y017913D01*
X033240Y017939D01*
X033254Y017962D01*
X033271Y017983D01*
X033292Y018001D01*
X033314Y018015D01*
X033339Y018027D01*
X033365Y018034D01*
X033392Y018037D01*
X033419Y018036D01*
X033446Y018031D01*
X033471Y018022D01*
X033495Y018009D01*
X033517Y017992D01*
X033536Y017973D01*
X033551Y017950D01*
X033563Y017926D01*
X033571Y017900D01*
X033575Y017874D01*
X033575Y017846D01*
X033571Y017820D01*
X033563Y017794D01*
X033551Y017770D01*
X033536Y017747D01*
X033517Y017728D01*
X033495Y017711D01*
X033471Y017698D01*
X033446Y017689D01*
X033419Y017684D01*
X033392Y017683D01*
X033365Y017686D01*
X033339Y017693D01*
X033314Y017705D01*
X033292Y017719D01*
X033271Y017737D01*
X033254Y017758D01*
X033240Y017781D01*
X033230Y017807D01*
X033224Y017833D01*
X033222Y017860D01*
X033222Y019179D02*
X033224Y019206D01*
X033230Y019232D01*
X033240Y019258D01*
X033254Y019281D01*
X033271Y019302D01*
X033292Y019320D01*
X033314Y019334D01*
X033339Y019346D01*
X033365Y019353D01*
X033392Y019356D01*
X033419Y019355D01*
X033446Y019350D01*
X033471Y019341D01*
X033495Y019328D01*
X033517Y019311D01*
X033536Y019292D01*
X033551Y019269D01*
X033563Y019245D01*
X033571Y019219D01*
X033575Y019193D01*
X033575Y019165D01*
X033571Y019139D01*
X033563Y019113D01*
X033551Y019089D01*
X033536Y019066D01*
X033517Y019047D01*
X033495Y019030D01*
X033471Y019017D01*
X033446Y019008D01*
X033419Y019003D01*
X033392Y019002D01*
X033365Y019005D01*
X033339Y019012D01*
X033314Y019024D01*
X033292Y019038D01*
X033271Y019056D01*
X033254Y019077D01*
X033240Y019100D01*
X033230Y019126D01*
X033224Y019152D01*
X033222Y019179D01*
X028281Y019888D02*
X028283Y019918D01*
X028289Y019947D01*
X028299Y019974D01*
X028313Y020001D01*
X028330Y020025D01*
X028350Y020047D01*
X028373Y020065D01*
X028398Y020081D01*
X028425Y020092D01*
X028454Y020100D01*
X028483Y020104D01*
X028513Y020104D01*
X028542Y020100D01*
X028571Y020092D01*
X028598Y020081D01*
X028623Y020065D01*
X028646Y020047D01*
X028666Y020025D01*
X028683Y020001D01*
X028697Y019974D01*
X028707Y019947D01*
X028713Y019918D01*
X028715Y019888D01*
X028713Y019858D01*
X028707Y019829D01*
X028697Y019802D01*
X028683Y019775D01*
X028666Y019751D01*
X028646Y019729D01*
X028623Y019711D01*
X028598Y019695D01*
X028571Y019684D01*
X028542Y019676D01*
X028513Y019672D01*
X028483Y019672D01*
X028454Y019676D01*
X028425Y019684D01*
X028398Y019695D01*
X028373Y019711D01*
X028350Y019729D01*
X028330Y019751D01*
X028313Y019775D01*
X028299Y019802D01*
X028289Y019829D01*
X028283Y019858D01*
X028281Y019888D01*
X019147Y016423D02*
X019150Y016486D01*
X019158Y016548D01*
X019173Y016609D01*
X019192Y016668D01*
X019217Y016726D01*
X019247Y016781D01*
X019282Y016833D01*
X019322Y016882D01*
X019366Y016927D01*
X019413Y016967D01*
X019465Y017003D01*
X019519Y017035D01*
X019576Y017061D01*
X019635Y017082D01*
X019696Y017098D01*
X019758Y017108D01*
X019820Y017112D01*
X019883Y017110D01*
X019945Y017103D01*
X020007Y017091D01*
X020067Y017072D01*
X020125Y017049D01*
X020180Y017020D01*
X020233Y016986D01*
X020283Y016947D01*
X020329Y016905D01*
X020370Y016858D01*
X020408Y016807D01*
X020440Y016754D01*
X020468Y016697D01*
X020490Y016639D01*
X020507Y016579D01*
X020519Y016517D01*
X020524Y016454D01*
X020524Y016392D01*
X020519Y016329D01*
X020507Y016267D01*
X020490Y016207D01*
X020468Y016149D01*
X020440Y016092D01*
X020408Y016039D01*
X020370Y015988D01*
X020329Y015941D01*
X020283Y015899D01*
X020233Y015860D01*
X020181Y015826D01*
X020125Y015797D01*
X020067Y015774D01*
X020007Y015755D01*
X019945Y015743D01*
X019883Y015736D01*
X019820Y015734D01*
X019758Y015738D01*
X019696Y015748D01*
X019635Y015764D01*
X019576Y015785D01*
X019519Y015811D01*
X019465Y015843D01*
X019413Y015879D01*
X019366Y015919D01*
X019322Y015964D01*
X019282Y016013D01*
X019247Y016065D01*
X019217Y016120D01*
X019192Y016178D01*
X019173Y016237D01*
X019158Y016298D01*
X019150Y016360D01*
X019147Y016423D01*
X010958Y015321D02*
X010960Y015351D01*
X010966Y015380D01*
X010976Y015407D01*
X010990Y015434D01*
X011007Y015458D01*
X011027Y015480D01*
X011050Y015498D01*
X011075Y015514D01*
X011102Y015525D01*
X011131Y015533D01*
X011160Y015537D01*
X011190Y015537D01*
X011219Y015533D01*
X011248Y015525D01*
X011275Y015514D01*
X011300Y015498D01*
X011323Y015480D01*
X011343Y015458D01*
X011360Y015434D01*
X011374Y015407D01*
X011384Y015380D01*
X011390Y015351D01*
X011392Y015321D01*
X011390Y015291D01*
X011384Y015262D01*
X011374Y015235D01*
X011360Y015208D01*
X011343Y015184D01*
X011323Y015162D01*
X011300Y015144D01*
X011275Y015128D01*
X011248Y015117D01*
X011219Y015109D01*
X011190Y015105D01*
X011160Y015105D01*
X011131Y015109D01*
X011102Y015117D01*
X011075Y015128D01*
X011050Y015144D01*
X011027Y015162D01*
X011007Y015184D01*
X010990Y015208D01*
X010976Y015235D01*
X010966Y015262D01*
X010960Y015291D01*
X010958Y015321D01*
X010958Y019888D02*
X010960Y019918D01*
X010966Y019947D01*
X010976Y019974D01*
X010990Y020001D01*
X011007Y020025D01*
X011027Y020047D01*
X011050Y020065D01*
X011075Y020081D01*
X011102Y020092D01*
X011131Y020100D01*
X011160Y020104D01*
X011190Y020104D01*
X011219Y020100D01*
X011248Y020092D01*
X011275Y020081D01*
X011300Y020065D01*
X011323Y020047D01*
X011343Y020025D01*
X011360Y020001D01*
X011374Y019974D01*
X011384Y019947D01*
X011390Y019918D01*
X011392Y019888D01*
X011390Y019858D01*
X011384Y019829D01*
X011374Y019802D01*
X011360Y019775D01*
X011343Y019751D01*
X011323Y019729D01*
X011300Y019711D01*
X011275Y019695D01*
X011248Y019684D01*
X011219Y019676D01*
X011190Y019672D01*
X011160Y019672D01*
X011131Y019676D01*
X011102Y019684D01*
X011075Y019695D01*
X011050Y019711D01*
X011027Y019729D01*
X011007Y019751D01*
X010990Y019775D01*
X010976Y019802D01*
X010966Y019829D01*
X010960Y019858D01*
X010958Y019888D01*
X010958Y030282D02*
X010960Y030312D01*
X010966Y030341D01*
X010976Y030368D01*
X010990Y030395D01*
X011007Y030419D01*
X011027Y030441D01*
X011050Y030459D01*
X011075Y030475D01*
X011102Y030486D01*
X011131Y030494D01*
X011160Y030498D01*
X011190Y030498D01*
X011219Y030494D01*
X011248Y030486D01*
X011275Y030475D01*
X011300Y030459D01*
X011323Y030441D01*
X011343Y030419D01*
X011360Y030395D01*
X011374Y030368D01*
X011384Y030341D01*
X011390Y030312D01*
X011392Y030282D01*
X011390Y030252D01*
X011384Y030223D01*
X011374Y030196D01*
X011360Y030169D01*
X011343Y030145D01*
X011323Y030123D01*
X011300Y030105D01*
X011275Y030089D01*
X011248Y030078D01*
X011219Y030070D01*
X011190Y030066D01*
X011160Y030066D01*
X011131Y030070D01*
X011102Y030078D01*
X011075Y030089D01*
X011050Y030105D01*
X011027Y030123D01*
X011007Y030145D01*
X010990Y030169D01*
X010976Y030196D01*
X010966Y030223D01*
X010960Y030252D01*
X010958Y030282D01*
X019147Y031187D02*
X019150Y031250D01*
X019158Y031312D01*
X019173Y031373D01*
X019192Y031432D01*
X019217Y031490D01*
X019247Y031545D01*
X019282Y031597D01*
X019322Y031646D01*
X019366Y031691D01*
X019413Y031731D01*
X019465Y031767D01*
X019519Y031799D01*
X019576Y031825D01*
X019635Y031846D01*
X019696Y031862D01*
X019758Y031872D01*
X019820Y031876D01*
X019883Y031874D01*
X019945Y031867D01*
X020007Y031855D01*
X020067Y031836D01*
X020125Y031813D01*
X020180Y031784D01*
X020233Y031750D01*
X020283Y031711D01*
X020329Y031669D01*
X020370Y031622D01*
X020408Y031571D01*
X020440Y031518D01*
X020468Y031461D01*
X020490Y031403D01*
X020507Y031343D01*
X020519Y031281D01*
X020524Y031218D01*
X020524Y031156D01*
X020519Y031093D01*
X020507Y031031D01*
X020490Y030971D01*
X020468Y030913D01*
X020440Y030856D01*
X020408Y030803D01*
X020370Y030752D01*
X020329Y030705D01*
X020283Y030663D01*
X020233Y030624D01*
X020181Y030590D01*
X020125Y030561D01*
X020067Y030538D01*
X020007Y030519D01*
X019945Y030507D01*
X019883Y030500D01*
X019820Y030498D01*
X019758Y030502D01*
X019696Y030512D01*
X019635Y030528D01*
X019576Y030549D01*
X019519Y030575D01*
X019465Y030607D01*
X019413Y030643D01*
X019366Y030683D01*
X019322Y030728D01*
X019282Y030777D01*
X019247Y030829D01*
X019217Y030884D01*
X019192Y030942D01*
X019173Y031001D01*
X019158Y031062D01*
X019150Y031124D01*
X019147Y031187D01*
X028281Y030282D02*
X028283Y030312D01*
X028289Y030341D01*
X028299Y030368D01*
X028313Y030395D01*
X028330Y030419D01*
X028350Y030441D01*
X028373Y030459D01*
X028398Y030475D01*
X028425Y030486D01*
X028454Y030494D01*
X028483Y030498D01*
X028513Y030498D01*
X028542Y030494D01*
X028571Y030486D01*
X028598Y030475D01*
X028623Y030459D01*
X028646Y030441D01*
X028666Y030419D01*
X028683Y030395D01*
X028697Y030368D01*
X028707Y030341D01*
X028713Y030312D01*
X028715Y030282D01*
X028713Y030252D01*
X028707Y030223D01*
X028697Y030196D01*
X028683Y030169D01*
X028666Y030145D01*
X028646Y030123D01*
X028623Y030105D01*
X028598Y030089D01*
X028571Y030078D01*
X028542Y030070D01*
X028513Y030066D01*
X028483Y030066D01*
X028454Y030070D01*
X028425Y030078D01*
X028398Y030089D01*
X028373Y030105D01*
X028350Y030123D01*
X028330Y030145D01*
X028313Y030169D01*
X028299Y030196D01*
X028289Y030223D01*
X028283Y030252D01*
X028281Y030282D01*
X037848Y031187D02*
X037851Y031250D01*
X037859Y031312D01*
X037874Y031373D01*
X037893Y031432D01*
X037918Y031490D01*
X037948Y031545D01*
X037983Y031597D01*
X038023Y031646D01*
X038067Y031691D01*
X038114Y031731D01*
X038166Y031767D01*
X038220Y031799D01*
X038277Y031825D01*
X038336Y031846D01*
X038397Y031862D01*
X038459Y031872D01*
X038521Y031876D01*
X038584Y031874D01*
X038646Y031867D01*
X038708Y031855D01*
X038768Y031836D01*
X038826Y031813D01*
X038881Y031784D01*
X038934Y031750D01*
X038984Y031711D01*
X039030Y031669D01*
X039071Y031622D01*
X039109Y031571D01*
X039141Y031518D01*
X039169Y031461D01*
X039191Y031403D01*
X039208Y031343D01*
X039220Y031281D01*
X039225Y031218D01*
X039225Y031156D01*
X039220Y031093D01*
X039208Y031031D01*
X039191Y030971D01*
X039169Y030913D01*
X039141Y030856D01*
X039109Y030803D01*
X039071Y030752D01*
X039030Y030705D01*
X038984Y030663D01*
X038934Y030624D01*
X038882Y030590D01*
X038826Y030561D01*
X038768Y030538D01*
X038708Y030519D01*
X038646Y030507D01*
X038584Y030500D01*
X038521Y030498D01*
X038459Y030502D01*
X038397Y030512D01*
X038336Y030528D01*
X038277Y030549D01*
X038220Y030575D01*
X038166Y030607D01*
X038114Y030643D01*
X038067Y030683D01*
X038023Y030728D01*
X037983Y030777D01*
X037948Y030829D01*
X037918Y030884D01*
X037893Y030942D01*
X037874Y031001D01*
X037859Y031062D01*
X037851Y031124D01*
X037848Y031187D01*
X038439Y017910D02*
X038441Y017937D01*
X038447Y017963D01*
X038457Y017989D01*
X038471Y018012D01*
X038488Y018033D01*
X038509Y018051D01*
X038531Y018065D01*
X038556Y018077D01*
X038582Y018084D01*
X038609Y018087D01*
X038636Y018086D01*
X038663Y018081D01*
X038688Y018072D01*
X038712Y018059D01*
X038734Y018042D01*
X038753Y018023D01*
X038768Y018000D01*
X038780Y017976D01*
X038788Y017950D01*
X038792Y017924D01*
X038792Y017896D01*
X038788Y017870D01*
X038780Y017844D01*
X038768Y017820D01*
X038753Y017797D01*
X038734Y017778D01*
X038712Y017761D01*
X038688Y017748D01*
X038663Y017739D01*
X038636Y017734D01*
X038609Y017733D01*
X038582Y017736D01*
X038556Y017743D01*
X038531Y017755D01*
X038509Y017769D01*
X038488Y017787D01*
X038471Y017808D01*
X038457Y017831D01*
X038447Y017857D01*
X038441Y017883D01*
X038439Y017910D01*
X038439Y016591D02*
X038441Y016618D01*
X038447Y016644D01*
X038457Y016670D01*
X038471Y016693D01*
X038488Y016714D01*
X038509Y016732D01*
X038531Y016746D01*
X038556Y016758D01*
X038582Y016765D01*
X038609Y016768D01*
X038636Y016767D01*
X038663Y016762D01*
X038688Y016753D01*
X038712Y016740D01*
X038734Y016723D01*
X038753Y016704D01*
X038768Y016681D01*
X038780Y016657D01*
X038788Y016631D01*
X038792Y016605D01*
X038792Y016577D01*
X038788Y016551D01*
X038780Y016525D01*
X038768Y016501D01*
X038753Y016478D01*
X038734Y016459D01*
X038712Y016442D01*
X038688Y016429D01*
X038663Y016420D01*
X038636Y016415D01*
X038609Y016414D01*
X038582Y016417D01*
X038556Y016424D01*
X038531Y016436D01*
X038509Y016450D01*
X038488Y016468D01*
X038471Y016489D01*
X038457Y016512D01*
X038447Y016538D01*
X038441Y016564D01*
X038439Y016591D01*
X000446Y031187D02*
X000449Y031250D01*
X000457Y031312D01*
X000472Y031373D01*
X000491Y031432D01*
X000516Y031490D01*
X000546Y031545D01*
X000581Y031597D01*
X000621Y031646D01*
X000665Y031691D01*
X000712Y031731D01*
X000764Y031767D01*
X000818Y031799D01*
X000875Y031825D01*
X000934Y031846D01*
X000995Y031862D01*
X001057Y031872D01*
X001119Y031876D01*
X001182Y031874D01*
X001244Y031867D01*
X001306Y031855D01*
X001366Y031836D01*
X001424Y031813D01*
X001479Y031784D01*
X001532Y031750D01*
X001582Y031711D01*
X001628Y031669D01*
X001669Y031622D01*
X001707Y031571D01*
X001739Y031518D01*
X001767Y031461D01*
X001789Y031403D01*
X001806Y031343D01*
X001818Y031281D01*
X001823Y031218D01*
X001823Y031156D01*
X001818Y031093D01*
X001806Y031031D01*
X001789Y030971D01*
X001767Y030913D01*
X001739Y030856D01*
X001707Y030803D01*
X001669Y030752D01*
X001628Y030705D01*
X001582Y030663D01*
X001532Y030624D01*
X001480Y030590D01*
X001424Y030561D01*
X001366Y030538D01*
X001306Y030519D01*
X001244Y030507D01*
X001182Y030500D01*
X001119Y030498D01*
X001057Y030502D01*
X000995Y030512D01*
X000934Y030528D01*
X000875Y030549D01*
X000818Y030575D01*
X000764Y030607D01*
X000712Y030643D01*
X000665Y030683D01*
X000621Y030728D01*
X000581Y030777D01*
X000546Y030829D01*
X000516Y030884D01*
X000491Y030942D01*
X000472Y031001D01*
X000457Y031062D01*
X000449Y031124D01*
X000446Y031187D01*
M02*
