G75*
G70*
%OFA0B0*%
%FSLAX24Y24*%
%IPPOS*%
%LPD*%
%AMOC8*
5,1,8,0,0,1.08239X$1,22.5*
%
%ADD10R,0.0493X0.0474*%
%ADD11R,0.0946X0.0493*%
%ADD12R,0.0395X0.0395*%
%ADD13R,0.0395X0.0474*%
%ADD14R,0.0474X0.0395*%
D10*
X002326Y002412D03*
X004275Y002412D03*
X004275Y006349D03*
X002326Y006349D03*
X002326Y010286D03*
X004275Y010286D03*
X004275Y014223D03*
X002326Y014223D03*
X002326Y018160D03*
X004256Y018160D03*
X010200Y018160D03*
X010200Y014223D03*
X010200Y010286D03*
X010200Y006349D03*
X010200Y002412D03*
X016480Y002412D03*
X016480Y006349D03*
X016480Y010286D03*
X016480Y014223D03*
X016480Y018160D03*
D11*
X001726Y001831D03*
X001726Y002993D03*
X001726Y005768D03*
X001726Y006930D03*
X001726Y009705D03*
X001726Y010867D03*
X001726Y013642D03*
X001726Y014804D03*
X001726Y017579D03*
X001726Y018741D03*
X004856Y018741D03*
X004856Y017579D03*
X004876Y014804D03*
X004876Y013642D03*
X004876Y010867D03*
X004876Y009705D03*
X004876Y006930D03*
X004876Y005768D03*
X004876Y002993D03*
X004876Y001831D03*
X009600Y001831D03*
X009600Y002993D03*
X009600Y005768D03*
X009600Y006930D03*
X009600Y009705D03*
X009600Y010867D03*
X009600Y013642D03*
X009600Y014804D03*
X009600Y017579D03*
X009600Y018741D03*
X017080Y018741D03*
X017080Y017579D03*
X017080Y014804D03*
X017080Y013642D03*
X017080Y010867D03*
X017080Y009705D03*
X017080Y006930D03*
X017080Y005768D03*
X017080Y002993D03*
X017080Y001831D03*
D12*
X015309Y001940D03*
X015309Y001310D03*
X014639Y003003D03*
X014009Y003003D03*
X012671Y002412D03*
X012041Y002412D03*
X011372Y001940D03*
X011372Y001310D03*
X011372Y005247D03*
X011372Y005877D03*
X012041Y006349D03*
X012671Y006349D03*
X014009Y006940D03*
X014639Y006940D03*
X015309Y005877D03*
X015309Y005247D03*
X015309Y009184D03*
X015309Y009814D03*
X014639Y010877D03*
X014009Y010877D03*
X012671Y010286D03*
X012041Y010286D03*
X011372Y009814D03*
X011372Y009184D03*
X011372Y013121D03*
X011372Y013751D03*
X012041Y014223D03*
X012671Y014223D03*
X014009Y014833D03*
X014639Y014833D03*
X015309Y013751D03*
X015309Y013121D03*
X015309Y017058D03*
X015309Y017688D03*
X014639Y018947D03*
X014009Y018947D03*
X012671Y018160D03*
X012041Y018160D03*
X011372Y017688D03*
X011372Y017058D03*
X003931Y017058D03*
X003931Y017688D03*
X003616Y018160D03*
X002986Y018160D03*
X002651Y017688D03*
X002651Y017058D03*
X002986Y014223D03*
X002651Y013751D03*
X002651Y013121D03*
X003950Y013121D03*
X003950Y013751D03*
X003616Y014223D03*
X003616Y010286D03*
X003950Y009814D03*
X003950Y009184D03*
X002986Y010286D03*
X002651Y009814D03*
X002651Y009184D03*
X002986Y006349D03*
X002651Y005877D03*
X002651Y005247D03*
X003950Y005247D03*
X003950Y005877D03*
X003616Y006349D03*
X003616Y002412D03*
X003970Y001940D03*
X003970Y001310D03*
X002986Y002412D03*
X002651Y001940D03*
X002651Y001310D03*
D13*
X002986Y003101D03*
X003616Y003101D03*
X003616Y006999D03*
X002986Y006999D03*
X002986Y010936D03*
X003616Y010936D03*
X003616Y014873D03*
X002986Y014873D03*
X002986Y018751D03*
X003616Y018751D03*
X012041Y018947D03*
X012671Y018947D03*
X014009Y018160D03*
X014639Y018160D03*
X012671Y014833D03*
X012041Y014833D03*
X014009Y014223D03*
X014639Y014223D03*
X012671Y010877D03*
X012041Y010877D03*
X014009Y010286D03*
X014639Y010286D03*
X012671Y006940D03*
X012041Y006940D03*
X014009Y006349D03*
X014639Y006349D03*
X012671Y003003D03*
X012041Y003003D03*
X014009Y002412D03*
X014639Y002412D03*
D14*
X015899Y001940D03*
X015899Y001310D03*
X015899Y005247D03*
X015899Y005877D03*
X015899Y009184D03*
X015899Y009814D03*
X015899Y013121D03*
X015899Y013751D03*
X015899Y017058D03*
X015899Y017688D03*
X010781Y017688D03*
X010781Y017058D03*
X010781Y013751D03*
X010781Y013121D03*
X010781Y009814D03*
X010781Y009184D03*
X010781Y005877D03*
X010781Y005247D03*
X010781Y001940D03*
X010781Y001310D03*
M02*
